<?xml version="1.0" standalone="no"?>
<!DOCTYPE svg PUBLIC "-//W3C//DTD SVG 1.1//EN" "http://www.w3.org/Graphics/SVG/1.1/DTD/svg11.dtd" >
<svg xmlns="http://www.w3.org/2000/svg">
<metadata></metadata>
<defs>
<font id="ashburyextralight" horiz-adv-x="1071" >
<font-face units-per-em="2048" ascent="1536" descent="-512" />
<missing-glyph horiz-adv-x="446" />
<glyph unicode="&#xfb01;" horiz-adv-x="1245" d="M94 33q0 12 6.5 21t16.5 9q3 0 18 -1t23 -1q68 0 88 39q20 46 20 162v539q0 17 -6.5 22.5t-28.5 5.5q-36 0 -71 -2t-37 -2q-23 0 -23 41q0 27 25 31q82 10 108 41q16 18 23 49t10 103q7 193 47 297.5t121 166.5q112 86 279 86q122 0 194 -59t72 -147q0 -44 -22 -66 t-56 -22q-70 0 -76 71q-5 63 -26 101q-15 26 -47 40.5t-72 14.5q-79 0 -144 -39t-100 -117q-74 -161 -74 -479q0 -16 6 -22.5t25 -6.5q239 0 426 6q74 3 129 35q23 13 35 13q11 0 19 -8t8 -21q0 -24 -2 -47q-7 -124 -7 -320v-307q0 -136 23 -166q23 -33 100 -33q9 0 20 1 t13 1q29 0 29 -32q0 -35 -29 -35q-4 0 -30 2.5t-73 5t-102 2.5q-56 0 -99.5 -2.5t-66 -5t-26.5 -2.5q-27 0 -27 37q0 30 29 30q4 0 18 -1t19 -1q68 0 84 37q22 42 22 158v324q0 142 -26 190q-13 29 -52.5 42t-117.5 15q-121 2 -316 2q-19 0 -25 -6t-6 -22v-541 q0 -137 33 -170q27 -29 113 -29q7 0 26 1t27 1q27 0 27 -32q0 -35 -29 -35q-4 0 -41 2.5t-95 5t-112 2.5q-70 0 -130.5 -5t-61.5 -5q-25 0 -25 37z" />
<glyph unicode="&#xfb02;" horiz-adv-x="1230" d="M94 33q0 12 6.5 21t16.5 9q3 0 18 -1t23 -1q68 0 88 39q20 46 20 162v539q0 17 -6.5 22.5t-28.5 5.5q-36 0 -71 -2t-37 -2q-23 0 -23 41q0 27 25 31q82 10 108 41q16 18 23 49t10 103q8 201 40 305.5t106 167.5q48 40 121.5 61t142.5 21q103 0 188 -39q14 -7 19 -7 q6 0 18 9q3 2 15 11t18.5 13t16 8.5t16.5 4.5q9 0 15.5 -6t6.5 -17q0 -3 -2 -56.5t-4 -162.5t-2 -248v-891q0 -136 25 -168q23 -33 94 -33q8 0 25 2.5t20 2.5q22 0 22 -33q0 -17 -7 -27t-15 -10q-6 0 -33.5 2.5t-75 5t-100.5 2.5q-55 0 -102 -2.5t-73 -5t-30 -2.5 q-22 0 -22 37q0 13 6.5 23t15.5 10q3 0 20 -2.5t27 -2.5q26 0 50.5 10.5t33.5 28.5q21 40 21 160v938q0 214 -37 275q-35 56 -79.5 80t-125.5 24q-72 0 -137.5 -51.5t-89.5 -118.5q-52 -139 -52 -471q0 -16 6 -22.5t25 -6.5q75 0 131 3t68 3q11 0 18 -2t13 -12.5t6 -30.5 q0 -45 -37 -45q-3 0 -25 1t-68 2t-106 1q-19 0 -25 -6t-6 -22v-541q0 -137 33 -170q27 -29 113 -29q7 0 26 1t27 1q27 0 27 -32q0 -35 -29 -35q-4 0 -41 2.5t-95 5t-112 2.5q-70 0 -130.5 -5t-61.5 -5q-25 0 -25 37z" />
<glyph unicode="&#xfb03;" horiz-adv-x="1906" d="M94 33q0 12 6.5 21t16.5 9q3 0 18 -1t23 -1q68 0 88 39q20 46 20 162v539q0 17 -6.5 22.5t-28.5 5.5q-36 0 -71 -2t-37 -2q-23 0 -23 41q0 27 25 31q32 4 46.5 6.5t32.5 10t29 20.5q16 19 23 46.5t10 98.5q7 188 40 278.5t108 158.5q44 41 109.5 61t129.5 20 q99 0 166.5 -39.5t67.5 -117.5q0 -74 -72 -74q-70 0 -76 68q-5 45 -12 59q-20 39 -111 39q-66 0 -120.5 -48t-79.5 -118q-54 -156 -54 -432q0 -16 6 -22.5t25 -6.5q75 0 167 -1t104 -1q125 0 169 9.5t62 29.5q16 18 23 47.5t10 100.5q7 193 47 297.5t121 166.5 q112 86 278 86q122 0 194 -59t72 -147q0 -44 -21.5 -66t-55.5 -22q-70 0 -76 71q-5 61 -27 101q-15 26 -47 40.5t-72 14.5q-79 0 -143.5 -39t-99.5 -117q-74 -161 -74 -479q0 -16 6 -22.5t25 -6.5q239 0 426 6q74 3 129 35q23 13 35 13q11 0 18.5 -8t7.5 -21q0 -24 -2 -47 q-6 -106 -6 -320v-307q0 -136 23 -166q23 -33 100 -33q9 0 20 1t13 1q28 0 28 -32q0 -35 -28 -35q-4 0 -30 2.5t-73 5t-102 2.5q-56 0 -99.5 -2.5t-66.5 -5t-27 -2.5q-26 0 -26 37q0 30 28 30q4 0 18 -1t19 -1q68 0 84 37q23 44 23 158v324q0 134 -27 190q-15 29 -53.5 42.5 t-116.5 14.5q-121 2 -315 2q-19 0 -25 -6t-6 -22v-541q0 -137 33 -170q27 -29 112 -29q7 0 26.5 1t27.5 1q26 0 26 -32q0 -35 -28 -35q-4 0 -41 2.5t-95 5t-112 2.5q-70 0 -131 -5t-62 -5q-24 0 -24 37q0 30 22 30q3 0 18 -1t23 -1q68 0 88 39q21 48 21 162v539 q0 17 -6.5 22.5t-28.5 5.5q-147 5 -281 5q-102 0 -219 -5q-20 -1 -25.5 -6.5t-5.5 -21.5v-541q0 -137 33 -170q27 -29 113 -29q7 0 26 1t27 1q27 0 27 -32q0 -35 -29 -35q-4 0 -41 2.5t-95 5t-112 2.5q-70 0 -130.5 -5t-61.5 -5q-25 0 -25 37z" />
<glyph unicode="&#xfb04;" horiz-adv-x="1892" d="M94 33q0 12 6.5 21t16.5 9q3 0 18 -1t23 -1q68 0 88 39q20 46 20 162v539q0 17 -6.5 22.5t-28.5 5.5q-36 0 -71 -2t-37 -2q-23 0 -23 41q0 27 25 31q32 4 46.5 6.5t32.5 10t29 20.5q16 19 23 46.5t10 98.5q7 188 40 278.5t108 158.5q44 41 109.5 61t129.5 20 q99 0 166.5 -39.5t67.5 -117.5q0 -74 -72 -74q-70 0 -76 68q-5 45 -12 59q-20 39 -111 39q-66 0 -120.5 -48t-79.5 -118q-54 -156 -54 -432q0 -16 6 -22.5t25 -6.5q75 0 167 -1t104 -1q86 0 136.5 6.5t66.5 14.5t28 22q17 19 23.5 46t9.5 93q8 202 39.5 309t105.5 169 q48 40 121.5 61t142.5 21q104 0 189 -39q14 -7 18 -7q7 0 19 9q4 3 15.5 11.5t17.5 13t15.5 8.5t16.5 4q9 0 16 -6t7 -17q0 -3 -2.5 -56.5t-4.5 -162.5t-2 -248v-891q0 -136 25 -168q23 -33 94 -33q8 0 25 2.5t20 2.5q23 0 23 -33q0 -17 -7 -27t-16 -10q-6 0 -33.5 2.5 t-75 5t-100.5 2.5q-55 0 -102 -2.5t-72.5 -5t-29.5 -2.5q-23 0 -23 37q0 13 7 23t16 10q3 0 20 -2.5t27 -2.5q26 0 50.5 10.5t33.5 28.5q20 38 20 160v938q0 214 -37 275q-35 56 -79.5 80t-124.5 24q-72 0 -138 -51.5t-90 -118.5q-51 -136 -51 -471q0 -16 6 -22.5t25 -6.5 q75 0 130.5 3t67.5 3q11 0 18 -2t13 -12.5t6 -30.5q0 -45 -37 -45q-3 0 -25 1t-67.5 2t-105.5 1q-19 0 -25 -6t-6 -22v-541q0 -137 33 -170q27 -29 112 -29q7 0 26.5 1t27.5 1q26 0 26 -32q0 -35 -28 -35q-4 0 -41 2.5t-95 5t-112 2.5q-70 0 -131 -5t-62 -5q-24 0 -24 37 q0 30 22 30q3 0 18 -1t23 -1q68 0 88 39q21 48 21 162v539q0 17 -6.5 22.5t-28.5 5.5q-147 5 -281 5q-102 0 -219 -5q-20 -1 -25.5 -6.5t-5.5 -21.5v-541q0 -137 33 -170q27 -29 113 -29q7 0 26 1t27 1q27 0 27 -32q0 -35 -29 -35q-4 0 -41 2.5t-95 5t-112 2.5 q-70 0 -130.5 -5t-61.5 -5q-25 0 -25 37z" />
<glyph horiz-adv-x="2048" />
<glyph horiz-adv-x="2048" />
<glyph unicode="&#xd;" horiz-adv-x="2048" />
<glyph unicode=" "  horiz-adv-x="446" />
<glyph unicode="&#x09;" horiz-adv-x="446" />
<glyph unicode="&#xa0;" horiz-adv-x="446" />
<glyph unicode="!" horiz-adv-x="647" d="M272 82q0 44 28 71t71 27t69.5 -26t26.5 -70q0 -42 -27 -71t-69 -29q-45 0 -72 26t-27 72zM291 1276q0 102 76 102q41 0 59 -21.5t18 -76.5q0 -25 -19 -324t-19 -514q0 -29 -6.5 -41t-30.5 -12q-25 0 -33 10t-8 41q-2 213 -19.5 508t-17.5 328z" />
<glyph unicode="&#x22;" horiz-adv-x="561" d="M78 1343q0 78 67 78q40 0 55 -17.5t15 -57.5q0 -16 -5.5 -71t-15.5 -148.5t-16 -163.5q-1 -20 -6.5 -25.5t-21.5 -5.5t-22 6t-9 27q-6 76 -16.5 165.5t-17.5 145.5t-7 67zM346 1343q0 78 68 78q40 0 54.5 -17.5t14.5 -57.5q0 -16 -5.5 -71t-15.5 -148.5t-16 -163.5 q-1 -20 -6.5 -25.5t-21.5 -5.5t-23 6t-8 27q-6 76 -16.5 165.5t-17.5 145.5t-7 67z" />
<glyph unicode="#" horiz-adv-x="1112" d="M117 412q0 32 10 61q10 27 35 27h153q23 0 29 20l55 232q4 12 4 24q0 19 -22 19h-162q-26 0 -26 18q0 22 10 61q6 29 35 29h178q22 0 28 21l78 321q7 31 43 31q33 0 33 -21q0 -6 -4 -22l-74 -293q-2 -6 -2 -16q0 -21 23 -21h176q22 0 28 21l78 321q4 16 11.5 23.5 t27.5 7.5q35 0 35 -21q0 -12 -4 -24l-72 -291q-2 -6 -2 -16q0 -21 23 -21h125q28 0 28 -22q0 -29 -8 -60q-7 -26 -33 -26h-149q-23 0 -29 -21l-55 -231q-4 -12 -4 -25q0 -18 22 -18h152q29 0 29 -21q0 -17 -9 -59q-8 -31 -32 -31h-172q-23 0 -29 -20l-88 -357 q-3 -15 -10 -20.5t-31 -5.5q-14 0 -21 3t-8.5 7t-1.5 10q0 12 6 33l76 307q4 16 4 25q0 18 -22 18h-176q-23 0 -29 -20l-86 -357q-2 -10 -5 -14.5t-12 -8t-26 -3.5q-29 0 -29 18q0 11 6 35l76 315q2 8 2 17q0 18 -22 18h-138q-12 0 -19 7t-7 16zM416 518q0 -18 22 -18h178 q23 0 29 20l57 238q3 12 3 16q0 21 -23 21h-176q-23 0 -29 -21l-57 -229q-4 -12 -4 -27z" />
<glyph unicode="$" horiz-adv-x="1001" d="M117 217q0 35 20 55.5t51 20.5q67 0 74 -76q5 -58 33 -86q54 -59 160 -61q8 0 12.5 1t9 8.5t4.5 20.5v461q0 38 -22 49q-159 84 -225 167.5t-66 187.5q0 120 78.5 201.5t218.5 103.5q10 1 13 5.5t3 16.5v146q0 21 7.5 30t31.5 9q23 0 30 -8t7 -31v-140q0 -24 25 -24 q137 -3 216 -58.5t79 -142.5q0 -84 -70 -84q-34 0 -56 20t-22 60q0 18 -10.5 48t-26.5 44q-46 41 -114 41q-21 0 -21 -26v-441q0 -32 18 -41q172 -89 240 -172t68 -184q0 -132 -80.5 -219.5t-220.5 -114.5q-13 -2 -19 -9t-6 -26v-135q0 -21 -7.5 -29t-29.5 -8q-26 0 -32.5 8 t-6.5 29v129q0 18 -3.5 24.5t-16.5 6.5q-163 0 -253.5 66t-90.5 157zM279 991q0 -66 36.5 -120.5t133.5 -112.5q9 -6 20 -6q12 0 12 18v393q0 27 -22 27q-12 0 -32 -6t-46.5 -21t-48.5 -36t-37.5 -57t-15.5 -79zM557 100q0 -22 16 -22q15 0 35 8q156 64 156 219 q0 81 -44 136t-126 104q-13 8 -23 8q-14 0 -14 -21v-432z" />
<glyph unicode="%" horiz-adv-x="1585" d="M51 883q0 182 83.5 298.5t219.5 116.5q132 0 206.5 -104.5t74.5 -286.5q0 -189 -77.5 -303.5t-219.5 -114.5q-141 0 -214 106.5t-73 287.5zM141 891q0 -169 48 -255.5t153 -86.5q94 0 146.5 89.5t52.5 252.5q0 350 -195 350q-94 0 -149.5 -91t-55.5 -259zM483 18 q0 11 11 33l516 1182q5 12 8.5 18t11.5 10.5t21 4.5q36 0 36 -25q0 -12 -6 -27l-522 -1189q-6 -16 -15 -22.5t-30 -6.5q-15 0 -22 3.5t-8 7t-1 11.5zM950 379q0 182 83.5 299t219.5 117q132 0 206.5 -105t74.5 -287q0 -189 -77 -303t-220 -114q-141 0 -214 106t-73 287z M1040 387q0 -169 48 -255.5t153 -86.5q94 0 146.5 89.5t52.5 252.5q0 350 -195 350q-94 0 -149.5 -91t-55.5 -259z" />
<glyph unicode="&#x26;" horiz-adv-x="1486" d="M94 381q0 79 28 145t80.5 114.5t110 82t131.5 63.5q17 8 17 23q0 5 -10 25q-28 53 -49 123t-21 114q0 131 84 212t231 81q75 0 131.5 -24t85.5 -61.5t42.5 -74t13.5 -71.5q0 -169 -160 -273q-44 -28 -176 -86q-15 -8 -15 -22q0 -4 7.5 -16.5t11.5 -16.5 q147 -238 313 -434q21 -21 27 -21q5 0 20 15q74 91 113 192q25 73 25 115q0 14 -10.5 33t-22.5 26q-47 30 -47 72q0 27 23 50.5t65 23.5q43 0 70.5 -32.5t27.5 -76.5q0 -96 -49 -215q-46 -111 -141 -234q-13 -18 -13 -28q0 -8 11 -23q95 -106 200 -106q41 0 70 24.5t53 75.5 q11 17 27 17q13 0 25 -8t12 -21q0 -7 -17 -41q-85 -148 -190 -148q-70 0 -124.5 23.5t-137.5 107.5q-11 11 -19 11t-12 -4q-159 -140 -395 -140q-127 0 -227 46t-160 140t-60 222zM213 387q0 -65 20.5 -122.5t62 -105.5t113 -76t164.5 -28q81 0 171.5 30.5t140.5 80.5 q6 6 6 14q0 10 -6 19q-173 203 -353 487q-24 37 -49 37q-11 0 -63 -23q-85 -41 -146 -124t-61 -189zM496 1096q0 -37 2.5 -62.5t15 -71t37.5 -92.5q15 -28 41 -28q36 0 86 24q194 98 194 254q0 83 -50.5 127.5t-131.5 44.5q-86 0 -140 -50t-54 -146z" />
<glyph unicode="'" horiz-adv-x="292" d="M78 1343q0 78 67 78q40 0 55 -17.5t15 -57.5q0 -16 -5.5 -71t-15.5 -148.5t-16 -163.5q-1 -19 -8 -25t-23 -6q-15 0 -20 5.5t-8 27.5q-6 76 -16.5 165.5t-17.5 145.5t-7 67z" />
<glyph unicode="(" horiz-adv-x="638" d="M96 627q0 267 116 514t318 405q19 15 33 15q13 0 23 -10.5t10 -24.5q0 -17 -10 -27q-178 -160 -271.5 -371t-93.5 -501q0 -264 100.5 -500.5t268.5 -380.5q6 -6 6 -20q0 -12 -11 -23.5t-24 -11.5q-16 0 -35 16q-193 148 -311.5 396t-118.5 524z" />
<glyph unicode=")" horiz-adv-x="638" d="M43 -274q0 16 10 26q178 159 271.5 371t93.5 502q0 264 -100.5 500t-268.5 380q-6 6 -6 21q0 12 11 23.5t24 11.5q15 0 35 -17q193 -148 311.5 -395.5t118.5 -523.5q0 -267 -116 -515t-318 -405q-18 -14 -33 -14q-12 0 -22.5 10.5t-10.5 24.5z" />
<glyph unicode="*" horiz-adv-x="714" d="M84 1198q0 27 18.5 51.5t49.5 24.5q10 0 17.5 -2.5t16.5 -10.5t15 -15l21 -24.5t26 -29.5q37 -40 69 -64q9 -6 15 -6q8 0 8 13q0 6 -21 100q-3 14 -9.5 37t-9.5 37t-3 26q0 23 16.5 38.5t46.5 15.5q29 0 46.5 -14.5t17.5 -39.5q0 -11 -3.5 -24.5t-10.5 -36t-11 -39.5 q-14 -55 -20 -88q-2 -8 -2 -17q0 -12 8 -12q6 0 18 12q18 15 33 30t38.5 40.5t37.5 40.5q28 31 55 31q30 0 47 -20t17 -50q0 -35 -43 -51q-20 -8 -77.5 -24t-94.5 -31q-13 -6 -13 -13q0 -5 17 -12q50 -19 88 -27q78 -20 96 -30q23 -12 23 -37q0 -35 -17.5 -56.5t-44.5 -21.5 q-16 0 -37 15.5t-63 62.5q-47 51 -68 65q-7 7 -12 7q-8 0 -8 -15q0 -10 22 -94q4 -18 11 -43.5t10.5 -40.5t3.5 -27q0 -25 -16.5 -41t-45.5 -16q-65 0 -65 55q0 12 4 31t12 46.5t11 41.5q16 67 16 88q0 15 -8 15q-6 0 -13 -7q-16 -15 -33 -32.5t-37.5 -40.5t-33.5 -37 q-32 -37 -59 -37q-31 0 -49.5 21.5t-18.5 50.5q0 40 47 55q126 32 170 47q10 3 10 12q0 8 -12 13q-54 23 -151 45q-39 8 -53.5 22.5t-14.5 36.5z" />
<glyph unicode="+" horiz-adv-x="1314" d="M170 524v56q0 26 25 26h405v432q0 27 29 27h59q25 0 25 -27v-432h405q29 0 29 -26v-56q0 -26 -29 -26h-405v-432q0 -27 -25 -27h-57q-29 0 -29 27v432h-407q-25 0 -25 26z" />
<glyph unicode="," horiz-adv-x="436" d="M74 -375q0 17 18 31q70 55 116 120.5t46 129.5q0 45 -22 74.5t-70 48.5q-39 19 -39 63q0 34 24.5 62t69.5 28q46 0 80.5 -32.5t49.5 -76t15 -87.5q0 -90 -44.5 -179t-163.5 -188q-30 -27 -50 -27q-11 0 -20.5 10t-9.5 23z" />
<glyph unicode="-" horiz-adv-x="567" d="M59 489q0 33 7.5 44.5t27.5 11.5h381q22 0 27.5 -10t5.5 -43q0 -36 -6 -47t-31 -11h-377q-24 0 -29.5 10t-5.5 45z" />
<glyph unicode="." horiz-adv-x="436" d="M121 82q0 44 28.5 71t71.5 27t68.5 -26t25.5 -70q0 -42 -27 -71t-69 -29q-45 0 -71.5 25.5t-26.5 72.5z" />
<glyph unicode="/" horiz-adv-x="864" d="M8 -123q0 13 12 37l732 1536q9 20 19.5 29.5t33.5 9.5q45 0 45 -31q0 -15 -8 -31l-738 -1544q-8 -19 -18.5 -27t-36.5 -8q-41 0 -41 29z" />
<glyph unicode="0" d="M80 616q0 196 57.5 351t166 244t251.5 89q209 0 322.5 -170.5t113.5 -470.5q0 -204 -50.5 -356t-156 -241t-256.5 -89q-148 0 -250 82t-150 224.5t-48 336.5zM205 633q0 -286 79.5 -433t252.5 -147q154 0 238.5 151t84.5 427q0 592 -317 592q-154 0 -246 -153.5 t-92 -436.5z" />
<glyph unicode="1" d="M291 35q0 15 6.5 24t15.5 9q4 0 22 -1t23 -1q37 0 67.5 9.5t39.5 26.5q18 40 18 160v653q0 161 -18 199q-11 23 -53 23q-24 0 -56 -3.5t-34 -3.5q-11 0 -18 10.5t-7 24.5q0 27 20 31q113 26 220 102q21 13 41 13q10 0 17 -8.5t7 -22.5q0 -24 -2 -57q-6 -104 -6 -308v-649 q0 -137 27 -168q26 -32 100 -32q6 0 25 1t20 1q11 0 18 -10.5t7 -24.5t-7.5 -24.5t-17.5 -10.5q-5 0 -33.5 3t-78 6t-103.5 3q-51 0 -106 -3t-90.5 -6t-41.5 -3q-22 0 -22 37z" />
<glyph unicode="2" d="M35 31q0 20 37 43q367 248 523.5 445t156.5 407q0 120 -74.5 199t-194.5 79q-145 0 -211 -74q-54 -60 -65 -122q-7 -31 -41 -31q-37 0 -37 37q0 22 14 57q11 27 30 56t52.5 60.5t74.5 56t99.5 40.5t124.5 16q168 0 261.5 -99.5t93.5 -272.5q0 -98 -23.5 -179.5 t-95.5 -184t-197 -214.5q-101 -90 -264 -207q-16 -11 -16 -18q0 -14 24 -14q117 -5 256 -5q124 0 184 12.5t85 41.5t32 90q4 29 33 29q33 0 33 -23q0 -8 -6 -43q-13 -114 -13 -193q0 -24 -34 -24q-2 0 -55.5 2.5t-147.5 5t-193 2.5q-118 0 -209 -2t-138 -4t-58 -2 q-23 0 -32 7.5t-9 25.5z" />
<glyph unicode="3" d="M152 27q0 29 17 46t42 17q23 0 63 -20q35 -17 97 -17q187 0 299 88.5t112 245.5q0 126 -80 204.5t-206 78.5q-78 0 -136 -21q-36 -12 -49 -12q-15 0 -22.5 14.5t-7.5 28.5q0 22 11.5 31t47.5 12q84 7 158 47q96 47 148 114t52 140q0 88 -52.5 139t-149.5 51 q-58 0 -105.5 -18t-73.5 -47q-37 -46 -45 -78q-9 -29 -43 -29q-39 0 -39 35q0 26 21 56q109 167 336 167q125 0 197.5 -68t72.5 -173q0 -100 -55 -171.5t-166 -127.5q-14 -7 -14 -15q0 -12 14 -12q145 -12 227 -94.5t82 -212.5q0 -84 -34.5 -159.5t-94.5 -132.5t-139 -99.5 t-172 -64t-189 -21.5q-60 0 -92 21t-32 57z" />
<glyph unicode="4" d="M63 377q0 21 21 51q487 656 627 850q24 35 53 35q41 0 41 -39q0 -6 -1 -70t-1 -141v-584q0 -16 5.5 -22t27.5 -6h125q24 0 32 -10.5t8 -41.5q0 -39 -7.5 -48t-35.5 -9h-127q-17 0 -21.5 -7t-4.5 -32v-305q0 -31 -10 -41t-43 -10q-39 0 -48.5 8t-9.5 43v301q0 25 -8 33 t-31 8h-530q-62 0 -62 37zM219 461q0 -17 27 -17h405q29 0 36 7t7 28q0 219 2 404t2 190q0 27 -12 27q-6 0 -20 -21q-54 -75 -208.5 -281.5t-230.5 -314.5q-8 -12 -8 -22z" />
<glyph unicode="5" d="M147 31q0 25 17 43t41 18q13 0 36 -11.5t33 -14.5q43 -13 97 -13q185 0 298 95t113 251q0 58 -14 106t-37 81.5t-59 59.5t-73 42t-87 27.5t-92.5 17.5t-97.5 10q-62 4 -62 60q0 12 10.5 72t32 175.5t33.5 186.5q2 14 4.5 21t9.5 12.5t19 5.5l61 -1q62 -1 115 -1 q62 0 117.5 1t91 2t62 2t40.5 2t16 1q21 0 21 -12q0 -26 -14 -78q-9 -29 -27 -29q-5 0 -55.5 0.5t-122 1t-125.5 0.5q-84 0 -131 -2q-18 -1 -25 -10t-10 -29q-41 -220 -41 -247q0 -25 33 -31q278 -29 404 -125t126 -279q0 -134 -86 -247.5t-234 -179.5t-323 -66 q-56 0 -85.5 22t-29.5 60z" />
<glyph unicode="6" d="M129 567q0 116 19.5 223t63.5 205.5t110 171t165 115.5t222 43q69 0 111.5 -11t76.5 -36q14 -11 25.5 -31.5t11.5 -38.5q0 -36 -18.5 -53.5t-45.5 -17.5q-47 0 -65 34q-44 74 -129 74q-343 0 -424 -497q-10 -62 -10 -91q0 -10 12 -10q5 0 16 17q45 75 134.5 122.5 t197.5 47.5q164 0 270.5 -106t106.5 -288q0 -114 -32.5 -204.5t-90 -147t-133.5 -86t-166 -29.5q-202 0 -315 154t-113 440zM254 432q0 -68 20 -134t57.5 -121.5t98.5 -89.5t135 -34q132 0 212.5 96t80.5 259q0 158 -76.5 249t-216.5 91q-91 0 -167 -48.5t-117 -126.5 q-27 -50 -27 -141z" />
<glyph unicode="7" d="M133 977q0 6 7 40t18.5 95.5t19.5 124.5q3 23 16 31t42 8q6 0 53.5 -2t137 -4t198.5 -2q50 0 195 2t157 2q22 0 22 -25q0 -9 -18 -49q-338 -706 -518 -1204q-18 -49 -64 -49q-47 0 -47 51q0 23 19 74q104 259 242 556.5t253 501.5q6 9 6 23q0 12 -34 12q-204 6 -209 6 q-186 0 -249.5 -4t-88.5 -18q-29 -16 -46.5 -54.5t-39.5 -123.5q-3 -8 -5 -12t-9 -8.5t-19 -4.5q-20 0 -29.5 6.5t-9.5 26.5z" />
<glyph unicode="8" d="M131 319q0 104 64 192.5t194 141.5q23 10 23 19q0 3 -0.5 5t-2.5 4t-3.5 3t-5.5 3t-5 3q-76 38 -124.5 91t-66.5 102t-18 100q0 139 105.5 228t273.5 89q147 0 240.5 -80.5t93.5 -213.5q0 -93 -59.5 -177t-161.5 -133q-16 -7 -16 -18q0 -9 16 -16q262 -118 262 -330 q0 -154 -110.5 -256.5t-301.5 -102.5q-183 0 -290 97t-107 249zM254 330q0 -124 77 -200.5t208 -76.5q119 0 196.5 72t77.5 176q0 108 -62.5 179t-232.5 141q-12 6 -26 6q-17 0 -29 -6q-209 -96 -209 -291zM307 1006q0 -91 52 -155.5t184 -125.5q14 -6 28 -6q11 0 21 4 q82 40 133 110t51 154q0 109 -58.5 172.5t-162.5 63.5q-112 0 -180 -62t-68 -155z" />
<glyph unicode="9" d="M92 858q0 114 35.5 204.5t96 147t138.5 86t166 29.5q201 0 307.5 -149t106.5 -435q0 -120 -18 -227.5t-60.5 -208t-107 -173t-163 -116t-222.5 -43.5q-152 0 -215 52q-35 28 -35 69q0 28 18 48t47 20q22 0 41.5 -10t28.5 -27q18 -33 59.5 -52.5t87.5 -19.5q339 0 416 502 q10 62 10 90q0 10 -12 10q-5 0 -16 -16q-45 -75 -134.5 -122.5t-197.5 -47.5q-165 0 -271 104t-106 285zM213 889q0 -158 76.5 -246t216.5 -88q91 0 167.5 48.5t117.5 125.5q26 49 26 141q0 68 -18 133t-53 120t-94.5 88.5t-133.5 33.5q-129 0 -217 -98.5t-88 -257.5z" />
<glyph unicode=":" horiz-adv-x="485" d="M164 82q0 44 28.5 71t71.5 27t68.5 -26t25.5 -70q0 -42 -27 -71t-69 -29q-45 0 -71.5 25.5t-26.5 72.5zM164 811q0 44 28.5 71t71.5 27t68.5 -26t25.5 -70q0 -42 -27 -71t-69 -29q-45 0 -71.5 25.5t-26.5 72.5z" />
<glyph unicode=";" horiz-adv-x="485" d="M106 -375q0 16 19 31q70 55 116 120.5t46 129.5q0 45 -22.5 73.5t-69.5 49.5q-15 6 -27 22t-12 41q0 34 24.5 62t69.5 28q46 0 80.5 -32.5t49.5 -76t15 -87.5q0 -90 -45 -179t-164 -188q-30 -27 -49 -27q-11 0 -21 10t-10 23zM164 811q0 44 28.5 71t71.5 27t68.5 -26 t25.5 -70q0 -42 -27 -71t-69 -29q-45 0 -71.5 25.5t-26.5 72.5z" />
<glyph unicode="&#x3c;" horiz-adv-x="1314" d="M211 498v73q0 23 18 31l793 395q4 4 14 4q19 0 19 -24v-66q0 -18 -21 -30l-698 -344l698 -342q21 -9 21 -29v-66q0 -24 -19 -24q-6 0 -14 4l-793 389q-18 8 -18 29z" />
<glyph unicode="=" horiz-adv-x="1314" d="M172 348v60q0 24 25 24h919q29 0 29 -24v-60q0 -26 -29 -26h-919q-25 0 -25 26zM172 684v55q0 27 25 27h919q29 0 29 -27v-55q0 -29 -29 -29h-919q-25 0 -25 29z" />
<glyph unicode="&#x3e;" horiz-adv-x="1314" d="M262 100v64q0 24 19 29l700 348l-700 338q-19 11 -19 32v66q0 24 17 24q2 0 14 -4l792 -389q19 -13 19 -30v-74q0 -18 -19 -31l-792 -393q-6 -4 -14 -4q-17 0 -17 24z" />
<glyph unicode="?" horiz-adv-x="884" d="M121 1120q0 96 99 177t265 81q151 0 243.5 -76t92.5 -204q0 -110 -45.5 -182t-185.5 -164q-44 -29 -64.5 -43.5t-48.5 -41.5t-39.5 -57t-11.5 -67q0 -27 11.5 -65.5t11.5 -55.5q0 -33 -39 -33q-29 0 -39 33q-23 73 -23 145q0 57 19.5 98t55.5 74t116 92q84 61 117.5 117 t33.5 135q0 99 -59.5 157t-161.5 58q-207 0 -207 -147q0 -6 1 -26.5t1 -26.5q0 -32 -21.5 -50t-52.5 -18q-69 0 -69 90zM334 82q0 44 27.5 71t70.5 27t69.5 -26t26.5 -70q0 -42 -27 -71t-69 -29q-45 0 -71.5 25.5t-26.5 72.5z" />
<glyph unicode="@" horiz-adv-x="1699" d="M135 416q0 177 62.5 333t170 266.5t257.5 174t319 63.5q136 0 247.5 -36t192.5 -106t125.5 -179t44.5 -248q0 -146 -61 -281t-163 -218t-214 -83q-102 0 -102 105q0 53 30 158q11 33 11 38q0 11 -13 11q-6 0 -16 -13q-189 -301 -385 -301q-89 0 -140.5 54t-51.5 133 q0 94 29 186t108 201q84 116 181 162.5t214 46.5q43 0 91 -14.5t63 -14.5q20 0 29 8t16 25q1 2 6.5 14.5t8 15.5t9.5 8t17 5q32 0 32 -27q0 -13 -8 -41q-52 -178 -94 -366q-37 -163 -37 -252q3 -56 51 -56q73 0 140.5 69.5t108 181t40.5 229.5q0 248 -134.5 380t-373.5 132 q-194 0 -354 -100.5t-251 -274t-91 -381.5q0 -277 175 -449t454 -172q297 0 458 154q33 29 56 29q17 0 28 -10t11 -25q0 -20 -17 -39q-73 -88 -223 -138t-336 -50q-207 0 -370.5 84.5t-257 243t-93.5 364.5zM567 315q0 -125 101 -125q50 0 103.5 29t101 77.5t87 102 t72.5 111.5q62 108 62 229q-3 74 -146 74q-152 0 -264 -156q-56 -78 -86.5 -173t-30.5 -169z" />
<glyph unicode="A" horiz-adv-x="1435" d="M10 29q0 37 29 37q5 0 17 -1.5t20 -1.5q57 0 86 41q40 58 88 175q73 179 216 521.5t175 422.5q25 71 27 96q3 29 28 39q52 18 56 18q17 0 22 -24q7 -27 41 -119q21 -55 371 -952q51 -132 86 -179q29 -39 92 -39q6 0 17 1.5t16 1.5q28 0 28 -35t-26 -35q-4 0 -75 4t-122 4 q-50 0 -157.5 -4t-108.5 -4q-31 0 -31 35t29 35q2 0 17 -1.5t20 -1.5q71 0 100 14.5t29 49.5q0 47 -43 156l-72 188q-16 39 -29 51.5t-43 12.5h-419q-25 0 -37 -11t-23 -39l-82 -204q-49 -129 -49 -166q0 -28 26.5 -40t90.5 -12q9 0 26.5 1.5t20.5 1.5q25 0 25 -31 q0 -39 -29 -39q-2 0 -100 4t-148 4q-48 0 -113 -4t-69 -4q-23 0 -23 33zM496 637q0 -18 13.5 -23.5t55.5 -5.5h293q34 0 47 6t13 23q0 15 -13 45l-178 463q-7 20 -16 20q-5 0 -8.5 -5t-10.5 -21l-182 -457q-14 -33 -14 -45z" />
<glyph unicode="B" horiz-adv-x="1239" d="M76 31q0 35 24 35q2 0 19 -1.5t22 -1.5q88 0 109 41q20 38 20 181v784q0 149 -20 180q-23 41 -103 41q-7 0 -24 -2t-19 -2q-15 0 -21.5 7.5t-6.5 29.5q0 17 8.5 26t21.5 9q7 0 39.5 -3t85 -6t107.5 -3q27 0 115 4t131 4q246 0 354.5 -80t108.5 -232q0 -110 -58.5 -181.5 t-189.5 -121.5q-17 -7 -17 -14q0 -9 17 -12q153 -24 237 -115.5t84 -222.5q0 -195 -139 -287t-389 -92q-32 0 -116.5 4t-129.5 4q-55 0 -110 -2t-90 -4t-42 -2q-28 0 -28 35zM383 301q0 -120 16 -160q27 -63 258 -63q170 0 252 62.5t82 199.5q0 82 -26.5 143t-68.5 96.5 t-105.5 57t-127 28.5t-143.5 7q-67 0 -100 -4q-19 -2 -28 -11t-9 -34v-322zM383 791q0 -25 8 -34t27 -12q12 -2 53 -2q447 0 447 293q0 70 -27.5 119t-79.5 75.5t-114.5 38t-145.5 11.5q-98 0 -131 -4q-37 -3 -37 -51v-434z" />
<glyph unicode="C" horiz-adv-x="1406" d="M104 659q0 209 83.5 369.5t252.5 254t404 93.5q68 0 129.5 -6.5t93 -13t79.5 -18.5t62 -15q54 -10 54 -47q1 -56 13.5 -152t12.5 -108q0 -33 -37 -33q-35 0 -41 25q-24 131 -75 190q-40 46 -114.5 72t-225.5 26q-116 0 -217.5 -39.5t-179.5 -114.5t-123.5 -193.5 t-45.5 -266.5q0 -146 45.5 -265t125 -198t188 -121.5t235.5 -42.5q209 0 322 113q50 50 96 166q9 28 41 28q31 0 31 -26q0 -27 -20 -102.5t-40 -112.5q-22 -42 -71 -66q-79 -40 -160.5 -60t-210.5 -20q-140 0 -256.5 34.5t-199 96t-139.5 147.5t-84.5 188t-27.5 218z" />
<glyph unicode="D" horiz-adv-x="1533" d="M76 31q0 35 24 35q2 0 15 -1.5t18 -1.5q94 0 117 41q20 45 20 175v776q0 158 -18 190q-11 19 -39.5 32t-62.5 13q-5 0 -24.5 -1t-23.5 -1q-26 0 -26 33q0 18 8.5 27.5t19.5 9.5q7 0 42.5 -2.5t91 -5t110.5 -2.5q42 0 122.5 3t117.5 3q342 0 520 -82q155 -71 238.5 -219.5 t83.5 -345.5q0 -184 -58 -322t-165 -222.5t-248.5 -125.5t-317.5 -41q-68 0 -167 4t-126 4q-55 0 -108.5 -2t-87.5 -4t-41 -2q-35 0 -35 35zM383 283q0 -71 8.5 -106t30.5 -52q30 -22 95.5 -30.5t193.5 -8.5q100 0 188 21.5t162.5 68t128 114t83.5 164t30 214.5 q0 144 -46 267.5t-135 201.5q-89 79 -229.5 108t-351.5 29q-119 0 -140 -23q-18 -18 -18 -102v-866z" />
<glyph unicode="E" horiz-adv-x="1173" d="M76 29q0 37 24 37q4 0 22 -1.5t23 -1.5q82 0 105 41q20 38 20 175v794q0 142 -20 176q-25 41 -107 41q-5 0 -23 -1t-20 -1q-24 0 -24 31q0 39 28 39q7 0 50 -2.5t106 -5t119 -2.5q169 0 351 3t231 3q32 0 32 -37q1 -34 2.5 -91.5t2.5 -96.5t1 -44q0 -30 -32 -30 q-34 0 -37 26q-7 106 -49 154q-27 26 -77 33.5t-145 7.5q-188 0 -239 -4q-37 0 -37 -53v-428q0 -31 18.5 -39.5t63.5 -8.5q144 0 213 19q30 12 48 43t24 100q3 31 36 31t33 -29l-6 -79q-6 -79 -6 -132q0 -40 3 -106.5t3 -81.5q0 -27 -33 -27q-32 0 -35 27q-9 113 -59 143 q-34 19 -233 19q-41 0 -55.5 -10t-14.5 -39v-381q0 -82 16 -105q24 -35 96.5 -46t209.5 -11q171 0 221 37q36 25 59.5 67t48.5 109q10 24 37 24q35 0 35 -24q0 -16 -21 -104.5t-36 -141.5q-17 -49 -64 -49q-90 0 -263 3t-312 3q-55 0 -126.5 -1.5t-123 -3t-58.5 -1.5 q-9 0 -17.5 8t-8.5 25z" />
<glyph unicode="F" horiz-adv-x="1099" d="M76 33q0 14 7 23.5t17 9.5q2 0 16 -1.5t19 -1.5q95 0 115 41q20 38 20 185v784q0 142 -20 176q-25 41 -107 41q-5 0 -23 -1t-20 -1q-24 0 -24 31q0 39 28 39q7 0 50 -2.5t106 -5t119 -2.5q170 0 359.5 3t238.5 3q33 0 33 -37q1 -34 2.5 -91.5t2.5 -96.5t1 -44 q0 -30 -33 -30q-34 0 -37 26q-7 107 -49 158q-27 25 -75.5 32t-145.5 7q-205 0 -256 -4q-37 0 -37 -53v-451q0 -31 18 -39t64 -8q74 0 148 6t96 12q31 12 49 43t24 101q3 30 37 30q33 0 33 -28l-6 -79q-6 -79 -6 -132q0 -40 3 -107t3 -82q0 -26 -33 -26q-32 0 -35 26 q-9 115 -61 144q-30 18 -264 18q-41 0 -55.5 -10t-14.5 -39v-313q0 -152 33 -189q30 -35 129 -35q4 0 18 1.5t17 1.5q28 0 28 -35t-28 -35q-5 0 -41 3t-92 6t-111 3q-56 0 -110.5 -3t-88 -6t-37.5 -3q-24 0 -24 37z" />
<glyph unicode="G" horiz-adv-x="1523" d="M104 651q0 331 199.5 528t538.5 197q112 0 180.5 -8t138.5 -28l70 -19q45 -9 47 -45q2 -56 17.5 -153.5t15.5 -106.5q0 -33 -37 -33q-30 0 -37 29q-21 108 -80 184q-78 100 -321 100q-286 0 -447.5 -163.5t-161.5 -450.5q0 -194 80 -337.5t217.5 -216.5t313.5 -73 q227 0 299 80q17 18 22.5 49.5t5.5 94.5q0 136 -24 172q-25 41 -105 41q-8 0 -24 -1.5t-19 -1.5q-28 0 -28 35t28 35q5 0 39 -2.5t87.5 -5t107.5 -2.5q50 0 91 2.5t63 5t26 2.5q14 0 21 -1.5t12.5 -9t5.5 -22.5q0 -37 -29 -37q-5 0 -23.5 1.5t-31.5 1.5q-47 0 -64 -35 q-8 -17 -11 -29t-6 -48t-3 -97q0 -84 4 -123q2 -21 12.5 -43t10.5 -31q0 -27 -25 -31q-73 -12 -100 -20q-200 -60 -355 -60q-175 0 -313 50.5t-227 141.5t-135 214t-46 270z" />
<glyph unicode="H" horiz-adv-x="1601" d="M76 33q0 13 7 23t17 10q2 0 16 -1.5t19 -1.5q95 0 115 41q20 38 20 185v780q0 146 -20 180q-24 41 -109 41q-6 0 -22.5 -1t-18.5 -1q-24 0 -24 31q0 39 28 39q7 0 40.5 -3t87.5 -6t110 -3t106 3t79 6t34 3q31 0 31 -33q0 -37 -29 -37q-3 0 -16.5 1t-16.5 1 q-88 0 -118 -37q-29 -32 -29 -188v-264q0 -34 23.5 -43.5t101.5 -9.5h592q28 0 40.5 0.5t28 2.5t21.5 7.5t10 14.5t4 24v272q0 146 -20 180q-24 41 -107 41q-5 0 -22 -1t-21 -1q-24 0 -24 31q0 39 30 39q7 0 40 -3t87 -6t111 -3q55 0 105 3t79.5 6t34.5 3q29 0 29 -35 t-27 -35q-3 0 -16.5 1t-16.5 1q-90 0 -120 -37q-29 -32 -29 -188v-774q0 -157 29 -193q27 -35 118 -35q4 0 18 1.5t17 1.5q27 0 27 -35t-27 -35q-5 0 -37.5 3t-85 6t-106.5 3q-57 0 -111 -3t-86.5 -6t-36.5 -3q-26 0 -26 37q0 13 7 23t17 10q4 0 18 -1.5t19 -1.5 q38 0 70.5 11t42.5 30q20 38 20 185v340q0 15 -4 22.5t-20 11.5t-30.5 4.5t-51.5 0.5h-588q-88 0 -107.5 -6.5t-19.5 -36.5v-334q0 -157 29 -193q27 -35 116 -35q4 0 18 1.5t17 1.5q29 0 29 -33q0 -16 -8 -26.5t-21 -10.5q-5 0 -37 3t-84.5 6t-107.5 3q-56 0 -109.5 -3 t-86 -6t-36.5 -3q-26 0 -26 37z" />
<glyph unicode="I" horiz-adv-x="655" d="M76 35q0 12 7 21.5t17 9.5q2 0 16 -1.5t19 -1.5q95 0 115 41q20 38 20 185v776q0 150 -20 184q-24 41 -109 41q-6 0 -22.5 -1t-18.5 -1q-24 0 -24 33q0 37 28 37q7 0 42.5 -3t91.5 -6t112 -3t101 3t69 6t29 3q31 0 31 -33q0 -37 -29 -37q-3 0 -16.5 1t-16.5 1 q-74 0 -104 -37q-29 -32 -29 -192v-774q0 -153 29 -189q27 -35 102 -35q4 0 18 1.5t17 1.5q29 0 29 -35q0 -15 -8 -25t-21 -10q-5 0 -33.5 3t-77.5 6t-104 3q-56 0 -110.5 -3t-88 -6t-37.5 -3q-24 0 -24 39z" />
<glyph unicode="J" horiz-adv-x="712" d="M-70 -176q0 31 18 48t44 17q25 0 59 -24q30 -23 70 -23q61 0 118.5 36.5t73.5 115.5q17 77 17 194v881q0 145 -21 180q-21 41 -108 41q-5 0 -24 -1t-23 -1q-25 0 -25 33q0 37 31 37q7 0 41.5 -3t89 -6t110.5 -3q55 0 99.5 3t69 6t32.5 3q33 0 33 -33q0 -37 -29 -37 q-3 0 -16.5 1t-16.5 1q-68 0 -98 -37q-29 -32 -29 -188q1 -94 4 -367.5t3 -441.5q0 -114 -24.5 -205.5t-63 -149.5t-91 -96.5t-105 -54.5t-106.5 -16q-69 0 -101 26t-32 64z" />
<glyph unicode="K" horiz-adv-x="1363" d="M76 35q0 12 7 21.5t17 9.5q2 0 16 -1.5t19 -1.5q95 0 115 41q20 38 20 185v780q0 146 -20 180q-24 41 -109 41q-6 0 -22.5 -1t-18.5 -1q-24 0 -24 31q0 39 28 39q7 0 40.5 -3t87.5 -6t110 -3t105 3t77 6t33 3q15 0 23 -10t8 -25q0 -35 -29 -35q-3 0 -16.5 1t-16.5 1 q-84 0 -114 -37q-29 -32 -29 -188v-774q0 -157 29 -193q27 -35 116 -35q4 0 18 1.5t17 1.5q29 0 29 -35q0 -15 -8 -25t-21 -10q-5 0 -37 3t-84.5 6t-107.5 3q-56 0 -110 -3t-87 -6t-37 -3q-24 0 -24 39zM432 700q0 25 27 31q53 10 100 47q70 58 293 320q96 110 96 159 q0 20 -16.5 26.5t-50.5 6.5q-4 0 -20 -1t-19 -1q-31 0 -31 31q0 39 29 39q6 0 45.5 -3t96 -6t103.5 -3q49 0 113 6t70 6q28 0 28 -37q0 -33 -36 -33q-5 0 -21 1t-22 1q-44 -3 -95 -37q-61 -39 -174 -172q-42 -49 -163.5 -183.5t-151.5 -168.5q-27 -27 -27 -43q0 -12 37 -55 q144 -172 256.5 -288t168 -161.5t118.5 -87.5q51 -33 96 -33q8 0 23 4.5t16 4.5q16 0 25.5 -10.5t9.5 -24.5q0 -32 -31 -35q-43 -6 -82 -6q-101 0 -180 47q-46 27 -94 67.5t-77 70t-77 81.5q-60 68 -148 172t-122 143q-64 76 -92 95q-21 15 -21 30z" />
<glyph unicode="L" horiz-adv-x="1148" d="M76 29q0 37 24 37q4 0 22 -1.5t23 -1.5q82 0 105 41q20 38 20 175v788q0 148 -20 182q-24 41 -109 41q-6 0 -22.5 -1t-18.5 -1q-24 0 -24 35t28 35q7 0 42.5 -3t91.5 -6t112 -3t101 3t69 6t29 3q31 0 31 -31q0 -39 -29 -39q-3 0 -16.5 1t-16.5 1q-80 0 -108 -35 q-27 -30 -27 -196v-819q0 -78 16 -105q21 -33 92 -45t214 -12q89 0 140.5 7.5t80.5 29.5q24 17 45.5 49.5t33 58.5t29.5 70q10 24 39 24q13 0 23 -6t10 -16q0 -16 -21.5 -110.5t-35.5 -139.5q-17 -49 -64 -49q-90 0 -263 4t-312 4q-55 0 -126.5 -2t-123 -4t-58.5 -2 q-9 0 -17.5 8t-8.5 25z" />
<glyph unicode="M" horiz-adv-x="1890" d="M43 33q0 13 7 23t18 10q4 0 16 -1.5t16 -1.5q83 0 111 39q32 40 39 177q5 104 16.5 310.5t20 359.5t8.5 173q0 109 -29 138q-26 30 -88 30q-7 0 -28 -1t-27 -1q-23 0 -23 31q0 39 29 39q7 0 76.5 -5t103.5 -5q39 0 93.5 4t58.5 4q17 0 24.5 -7t12.5 -22q36 -124 88 -266 q282 -769 293 -795q7 -18 16 -18q8 0 16 22q54 121 182 416t167 383q15 33 28 69t20 55t22.5 68t21.5 66q5 15 15 22t34 7q1 0 54.5 -4t88.5 -4q41 0 102.5 5t67.5 5q27 0 27 -37q0 -18 -7.5 -27.5t-17.5 -9.5q-5 0 -25.5 1t-25.5 1q-74 0 -100 -33q-25 -31 -25 -139 q0 -10 1.5 -59t8 -253.5t15.5 -510.5q6 -165 28 -193q27 -35 113 -35q6 0 17 1.5t14 1.5q11 0 18.5 -11.5t7.5 -25.5q0 -15 -7.5 -24t-18.5 -9q-5 0 -38 3t-86.5 6t-109.5 3t-107.5 -3t-81.5 -6t-34 -3q-14 0 -23.5 9.5t-9.5 27.5q0 12 9.5 22.5t21.5 10.5q3 0 18 -1.5 t19 -1.5q39 0 72.5 11t44.5 30q16 26 16 187t-27 887q0 16 -12 16q-10 0 -16 -18q-147 -360 -396 -932q-3 -6 -82 -203q-7 -20 -16 -29.5t-29 -9.5q-17 0 -27 10t-16 35q-28 104 -57 182q-35 93 -120.5 326t-137 368t-100.5 257q-9 22 -19 22q-16 0 -16 -18 q-3 -112 -18 -460.5t-15 -442.5q0 -154 23 -183q27 -35 106 -35q5 0 19 1.5t16 1.5q29 0 29 -33q0 -16 -8 -26.5t-21 -10.5q-4 0 -38.5 3t-91 6t-112.5 3q-47 0 -91 -3t-71 -6t-32 -3q-29 0 -29 37z" />
<glyph unicode="N" horiz-adv-x="1628" d="M66 1321q0 37 30 37q5 0 52 -4t83 -4q39 0 76 4t45 4q34 0 54 -29q60 -83 174 -228t168 -216q293 -381 499 -625q14 -18 23 -18q10 0 10 16q2 88 2 268q0 394 -6 533q-6 157 -23 190q-21 41 -108 41q-7 0 -26 -1t-23 -1q-10 0 -17.5 9.5t-7.5 23.5q0 18 8 27.5t19 9.5 q4 0 39 -3t91.5 -6t110.5 -3q57 0 103 3t71 6t29 3q12 0 19.5 -9t7.5 -24q0 -37 -27 -37q-2 0 -20 1t-25 1q-74 0 -98 -35q-31 -39 -31 -196q0 -27 -1 -153t-1 -222q0 -142 1 -260.5t3 -189t4 -119.5t3 -74.5t1 -30.5q0 -37 -47 -37q-15 0 -26 17q-70 101 -148 194 q-105 125 -235.5 288.5t-286.5 362t-232 293.5q-1 1 -6.5 7.5t-9 9t-8.5 2.5q-12 0 -12 -17q-2 -125 -2 -430q0 -288 2 -421q0 -145 32 -181q21 -35 107 -35q2 0 20 1.5t25 1.5q24 0 24 -37q0 -15 -6.5 -24t-17.5 -9q-7 0 -38.5 3t-82.5 6t-106 3q-56 0 -106 -3t-79.5 -6 t-34.5 -3q-26 0 -26 35q0 13 6.5 24t17.5 11q4 0 18 -1.5t19 -1.5q39 0 70 11t43 30q20 45 22 175q9 470 9 784q0 137 -27 176q-44 51 -127 51q-5 0 -20 -1t-19 -1q-11 0 -17.5 9t-6.5 24z" />
<glyph unicode="O" horiz-adv-x="1536" d="M104 655q0 154 50.5 288t139 229.5t215.5 150.5t275 55q293 0 470.5 -186t177.5 -494q0 -210 -77 -373t-229.5 -257.5t-359.5 -94.5q-294 0 -478 189t-184 493zM231 672q0 -138 43 -255t117.5 -195.5t174 -122.5t212.5 -44q234 0 381.5 163.5t147.5 443.5q0 140 -43 260 t-116.5 201.5t-172.5 127t-211 45.5q-236 0 -384.5 -170t-148.5 -454z" />
<glyph unicode="P" horiz-adv-x="1159" d="M76 37q0 12 7 21.5t17 9.5q2 0 20 -1t23 -1q83 0 107 40q20 46 20 185v766q0 152 -20 186q-23 41 -107 41q-5 0 -24 -1t-21 -1q-10 0 -16 11t-6 26q0 17 7.5 28t18.5 11q7 0 40 -2.5t86 -5t108 -2.5q27 0 110.5 3t126.5 3q484 0 484 -355q0 -42 -6 -81t-22 -81t-41 -77 t-67 -67.5t-96 -55t-131 -36t-170 -13.5q-22 0 -60 2t-44 2q-20 0 -28.5 -10t-8.5 -37v-252q0 -159 31 -193q34 -34 110 -34q3 0 22.5 1t28.5 1q12 0 19.5 -10.5t7.5 -24.5q0 -35 -29 -35q-8 0 -41 3t-85.5 6t-108.5 3q-55 0 -110.5 -3t-89.5 -6t-38 -3q-24 0 -24 39z M383 750q0 -55 27 -70q10 -5 45 -9.5t57 -4.5q226 0 321 78t95 235q0 148 -92.5 221.5t-294.5 73.5q-88 0 -121 -4q-37 -3 -37 -51v-469z" />
<glyph unicode="Q" horiz-adv-x="1536" d="M104 655q0 154 50.5 288t139 229.5t215.5 150.5t275 55q293 0 470.5 -186t177.5 -494q0 -274 -132 -464t-368 -242q-19 -3 -19 -15q0 -5 13 -12q35 -17 142.5 -72.5t187.5 -93t157 -67.5q222 -84 471 -84q154 0 270 53q5 2 18 9.5t23.5 11.5t18.5 4q12 0 22.5 -12 t10.5 -27q0 -23 -27 -37q-187 -84 -424 -84q-153 0 -289.5 27t-249.5 76t-199.5 96.5t-192 110t-175.5 95.5q-25 10 -49 13q-243 40 -390 219t-147 452zM231 672q0 -138 43 -255t117.5 -195.5t174 -122.5t212.5 -44q234 0 381.5 163.5t147.5 443.5q0 140 -43 260 t-116.5 201.5t-172.5 127t-211 45.5q-236 0 -384.5 -170t-148.5 -454z" />
<glyph unicode="R" horiz-adv-x="1335" d="M76 31q0 35 24 35q4 0 19 -1.5t20 -1.5q87 0 111 41q20 46 20 175v778q0 155 -20 186q-26 41 -111 41q-5 0 -18 -1t-17 -1q-28 0 -28 37q0 39 26 39q7 0 40 -2.5t86 -5t108 -2.5q27 0 102 3t119 3q252 0 372 -85.5t120 -252.5q0 -128 -77.5 -221t-230.5 -136 q-16 -5 -16 -14q0 -8 16 -16q24 -14 46.5 -37t35.5 -41.5t33 -50.5q101 -163 238 -340q51 -65 90 -86t82 -21q4 0 20 2t25 2q10 0 18 -8t8 -22q0 -28 -16 -33q-24 -8 -66 -8q-92 0 -150.5 20t-115.5 80q-53 55 -164 248q-132 217 -159 244q-48 48 -134 51q-39 2 -112 2 q-20 0 -28.5 -9t-8.5 -36v-307q0 -149 31 -183q29 -33 118 -33q4 0 22 1.5t21 1.5q12 0 18.5 -12.5t6.5 -28.5q0 -29 -25 -29q-7 0 -44.5 3t-95 6t-113.5 3q-55 0 -105.5 -3t-80 -6t-34.5 -3q-26 0 -26 35zM383 788q0 -54 27 -69q10 -6 45.5 -11.5t56.5 -5.5q217 0 310 72 t93 221q0 146 -87.5 212.5t-276.5 66.5q-98 0 -131 -4q-37 -3 -37 -51v-431z" />
<glyph unicode="S" horiz-adv-x="1036" d="M94 334q0 15 12 24t31 9q21 0 29 -9t12 -26q20 -118 64 -178q31 -42 96 -71.5t151 -29.5q146 0 235 70t89 190q0 91 -56.5 158.5t-162.5 124.5l-188 102q-128 69 -189 149.5t-61 188.5q0 154 116 248t306 94q119 0 260 -37q56 -14 61 -53q2 -23 6.5 -77t8.5 -97.5 t4 -48.5q0 -17 -10.5 -26t-26.5 -9q-39 0 -43 33q-3 40 -19 90t-37 76q-52 67 -215 67q-138 0 -218.5 -63.5t-80.5 -165.5q0 -80 50.5 -143t168.5 -129l181 -101q139 -78 202.5 -159t63.5 -185q0 -178 -120.5 -278.5t-334.5 -100.5q-100 0 -190.5 23.5t-136.5 54.5 q-30 19 -33 51q-3 44 -9.5 98.5t-11 90.5t-4.5 45z" />
<glyph unicode="T" horiz-adv-x="1318" d="M61 1069q0 3 4.5 49t8.5 106t4 97t28 37q9 0 23.5 -1t45 -3t82 -4t156.5 -3t246 -1q136 0 239.5 1t156 2.5t85 3t49 2.5t25.5 1q39 0 39 -37q0 -33 2.5 -91.5t4.5 -105t2 -49.5q0 -15 -10 -23t-25 -8q-39 0 -39 27q-6 117 -45 160q-27 27 -72 35t-143 8q-108 0 -145.5 -2 t-53.5 -10q-18 -10 -18 -82v-897q0 -148 28 -183q21 -35 119 -35q4 0 22 1.5t25 1.5q10 0 16.5 -11t6.5 -26q0 -16 -8.5 -24.5t-18.5 -8.5l-87 6q-88 6 -163 6q-55 0 -106.5 -3t-82 -6t-34.5 -3q-29 0 -29 37q0 13 6.5 23t16.5 10q5 0 21.5 -1.5t21.5 -1.5q37 0 70 11t43 30 q20 38 20 175v899q0 71 -16 79q-29 15 -187 15q-89 0 -133 -8.5t-72 -34.5q-46 -41 -57 -156q-4 -31 -37 -31q-35 0 -35 27z" />
<glyph unicode="U" horiz-adv-x="1564" d="M49 1319q0 39 31 39q5 0 38 -3t86 -6t107 -3q56 0 108.5 3t84.5 6t37 3q12 0 19 -10t7 -25q0 -35 -24 -35q-3 0 -17 1t-18 1q-94 0 -119 -35q-16 -22 -23.5 -59t-7.5 -127q0 -374 2 -530q5 -247 103 -361.5t321 -114.5q69 0 125.5 9.5t99.5 25.5t76.5 43t56.5 55t39 69 t25.5 78t14.5 88.5t6.5 94t1.5 101.5q0 302 -4 446q-5 145 -25 178q-11 17 -41.5 28t-68.5 11q-4 0 -24 -1t-24 -1q-8 0 -14 9.5t-6 21.5q0 39 27 39q6 0 91.5 -6t137.5 -6q49 0 126.5 6t78.5 6q21 0 28 -9t7 -26t-6.5 -26t-26.5 -9q-3 0 -21 1t-22 1q-62 -3 -96 -37 q-33 -37 -33 -182q0 -38 1 -270t2 -295q0 -261 -128 -398t-410 -137q-278 0 -406 130t-128 386q0 45 1 235t1 351q0 141 -25 178q-24 39 -106 39q-5 0 -22 -1t-21 -1q-23 0 -23 31z" />
<glyph unicode="V" horiz-adv-x="1429" d="M6 1323q0 35 29 35q4 0 73.5 -4t120.5 -4q50 0 150.5 4t101.5 4q31 0 31 -31q0 -39 -29 -39q-4 0 -18.5 1t-18.5 1q-66 0 -91 -14t-25 -41q0 -51 45 -164l303 -778q21 -55 30.5 -73.5t18.5 -18.5q11 0 45 86l311 782q45 108 45 166q0 55 -110 55q-10 0 -24 -1t-15 -1 q-12 0 -19.5 10t-7.5 23q0 37 35 37q2 0 95 -5t143 -5q48 0 109 5t65 5q26 0 26 -35t-28 -35q-5 0 -17 1t-20 1q-57 0 -86 -41q-27 -40 -86 -176q-141 -330 -377 -905q-59 -147 -61 -152q-9 -21 -17 -30t-24 -9q-29 0 -41 31q-3 8 -19 51.5t-28 71.5q-177 453 -371 942 q-52 135 -90 182q-28 35 -84 35q-6 0 -21 -1t-20 -1q-29 0 -29 35z" />
<glyph unicode="W" horiz-adv-x="1996" d="M6 1319q0 18 8.5 28.5t22.5 10.5q4 0 73.5 -6t120.5 -6q75 0 159 5l85 5q20 0 25.5 -9.5t5.5 -27.5q0 -31 -31 -31q-1 0 -17 1t-20 1q-119 0 -119 -65q0 -49 35 -181l209 -763q9 -37 14.5 -49.5t12.5 -12.5q5 0 9 9.5t15 45.5l322 924q5 17 19 57t18 56q12 41 43 41 q16 0 23 -7t14 -24q2 -5 5.5 -17.5l10.5 -37.5t18 -56l324 -942q15 -43 25 -43t24 49l203 758q35 130 35 195q0 35 -26.5 49t-96.5 14q-5 0 -20 -1t-17 -1q-29 0 -29 33q0 37 31 37q1 0 87 -5t136 -5q51 0 121 5t74 5q18 0 25.5 -8t7.5 -27q0 -35 -27 -35q-5 0 -20 1t-21 1 q-56 0 -80 -30q-14 -17 -26.5 -53.5t-40.5 -135.5q-24 -87 -83.5 -290t-123.5 -419.5t-68 -230.5q-27 -90 -37 -115q-6 -14 -10 -21t-12.5 -12.5t-20.5 -5.5q-19 0 -28 7t-15 24q-2 5 -6.5 19.5t-13.5 41.5t-21 58q-100 278 -317 909q-9 27 -13 34t-12 7q-9 0 -22 -41 q-29 -85 -167 -469.5t-155 -435.5q-17 -56 -41 -115q-17 -39 -41 -39q-31 0 -43 31q-5 13 -34 115q-24 79 -269 946q-43 155 -67 188t-80 33q-6 0 -21 -1t-20 -1q-29 0 -29 31z" />
<glyph unicode="X" horiz-adv-x="1454" d="M23 29q0 22 7.5 29.5t22.5 7.5q4 0 17.5 -1.5t17.5 -1.5q52 0 92 37q53 48 170 205l273 369q16 20 16 31q0 4 -2.5 9t-5.5 9t-9 11.5t-10 13.5l-223 290q-14 19 -42 56t-43 56.5t-39.5 49.5t-49.5 57q-27 31 -94 31q-5 0 -15.5 -1t-15.5 -1q-27 0 -27 35q0 16 8.5 26.5 t22.5 10.5q7 0 36 -3t78 -6t107 -3q42 0 130.5 6t95.5 6q28 0 28 -33q0 -12 -1 -18.5t-7.5 -12.5t-19.5 -6q-9 0 -41.5 1t-42.5 1q-38 0 -54 -8.5t-16 -30.5q0 -15 25.5 -52t89.5 -123q5 -6 7.5 -9.5t6.5 -9t8 -10.5l158 -209q9 -13 12.5 -17.5t9.5 -11.5t10.5 -9.5 t8.5 -2.5q10 0 41 43l156 209q63 83 87.5 127.5t24.5 72.5q0 25 -23.5 33t-70.5 8q-20 0 -38.5 -1t-22.5 -1q-10 0 -16 1.5t-11.5 9.5t-5.5 22q0 16 7.5 26.5t20.5 10.5l77 -6q77 -6 157 -6t141 6t64 6q32 0 32 -37q0 -14 -4.5 -22t-9 -9.5t-12.5 -1.5q-3 0 -16 1t-19 1 q-46 0 -86 -37q-51 -46 -176 -211l-223 -290q-17 -23 -17 -31q0 -6 2.5 -12t4.5 -8.5t8.5 -10t7.5 -8.5l280 -375q4 -5 23.5 -31.5t23.5 -32t20 -26.5t24 -30t22.5 -26.5t28.5 -32t30 -30.5q21 -21 43.5 -28t59.5 -7q4 0 13.5 1.5t14.5 1.5q27 0 27 -37q0 -33 -31 -33 q-7 0 -36 3t-78 6t-107 3q-53 0 -141 -6t-92 -6q-29 0 -29 33q0 37 31 37q9 0 31 -1.5t32 -1.5q78 0 78 41q0 18 -26 59t-97 136l-211 283q-27 39 -41 39q-2 0 -4 -0.5t-3.5 -1.5l-3 -2t-4 -3.5l-4 -4t-4.5 -5.5t-4.5 -6.5t-5.5 -7.5t-6 -8l-202 -283q-90 -124 -102 -152 q-9 -19 -9 -34q0 -50 102 -50q20 0 40 1.5t24 1.5q27 0 27 -37q0 -33 -27 -33q-1 0 -79.5 6t-158.5 6t-148 -6t-71 -6q-30 0 -30 33z" />
<glyph unicode="Y" horiz-adv-x="1341" d="M27 1321q0 16 8 26.5t22 10.5q7 0 36 -3t78.5 -6t107.5 -3q42 0 130 6t95 6q28 0 28 -37q0 -11 -1.5 -17t-8.5 -11t-20 -5q-9 0 -39.5 1t-40.5 1q-38 0 -53 -8.5t-15 -30.5q0 -7 1 -14.5t4.5 -17t7 -17.5t10.5 -21.5t13 -23.5t17 -28.5t19.5 -32t24 -39t26.5 -43.5 l160 -262q21 -34 29 -43t16 -9q16 0 47 48l166 268q104 166 104 231q0 26 -23.5 34.5t-68.5 8.5q-20 0 -38.5 -1t-22.5 -1q-10 0 -15 1.5t-9.5 9t-4.5 22.5q0 37 27 37l72 -6q71 -6 151 -6q81 0 143 6t64 6q31 0 31 -37q0 -14 -4.5 -22t-9.5 -9.5t-13 -1.5q-4 0 -16 1t-19 1 q-48 0 -88 -37q-32 -28 -162 -235l-243 -393q-13 -17 -17 -39q-2 -10 -2 -43v-256q0 -153 29 -189q27 -35 102 -35q4 0 18 1.5t17 1.5q29 0 29 -35q0 -15 -8 -25t-21 -10q-5 0 -33.5 3t-77.5 6t-104 3q-56 0 -110.5 -3t-88 -6t-37.5 -3q-24 0 -24 39q0 12 7 21.5t17 9.5 q2 0 16 -1.5t19 -1.5q95 0 115 41q20 38 20 185v233q0 37 -4 51q-8 25 -22 48l-238 385q-98 162 -172 251q-27 31 -94 31q-5 0 -17.5 -1t-17.5 -1q-24 0 -24 35z" />
<glyph unicode="Z" horiz-adv-x="1267" d="M70 27q0 18 14 34q488 638 866 1158q17 25 17 36q0 19 -37 19q-94 2 -281 2q-97 0 -145.5 -1t-105 -7t-76.5 -19q-33 -21 -55 -60.5t-42 -117.5q-8 -24 -37 -24q-20 0 -29 6t-9 26q0 6 7 36.5t18.5 88.5t19.5 121q3 22 15 28.5t42 6.5q4 0 147.5 -4t290.5 -4 q97 0 198.5 0.5t163.5 1t64 0.5q37 0 37 -29q0 -12 -14 -33q-58 -84 -174 -242.5t-213.5 -288.5t-254 -338.5t-208.5 -277.5q-23 -28 -23 -43q0 -18 41 -18q94 -2 369 -2q298 0 366 47q39 26 61.5 67t39.5 115q8 33 33 33q47 0 47 -31q0 -16 -11.5 -62.5t-30.5 -117.5 t-28 -108q-7 -27 -39 -27q-1 0 -63.5 1t-178 2t-245.5 1q-21 0 -262 -2t-259 -2q-17 0 -26.5 8.5t-9.5 20.5z" />
<glyph unicode="[" horiz-adv-x="604" d="M205 -252q0 10 1 51.5t1 50.5v1461q0 61 -1 121t-1 63q0 37 31 37q27 0 70.5 -1t72.5 -1q23 0 67 1t68 1q11 0 17 -1t12 -9t6 -23q0 -39 -35 -39q-20 0 -54 1t-52 1q-41 0 -76 -2q-15 0 -15 -35v-1613q0 -29 15 -29q35 -2 76 -2q18 0 52 1t54 1q11 0 17.5 -1.5t12 -10 t5.5 -23.5q0 -37 -35 -37q-24 0 -68 1t-67 1q-30 0 -76.5 -1t-66.5 -1q-31 0 -31 37z" />
<glyph unicode="\" horiz-adv-x="847" d="M45 1356q0 30 45 30q23 0 33.5 -9t19.5 -29l625 -1317q12 -24 12 -37q0 -29 -41 -29q-26 0 -36.5 8t-18.5 27l-631 1325q-8 16 -8 31z" />
<glyph unicode="]" horiz-adv-x="604" d="M55 -256q0 39 35 39q20 0 54.5 -1t52.5 -1q40 0 75 2q15 0 15 35v1614q0 28 -15 28q-35 2 -75 2q-18 0 -52.5 -1t-54.5 -1q-11 0 -17.5 1.5t-12 10t-5.5 23.5q0 37 35 37q24 0 68 -1t67 -1q30 0 77 1t67 1q30 0 30 -37q0 -10 -1 -51.5t-1 -50.5v-1461q0 -61 1 -121t1 -63 q0 -37 -30 -37q-27 0 -71 1t-73 1q-23 0 -67 -1t-68 -1q-11 0 -17 1t-12 9t-6 23z" />
<glyph unicode="^" horiz-adv-x="1314" d="M246 547q0 6 4 14l348 688q12 21 33 21h71q23 0 29 -21l336 -688q4 0 4 -12q0 -8 -7 -13.5t-17 -5.5h-64q-21 0 -33 21l-291 600l-294 -600q-9 -21 -29 -21h-68q-22 0 -22 17z" />
<glyph unicode="_" horiz-adv-x="1034" d="M-31 -242q0 31 31 31h1034q29 0 29 -31v-43q0 -28 -29 -28h-1034q-31 0 -31 28v43z" />
<glyph unicode="`" horiz-adv-x="600" d="M139 1393q0 29 20 45t48 16q44 0 76 -59q53 -98 163 -262q15 -23 15 -35q0 -9 -9 -17t-22 -8q-16 0 -43 27q-145 142 -213 223q-35 43 -35 70z" />
<glyph unicode="a" horiz-adv-x="978" d="M109 209q0 113 90 166q51 28 133.5 51t249.5 53q43 8 60 21.5t17 44.5q0 117 -8 170t-30 86q-39 57 -144 57q-61 0 -125.5 -44t-64.5 -97q0 -23 8 -46.5t8 -37.5q0 -31 -22 -47.5t-54 -16.5q-34 0 -53.5 21.5t-19.5 60.5q0 72 98 160q71 61 151.5 99t151.5 38 q118 0 170 -80q37 -53 37 -186q0 -46 -3 -200t-3 -232q0 -105 25 -146t69 -41q46 0 61 46q8 24 35 24q12 0 20.5 -8t8.5 -21q0 -22 -21 -49q-32 -39 -66.5 -58.5t-84.5 -19.5q-46 0 -78.5 21t-52.5 76q-7 20 -21 20q-11 0 -26 -18q-59 -59 -117.5 -82t-134.5 -23 q-111 0 -187.5 68.5t-76.5 169.5zM221 221q0 -62 53 -112t148 -50q56 0 108.5 26.5t81.5 53.5q25 23 37.5 57.5t12.5 100.5q0 54 -5 100q0 25 -28 25q-25 0 -66 -8q-145 -28 -221 -54q-121 -43 -121 -139z" />
<glyph unicode="b" horiz-adv-x="1181" d="M94 1507q0 21 19 29q99 38 174 90q28 19 37 19q12 0 17 -6t5 -23q0 -4 -1.5 -53t-3 -146.5t-1.5 -220.5v-383q0 -20 12 -20q11 0 17 6q173 153 350 153q162 0 264 -125.5t102 -316.5q0 -148 -59 -267t-172.5 -189t-263.5 -70q-115 0 -205 34q-27 11 -43 11t-24.5 -9 t-12.5 -40q-5 -33 -39 -33q-22 0 -28.5 9t-6.5 26q0 5 3.5 38.5t6.5 107t3 177.5v770q0 296 -21 342q-17 34 -59 51q-23 10 -47 13q-23 4 -23 26zM338 328q0 -120 24 -166q23 -42 95 -70.5t147 -28.5q57 0 111.5 14t102.5 44t84.5 72t57.5 102.5t21 132.5q0 203 -91 314.5 t-253 111.5q-79 0 -171.5 -57.5t-111.5 -116.5q-16 -50 -16 -135v-217z" />
<glyph unicode="c" horiz-adv-x="942" d="M100 432q0 229 128.5 372.5t332.5 143.5q91 0 160.5 -25.5t103.5 -70.5q35 -47 35 -115q0 -45 -24 -64.5t-60 -19.5t-52.5 18t-16.5 46q0 9 1 29t1 28q0 47 -50.5 76t-126.5 29q-138 0 -227.5 -107t-89.5 -274q0 -210 96 -326.5t246 -116.5q91 0 158 42.5t94 109.5 q5 14 10 61q2 16 9.5 24.5t27.5 8.5q37 0 37 -35q0 -23 -16 -73q-13 -34 -37.5 -68.5t-65.5 -71t-106 -59.5t-142 -23q-106 0 -189.5 37.5t-134 102.5t-76.5 146.5t-26 174.5z" />
<glyph unicode="d" horiz-adv-x="1202" d="M100 420q0 227 147 374.5t390 147.5q73 0 145 -20q39 -13 52 -13q28 0 28 39v146q0 280 -22 325q-17 38 -68 54q-17 7 -47 10q-14 3 -14 26q0 17 16 25q116 47 184 98q19 13 35 13q19 0 19 -23q0 -6 -1.5 -64t-3.5 -157t-2 -205v-913q0 -129 35 -164q23 -23 58 -23 q13 0 39.5 6.5t29.5 6.5q29 0 29 -35q0 -21 -23 -29q-58 -16 -114 -35q-37 -12 -66.5 -30.5t-42.5 -18.5q-20 0 -24 19q-3 13 -8 47t-9 53q-3 20 -16 20q-8 0 -31 -18q-79 -60 -149 -84.5t-158 -24.5q-82 0 -156 31t-130 87t-89 141t-33 188zM211 475q0 -190 100.5 -298.5 t268.5 -108.5q81 0 163.5 43t96.5 79q22 58 22 158v250q0 126 -28 170q-28 42 -98.5 70t-162.5 28q-153 0 -257.5 -107.5t-104.5 -283.5z" />
<glyph unicode="e" horiz-adv-x="968" d="M100 434q0 228 118 371t314 143q90 0 160 -27.5t112 -75.5t63.5 -108t21.5 -129q0 -57 -68 -63q-117 -10 -579 -10q-18 0 -25.5 -16.5t-7.5 -55.5q0 -185 96.5 -296.5t249.5 -111.5q99 0 166.5 40.5t91.5 97.5q8 20 12 53q3 22 11.5 32.5t27.5 10.5q20 0 28.5 -9.5 t8.5 -31.5q0 -37 -33 -101q-16 -31 -43 -59.5t-68.5 -56t-103.5 -44t-135 -16.5q-100 0 -180.5 37t-131.5 101t-78.5 147t-27.5 178zM233 621q0 -21 27 -21q361 0 440 10q56 10 56 58q0 101 -62 157t-184 56q-79 0 -148.5 -46t-103.5 -128q-22 -47 -25 -86z" />
<glyph unicode="f" horiz-adv-x="661" d="M94 33q0 12 6.5 21t16.5 9q3 0 18 -1t23 -1q68 0 88 39q20 46 20 162v539q0 17 -6.5 22.5t-28.5 5.5q-36 0 -71 -2t-37 -2q-23 0 -23 41q0 27 25 31q82 10 108 41q16 18 23 49t10 103q8 202 38.5 307.5t103.5 169.5q90 78 239 78q98 0 166 -40t68 -118q0 -43 -21.5 -63.5 t-56.5 -20.5q-32 0 -52.5 19.5t-23.5 54.5q-6 52 -12 63q-20 39 -105 39q-68 0 -119.5 -45.5t-76.5 -114.5q-52 -139 -52 -481q0 -16 6 -22.5t25 -6.5q75 0 131 3t68 3q11 0 18 -2t13 -12.5t6 -30.5q0 -45 -37 -45q-3 0 -25 1t-68 2t-106 1q-19 0 -25 -6t-6 -22v-541 q0 -137 33 -170q27 -29 113 -29q7 0 26 1t27 1q27 0 27 -32q0 -35 -29 -35q-4 0 -41 2.5t-95 5t-112 2.5q-70 0 -130.5 -5t-61.5 -5q-25 0 -25 37z" />
<glyph unicode="g" horiz-adv-x="1060" d="M63 -322q0 118 103 195q38 28 115 61q20 10 20 19q0 11 -20 14q-156 23 -156 170q0 76 57 133q34 34 60 52q16 11 16 22q0 9 -18 27q-84 84 -84 225q0 153 102.5 252.5t269.5 99.5q126 0 220 -61q12 -8 24 -8t39 30q67 80 143 80q43 0 66.5 -22t23.5 -60q0 -36 -21 -52.5 t-48 -16.5q-29 0 -53 24q-15 15 -43 15q-21 0 -38.5 -17.5t-17.5 -44.5q0 -22 15 -47q43 -73 43 -168q0 -148 -102 -242t-269 -94q-58 0 -111 12l-53 13q-35 0 -57 -13q-62 -40 -62 -106q0 -56 37 -88q45 -39 191 -45q68 -2 196 -2q63 -1 111 -6t96 -20.5t79.5 -41t51 -69 t19.5 -101.5q0 -179 -149.5 -291t-383.5 -112q-193 0 -302.5 81.5t-109.5 202.5zM174 -299q0 -108 92 -167.5t256 -59.5q170 0 272.5 82t102.5 196q0 112 -75.5 152.5t-235.5 40.5q-126 0 -185 -15q-52 -14 -101 -43t-87.5 -79t-38.5 -107zM274 612q0 -145 66 -214.5 t178 -69.5q108 0 176 68.5t68 187.5q0 143 -67.5 221t-176.5 78q-119 0 -181.5 -74t-62.5 -197z" />
<glyph unicode="h" horiz-adv-x="1193" d="M68 31q0 32 28 32q3 0 17 -1t22 -1q67 0 82 37q23 52 23 160v846q0 274 -21 317q-21 38 -69 52q-6 2 -23 5.5t-23 4.5q-12 4 -12 26q0 17 12 23q100 37 185 98q19 15 37 15q5 0 10.5 -5.5t5.5 -15.5q0 -3 -1.5 -48t-3 -144.5t-1.5 -235.5v-379q0 -20 14 -20q8 0 19 8 q71 68 166 107.5t182 39.5q129 0 192 -84q32 -44 45 -110.5t13 -196.5v-256q0 -179 16 -211q13 -19 28 -26t54 -7q5 0 23 1t20 1q13 0 21 -10t8 -24q0 -15 -7.5 -24t-19.5 -9q-4 0 -29.5 2.5t-72 5t-99.5 2.5q-51 0 -91.5 -2.5t-63 -5t-29.5 -2.5q-25 0 -25 35q0 14 7.5 23 t19.5 9q4 0 21.5 -1t21.5 -1q66 0 78 39q22 55 22 297q0 278 -36 355q-23 50 -74 77t-121 27q-72 0 -152 -43t-114 -90q-37 -45 -37 -184v-277q0 -140 22 -168q23 -33 91 -33q5 0 22 1t23 1q30 0 30 -34q0 -14 -7.5 -23.5t-20.5 -9.5q-6 0 -35 2.5t-78 5t-102 2.5 q-51 0 -93.5 -2.5t-66 -5t-29.5 -2.5q-24 0 -24 35z" />
<glyph unicode="i" horiz-adv-x="600" d="M88 33q0 30 29 30q4 0 18 -1t19 -1q68 0 84 37q22 42 22 158v293q0 141 -27 190q-19 39 -112 58q-23 6 -23 28q0 8 5 15.5t10 9.5q79 25 190 100q18 13 35 13q11 0 19 -8t8 -21t-3 -47q-6 -106 -6 -320v-307q0 -136 23 -166q23 -33 100 -33q9 0 20 1t13 1q29 0 29 -32 q0 -35 -29 -35q-4 0 -30 2.5t-73 5t-102 2.5q-56 0 -99.5 -2.5t-66 -5t-26.5 -2.5q-27 0 -27 37zM195 1311q0 36 27.5 62t64.5 26q39 0 63.5 -23.5t24.5 -64.5q0 -38 -23.5 -63t-62.5 -25q-38 0 -66 25.5t-28 62.5z" />
<glyph unicode="j" horiz-adv-x="540" d="M-113 -520q0 32 17.5 48.5t46.5 16.5q40 0 61 -41q17 -32 80 -32q35 0 66 17.5t43 45.5q23 45 32 160t9 418v405q0 172 -27 219q-14 24 -37.5 35.5t-79.5 24.5q-18 4 -18 28q0 19 20 27q39 14 74 31.5t50 27t61 39.5q19 13 32 13q5 0 10.5 -2t11 -9t5.5 -18q0 -14 -2 -45 q-6 -147 -6 -322q0 -73 5 -313t5 -309q0 -140 -8.5 -220.5t-38.5 -148.5q-37 -88 -105 -138t-151 -50q-73 0 -114.5 27.5t-41.5 64.5zM184 1311q0 37 26.5 62.5t63.5 25.5q38 0 64.5 -24t26.5 -64q0 -37 -25.5 -62.5t-63.5 -25.5t-65 25.5t-27 62.5z" />
<glyph unicode="k" horiz-adv-x="1085" d="M61 33q0 13 7 23t16 10q3 0 20 -2t27 -3q26 0 50.5 10.5t33.5 28.5q21 40 21 160v823q0 295 -21 338q-21 38 -70 52q-6 2 -22.5 5.5t-22.5 4.5q-12 4 -12 26q0 17 12 23q97 38 185 98q23 15 37 15q5 0 10.5 -5.5t5.5 -15.5q0 -3 -1.5 -46.5t-3 -143t-1.5 -238.5v-754 v-180q0 -137 24 -168q23 -33 93 -33q8 0 25 2.5t20 2.5q22 0 22 -33q0 -17 -7 -27t-15 -10q-6 0 -33.5 2.5t-75 5t-100.5 2.5q-55 0 -101 -2.5t-71 -5t-29 -2.5q-23 0 -23 37zM381 485q0 24 22 31q21 4 54.5 22.5t62.5 49.5q110 110 156 162q39 45 39 73q0 19 -13 26t-43 7 q-6 0 -24.5 -1t-24.5 -1q-24 0 -24 35q0 15 6.5 24t17.5 9t76 -5.5t123 -5.5q43 0 80.5 2.5t60 5.5t27.5 3q29 0 29 -37q0 -31 -27 -31q-3 0 -17.5 1t-21.5 1q-34 0 -66.5 -20t-97.5 -88q-161 -166 -250 -252q-8 -8 -8 -21q0 -5 6 -14q120 -159 279 -307q46 -43 86.5 -65 t62.5 -26t54 -4q11 0 26 4.5t21 4.5q11 0 19.5 -8.5t8.5 -22.5q0 -21 -24 -31q-36 -16 -88 -16q-74 0 -141 22.5t-132 91.5q-70 75 -114 126.5t-133 166.5q-15 19 -34.5 38t-21.5 22q-12 8 -12 28z" />
<glyph unicode="l" horiz-adv-x="585" d="M63 35q0 13 7 23t16 10q3 0 20 -2.5t27 -2.5q26 0 50.5 10.5t33.5 28.5q21 40 21 160v838q0 278 -21 321q-21 38 -70 52q-6 2 -22.5 5.5t-22.5 4.5q-12 4 -12 26q0 17 12 23q106 40 187 96q26 17 39 17q5 0 10.5 -5.5t5.5 -15.5q0 -3 -1.5 -57t-3 -163.5t-1.5 -248.5 v-891q0 -137 24 -168q23 -33 93 -33q8 0 25 2.5t20 2.5q22 0 22 -33q0 -17 -7 -27t-15 -10q-6 0 -33.5 2.5t-75 5t-100.5 2.5q-55 0 -102 -2.5t-73 -5t-30 -2.5q-23 0 -23 37z" />
<glyph unicode="m" horiz-adv-x="1800" d="M88 31q0 14 7.5 23t19.5 9q5 0 19 -1t22 -1q67 0 82 37q22 49 22 160v287q0 143 -24 190q-12 26 -41 39.5t-80 24.5q-17 4 -17 24q0 19 17 27q93 41 170 98q18 15 34 15q9 0 16.5 -6.5t8.5 -16.5q1 -7 1.5 -29t1 -51.5t1.5 -46.5q0 -20 19 -20q9 0 20 8q72 69 162.5 110 t173.5 41q80 0 133 -32t84 -113q9 -21 18 -21t21 9q73 70 168.5 113.5t181.5 43.5q67 0 110.5 -20t76.5 -64q31 -44 44 -110t13 -197v-256q0 -185 16 -211q11 -20 26.5 -26.5t55.5 -6.5q5 0 23 1t20 1q13 0 21 -10t8 -24q0 -15 -7.5 -24t-19.5 -9q-4 0 -29.5 2.5t-71.5 5 t-99 2.5q-51 0 -92 -2.5t-63.5 -5t-29.5 -2.5q-24 0 -24 35q0 14 7 23t19 9q4 0 21.5 -1t21.5 -1q66 0 78 39q23 58 23 295q0 278 -37 357q-47 104 -187 104q-70 0 -140.5 -42t-108.5 -91q-39 -51 -39 -184v-234q0 -179 16 -211q13 -19 28 -26t54 -7q5 0 23 1t20 1 q13 0 21 -10t8 -24q0 -15 -7.5 -24t-19.5 -9q-4 0 -29.5 2.5t-72 5t-99.5 2.5q-51 0 -91.5 -2.5t-63 -5t-29.5 -2.5q-25 0 -25 35q0 14 7.5 23t19.5 9q4 0 21.5 -1t21.5 -1q66 0 78 39q22 55 22 295q0 278 -37 357q-47 104 -186 104q-71 0 -143 -42t-107 -91 q-39 -48 -39 -184v-277q0 -138 23 -168q23 -33 88 -33q5 0 21.5 1t21.5 1q31 0 31 -34q0 -14 -8.5 -23.5t-22.5 -9.5q-5 0 -32.5 2.5t-75.5 5t-101 2.5q-51 0 -93 -2.5t-66 -5t-31 -2.5q-10 0 -16.5 10t-6.5 25z" />
<glyph unicode="n" horiz-adv-x="1212" d="M88 31q0 14 7.5 23t19.5 9q5 0 19 -1t22 -1q67 0 82 37q22 49 22 160v287q0 143 -24 190q-12 26 -41 39.5t-80 24.5q-17 4 -17 24q0 19 17 27q93 41 170 98q18 15 34 15q9 0 16.5 -6.5t8.5 -16.5q1 -7 1.5 -29t1 -51.5t1.5 -46.5q0 -20 19 -20q9 0 20 8q73 70 167 110.5 t181 40.5q131 0 191 -84q33 -44 46 -110t13 -197v-256q0 -179 16 -211q13 -19 28 -26t54 -7q5 0 22 1t19 1q14 0 22.5 -10t8.5 -24q0 -33 -29 -33q-3 0 -28 2.5t-71.5 5t-100.5 2.5q-50 0 -90.5 -2.5t-63 -5t-29.5 -2.5q-26 0 -26 35q0 14 8 23t20 9q4 0 21.5 -1t21.5 -1 q66 0 78 39q23 58 23 293q0 280 -37 359q-23 50 -74 77t-121 27q-72 0 -150 -43t-112 -90q-39 -48 -39 -184v-277q0 -138 23 -168q23 -33 88 -33q5 0 21.5 1t21.5 1q31 0 31 -34q0 -14 -8.5 -23.5t-22.5 -9.5q-5 0 -32.5 2.5t-75.5 5t-101 2.5q-51 0 -93 -2.5t-66 -5 t-31 -2.5q-10 0 -16.5 10t-6.5 25z" />
<glyph unicode="o" horiz-adv-x="1122" d="M98 446q0 118 38 214.5t103 158.5t151 95.5t183 33.5q208 0 330.5 -128.5t122.5 -334.5q0 -145 -55 -260.5t-163.5 -184.5t-254.5 -69q-138 0 -243 66t-158.5 173t-53.5 236zM223 479q0 -199 95 -319.5t247 -120.5q154 0 243 112t89 308q0 193 -94.5 307.5t-245.5 114.5 q-153 0 -243.5 -107t-90.5 -295z" />
<glyph unicode="p" horiz-adv-x="1183" d="M74 -559q0 35 26 35q4 0 19 -1t22 -1q57 0 84 39q21 33 21 161v873q0 125 -19 176q-9 22 -25 37t-50 26q-20 6 -52 13q-16 3 -16 26q0 14 16 25q95 41 172 100q16 13 31 13q24 0 27 -21q2 -21 2.5 -63.5t1.5 -55.5q0 -30 20 -30q11 0 19 8q73 69 165.5 110t174.5 41 q165 0 269.5 -123.5t104.5 -312.5q0 -112 -33.5 -209t-96 -168.5t-157.5 -112t-212 -40.5q-118 0 -191 28q-30 6 -32 6q-21 0 -21 -24v-318q0 -119 18 -155q24 -49 125 -49q5 0 27 1t25 1q15 0 22.5 -7.5t7.5 -29.5q0 -31 -34 -31q-6 0 -42.5 2.5t-92.5 5t-109 2.5 q-60 0 -125 -5l-64 -5q-28 0 -28 33zM342 344q0 -142 33 -194q24 -36 93.5 -60t143.5 -24q70 0 134.5 22.5t118 66.5t86 116.5t32.5 164.5q0 193 -88 306.5t-248 113.5q-91 0 -180 -55.5t-107 -114.5q-18 -56 -18 -123v-219z" />
<glyph unicode="q" horiz-adv-x="1181" d="M98 428q0 226 135 375t359 149q115 0 205 -34q27 -11 43 -11q15 0 21.5 8.5t10.5 40.5q6 37 41 37q39 0 39 -39q0 -5 -3 -38.5t-6 -107t-3 -177.5v-957q0 -125 23 -161q27 -39 84 -39q6 0 22 1t21 1q26 0 26 -35q0 -33 -31 -33l-65 5q-64 5 -123 5q-54 0 -110.5 -2.5 t-93.5 -5t-42 -2.5q-35 0 -35 31q0 22 8 29.5t23 7.5q3 0 25 -1t28 -1q43 0 70.5 9t35.5 17.5t15 22.5q19 38 19 155v424q0 25 -15 25q-12 0 -24 -12q-75 -63 -150.5 -96t-177.5 -33q-164 0 -269.5 125t-105.5 317zM201 510q0 -202 93.5 -312t256.5 -110q77 0 168 50 t110 104q15 46 15 137v229q0 118 -25 166q-23 42 -94.5 70t-146.5 28q-57 0 -111 -14t-102.5 -43t-85 -71t-57.5 -102t-21 -132z" />
<glyph unicode="r" horiz-adv-x="778" d="M88 31q0 14 7.5 23t19.5 9q5 0 19 -1t22 -1q63 0 82 37q22 42 22 160v287q0 143 -24 190q-12 26 -41 39.5t-80 24.5q-17 4 -17 24q0 19 17 27q93 41 170 98q18 15 34 15q9 0 16.5 -6.5t8.5 -16.5q1 -7 1.5 -29t1 -51.5t1.5 -46.5q0 -20 12 -20q13 0 19 8 q47 62 117.5 105.5t136.5 43.5q57 0 91 -28t34 -74q0 -45 -24.5 -65.5t-53.5 -20.5q-45 0 -57 33q-20 47 -72 47q-36 0 -85 -39t-71 -80q-39 -80 -39 -184v-277q0 -131 29 -168q30 -33 107 -33q5 0 21 1t22 1q30 0 30 -34q0 -33 -30 -33q-5 0 -38 2.5t-85.5 5t-106.5 2.5 q-50 0 -93.5 -2.5t-68.5 -5t-32 -2.5q-10 0 -16.5 10t-6.5 25z" />
<glyph unicode="s" horiz-adv-x="792" d="M92 236q0 18 9 27t32 9q31 0 35 -30q21 -95 55 -136q57 -67 183 -67q95 0 155 43t60 106q0 38 -9 64t-37 54.5t-77.5 57t-132.5 64.5q-125 55 -175.5 120.5t-50.5 143.5q0 116 85.5 186t246.5 70q34 0 64.5 -3t45 -5.5t38 -8.5t28.5 -7q30 -8 33 -47q2 -54 8 -105t6 -63 q0 -31 -39 -31q-28 0 -34 27q-1 4 -3.5 20t-3.5 21t-3.5 18t-4.5 19t-5.5 15t-8 16t-10.5 13q-46 54 -144 54t-152.5 -45t-54.5 -103q0 -71 48 -116.5t182 -104.5q79 -34 131 -70.5t76.5 -72t33.5 -65.5t9 -66q0 -116 -81 -191.5t-253 -75.5q-81 0 -146.5 17.5t-95.5 40.5 q-21 15 -24 49q-4 41 -9 78.5t-7.5 55.5t-2.5 24z" />
<glyph unicode="t" horiz-adv-x="665" d="M84 860q0 32 20 35q94 14 131.5 62t57.5 161q3 13 5 19t10 12t22 6q13 0 20.5 -9.5t7.5 -23.5q0 -2 -2 -71.5t-2 -112.5q0 -16 6.5 -22.5t24.5 -6.5q45 0 117 3t80 3q17 0 24.5 -10t7.5 -35q0 -45 -36 -45q-10 0 -81 2t-112 2q-18 0 -25.5 -6.5t-7.5 -21.5 q-6 -281 -6 -533q0 -107 23 -151q29 -56 104 -56q80 0 127 60q10 14 25 14q14 0 24 -10t10 -25q0 -12 -14 -26q-88 -94 -217 -94q-112 0 -158 75q-30 52 -30 176q0 8 12 570q0 17 -7 22.5t-28 5.5q-28 0 -62 -2t-42 -2q-29 0 -29 35z" />
<glyph unicode="u" horiz-adv-x="1202" d="M74 868q0 30 20 33q126 16 201 47q25 10 39 10q10 0 18 -7.5t8 -20.5q0 -3 -6.5 -54t-13 -141t-6.5 -188q0 -159 6.5 -239t26.5 -126q24 -57 74 -85.5t139 -28.5q77 0 145.5 31.5t105.5 72.5q35 40 35 186v238q0 91 -3 129t-15 63q-22 46 -119 50q-27 0 -27 30q0 13 7 22 t16 11q87 8 170 41q43 19 51 19q31 0 31 -27q0 -1 -3.5 -38.5t-7 -111t-3.5 -161.5v-349q0 -119 34 -159q18 -21 58 -21q10 0 36.5 7.5t36.5 7.5q11 0 18 -9.5t7 -21.5q0 -25 -16 -31q-3 -1 -44 -12.5t-71 -22.5q-28 -10 -53.5 -23t-39.5 -20.5t-22 -7.5q-17 0 -24 23 q-2 10 -17 100q-2 16 -14 16q-9 0 -43 -28q-129 -101 -303 -101q-131 0 -209 95q-34 51 -47.5 127t-13.5 204q0 24 1 135.5t1 143.5q0 62 -17 104q-12 30 -44 42t-81 16q-8 0 -15 8t-7 22z" />
<glyph unicode="v" horiz-adv-x="1077" d="M10 889q0 35 31 35q5 0 28.5 -3t66.5 -5.5t95 -2.5q51 0 92.5 2.5t65 5.5t29.5 3q28 0 28 -37q0 -31 -26 -31q-2 0 -20 1t-25 1q-46 0 -68 -10t-22 -39q0 -42 47 -160q95 -239 196 -452q10 -19 19 -19t18 17q108 222 199 450q53 132 53 162q0 28 -17 39.5t-69 11.5 q-5 0 -22 -1t-21 -1q-12 0 -19 9.5t-7 23.5q0 35 28 35q7 0 28.5 -3t61 -5.5t90.5 -2.5t89.5 2.5t57.5 5.5t25 3q27 0 27 -35q0 -16 -7.5 -24.5t-17.5 -8.5q-3 0 -12.5 1t-13.5 1q-49 0 -72 -29q-22 -28 -57 -106q-36 -81 -124.5 -276.5t-154.5 -346.5q-8 -17 -23.5 -54 t-21.5 -52q-10 -23 -35 -23q-24 0 -34 23q-20 48 -41 102q-18 42 -105.5 245.5t-161.5 379.5q-22 56 -61 108q-23 29 -64 29q-4 0 -14 -1t-14 -1q-25 0 -25 33z" />
<glyph unicode="w" horiz-adv-x="1486" d="M6 891q0 33 33 33l63 -6q64 -5 103 -5q27 0 76.5 2.5t89 5.5t43.5 3q26 0 26 -35q0 -33 -28 -33l-12 1q-12 1 -15 1q-75 0 -97 -13t-22 -40q0 -31 21 -111q18 -72 39 -144.5t50.5 -169t43.5 -144.5q12 -43 20 -43t23 38q28 68 87.5 221.5t110 284.5t52.5 135 q10 24 18.5 33.5t24.5 9.5q11 0 17.5 -3.5t8.5 -7t6 -13.5q7 -17 29 -84q32 -89 219 -576q17 -45 23 -45q8 0 20 41q85 267 138 457q20 72 20 121q0 27 -24.5 40t-86.5 13q-4 0 -15 -1t-17 -1q-25 0 -25 33q0 35 25 35q9 0 82.5 -5.5t109.5 -5.5q37 0 102 5.5t68 5.5 q25 0 25 -29q0 -37 -23 -37q-4 0 -15.5 1t-15.5 1q-33 0 -59 -18q-12 -10 -22.5 -35.5t-32.5 -95.5q-16 -48 -62 -190.5t-85.5 -263.5t-51.5 -159q-19 -62 -31 -98q-5 -16 -12 -22.5t-24 -6.5q-23 0 -35 23q-9 20 -35 104q-20 61 -213 570q-12 32 -21 32q-10 0 -20 -26 q-37 -88 -115 -286.5t-110 -285.5q-4 -13 -19 -49t-20 -53q-11 -29 -37 -29q-17 0 -23.5 5t-11.5 18q-6 10 -27 84q-42 139 -188 635q-23 87 -49 125q-19 22 -62 22q-4 0 -15.5 -1t-14.5 -1q-25 0 -25 33z" />
<glyph unicode="x" horiz-adv-x="1062" d="M23 31q0 16 8 24t18 8q3 0 15 -1t16 -1q48 0 74 29q54 54 102 111l188 229q15 15 15 27q0 11 -13 24l-188 238q-54 66 -98 110q-29 29 -60 29q-4 0 -14.5 -1t-13.5 -1q-10 0 -17.5 8.5t-7.5 24.5q0 35 27 35q6 0 28 -3t64 -5.5t94 -2.5q69 0 132.5 5.5t64.5 5.5 q28 0 28 -35q0 -14 -7 -23.5t-19 -9.5q-4 0 -19 1t-20 1q-86 0 -86 -39q0 -32 84 -135l104 -133q9 -12 19 -12q13 0 22 12l107 133q82 100 82 139q0 21 -19.5 28t-64.5 7q-5 0 -22 -1t-21 -1q-12 0 -19.5 9.5t-7.5 23.5q0 35 29 35q1 0 53 -5.5t121 -5.5q51 0 90.5 2.5 t59.5 5.5t26 3q27 0 27 -35q0 -16 -7.5 -24.5t-17.5 -8.5q-3 0 -14 1t-15 1q-30 0 -59 -29q-46 -46 -100 -110l-179 -215q-14 -19 -14 -29q0 -17 14 -31l203 -239q75 -88 107 -115q34 -29 57 -29q4 0 16 1t15 1q24 0 24 -32q0 -35 -26 -35q-6 0 -30 2.5t-67 5t-94 2.5 q-69 0 -135.5 -5t-67.5 -5q-28 0 -28 35q0 14 7 23t19 9q4 0 19 -1t20 -1q97 0 97 43q0 7 -4 16t-14 22.5t-18.5 24t-26 32t-28.5 34.5l-114 142q-16 16 -23 16q-11 0 -24 -16l-111 -137q-50 -61 -69 -89t-19 -47q0 -41 92 -41q5 0 24 1t23 1q12 0 19.5 -9t7.5 -23 q0 -35 -29 -35q-1 0 -61 5t-129 5q-52 0 -95 -2.5t-66.5 -5t-29.5 -2.5q-11 0 -20.5 8.5t-9.5 26.5z" />
<glyph unicode="y" horiz-adv-x="1095" d="M18 889q0 35 29 35q5 0 30 -3t70 -5.5t97 -2.5q51 0 92 2.5t63.5 5.5t28.5 3q31 0 31 -33q0 -35 -31 -35q-2 0 -21 1t-26 1q-47 0 -65.5 -11.5t-18.5 -43.5q0 -26 49 -146q99 -242 195 -442q18 -40 25 -42q1 -1 3 -1q18 0 29 31q143 360 180 459q43 111 43 149 q0 27 -18 37t-70 10q-4 0 -22 -1t-21 -1q-24 0 -24 37q0 31 26 31q5 0 27 -3t63 -5.5t92 -2.5t89.5 2.5t58 5.5t25.5 3q30 0 30 -35q0 -14 -5.5 -23.5t-14.5 -9.5q-3 0 -19.5 1t-19.5 1q-39 0 -64 -29q-25 -25 -57 -106q-26 -64 -128.5 -316t-150.5 -366 q-192 -452 -270 -549q-80 -104 -190 -104q-60 0 -81.5 19t-21.5 54q0 28 18.5 44t45.5 16q18 0 34.5 -7.5t32.5 -7.5q38 0 63.5 16t55.5 54q52 67 166 324q37 86 37 102q0 24 -10 49q-161 371 -303 674q-36 73 -60 104q-23 29 -65 29q-4 0 -14.5 -1t-14.5 -1q-23 0 -23 33z " />
<glyph unicode="z" horiz-adv-x="956" d="M55 27q0 10 17 30q336 409 598 748q16 19 16 29t-16 10q-32 0 -103 1t-82 1q-213 0 -254 -29q-26 -17 -49 -58.5t-30 -94.5q-2 -9 -10.5 -16t-20.5 -7q-20 0 -27.5 7t-7.5 22q0 12 7.5 52t17.5 93t14 82t39 29q2 0 104.5 -5.5t247.5 -5.5q92 0 163.5 0.5t106 1.5t37.5 1 q33 0 33 -25q0 -18 -16 -37q-220 -285 -588 -739q-14 -17 -14 -27q0 -16 30 -16q72 -2 252 -2t236 34q30 18 55 64.5t37 95.5q2 10 10 18.5t21 8.5q36 0 36 -29q0 -26 -49 -248q-5 -20 -26 -20q-3 0 -40 1t-126 2.5t-211 2.5q-19 0 -189.5 -1t-187.5 -1q-13 0 -22 7t-9 20z " />
<glyph unicode="{" horiz-adv-x="657" d="M47 623q0 17 9.5 24t33.5 10q168 20 168 238q0 5 -3 140t-3 171q0 328 297 328q37 0 49 -8t12 -31q0 -21 -8.5 -28t-28.5 -7q-6 0 -23.5 1t-23.5 1q-83 0 -122 -57t-39 -188q0 -39 1 -151t1 -122q0 -137 -30.5 -203t-117.5 -106q-12 -5 -12 -12t14 -13 q75 -32 110.5 -97.5t35.5 -203.5q0 -10 -1 -125.5t-1 -154.5q0 -133 42.5 -192.5t131.5 -59.5q3 0 16 1t20 1q24 0 31.5 -6.5t7.5 -28.5q0 -21 -13 -28t-52 -7q-80 0 -132.5 13t-91.5 48t-56 97.5t-17 159.5q0 53 3 180.5t3 140.5q0 216 -170 236q-25 3 -33 11t-8 28z" />
<glyph unicode="|" horiz-adv-x="516" d="M207 -291v1825q0 24 10 33.5t39 9.5q32 0 42.5 -10t10.5 -37v-1825q0 -22 -10 -30.5t-41 -8.5t-41 10t-10 33z" />
<glyph unicode="}" horiz-adv-x="657" d="M43 1499q0 21 13.5 28t52.5 7q81 0 133 -13t91 -48t56 -97t17 -159q0 -53 -3.5 -181t-3.5 -141q0 -216 170 -236q25 -3 33 -10.5t8 -27.5q0 -17 -9.5 -24.5t-33.5 -10.5q-168 -20 -168 -238q0 -5 3.5 -140t3.5 -171q0 -328 -297 -328q-37 0 -49.5 8.5t-12.5 30.5 q0 21 8.5 28t28.5 7q6 0 23.5 -1t23.5 -1q83 0 122.5 57.5t39.5 188.5q0 39 -1 150.5t-1 121.5q0 137 30 203t117 106q13 5 13 13q0 6 -15 12q-49 21 -79 52t-48 92.5t-18 156.5q0 10 1 125.5t1 154.5q0 133 -42.5 192.5t-131.5 59.5q-3 0 -17 -1t-20 -1q-24 0 -31.5 6.5 t-7.5 28.5z" />
<glyph unicode="~" horiz-adv-x="1314" d="M160 479q0 8 10 21q70 92 136 132t138 40q48 0 94.5 -17.5t163.5 -81.5q69 -37 100.5 -50t63.5 -13q54 0 98 27t99 100q14 14 24 14t21 -8l39 -29q8 -11 8 -22q0 -10 -6 -19q-132 -174 -283 -174q-94 0 -215 74q-86 52 -130 70t-81 18q-104 0 -192 -127q-11 -14 -23 -14 q-13 0 -18 8l-37 31q-10 7 -10 20z" />
<glyph unicode="&#xa1;" horiz-adv-x="647" d="M180 846q0 42 27 71t69 29q45 0 72 -26t27 -72q0 -44 -28 -71t-71 -27t-69.5 26t-26.5 70zM203 -350q0 25 19.5 323.5t19.5 513.5q0 29 6.5 41.5t30.5 12.5t32 -10.5t8 -41.5q2 -213 19.5 -508.5t17.5 -328.5q0 -101 -75 -101q-41 0 -59.5 22t-18.5 77z" />
<glyph unicode="&#xa2;" horiz-adv-x="1038" d="M150 438q0 197 100.5 331.5t265.5 162.5q11 2 15 6t4 16v140q0 21 7 30t31 9q23 0 30 -8t7 -31v-133q0 -25 27 -25q63 0 126 -27.5t93 -66.5q35 -49 35 -97q0 -81 -72 -81q-34 0 -50.5 19t-16.5 46q0 9 1 26t1 23q0 60 -86 80q-36 6 -39 6q-12 0 -15.5 -7t-3.5 -28v-729 q0 -24 21 -24q10 0 26 4q62 13 109 51t68 88q4 11 10 60q4 32 37 32q37 0 37 -35q0 -24 -15 -71q-11 -28 -29.5 -56t-50 -59.5t-80.5 -56.5t-108 -35q-13 -2 -19 -9t-6 -26v-119q0 -21 -7.5 -29t-29.5 -8q-26 0 -32 8t-6 29v119q0 18 -4 24t-17 7q-118 11 -202.5 76.5 t-123 160t-38.5 207.5zM272 502q0 -167 61.5 -274t164.5 -140q12 -4 20 -4q17 0 17 20v730q0 30 -21 30t-41 -8q-90 -33 -145.5 -128.5t-55.5 -225.5z" />
<glyph unicode="&#xa3;" horiz-adv-x="1210" d="M57 68q0 32 39 51q39 20 109 43q81 27 141 121.5t66 242.5q0 27 -25 27h-168q-18 0 -25.5 7t-7.5 34t8.5 35t24.5 8h170q25 0 25 22q0 20 -7.5 104.5t-7.5 115.5q0 197 106.5 309t311.5 112q134 0 209.5 -50t75.5 -128q0 -88 -74 -88q-78 0 -78 80q0 20 -10.5 45 t-26.5 39q-14 14 -46.5 24.5t-67.5 10.5q-118 0 -196.5 -70.5t-78.5 -214.5q0 -73 5.5 -174t5.5 -117q0 -20 24 -20h256q15 0 22 -7.5t7 -33.5q0 -43 -29 -43h-260q-21 0 -25 -21q-9 -100 -39 -176.5t-112 -150.5q-17 -14 -17 -25t21 -14q31 -4 67.5 -12.5t83.5 -20 t68 -16.5q187 -43 299 -43q89 0 119 35q29 34 29 81q0 4 -1 16.5t-1 16.5q0 19 12 28t26 9q45 0 45 -45q0 -31 -16.5 -77t-54.5 -93q-47 -58 -97 -78t-118 -20q-109 0 -451 98q-25 7 -61.5 19.5t-60.5 20t-38 7.5q-53 0 -94 -41q-22 -22 -43 -22q-20 0 -29.5 12t-9.5 27z " />
<glyph unicode="&#xa4;" horiz-adv-x="948" d="M106 240q0 11 17 28l74 74q10 10 10 20t-6 19q-62 87 -62 194q0 101 62 183q8 12 8 20q0 11 -10 21l-76 71q-12 12 -12 25q0 21 22 41t35 20q16 0 27 -14l67 -78q9 -12 23 -12q9 0 18 6q86 53 172 53q107 0 176 -49q9 -6 17 -6q10 0 22 12l60 66l5.5 5.5l5.5 5.5l4.5 4.5 t5 4.5l4.5 3t5 2.5t5 1t6 0.5q14 0 33.5 -17t19.5 -37q0 -11 -15 -26l-77 -78q-9 -9 -9 -21q0 -10 7 -20q55 -83 55 -187q0 -46 -16.5 -98t-43.5 -90q-6 -9 -6 -20q0 -12 11 -23l75 -72q15 -12 15 -26q0 -18 -17 -35.5t-35 -17.5q-16 0 -28 12l-78 80q-8 10 -23 10 q-8 0 -20 -8q-78 -43 -170 -43q-101 0 -172 41q-9 6 -16 6q-14 0 -23 -12l-63 -68q-21 -21 -37 -21q-20 0 -36 17t-16 33zM231 573q0 -112 71.5 -180.5t172.5 -68.5q97 0 168.5 67.5t71.5 181.5q0 108 -69.5 183t-170.5 75q-104 0 -174 -76.5t-70 -181.5z" />
<glyph unicode="&#xa5;" horiz-adv-x="1341" d="M47 1245q0 16 8.5 26.5t22.5 10.5q7 0 34.5 -3t75 -6t105.5 -3q42 0 134 6t99 6q29 0 29 -35t-31 -35q-9 0 -39.5 1t-40.5 1q-38 0 -52.5 -8t-14.5 -30q0 -7 1 -14.5t4.5 -17t7 -17.5t11 -22t12.5 -23.5t17 -29t19.5 -32t23.5 -39t27 -43.5l141 -225q21 -33 29 -42t16 -9 q17 0 47 47l146 231q106 169 106 231q0 26 -23.5 34.5t-68.5 8.5q-20 0 -39 -1t-23 -1q-10 0 -15 1.5t-9 9t-4 22.5q0 37 26 37l72 -6q72 -6 152 -6q81 0 143 6t64 6q30 0 30 -37q0 -14 -4.5 -22t-9 -9.5t-12.5 -1.5q-4 0 -16 1t-19 1q-49 0 -88 -36q-14 -12 -35 -41 t-39 -57t-46 -72.5t-42 -65.5l-117 -180q-10 -13 -10 -23q0 -12 22 -12h226q18 0 27.5 -8t9.5 -33q0 -14 -2.5 -22.5t-9 -12t-11 -4t-14.5 -0.5h-295q-18 0 -29 -16l-37 -60q-12 -20 -12 -41q0 -26 4 -36q7 -13 21 -13h348q18 0 27.5 -8t9.5 -33q0 -14 -2.5 -22.5t-9 -12 t-11 -4t-14.5 -0.5h-348q-25 0 -25 -24v-90q0 -153 29 -189q27 -35 102 -35q4 0 18 1.5t17 1.5q29 0 29 -35q0 -15 -8 -25t-21 -10q-5 0 -32.5 3t-75.5 6t-103 3q-56 0 -111 -3t-89 -6t-38 -3q-24 0 -24 39q0 12 7 21.5t17 9.5q2 0 16 -1.5t19 -1.5q95 0 115 41 q20 38 20 185v88q0 24 -24 24h-346q-39 0 -39 37q0 26 9.5 34.5t29.5 8.5h340q23 0 26 13q2 6 2 34q0 18 -14 39l-41 62q-12 18 -31 18h-282q-39 0 -39 37q0 26 9.5 34.5t29.5 8.5h217q22 0 22 14q0 8 -6 17l-104 172q-101 166 -172 252q-26 30 -95 30q-5 0 -17 -1t-17 -1 q-25 0 -25 35z" />
<glyph unicode="&#xa6;" horiz-adv-x="516" d="M207 -186v618q0 24 10 33.5t39 9.5q32 0 42.5 -10t10.5 -37v-618q0 -22 -10 -30.5t-41 -8.5t-41 10t-10 33zM207 756v618q0 24 10 33.5t39 9.5q32 0 42.5 -10t10.5 -37v-618q0 -22 -10 -30.5t-41 -8.5t-41 10t-10 33z" />
<glyph unicode="&#xa7;" horiz-adv-x="937" d="M106 643q0 171 197 252q12 6 12 18q0 10 -6 19q-80 88 -80 194q0 116 92 188t238 72q112 0 178 -45t66 -122q0 -36 -17.5 -56t-50.5 -20q-61 0 -65 55q-3 60 -31 88q-29 33 -100 33q-89 0 -150 -48t-61 -118q0 -48 13 -80.5t63 -84.5t155 -134q178 -138 233.5 -210.5 t55.5 -147.5q0 -177 -195 -277q-14 -7 -14 -22t10 -25q99 -116 99 -221q0 -108 -92.5 -190.5t-249.5 -82.5q-121 0 -194 55.5t-73 131.5q0 31 18.5 49t51.5 18q32 0 48 -16t19 -59q3 -54 37 -78q54 -33 109 -33q103 0 161 53.5t58 128.5q0 63 -53 140t-209 206 q-153 127 -213 208t-60 161zM211 670q0 -66 43 -125.5t166 -167.5q12 -10 35 -30t44.5 -38.5t45.5 -36.5q20 -16 39 -16q15 0 39 12q125 73 125 197q0 27 -8 51t-33 61.5t-81 88.5t-143 116q-11 8 -40.5 31t-49.5 37q-12 10 -26 10q-20 0 -35 -10q-121 -71 -121 -180z" />
<glyph unicode="&#xa8;" horiz-adv-x="593" d="M63 1241q0 36 24 60t60 24q34 0 58 -24t24 -60t-24 -60t-60 -24q-33 0 -57.5 23.5t-24.5 60.5zM362 1241q0 36 26.5 60t62.5 24q34 0 56.5 -23.5t22.5 -60.5t-23 -60.5t-58 -23.5q-34 0 -60.5 23.5t-26.5 60.5z" />
<glyph unicode="&#xa9;" horiz-adv-x="1648" d="M125 682q0 195 94.5 357t257 254.5t357.5 92.5q194 0 353.5 -90.5t251 -250.5t91.5 -355q0 -201 -92 -366.5t-251 -260t-351 -94.5q-150 0 -282.5 55t-226.5 150t-148 227t-54 281zM195 682q0 -135 49.5 -255.5t134.5 -207t204.5 -136.5t254.5 -50q174 0 317 85.5 t224 233t81 324.5q0 183 -80.5 331.5t-225 234t-323.5 85.5t-325.5 -86t-228.5 -233.5t-82 -325.5zM414 672q0 118 50 216t151.5 159t236.5 61q118 0 227 -31q14 -5 24.5 -15t10.5 -22q0 -34 8 -98.5t8 -71.5q0 -10 -9 -16t-19 -6q-26 0 -33 24q-22 81 -45 115 q-20 20 -33 29t-53 18.5t-102 9.5q-136 0 -224 -91t-88 -267q0 -175 93.5 -274t234.5 -99q121 0 182 72q18 21 49 104q11 25 31 25q11 0 21 -6.5t10 -18.5q0 -17 -11.5 -69.5t-23.5 -77.5q-14 -27 -49 -43q-96 -49 -215 -49q-106 0 -190.5 35.5t-136 96t-78.5 134.5t-27 156 z" />
<glyph unicode="&#xaa;" horiz-adv-x="651" d="M68 713q0 71 61 104q64 36 227 64q28 5 39 13.5t11 27.5q0 113 -23 139q-26 33 -82 33q-40 0 -81.5 -26t-41.5 -58q0 -15 6 -29.5t6 -22.5q0 -19 -14 -28.5t-35 -9.5q-47 0 -47 51q0 45 64 104q99 82 192 82q84 0 115 -47q22 -34 22 -115q0 -27 -2 -121t-2 -141 q0 -62 15 -84t43 -22q14 0 25 7.5t14 18.5q8 15 22 15q10 0 15.5 -7t5.5 -16q0 -11 -13 -31q-41 -47 -102 -47q-71 0 -94 60q-4 12 -13 12q-8 0 -18 -12q-38 -36 -71 -50t-79 -14q-72 0 -118.5 40.5t-46.5 109.5zM154 717q0 -39 25.5 -64.5t84.5 -25.5t113 47q16 14 23.5 32 t7.5 56q0 43 -2 55q-3 14 -19 14q-23 0 -43 -4q-78 -14 -117 -28q-73 -26 -73 -82z" />
<glyph unicode="&#xab;" horiz-adv-x="905" d="M59 506q0 15 6 22.5t25 18.5q132 95 342 262q27 25 39 25q9 0 20 -9t11 -16t-19 -31q-49 -51 -258 -256q-10 -10 -10 -16t8 -14q22 -21 65.5 -62t68.5 -65t60 -59t62 -66q25 -31 25 -43q0 -8 -9 -15.5t-18 -7.5q-12 0 -49 33q-242 190 -342 264q-27 19 -27 35zM418 506 q0 14 5.5 21t25.5 20q127 92 342 262q8 6 15.5 12l10 8t5.5 3.5t7 1.5q9 0 20 -9t11 -16q0 -11 -18 -31q-47 -50 -258 -256q-11 -11 -11 -16t9 -14q22 -21 65.5 -62t68.5 -65t60 -59t62 -66q24 -30 24 -43q0 -8 -8.5 -15.5t-17.5 -7.5q-15 0 -52 33q-131 109 -340 264 q-26 18 -26 35z" />
<glyph unicode="&#xac;" horiz-adv-x="1314" d="M166 526v58q0 28 27 28h921q27 0 27 -28v-486q0 -28 -27 -28h-59q-29 0 -29 28v402h-833q-27 0 -27 26z" />
<glyph unicode="&#xad;" horiz-adv-x="567" d="M59 489q0 33 7.5 44.5t27.5 11.5h381q22 0 27.5 -10t5.5 -43q0 -36 -6 -47t-31 -11h-377q-24 0 -29.5 10t-5.5 45z" />
<glyph unicode="&#xae;" horiz-adv-x="1648" d="M125 682q0 195 94.5 357t257 254.5t357.5 92.5q194 0 353.5 -90.5t251 -250.5t91.5 -355q0 -201 -92 -366.5t-251 -260t-351 -94.5q-150 0 -282.5 55t-226.5 150t-148 227t-54 281zM195 682q0 -135 49.5 -255.5t134.5 -207t204.5 -136.5t254.5 -50q174 0 317 85.5 t224 233t81 324.5q0 183 -80.5 331.5t-225 234t-323.5 85.5t-325.5 -86t-228.5 -233.5t-82 -325.5zM479 309q0 11 7 19t16 8q2 0 14.5 -1t15.5 -1q48 0 64 28q18 36 18 107v440q0 89 -18 115q-14 23 -66 23q-3 0 -13.5 -1.5t-12.5 -1.5q-9 0 -15 8.5t-6 20.5q0 31 23 31 q4 0 27 -1t57 -2t67 -1q15 0 67 2t79 2q305 0 305 -205q0 -77 -49 -134t-144 -81q-14 -2 -14 -10q0 -5 12 -10q41 -16 82 -74q60 -105 133 -199q50 -65 93 -65q3 0 14 2t16 2q9 0 15 -7t6 -16q0 -25 -19 -31q-18 -6 -41 -6q-109 0 -174 68q-13 14 -28 36.5t-38 61.5t-28 47 q-73 127 -90 146q-24 27 -66 30q-41 3 -59 3q-22 0 -22 -31v-172q0 -85 20 -105q11 -11 24.5 -15.5t45.5 -4.5q1 0 12.5 1t13.5 1q23 0 23 -29q0 -13 -6.5 -22t-16.5 -9q-2 0 -28 2t-65 4.5t-73 2.5q-33 0 -69 -2.5t-60 -4.5t-26 -2q-23 0 -23 33zM707 772q0 -32 16 -43 q20 -10 53 -10q122 0 171.5 42t49.5 124q0 86 -49.5 125t-148.5 39q-37 0 -72 -9q-20 -3 -20 -36v-232z" />
<glyph unicode="&#xaf;" horiz-adv-x="595" d="M53 1180q0 33 9.5 45t31.5 12h402q26 0 36.5 -10t10.5 -43q0 -35 -10 -46.5t-33 -11.5h-404q-23 0 -32.5 8.5t-10.5 45.5z" />
<glyph unicode="&#xb0;" horiz-adv-x="563" d="M49 1141q0 101 69.5 166t164.5 65q97 0 164 -61.5t67 -167.5q0 -105 -69 -169.5t-162 -64.5q-102 0 -168 61.5t-66 170.5zM135 1141q0 -78 41 -120t109 -42q61 0 103 43t42 119t-39 119t-108 43q-64 0 -106 -43t-42 -119z" />
<glyph unicode="&#xb1;" horiz-adv-x="1314" d="M172 27v55q0 27 25 27h919q29 0 29 -27v-55q0 -27 -29 -27h-919q-25 0 -25 27zM172 723v55q0 25 25 25h403v407q0 27 29 27h57q25 0 25 -27v-407h405q29 0 29 -25v-55q0 -27 -29 -27h-405v-409q0 -25 -25 -25h-57q-29 0 -29 25v409h-403q-25 0 -25 27z" />
<glyph unicode="&#xb2;" horiz-adv-x="686" d="M41 848q0 20 22 33q232 153 326 265.5t94 239.5q0 73 -42.5 116.5t-116.5 43.5q-90 0 -129 -45q-29 -33 -37 -69q-4 -21 -31 -21t-27 23q0 12 11 45q20 51 78 93t159 42q107 0 169.5 -61t62.5 -167q0 -89 -38.5 -162.5t-154.5 -174.5q-57 -49 -166 -125q-10 -8 -10 -13 q0 -8 14 -8q59 -2 162 -2q78 0 111.5 8t43 23t15.5 55q0 9 6.5 16t20.5 7q9 0 16.5 -5t7.5 -12q0 -13 -6 -55q-6 -62 -6 -100q0 -7 -6.5 -13t-18.5 -6q-1 0 -35 1.5t-93 3t-121 1.5q-74 0 -131.5 -1.5t-87.5 -3t-37 -1.5q-25 0 -25 29z" />
<glyph unicode="&#xb3;" horiz-adv-x="686" d="M92 840q0 20 12 33.5t29 13.5q13 0 39 -13q24 -12 70 -12q108 0 174.5 50.5t66.5 144.5q0 77 -45.5 121.5t-124.5 44.5q-51 0 -84 -13q-24 -6 -30 -6q-12 0 -18.5 10.5t-6.5 20.5q0 30 43 33q51 5 98 28q117 56 117 150q0 50 -29 78t-90 28q-60 0 -106 -43 q-19 -19 -31 -47q-6 -18 -29 -18q-28 0 -28 24t16 43q71 103 211 103q88 0 133 -43t45 -109q0 -114 -147 -176q-8 -3 -8 -10q0 -10 10 -10q100 -7 150.5 -56t50.5 -129q0 -85 -57.5 -153.5t-150 -105t-198.5 -36.5q-82 0 -82 54z" />
<glyph unicode="&#xb4;" horiz-adv-x="600" d="M139 1098q0 12 15 35q110 164 163 262q17 32 34 45.5t40 13.5q29 0 49.5 -14t20.5 -43q0 -31 -35 -74q-68 -81 -213 -223q-27 -27 -43 -27q-13 0 -22 8t-9 17z" />
<glyph unicode="&#xb5;" horiz-adv-x="1202" d="M74 868q0 30 20 33q126 16 201 47q25 10 39 10q10 0 18 -7.5t8 -20.5q0 -3 -6.5 -54t-13 -141t-6.5 -188q0 -159 6.5 -239t26.5 -126q24 -57 74 -85.5t139 -28.5q77 0 145.5 31.5t105.5 72.5q35 40 35 186v238q0 91 -3 129t-15 63q-22 46 -119 50q-27 0 -27 30q0 13 7 22 t16 11q87 8 170 41q43 19 51 19q31 0 31 -27q0 -1 -3.5 -38.5t-7 -111t-3.5 -161.5v-349q0 -119 34 -159q18 -21 58 -21q10 0 36.5 7.5t36.5 7.5q11 0 18 -9.5t7 -21.5q0 -25 -16 -31q-3 -1 -44 -12.5t-71 -22.5q-28 -10 -53.5 -23t-39.5 -20.5t-22 -7.5q-17 0 -24 23 q-2 10 -17 100q-2 16 -14 16q-9 0 -43 -28q-71 -55 -129.5 -78t-138.5 -23q-106 0 -172 58q-14 14 -21 14q-14 0 -14 -18q0 -109 2 -172q3 -98 12 -165.5t17 -99t8 -45.5q0 -15 -2 -24t-8.5 -18.5t-22.5 -14t-41 -4.5q-61 0 -61 67q-2 494 -2 826q0 24 1 146.5t1 154.5 q0 62 -17 104q-12 30 -44 42t-81 16q-8 0 -15 8t-7 22z" />
<glyph unicode="&#xb6;" horiz-adv-x="1046" d="M135 721q0 219 148.5 353.5t394.5 158.5q31 3 43 33q22 50 49 77q46 43 107 43q32 0 46.5 -11t14.5 -38q0 -44 -43 -47q-38 -4 -62 -12.5t-40 -30.5q-25 -39 -25 -117v-985q0 -150 -20.5 -262t-79.5 -196q-59 -88 -148 -139.5t-186 -51.5q-28 0 -46 14.5t-18 36.5 q0 32 12.5 47t47.5 15q3 0 23.5 -7.5t45.5 -7.5q93 0 167.5 84t97.5 211q16 81 16 340q0 29 -8.5 41.5t-32.5 12.5q-4 0 -27 -1t-41 -1q-84 0 -159.5 25.5t-138.5 76.5t-100.5 138t-37.5 200z" />
<glyph unicode="&#xb7;" horiz-adv-x="436" d="M121 551q0 44 28.5 71t71.5 27t68.5 -26t25.5 -70q0 -42 -27 -71t-69 -29q-45 0 -71.5 25.5t-26.5 72.5z" />
<glyph unicode="&#xb8;" horiz-adv-x="583" d="M117 -487q0 36 53 36q85 0 138.5 35.5t53.5 100.5q0 41 -25.5 64t-86.5 38q-13 3 -22 13.5t-9 23.5q0 19 19 61q24 54 63 123h57q-47 -94 -47 -114q0 -18 23 -27q65 -20 100 -55.5t35 -96.5q0 -46 -19 -85.5t-50.5 -67t-72 -47.5t-83.5 -29.5t-84 -9.5q-23 0 -33 8.5 t-10 28.5z" />
<glyph unicode="&#xb9;" horiz-adv-x="686" d="M180 1526q0 21 17 24q85 12 149 54q24 16 41 16q21 0 21 -27q0 -1 -1 -17t-1 -28q-5 -79 -5 -168v-387q0 -85 17 -102q17 -21 71 -21q3 0 16 1t15 1q19 0 19 -26q0 -27 -23 -27q-3 0 -23 2t-53 4t-67 2q-32 0 -71 -2t-67 -4t-32 -2q-9 0 -15 7.5t-6 19.5t5.5 19t13.5 7 q3 0 16 -1t16 -1q59 0 72 27q12 27 12 94v379q0 100 -12 121q-7 14 -33 14q-16 0 -43.5 -2t-29.5 -2q-19 0 -19 25z" />
<glyph unicode="&#xba;" horiz-adv-x="727" d="M74 850q0 143 84.5 225t212.5 82q131 0 206.5 -78.5t75.5 -204.5q0 -137 -78.5 -225t-216.5 -88q-130 0 -207 83.5t-77 205.5zM166 870q0 -119 53.5 -190.5t145.5 -71.5q94 0 144 66.5t50 183.5q0 116 -50.5 181t-141.5 65q-93 0 -147 -61.5t-54 -172.5z" />
<glyph unicode="&#xbb;" horiz-adv-x="905" d="M45 811q0 8 9 15.5t18 7.5q14 0 51 -33q131 -109 340 -264q26 -18 26 -35q0 -15 -5.5 -22t-24.5 -19q-127 -92 -342 -262q-7 -5 -13.5 -10t-9 -7.5t-6 -4.5t-5.5 -2.5t-5 -0.5q-9 0 -20 9t-11 16q0 9 19 30q47 50 258 256q10 10 10 17q0 6 -8 14q-22 21 -65.5 62 t-68.5 65t-60 59t-62 66q-25 31 -25 43zM403 811q0 8 9 15.5t18 7.5q12 0 49 -33q242 -190 342 -264q27 -19 27 -35q0 -15 -6 -22.5t-25 -18.5q-132 -95 -342 -262q-27 -25 -39 -25q-9 0 -19.5 9t-10.5 16t18 30q49 51 258 256q10 10 10 17q0 6 -8 14q-22 21 -65.5 62 t-68.5 65t-60 59t-62 66q-25 31 -25 43z" />
<glyph unicode="&#xbc;" horiz-adv-x="1585" d="M184 1210q0 22 17 25q89 13 151 53q26 17 41 17q21 0 21 -27q0 -1 -1 -17t-1 -28q-4 -63 -4 -168v-387q0 -87 16 -103q17 -20 72 -20q3 0 15.5 1t14.5 1q19 0 19 -27q0 -26 -23 -26q-3 0 -23 2t-53 4t-67 2q-32 0 -71.5 -2t-68 -4t-32.5 -2q-21 0 -21 26q0 12 5.5 19.5 t13.5 7.5q3 0 16.5 -1t16.5 -1q58 0 71 27q13 29 13 94v379q0 98 -13 121q-7 14 -33 14q-16 0 -43.5 -2t-29.5 -2q-19 0 -19 24zM481 18q0 11 11 33l516 1182q13 33 47 33q9 0 15 -1.5t9 -3.5t4.5 -6.5t1.5 -6.5v-7q0 -12 -6 -27l-522 -1189q-6 -16 -15 -22.5t-28 -6.5 q-15 0 -22.5 3.5t-9 7.5t-1.5 11zM852 231q0 17 12 31q327 432 393 520q16 21 39 21q29 0 29 -31q0 -2 -1 -38t-1 -83v-352q0 -10 3.5 -14t16.5 -4h78q17 0 22 -8t5 -29q0 -24 -5 -30.5t-22 -6.5h-80q-10 0 -13 -5t-3 -20v-182q0 -18 -9 -24.5t-32 -6.5q-27 0 -36 5t-9 26 v180q0 25 -25 25h-327q-35 0 -35 26zM971 287q0 -11 16 -11h223q19 0 24 5t5 18q0 133 1 229.5t1 100.5q0 14 -8 14q-5 0 -14 -14q-42 -59 -122 -164.5t-122 -163.5q-4 -8 -4 -14z" />
<glyph unicode="&#xbd;" horiz-adv-x="1585" d="M184 1210q0 22 17 25q89 13 151 53q26 17 41 17q21 0 21 -27q0 -1 -1 -17t-1 -28q-4 -63 -4 -168v-387q0 -87 16 -103q17 -20 72 -20q3 0 15.5 1t14.5 1q19 0 19 -27q0 -26 -23 -26q-3 0 -23 2t-53 4t-67 2q-32 0 -71.5 -2t-68 -4t-32.5 -2q-21 0 -21 26q0 12 5.5 19.5 t13.5 7.5q3 0 16.5 -1t16.5 -1q58 0 71 27q13 29 13 94v379q0 98 -13 121q-7 14 -33 14q-16 0 -43.5 -2t-29.5 -2q-19 0 -19 24zM481 18q0 11 11 33l516 1182q13 33 47 33q9 0 15 -1.5t9 -3.5t4.5 -6.5t1.5 -6.5v-7q0 -12 -6 -27l-522 -1189q-6 -16 -15 -22.5t-28 -6.5 q-15 0 -22.5 3.5t-9 7.5t-1.5 11zM901 29q0 19 23 32q232 152 325.5 265t93.5 241q0 73 -42.5 116.5t-116.5 43.5q-90 0 -129 -45q-29 -33 -37 -70q-3 -20 -31 -20q-26 0 -26 22q0 15 10 45q20 51 78 93.5t159 42.5q107 0 169.5 -61t62.5 -167q0 -89 -38.5 -163t-154.5 -175 q-57 -49 -166 -125q-10 -8 -10 -12q0 -8 14 -8q59 -2 162 -2q78 0 111.5 8t43 23t15.5 55q0 22 27 22q24 0 24 -16q0 -13 -6 -55q-6 -62 -6 -101q0 -18 -24 -18q-1 0 -35 1.5t-93.5 3t-121.5 1.5q-74 0 -131.5 -1.5t-87.5 -3t-37 -1.5q-25 0 -25 29z" />
<glyph unicode="&#xbe;" horiz-adv-x="1585" d="M129 524q0 20 12 33.5t29 13.5q15 0 39 -12t70 -12q108 0 174.5 50t66.5 144q0 77 -45.5 121.5t-124.5 44.5q-54 0 -84 -12q-24 -6 -30 -6q-12 0 -18.5 10.5t-6.5 20.5q0 29 43 32q49 4 98 29q117 56 117 149q0 50 -29 78.5t-90 28.5q-60 0 -106 -43q-19 -19 -31 -47 q-6 -19 -29 -19q-28 0 -28 25q0 24 16 43q70 102 211 102q88 0 133 -42.5t45 -108.5q0 -115 -147 -176q-8 -3 -8 -10q0 -11 10 -11q100 -7 150 -55.5t50 -128.5q0 -85 -57.5 -153.5t-149.5 -105t-198 -36.5q-82 0 -82 53zM487 18q0 11 11 33l516 1182q13 33 47 33 q11 0 18 -2t9.5 -6.5t3 -7.5t0.5 -9q0 -9 -7 -27l-522 -1189q-6 -16 -15 -22.5t-28 -6.5q-15 0 -22.5 3.5t-9 7.5t-1.5 11zM852 231q0 17 12 31q327 432 393 520q16 21 39 21q29 0 29 -31q0 -2 -1 -38t-1 -83v-352q0 -10 3.5 -14t16.5 -4h78q17 0 22 -8t5 -29 q0 -24 -5 -30.5t-22 -6.5h-80q-10 0 -13 -5t-3 -20v-182q0 -18 -9 -24.5t-32 -6.5q-27 0 -36 5t-9 26v180q0 25 -25 25h-327q-35 0 -35 26zM971 287q0 -11 16 -11h223q19 0 24 5t5 18q0 133 1 229.5t1 100.5q0 14 -8 14q-5 0 -14 -14q-42 -59 -122 -164.5t-122 -163.5 q-4 -8 -4 -14z" />
<glyph unicode="&#xbf;" horiz-adv-x="884" d="M63 -168q0 110 46 182t186 164q44 29 64.5 43.5t48.5 41.5t39.5 57t11.5 67q0 27 -11.5 65.5t-11.5 55.5q0 33 39 33q29 0 39 -33q23 -73 23 -146q0 -57 -19.5 -98t-55.5 -74t-116 -92q-84 -61 -117.5 -117t-33.5 -135q0 -99 59.5 -157t161.5 -58q207 0 207 148 q0 6 -1 26.5t-1 26.5q0 32 21 50t52 18q70 0 70 -90q0 -96 -99.5 -177.5t-265.5 -81.5q-150 0 -243 76.5t-93 204.5zM356 846q0 42 27.5 71t69.5 29q45 0 71.5 -25.5t26.5 -72.5q0 -44 -27.5 -71t-70.5 -27t-70 26t-27 70z" />
<glyph unicode="&#xc0;" horiz-adv-x="1435" d="M10 29q0 37 29 37q5 0 17 -1.5t20 -1.5q57 0 86 41q40 58 88 175q73 179 216 521.5t175 422.5q25 71 27 96q3 29 28 39q52 18 56 18q17 0 22 -24q7 -27 41 -119q21 -55 371 -952q51 -132 86 -179q29 -39 92 -39q6 0 17 1.5t16 1.5q28 0 28 -35t-26 -35q-4 0 -75 4t-122 4 q-50 0 -157.5 -4t-108.5 -4q-31 0 -31 35t29 35q2 0 17 -1.5t20 -1.5q71 0 100 14.5t29 49.5q0 47 -43 156l-72 188q-16 39 -29 51.5t-43 12.5h-419q-25 0 -37 -11t-23 -39l-82 -204q-49 -129 -49 -166q0 -28 26.5 -40t90.5 -12q9 0 26.5 1.5t20.5 1.5q25 0 25 -31 q0 -39 -29 -39q-2 0 -100 4t-148 4q-48 0 -113 -4t-69 -4q-23 0 -23 33zM453 1706q0 30 18 46.5t43 16.5q22 0 38.5 -10t45.5 -37q77 -72 240 -215q22 -22 22 -34t-9 -21.5t-20 -9.5q-19 0 -49 18q-176 100 -276 172q-53 40 -53 74zM496 637q0 -18 13.5 -23.5t55.5 -5.5h293 q34 0 47 6t13 23q0 15 -13 45l-178 463q-7 20 -16 20q-5 0 -8.5 -5t-10.5 -21l-182 -457q-14 -33 -14 -45z" />
<glyph unicode="&#xc1;" horiz-adv-x="1435" d="M10 29q0 37 29 37q5 0 17 -1.5t20 -1.5q57 0 86 41q40 58 88 175q73 179 216 521.5t175 422.5q25 71 27 96q3 29 28 39q52 18 56 18q17 0 22 -24q7 -27 41 -119q21 -55 371 -952q51 -132 86 -179q29 -39 92 -39q6 0 17 1.5t16 1.5q28 0 28 -35t-26 -35q-4 0 -75 4t-122 4 q-50 0 -157.5 -4t-108.5 -4q-31 0 -31 35t29 35q2 0 17 -1.5t20 -1.5q71 0 100 14.5t29 49.5q0 47 -43 156l-72 188q-16 39 -29 51.5t-43 12.5h-419q-25 0 -37 -11t-23 -39l-82 -204q-49 -129 -49 -166q0 -28 26.5 -40t90.5 -12q9 0 26.5 1.5t20.5 1.5q25 0 25 -31 q0 -39 -29 -39q-2 0 -100 4t-148 4q-48 0 -113 -4t-69 -4q-23 0 -23 33zM496 637q0 -18 13.5 -23.5t55.5 -5.5h293q34 0 47 6t13 23q0 15 -13 45l-178 463q-7 20 -16 20q-5 0 -8.5 -5t-10.5 -21l-182 -457q-14 -33 -14 -45zM569 1473q0 11 23 34q150 131 239 215 q29 27 45.5 37t38.5 10q25 0 43.5 -16.5t18.5 -46.5q0 -34 -53 -74q-97 -70 -277 -172q-30 -18 -49 -18q-11 0 -20 9.5t-9 21.5z" />
<glyph unicode="&#xc2;" horiz-adv-x="1435" d="M10 29q0 37 29 37q5 0 17 -1.5t20 -1.5q57 0 86 41q40 58 88 175q73 179 216 521.5t175 422.5q25 71 27 96q3 29 28 39q52 18 56 18q17 0 22 -24q7 -27 41 -119q21 -55 371 -952q51 -132 86 -179q29 -39 92 -39q6 0 17 1.5t16 1.5q28 0 28 -35t-26 -35q-4 0 -75 4t-122 4 q-50 0 -157.5 -4t-108.5 -4q-31 0 -31 35t29 35q2 0 17 -1.5t20 -1.5q71 0 100 14.5t29 49.5q0 47 -43 156l-72 188q-16 39 -29 51.5t-43 12.5h-419q-25 0 -37 -11t-23 -39l-82 -204q-49 -129 -49 -166q0 -28 26.5 -40t90.5 -12q9 0 26.5 1.5t20.5 1.5q25 0 25 -31 q0 -39 -29 -39q-2 0 -100 4t-148 4q-48 0 -113 -4t-69 -4q-23 0 -23 33zM457 1444q0 14 10 24q26 27 109.5 123.5t117.5 134.5q22 25 41 25q20 0 39 -22q133 -158 225 -261q11 -13 11 -24q0 -9 -9.5 -18t-19.5 -9q-11 0 -35 17q-1 1 -36 29t-82 66t-70 58q-12 10 -25 10 q-5 0 -20 -10q-130 -105 -197 -155q-18 -15 -33 -15q-10 0 -18 9.5t-8 17.5zM496 637q0 -18 13.5 -23.5t55.5 -5.5h293q34 0 47 6t13 23q0 15 -13 45l-178 463q-7 20 -16 20q-5 0 -8.5 -5t-10.5 -21l-182 -457q-14 -33 -14 -45z" />
<glyph unicode="&#xc3;" horiz-adv-x="1435" d="M10 29q0 37 29 37q5 0 17 -1.5t20 -1.5q57 0 86 41q40 58 88 175q73 179 216 521.5t175 422.5q25 71 27 96q3 29 28 39q52 18 56 18q17 0 22 -24q7 -27 41 -119q21 -55 371 -952q51 -132 86 -179q29 -39 92 -39q6 0 17 1.5t16 1.5q28 0 28 -35t-26 -35q-4 0 -75 4t-122 4 q-50 0 -157.5 -4t-108.5 -4q-31 0 -31 35t29 35q2 0 17 -1.5t20 -1.5q71 0 100 14.5t29 49.5q0 47 -43 156l-72 188q-16 39 -29 51.5t-43 12.5h-419q-25 0 -37 -11t-23 -39l-82 -204q-49 -129 -49 -166q0 -28 26.5 -40t90.5 -12q9 0 26.5 1.5t20.5 1.5q25 0 25 -31 q0 -39 -29 -39q-2 0 -100 4t-148 4q-48 0 -113 -4t-69 -4q-23 0 -23 33zM440 1481q0 12 9 39q31 92 73 124.5t94 32.5q45 0 154 -57q78 -41 131 -41q59 0 80 86q6 25 29 25q28 0 28 -27q0 -15 -4 -27q-24 -88 -57 -127t-88 -39q-68 0 -156 48q-87 47 -143 47q-33 0 -53 -20 t-39 -70q-6 -19 -29 -19q-11 0 -20 6.5t-9 18.5zM496 637q0 -18 13.5 -23.5t55.5 -5.5h293q34 0 47 6t13 23q0 15 -13 45l-178 463q-7 20 -16 20q-5 0 -8.5 -5t-10.5 -21l-182 -457q-14 -33 -14 -45z" />
<glyph unicode="&#xc4;" horiz-adv-x="1435" d="M10 29q0 37 29 37q5 0 17 -1.5t20 -1.5q57 0 86 41q40 58 88 175q73 179 216 521.5t175 422.5q25 71 27 96q3 29 28 39q52 18 56 18q17 0 22 -24q7 -27 41 -119q21 -55 371 -952q51 -132 86 -179q29 -39 92 -39q6 0 17 1.5t16 1.5q28 0 28 -35t-26 -35q-4 0 -75 4t-122 4 q-50 0 -157.5 -4t-108.5 -4q-31 0 -31 35t29 35q2 0 17 -1.5t20 -1.5q71 0 100 14.5t29 49.5q0 47 -43 156l-72 188q-16 39 -29 51.5t-43 12.5h-419q-25 0 -37 -11t-23 -39l-82 -204q-49 -129 -49 -166q0 -28 26.5 -40t90.5 -12q9 0 26.5 1.5t20.5 1.5q25 0 25 -31 q0 -39 -29 -39q-2 0 -100 4t-148 4q-48 0 -113 -4t-69 -4q-23 0 -23 33zM479 1524q0 36 24 60t60 24q34 0 58 -24t24 -60t-24 -60t-60 -24q-33 0 -57.5 23.5t-24.5 60.5zM496 637q0 -18 13.5 -23.5t55.5 -5.5h293q34 0 47 6t13 23q0 15 -13 45l-178 463q-7 20 -16 20 q-5 0 -8.5 -5t-10.5 -21l-182 -457q-14 -33 -14 -45zM795 1524q0 36 26 60t62 24q34 0 57 -24t23 -60q0 -37 -23.5 -60.5t-58.5 -23.5q-34 0 -60 23.5t-26 60.5z" />
<glyph unicode="&#xc5;" horiz-adv-x="1435" d="M10 29q0 37 29 37q5 0 17 -1.5t20 -1.5q57 0 86 41q40 58 88 175q73 179 216 521.5t175 422.5q25 71 27 96q3 29 28 39q52 18 56 18q17 0 22 -24q7 -27 41 -119q21 -55 371 -952q51 -132 86 -179q29 -39 92 -39q6 0 17 1.5t16 1.5q28 0 28 -35t-26 -35q-4 0 -75 4t-122 4 q-50 0 -157.5 -4t-108.5 -4q-31 0 -31 35t29 35q2 0 17 -1.5t20 -1.5q71 0 100 14.5t29 49.5q0 47 -43 156l-72 188q-16 39 -29 51.5t-43 12.5h-419q-25 0 -37 -11t-23 -39l-82 -204q-49 -129 -49 -166q0 -28 26.5 -40t90.5 -12q9 0 26.5 1.5t20.5 1.5q25 0 25 -31 q0 -39 -29 -39q-2 0 -100 4t-148 4q-48 0 -113 -4t-69 -4q-23 0 -23 33zM496 637q0 -18 13.5 -23.5t55.5 -5.5h293q34 0 47 6t13 23q0 15 -13 45l-178 463q-7 20 -16 20q-5 0 -8.5 -5t-10.5 -21l-182 -457q-14 -33 -14 -45zM535 1599q0 79 52.5 132t129.5 53q83 0 131.5 -47 t48.5 -129q0 -84 -51.5 -135.5t-130.5 -51.5q-83 0 -131.5 49.5t-48.5 128.5zM606 1602q0 -52 31.5 -85.5t77.5 -33.5q48 0 80 32.5t32 86.5q0 59 -30.5 90.5t-81.5 31.5q-46 0 -77.5 -33t-31.5 -89z" />
<glyph unicode="&#xc6;" horiz-adv-x="2009" d="M4 31q0 35 37 35q5 0 20 -1.5t23 -1.5q59 0 98 41q65 70 142 175q410 567 639 938q12 21 12 40q0 9 -8.5 17t-18.5 10q-37 6 -96 6q-4 0 -24 -1t-27 -1q-12 0 -18.5 10.5t-6.5 26.5q0 33 29 33q7 0 63 -2.5t132.5 -5t132.5 -2.5q169 0 391 3t272 3q33 0 33 -37 q1 -34 2.5 -91.5t2.5 -96.5t1 -44q0 -30 -33 -30q-34 0 -37 26q-7 110 -49 152q-25 27 -74 34t-147 7q-146 0 -240 -4q-19 -2 -27.5 -13.5t-8.5 -39.5v-426q0 -31 18 -39.5t63 -8.5q158 0 213 19q62 21 72 143q3 31 37 31q33 0 33 -29l-7 -79q-6 -79 -6 -132 q0 -40 3.5 -106.5t3.5 -81.5q0 -27 -33 -27q-32 0 -35 27q-9 113 -59 143q-34 19 -234 19q-41 0 -55 -10t-14 -39v-381q0 -82 16 -105q24 -35 96 -46t209 -11q171 0 221 37q36 25 60 67.5t49 108.5q10 24 37 24q35 0 35 -24q0 -17 -21.5 -107.5t-36.5 -138.5 q-17 -49 -63 -49q-90 0 -263.5 4t-312.5 4q-55 0 -126 -2t-122.5 -4t-58.5 -2q-10 0 -18.5 8t-8.5 25t7 27t18 10q4 0 22 -1.5t23 -1.5q81 0 104 41q21 40 21 175v192q0 39 -9.5 51.5t-39.5 12.5h-398q-25 0 -40 -10.5t-37 -39.5l-133 -202q-89 -134 -89 -179 q0 -21 19.5 -31t71.5 -10q8 0 27.5 1.5t27.5 1.5q24 0 24 -37q0 -33 -32 -33q-2 0 -115.5 4t-163.5 4q-48 0 -109 -4t-65 -4q-23 0 -32 7t-9 28zM694 631q0 -12 12.5 -17.5t45.5 -5.5h278q34 0 48 6t20 23q6 15 6 45v535q0 20 -10 20q-11 0 -27 -27l-334 -508 q-1 -2 -13.5 -19t-19 -30t-6.5 -22z" />
<glyph unicode="&#xc7;" horiz-adv-x="1406" d="M104 659q0 209 83.5 369.5t252.5 254t404 93.5q68 0 129.5 -6.5t93 -13t79.5 -18.5t62 -15q54 -10 54 -47q1 -56 13.5 -152t12.5 -108q0 -33 -37 -33q-35 0 -41 25q-24 131 -75 190q-40 46 -114.5 72t-225.5 26q-116 0 -217.5 -39.5t-179.5 -114.5t-123.5 -193.5 t-45.5 -266.5q0 -146 45.5 -265t125 -198t188 -121.5t235.5 -42.5q209 0 322 113q50 50 96 166q9 28 41 28q31 0 31 -26q0 -27 -20 -102.5t-40 -112.5q-22 -42 -71 -66q-80 -40 -158 -60t-201 -20q-16 0 -22 -2q-12 -5 -19 -16q-22 -50 -22 -68q0 -17 22 -26 q69 -22 105.5 -58.5t36.5 -99.5q0 -76 -52.5 -134.5t-125 -85t-146.5 -26.5q-25 0 -35 8.5t-10 28.5t12 29.5t43 9.5q90 0 146.5 36t56.5 103q0 42 -27.5 65.5t-91.5 41.5q-12 3 -21 13.5t-9 23.5q0 28 18 63q27 52 31 62q8 16 8 22q0 17 -19 17q-148 15 -263 73 t-187.5 148.5t-110 206t-37.5 249.5z" />
<glyph unicode="&#xc8;" horiz-adv-x="1173" d="M76 29q0 37 24 37q4 0 22 -1.5t23 -1.5q82 0 105 41q20 38 20 175v794q0 142 -20 176q-25 41 -107 41q-5 0 -23 -1t-20 -1q-24 0 -24 31q0 39 28 39q7 0 50 -2.5t106 -5t119 -2.5q169 0 351 3t231 3q32 0 32 -37q1 -34 2.5 -91.5t2.5 -96.5t1 -44q0 -30 -32 -30 q-34 0 -37 26q-7 106 -49 154q-27 26 -77 33.5t-145 7.5q-188 0 -239 -4q-37 0 -37 -53v-428q0 -31 18.5 -39.5t63.5 -8.5q144 0 213 19q30 12 48 43t24 100q3 31 36 31t33 -29l-6 -79q-6 -79 -6 -132q0 -40 3 -106.5t3 -81.5q0 -27 -33 -27q-32 0 -35 27q-9 113 -59 143 q-34 19 -233 19q-41 0 -55.5 -10t-14.5 -39v-381q0 -82 16 -105q24 -35 96.5 -46t209.5 -11q171 0 221 37q36 25 59.5 67t48.5 109q10 24 37 24q35 0 35 -24q0 -16 -21 -104.5t-36 -141.5q-17 -49 -64 -49q-90 0 -263 3t-312 3q-55 0 -126.5 -1.5t-123 -3t-58.5 -1.5 q-9 0 -17.5 8t-8.5 25zM328 1706q0 30 18 46.5t43 16.5q22 0 38.5 -10t45.5 -37q77 -72 240 -215q22 -22 22 -34t-8.5 -21.5t-19.5 -9.5q-20 0 -50 18q-176 100 -276 172q-53 40 -53 74z" />
<glyph unicode="&#xc9;" horiz-adv-x="1173" d="M76 29q0 37 24 37q4 0 22 -1.5t23 -1.5q82 0 105 41q20 38 20 175v794q0 142 -20 176q-25 41 -107 41q-5 0 -23 -1t-20 -1q-24 0 -24 31q0 39 28 39q7 0 50 -2.5t106 -5t119 -2.5q169 0 351 3t231 3q32 0 32 -37q1 -34 2.5 -91.5t2.5 -96.5t1 -44q0 -30 -32 -30 q-34 0 -37 26q-7 106 -49 154q-27 26 -77 33.5t-145 7.5q-188 0 -239 -4q-37 0 -37 -53v-428q0 -31 18.5 -39.5t63.5 -8.5q144 0 213 19q30 12 48 43t24 100q3 31 36 31t33 -29l-6 -79q-6 -79 -6 -132q0 -40 3 -106.5t3 -81.5q0 -27 -33 -27q-32 0 -35 27q-9 113 -59 143 q-34 19 -233 19q-41 0 -55.5 -10t-14.5 -39v-381q0 -82 16 -105q24 -35 96.5 -46t209.5 -11q171 0 221 37q36 25 59.5 67t48.5 109q10 24 37 24q35 0 35 -24q0 -16 -21 -104.5t-36 -141.5q-17 -49 -64 -49q-90 0 -263 3t-312 3q-55 0 -126.5 -1.5t-123 -3t-58.5 -1.5 q-9 0 -17.5 8t-8.5 25zM457 1473q0 12 22 34q163 143 240 215q29 27 45.5 37t38.5 10q25 0 43 -16.5t18 -46.5q0 -34 -53 -74q-100 -72 -276 -172q-30 -18 -50 -18q-11 0 -19.5 9.5t-8.5 21.5z" />
<glyph unicode="&#xca;" horiz-adv-x="1173" d="M76 29q0 37 24 37q4 0 22 -1.5t23 -1.5q82 0 105 41q20 38 20 175v794q0 142 -20 176q-25 41 -107 41q-5 0 -23 -1t-20 -1q-24 0 -24 31q0 39 28 39q7 0 50 -2.5t106 -5t119 -2.5q169 0 351 3t231 3q32 0 32 -37q1 -34 2.5 -91.5t2.5 -96.5t1 -44q0 -30 -32 -30 q-34 0 -37 26q-7 106 -49 154q-27 26 -77 33.5t-145 7.5q-188 0 -239 -4q-37 0 -37 -53v-428q0 -31 18.5 -39.5t63.5 -8.5q144 0 213 19q30 12 48 43t24 100q3 31 36 31t33 -29l-6 -79q-6 -79 -6 -132q0 -40 3 -106.5t3 -81.5q0 -27 -33 -27q-32 0 -35 27q-9 113 -59 143 q-34 19 -233 19q-41 0 -55.5 -10t-14.5 -39v-381q0 -82 16 -105q24 -35 96.5 -46t209.5 -11q171 0 221 37q36 25 59.5 67t48.5 109q10 24 37 24q35 0 35 -24q0 -16 -21 -104.5t-36 -141.5q-17 -49 -64 -49q-90 0 -263 3t-312 3q-55 0 -126.5 -1.5t-123 -3t-58.5 -1.5 q-9 0 -17.5 8t-8.5 25zM317 1444q0 13 11 24q26 27 109.5 123.5t117.5 134.5q22 25 41 25q20 0 39 -22q133 -158 225 -261q10 -12 10 -24q0 -9 -9 -18t-19 -9q-11 0 -35 17q-1 1 -36.5 29t-82.5 66t-70 58q-12 10 -24 10q-6 0 -21 -10q-146 -117 -196 -155q-18 -15 -33 -15 q-10 0 -18.5 9.5t-8.5 17.5z" />
<glyph unicode="&#xcb;" horiz-adv-x="1173" d="M76 29q0 37 24 37q4 0 22 -1.5t23 -1.5q82 0 105 41q20 38 20 175v794q0 142 -20 176q-25 41 -107 41q-5 0 -23 -1t-20 -1q-24 0 -24 31q0 39 28 39q7 0 50 -2.5t106 -5t119 -2.5q169 0 351 3t231 3q32 0 32 -37q1 -34 2.5 -91.5t2.5 -96.5t1 -44q0 -30 -32 -30 q-34 0 -37 26q-7 106 -49 154q-27 26 -77 33.5t-145 7.5q-188 0 -239 -4q-37 0 -37 -53v-428q0 -31 18.5 -39.5t63.5 -8.5q144 0 213 19q30 12 48 43t24 100q3 31 36 31t33 -29l-6 -79q-6 -79 -6 -132q0 -40 3 -106.5t3 -81.5q0 -27 -33 -27q-32 0 -35 27q-9 113 -59 143 q-34 19 -233 19q-41 0 -55.5 -10t-14.5 -39v-381q0 -82 16 -105q24 -35 96.5 -46t209.5 -11q171 0 221 37q36 25 59.5 67t48.5 109q10 24 37 24q35 0 35 -24q0 -16 -21 -104.5t-36 -141.5q-17 -49 -64 -49q-90 0 -263 3t-312 3q-55 0 -126.5 -1.5t-123 -3t-58.5 -1.5 q-9 0 -17.5 8t-8.5 25zM358 1524q0 36 24 60t60 24q34 0 58 -24t24 -60t-24 -60t-60 -24q-33 0 -57.5 23.5t-24.5 60.5zM674 1524q0 36 26 60t62 24q34 0 57 -24t23 -60q0 -37 -23.5 -60.5t-58.5 -23.5q-34 0 -60 23.5t-26 60.5z" />
<glyph unicode="&#xcc;" horiz-adv-x="655" d="M63 1706q0 30 18.5 46.5t43.5 16.5q22 0 38.5 -10t45.5 -37q77 -72 240 -215q22 -22 22 -34t-9 -21.5t-20 -9.5q-19 0 -49 18q-176 100 -276 172q-54 41 -54 74zM76 35q0 12 7 21.5t17 9.5q2 0 16 -1.5t19 -1.5q95 0 115 41q20 38 20 185v776q0 150 -20 184 q-24 41 -109 41q-6 0 -22.5 -1t-18.5 -1q-24 0 -24 33q0 37 28 37q7 0 42.5 -3t91.5 -6t112 -3t101 3t69 6t29 3q31 0 31 -33q0 -37 -29 -37q-3 0 -16.5 1t-16.5 1q-74 0 -104 -37q-29 -32 -29 -192v-774q0 -153 29 -189q27 -35 102 -35q4 0 18 1.5t17 1.5q29 0 29 -35 q0 -15 -8 -25t-21 -10q-5 0 -33.5 3t-77.5 6t-104 3q-56 0 -110.5 -3t-88 -6t-37.5 -3q-24 0 -24 39z" />
<glyph unicode="&#xcd;" horiz-adv-x="655" d="M76 35q0 12 7 21.5t17 9.5q2 0 16 -1.5t19 -1.5q95 0 115 41q20 38 20 185v776q0 150 -20 184q-24 41 -109 41q-6 0 -22.5 -1t-18.5 -1q-24 0 -24 33q0 37 28 37q7 0 42.5 -3t91.5 -6t112 -3t101 3t69 6t29 3q31 0 31 -33q0 -37 -29 -37q-3 0 -16.5 1t-16.5 1 q-74 0 -104 -37q-29 -32 -29 -192v-774q0 -153 29 -189q27 -35 102 -35q4 0 18 1.5t17 1.5q29 0 29 -35q0 -15 -8 -25t-21 -10q-5 0 -33.5 3t-77.5 6t-104 3q-56 0 -110.5 -3t-88 -6t-37.5 -3q-24 0 -24 39zM180 1473q0 11 23 34q150 131 239 215q29 27 45.5 37t38.5 10 q25 0 43.5 -16.5t18.5 -46.5q0 -34 -53 -74q-97 -70 -277 -172q-30 -18 -49 -18q-11 0 -20 9.5t-9 21.5z" />
<glyph unicode="&#xce;" horiz-adv-x="655" d="M53 1444q0 14 10 24q27 28 112 125.5t116 132.5q22 25 41 25q20 0 39 -22q133 -158 225 -261q10 -12 10 -24q0 -9 -9 -18t-19 -9q-11 0 -35 17q-1 1 -36.5 29t-82.5 66t-70 58q-12 10 -24 10q-6 0 -21 -10q-146 -117 -196 -155q-18 -15 -33 -15q-10 0 -18.5 9.5 t-8.5 17.5zM76 35q0 12 7 21.5t17 9.5q2 0 16 -1.5t19 -1.5q95 0 115 41q20 38 20 185v776q0 150 -20 184q-24 41 -109 41q-6 0 -22.5 -1t-18.5 -1q-24 0 -24 33q0 37 28 37q7 0 42.5 -3t91.5 -6t112 -3t101 3t69 6t29 3q31 0 31 -33q0 -37 -29 -37q-3 0 -16.5 1t-16.5 1 q-74 0 -104 -37q-29 -32 -29 -192v-774q0 -153 29 -189q27 -35 102 -35q4 0 18 1.5t17 1.5q29 0 29 -35q0 -15 -8 -25t-21 -10q-5 0 -33.5 3t-77.5 6t-104 3q-56 0 -110.5 -3t-88 -6t-37.5 -3q-24 0 -24 39z" />
<glyph unicode="&#xcf;" horiz-adv-x="655" d="M76 35q0 12 7 21.5t17 9.5q2 0 16 -1.5t19 -1.5q95 0 115 41q20 38 20 185v776q0 150 -20 184q-24 41 -109 41q-6 0 -22.5 -1t-18.5 -1q-24 0 -24 33q0 37 28 37q7 0 42.5 -3t91.5 -6t112 -3t101 3t69 6t29 3q31 0 31 -33q0 -37 -29 -37q-3 0 -16.5 1t-16.5 1 q-74 0 -104 -37q-29 -32 -29 -192v-774q0 -153 29 -189q27 -35 102 -35q4 0 18 1.5t17 1.5q29 0 29 -35q0 -15 -8 -25t-21 -10q-5 0 -33.5 3t-77.5 6t-104 3q-56 0 -110.5 -3t-88 -6t-37.5 -3q-24 0 -24 39zM86 1524q0 36 24 60t60 24q34 0 58 -24t24 -60t-24 -60t-60 -24 q-33 0 -57.5 23.5t-24.5 60.5zM401 1524q0 36 26 60t62 24q34 0 57 -24t23 -60q0 -37 -23.5 -60.5t-58.5 -23.5q-34 0 -60 23.5t-26 60.5z" />
<glyph unicode="&#xd0;" horiz-adv-x="1533" d="M57 721q0 23 8 31t29 8h146q30 0 30 31v264q0 158 -18 190q-11 19 -39.5 32t-62.5 13q-5 0 -24.5 -1t-23.5 -1q-26 0 -26 33q0 18 8.5 27.5t19.5 9.5q7 0 42.5 -2.5t91 -5t110.5 -2.5q42 0 122.5 3t117.5 3q342 0 520 -82q155 -71 238.5 -219.5t83.5 -345.5 q0 -184 -58 -322t-165 -222.5t-248.5 -125.5t-317.5 -41q-68 0 -167 4t-126 4q-55 0 -108.5 -2t-87.5 -4t-41 -2q-35 0 -35 35t24 35q2 0 15 -1.5t18 -1.5q94 0 117 41q20 45 20 175v370q0 31 -30 31h-146q-24 0 -30.5 8t-6.5 33zM383 283q0 -71 8.5 -106t30.5 -52 q30 -22 95.5 -30.5t193.5 -8.5q100 0 188 21.5t162.5 68t128 114t83.5 164t30 214.5q0 144 -46 267.5t-135 201.5q-89 79 -229.5 108t-351.5 29q-119 0 -140 -23q-18 -18 -18 -102v-358q0 -31 31 -31h391q23 0 30 -7.5t7 -29.5q0 -24 -8 -33.5t-33 -9.5h-387q-31 0 -31 -31 v-366z" />
<glyph unicode="&#xd1;" horiz-adv-x="1628" d="M66 1321q0 37 30 37q5 0 52 -4t83 -4q39 0 76 4t45 4q34 0 54 -29q60 -83 174 -228t168 -216q293 -381 499 -625q14 -18 23 -18q10 0 10 16q2 88 2 268q0 394 -6 533q-6 157 -23 190q-21 41 -108 41q-7 0 -26 -1t-23 -1q-10 0 -17.5 9.5t-7.5 23.5q0 18 8 27.5t19 9.5 q4 0 39 -3t91.5 -6t110.5 -3q57 0 103 3t71 6t29 3q12 0 19.5 -9t7.5 -24q0 -37 -27 -37q-2 0 -20 1t-25 1q-74 0 -98 -35q-31 -39 -31 -196q0 -27 -1 -153t-1 -222q0 -142 1 -260.5t3 -189t4 -119.5t3 -74.5t1 -30.5q0 -37 -47 -37q-15 0 -26 17q-70 101 -148 194 q-105 125 -235.5 288.5t-286.5 362t-232 293.5q-1 1 -6.5 7.5t-9 9t-8.5 2.5q-12 0 -12 -17q-2 -125 -2 -430q0 -288 2 -421q0 -145 32 -181q21 -35 107 -35q2 0 20 1.5t25 1.5q24 0 24 -37q0 -15 -6.5 -24t-17.5 -9q-7 0 -38.5 3t-82.5 6t-106 3q-56 0 -106 -3t-79.5 -6 t-34.5 -3q-26 0 -26 35q0 13 6.5 24t17.5 11q4 0 18 -1.5t19 -1.5q39 0 70 11t43 30q20 45 22 175q9 470 9 784q0 137 -27 176q-44 51 -127 51q-5 0 -20 -1t-19 -1q-11 0 -17.5 9t-6.5 24zM547 1481q0 15 8 39q31 92 73.5 124.5t94.5 32.5q45 0 154 -57q78 -41 131 -41 q58 0 79 86q6 25 29 25q29 0 29 -27q0 -15 -4 -27q-24 -87 -57.5 -126.5t-88.5 -39.5q-67 0 -155 48q-87 47 -144 47q-33 0 -53 -20t-39 -70q-6 -19 -29 -19q-11 0 -19.5 6.5t-8.5 18.5z" />
<glyph unicode="&#xd2;" horiz-adv-x="1536" d="M104 655q0 154 50.5 288t139 229.5t215.5 150.5t275 55q293 0 470.5 -186t177.5 -494q0 -210 -77 -373t-229.5 -257.5t-359.5 -94.5q-294 0 -478 189t-184 493zM231 672q0 -138 43 -255t117.5 -195.5t174 -122.5t212.5 -44q234 0 381.5 163.5t147.5 443.5q0 140 -43 260 t-116.5 201.5t-172.5 127t-211 45.5q-236 0 -384.5 -170t-148.5 -454zM600 1706q0 30 18.5 46.5t43.5 16.5q22 0 38 -10t45 -37q77 -72 240 -215q23 -23 23 -34q0 -12 -9 -21.5t-20 -9.5q-19 0 -49 18q-180 102 -277 172q-53 40 -53 74z" />
<glyph unicode="&#xd3;" horiz-adv-x="1536" d="M104 655q0 154 50.5 288t139 229.5t215.5 150.5t275 55q293 0 470.5 -186t177.5 -494q0 -210 -77 -373t-229.5 -257.5t-359.5 -94.5q-294 0 -478 189t-184 493zM231 672q0 -138 43 -255t117.5 -195.5t174 -122.5t212.5 -44q234 0 381.5 163.5t147.5 443.5q0 140 -43 260 t-116.5 201.5t-172.5 127t-211 45.5q-236 0 -384.5 -170t-148.5 -454zM637 1473q0 12 22 34q163 143 240 215q29 27 45.5 37t38.5 10q25 0 43 -16.5t18 -46.5q0 -34 -53 -74q-100 -72 -276 -172q-30 -18 -49 -18q-11 0 -20 9.5t-9 21.5z" />
<glyph unicode="&#xd4;" horiz-adv-x="1536" d="M104 655q0 154 50.5 288t139 229.5t215.5 150.5t275 55q293 0 470.5 -186t177.5 -494q0 -210 -77 -373t-229.5 -257.5t-359.5 -94.5q-294 0 -478 189t-184 493zM231 672q0 -138 43 -255t117.5 -195.5t174 -122.5t212.5 -44q234 0 381.5 163.5t147.5 443.5q0 140 -43 260 t-116.5 201.5t-172.5 127t-211 45.5q-236 0 -384.5 -170t-148.5 -454zM487 1444q0 13 11 24q26 27 109.5 123.5t117.5 134.5q22 25 41 25q20 0 39 -22q133 -158 225 -261q10 -12 10 -24q0 -9 -9 -18t-19 -9q-11 0 -35 17q-1 1 -36.5 29t-82.5 66t-70 58q-12 10 -24 10 q-6 0 -21 -10q-146 -117 -196 -155q-18 -15 -33 -15q-10 0 -18.5 9.5t-8.5 17.5z" />
<glyph unicode="&#xd5;" horiz-adv-x="1536" d="M104 655q0 154 50.5 288t139 229.5t215.5 150.5t275 55q293 0 470.5 -186t177.5 -494q0 -210 -77 -373t-229.5 -257.5t-359.5 -94.5q-294 0 -478 189t-184 493zM231 672q0 -138 43 -255t117.5 -195.5t174 -122.5t212.5 -44q234 0 381.5 163.5t147.5 443.5q0 140 -43 260 t-116.5 201.5t-172.5 127t-211 45.5q-236 0 -384.5 -170t-148.5 -454zM461 1481q0 15 8 39q31 92 73.5 124.5t94.5 32.5q45 0 154 -57q78 -41 131 -41q58 0 79 86q6 25 29 25q29 0 29 -27q0 -15 -4 -27q-24 -87 -57.5 -126.5t-88.5 -39.5q-67 0 -155 48q-87 47 -144 47 q-33 0 -53 -20t-39 -70q-6 -19 -29 -19q-11 0 -19.5 6.5t-8.5 18.5z" />
<glyph unicode="&#xd6;" horiz-adv-x="1536" d="M104 655q0 154 50.5 288t139 229.5t215.5 150.5t275 55q293 0 470.5 -186t177.5 -494q0 -210 -77 -373t-229.5 -257.5t-359.5 -94.5q-294 0 -478 189t-184 493zM231 672q0 -138 43 -255t117.5 -195.5t174 -122.5t212.5 -44q234 0 381.5 163.5t147.5 443.5q0 140 -43 260 t-116.5 201.5t-172.5 127t-211 45.5q-236 0 -384.5 -170t-148.5 -454zM526 1524q0 36 24 60t60 24q34 0 58 -24t24 -60t-24 -60t-60 -24q-33 0 -57.5 23.5t-24.5 60.5zM842 1524q0 36 26 60t62 24q34 0 57 -24t23 -60q0 -37 -23.5 -60.5t-58.5 -23.5q-34 0 -60 23.5 t-26 60.5z" />
<glyph unicode="&#xd7;" horiz-adv-x="1314" d="M274 862q0 10 11 21l41 43q12 8 18 8q9 0 21 -8l297 -295l292 293q8 8 21 8q9 0 20 -8l33 -35q10 -13 10 -21t-10 -18l-293 -293l295 -295q10 -10 10 -20q0 -11 -8 -19l-41 -41q-6 -8 -20 -8q-13 0 -21 8l-295 293l-293 -293q-6 -8 -20 -8q-12 0 -18 8l-35 33q-8 8 -8 21 q0 9 8 20l291 293l-295 295q-11 15 -11 18z" />
<glyph unicode="&#xd8;" horiz-adv-x="1536" d="M104 655q0 154 50.5 288t139 229.5t215.5 150.5t275 55q219 0 369 -102q6 -4 16 -4q15 0 25 10l115 139q14 17 30 17q11 0 26.5 -12t16.5 -25q0 -13 -14 -33l-115 -139q-8 -8 -8 -19q0 -10 10 -20q177 -186 177 -492q0 -210 -77 -373t-229.5 -257.5t-359.5 -94.5 q-239 0 -410 129q-10 7 -18 7q-13 0 -23 -13l-114 -137q-16 -16 -31 -16q-12 0 -27.5 13.5t-15.5 25.5q0 16 10 26l123 148q6 9 6 20q0 10 -6 19q-156 189 -156 460zM231 672q0 -214 103 -377q9 -12 18 -12q11 0 21 10l708 854q9 9 9 20t-13 21q-136 108 -313 108 q-236 0 -384.5 -170t-148.5 -454zM416 209q0 -11 10 -21q145 -133 352 -133q234 0 381.5 163.5t147.5 443.5q0 255 -133 428q-10 10 -19 10q-10 0 -20 -13l-711 -860q-8 -8 -8 -18z" />
<glyph unicode="&#xd9;" horiz-adv-x="1564" d="M49 1319q0 39 31 39q5 0 38 -3t86 -6t107 -3q56 0 108.5 3t84.5 6t37 3q12 0 19 -10t7 -25q0 -35 -24 -35q-3 0 -17 1t-18 1q-94 0 -119 -35q-16 -22 -23.5 -59t-7.5 -127q0 -374 2 -530q5 -247 103 -361.5t321 -114.5q69 0 125.5 9.5t99.5 25.5t76.5 43t56.5 55t39 69 t25.5 78t14.5 88.5t6.5 94t1.5 101.5q0 302 -4 446q-5 145 -25 178q-11 17 -41.5 28t-68.5 11q-4 0 -24 -1t-24 -1q-8 0 -14 9.5t-6 21.5q0 39 27 39q6 0 91.5 -6t137.5 -6q49 0 126.5 6t78.5 6q21 0 28 -9t7 -26t-6.5 -26t-26.5 -9q-3 0 -21 1t-22 1q-62 -3 -96 -37 q-33 -37 -33 -182q0 -38 1 -270t1 -295q0 -261 -127.5 -398t-409.5 -137q-278 0 -406 130t-128 386q0 45 1 235t1 351q0 141 -25 178q-24 39 -106 39q-5 0 -22 -1t-21 -1q-23 0 -23 31zM561 1706q0 30 18.5 46.5t43.5 16.5q22 0 38.5 -10t45.5 -37q89 -84 239 -215 q23 -23 23 -34q0 -12 -9 -21.5t-20 -9.5q-19 0 -49 18q-180 102 -277 172q-53 40 -53 74z" />
<glyph unicode="&#xda;" horiz-adv-x="1564" d="M49 1319q0 39 31 39q5 0 38 -3t86 -6t107 -3q56 0 108.5 3t84.5 6t37 3q12 0 19 -10t7 -25q0 -35 -24 -35q-3 0 -17 1t-18 1q-94 0 -119 -35q-16 -22 -23.5 -59t-7.5 -127q0 -374 2 -530q5 -247 103 -361.5t321 -114.5q69 0 125.5 9.5t99.5 25.5t76.5 43t56.5 55t39 69 t25.5 78t14.5 88.5t6.5 94t1.5 101.5q0 302 -4 446q-5 145 -25 178q-11 17 -41.5 28t-68.5 11q-4 0 -24 -1t-24 -1q-8 0 -14 9.5t-6 21.5q0 39 27 39q6 0 91.5 -6t137.5 -6q49 0 126.5 6t78.5 6q21 0 28 -9t7 -26t-6.5 -26t-26.5 -9q-3 0 -21 1t-22 1q-62 -3 -96 -37 q-33 -37 -33 -182q0 -38 1 -270t1 -295q0 -261 -127.5 -398t-409.5 -137q-278 0 -406 130t-128 386q0 45 1 235t1 351q0 141 -25 178q-24 39 -106 39q-5 0 -22 -1t-21 -1q-23 0 -23 31zM651 1473q0 11 23 34q150 131 239 215q29 27 45.5 37t38.5 10q25 0 43.5 -16.5 t18.5 -46.5q0 -34 -53 -74q-97 -70 -277 -172q-30 -18 -49 -18q-11 0 -20 9.5t-9 21.5z" />
<glyph unicode="&#xdb;" horiz-adv-x="1564" d="M49 1319q0 39 31 39q5 0 38 -3t86 -6t107 -3q56 0 108.5 3t84.5 6t37 3q12 0 19 -10t7 -25q0 -35 -24 -35q-3 0 -17 1t-18 1q-94 0 -119 -35q-16 -22 -23.5 -59t-7.5 -127q0 -374 2 -530q5 -247 103 -361.5t321 -114.5q69 0 125.5 9.5t99.5 25.5t76.5 43t56.5 55t39 69 t25.5 78t14.5 88.5t6.5 94t1.5 101.5q0 302 -4 446q-5 145 -25 178q-11 17 -41.5 28t-68.5 11q-4 0 -24 -1t-24 -1q-8 0 -14 9.5t-6 21.5q0 39 27 39q6 0 91.5 -6t137.5 -6q49 0 126.5 6t78.5 6q21 0 28 -9t7 -26t-6.5 -26t-26.5 -9q-3 0 -21 1t-22 1q-62 -3 -96 -37 q-33 -37 -33 -182q0 -38 1 -270t1 -295q0 -261 -127.5 -398t-409.5 -137q-278 0 -406 130t-128 386q0 45 1 235t1 351q0 141 -25 178q-24 39 -106 39q-5 0 -22 -1t-21 -1q-23 0 -23 31zM524 1444q0 13 11 24q26 27 109.5 123.5t117.5 134.5q22 25 41 25q20 0 39 -22 q133 -158 225 -261q10 -12 10 -24q0 -9 -9 -18t-19 -9q-11 0 -35 17q-1 1 -36.5 29t-82.5 66t-70 58q-13 10 -24 10q-6 0 -21 -10q-146 -117 -196 -155q-18 -15 -33 -15q-10 0 -18.5 9.5t-8.5 17.5z" />
<glyph unicode="&#xdc;" horiz-adv-x="1564" d="M49 1319q0 39 31 39q5 0 38 -3t86 -6t107 -3q56 0 108.5 3t84.5 6t37 3q12 0 19 -10t7 -25q0 -35 -24 -35q-3 0 -17 1t-18 1q-94 0 -119 -35q-16 -22 -23.5 -59t-7.5 -127q0 -374 2 -530q5 -247 103 -361.5t321 -114.5q69 0 125.5 9.5t99.5 25.5t76.5 43t56.5 55t39 69 t25.5 78t14.5 88.5t6.5 94t1.5 101.5q0 302 -4 446q-5 145 -25 178q-11 17 -41.5 28t-68.5 11q-4 0 -24 -1t-24 -1q-8 0 -14 9.5t-6 21.5q0 39 27 39q6 0 91.5 -6t137.5 -6q49 0 126.5 6t78.5 6q21 0 28 -9t7 -26t-6.5 -26t-26.5 -9q-3 0 -21 1t-22 1q-62 -3 -96 -37 q-33 -37 -33 -182q0 -38 1 -270t1 -295q0 -261 -127.5 -398t-409.5 -137q-278 0 -406 130t-128 386q0 45 1 235t1 351q0 141 -25 178q-24 39 -106 39q-5 0 -22 -1t-21 -1q-23 0 -23 31zM545 1524q0 36 24 60t60 24q34 0 58 -24t24 -60t-24 -60t-60 -24q-33 0 -57.5 23.5 t-24.5 60.5zM860 1524q0 36 26 60t62 24q34 0 57 -24t23 -60q0 -37 -23.5 -60.5t-58.5 -23.5q-34 0 -60 23.5t-26 60.5z" />
<glyph unicode="&#xdd;" horiz-adv-x="1341" d="M27 1321q0 16 8 26.5t22 10.5q7 0 36 -3t78.5 -6t107.5 -3q42 0 130 6t95 6q28 0 28 -37q0 -11 -1.5 -17t-8.5 -11t-20 -5q-9 0 -39.5 1t-40.5 1q-38 0 -53 -8.5t-15 -30.5q0 -7 1 -14.5t4.5 -17t7 -17.5t10.5 -21.5t13 -23.5t17 -28.5t19.5 -32t24 -39t26.5 -43.5 l160 -262q21 -34 29 -43t16 -9q16 0 47 48l166 268q104 166 104 231q0 26 -23.5 34.5t-68.5 8.5q-20 0 -38.5 -1t-22.5 -1q-10 0 -15 1.5t-9.5 9t-4.5 22.5q0 37 27 37l72 -6q71 -6 151 -6q81 0 143 6t64 6q31 0 31 -37q0 -14 -4.5 -22t-9.5 -9.5t-13 -1.5q-4 0 -16 1t-19 1 q-48 0 -88 -37q-32 -28 -162 -235l-243 -393q-13 -17 -17 -39q-2 -10 -2 -43v-256q0 -153 29 -189q27 -35 102 -35q4 0 18 1.5t17 1.5q29 0 29 -35q0 -15 -8 -25t-21 -10q-5 0 -33.5 3t-77.5 6t-104 3q-56 0 -110.5 -3t-88 -6t-37.5 -3q-24 0 -24 39q0 12 7 21.5t17 9.5 q2 0 16 -1.5t19 -1.5q95 0 115 41q20 38 20 185v233q0 37 -4 51q-8 25 -22 48l-238 385q-98 162 -172 251q-27 31 -94 31q-5 0 -17.5 -1t-17.5 -1q-24 0 -24 35zM569 1473q0 11 23 34q150 131 239 215q29 27 45.5 37t38.5 10q25 0 43.5 -16.5t18.5 -46.5q0 -34 -53 -74 q-97 -70 -277 -172q-30 -18 -49 -18q-11 0 -20 9.5t-9 21.5z" />
<glyph unicode="&#xde;" horiz-adv-x="1159" d="M76 33q0 13 7 23t17 10q2 0 16 -1.5t19 -1.5q95 0 115 41q20 38 20 185v780q0 146 -20 180q-24 41 -109 41q-6 0 -22.5 -1t-18.5 -1q-24 0 -24 31q0 39 28 39q7 0 40.5 -3t87.5 -6t110 -3t106 3t79 6t34 3q31 0 31 -33q0 -37 -29 -37q-3 0 -16.5 1t-16.5 1 q-88 0 -118 -37q-27 -31 -27 -125q0 -55 29 -55q25 0 79.5 2t79.5 2q484 0 484 -354q0 -61 -12 -114t-47.5 -110t-92.5 -96.5t-155 -65.5t-226 -26q-22 0 -60 2t-44 2q-22 0 -29.5 -6t-7.5 -26q0 -149 29 -185q27 -35 116 -35q4 0 18 1.5t17 1.5q29 0 29 -33q0 -16 -8 -26.5 t-21 -10.5q-5 0 -37 3t-84.5 6t-107.5 3q-56 0 -109.5 -3t-86 -6t-36.5 -3q-26 0 -26 37zM383 473q0 -55 27 -70q10 -5 45 -9.5t57 -4.5q226 0 321 78t95 235q0 148 -92.5 221.5t-294.5 73.5q-88 0 -121 -4q-37 -3 -37 -51v-469z" />
<glyph unicode="&#xdf;" horiz-adv-x="1163" d="M94 33q0 12 6.5 21t16.5 9q3 0 18 -1t23 -1q68 0 88 39q20 46 20 162v539q0 17 -6.5 22.5t-28.5 5.5q-36 0 -71 -2t-37 -2q-23 0 -23 41q0 27 25 31q82 10 108 41q16 18 23 49t10 103q7 190 47.5 295.5t120.5 175.5q44 40 114.5 62t133.5 22q75 0 132 -19.5t90.5 -49 t55 -70.5t28.5 -77.5t7 -76.5q0 -123 -60.5 -225.5t-168.5 -198.5q-90 -81 -90 -127q0 -34 33 -68t159 -139t172.5 -174t46.5 -158q0 -132 -88 -212.5t-223 -80.5q-180 0 -252 60q-21 15 -24 49q-1 14 -4.5 42.5t-6 49t-2.5 27.5q0 39 41 39q30 0 35 -33q10 -63 41 -101 q23 -29 74.5 -46t112.5 -17q91 0 142.5 51.5t51.5 136.5q0 46 -13 83t-46.5 75t-64.5 65.5t-93 75.5q-106 84 -147 137.5t-41 106.5q0 49 25 89t81 95q195 189 195 385q0 97 -52 165.5t-149 68.5q-165 0 -248 -162q-28 -54 -47.5 -174t-19.5 -299v-678q0 -153 10 -184 q10 -27 10 -43q0 -35 -29 -35q-3 0 -30.5 3t-55.5 3q-70 0 -110 -4t-41 -4q-25 0 -25 37z" />
<glyph unicode="&#xe0;" horiz-adv-x="978" d="M109 209q0 113 90 166q51 28 133.5 51t249.5 53q43 8 60 21.5t17 44.5q0 117 -8 170t-30 86q-39 57 -144 57q-61 0 -125.5 -44t-64.5 -97q0 -23 8 -46.5t8 -37.5q0 -31 -22 -47.5t-54 -16.5q-34 0 -53.5 21.5t-19.5 60.5q0 72 98 160q71 61 151.5 99t151.5 38 q118 0 170 -80q37 -53 37 -186q0 -46 -3 -200t-3 -232q0 -105 25 -146t69 -41q46 0 61 46q8 24 35 24q12 0 20.5 -8t8.5 -21q0 -22 -21 -49q-32 -39 -66.5 -58.5t-84.5 -19.5q-46 0 -78.5 21t-52.5 76q-7 20 -21 20q-11 0 -26 -18q-59 -59 -117.5 -82t-134.5 -23 q-111 0 -187.5 68.5t-76.5 169.5zM221 221q0 -62 53 -112t148 -50q56 0 108.5 26.5t81.5 53.5q25 23 37.5 57.5t12.5 100.5q0 54 -5 100q0 25 -28 25q-25 0 -66 -8q-145 -28 -221 -54q-121 -43 -121 -139zM281 1393q0 29 19.5 45t47.5 16q44 0 76 -59q49 -91 164 -262 q14 -21 14 -35q0 -9 -9 -17t-22 -8q-16 0 -43 27q-145 142 -213 223q-34 42 -34 70z" />
<glyph unicode="&#xe1;" horiz-adv-x="978" d="M109 209q0 113 90 166q51 28 133.5 51t249.5 53q43 8 60 21.5t17 44.5q0 117 -8 170t-30 86q-39 57 -144 57q-61 0 -125.5 -44t-64.5 -97q0 -23 8 -46.5t8 -37.5q0 -31 -22 -47.5t-54 -16.5q-34 0 -53.5 21.5t-19.5 60.5q0 72 98 160q71 61 151.5 99t151.5 38 q118 0 170 -80q37 -53 37 -186q0 -46 -3 -200t-3 -232q0 -105 25 -146t69 -41q46 0 61 46q8 24 35 24q12 0 20.5 -8t8.5 -21q0 -22 -21 -49q-32 -39 -66.5 -58.5t-84.5 -19.5q-46 0 -78.5 21t-52.5 76q-7 20 -21 20q-11 0 -26 -18q-59 -59 -117.5 -82t-134.5 -23 q-111 0 -187.5 68.5t-76.5 169.5zM221 221q0 -62 53 -112t148 -50q56 0 108.5 26.5t81.5 53.5q25 23 37.5 57.5t12.5 100.5q0 54 -5 100q0 25 -28 25q-25 0 -66 -8q-145 -28 -221 -54q-121 -43 -121 -139zM406 1098q0 14 14 35q115 171 164 262q17 32 33.5 45.5t39.5 13.5 q29 0 49.5 -14t20.5 -43q0 -31 -35 -74q-68 -81 -213 -223q-27 -27 -43 -27q-13 0 -21.5 7.5t-8.5 17.5z" />
<glyph unicode="&#xe2;" horiz-adv-x="978" d="M109 209q0 113 90 166q51 28 133.5 51t249.5 53q43 8 60 21.5t17 44.5q0 117 -8 170t-30 86q-39 57 -144 57q-61 0 -125.5 -44t-64.5 -97q0 -23 8 -46.5t8 -37.5q0 -31 -22 -47.5t-54 -16.5q-34 0 -53.5 21.5t-19.5 60.5q0 72 98 160q71 61 151.5 99t151.5 38 q118 0 170 -80q37 -53 37 -186q0 -46 -3 -200t-3 -232q0 -105 25 -146t69 -41q46 0 61 46q8 24 35 24q12 0 20.5 -8t8.5 -21q0 -22 -21 -49q-32 -39 -66.5 -58.5t-84.5 -19.5q-46 0 -78.5 21t-52.5 76q-7 20 -21 20q-11 0 -26 -18q-59 -59 -117.5 -82t-134.5 -23 q-111 0 -187.5 68.5t-76.5 169.5zM221 221q0 -62 53 -112t148 -50q56 0 108.5 26.5t81.5 53.5q25 23 37.5 57.5t12.5 100.5q0 54 -5 100q0 25 -28 25q-25 0 -66 -8q-145 -28 -221 -54q-121 -43 -121 -139zM246 1098q0 11 8 22q150 235 195 316q14 26 40 26t39 -24 q80 -138 191 -312q10 -15 10 -24q0 -11 -12 -20t-25 -9t-30 17q-88 98 -154 184q-12 14 -23 14q-8 0 -20 -16q-94 -117 -162 -185q-14 -14 -27 -14q-9 0 -19.5 8t-10.5 17z" />
<glyph unicode="&#xe3;" horiz-adv-x="978" d="M109 209q0 113 90 166q51 28 133.5 51t249.5 53q43 8 60 21.5t17 44.5q0 117 -8 170t-30 86q-39 57 -144 57q-61 0 -125.5 -44t-64.5 -97q0 -23 8 -46.5t8 -37.5q0 -31 -22 -47.5t-54 -16.5q-34 0 -53.5 21.5t-19.5 60.5q0 72 98 160q71 61 151.5 99t151.5 38 q118 0 170 -80q37 -53 37 -186q0 -46 -3 -200t-3 -232q0 -105 25 -146t69 -41q46 0 61 46q8 24 35 24q12 0 20.5 -8t8.5 -21q0 -22 -21 -49q-32 -39 -66.5 -58.5t-84.5 -19.5q-46 0 -78.5 21t-52.5 76q-7 20 -21 20q-11 0 -26 -18q-59 -59 -117.5 -82t-134.5 -23 q-111 0 -187.5 68.5t-76.5 169.5zM211 1137q0 15 8 39q31 93 68.5 124t87.5 31q40 0 145 -55q78 -41 123 -41q48 0 68 82q5 24 28 24q29 0 29 -26q0 -15 -4 -27q-23 -87 -57 -125.5t-89 -38.5t-135 45q-87 50 -125 50q-33 0 -52 -19t-38 -70q-6 -18 -28 -18q-11 0 -20 6.5 t-9 18.5zM221 221q0 -62 53 -112t148 -50q56 0 108.5 26.5t81.5 53.5q25 23 37.5 57.5t12.5 100.5q0 54 -5 100q0 25 -28 25q-25 0 -66 -8q-145 -28 -221 -54q-121 -43 -121 -139z" />
<glyph unicode="&#xe4;" horiz-adv-x="978" d="M109 209q0 113 90 166q51 28 133.5 51t249.5 53q43 8 60 21.5t17 44.5q0 117 -8 170t-30 86q-39 57 -144 57q-61 0 -125.5 -44t-64.5 -97q0 -23 8 -46.5t8 -37.5q0 -31 -22 -47.5t-54 -16.5q-34 0 -53.5 21.5t-19.5 60.5q0 72 98 160q71 61 151.5 99t151.5 38 q118 0 170 -80q37 -53 37 -186q0 -46 -3 -200t-3 -232q0 -105 25 -146t69 -41q46 0 61 46q8 24 35 24q12 0 20.5 -8t8.5 -21q0 -22 -21 -49q-32 -39 -66.5 -58.5t-84.5 -19.5q-46 0 -78.5 21t-52.5 76q-7 20 -21 20q-11 0 -26 -18q-59 -59 -117.5 -82t-134.5 -23 q-111 0 -187.5 68.5t-76.5 169.5zM221 221q0 -62 53 -112t148 -50q56 0 108.5 26.5t81.5 53.5q25 23 37.5 57.5t12.5 100.5q0 54 -5 100q0 25 -28 25q-25 0 -66 -8q-145 -28 -221 -54q-121 -43 -121 -139zM264 1241q0 36 24 60t60 24q34 0 58 -24t24 -60t-24 -60t-60 -24 q-33 0 -57.5 23.5t-24.5 60.5zM563 1241q0 36 26 60t62 24q34 0 57 -24t23 -60q0 -37 -23.5 -60.5t-58.5 -23.5q-34 0 -60 23.5t-26 60.5z" />
<glyph unicode="&#xe5;" horiz-adv-x="978" d="M109 209q0 113 90 166q51 28 133.5 51t249.5 53q43 8 60 21.5t17 44.5q0 117 -8 170t-30 86q-39 57 -144 57q-61 0 -125.5 -44t-64.5 -97q0 -23 8 -46.5t8 -37.5q0 -31 -22 -47.5t-54 -16.5q-34 0 -53.5 21.5t-19.5 60.5q0 72 98 160q71 61 151.5 99t151.5 38 q118 0 170 -80q37 -53 37 -186q0 -46 -3 -200t-3 -232q0 -105 25 -146t69 -41q46 0 61 46q8 24 35 24q12 0 20.5 -8t8.5 -21q0 -22 -21 -49q-32 -39 -66.5 -58.5t-84.5 -19.5q-46 0 -78.5 21t-52.5 76q-7 20 -21 20q-11 0 -26 -18q-59 -59 -117.5 -82t-134.5 -23 q-111 0 -187.5 68.5t-76.5 169.5zM221 221q0 -62 53 -112t148 -50q56 0 108.5 26.5t81.5 53.5q25 23 37.5 57.5t12.5 100.5q0 54 -5 100q0 25 -28 25q-25 0 -66 -8q-145 -28 -221 -54q-121 -43 -121 -139zM305 1237q0 82 55.5 136t135.5 54q87 0 137.5 -49t50.5 -133 q0 -87 -53.5 -139.5t-136.5 -52.5q-87 0 -138 50.5t-51 133.5zM377 1239q0 -55 33.5 -91t83.5 -36q52 0 86 35t34 92q0 62 -33 96.5t-87 34.5q-49 0 -83 -35.5t-34 -95.5z" />
<glyph unicode="&#xe6;" horiz-adv-x="1515" d="M109 209q0 113 90 166q51 28 133.5 51t249.5 53q43 8 60 21.5t17 44.5q0 117 -7 172t-29 84q-48 61 -142 61q-76 0 -137 -42.5t-61 -102.5q0 -23 8 -46.5t8 -37.5q0 -31 -22 -47.5t-54 -16.5q-34 0 -53.5 21.5t-19.5 60.5q0 41 30 85.5t68 78.5q153 133 293 133 q121 0 172 -82q13 -21 28 -71q6 -17 13 -17q8 0 16 13q118 157 317 157q90 0 158 -27.5t108 -75.5t59.5 -107.5t19.5 -129.5q0 -57 -68 -63q-117 -10 -569 -10q-18 0 -25.5 -16.5t-7.5 -55.5q0 -186 94 -297t246 -111q99 0 166.5 40.5t91.5 97.5q8 20 12 53q3 22 11.5 32.5 t27.5 10.5q20 0 28.5 -9.5t8.5 -31.5q0 -37 -33 -101q-16 -31 -42.5 -59.5t-67.5 -56t-101 -44t-131 -16.5q-104 0 -187 40.5t-130 105.5q-1 1 -3 3.5t-3 4t-3 4t-3.5 3.5t-3.5 2.5t-4.5 2.5t-5 1.5t-5.5 0.5q-8 0 -17.5 -7t-13.5 -13q-49 -55 -134.5 -101.5t-178.5 -46.5 q-120 0 -196 68t-76 170zM221 221q0 -62 53 -112t148 -50q70 0 135 38t105 96q20 32 20 71q0 36 -14 113q-8 45 -33 45t-66 -8q-159 -31 -227 -54q-121 -43 -121 -139zM780 621q0 -21 31 -21q353 0 432 10q55 9 55 58q0 213 -235 213q-83 0 -151.5 -46t-106.5 -128 q-22 -47 -25 -86z" />
<glyph unicode="&#xe7;" horiz-adv-x="942" d="M100 432q0 229 128.5 372.5t332.5 143.5q91 0 160.5 -25.5t103.5 -70.5q35 -47 35 -115q0 -45 -24 -64.5t-60 -19.5t-52.5 18t-16.5 46q0 9 1 29t1 28q0 47 -50.5 76t-126.5 29q-138 0 -227.5 -107t-89.5 -274q0 -210 96 -326.5t246 -116.5q91 0 158 42.5t94 109.5 q5 14 10 61q2 16 9.5 24.5t27.5 8.5q37 0 37 -35q0 -23 -16 -73q-12 -31 -34 -63t-58.5 -67t-94 -59.5t-125.5 -30.5q-12 -1 -23 -10t-16 -20q-16 -39 -16 -49q0 -18 22 -27q66 -20 101 -55.5t35 -96.5q0 -75 -50.5 -131.5t-119.5 -82t-140 -25.5q-23 0 -33 8.5t-10 28.5 q0 36 54 36q85 0 138.5 35.5t53.5 100.5q0 41 -25.5 64t-86.5 38q-13 3 -22 13.5t-9 23.5q0 21 18 61q5 11 13.5 28t13 27t4.5 15q0 19 -27 22q-112 19 -190.5 87t-114 162t-35.5 206z" />
<glyph unicode="&#xe8;" horiz-adv-x="968" d="M100 434q0 228 118 371t314 143q90 0 160 -27.5t112 -75.5t63.5 -108t21.5 -129q0 -57 -68 -63q-117 -10 -579 -10q-18 0 -25.5 -16.5t-7.5 -55.5q0 -185 96.5 -296.5t249.5 -111.5q99 0 166.5 40.5t91.5 97.5q8 20 12 53q3 22 11.5 32.5t27.5 10.5q20 0 28.5 -9.5 t8.5 -31.5q0 -37 -33 -101q-16 -31 -43 -59.5t-68.5 -56t-103.5 -44t-135 -16.5q-100 0 -180.5 37t-131.5 101t-78.5 147t-27.5 178zM233 621q0 -21 27 -21q361 0 440 10q56 10 56 58q0 101 -62 157t-184 56q-79 0 -148.5 -46t-103.5 -128q-22 -47 -25 -86zM276 1393 q0 29 20 45t48 16q44 0 76 -59q49 -91 164 -262q14 -21 14 -35q0 -9 -9 -17t-22 -8q-16 0 -43 27q-145 142 -213 223q-35 43 -35 70z" />
<glyph unicode="&#xe9;" horiz-adv-x="968" d="M100 434q0 228 118 371t314 143q90 0 160 -27.5t112 -75.5t63.5 -108t21.5 -129q0 -57 -68 -63q-117 -10 -579 -10q-18 0 -25.5 -16.5t-7.5 -55.5q0 -185 96.5 -296.5t249.5 -111.5q99 0 166.5 40.5t91.5 97.5q8 20 12 53q3 22 11.5 32.5t27.5 10.5q20 0 28.5 -9.5 t8.5 -31.5q0 -37 -33 -101q-16 -31 -43 -59.5t-68.5 -56t-103.5 -44t-135 -16.5q-100 0 -180.5 37t-131.5 101t-78.5 147t-27.5 178zM233 621q0 -21 27 -21q361 0 440 10q56 10 56 58q0 101 -62 157t-184 56q-79 0 -148.5 -46t-103.5 -128q-22 -47 -25 -86zM418 1098 q0 14 14 35q115 171 164 262q17 32 34 45.5t40 13.5q29 0 49 -14t20 -43q0 -32 -34 -74q-68 -81 -213 -223q-27 -27 -43 -27q-13 0 -22 8t-9 17z" />
<glyph unicode="&#xea;" horiz-adv-x="968" d="M100 434q0 228 118 371t314 143q90 0 160 -27.5t112 -75.5t63.5 -108t21.5 -129q0 -57 -68 -63q-117 -10 -579 -10q-18 0 -25.5 -16.5t-7.5 -55.5q0 -185 96.5 -296.5t249.5 -111.5q99 0 166.5 40.5t91.5 97.5q8 20 12 53q3 22 11.5 32.5t27.5 10.5q20 0 28.5 -9.5 t8.5 -31.5q0 -37 -33 -101q-16 -31 -43 -59.5t-68.5 -56t-103.5 -44t-135 -16.5q-100 0 -180.5 37t-131.5 101t-78.5 147t-27.5 178zM233 621q0 -21 27 -21q361 0 440 10q56 10 56 58q0 101 -62 157t-184 56q-79 0 -148.5 -46t-103.5 -128q-22 -47 -25 -86zM287 1098 q0 11 8 22q141 222 194 316q14 26 41 26q26 0 39 -24q80 -138 191 -312q10 -15 10 -24q0 -11 -12 -20t-25 -9q-14 0 -31 17q-81 90 -153 184q-12 14 -23 14q-8 0 -20 -16q-94 -117 -162 -185q-14 -14 -27 -14q-9 0 -19.5 8t-10.5 17z" />
<glyph unicode="&#xeb;" horiz-adv-x="968" d="M100 434q0 228 118 371t314 143q90 0 160 -27.5t112 -75.5t63.5 -108t21.5 -129q0 -57 -68 -63q-117 -10 -579 -10q-18 0 -25.5 -16.5t-7.5 -55.5q0 -185 96.5 -296.5t249.5 -111.5q99 0 166.5 40.5t91.5 97.5q8 20 12 53q3 22 11.5 32.5t27.5 10.5q20 0 28.5 -9.5 t8.5 -31.5q0 -37 -33 -101q-16 -31 -43 -59.5t-68.5 -56t-103.5 -44t-135 -16.5q-100 0 -180.5 37t-131.5 101t-78.5 147t-27.5 178zM233 621q0 -21 27 -21q361 0 440 10q56 10 56 58q0 101 -62 157t-184 56q-79 0 -148.5 -46t-103.5 -128q-22 -47 -25 -86zM283 1241 q0 36 24 60t60 24q34 0 58 -24t24 -60t-24 -60t-60 -24q-33 0 -57.5 23.5t-24.5 60.5zM582 1241q0 36 26 60t62 24q34 0 57 -24t23 -60q0 -37 -23.5 -60.5t-58.5 -23.5q-34 0 -60 23.5t-26 60.5z" />
<glyph unicode="&#xec;" horiz-adv-x="600" d="M76 1393q0 29 19.5 45t47.5 16q44 0 76 -59q49 -91 164 -262q14 -21 14 -35q0 -10 -8.5 -17.5t-21.5 -7.5q-16 0 -43 27q-145 142 -213 223q-35 43 -35 70zM88 33q0 30 29 30q4 0 18 -1t19 -1q68 0 84 37q22 42 22 158v293q0 141 -27 190q-19 39 -112 58q-23 6 -23 28 q0 8 5 15.5t10 9.5q79 25 190 100q18 13 35 13q11 0 19 -8t8 -21t-3 -47q-6 -106 -6 -320v-307q0 -136 23 -166q23 -33 100 -33q9 0 20 1t13 1q29 0 29 -32q0 -35 -29 -35q-4 0 -30 2.5t-73 5t-102 2.5q-56 0 -99.5 -2.5t-66 -5t-26.5 -2.5q-27 0 -27 37z" />
<glyph unicode="&#xed;" horiz-adv-x="600" d="M88 33q0 30 29 30q4 0 18 -1t19 -1q68 0 84 37q22 42 22 158v293q0 141 -27 190q-19 39 -112 58q-23 6 -23 28q0 8 5 15.5t10 9.5q79 25 190 100q18 13 35 13q11 0 19 -8t8 -21t-3 -47q-6 -106 -6 -320v-307q0 -136 23 -166q23 -33 100 -33q9 0 20 1t13 1q29 0 29 -32 q0 -35 -29 -35q-4 0 -30 2.5t-73 5t-102 2.5q-56 0 -99.5 -2.5t-66 -5t-26.5 -2.5q-27 0 -27 37zM156 1098q0 14 14 35q115 171 164 262q17 32 34 45.5t40 13.5q29 0 49 -14t20 -43q0 -31 -35 -74q-68 -81 -213 -223q-27 -27 -43 -27q-13 0 -21.5 7.5t-8.5 17.5z" />
<glyph unicode="&#xee;" horiz-adv-x="600" d="M41 1098q0 11 8 22q150 235 195 316q14 26 41 26q26 0 39 -24q89 -154 190 -312q10 -15 10 -24q0 -11 -12 -20t-25 -9t-30 17q-88 98 -154 184q-12 14 -22 14q-9 0 -21 -16q-94 -117 -162 -185q-14 -14 -26 -14q-9 0 -20 8t-11 17zM88 33q0 30 29 30q4 0 18 -1t19 -1 q68 0 84 37q22 42 22 158v293q0 141 -27 190q-19 39 -112 58q-23 6 -23 28q0 8 5 15.5t10 9.5q79 25 190 100q18 13 35 13q11 0 19 -8t8 -21t-3 -47q-6 -106 -6 -320v-307q0 -136 23 -166q23 -33 100 -33q9 0 20 1t13 1q29 0 29 -32q0 -35 -29 -35q-4 0 -30 2.5t-73 5 t-102 2.5q-56 0 -99.5 -2.5t-66 -5t-26.5 -2.5q-27 0 -27 37z" />
<glyph unicode="&#xef;" horiz-adv-x="600" d="M41 1241q0 36 24 60t60 24q34 0 58 -24t24 -60t-24 -60t-60 -24q-33 0 -57.5 23.5t-24.5 60.5zM88 33q0 30 29 30q4 0 18 -1t19 -1q68 0 84 37q22 42 22 158v293q0 141 -27 190q-19 39 -112 58q-23 6 -23 28q0 8 5 15.5t10 9.5q79 25 190 100q18 13 35 13q11 0 19 -8 t8 -21t-3 -47q-6 -106 -6 -320v-307q0 -136 23 -166q23 -33 100 -33q9 0 20 1t13 1q29 0 29 -32q0 -35 -29 -35q-4 0 -30 2.5t-73 5t-102 2.5q-56 0 -99.5 -2.5t-66 -5t-26.5 -2.5q-27 0 -27 37zM340 1241q0 36 26 60t62 24q34 0 57 -24t23 -60q0 -37 -23.5 -60.5 t-58.5 -23.5q-34 0 -60 23.5t-26 60.5z" />
<glyph unicode="&#xf0;" horiz-adv-x="1122" d="M98 446q0 118 38 214t103 158t150.5 95t183.5 33q161 0 271 -102q15 -15 24 -15q13 0 13 23q0 17 -4 37q-35 240 -162 397q-7 10 -19 10q-2 0 -14 -4l-195 -108q-13 -8 -24 -8q-16 0 -25.5 15.5t-9.5 31.5q0 13 18 22l183 101q12 9 12 18q0 10 -6 16q-28 36 -76.5 76.5 t-91.5 65.5q-69 37 -102 47q-33 12 -33 28q0 19 9 33.5t24 14.5q22 0 98 -33q128 -53 264 -178q13 -9 21 -9q4 0 14 5l141 81q15 9 23 9q14 0 24.5 -16t10.5 -31q0 -17 -21 -27l-125 -68q-14 -8 -14 -18q0 -4 4 -12q106 -153 163.5 -341t57.5 -481q0 -88 -16.5 -168 t-53.5 -151.5t-91 -123t-134 -82t-178 -30.5q-138 0 -243 66t-158.5 173t-53.5 236zM223 479q0 -199 95 -319.5t247 -120.5q156 0 249 116t93 312q0 194 -94.5 304t-255.5 110q-153 0 -243.5 -107t-90.5 -295z" />
<glyph unicode="&#xf1;" horiz-adv-x="1212" d="M88 31q0 14 7.5 23t19.5 9q5 0 19 -1t22 -1q67 0 82 37q22 49 22 160v287q0 143 -24 190q-12 26 -41 39.5t-80 24.5q-17 4 -17 24q0 19 17 27q93 41 170 98q18 15 34 15q9 0 16.5 -6.5t8.5 -16.5q1 -7 1.5 -29t1 -51.5t1.5 -46.5q0 -20 19 -20q9 0 20 8q73 70 167 110.5 t181 40.5q131 0 191 -84q33 -44 46 -110t13 -197v-256q0 -179 16 -211q13 -19 28 -26t54 -7q5 0 22 1t19 1q14 0 22.5 -10t8.5 -24q0 -33 -29 -33q-3 0 -28 2.5t-71.5 5t-100.5 2.5q-50 0 -90.5 -2.5t-63 -5t-29.5 -2.5q-26 0 -26 35q0 14 8 23t20 9q4 0 21.5 -1t21.5 -1 q66 0 78 39q23 58 23 293q0 280 -37 359q-23 50 -74 77t-121 27q-72 0 -150 -43t-112 -90q-39 -48 -39 -184v-277q0 -138 23 -168q23 -33 88 -33q5 0 21.5 1t21.5 1q31 0 31 -34q0 -14 -8.5 -23.5t-22.5 -9.5q-5 0 -32.5 2.5t-75.5 5t-101 2.5q-51 0 -93 -2.5t-66 -5 t-31 -2.5q-10 0 -16.5 10t-6.5 25zM338 1137q0 15 8 39q31 93 68.5 124t87.5 31q40 0 145 -55q78 -41 123 -41q48 0 68 82q5 24 28 24q29 0 29 -26q0 -15 -4 -27q-23 -87 -57 -125.5t-89 -38.5t-135 45q-87 50 -125 50q-33 0 -52 -19t-38 -70q-6 -18 -28 -18q-11 0 -20 6.5 t-9 18.5z" />
<glyph unicode="&#xf2;" horiz-adv-x="1122" d="M98 446q0 118 38 214.5t103 158.5t151 95.5t183 33.5q208 0 330.5 -128.5t122.5 -334.5q0 -145 -55 -260.5t-163.5 -184.5t-254.5 -69q-138 0 -243 66t-158.5 173t-53.5 236zM223 479q0 -199 95 -319.5t247 -120.5q154 0 243 112t89 308q0 193 -94.5 307.5t-245.5 114.5 q-153 0 -243.5 -107t-90.5 -295zM358 1393q0 29 20 45t48 16q44 0 76 -59q49 -91 164 -262q14 -21 14 -35q0 -9 -9 -17t-22 -8q-16 0 -43 27q-145 142 -213 223q-35 43 -35 70z" />
<glyph unicode="&#xf3;" horiz-adv-x="1122" d="M98 446q0 118 38 214.5t103 158.5t151 95.5t183 33.5q208 0 330.5 -128.5t122.5 -334.5q0 -145 -55 -260.5t-163.5 -184.5t-254.5 -69q-138 0 -243 66t-158.5 173t-53.5 236zM223 479q0 -199 95 -319.5t247 -120.5q154 0 243 112t89 308q0 193 -94.5 307.5t-245.5 114.5 q-153 0 -243.5 -107t-90.5 -295zM457 1098q0 14 14 35q115 171 164 262q17 32 34 45.5t40 13.5q29 0 49 -14t20 -43q0 -31 -35 -74q-68 -81 -213 -223q-27 -27 -43 -27q-13 0 -21.5 7.5t-8.5 17.5z" />
<glyph unicode="&#xf4;" horiz-adv-x="1122" d="M98 446q0 118 38 214.5t103 158.5t151 95.5t183 33.5q208 0 330.5 -128.5t122.5 -334.5q0 -145 -55 -260.5t-163.5 -184.5t-254.5 -69q-138 0 -243 66t-158.5 173t-53.5 236zM223 479q0 -199 95 -319.5t247 -120.5q154 0 243 112t89 308q0 193 -94.5 307.5t-245.5 114.5 q-153 0 -243.5 -107t-90.5 -295zM332 1098q0 11 8 22q150 235 195 316q14 26 40 26t39 -24q80 -138 191 -312q10 -15 10 -24q0 -11 -12 -20t-25 -9t-30 17q-88 98 -154 184q-12 14 -23 14q-8 0 -20 -16q-94 -117 -162 -185q-14 -14 -27 -14q-9 0 -19.5 8t-10.5 17z" />
<glyph unicode="&#xf5;" horiz-adv-x="1122" d="M98 446q0 118 38 214.5t103 158.5t151 95.5t183 33.5q208 0 330.5 -128.5t122.5 -334.5q0 -145 -55 -260.5t-163.5 -184.5t-254.5 -69q-138 0 -243 66t-158.5 173t-53.5 236zM223 479q0 -199 95 -319.5t247 -120.5q154 0 243 112t89 308q0 193 -94.5 307.5t-245.5 114.5 q-153 0 -243.5 -107t-90.5 -295zM285 1137q0 15 8 39q31 93 68.5 124t87.5 31q40 0 145 -55q78 -41 123 -41q47 0 67 82q5 24 29 24q29 0 29 -26q0 -15 -4 -27q-23 -87 -57 -125.5t-89 -38.5t-135 45q-87 50 -125 50q-33 0 -52 -19t-38 -70q-6 -18 -29 -18q-11 0 -19.5 6.5 t-8.5 18.5z" />
<glyph unicode="&#xf6;" horiz-adv-x="1122" d="M98 446q0 118 38 214.5t103 158.5t151 95.5t183 33.5q208 0 330.5 -128.5t122.5 -334.5q0 -145 -55 -260.5t-163.5 -184.5t-254.5 -69q-138 0 -243 66t-158.5 173t-53.5 236zM223 479q0 -199 95 -319.5t247 -120.5q154 0 243 112t89 308q0 193 -94.5 307.5t-245.5 114.5 q-153 0 -243.5 -107t-90.5 -295zM332 1241q0 36 24 60t60 24q34 0 58 -24t24 -60t-24 -60t-60 -24q-33 0 -57.5 23.5t-24.5 60.5zM631 1241q0 36 26 60t62 24q34 0 57 -24t23 -60q0 -37 -23.5 -60.5t-58.5 -23.5q-34 0 -60 23.5t-26 60.5z" />
<glyph unicode="&#xf7;" horiz-adv-x="1314" d="M172 518v55q0 27 25 27h919q29 0 29 -27v-55q0 -29 -29 -29h-919q-25 0 -25 29zM571 246q0 36 25 61t61 25q38 0 62 -24.5t24 -61.5q0 -39 -24.5 -63.5t-63.5 -24.5q-35 0 -59.5 24.5t-24.5 63.5zM571 848q0 36 25 61t61 25q38 0 62 -24.5t24 -61.5q0 -38 -25 -62 t-63 -24q-35 0 -59.5 24.5t-24.5 61.5z" />
<glyph unicode="&#xf8;" horiz-adv-x="1122" d="M98 446q0 118 38 214.5t103 158.5t151 95.5t183 33.5q147 0 250 -65q6 -4 17 -4q14 0 24 10l76 92q13 16 31 16q11 0 24.5 -10.5t14.5 -23.5q0 -12 -15 -33l-73 -90q-9 -9 -9 -21q0 -9 9 -18q104 -125 104 -316q0 -145 -55 -260.5t-163.5 -184.5t-254.5 -69 q-149 0 -256 74q-9 6 -18 6q-14 0 -23 -12l-70 -84q-16 -16 -30 -16q-12 0 -25.5 12t-13.5 24q0 17 10 27l76 90q6 9 6 21q0 11 -6 20q-105 130 -105 313zM223 479q0 -144 51 -252q10 -14 19 -14q11 0 20 12l451 543q6 9 6 18q0 13 -8 21q-87 74 -205 74q-153 0 -243.5 -107 t-90.5 -295zM346 139q0 -12 8 -20q89 -80 211 -80q154 0 243 112t89 308q0 139 -51 241q-11 15 -19 15q-10 0 -20 -13l-455 -544q-6 -9 -6 -19z" />
<glyph unicode="&#xf9;" horiz-adv-x="1202" d="M74 868q0 30 20 33q126 16 201 47q25 10 39 10q10 0 18 -7.5t8 -20.5q0 -3 -6.5 -54t-13 -141t-6.5 -188q0 -159 6.5 -239t26.5 -126q24 -57 74 -85.5t139 -28.5q77 0 145.5 31.5t105.5 72.5q35 40 35 186v238q0 91 -3 129t-15 63q-22 46 -119 50q-27 0 -27 30q0 13 7 22 t16 11q87 8 170 41q43 19 51 19q31 0 31 -27q0 -1 -3.5 -38.5t-7 -111t-3.5 -161.5v-349q0 -119 34 -159q18 -21 58 -21q10 0 36.5 7.5t36.5 7.5q11 0 18 -9.5t7 -21.5q0 -25 -16 -31q-3 -1 -44 -12.5t-71 -22.5q-28 -10 -53.5 -23t-39.5 -20.5t-22 -7.5q-17 0 -24 23 q-2 10 -17 100q-2 16 -14 16q-9 0 -43 -28q-129 -101 -303 -101q-131 0 -209 95q-34 51 -47.5 127t-13.5 204q0 24 1 135.5t1 143.5q0 62 -17 104q-12 30 -44 42t-81 16q-8 0 -15 8t-7 22zM375 1393q0 29 19.5 45t47.5 16q44 0 76 -59q49 -91 164 -262q14 -21 14 -35 q0 -10 -8.5 -17.5t-21.5 -7.5q-16 0 -43 27q-145 142 -213 223q-35 43 -35 70z" />
<glyph unicode="&#xfa;" horiz-adv-x="1202" d="M74 868q0 30 20 33q126 16 201 47q25 10 39 10q10 0 18 -7.5t8 -20.5q0 -3 -6.5 -54t-13 -141t-6.5 -188q0 -159 6.5 -239t26.5 -126q24 -57 74 -85.5t139 -28.5q77 0 145.5 31.5t105.5 72.5q35 40 35 186v238q0 91 -3 129t-15 63q-22 46 -119 50q-27 0 -27 30q0 13 7 22 t16 11q87 8 170 41q43 19 51 19q31 0 31 -27q0 -1 -3.5 -38.5t-7 -111t-3.5 -161.5v-349q0 -119 34 -159q18 -21 58 -21q10 0 36.5 7.5t36.5 7.5q11 0 18 -9.5t7 -21.5q0 -25 -16 -31q-3 -1 -44 -12.5t-71 -22.5q-28 -10 -53.5 -23t-39.5 -20.5t-22 -7.5q-17 0 -24 23 q-2 10 -17 100q-2 16 -14 16q-9 0 -43 -28q-129 -101 -303 -101q-131 0 -209 95q-34 51 -47.5 127t-13.5 204q0 24 1 135.5t1 143.5q0 62 -17 104q-12 30 -44 42t-81 16q-8 0 -15 8t-7 22zM508 1098q0 14 14 35q115 171 164 262q17 32 34 45.5t40 13.5q29 0 49 -14t20 -43 q0 -32 -34 -74q-68 -81 -213 -223q-27 -27 -43 -27q-13 0 -22 8t-9 17z" />
<glyph unicode="&#xfb;" horiz-adv-x="1202" d="M74 868q0 30 20 33q126 16 201 47q25 10 39 10q10 0 18 -7.5t8 -20.5q0 -3 -6.5 -54t-13 -141t-6.5 -188q0 -159 6.5 -239t26.5 -126q24 -57 74 -85.5t139 -28.5q77 0 145.5 31.5t105.5 72.5q35 40 35 186v238q0 91 -3 129t-15 63q-22 46 -119 50q-27 0 -27 30q0 13 7 22 t16 11q87 8 170 41q43 19 51 19q31 0 31 -27q0 -1 -3.5 -38.5t-7 -111t-3.5 -161.5v-349q0 -119 34 -159q18 -21 58 -21q10 0 36.5 7.5t36.5 7.5q11 0 18 -9.5t7 -21.5q0 -25 -16 -31q-3 -1 -44 -12.5t-71 -22.5q-28 -10 -53.5 -23t-39.5 -20.5t-22 -7.5q-17 0 -24 23 q-2 10 -17 100q-2 16 -14 16q-9 0 -43 -28q-129 -101 -303 -101q-131 0 -209 95q-34 51 -47.5 127t-13.5 204q0 24 1 135.5t1 143.5q0 62 -17 104q-12 30 -44 42t-81 16q-8 0 -15 8t-7 22zM379 1098q0 11 8 22q150 235 195 316q14 26 41 26q26 0 39 -24q89 -154 190 -312 q10 -15 10 -24q0 -11 -12 -20t-25 -9t-30 17q-88 98 -154 184q-12 14 -23 14q-8 0 -20 -16q-94 -117 -162 -185q-14 -14 -26 -14q-9 0 -20 8t-11 17z" />
<glyph unicode="&#xfc;" horiz-adv-x="1202" d="M74 868q0 30 20 33q126 16 201 47q25 10 39 10q10 0 18 -7.5t8 -20.5q0 -3 -6.5 -54t-13 -141t-6.5 -188q0 -159 6.5 -239t26.5 -126q24 -57 74 -85.5t139 -28.5q77 0 145.5 31.5t105.5 72.5q35 40 35 186v238q0 91 -3 129t-15 63q-22 46 -119 50q-27 0 -27 30q0 13 7 22 t16 11q87 8 170 41q43 19 51 19q31 0 31 -27q0 -1 -3.5 -38.5t-7 -111t-3.5 -161.5v-349q0 -119 34 -159q18 -21 58 -21q10 0 36.5 7.5t36.5 7.5q11 0 18 -9.5t7 -21.5q0 -25 -16 -31q-3 -1 -44 -12.5t-71 -22.5q-28 -10 -53.5 -23t-39.5 -20.5t-22 -7.5q-17 0 -24 23 q-2 10 -17 100q-2 16 -14 16q-9 0 -43 -28q-129 -101 -303 -101q-131 0 -209 95q-34 51 -47.5 127t-13.5 204q0 24 1 135.5t1 143.5q0 62 -17 104q-12 30 -44 42t-81 16q-8 0 -15 8t-7 22zM381 1241q0 36 24 60t60 24q34 0 58 -24t24 -60t-24 -60t-60 -24q-33 0 -57.5 23.5 t-24.5 60.5zM680 1241q0 36 26 60t62 24q34 0 57 -24t23 -60q0 -37 -23.5 -60.5t-58.5 -23.5q-34 0 -60 23.5t-26 60.5z" />
<glyph unicode="&#xfd;" horiz-adv-x="1095" d="M18 889q0 35 29 35q5 0 30 -3t70 -5.5t97 -2.5q51 0 92 2.5t63.5 5.5t28.5 3q31 0 31 -33q0 -35 -31 -35q-2 0 -21 1t-26 1q-47 0 -65.5 -11.5t-18.5 -43.5q0 -26 49 -146q99 -242 195 -442q18 -40 25 -42q1 -1 3 -1q18 0 29 31q143 360 180 459q43 111 43 149 q0 27 -18 37t-70 10q-4 0 -22 -1t-21 -1q-24 0 -24 37q0 31 26 31q5 0 27 -3t63 -5.5t92 -2.5t89.5 2.5t58 5.5t25.5 3q30 0 30 -35q0 -14 -5.5 -23.5t-14.5 -9.5q-3 0 -19.5 1t-19.5 1q-39 0 -64 -29q-25 -25 -57 -106q-26 -64 -128.5 -316t-150.5 -366 q-192 -452 -270 -549q-80 -104 -190 -104q-60 0 -81.5 19t-21.5 54q0 28 18.5 44t45.5 16q18 0 34.5 -7.5t32.5 -7.5q38 0 63.5 16t55.5 54q52 67 166 324q37 86 37 102q0 24 -10 49q-161 371 -303 674q-36 73 -60 104q-23 29 -65 29q-4 0 -14.5 -1t-14.5 -1q-23 0 -23 33z M481 1098q0 12 15 35q110 164 163 262q17 32 34 45.5t40 13.5q29 0 49.5 -14t20.5 -43q0 -31 -35 -74q-68 -81 -213 -223q-27 -27 -43 -27q-13 0 -22 8t-9 17z" />
<glyph unicode="&#xfe;" horiz-adv-x="1183" d="M74 -559q0 35 26 35q4 0 19 -1t22 -1q57 0 84 39q21 33 21 161v1401q0 296 -21 342q-17 34 -59 51q-23 10 -47 13q-23 4 -23 26q0 21 19 29q99 38 174 90q3 2 9 6.5t9 6.5t8.5 4t10.5 2q12 0 17 -6t5 -23q0 -4 -0.5 -28t-1.5 -76.5t-2 -132.5t-1.5 -225t-0.5 -325 q0 -30 14 -30q11 0 19 8q154 145 330 145q170 0 276 -123t106 -313q0 -112 -33.5 -209t-96 -168.5t-157.5 -112t-212 -40.5q-109 0 -191 28q-15 6 -32 6q-21 0 -21 -24v-318q0 -119 18 -155q24 -49 125 -49q5 0 27 1t25 1q15 0 22.5 -7.5t7.5 -29.5q0 -31 -34 -31 q-6 0 -42.5 2.5t-92.5 5t-109 2.5q-60 0 -125 -5l-64 -5q-28 0 -28 33zM342 344q0 -89 8 -129t25 -65q26 -35 95.5 -59.5t141.5 -24.5q70 0 134.5 22.5t118 66.5t86 116.5t32.5 164.5q0 193 -88 306.5t-248 113.5q-91 0 -180 -55.5t-107 -114.5q-18 -56 -18 -123v-219z" />
<glyph unicode="&#xff;" horiz-adv-x="1095" d="M18 889q0 35 29 35q5 0 30 -3t70 -5.5t97 -2.5q51 0 92 2.5t63.5 5.5t28.5 3q31 0 31 -33q0 -35 -31 -35q-2 0 -21 1t-26 1q-47 0 -65.5 -11.5t-18.5 -43.5q0 -26 49 -146q99 -242 195 -442q18 -40 25 -42q1 -1 3 -1q18 0 29 31q143 360 180 459q43 111 43 149 q0 27 -18 37t-70 10q-4 0 -22 -1t-21 -1q-24 0 -24 37q0 31 26 31q5 0 27 -3t63 -5.5t92 -2.5t89.5 2.5t58 5.5t25.5 3q30 0 30 -35q0 -14 -5.5 -23.5t-14.5 -9.5q-3 0 -19.5 1t-19.5 1q-39 0 -64 -29q-25 -25 -57 -106q-26 -64 -128.5 -316t-150.5 -366 q-192 -452 -270 -549q-80 -104 -190 -104q-60 0 -81.5 19t-21.5 54q0 28 18.5 44t45.5 16q18 0 34.5 -7.5t32.5 -7.5q38 0 63.5 16t55.5 54q52 67 166 324q37 86 37 102q0 24 -10 49q-161 371 -303 674q-36 73 -60 104q-23 29 -65 29q-4 0 -14.5 -1t-14.5 -1q-23 0 -23 33z M319 1241q0 36 24 60t60 24q34 0 58 -24t24 -60t-24 -60t-60 -24q-33 0 -57.5 23.5t-24.5 60.5zM618 1241q0 36 26.5 60t62.5 24q34 0 56.5 -23.5t22.5 -60.5t-23 -60.5t-58 -23.5q-34 0 -60.5 23.5t-26.5 60.5z" />
<glyph unicode="&#x152;" horiz-adv-x="2017" d="M104 655q0 208 85 369t246 252.5t374 91.5q89 0 207 -12q90 -8 225 -8q169 0 340 4t221 4q15 0 25 -10t10 -29q1 -34 2.5 -91.5t2.5 -96.5t1 -44q0 -30 -33 -30t-36 26q-7 109 -50 152q-25 27 -74 34t-147 7q-31 0 -123 -2t-116 -2q-37 0 -37 -53v-426q0 -31 18.5 -39.5 t63.5 -8.5q158 0 213 19q29 10 47 41.5t24 101.5q3 31 37 31q33 0 33 -29l-6 -79q-6 -79 -6 -132q0 -40 3 -106.5t3 -81.5q0 -27 -33 -27q-32 0 -35 27q-9 113 -59 143q-34 19 -234 19q-41 0 -55 -10t-14 -39v-379q0 -82 16 -105q24 -35 96 -46t209 -11q174 0 221 35 q36 25 60 67.5t49 108.5q10 24 37 24q35 0 35 -24q0 -17 -21.5 -107.5t-36.5 -138.5q-17 -49 -63 -49q-90 0 -261.5 4t-310.5 4q-55 0 -90.5 -1t-51.5 -2t-23 -1q-27 0 -152.5 -7t-165.5 -7q-303 0 -486.5 182.5t-183.5 486.5zM231 672q0 -138 43 -253t117.5 -191t174 -118 t212.5 -42q162 0 236 24q69 21 90 72q10 23 10 102v830q0 58 -12 98q-7 24 -21 37t-41 24q-82 31 -241 31q-266 0 -417 -163.5t-151 -450.5z" />
<glyph unicode="&#x153;" horiz-adv-x="1759" d="M98 438q0 157 63.5 274.5t168.5 176.5t235 59q129 0 223 -55t142 -152q10 -20 18 -20q10 0 19 18q54 97 147 153t209 56q90 0 160 -27.5t111.5 -75.5t63 -108t21.5 -129q0 -58 -67 -63q-117 -10 -580 -10q-18 0 -25.5 -16.5t-7.5 -55.5q0 -185 97 -296.5t250 -111.5 q98 0 164 40.5t92 97.5q11 27 14 53q3 22 11.5 32.5t27.5 10.5q20 0 28.5 -9.5t8.5 -31.5q0 -33 -35 -101q-37 -70 -122.5 -123t-223.5 -53q-118 0 -207.5 49.5t-140.5 135.5q-17 30 -25 30q-4 0 -6.5 -1t-7 -7t-11.5 -18q-120 -189 -368 -189q-138 0 -241 64t-154.5 168.5 t-51.5 234.5zM223 471q0 -200 91 -316t243 -116q155 0 243.5 108.5t88.5 303.5q0 194 -95 312t-245 118q-152 0 -239 -110t-87 -300zM1024 621q0 -21 27 -21q361 0 440 10q55 9 55 58q0 101 -62 157t-184 56q-78 0 -145.5 -46t-105.5 -128q-22 -47 -25 -86z" />
<glyph unicode="&#x178;" horiz-adv-x="1341" d="M27 1321q0 16 8 26.5t22 10.5q7 0 36 -3t78.5 -6t107.5 -3q42 0 130 6t95 6q28 0 28 -37q0 -11 -1.5 -17t-8.5 -11t-20 -5q-9 0 -39.5 1t-40.5 1q-38 0 -53 -8.5t-15 -30.5q0 -7 1 -14.5t4.5 -17t7 -17.5t10.5 -21.5t13 -23.5t17 -28.5t19.5 -32t24 -39t26.5 -43.5 l160 -262q21 -34 29 -43t16 -9q16 0 47 48l166 268q104 166 104 231q0 26 -23.5 34.5t-68.5 8.5q-20 0 -38.5 -1t-22.5 -1q-10 0 -15 1.5t-9.5 9t-4.5 22.5q0 37 27 37l72 -6q71 -6 151 -6q81 0 143 6t64 6q31 0 31 -37q0 -14 -4.5 -22t-9.5 -9.5t-13 -1.5q-4 0 -16 1t-19 1 q-48 0 -88 -37q-32 -28 -162 -235l-243 -393q-13 -17 -17 -39q-2 -10 -2 -43v-256q0 -153 29 -189q27 -35 102 -35q4 0 18 1.5t17 1.5q29 0 29 -35q0 -15 -8 -25t-21 -10q-5 0 -33.5 3t-77.5 6t-104 3q-56 0 -110.5 -3t-88 -6t-37.5 -3q-24 0 -24 39q0 12 7 21.5t17 9.5 q2 0 16 -1.5t19 -1.5q95 0 115 41q20 38 20 185v233q0 37 -4 51q-8 25 -22 48l-238 385q-98 162 -172 251q-27 31 -94 31q-5 0 -17.5 -1t-17.5 -1q-24 0 -24 35zM444 1524q0 36 24 60t60 24q34 0 58 -24t24 -60t-24 -60t-60 -24q-33 0 -57.5 23.5t-24.5 60.5zM760 1524 q0 36 26 60t62 24q34 0 57 -24t23 -60q0 -37 -23.5 -60.5t-58.5 -23.5q-34 0 -60 23.5t-26 60.5z" />
<glyph unicode="&#x2c6;" horiz-adv-x="593" d="M55 1098q0 11 8 22q150 235 195 316q14 26 41 26q26 0 39 -24q89 -154 190 -312q11 -17 11 -24q0 -11 -12 -20t-25 -9q-14 0 -31 17q-88 98 -154 184q-12 14 -22 14q-9 0 -21 -16q-98 -122 -161 -185q-14 -14 -27 -14q-9 0 -20 8t-11 17z" />
<glyph unicode="&#x2dc;" horiz-adv-x="593" d="M18 1137q0 12 9 39q31 93 68 124t87 31q41 0 146 -55q78 -41 123 -41q47 0 67 82q5 24 29 24q28 0 28 -26q0 -15 -4 -27q-24 -87 -57 -125.5t-88 -38.5t-135 45q-87 50 -125 50q-33 0 -52 -19t-38 -70q-6 -18 -29 -18q-11 0 -20 6.5t-9 18.5z" />
<glyph unicode="&#x2000;" horiz-adv-x="892" />
<glyph unicode="&#x2001;" horiz-adv-x="1784" />
<glyph unicode="&#x2002;" horiz-adv-x="892" />
<glyph unicode="&#x2003;" horiz-adv-x="1784" />
<glyph unicode="&#x2004;" horiz-adv-x="594" />
<glyph unicode="&#x2005;" horiz-adv-x="446" />
<glyph unicode="&#x2006;" horiz-adv-x="297" />
<glyph unicode="&#x2007;" horiz-adv-x="297" />
<glyph unicode="&#x2008;" horiz-adv-x="223" />
<glyph unicode="&#x2009;" horiz-adv-x="356" />
<glyph unicode="&#x200a;" horiz-adv-x="99" />
<glyph unicode="&#x2010;" horiz-adv-x="567" d="M59 489q0 33 7.5 44.5t27.5 11.5h381q22 0 27.5 -10t5.5 -43q0 -36 -6 -47t-31 -11h-377q-24 0 -29.5 10t-5.5 45z" />
<glyph unicode="&#x2011;" horiz-adv-x="567" d="M59 489q0 33 7.5 44.5t27.5 11.5h381q22 0 27.5 -10t5.5 -43q0 -36 -6 -47t-31 -11h-377q-24 0 -29.5 10t-5.5 45z" />
<glyph unicode="&#x2012;" horiz-adv-x="567" d="M59 489q0 33 7.5 44.5t27.5 11.5h381q22 0 27.5 -10t5.5 -43q0 -36 -6 -47t-31 -11h-377q-24 0 -29.5 10t-5.5 45z" />
<glyph unicode="&#x2013;" horiz-adv-x="880" d="M59 489q0 33 7 42.5t28 9.5h694q23 0 28 -8.5t5 -40.5q0 -35 -6 -44.5t-31 -9.5h-690q-24 0 -29.5 8.5t-5.5 42.5z" />
<glyph unicode="&#x2014;" horiz-adv-x="1300" d="M59 489q0 33 7 42.5t28 9.5h1114q23 0 28 -8.5t5 -40.5q0 -35 -6 -44.5t-31 -9.5h-1110q-24 0 -29.5 8.5t-5.5 42.5z" />
<glyph unicode="&#x2018;" horiz-adv-x="421" d="M100 1077q0 184 154 305q47 37 70 37q11 0 18.5 -8t7.5 -20q0 -20 -24 -33q-57 -34 -88 -89t-31 -114q0 -52 49 -76q57 -28 57 -80q0 -36 -24 -61t-70 -25q-54 0 -86.5 43t-32.5 121z" />
<glyph unicode="&#x2019;" horiz-adv-x="421" d="M72 934q0 20 24 33q57 34 88 88.5t31 113.5q0 52 -49 76q-57 28 -57 80q0 36 24 61t70 25q54 0 86.5 -43t32.5 -121q0 -184 -154 -305q-47 -37 -70 -37q-11 0 -18.5 8.5t-7.5 20.5z" />
<glyph unicode="&#x201a;" horiz-adv-x="421" d="M72 -287q0 20 24 33q57 34 88 89t31 114q0 52 -49 76q-57 28 -57 79q0 36 24 61t70 25q54 0 86.5 -42.5t32.5 -120.5q0 -185 -154 -306q-45 -36 -70 -36q-11 0 -18.5 8t-7.5 20z" />
<glyph unicode="&#x201c;" horiz-adv-x="751" d="M100 1077q0 184 154 305q47 37 70 37q11 0 18.5 -8t7.5 -20q0 -20 -24 -33q-57 -34 -88 -89t-31 -114q0 -52 49 -76q57 -28 57 -80q0 -36 -24 -61t-70 -25q-54 0 -86.5 43t-32.5 121zM430 1077q0 184 154 305q47 37 69 37q11 0 19 -8t8 -20q0 -19 -25 -33 q-57 -34 -87.5 -89t-30.5 -114q0 -52 49 -76q57 -28 57 -80q0 -36 -24 -61t-70 -25q-54 0 -86.5 43t-32.5 121z" />
<glyph unicode="&#x201d;" horiz-adv-x="751" d="M72 934q0 20 24 33q57 34 88 88.5t31 113.5q0 52 -49 76q-57 28 -57 80q0 36 24 61t70 25q54 0 86.5 -43t32.5 -121q0 -184 -154 -305q-47 -37 -70 -37q-11 0 -18.5 8.5t-7.5 20.5zM401 934q0 19 25 33q57 34 88 88.5t31 113.5q0 52 -49 76q-58 28 -58 80q0 36 24 61 t70 25q54 0 86.5 -43t32.5 -121q0 -184 -153 -305q-47 -37 -70 -37q-11 0 -19 8.5t-8 20.5z" />
<glyph unicode="&#x201e;" horiz-adv-x="751" d="M72 -287q0 20 24 33q57 34 88 89t31 114q0 52 -49 76q-57 28 -57 79q0 36 24 61t70 25q54 0 86.5 -42.5t32.5 -120.5q0 -185 -154 -306q-45 -36 -70 -36q-11 0 -18.5 8t-7.5 20zM401 -287q0 19 25 33q57 34 88 89t31 114q0 52 -49 76q-58 28 -58 79q0 36 24 61t70 25 q54 0 86.5 -42.5t32.5 -120.5q0 -185 -153 -306q-45 -36 -70 -36q-11 0 -19 8t-8 20z" />
<glyph unicode="&#x2022;" horiz-adv-x="714" d="M125 551q0 106 66 173t165 67q102 0 168 -67t66 -173q0 -108 -66 -175t-168 -67t-166.5 66.5t-64.5 175.5z" />
<glyph unicode="&#x2026;" horiz-adv-x="1431" d="M141 82q0 44 29 71t72 27t68.5 -26t25.5 -70q0 -42 -27 -71t-69 -29q-45 0 -72 26t-27 72zM618 82q0 44 29 71t72 27t68.5 -26t25.5 -70q0 -42 -27 -71t-69 -29q-45 0 -72 26t-27 72zM1096 82q0 44 28.5 71t71.5 27t68.5 -26t25.5 -70q0 -42 -27 -71t-69 -29 q-45 0 -71.5 25.5t-26.5 72.5z" />
<glyph unicode="&#x202f;" horiz-adv-x="356" />
<glyph unicode="&#x2039;" horiz-adv-x="544" d="M59 506q0 15 6 22.5t25 18.5q132 95 342 262q27 25 39 25q9 0 20 -9t11 -16t-19 -31q-49 -51 -258 -256q-10 -10 -10 -16t8 -14q22 -21 65.5 -62t68.5 -65t60 -59t62 -66q25 -31 25 -43q0 -8 -9 -15.5t-18 -7.5q-12 0 -49 33q-242 190 -342 264q-27 19 -27 35z" />
<glyph unicode="&#x203a;" horiz-adv-x="546" d="M45 811q0 8 9 15.5t18 7.5q14 0 51 -33q131 -109 340 -264q26 -18 26 -35q0 -15 -5.5 -22t-24.5 -19q-127 -92 -342 -262q-7 -5 -13.5 -10t-9 -7.5t-6 -4.5t-5.5 -2.5t-5 -0.5q-9 0 -20 9t-11 16q0 9 19 30q47 50 258 256q10 10 10 17q0 6 -8 14q-22 21 -65.5 62 t-68.5 65t-60 59t-62 66q-25 31 -25 43z" />
<glyph unicode="&#x205f;" horiz-adv-x="446" />
<glyph unicode="&#x20ac;" horiz-adv-x="1394" d="M172 524q0 26 9.5 34.5t29.5 8.5h98q11 0 18 9t7 20q0 23 1 50t2 45.5t1 21.5q0 20 -25 20h-102q-39 0 -39 37q0 26 9.5 34.5t29.5 8.5h121q22 0 26 25q49 211 186.5 336.5t344.5 125.5q86 0 153 -15.5t107 -39.5t66 -56t35.5 -61.5t9.5 -60.5q0 -82 -76 -82t-76 84 q0 71 -45 113q-53 49 -176 49q-144 0 -252.5 -100.5t-145.5 -249.5q-10 -35 -10 -50q0 -18 23 -18h504q18 0 27 -8t9 -33q0 -14 -2.5 -22.5t-8.5 -12t-10.5 -4t-14.5 -0.5h-521q-21 0 -24 -24q-2 -27 -2 -115q0 -27 24 -27h523q18 0 27 -8t9 -33q0 -14 -2.5 -22.5t-8.5 -12 t-10.5 -4t-14.5 -0.5h-510q-16 0 -19.5 -7.5t-3.5 -24.5q0 -30 8 -58q74 -329 393 -329q117 0 199 45.5t115 132.5q7 22 12 84q1 17 3 25.5t11.5 17t26.5 8.5q14 0 23 -4t12.5 -12t4.5 -15t1 -18q0 -44 -22 -105q-16 -46 -44.5 -87t-75.5 -80.5t-122 -63t-168 -23.5 q-115 0 -207.5 38.5t-153 106.5t-97 154.5t-50.5 190.5q0 10 -7 17t-18 7h-106q-39 0 -39 37z" />
<glyph unicode="&#x2122;" horiz-adv-x="1781" d="M76 1194q0 2 5 58.5t5 80.5q0 25 20 25q4 0 10 -0.5t20.5 -1.5t41 -2t83 -1.5t134.5 -0.5q92 0 159.5 1t99 2t36.5 1q21 0 21 -23q0 -15 1 -48.5t2 -60.5t1 -28q0 -10 -8 -16t-19 -6q-28 0 -31 20q-7 65 -22 82q-10 13 -28.5 17.5t-61.5 4.5q-86 0 -96 -6q-13 -5 -13 -39 v-393q0 -81 19 -100q14 -17 55 -17q2 0 18 1t19 1q24 0 24 -26q0 -27 -20 -27q-1 0 -59.5 4t-100.5 4q-30 0 -65 -2t-58 -4t-24 -2q-25 0 -25 27q0 26 23 26q3 0 20.5 -1t20.5 -1q39 0 51 25q14 33 14 92v393q0 33 -6 37q-14 8 -98 8q-57 0 -82 -20q-27 -24 -31 -82 q-4 -20 -25 -20q-12 0 -21 5.5t-9 12.5zM776 719q0 26 27 26q1 0 11.5 -1t12.5 -1q36 0 50 21q15 18 20 86q23 359 23 373q0 49 -15 67q-17 17 -43 17q-4 0 -19 -1t-18 -1q-22 0 -22 24q0 29 26 29q2 0 43.5 -3t59.5 -3q20 0 63.5 2t44.5 2q16 0 23 -27q9 -31 27 -80.5 l22 -60.5q28 -77 121 -314q4 -8 8 -8q5 0 12 15q99 216 127 284q38 93 56 146q9 27 15.5 36t16.5 9q2 0 23.5 -1t47.5 -2t40 -1q20 0 57.5 2t40.5 2q10 0 15.5 -7.5t5.5 -17.5q0 -26 -19 -26q-3 0 -19.5 1t-19.5 1q-40 0 -51 -17q-8 -11 -8 -76q0 -47 10 -362q2 -58 17 -88 q10 -21 49 -21q2 0 17.5 1t17.5 1q20 0 20 -24q0 -29 -22 -29q-2 0 -26.5 1.5t-60 3t-63.5 1.5t-59.5 -1.5t-52.5 -3t-23 -1.5q-23 0 -23 27q0 26 21 26q2 0 16.5 -1t16.5 -1q37 0 51 21t14 88q0 182 -8 393q0 10 -6 10q-7 0 -12 -10q-111 -261 -185 -426q-28 -61 -41 -98 q-9 -27 -32 -27q-18 0 -27 29q-10 35 -31 90q-23 61 -76 203t-82 217q-5 14 -12 14q-1 0 -3.5 -1.5t-4.5 -5.5t-2 -9q-14 -320 -14 -379q0 -75 12 -90q15 -19 47 -19q1 0 12.5 1t18.5 1q20 0 20 -26q0 -27 -20 -27q-2 0 -22.5 1t-51.5 2t-59 1q-22 0 -50.5 -1t-49 -2 t-23.5 -1q-23 0 -23 27z" />
<glyph unicode="&#xe000;" horiz-adv-x="921" d="M0 0v922h922v-922h-922z" />
</font>
</defs>
</svg>
