<?xml version="1.0" standalone="no"?>
<!DOCTYPE svg PUBLIC "-//W3C//DTD SVG 1.1//EN" "http://www.w3.org/Graphics/SVG/1.1/DTD/svg11.dtd" >
<svg xmlns="http://www.w3.org/2000/svg">
<metadata></metadata>
<defs>
<font id="ashburybold_italic" horiz-adv-x="1204" >
<font-face units-per-em="2048" ascent="1536" descent="-512" />
<missing-glyph horiz-adv-x="438" />
<glyph unicode="&#xfb01;" horiz-adv-x="1363" d="M-442 -506q0 42 25.5 69t62.5 27q30 0 43 -26q23 -44 47 -60t76 -16q36 0 72.5 19.5t64.5 52.5q42 50 91.5 199t119.5 477q8 40 46 225t64 307q4 24 4 35q0 16 -16 16q-24 0 -71.5 -1t-67.5 -1q-11 0 -19 6.5t-8 14.5q0 62 33 69q100 15 133 27q25 9 43 48t72 194 q31 89 63.5 153t70 107.5t65 67t73.5 55.5q65 46 160 66t184 20q79 0 139 -17.5t82 -38.5q68 -59 68 -149q0 -66 -43 -99.5t-88 -33.5q-64 0 -97 32.5t-40 79.5q-5 49 -21 84q-21 49 -71 49q-37 0 -83.5 -26.5t-74.5 -67.5q-96 -138 -150 -321q-49 -166 -49 -199 q0 -14 19 -14q96 0 262 6q52 2 136 17.5t107 15.5q57 0 83 -19.5t26 -77.5q0 -11 -1 -21.5t-4 -26t-5.5 -28.5t-9 -36.5t-12 -41.5t-16 -53t-18.5 -61t-23 -75.5t-26 -86.5q-4 -15 -17 -56t-19.5 -64t-15.5 -55t-13 -54t-4 -35q0 -26 10.5 -36.5t32.5 -10.5q57 0 102 61 q27 37 43 90q12 35 39 35q47 0 47 -39q0 -21 -24 -63q-23 -45 -64 -90q-69 -75 -149.5 -110.5t-147.5 -35.5q-149 0 -149 117q0 74 106 397q41 126 53.5 181.5t12.5 99.5q0 22 -17.5 33.5t-42.5 13.5q-109 4 -303 4q-18 0 -22 -20q-93 -439 -111 -512q-45 -188 -93 -329 t-94.5 -227t-83 -134t-79.5 -86q-135 -121 -314 -121q-100 0 -163 39q-17 11 -29 29.5t-12 35.5z" />
<glyph unicode="&#xfb02;" horiz-adv-x="1347" d="M-442 -506q0 42 25.5 69t62.5 27q30 0 43 -26q23 -44 47 -60t76 -16q36 0 72.5 19.5t64.5 52.5q42 50 91.5 199t119.5 477q8 40 46 225t64 307q4 24 4 35q0 16 -16 16q-24 0 -71.5 -1t-67.5 -1q-11 0 -19 6.5t-8 14.5q0 62 33 69q88 10 133 27q26 9 47 52.5t68 189.5 q28 87 58.5 150.5t65.5 106.5t63.5 67.5t72.5 55.5q66 46 163 69.5t175 23.5q113 0 227 -31q27 -6 57 -6q21 0 41 10q76 27 99 27q11 0 21.5 -8t10.5 -19q0 -29 -8 -53q-48 -141 -170 -543q-39 -129 -88.5 -302t-64.5 -224q-86 -287 -86 -330q0 -26 10.5 -36.5t32.5 -10.5 q57 0 102 61q27 37 43 90q12 35 39 35q47 0 47 -39q0 -21 -24 -63q-23 -45 -64 -90q-69 -75 -149.5 -110.5t-147.5 -35.5q-149 0 -149 117q0 28 14 82.5t47.5 167t50.5 172.5q21 73 58.5 200.5t66 228t62.5 230.5q41 168 41 256q0 62 -37 94.5t-107 32.5q-47 0 -106 -32.5 t-90 -75.5q-87 -118 -140 -307q-49 -166 -49 -199q0 -14 19 -14q42 0 107 2t73 2q14 0 22.5 -12t8.5 -25q0 -74 -56 -74q-25 0 -85 1t-91 1q-18 0 -22 -20q-93 -439 -111 -512q-45 -188 -93 -329t-94.5 -227t-83 -134t-79.5 -86q-135 -121 -314 -121q-100 0 -163 39 q-17 11 -29 29.5t-12 35.5z" />
<glyph unicode="&#xfb03;" horiz-adv-x="2039" d="M-442 -506q0 42 25.5 69t62.5 27q30 0 43 -26q23 -44 47 -60t76 -16q36 0 72.5 19.5t64.5 52.5q42 50 91.5 199t119.5 477q8 40 46 225t64 307q4 24 4 35q0 16 -16 16q-24 0 -71.5 -1t-67.5 -1q-11 0 -19 6.5t-8 14.5q0 62 33 69q71 10 127 27q8 3 14.5 8t12.5 15t11 21 t12.5 31.5t14 38.5t18 50.5t21.5 60.5q32 85 63.5 146t67.5 101.5t61 61.5t68 50q127 86 281 86q127 0 186 -52q35 -28 35 -90q0 -43 -29.5 -68.5t-60.5 -25.5q-68 0 -86 49q-2 6 -5 17.5t-6 21t-7 17.5q-13 24 -29.5 31t-52.5 7q-34 0 -71.5 -30t-68.5 -82 q-37 -65 -96 -262q-45 -153 -45 -199q0 -6 8.5 -10t18.5 -4h207q96 0 139 16q25 9 41.5 45t68.5 189q24 72 52.5 129.5t52 93t57.5 69.5t55.5 50.5t59.5 42.5q65 46 160 66t184 20q76 0 134.5 -18.5t86.5 -39.5q68 -52 68 -147q0 -66 -43 -99.5t-88 -33.5q-64 0 -97 32.5 t-40 79.5q-5 49 -21 84q-21 49 -72 49q-37 0 -83 -26.5t-76 -67.5q-89 -121 -148 -321q-49 -166 -49 -199q0 -14 18 -14q97 0 263 6q52 2 136 17.5t107 15.5q57 0 83 -19.5t26 -77.5q0 -11 -1 -21.5t-4 -26t-5.5 -28.5t-9 -36.5t-12 -41.5t-16 -53t-18.5 -61t-23 -75.5 t-26 -86.5q-4 -15 -17 -56t-19.5 -64t-15.5 -55t-13 -54t-4 -35q0 -26 10.5 -36.5t32.5 -10.5q57 0 102 61q27 37 43 90q12 35 39 35q47 0 47 -39q0 -19 -25 -63q-25 -47 -63 -90q-69 -75 -149.5 -110.5t-147.5 -35.5q-150 0 -150 117q0 71 107 397q41 125 53 180.5 t12 100.5q0 22 -17.5 33.5t-41.5 13.5q-109 4 -303 4q-19 0 -23 -20q-99 -468 -110 -512q-37 -152 -77 -271.5t-72 -190.5t-72.5 -130t-65.5 -85t-63 -59q-134 -120 -314 -120q-109 0 -172 39q-18 11 -31.5 29.5t-13.5 35.5q0 40 26 64t64 24q27 0 43 -26q22 -36 49 -54 q21 -16 84 -16q35 0 72.5 20t65.5 54q21 26 38.5 58t44 99t58.5 187t70 291q16 70 33 152t39.5 193.5t37.5 184.5q4 24 4 35q0 16 -20 16q-47 2 -178 2q-142 0 -193 -2q-18 0 -22 -20q-88 -416 -111 -510q-46 -189 -94 -329.5t-94 -226.5t-82.5 -134.5t-79.5 -85.5 q-135 -121 -314 -121q-100 0 -163 39q-17 11 -29 29.5t-12 35.5z" />
<glyph unicode="&#xfb04;" horiz-adv-x="2023" d="M-442 -506q0 42 25.5 69t62.5 27q30 0 43 -26q23 -44 47 -60t76 -16q36 0 72.5 19.5t64.5 52.5q42 50 91.5 199t119.5 477q8 40 46 225t64 307q4 24 4 35q0 16 -16 16q-24 0 -71.5 -1t-67.5 -1q-11 0 -19 6.5t-8 14.5q0 62 33 69q71 10 127 27q8 3 14.5 8t12.5 15t11 21 t12.5 31.5t14 38.5t18 50.5t21.5 60.5q32 85 63.5 146t67.5 101.5t61 61.5t68 50q127 86 281 86q127 0 186 -52q35 -28 35 -90q0 -43 -29.5 -68.5t-60.5 -25.5q-68 0 -86 49q-2 6 -5 17.5t-6 21t-7 17.5q-13 24 -29.5 31t-52.5 7q-34 0 -71.5 -30t-68.5 -82 q-37 -65 -96 -262q-45 -153 -45 -199q0 -6 8.5 -10t18.5 -4h207q96 0 139 16q26 9 42.5 46t65.5 188q29 87 60.5 150.5t68 107t65 68.5t73.5 56q66 46 163 69.5t175 23.5q113 0 227 -31q27 -6 57 -6q21 0 41 10q76 27 99 27q11 0 21.5 -8t10.5 -19q0 -29 -8 -53 q-48 -141 -170 -543q-39 -129 -88.5 -302t-64.5 -224q-86 -287 -86 -330q0 -26 10.5 -36.5t32.5 -10.5q57 0 102 61q27 37 43 90q12 35 39 35q47 0 47 -39q0 -19 -25 -63q-25 -47 -63 -90q-69 -75 -149.5 -110.5t-147.5 -35.5q-150 0 -150 117q0 27 14.5 82.5t47.5 166 t51 173.5q17 60 57.5 197.5t67.5 234t61 227.5q41 168 41 256q0 63 -37 95t-106 32q-47 0 -106.5 -32.5t-90.5 -75.5q-85 -116 -139 -307q-49 -166 -49 -199q0 -14 18 -14q42 0 107.5 2t73.5 2q14 0 22 -11.5t8 -25.5q0 -74 -55 -74q-25 0 -85 1t-91 1q-19 0 -23 -20 q-99 -468 -110 -512q-37 -152 -77 -271.5t-72 -190.5t-72.5 -130t-65.5 -85t-63 -59q-134 -120 -314 -120q-109 0 -172 39q-18 11 -31.5 29.5t-13.5 35.5q0 40 26 64t64 24q27 0 43 -26q22 -36 49 -54q21 -16 84 -16q35 0 72.5 20t65.5 54q21 26 38.5 58t44 99t58.5 187 t70 291q16 70 33 152t39.5 193.5t37.5 184.5q4 24 4 35q0 16 -20 16q-47 2 -178 2q-142 0 -193 -2q-18 0 -22 -20q-88 -416 -111 -510q-46 -189 -94 -329.5t-94 -226.5t-82.5 -134.5t-79.5 -85.5q-135 -121 -314 -121q-100 0 -163 39q-17 11 -29 29.5t-12 35.5z" />
<glyph horiz-adv-x="2048" />
<glyph horiz-adv-x="2048" />
<glyph unicode="&#xd;" horiz-adv-x="2048" />
<glyph unicode=" "  horiz-adv-x="438" />
<glyph unicode="&#x09;" horiz-adv-x="438" />
<glyph unicode="&#xa0;" horiz-adv-x="438" />
<glyph unicode="!" horiz-adv-x="653" d="M129 115q0 88 49.5 137t130.5 49q54 0 97 -37t43 -100q0 -81 -47 -135t-128 -54q-66 0 -105.5 40.5t-39.5 99.5zM289 487q0 26 6 62q17 146 30 305.5t21 258.5t16 142q17 88 64.5 121t122.5 33q70 0 108.5 -30.5t38.5 -84.5q0 -62 -51 -200q-18 -48 -98 -245.5 t-131 -340.5q-11 -33 -27 -50.5t-49 -17.5q-30 0 -40.5 13t-10.5 34z" />
<glyph unicode="&#x22;" horiz-adv-x="620" d="M205 930l8 98q3 37 7.5 115t8 130.5t7.5 67.5q11 44 39 66.5t83 22.5q91 0 91 -82q0 -19 -21 -80q-12 -34 -56.5 -146t-76.5 -198q-9 -23 -20 -30t-33 -7q-37 0 -37 43zM506 930l8 98q3 37 7.5 115t8 130.5t7.5 67.5q11 44 39 66.5t83 22.5q91 0 91 -82q0 -19 -21 -80 q-12 -34 -56.5 -146t-76.5 -198q-9 -23 -20 -30t-33 -7q-37 0 -37 43z" />
<glyph unicode="#" horiz-adv-x="1150" d="M102 371q3 60 43 143q13 27 43 27h148q25 0 31 20l53 150q6 18 6 26q0 17 -20 17h-160q-27 0 -27 20q0 16 14.5 62t28.5 79q13 29 45 29h172q22 0 31 21l92 276q7 21 20.5 28t41.5 7q47 0 47 -25q0 -5 -4.5 -18t-4.5 -14l-84 -232q-6 -18 -6 -26q0 -17 23 -17h168 q22 0 31 21l92 274q4 12 7.5 18t17 12.5t36.5 6.5q45 0 45 -29l-10 -30l-78 -222q-6 -18 -6 -32q0 -19 20 -19h121q29 0 29 -22q0 -16 -15 -66.5t-26 -75.5q-10 -26 -35 -26h-149q-22 0 -31 -21l-51 -149q-2 -3 -3.5 -7.5t-2.5 -10t-2 -7.5q0 -18 20 -18h148q28 0 28 -25 q0 -19 -12.5 -62t-26.5 -75q-16 -31 -39 -31h-168q-21 0 -30 -20l-113 -314q-8 -28 -53 -28q-25 0 -36 6t-11 22q0 3 12 39l90 252q6 24 6 27q0 16 -20 16h-168q-22 0 -31 -20l-110 -316q-10 -26 -56 -26q-27 0 -35 7.5t-8 22.5q0 8 13 43l81 240q9 27 9 31q0 18 -21 18 h-131q-29 0 -29 23zM469 559q0 -18 20 -18h170q25 0 31 20l49 139q9 27 9 35q0 19 -25 19h-162q-22 0 -31 -21l-53 -147q-2 -4 -5 -16z" />
<glyph unicode="$" horiz-adv-x="1118" d="M47 233q0 55 35.5 87t85.5 32q83 0 94 -84q1 -10 4 -46.5t6 -49.5q12 -35 46.5 -59.5t72.5 -24.5q14 0 21.5 5.5t11.5 25.5l80 348q4 12 4 27q0 18 -14 26q-252 139 -252 350q0 167 121.5 275.5t312.5 130.5q10 1 13.5 5t6.5 17l33 142q10 47 59 47q48 0 48 -33 q0 -12 -9 -39l-24 -98q-4 -16 -4 -25q0 -18 20 -18q144 -6 215.5 -62t71.5 -143q0 -49 -32.5 -76.5t-74.5 -27.5q-52 0 -79 22t-29 60q0 62 -23 94q-11 15 -18 22.5t-22 14t-35 6.5q-19 0 -27 -27l-78 -348q-2 -8 -2 -21t10 -20q279 -160 279 -375q0 -87 -36.5 -158.5 t-99.5 -119t-142.5 -77t-172.5 -40.5q-13 -2 -20.5 -9t-11.5 -26l-27 -121q-6 -25 -18.5 -35t-38.5 -10q-48 0 -48 33q0 3 5 33l18 82q6 36 6 37q0 18 -22 18q-160 6 -240 76t-80 157zM500 1006q0 -112 65 -164q8 -4 17 -4t12 16l68 293q4 16 4 22q0 15 -17 15 q-50 0 -99.5 -52.5t-49.5 -125.5zM524 98q0 -14 21 -14q20 0 35 6q125 48 125 193q0 38 -18 81t-54 74q-9 6 -19 6t-14 -18l-72 -305q-4 -12 -4 -23z" />
<glyph unicode="%" horiz-adv-x="1671" d="M102 784q0 110 37 215.5t111 184.5q53 54 125 84t151 30q127 0 201 -75.5t74 -210.5q0 -110 -34.5 -219.5t-104.5 -188.5q-47 -56 -117.5 -86.5t-151.5 -30.5q-137 0 -214 78t-77 219zM295 713q0 -156 100 -156q39 0 68.5 24.5t56.5 77.5q42 88 67 208.5t25 211.5 q0 154 -90 154q-82 0 -129 -90q-45 -86 -71.5 -206t-26.5 -224zM410 25q0 13 20 43l789 1177q14 21 27 29t40 8q41 0 41 -29q0 -9 -14 -32l-797 -1192q-23 -33 -61 -33q-45 0 -45 29zM934 281q0 110 37 215.5t110 183.5q53 54 125.5 84.5t151.5 30.5q127 0 200.5 -76 t73.5 -211q0 -110 -34.5 -219.5t-104.5 -188.5q-99 -116 -268 -116q-137 0 -214 78t-77 219zM1126 209q0 -156 101 -156q39 0 68.5 25t56.5 78q42 88 67 208t25 211q0 154 -90 154q-82 0 -129 -90q-45 -86 -72 -206t-27 -224z" />
<glyph unicode="&#x26;" horiz-adv-x="1591" d="M33 369q0 310 383 411q24 6 24 21q0 10 -8 26q-41 98 -41 195q0 153 113.5 247.5t335.5 94.5q80 0 142 -12.5t99 -31.5t60.5 -45t32 -50.5t8.5 -50.5q0 -46 -29 -80.5t-80 -34.5q-62 0 -86 26t-29 86q-4 46 -34 68q-30 23 -80 23q-68 0 -115 -41.5t-47 -122.5 q0 -61 59 -213q43 -111 132 -265t174 -258q15 -20 24 -20q7 0 21 14q49 58 75.5 111.5t26.5 122.5q0 38 -18 61q-29 36 -29 82q0 39 26.5 68.5t83.5 29.5q51 0 81 -31.5t30 -90.5q0 -105 -59 -214t-150 -206q-16 -19 -16 -29q0 -12 10 -22q58 -58 94 -77.5t72 -19.5 q33 0 56.5 15.5t51.5 60.5q13 27 37 27q15 0 30 -9t15 -26q0 -22 -18 -51q-131 -191 -324 -191q-86 0 -139.5 19t-116.5 71q-2 1 -8.5 8t-13 11t-12.5 4q-11 0 -23 -10q-62 -46 -159 -71.5t-201 -25.5q-209 0 -335 104t-126 292zM330 434q0 -127 72.5 -224t189.5 -97 q119 0 178 30q21 8 21 23q0 6 -7 16q-46 60 -93 133.5t-73 118t-72 128.5t-57 104q-14 26 -30 26q-46 0 -87.5 -61t-41.5 -197z" />
<glyph unicode="'" horiz-adv-x="319" d="M205 930l8 98q3 37 7.5 115t8 130.5t7.5 67.5q11 44 39 66.5t83 22.5q91 0 91 -82q0 -19 -21 -80q-12 -34 -56.5 -146t-76.5 -198q-9 -23 -20 -30t-33 -7q-37 0 -37 43z" />
<glyph unicode="(" horiz-adv-x="651" d="M59 449q0 176 49.5 338t141 296.5t213 245.5t272.5 199q23 14 41 14q21 0 36 -19.5t15 -35.5q0 -18 -22 -37q-260 -206 -395.5 -453.5t-135.5 -572.5q0 -193 40 -364t110 -293q14 -23 14 -31q0 -19 -17.5 -38.5t-37.5 -19.5q-24 0 -41 17q-124 121 -203.5 328t-79.5 426z " />
<glyph unicode=")" horiz-adv-x="651" d="M-133 -266q0 18 22 37q260 206 395.5 453.5t135.5 572.5q0 193 -40 364t-110 293q-14 23 -14 31q0 19 17.5 38t37.5 19q25 0 41 -16q124 -121 203.5 -328t79.5 -426q0 -176 -49.5 -338t-141 -296.5t-213 -245.5t-272.5 -199q-25 -15 -41 -15q-21 0 -36 20t-15 36z" />
<glyph unicode="*" horiz-adv-x="714" d="M217 1004q0 30 16 52t46 23q13 0 41 -1t42 -1q28 0 82 4q13 0 13 11q0 6 -11 14q-37 19 -135 51q-30 8 -45.5 28t-15.5 42q0 31 25 59.5t57 28.5q13 0 25 -5t19.5 -11t17 -19.5t13 -20t12.5 -25t11 -22.5q8 -16 43 -65q8 -8 14 -8q11 0 11 14q0 42 -11 88q-3 11 -8 29 t-7.5 29.5t-2.5 21.5q0 65 82 65q28 0 56 -16t28 -49q0 -10 -2 -19.5t-9 -21t-10 -16.5t-14.5 -20t-13.5 -17q-23 -33 -37 -74q-4 -12 -4 -18q0 -11 8 -11q9 0 20 11q49 44 93 88q26 26 63 26q31 0 53.5 -26t22.5 -60t-23.5 -52.5t-60.5 -18.5q-7 0 -30 1t-34 1 q-29 0 -75 -9q-15 -4 -15 -12q0 -7 15 -14q66 -28 67 -29q10 -3 33.5 -9.5t37.5 -12t25 -13.5q23 -20 23 -43q0 -32 -24.5 -60t-57.5 -28q-17 0 -29.5 5.5t-24.5 21.5t-17.5 25.5t-18.5 35.5q-10 21 -47 74q-6 8 -12 8q-11 0 -11 -16q0 -22 15 -84q18 -77 18 -88 q0 -31 -23.5 -50.5t-58.5 -19.5q-33 0 -59.5 17.5t-26.5 48.5q0 17 8.5 36t23.5 42.5t21 35.5q33 66 33 80q0 8 -8 8t-12 -4q-28 -21 -101 -90q-30 -30 -61 -30q-32 0 -55 25t-23 59z" />
<glyph unicode="+" horiz-adv-x="1314" d="M184 492q0 6 4 26l23 88q6 29 33 29h374l91 393q5 37 34 37h117q25 0 25 -21q0 -7 -6 -28l-86 -381h370q25 0 25 -21q0 -8 -4 -28l-23 -90q-9 -25 -33 -25h-374l-92 -405q-6 -27 -33 -27h-115q-25 0 -25 20q0 12 5 27l90 385h-371q-29 0 -29 21z" />
<glyph unicode="," horiz-adv-x="499" d="M-168 -340q0 13 9.5 24.5t21.5 16.5q41 14 81 34.5t81 50.5t66.5 71.5t25.5 87.5q0 59 -76 121q-45 37 -45 90q0 62 47.5 103.5t114.5 41.5q83 0 128.5 -55.5t45.5 -139.5q0 -154 -109.5 -280t-277.5 -205q-33 -16 -70 -16q-22 0 -32.5 17.5t-10.5 37.5z" />
<glyph unicode="-" horiz-adv-x="569" d="M61 467q0 58 29 121q15 37 51 37h355q47 0 47 -43q0 -16 -8 -54t-17 -59q-11 -26 -22.5 -35.5t-34.5 -9.5h-357q-43 0 -43 43z" />
<glyph unicode="." horiz-adv-x="497" d="M10 115q0 88 49.5 137t130.5 49q54 0 97 -37t43 -100q0 -81 -46.5 -135t-127.5 -54q-66 0 -106 40.5t-40 99.5z" />
<glyph unicode="/" horiz-adv-x="843" d="M-90 -106q0 16 29 61l913 1489q14 24 29 33.5t39 9.5q35 0 54 -13t19 -32q0 -20 -18 -51l-930 -1508q-21 -35 -65 -35q-31 0 -50.5 12.5t-19.5 33.5z" />
<glyph unicode="0" d="M70 465q0 169 54.5 334.5t166.5 292.5q88 101 202 156t246 55q209 0 332 -127t123 -349q0 -179 -58 -356.5t-171 -306.5q-170 -191 -422 -191q-217 0 -345 131t-128 361zM367 356q0 -133 42 -206.5t126 -73.5q128 0 208 164q71 142 113.5 341.5t42.5 358.5 q0 262 -156 262q-127 0 -223 -178q-73 -139 -113 -319t-40 -349z" />
<glyph unicode="1" d="M197 37q0 26 12.5 45.5t38.5 19.5q4 0 22 -1t23 -1q71 0 100 37q28 37 56 160l122 534q33 150 33 181q0 19 -15 30t-40 11q-22 0 -57.5 -3t-38.5 -3q-35 0 -35 43q0 46 55 59q64 16 203.5 69.5t195.5 79.5q34 15 50 15q19 0 27.5 -8t8.5 -29q0 -2 -18 -76 q-38 -137 -74 -293l-141 -606q-18 -83 -18 -137q0 -34 22.5 -49t69.5 -15q4 0 22 1t27 1q37 0 37 -36q0 -68 -58 -68q-7 0 -55 3t-115.5 6t-121.5 3q-51 0 -122 -3t-122.5 -6t-57.5 -3q-18 0 -27 11.5t-9 27.5z" />
<glyph unicode="2" d="M-18 41q0 38 49 65q55 33 93 57t95 61.5t98 69t93 73.5t90 81.5t79 87t68.5 96.5t51 102.5t35 112.5t11.5 120q0 88 -52 139t-124 51q-94 0 -155 -47q-55 -43 -86 -117q-18 -45 -66 -45q-30 0 -43.5 16.5t-13.5 41.5q0 33 24 73q17 28 40.5 55.5t62 58.5t83 54t107 38 t131.5 15q116 0 198.5 -24t128 -69.5t65.5 -101t20 -126.5q0 -85 -24 -158.5t-74 -139.5t-105.5 -119t-138.5 -118q-123 -97 -289 -192q-18 -10 -18 -19q0 -5 0.5 -7t5.5 -4.5t16 -2.5q94 -4 226 -4q60 0 93.5 1t66.5 6t49 12t31.5 23t24 35.5t17.5 51.5q6 20 18 28.5 t40 8.5q22 0 33.5 -5.5t11.5 -25.5q0 -6 -15 -63q-55 -213 -63 -250q-8 -41 -74 -41q-2 0 -56.5 2.5t-149.5 5t-195 2.5q-118 0 -228 -2t-175.5 -4t-76.5 -2q-21 0 -27.5 11t-6.5 32z" />
<glyph unicode="3" d="M86 31q0 33 20.5 58.5t53.5 25.5q21 0 78.5 -24.5t103.5 -24.5q184 0 285.5 93t101.5 281q0 94 -46 149.5t-138 55.5t-150 -20q-39 -13 -49 -13q-19 0 -29 17t-10 41q0 54 76 61q112 9 182 41q172 83 172 266q0 63 -40 98t-97 35q-130 0 -211 -124q-9 -13 -14 -19.5 t-19 -14t-32 -7.5q-26 0 -41 13t-15 34q0 39 33 80q51 71 164.5 119t261.5 48q168 0 245 -65t77 -164q0 -66 -26.5 -121t-73 -93t-101.5 -63t-121 -40q-24 -4 -29 -19q0 -11 29 -14q161 -13 243.5 -83t82.5 -179q0 -111 -48.5 -200.5t-127.5 -146t-186 -94.5t-217.5 -53.5 t-229.5 -15.5q-158 0 -158 82z" />
<glyph unicode="4" d="M51 346q0 78 45 123q150 145 410 403t393 388q27 27 56 40t73 13q56 0 71 -9.5t15 -33.5q0 -15 -9 -53t-20.5 -79.5t-13.5 -50.5l-123 -534q-4 -20 -4 -31q0 -16 29 -16h129q20 0 27.5 -5.5t7.5 -25.5q0 -40 -29 -125q-10 -25 -21 -32t-32 -7h-133q-17 0 -24 -7t-13 -32 l-64 -274q-6 -32 -32.5 -41.5t-114.5 -9.5q-59 0 -88 6.5t-35 14.5t-6 24q0 9 6 33l51 219q8 32 8 43q0 13 -7 17.5t-25 4.5h-490q-37 0 -37 37zM297 516q0 -16 22 -16h299q29 0 38 7t14 28q63 277 104 423q6 18 6 31q0 8 -8 8q-7 0 -27 -20q-75 -77 -436 -438 q-12 -12 -12 -23z" />
<glyph unicode="5" d="M88 25q0 43 22.5 71.5t61.5 28.5q13 0 25 -4t26.5 -12t22.5 -11q50 -20 94 -20q186 0 286.5 78t100.5 227q0 97 -94.5 164t-288.5 92q-27 3 -41 15.5t-14 43.5q0 20 18 82q18 60 71.5 225t72.5 228q5 15 8 21t10.5 12t19.5 6l75 -1q75 -1 128 -1q62 0 123.5 1t106.5 2 t80.5 2t56 2t22.5 1q35 0 35 -29q0 -14 -21.5 -77.5t-35.5 -90.5q-10 -18 -21 -23t-32 -5q-5 0 -61 0.5t-132.5 1t-130.5 0.5q-115 0 -162 -2q-17 -1 -25 -9.5t-16 -29.5q-35 -98 -35 -123q0 -17 37 -23q152 -16 260.5 -52.5t170.5 -91t90 -119t28 -144.5 q0 -109 -45.5 -197.5t-120.5 -146t-176 -96.5t-207 -55.5t-219 -16.5q-174 0 -174 76z" />
<glyph unicode="6" d="M135 424q0 133 30 261t93.5 244.5t153.5 204t220 139.5t283 52q119 0 190 -34t71 -103q0 -37 -30 -64.5t-65 -27.5q-68 0 -86 51q-13 40 -50 60t-89 20q-247 0 -371 -414q-24 -75 -24 -90q0 -10 10 -10q7 0 18 16q98 117 275 117q174 0 267 -91.5t93 -238.5 q0 -154 -63.5 -276t-190.5 -194.5t-299 -72.5q-204 0 -320 121.5t-116 329.5zM418 305q0 -115 40 -177t120 -62q51 0 92 21t67.5 58t45 80.5t27.5 97.5t13 100t4 95q0 104 -42 158.5t-105 54.5q-30 0 -51 -4t-51 -17.5t-57.5 -48t-51.5 -88.5q-51 -113 -51 -268z" />
<glyph unicode="7" d="M209 895q0 7 17 60.5t42.5 136.5t40.5 145q4 22 18.5 30.5t43.5 8.5q6 0 62 -2t153.5 -4t206.5 -2q51 0 218.5 2t174.5 2q21 0 30 -6.5t9 -24.5q-3 -22 -23 -53q-221 -358 -381 -636t-293 -558q-26 -55 -90 -55q-32 0 -50.5 18.5t-18.5 46.5q0 26 26 78q34 65 70.5 130.5 t85.5 144.5t78 126.5t93 142.5t82.5 123t94.5 138.5t84 122.5q4 6 8 26q0 15 -24 17q-72 6 -250 6q-258 0 -303 -23q-33 -19 -52.5 -47.5t-54.5 -109.5q-7 -15 -17.5 -22t-35.5 -7q-26 0 -35.5 11t-9.5 34z" />
<glyph unicode="8" d="M90 279q0 127 78 212.5t211 118.5q29 7 29 19q0 4 -1.5 6.5t-3 4t-5.5 4t-5 3.5q-143 108 -143 260q0 99 40.5 176t110.5 123.5t159 70t192 23.5q180 0 281.5 -77.5t101.5 -192.5q0 -112 -69.5 -193t-184.5 -114q-21 -6 -21 -18q0 -9 17 -17q102 -60 151.5 -136 t50.5 -175q0 -125 -70.5 -217.5t-191.5 -139.5t-276 -47q-214 0 -332.5 86t-118.5 220zM317 279q0 -92 63 -150.5t167 -58.5q97 0 158 58.5t61 158.5q0 73 -59.5 146t-184.5 134q-8 4 -26 4q-9 0 -33 -12q-146 -105 -146 -280zM551 1008q0 -63 39.5 -127.5t126.5 -102.5 q24 -12 35 -12q14 0 34 12q58 41 93.5 107t35.5 141q0 84 -49.5 133t-128.5 49q-80 0 -133 -54.5t-53 -145.5z" />
<glyph unicode="9" d="M68 121q0 47 29.5 73.5t70.5 26.5q65 0 90 -61q13 -41 52 -64.5t89 -23.5q61 0 114.5 26t90.5 64t72.5 98t57 108.5t46.5 116.5q29 84 29 101q0 6 -8 6q-6 0 -23 -17q-97 -116 -278 -116q-172 0 -261 93.5t-89 242.5q0 233 154 381.5t415 148.5q204 0 314 -112.5 t110 -319.5q0 -112 -19 -219.5t-58 -212.5t-104 -192t-151 -154t-206.5 -104.5t-262.5 -37.5q-125 0 -199.5 38t-74.5 110zM446 780q1 -105 40 -156t102 -51q26 0 40 1t40 9t45 23t44 45t48 74q59 115 59 285q0 116 -35 169.5t-116 53.5q-51 0 -93 -21t-69.5 -58t-47.5 -81 t-31.5 -98t-17.5 -100t-8 -95z" />
<glyph unicode=":" horiz-adv-x="538" d="M51 115q0 88 49.5 137t130.5 49q54 0 97 -37t43 -100q0 -81 -46.5 -135t-127.5 -54q-66 0 -106 40.5t-40 99.5zM197 737q0 88 49.5 137.5t130.5 49.5q54 0 96.5 -37.5t42.5 -100.5q0 -81 -46.5 -134.5t-127.5 -53.5q-66 0 -105.5 40t-39.5 99z" />
<glyph unicode=";" horiz-adv-x="538" d="M-121 -340q0 13 9.5 24.5t21.5 16.5q41 14 81 34.5t81 50.5t66.5 71.5t25.5 87.5q0 59 -76 121q-45 37 -45 90q0 62 47.5 103.5t114.5 41.5q83 0 128.5 -55.5t45.5 -139.5q0 -154 -109.5 -280t-277.5 -205q-33 -16 -70 -16q-22 0 -32.5 17.5t-10.5 37.5zM197 737 q0 88 49.5 137.5t130.5 49.5q54 0 96.5 -37.5t42.5 -100.5q0 -81 -46.5 -134.5t-127.5 -53.5q-66 0 -105.5 40t-39.5 99z" />
<glyph unicode="&#x3c;" horiz-adv-x="1460" d="M258 516q0 11 6 35l27 111q7 30 33 40l970 431q12 6 23 6q16 0 16 -17q0 -14 -2 -28l-33 -138q-5 -22 -30 -34l-787 -334l631 -318q21 -12 21 -30l-7 -35l-28 -117q-6 -27 -25 -27q-9 0 -16 5l-778 419q-21 11 -21 31z" />
<glyph unicode="=" horiz-adv-x="1460" d="M150 344q0 5 4 25l22 98q6 31 39 31h1022q25 0 25 -25q0 -3 -7 -35l-20 -92q-5 -16 -12.5 -22.5t-24.5 -6.5h-1024q-24 0 -24 27zM246 760q1 1 4 18l24 105q6 30 37 30h1020q29 0 29 -24q0 -14 -6 -35l-23 -92q-3 -16 -10.5 -22.5t-24.5 -6.5h-1024q-26 0 -26 27z" />
<glyph unicode="&#x3e;" horiz-adv-x="1460" d="M188 82q0 8 2 18l35 146q2 20 29 35l788 333l-630 318q-21 12 -21 29q0 12 6 36l25 111q4 31 27 31q11 0 24 -9l770 -415q19 -11 19 -27q0 -13 -5 -33l-28 -120q-3 -22 -29 -35l-973 -432q-14 -7 -22 -7q-17 0 -17 21z" />
<glyph unicode="?" horiz-adv-x="989" d="M274 1087q0 77 41 135.5t108 91t142 48.5t154 16q174 0 268 -69.5t94 -178.5q0 -71 -23 -129.5t-70 -105.5t-99 -81t-127 -73q-148 -76 -189 -112.5t-41 -91.5q0 -9 1.5 -28.5t1.5 -27.5q0 -23 -16 -36t-40 -13q-37 0 -51 24t-14 79q0 72 26 130.5t63.5 97.5t102.5 89 q178 134 178 307q0 58 -34 91.5t-82 33.5q-124 0 -146 -131q-2 -8 -3.5 -22.5t-2.5 -31t-2 -22.5q-12 -94 -129 -94q-51 0 -81 29.5t-30 74.5zM276 115q0 87 50 136.5t131 49.5q54 0 96.5 -37t42.5 -100q0 -81 -46.5 -135t-127.5 -54q-66 0 -106 40.5t-40 99.5z" />
<glyph unicode="@" horiz-adv-x="1699" d="M143 356q0 136 39.5 267.5t116.5 244t181 198t241.5 134.5t290.5 49q285 0 439.5 -135t154.5 -391q0 -79 -23 -165.5t-68 -167.5t-104.5 -146t-139 -104.5t-165.5 -39.5q-59 0 -86 29.5t-27 75.5q0 39 21 104q12 42 12 45q0 11 -12 11q-10 0 -17 -13q-83 -144 -168 -200 t-180 -56q-87 0 -133.5 55.5t-46.5 133.5q0 186 154 385q174 221 403 221q28 0 69 -10.5t54 -10.5q26 0 41 37q16 31 61 31q74 0 74 -41q0 -13 -8 -41q-72 -217 -113 -362q-51 -183 -51 -222q0 -43 39 -43q57 0 109 53.5t85.5 130.5t53.5 157.5t20 138.5q0 220 -116.5 334 t-333.5 114q-153 0 -288 -66t-227.5 -175t-146 -251.5t-53.5 -293.5q0 -255 156.5 -406t414.5 -151q287 0 457 153q33 29 55 29q25 0 37 -12.5t12 -30.5q0 -22 -18 -43q-79 -86 -232.5 -141t-332.5 -56q-313 0 -507 176.5t-194 466.5zM662 328q0 -49 14.5 -74t50.5 -25 q134 0 291 277q36 62 54 122.5t18 100.5q0 59 -80 59q-64 -1 -125.5 -41.5t-104.5 -99.5q-45 -61 -81.5 -160t-36.5 -159z" />
<glyph unicode="A" horiz-adv-x="1501" d="M-92 39q0 24 12.5 43.5t36.5 19.5q3 0 17 -1t22 -1q42 0 78 41q51 51 119 158q69 109 201 315.5t219.5 346.5t136.5 225q34 61 45 92q14 37 51 55q32 15 81 29t83 14q39 0 45 -43q1 -5 2 -16.5t3.5 -35.5t6.5 -58q27 -200 141 -924q16 -108 43 -160q20 -39 84 -39 q6 0 17 1t16 1q16 0 26.5 -12t10.5 -33q0 -59 -55 -59q-4 0 -131.5 6t-178.5 6q-50 0 -173 -6t-124 -6q-38 0 -38 41q0 25 12.5 44t38.5 19q6 0 28 -1t25 -1q72 0 93.5 19.5t21.5 60.5q0 35 -11 119l-16 135q-4 38 -17 51t-44 13h-314q-25 0 -37.5 -10t-31.5 -39l-95 -148 q-1 -1 -16 -25t-19.5 -32.5t-14.5 -28.5t-13.5 -36t-3.5 -32q0 -24 22.5 -35.5t77.5 -11.5q9 0 25 1l16 1q37 0 37 -41q0 -63 -49 -63q-2 0 -125.5 6t-173.5 6q-53 0 -113 -6t-63 -6q-37 0 -37 41zM557 625q0 -15 12 -20t52 -5h178q63 0 63 29q0 21 -4 53l-39 322 q-3 20 -14 20q-15 0 -31 -27l-192 -323q-25 -38 -25 -49z" />
<glyph unicode="B" horiz-adv-x="1314" d="M-45 41q0 24 14 42.5t39 18.5q2 0 18 -1t21 -1q40 0 58 8t34 29q32 41 64 182l164 713q24 104 24 156q0 38 -21 51.5t-65 13.5q-7 0 -22 -1t-17 -1q-37 0 -37 37q0 25 16.5 47.5t49.5 22.5q7 0 50 -4t106 -7.5t118 -3.5q27 0 160 5.5t176 5.5q121 0 206 -20.5t131 -58 t65.5 -82.5t19.5 -103q0 -81 -27 -142.5t-78.5 -103t-111 -67.5t-139.5 -46q-21 -5 -21 -14t15 -12q144 -18 222.5 -93t78.5 -182q0 -95 -34.5 -170t-93 -123.5t-139.5 -80t-168 -45t-186 -13.5q-32 0 -181 6t-194 6q-55 0 -119.5 -3t-109 -6t-51.5 -3q-35 0 -35 43z M475 178q0 -67 170 -67q149 0 223 88t74 243q0 209 -274 209q-49 0 -74 -4q-28 -3 -35 -43l-65 -282q-19 -82 -19 -144zM600 782q0 -21 18 -24q8 -2 39 -2q174 0 267.5 75t93.5 244q0 88 -52.5 133t-146.5 45q-57 0 -82 -4q-31 -4 -41 -49l-88 -377q-8 -40 -8 -41z" />
<glyph unicode="C" horiz-adv-x="1415" d="M115 541q0 80 13.5 160t43.5 163t75 157.5t112.5 140.5t151 113.5t195 75t240.5 27.5q228 0 391 -55q49 -16 49 -57q0 -3 -2.5 -35.5t-5 -94t-2.5 -135.5q0 -22 -12.5 -34.5t-34.5 -12.5q-35 0 -46 13t-11 37q-3 109 -45 172q-27 40 -95.5 67t-170.5 27q-104 0 -193 -44 t-150 -116.5t-104.5 -166.5t-63.5 -193.5t-20 -198.5q0 -224 101 -345.5t260 -121.5q71 0 152 27.5t130 72.5q10 10 19.5 20t19 22.5t15.5 21t16.5 25.5t15 23.5t17 28t16.5 27.5q13 29 51 29q16 0 30.5 -8t14.5 -19q0 -21 -25.5 -110t-52.5 -123q-33 -44 -106 -74 q-82 -36 -169 -54t-220 -18q-157 0 -275.5 45t-188 125t-103 179t-33.5 217z" />
<glyph unicode="D" horiz-adv-x="1533" d="M-61 39q0 26 13 43.5t34 17.5q2 0 18 -1t21 -1q38 0 57.5 9t34.5 32q26 40 59 185l166 700q25 112 25 164q0 28 -16 43t-34.5 18.5t-46.5 3.5q-4 0 -17.5 -1t-16.5 -1q-35 0 -35 41q0 27 13.5 45.5t39.5 18.5q5 0 47 -2t104 -4t117 -2q42 0 126.5 3t121.5 3 q360 0 524 -97q106 -62 165 -170.5t59 -246.5q0 -215 -62 -377t-178.5 -263.5t-276.5 -151.5t-362 -50q-68 0 -250 3t-209 3q-56 0 -102 -2t-71.5 -4t-29.5 -2q-38 0 -38 43zM459 209q0 -50 48.5 -75t176.5 -25q225 0 369.5 194.5t144.5 513.5q0 219 -76 313 q-96 115 -286 115q-100 0 -129.5 -20t-49.5 -105l-184 -792q-14 -62 -14 -119z" />
<glyph unicode="E" horiz-adv-x="1236" d="M-61 37q0 25 12 44t37 19q4 0 20 -1t21 -1q66 0 90 43q30 59 59 183l170 729q19 87 19 129q0 39 -19.5 55t-68.5 16q-5 0 -21 -1t-18 -1q-33 0 -33 35q0 26 11.5 48t35.5 22q7 0 94 -2.5t194 -5t163 -2.5q177 0 320.5 4t154.5 4q43 0 43 -39q0 -8 -3 -34t-10 -89.5 t-14 -140.5q-3 -39 -51 -39q-49 0 -49 39q0 107 -29 151q-22 27 -56.5 34t-121.5 7q-91 0 -168 -6q-19 0 -30.5 -12t-18.5 -41l-80 -340q-6 -21 -6 -47q0 -43 65 -43q95 0 142 18q29 11 51.5 43t46.5 103q11 32 55 32q43 0 43 -37q0 -15 -16 -68t-42 -149t-44 -192 q-5 -37 -49 -37q-47 0 -47 35q0 8 1 23t1 20q0 34 -5 55t-9.5 26.5t-14.5 12.5q-26 18 -146 18q-42 0 -58.5 -10t-22.5 -39l-74 -327q-12 -54 -12 -97q0 -41 40.5 -55t163.5 -14q188 0 252 37q75 43 148 182q18 31 49 31q51 0 51 -39q0 -22 -33 -113t-59 -145 q-34 -70 -88 -70q-90 0 -290 6t-339 6q-55 0 -142 -3.5t-154.5 -7t-74.5 -3.5q-16 0 -26 10.5t-10 30.5z" />
<glyph unicode="F" horiz-adv-x="1212" d="M-61 37q0 25 12.5 44t34.5 19q5 0 20.5 -1t20.5 -1q36 0 53 7.5t33 27.5q29 36 65 191l170 729q19 87 19 129q0 39 -19.5 55t-68.5 16q-5 0 -21 -1t-18 -1q-33 0 -33 35q0 26 11.5 48t35.5 22q7 0 94 -2.5t194 -5t163 -2.5q177 0 339 4t173 4q43 0 43 -39q0 -8 -3 -36 t-10 -94.5t-14 -142.5q-3 -38 -51 -38q-49 0 -49 38q0 112 -29 156q-22 27 -62 36t-116 9q-128 0 -205 -6q-19 0 -30.5 -12t-18.5 -41l-84 -361q-6 -21 -6 -47q0 -43 65 -43q92 0 141 19q28 11 50.5 43.5t48.5 101.5q11 33 55 33q43 0 43 -37q0 -15 -16 -69.5t-42 -152.5 t-44 -194q-5 -37 -49 -37q-48 0 -48 35q0 9 1 23t1 20q0 80 -28 100q-27 19 -146 19q-42 0 -59 -10t-23 -39l-61 -271q-22 -95 -22 -145q0 -40 31 -57t71 -17q5 0 22.5 1t22.5 1q33 0 33 -34q0 -30 -14 -50t-40 -20q-6 0 -56 3t-120 6t-123 3q-54 0 -123 -3t-117.5 -6 t-53.5 -3q-43 0 -43 41z" />
<glyph unicode="G" horiz-adv-x="1544" d="M115 543q0 177 62.5 331t173.5 265t273 175t353 64q116 0 199 -9.5t115.5 -18.5t82.5 -27q39 -13 39 -57q0 -7 -1.5 -32.5t-3.5 -85.5t-3 -147q0 -47 -62 -47q-27 0 -38 11t-13 34q-10 122 -49 181q-30 46 -89.5 69t-174.5 23q-117 0 -212 -44.5t-156.5 -117.5 t-102.5 -172t-58.5 -202.5t-17.5 -213.5q0 -204 95 -317t274 -113q92 0 134 18.5t66 57.5q24 43 43 137q19 93 19 123q0 80 -105 80q-8 0 -27 -1t-22 -1q-35 0 -35 45q0 26 13 48t37 22q5 0 65 -2.5t139.5 -4.5t133.5 -2q68 0 147 6.5t80 6.5q43 0 43 -52q0 -27 -15 -45 t-36 -18q-6 0 -18 1t-19 1q-43 0 -68 -35q-25 -42 -49 -164q-14 -72 -14 -125q0 -20 4 -42t4 -37q0 -19 -14 -35t-33 -19q-11 -2 -42.5 -6t-59.5 -8.5t-48 -9.5q-10 -3 -46.5 -12.5t-51.5 -13.5t-49.5 -11t-59 -10t-60 -6t-71.5 -3q-170 0 -299.5 42.5t-210 119t-121 179 t-40.5 227.5z" />
<glyph unicode="H" horiz-adv-x="1574" d="M-61 37q0 25 12.5 44t34.5 19q5 0 20.5 -1t20.5 -1q36 0 53 7.5t33 27.5q29 36 65 191l164 706q25 108 25 156q0 67 -82 67q-5 0 -22.5 -1t-22.5 -1q-33 0 -33 35q0 30 13.5 50t39.5 20q6 0 50.5 -3t109 -6.5t117.5 -3.5q54 0 123 3.5t117.5 6.5t53.5 3q43 0 43 -41 q0 -25 -12.5 -44.5t-34.5 -19.5q-5 0 -20.5 1t-20.5 1q-37 0 -53.5 -7t-32.5 -27q-28 -35 -65 -193l-47 -203q-6 -36 -6 -37q0 -19 21.5 -23.5t96.5 -4.5h320q80 0 94 10q16 11 25 49l49 213q24 104 24 156q0 67 -82 67q-5 0 -22.5 -1t-22.5 -1q-32 0 -32 35q0 30 13.5 50 t39.5 20q6 0 50.5 -3t108.5 -6.5t117 -3.5q54 0 123.5 3.5t118 6.5t53.5 3q43 0 43 -41q0 -25 -12.5 -44.5t-34.5 -19.5q-5 0 -20.5 1t-20.5 1q-37 0 -53.5 -7t-32.5 -27q-28 -35 -65 -193l-162 -698q-27 -117 -27 -162q0 -68 82 -68q5 0 22.5 1t22.5 1q33 0 33 -34 q0 -30 -13.5 -50t-39.5 -20q-6 0 -50.5 3t-109 6t-117.5 3q-54 0 -123.5 -3t-118 -6t-53.5 -3q-43 0 -43 41q0 25 12.5 44t34.5 19q5 0 20.5 -1t20.5 -1q36 0 53 7.5t33 27.5q30 37 66 191l61 264q5 20 5 30q0 16 -20 22.5t-79 6.5h-315q-94 0 -117 -10q-9 -4 -13.5 -10.5 t-6 -12t-4.5 -18.5l-62 -268q-27 -117 -27 -162q0 -68 82 -68q5 0 22.5 1t22.5 1q33 0 33 -34q0 -30 -13.5 -50t-39.5 -20q-6 0 -50.5 3t-109 6t-117.5 3q-54 0 -123 -3t-117.5 -6t-53.5 -3q-43 0 -43 41z" />
<glyph unicode="I" horiz-adv-x="729" d="M-61 37q0 25 12.5 44t34.5 19q5 0 20.5 -1t20.5 -1q36 0 53 7.5t33 27.5q29 36 65 191l164 706q25 108 25 156q0 67 -82 67q-5 0 -22.5 -1t-22.5 -1q-33 0 -33 35q0 30 13.5 50t39.5 20q6 0 50.5 -3t109 -6.5t117.5 -3.5q54 0 123 3.5t117.5 6.5t53.5 3q43 0 43 -41 q0 -25 -12.5 -44.5t-34.5 -19.5q-5 0 -20.5 1t-20.5 1q-37 0 -53.5 -7t-32.5 -27q-28 -35 -65 -193l-162 -698q-27 -117 -27 -162q0 -68 82 -68q5 0 22.5 1t22.5 1q33 0 33 -34q0 -30 -13.5 -50t-39.5 -20q-6 0 -50.5 3t-109 6t-117.5 3q-54 0 -123 -3t-117.5 -6t-53.5 -3 q-43 0 -43 41z" />
<glyph unicode="J" horiz-adv-x="743" d="M-297 -164q0 47 27 79t77 32q40 0 76 -45q27 -35 68 -35q109 0 164 137q58 144 239 1022q21 105 21 160q0 67 -94 67q-5 0 -27.5 -1t-26.5 -1q-14 0 -23 10.5t-9 28.5q0 66 57 66q7 0 58 -3t122 -6.5t127 -3.5q75 0 181 7l106 6q45 0 45 -39q0 -24 -11.5 -45t-37.5 -21 q-6 0 -21 1t-18 1q-28 0 -44.5 -5t-35.5 -21q-32 -25 -66 -178q-34 -146 -78.5 -371t-78.5 -371q-26 -113 -79.5 -209.5t-118.5 -162t-140 -112t-144.5 -68t-130.5 -21.5q-184 0 -184 102z" />
<glyph unicode="K" horiz-adv-x="1564" d="M-61 37q0 25 12.5 44t34.5 19q5 0 20.5 -1t20.5 -1q36 0 53 7.5t33 27.5q29 36 65 191l164 706q25 108 25 156q0 67 -82 67q-5 0 -22.5 -1t-22.5 -1q-33 0 -33 35q0 30 13.5 50t39.5 20q6 0 50.5 -3t109 -6.5t117.5 -3.5q54 0 123 3.5t117.5 6.5t53.5 3q43 0 43 -41 q0 -25 -12.5 -44.5t-34.5 -19.5q-5 0 -20.5 1t-20.5 1q-37 0 -53.5 -7t-32.5 -27q-28 -35 -65 -193l-162 -698q-27 -117 -27 -162q0 -68 82 -68q5 0 22.5 1t22.5 1q33 0 33 -34q0 -30 -13.5 -50t-39.5 -20q-6 0 -50.5 3t-109 6t-117.5 3q-54 0 -123 -3t-117.5 -6t-53.5 -3 q-43 0 -43 41zM590 678q0 45 59 63q39 12 117 70q90 71 258 248q74 77 97.5 107t23.5 48q0 37 -53 37q-8 0 -24 -1t-21 -1q-13 0 -22 10.5t-9 28.5q0 27 13.5 48.5t39.5 21.5q6 0 51 -4t106.5 -8.5t108.5 -4.5q49 0 128 8.5t85 8.5q43 0 43 -41q0 -29 -14 -48.5t-41 -19.5 q-5 0 -20 1t-21 1q-60 -3 -104 -30q-36 -23 -53.5 -34.5t-61.5 -47.5t-98 -88q-41 -38 -83.5 -79.5t-92.5 -91.5t-78 -77q-29 -26 -29 -49q0 -20 18 -58q90 -170 190 -313t179 -229q42 -45 92 -45q8 0 22 1t19 1q37 0 37 -41q0 -22 -13 -42t-38 -26q-53 -12 -178 -12 q-105 0 -161.5 18.5t-92.5 52.5q-41 40 -71 82.5t-73 116.5q-35 61 -86 156.5t-57 105.5q-51 92 -68 109q-24 24 -24 47z" />
<glyph unicode="L" horiz-adv-x="1232" d="M-61 37q0 25 12 44t37 19q4 0 20 -1t21 -1q66 0 90 43q30 59 59 183l164 706q25 108 25 156q0 67 -82 67q-5 0 -22.5 -1t-22.5 -1q-33 0 -33 35q0 30 13.5 50t39.5 20q6 0 50.5 -3t109 -6.5t117.5 -3.5q54 0 124.5 3.5t120 6.5t54.5 3q43 0 43 -41q0 -25 -13 -44.5 t-35 -19.5q-5 0 -20 1t-20 1q-37 0 -56.5 -7.5t-34.5 -26.5q-28 -35 -65 -193l-172 -741q-12 -54 -12 -97q0 -41 40.5 -55t163.5 -14q179 0 250 41q41 24 74.5 70.5t71.5 117.5q18 31 49 31q55 0 55 -39q0 -23 -33.5 -121.5t-58.5 -150.5q-34 -70 -88 -70q-90 0 -290 6 t-339 6q-55 0 -142 -3.5t-154.5 -7t-74.5 -3.5q-16 0 -26 10.5t-10 30.5z" />
<glyph unicode="M" horiz-adv-x="1845" d="M-84 43q0 24 13.5 42.5t39.5 18.5q4 0 17.5 -1t17.5 -1q61 0 94 39q30 34 70 176q203 691 219 770q16 86 16 107q0 59 -77 59q-7 0 -29.5 -1t-28.5 -1q-32 0 -32 41q0 66 55 66q7 0 49.5 -4t105 -7.5t117.5 -3.5q39 0 112 6.5t77 6.5q30 0 34 -35q9 -127 33 -303 q17 -128 31.5 -229t26.5 -181t16 -112q3 -19 14 -19t25 23q43 72 148 245t190 316q20 34 139 250q7 13 12.5 20.5t21 16t36.5 8.5q6 0 82.5 -6.5t117.5 -6.5q58 0 109 3.5t80.5 7.5t36.5 4q43 0 43 -43q0 -25 -12.5 -44.5t-37.5 -19.5q-4 0 -19.5 1t-20.5 1q-17 0 -42.5 -7 t-41.5 -19q-30 -23 -58 -146q-13 -61 -127 -751q-18 -111 -18 -162q0 -66 92 -66q4 0 21 1t26 1q35 0 35 -41q0 -29 -16 -47t-48 -18q-7 0 -63 3.5t-132 7t-132 3.5t-121 -3.5t-108.5 -7t-47.5 -3.5q-41 0 -41 39q0 26 14.5 46.5t41.5 20.5q3 0 20 -1t21 -1q79 0 110 41 q19 27 55 187q8 36 22 115.5t43 247t60 339.5q1 7 2.5 14t3 10.5t1.5 4.5q0 10 -13 10q-6 0 -18 -18q-99 -158 -496 -807q-17 -27 -58.5 -96.5t-66.5 -108.5q-23 -39 -63 -39q-26 0 -38 10t-13 35q-1 7 -23 182q-25 199 -66 482t-49 344q-3 22 -12 22q-17 0 -20 -18 q-173 -655 -193 -740q-22 -93 -22 -149q0 -36 23 -52t71 -16q3 0 22 1t29 1q35 0 35 -43q0 -30 -18.5 -46.5t-47.5 -16.5q-4 0 -41.5 3t-96 6t-112.5 3q-47 0 -89 -3t-67 -6t-30 -3q-17 0 -29 11.5t-12 33.5z" />
<glyph unicode="N" horiz-adv-x="1568" d="M-86 35q0 26 14.5 46.5t46.5 20.5q4 0 17 -1t18 -1q64 0 99 41q32 46 63 174q137 552 174 717q23 104 23 146q0 34 -19 53q-25 22 -84 22q-5 0 -21 -1t-20 -1q-35 0 -35 33q0 29 13 49.5t41 20.5q7 0 101.5 -5.5t117.5 -5.5q26 0 95.5 5.5t80.5 5.5q8 0 14 -2.5t11.5 -9 t8.5 -10t8.5 -13.5t6.5 -12q89 -161 268 -457q76 -127 220 -346q15 -23 24 -23q6 0 11.5 5.5t7.5 11.5q7 31 21.5 93t23.5 109q7 35 29 143t36 181q21 123 21 168q0 29 -24.5 45t-61.5 16q-6 0 -31 -1t-29 -1q-20 0 -30.5 9.5t-10.5 25.5q0 29 15.5 49.5t44.5 20.5 q3 0 36.5 -3t92 -6.5t121.5 -3.5q41 0 89.5 3.5t82 6.5t38.5 3q50 0 50 -39q0 -25 -13.5 -45.5t-40.5 -20.5q-5 0 -24 1t-25 1q-62 0 -94 -32q-38 -38 -76 -197q-85 -350 -221 -1001q-5 -22 -26 -36t-50 -14q-47 0 -63 33q-46 98 -99 187q-76 132 -156 262t-190.5 305.5 t-156.5 249.5q-8 10 -19 10q-15 0 -22 -27q-18 -72 -40.5 -173.5t-31.5 -141.5q-43 -190 -78 -363q-18 -95 -18 -135q0 -32 10 -45q12 -35 96 -35q2 0 20 1t25 1q35 0 35 -30q0 -74 -59 -74q-7 0 -37.5 2.5t-80.5 5t-105 2.5q-56 0 -110.5 -2.5t-88.5 -5t-39 -2.5 q-41 0 -41 37z" />
<glyph unicode="O" horiz-adv-x="1503" d="M113 539q0 148 44.5 298.5t125.5 254.5q109 143 253.5 214.5t356.5 71.5q269 0 418 -140.5t149 -399.5q0 -392 -192 -625q-198 -240 -555 -240q-279 0 -439.5 147t-160.5 419zM430 469q0 -180 68 -284.5t200 -104.5q206 0 312 205q67 133 100 296.5t33 321.5 q0 175 -61.5 271t-184.5 96q-114 0 -199.5 -63.5t-148.5 -196.5q-119 -251 -119 -541z" />
<glyph unicode="P" horiz-adv-x="1284" d="M-61 31q0 69 51 69q2 0 18 -1t21 -1q39 0 58.5 11.5t33.5 33.5q23 41 57 179l164 704q25 116 25 162q0 65 -82 65q-5 0 -23 -1t-20 -1q-14 0 -24.5 8.5t-10.5 22.5q0 29 11.5 51.5t39.5 22.5q7 0 55 -3t115.5 -6.5t122.5 -3.5q27 0 163 5.5t179 5.5q221 0 322.5 -86 t101.5 -228q0 -95 -34.5 -173.5t-93.5 -132t-140 -90.5t-172.5 -54t-192.5 -17q-22 0 -64.5 2.5t-48.5 2.5q-39 0 -49 -48l-51 -208q-25 -113 -25 -154q0 -37 23 -52.5t74 -15.5q3 0 28 1t31 1q39 0 39 -39q0 -65 -68 -65q-9 0 -133 5t-190 5q-55 0 -118 -3t-104.5 -6 t-45.5 -3q-17 0 -30 9t-13 26zM569 719q0 -20 19 -31q15 -6 53 -6q167 0 260.5 87.5t93.5 256.5q0 99 -53 161t-156 62q-49 0 -73 -8q-28 -9 -39 -59l-96 -416q-9 -41 -9 -47z" />
<glyph unicode="Q" horiz-adv-x="1503" d="M113 539q0 148 44.5 298.5t125.5 254.5q109 143 253.5 214.5t356.5 71.5q269 0 418 -140.5t149 -399.5q0 -392 -192 -625q-104 -126 -248 -186q-16 -5 -16 -19q0 -11 12 -18q45 -23 139 -75.5t174.5 -93t153.5 -65.5q162 -57 336 -57q77 0 168 29q1 0 30.5 10t40.5 10 q45 0 45 -47q0 -31 -37 -53q-83 -44 -188 -61t-268 -17q-121 0 -234.5 20t-197.5 49.5t-176 76t-153.5 85.5t-147.5 93.5t-142 85.5q-13 9 -47 20q-189 45 -294 182t-105 357zM430 469q0 -180 68 -284.5t200 -104.5q206 0 312 205q67 133 100 296.5t33 321.5 q0 175 -61.5 271t-184.5 96q-114 0 -199.5 -63.5t-148.5 -196.5q-119 -251 -119 -541z" />
<glyph unicode="R" horiz-adv-x="1472" d="M-61 35q0 24 12.5 44.5t36.5 20.5q4 0 22 -1t23 -1q27 0 45.5 7.5t24.5 14.5t14 21q26 38 57 164l166 721q27 117 27 164q0 63 -88 63q-5 0 -19 -1t-18 -1q-35 0 -35 39q0 24 12 45t35 21q7 0 52 -3t109.5 -6.5t119.5 -3.5q26 0 139 5.5t162 5.5q235 0 345.5 -81 t110.5 -210q0 -174 -101 -271.5t-290 -136.5q-18 -3 -18 -14q0 -7 12 -14q77 -52 131 -158q89 -178 170 -301q51 -76 102 -76q4 0 18 1t23 1q17 0 27 -12.5t10 -34.5q0 -41 -45 -55q-36 -12 -141 -12q-115 0 -179 24.5t-116 85.5q-52 54 -123 246q-68 185 -84 213 q-22 46 -59 57q-16 6 -54 6q-21 0 -31 -8t-16 -35l-61 -264q-21 -95 -21 -143q0 -64 84 -64q4 0 19 1t18 1q39 0 39 -37q0 -67 -53 -67q-6 0 -57.5 3t-125.5 6t-134 3q-37 0 -150.5 -5t-116.5 -5q-11 0 -20.5 10.5t-9.5 26.5zM575 752q0 -16 23 -27q23 -10 68 -10 q156 0 239.5 81t83.5 238q0 98 -55 156.5t-137 58.5q-61 0 -84 -4q-31 -3 -41 -51l-90 -395q-7 -28 -7 -47z" />
<glyph unicode="S" horiz-adv-x="1073" d="M63 362q0 17 14.5 29t41.5 12q45 0 51 -36q19 -113 59 -183q25 -43 93 -75.5t155 -32.5q283 0 283 227q0 62 -41 117.5t-127 120.5l-135 102q-103 78 -159 159.5t-56 186.5q0 194 139.5 291.5t380.5 97.5q127 0 268 -43q62 -17 62 -53q0 -5 -3 -43.5t-6.5 -96 t-3.5 -108.5q0 -17 -16 -26t-39 -9q-21 0 -34 12t-15 31q-5 89 -41 156q-44 76 -201 76q-114 0 -177.5 -50t-63.5 -139q0 -24 3.5 -42.5t15.5 -46.5t40 -58.5t72 -63.5l125 -94q4 -3 11 -8q115 -85 158 -133q91 -102 91 -246q0 -83 -30.5 -153t-82.5 -119t-122 -83.5 t-149.5 -50.5t-164.5 -16q-106 0 -210.5 31t-144.5 64q-25 18 -28 51q-13 204 -13 245z" />
<glyph unicode="T" horiz-adv-x="1343" d="M178 1032q0 9 7 34.5t31.5 104.5t45.5 150q11 37 39 37q3 0 48 -3t176.5 -6t346.5 -3q209 0 341 2.5t180 5t53 2.5q37 0 37 -37q0 -6 -10.5 -54.5t-24.5 -117t-21 -111.5q-7 -39 -55 -39q-45 0 -45 37q0 3 2 35.5t2 46.5q0 57 -26 86q-39 41 -193 41q-88 0 -111 -18 q-14 -11 -21.5 -26t-14.5 -50l-193 -848q-20 -94 -20 -123q0 -34 8 -45q12 -35 100 -35q4 0 22 1t25 1q17 0 26 -13t9 -30q0 -22 -12 -40.5t-37 -18.5q-8 0 -66.5 3t-136.5 6t-133 3q-53 0 -125 -3t-123 -6t-55 -3q-35 0 -35 47q0 20 12 37.5t31 17.5q5 0 21.5 -1t21.5 -1 q36 0 68.5 11t46.5 30q30 44 57 160l191 827q10 42 10 78q0 19 -19 27q-30 12 -120 12q-98 0 -164 -49q-29 -22 -56 -68.5t-43 -97.5q-12 -31 -55 -31t-43 35z" />
<glyph unicode="U" horiz-adv-x="1548" d="M170 356q0 58 12 129t27 131.5t48.5 189t57.5 230.5q27 117 27 156q0 24 -10 37q-19 24 -68 24q-5 0 -20 -1t-19 -1q-35 0 -35 37q0 31 15 49.5t45 18.5q5 0 53 -3t117.5 -6.5t128.5 -3.5q56 0 113 3.5t93.5 6.5t41.5 3q53 0 53 -41q0 -27 -13.5 -45.5t-37.5 -18.5 q-3 0 -15 1t-16 1q-50 0 -82 -24q-21 -17 -36 -55.5t-40 -141.5q-4 -16 -21 -88.5t-25.5 -109t-25 -106.5t-25 -115t-19 -99t-15 -92.5t-4.5 -63.5q0 -131 73 -194.5t189 -63.5q215 0 316.5 106.5t165.5 383.5q65 271 98 440q20 103 20 160t-86 57q-4 0 -25.5 -1t-25.5 -1 q-35 0 -35 37q0 31 16.5 52.5t45.5 21.5q9 0 89 -6.5t136 -6.5q57 0 126 6.5t71 6.5q27 0 38 -9t11 -28q0 -68 -41 -68q-7 0 -26 1t-23 1q-56 -4 -80 -34q-41 -58 -72 -185q-88 -411 -119 -545q-29 -129 -78.5 -223t-127 -161.5t-189 -100.5t-258.5 -33q-263 0 -388.5 105.5 t-125.5 279.5z" />
<glyph unicode="V" horiz-adv-x="1415" d="M180 1282q0 31 15 52.5t45 21.5q4 0 117.5 -4t164.5 -4q50 0 171 4t122 4q45 0 45 -43q0 -26 -15 -45t-42 -19q-8 0 -30 1t-25 1q-58 0 -81.5 -17t-23.5 -71q0 -48 10 -114l72 -543q7 -55 11.5 -69.5t13.5 -14.5t19.5 13t41.5 67l319 538q82 138 82 162q0 29 -14 40 t-59 11q-9 0 -29 -1l-20 -1q-35 0 -35 39q0 27 14 46.5t41 19.5q2 0 102 -4t150 -4q48 0 111 4t67 4q45 0 45 -41q0 -33 -16 -48.5t-39 -15.5q-4 0 -17 1t-20 1q-48 0 -82 -41q-33 -38 -111 -157q-123 -191 -324 -515t-228 -366q-5 -8 -39 -64.5t-56 -91.5q-21 -41 -78 -41 q-28 0 -42.5 15.5t-16.5 32.5q-2 14 -5.5 51t-6.5 59q-22 177 -146 920q-17 109 -39 164q-13 34 -55 34q-6 0 -24 -1t-23 -1q-16 0 -26.5 8.5t-10.5 22.5z" />
<glyph unicode="W" horiz-adv-x="2035" d="M188 1296q0 25 17.5 42.5t46.5 17.5q4 0 111.5 -4t158.5 -4q50 0 171 2t122 2q45 0 45 -39q0 -26 -13.5 -46t-39.5 -20q-9 0 -28.5 1t-22.5 1q-70 0 -91.5 -23.5t-21.5 -82.5q0 -104 2 -139l21 -498q1 -28 4.5 -36.5t11.5 -8.5q6 0 12.5 7t24.5 36l389 645q16 26 36.5 59 t32.5 52t19 32q20 34 35.5 46t40.5 12q39 0 51 -50q12 -51 27 -145l120 -668q4 -24 7.5 -31t11.5 -7q9 0 16 8t19 32l248 500q81 162 81 197t-20 49t-78 14q-3 0 -22.5 -1t-28.5 -1q-14 0 -22.5 13t-8.5 28q0 26 13.5 45t39.5 19q1 0 109 -2t158 -2q51 0 106.5 4t59.5 4 q17 0 30 -11.5t13 -35.5q0 -21 -14.5 -39.5t-37.5 -18.5q-10 0 -23 1t-18 1q-31 0 -55 -28q-7 -7 -13.5 -16t-17.5 -28.5t-18.5 -33.5t-27 -51t-31.5 -60q-48 -89 -150.5 -281.5t-211 -399t-118.5 -224.5q-43 -84 -65 -115q-24 -39 -64 -39q-46 0 -55 31q-16 54 -27 127 q-10 60 -29 163.5t-49 266t-53 289.5q-4 26 -8 32.5t-12 6.5q-12 0 -35 -39q-119 -186 -440 -719q-24 -44 -76 -119q-10 -17 -29 -28t-35 -11q-44 0 -53 31q-6 25 -14 115q-4 51 -32 393t-42 522q-10 138 -26 181q-7 19 -21.5 26.5t-40.5 7.5q-6 0 -19 -1t-18 -1 q-35 0 -35 45z" />
<glyph unicode="X" horiz-adv-x="1552" d="M-61 43q0 25 14 42t43 17q3 0 17 -1t18 -1q43 0 86 37q56 46 215 205l309 315q21 26 21 37q0 3 -2 7.5t-6 13t-7 16.5l-147 293q-41 83 -115 199q-11 20 -24.5 25t-36.5 5q-5 0 -18.5 -1t-18.5 -1q-11 0 -20 10.5t-9 36.5q0 25 14.5 42.5t40.5 17.5l131 -6q132 -6 201 -6 q37 0 138 6t108 6q12 0 23.5 -10t11.5 -31q0 -28 -13.5 -47t-42.5 -19q-8 0 -24.5 1t-24.5 1q-34 0 -48.5 -9.5t-14.5 -31.5t67 -161q7 -15 11 -23l59 -123q13 -27 20 -36t15 -9q10 0 55 45l109 117q45 49 64 70t42 49t31 43.5t8 27.5q0 26 -14.5 33.5t-53.5 7.5 q-7 0 -28 -1t-27 -1q-15 0 -24 12.5t-9 30.5q0 62 52 62q7 0 45.5 -3t95.5 -6.5t108 -3.5q62 0 119.5 6.5t61.5 6.5q45 0 45 -45q0 -60 -45 -60q-3 0 -16 1t-19 1q-43 0 -82 -36q-15 -12 -39 -35.5t-43.5 -43t-55 -57t-53.5 -55.5l-249 -252q-25 -25 -25 -37q0 -7 10 -32 l185 -361q78 -149 116 -209q28 -35 72 -35q4 0 17.5 1t17.5 1q16 0 25.5 -12t9.5 -35q0 -57 -58 -57q-6 0 -119 6t-180 6q-47 0 -171 -6t-128 -6q-18 0 -27.5 10.5t-9.5 26.5q0 67 56 67q7 0 23 -1t26 -1q72 0 72 45q0 49 -74 191l-98 190q-16 39 -27 39q-4 0 -7 -1.5 t-8 -5.5t-8.5 -7.5t-11.5 -12t-14 -14.5l-176 -188q-14 -15 -35 -38t-33.5 -36t-28 -30.5t-24.5 -29t-17.5 -23.5t-12 -21.5t-3.5 -16.5q0 -23 14.5 -32t55.5 -9q18 0 40 1t27 1q12 0 21.5 -11t9.5 -30q0 -63 -53 -63q-7 0 -48.5 3t-101 6t-110.5 3q-71 0 -141 -7t-72 -7 q-45 0 -45 47z" />
<glyph unicode="Y" horiz-adv-x="1411" d="M190 1288q0 29 15.5 49.5t46.5 20.5q7 0 53 -3t112 -6t124 -3q42 0 182 6t147 6q31 0 31 -39q0 -31 -15 -49.5t-44 -18.5q-9 0 -19 1t-20 1q-113 0 -113 -75q0 -57 39 -166l68 -199q24 -74 43 -74q21 0 78 72l157 205q88 115 106 152q11 23 11 38q0 30 -18.5 38.5 t-69.5 8.5q-21 0 -38.5 -1t-18.5 -1q-31 0 -31 33q0 74 57 74l85 -6q85 -6 165 -6q59 0 130.5 6t74.5 6q30 0 42.5 -8t12.5 -33q0 -27 -12.5 -45.5t-30.5 -18.5q-4 0 -20 1t-23 1q-39 0 -78 -36q-45 -38 -182 -201l-332 -402q-4 -4 -11 -18.5t-11 -19.5q-11 -15 -15 -43 l-49 -211q-22 -93 -22 -154q0 -34 20 -51q22 -19 80 -19q4 0 18 1t17 1q19 0 27 -10t8 -33t-14.5 -42t-45.5 -19q-5 0 -55 3t-120.5 6t-125.5 3q-56 0 -128.5 -3t-124.5 -6t-56 -3q-37 0 -37 37q0 26 13 46.5t40 20.5q3 0 23 -1t26 -1q74 0 99 41q32 50 63 185l43 186 q8 28 8 49q0 19 -12 49l-155 396q0 1 -84 206q-15 41 -66 41q-5 0 -17.5 -1t-17.5 -1q-33 0 -33 37z" />
<glyph unicode="Z" horiz-adv-x="1310" d="M-2 33q0 24 20 47q155 178 310.5 363t226.5 271.5t221 271t160 196.5q22 26 22 37t-7 14.5t-25 3.5q-94 2 -228 2q-124 0 -170 -4t-79 -23q-36 -21 -64.5 -59.5t-62.5 -118.5q-15 -35 -60 -35q-19 0 -31 10.5t-12 28.5q0 11 10 38.5t34 96t48 144.5q8 23 22.5 33t43.5 10 q3 0 157.5 -4t305.5 -4q97 0 223 0.5t212.5 1t88.5 0.5q31 0 31 -31q0 -24 -23 -47q-592 -716 -893 -1088q-1 -2 -8 -9.5t-10 -11.5t-6.5 -10.5t-3.5 -11.5q0 -20 28 -20q10 0 108 -1t140 -1q87 0 173.5 13.5t123.5 37.5q46 29 76 65t61 105q17 45 56 45q28 0 39.5 -8.5 t11.5 -32.5q0 -26 -109 -317q-13 -33 -55 -33q-1 0 -75 1t-201 2t-257 1q-21 0 -272.5 -1t-269.5 -1q-14 0 -22.5 9.5t-8.5 23.5z" />
<glyph unicode="[" horiz-adv-x="677" d="M6 -274q0 13 5 33t12.5 47.5t11.5 43.5l336 1461q15 61 28 124t13 64q4 18 16.5 32.5t34.5 14.5q27 0 105.5 -1t107.5 -1q24 0 65 1t64 1q20 0 29.5 -7.5t9.5 -29.5q0 -28 -12.5 -45.5t-36.5 -17.5q-20 0 -47.5 1t-45.5 1q-40 0 -63 -2q-27 -4 -37 -47l-360 -1561 q-4 -16 -4 -24q0 -15 28 -17q12 -2 56 -2q18 0 42 1t44 1q32 0 32 -39q0 -25 -11.5 -43t-37.5 -18q-23 0 -59 1t-60 1q-30 0 -120.5 -1t-110.5 -1q-35 0 -35 29z" />
<glyph unicode="\" horiz-adv-x="978" d="M246 1339q0 17 17 32t44 15q36 0 51.5 -11t24.5 -40l428 -1341q12 -32 12 -60q0 -20 -15 -32.5t-40 -12.5q-61 0 -78 54l-432 1337q-12 42 -12 59z" />
<glyph unicode="]" horiz-adv-x="677" d="M-111 -266q0 27 13 45t37 18q20 0 47 -1t45 -1q40 0 63 2q27 4 37 47l361 1561q2 8 2 22q0 11 -11 15q-18 6 -71 6q-18 0 -42 -1t-44 -1q-33 0 -33 39q0 25 11.5 43t37.5 18q24 0 60 -1t59 -1q30 0 120.5 1t110.5 1q35 0 35 -28q0 -13 -5 -33t-12.5 -48t-11.5 -44 l-336 -1461q-15 -61 -27.5 -124t-12.5 -64q-4 -18 -17 -32.5t-35 -14.5q-27 0 -105.5 1t-107.5 1q-23 0 -64 -1t-65 -1q-20 0 -29.5 7.5t-9.5 29.5z" />
<glyph unicode="^" horiz-adv-x="1314" d="M240 535q0 5 14 26l508 688q12 21 35 21h106q23 0 29 -21l176 -688q4 -6 4 -20q0 -21 -31 -21h-127q-18 0 -26 21l-119 524l-367 -524q-10 -21 -34 -21h-146q-22 0 -22 15z" />
<glyph unicode="_" horiz-adv-x="1034" d="M-125 -299q0 37 10 68q10 30 45 30h1020q29 0 29 -22q0 -31 -10 -76q-6 -25 -31 -25h-1032q-31 0 -31 25z" />
<glyph unicode="`" horiz-adv-x="600" d="M135 1389q3 34 30 59t71 25q55 0 83 -60q91 -182 134 -262q12 -18 12 -41q0 -14 -12.5 -26.5t-30.5 -12.5q-24 0 -51 29q-145 138 -207 213q-29 34 -29 76z" />
<glyph unicode="a" horiz-adv-x="1220" d="M18 182q0 115 46 246t147 258q208 264 481 264q95 0 158 -18q4 -1 17 -6t24 -8t16 -3q19 0 33 17q2 3 21 41q11 20 26.5 27.5t50.5 7.5q29 0 47.5 -10.5t18.5 -30.5q0 -22 -10 -49q-108 -316 -152 -474q-27 -93 -42 -170.5t-15 -101.5q0 -51 53 -51q55 0 104 61 q38 47 50 99q5 16 12.5 23t25.5 7q41 0 41 -35q0 -22 -34 -88q-48 -88 -144.5 -151.5t-187.5 -63.5q-69 0 -103 33.5t-34 95.5q0 93 32 181q15 47 15 49q0 12 -15 12q-6 0 -10 -2.5t-4.5 -4t-5.5 -9.5q-60 -102 -70 -117q-90 -138 -180 -189t-197 -51q-97 0 -156 59.5 t-59 151.5zM293 244q0 -99 69 -99q66 0 134 68q98 98 188 270q54 105 82 195q18 55 18 106q0 33 -27.5 50.5t-68.5 17.5q-66 0 -119.5 -41.5t-115.5 -128.5q-71 -100 -115.5 -228.5t-44.5 -209.5z" />
<glyph unicode="b" horiz-adv-x="1165" d="M119 211q0 84 37 219q38 138 126.5 428.5t120.5 403.5q27 99 27 129q0 31 -21.5 52t-72.5 32q-21 6 -21 28q0 16 7.5 26.5t17.5 12.5q218 48 367 105q24 8 32 8q29 0 29 -25q0 -11 -8 -31q-14 -40 -78.5 -233.5t-130.5 -386.5q-79 -223 -121 -322q-4 -12 -4 -16 q0 -10 12 -10q13 0 19 12q86 133 194 219q127 103 260 103q85 0 141 -54.5t56 -146.5q0 -223 -137 -463q-56 -97 -147 -172.5t-192 -115.5t-194 -40q-67 0 -120 10t-87 29t-57 41t-34.5 50.5t-16 53.5t-4.5 54zM356 190q0 -108 101 -108q162 0 288 270q44 95 65 184t21 138 q0 104 -75 104q-90 0 -191 -116q-44 -51 -87 -121t-68 -131q-54 -126 -54 -220z" />
<glyph unicode="c" horiz-adv-x="907" d="M45 266q0 278 186 496q96 113 201 159t232 46q94 0 163.5 -44t69.5 -114q0 -45 -25 -72.5t-75 -27.5q-84 0 -88 65q-3 54 -23 80q-18 27 -65 27q-66 0 -132.5 -70.5t-123.5 -208.5q-34 -85 -53 -171.5t-19 -137.5q0 -93 42.5 -145t113.5 -52q171 0 256 133q12 17 22 52 q13 38 43 38q49 0 49 -40q0 -18 -22 -58q-67 -114 -180.5 -182t-256.5 -68q-149 0 -232 84.5t-83 210.5z" />
<glyph unicode="d" horiz-adv-x="1249" d="M18 193q0 103 33.5 206.5t118.5 231.5q101 153 236 244.5t296 91.5q70 0 115 -13q24 -8 41 -8q13 0 18.5 9.5t12.5 35.5l69 252q27 102 27 150q0 62 -92 82q-23 7 -23 28q0 32 27 39q230 50 371 105q24 8 28 8q33 0 33 -27q0 -9 -8 -29q-129 -363 -213 -643 q-110 -359 -154 -524q-47 -176 -47 -256q0 -28 10 -41.5t35 -13.5q41 0 79.5 31.5t64.5 85.5q7 17 14 43q9 30 39 30q41 0 41 -30q0 -21 -16 -58q-47 -104 -150.5 -177t-200.5 -73q-76 0 -104.5 34.5t-28.5 78.5q0 74 41 217q6 18 6 25q0 10 -14 10q-10 0 -21 -14 q-11 -17 -32 -50t-43 -63q-182 -240 -383 -240q-116 0 -171 63.5t-55 158.5zM293 246q0 -53 18.5 -77t59.5 -24q72 0 137 68q79 84 161.5 220t118.5 259q19 74 19 101q0 37 -16 51q-29 26 -93 26q-66 0 -123 -45.5t-114 -126.5q-65 -93 -116.5 -229.5t-51.5 -222.5z" />
<glyph unicode="e" horiz-adv-x="931" d="M45 270q0 325 250 557q73 69 171 104.5t183 35.5q244 0 244 -176q0 -70 -50.5 -129t-135.5 -101q-76 -39 -135.5 -56.5t-213.5 -49.5q-44 -9 -53 -54q-12 -59 -12 -116q0 -92 45 -141.5t104 -49.5q98 0 155.5 33t100.5 94q21 30 31 64t43 34q23 0 35 -11t12 -25 q0 -21 -24 -64q-63 -106 -175 -177t-264 -71q-142 0 -226.5 84t-84.5 215zM342 549q0 -19 20 -19q5 0 25 5q76 22 132.5 56.5t85 66t45.5 67.5t20.5 56t3.5 36q0 66 -70 66q-25 0 -63.5 -19.5t-77.5 -68.5q-29 -35 -61.5 -96.5t-53.5 -123.5q-6 -12 -6 -26z" />
<glyph unicode="f" horiz-adv-x="710" d="M-442 -506q0 42 25.5 69t62.5 27q30 0 43 -26q23 -44 47 -60t76 -16q36 0 72.5 19.5t64.5 52.5q42 50 91.5 199t119.5 477q8 40 46 225t64 307q4 24 4 35q0 16 -16 16q-24 0 -71.5 -1t-67.5 -1q-11 0 -19 6.5t-8 14.5q0 62 33 69q88 10 133 27q26 9 45 50t70 192 q30 89 61 152.5t67 106.5t63.5 66.5t72.5 54.5q66 47 157 68t175 21q143 0 202 -52q43 -34 43 -86q0 -53 -37 -85.5t-77 -32.5q-38 0 -57.5 10t-28.5 35q-2 5 -6 20.5t-8.5 28t-8.5 20.5q-27 49 -86 49q-36 0 -80.5 -26t-72.5 -68q-82 -118 -142 -321q-49 -166 -49 -199 q0 -14 19 -14q42 0 107 2t73 2q14 0 22.5 -12t8.5 -25q0 -74 -56 -74q-25 0 -85 1t-91 1q-18 0 -22 -20q-93 -439 -111 -512q-35 -152 -74.5 -275t-73.5 -201.5t-72.5 -141t-67 -95.5t-62.5 -63q-135 -121 -314 -121q-100 0 -163 39q-17 11 -29 29.5t-12 35.5z" />
<glyph unicode="g" horiz-adv-x="1019" d="M-98 -340q0 72 47.5 127t152.5 98q91 38 172 54q27 4 27 14t-18 14q-80 18 -121 58t-41 88q0 46 30 85.5t117 69.5q14 5 25.5 13t11.5 14q0 11 -18 16q-88 30 -131 98.5t-43 163.5q0 170 120.5 280t325.5 110q158 0 246 -52q19 -14 41 -14t47 25q68 65 137 65 q45 0 70.5 -24t25.5 -64q0 -47 -25.5 -71.5t-60.5 -24.5q-14 0 -63 22q-33 13 -41 13q-35 0 -35 -60q0 -10 3 -40.5t3 -35.5q0 -98 -28 -170t-109 -139q-84 -68 -242 -108q-78 -19 -112 -43q-37 -26 -52.5 -46t-15.5 -44q0 -53 107 -70q206 -36 315.5 -76.5t153 -94 t43.5 -138.5q0 -174 -147.5 -282.5t-426.5 -108.5q-231 0 -361 77.5t-130 200.5zM102 -328q0 -95 83.5 -145.5t207.5 -50.5q68 0 123 14.5t88.5 37t55.5 52.5t31 59.5t9 59.5q0 68 -57 111q-91 65 -244 65q-116 0 -211 -61q-47 -29 -66.5 -62t-19.5 -80zM352 541 q0 -79 27 -127.5t82 -48.5q50 0 89 32.5t61.5 84.5t34 112t11.5 121q0 78 -23 118.5t-83 40.5q-51 0 -91 -35t-62.5 -88.5t-34 -108t-11.5 -101.5z" />
<glyph unicode="h" horiz-adv-x="1222" d="M76 80q0 31 8 59q60 204 169.5 563t174.5 580q21 76 21 102q0 33 -20.5 55t-72.5 36q-22 6 -22 32q0 11 7.5 22.5t16.5 12.5q221 49 365 105q24 8 37 8q26 0 26 -23q0 -13 -8 -33q-294 -857 -344 -974q-4 -12 -4 -15q0 -12 14 -12q8 0 15 10q75 118 129 172 q176 176 356 176q59 0 97 -30t38 -82q0 -103 -121 -416q-75 -195 -75 -258q0 -45 41 -45q72 0 120 86q20 40 27 63q9 37 43 37q24 0 33.5 -12t9.5 -25q0 -19 -18 -55q-21 -42 -60 -88q-135 -158 -317 -158q-67 0 -103 25.5t-36 87.5q0 38 13 86t44.5 133.5t44.5 126.5 q82 255 82 293q0 47 -41 47q-32 0 -62.5 -19t-70.5 -55q-15 -13 -31.5 -31t-29 -33.5t-28 -38t-24 -35t-22.5 -34t-17 -26.5q-39 -60 -77.5 -151t-61.5 -191q-5 -19 -8 -54.5t-4 -42.5q-8 -45 -31.5 -61t-89.5 -16q-64 0 -98.5 27.5t-34.5 68.5z" />
<glyph unicode="i" horiz-adv-x="724" d="M47 678q0 23 21 57q64 98 162.5 163t203.5 65q135 0 135 -123q0 -48 -21.5 -123.5t-94.5 -280.5q-5 -13 -21 -55.5t-23.5 -64.5t-18.5 -54.5t-16 -54.5t-5 -35q0 -26 10.5 -36.5t32.5 -10.5q57 0 102 61q27 37 43 90q12 35 39 35q47 0 47 -39q0 -19 -25 -63 q-25 -47 -63 -90q-69 -75 -149.5 -110.5t-147.5 -35.5q-149 0 -149 117q0 42 28.5 130.5t93.5 266.5q78 213 78 275q0 49 -37 49q-27 0 -60 -21t-56 -59q-15 -25 -29 -61q-8 -23 -45 -23q-14 0 -24.5 9.5t-10.5 21.5zM369 1290q0 82 45.5 127t120.5 45q47 0 82.5 -33.5 t41.5 -93.5q0 -75 -42 -124.5t-115 -49.5q-60 0 -96.5 37.5t-36.5 91.5z" />
<glyph unicode="j" horiz-adv-x="677" d="M-395 -494q0 37 24 65t68 28q22 0 41 -10t26 -29q12 -30 37.5 -50t55.5 -20q59 0 108 90q38 68 96 245.5t94 307t97 354.5q57 211 57 275q0 49 -37 49q-27 0 -60 -21t-56 -59q-15 -25 -29 -61q-8 -23 -45 -23q-14 0 -24.5 9.5t-10.5 21.5q0 23 21 57q64 98 162.5 163 t203.5 65q135 0 135 -123q0 -53 -16 -131.5t-72 -272.5q-127 -437 -188.5 -595t-149.5 -277q-44 -61 -135 -115.5t-186 -54.5q-111 0 -164 33q-23 13 -38 34t-15 45zM369 1290q0 82 45.5 127t120.5 45q49 0 86.5 -34t37.5 -93q0 -75 -42 -124.5t-115 -49.5q-60 0 -96.5 37.5 t-36.5 91.5z" />
<glyph unicode="k" horiz-adv-x="1210" d="M80 80q0 33 8 61q241 815 334 1135q20 76 20 108q0 33 -19.5 55t-70.5 36q-22 6 -22 32q0 11 7.5 22.5t16.5 12.5q235 52 371 105q24 8 37 8q26 0 26 -23q0 -13 -8 -33q-93 -274 -186 -571q-238 -753 -260 -881q-2 -12 -3 -24.5t-1.5 -27.5t-1.5 -23q-3 -47 -28 -67.5 t-93 -20.5q-64 0 -95.5 27t-31.5 69zM481 526q0 25 35 66q81 97 176 182.5t187 140.5q92 56 176 56q59 0 99 -27.5t40 -69.5q0 -56 -29 -89t-69 -33q-38 0 -54 24q-23 33 -67 33q-37 0 -74 -18q-79 -38 -149 -97q-25 -20 -35 -34t-10 -33q0 -15 28 -78q52 -114 135 -270 q31 -58 60 -87.5t51 -29.5q52 0 84 45q27 42 35 80q6 32 45 32q18 0 28.5 -11t10.5 -27q0 -49 -78 -152q-117 -154 -256 -154q-86 0 -133 68q-32 49 -60.5 111.5t-105.5 253.5q-9 25 -35 67q-1 2 -18 19.5t-17 31.5z" />
<glyph unicode="l" horiz-adv-x="710" d="M88 90q0 57 103 388q6 23 10 34q116 371 229 764q21 80 21 108q0 33 -20 55t-71 36q-22 6 -22 32q0 11 7.5 22.5t16.5 12.5q221 49 365 105q24 8 37 8q27 0 27 -23q0 -10 -9 -33q-23 -68 -180 -571q-43 -138 -103.5 -326t-64.5 -200q-86 -267 -86 -330q0 -26 10.5 -36.5 t32.5 -10.5q58 0 103 61q27 37 43 90q12 35 38 35q48 0 48 -39q0 -19 -25 -63q-25 -47 -63 -90q-69 -75 -149.5 -110.5t-147.5 -35.5q-150 0 -150 117z" />
<glyph unicode="m" horiz-adv-x="1757" d="M47 682q0 24 31 70q64 93 158.5 152t201.5 59q51 0 80 -27.5t29 -65.5q0 -39 -19 -93t-73 -177q-4 -12 -4 -16q0 -11 14 -11q7 0 14 11q5 9 24 42.5t29.5 51.5t32.5 49.5t47 60.5q147 168 308 168q135 0 135 -114q0 -30 -13.5 -73t-27.5 -74.5t-43 -94.5q-4 -12 -4 -16 q0 -11 14 -11q7 0 14 11l16 28t17.5 30.5t18 29.5t23 34t26.5 34t34 40q159 176 343 176q35 0 63.5 -7.5t53 -35t24.5 -73.5q0 -36 -11 -83.5t-23 -83.5t-39.5 -110.5t-41.5 -116.5q-51 -150 -66 -199t-16 -77q0 -45 41 -45q62 0 111 70q23 33 35 73q11 43 45 43 q22 0 32.5 -11t10.5 -26q0 -17 -23 -63q-44 -77 -104 -129q-128 -109 -265 -109q-70 0 -106.5 25t-36.5 82q0 28 15 80.5t52 163.5t54 165q63 203 63 244q0 39 -43 39q-42 0 -94 -45q-71 -60 -121 -122t-84 -144q-81 -192 -90 -287q-2 -19 -3.5 -54t-2.5 -42 q-4 -48 -25.5 -71t-91.5 -23q-76 0 -108.5 29.5t-32.5 74.5q0 22 17 82q15 51 98 301q51 153 51 238q0 63 -45 63q-40 0 -88 -45q-58 -54 -101 -113t-94 -153q-27 -50 -61 -144.5t-49 -154.5q-7 -28 -11 -84q-2 -24 -5.5 -37.5t-14.5 -28.5t-34 -21.5t-60 -6.5 q-76 0 -109 30t-33 74q0 22 17 82q15 48 67.5 197.5t77.5 236.5q31 108 31 160q0 47 -33 47q-45 0 -86 -47q-35 -41 -49 -86q-10 -31 -45 -31q-19 0 -29 10t-10 25z" />
<glyph unicode="n" horiz-adv-x="1253" d="M47 682q0 24 31 70q64 93 158.5 152t201.5 59q51 0 80 -27.5t29 -65.5q0 -39 -19 -93t-73 -177q-4 -12 -4 -16q0 -11 14 -11q7 0 14 11q24 41 36 60.5t40.5 58.5t62.5 77q157 176 351 176q35 0 63.5 -7.5t53 -35t24.5 -73.5q0 -24 -6 -55.5t-20.5 -79t-24 -76 t-33.5 -95.5t-31 -88q-50 -141 -65 -193.5t-17 -82.5q0 -45 41 -45q62 0 111 70q23 33 35 73q11 43 45 43q22 0 32.5 -11t10.5 -26q0 -17 -23 -63q-44 -77 -104 -129q-128 -109 -264 -109q-144 0 -144 107q0 28 15 80.5t52 163.5t54 165q64 207 64 244q0 39 -43 39 q-49 0 -97 -45q-71 -64 -120 -123t-95 -143q-27 -50 -61 -144.5t-49 -154.5q-7 -28 -11 -84q-2 -24 -5.5 -37.5t-14.5 -28.5t-34 -21.5t-60 -6.5q-76 0 -109 30t-33 74q0 22 17 82q2 6 59 168t86 266q31 108 31 160q0 47 -33 47q-45 0 -86 -47q-35 -41 -49 -86 q-10 -31 -45 -31q-19 0 -29 10t-10 25z" />
<glyph unicode="o" horiz-adv-x="1036" d="M49 315q0 132 50 256.5t134 223.5q69 78 180 125t222 47q157 0 248.5 -87t91.5 -233q0 -130 -44.5 -259t-121.5 -226q-68 -87 -171.5 -139t-221.5 -52q-169 0 -268 94t-99 250zM297 217q0 -67 30.5 -111.5t84.5 -44.5t93 29.5t77 95.5q57 98 105 274t48 269 q0 143 -108 143q-48 0 -89 -27.5t-83 -96.5q-68 -112 -113 -259.5t-45 -271.5z" />
<glyph unicode="p" horiz-adv-x="1216" d="M-236 -553q0 25 12.5 42t35.5 17q2 0 18.5 -1t24.5 -1q43 0 75 41q33 44 68 164q17 59 113 380.5t120 406.5q58 202 58 262q0 53 -35 53q-34 0 -60 -21t-57 -73q-3 -5 -18 -43q-11 -27 -45 -27q-14 0 -25.5 9t-11.5 22q0 19 12 41q59 103 163 173.5t230 70.5 q47 0 76 -27.5t29 -69.5q0 -66 -90 -262q-4 -12 -4 -16q0 -8 12 -8q6 0 18 12q48 84 95 143q182 228 389 228q90 0 141 -58.5t51 -142.5q0 -99 -33 -224t-116 -253q-95 -148 -224.5 -223.5t-267.5 -75.5q-75 0 -137 8q-30 6 -37 6q-14 0 -22 -29q-14 -47 -29.5 -97 t-25 -80.5t-19.5 -63t-15.5 -51t-11 -38t-8 -30t-5 -21.5t-3 -18t-0.5 -14q3 -30 23 -42t65 -12q2 0 25 1t30 1q35 0 35 -32q0 -30 -13.5 -48t-37.5 -18l-108 4q-107 4 -173 4q-54 0 -150.5 -4t-103.5 -4q-13 0 -23 12t-10 27zM397 166q0 -37 29 -57q34 -23 102 -23 q110 0 203 143q63 99 107.5 230t44.5 205q0 114 -68 114q-72 0 -139 -57q-99 -83 -180 -244q-25 -49 -38.5 -79t-28.5 -75.5t-23 -89.5q-9 -56 -9 -67z" />
<glyph unicode="q" horiz-adv-x="1153" d="M18 190q0 236 185 488q99 134 229.5 205t263.5 71q40 0 91 -8.5t77 -17.5q25 -10 49 -10q23 0 37 14q6 6 29 43q6 10 12.5 16t22.5 11.5t41 5.5q33 0 49 -12t16 -27q0 -26 -12 -62q-67 -227 -188 -665.5t-152 -546.5q-27 -94 -27 -125q0 -64 82 -64q7 0 26.5 1t22.5 1 q31 0 31 -38q0 -28 -12 -45t-33 -17q-4 0 -67 2t-144.5 4t-130.5 2q-51 0 -127 -4t-84 -4q-35 0 -35 37q0 24 11.5 41.5t25.5 17.5q17 0 39 -1t23 -1q67 0 96 43q34 49 63 148q83 282 185 618q6 24 6 25q0 10 -12 10q-6 0 -15 -12q-21 -34 -76 -117q-161 -246 -368 -246 q-111 0 -170.5 60t-59.5 159zM293 254q0 -53 16 -80t60 -27q76 0 163 103q119 136 185 285q48 105 61 157q10 41 10 80q0 35 -22 53.5t-80 18.5q-111 0 -211 -137q-72 -98 -127 -231t-55 -222z" />
<glyph unicode="r" horiz-adv-x="933" d="M37 678q0 24 20 57q69 103 165 165.5t214 62.5q40 0 69.5 -22t29.5 -69q0 -37 -11.5 -82.5t-23.5 -78t-47 -119.5q-7 -14 -7 -25q0 -8 11 -8q8 0 14 12q44 89 80.5 146t87.5 117q54 62 112 93t105 31q67 0 98 -25.5t31 -68.5q0 -27 -10.5 -57t-40 -57t-70.5 -27 q-31 0 -49 18q-23 23 -51 23q-35 0 -80 -35q-49 -38 -114.5 -133.5t-100.5 -163.5q-28 -55 -65.5 -163.5t-38.5 -157.5q0 -32 -11 -76q-3 -11 -6.5 -17t-14.5 -15.5t-35 -14t-60 -4.5q-54 0 -93 24.5t-39 77.5q0 34 7 51q23 75 70 199.5t67 187.5q43 136 43 234 q0 32 -9 42.5t-30 10.5q-57 0 -113 -86q-10 -16 -22 -53q-7 -25 -47 -25q-14 0 -24.5 8.5t-10.5 22.5z" />
<glyph unicode="s" horiz-adv-x="813" d="M-10 182q0 48 27 79.5t77 31.5q51 0 75 -22t24 -50q0 -5 -2.5 -23t-2.5 -24q0 -43 31 -74q34 -34 123 -34q61 0 105.5 33t44.5 89q0 53 -37.5 99t-159.5 139q-145 110 -145 266q0 115 104 195t268 80q56 0 116.5 -15.5t90.5 -44.5q41 -41 41 -90q0 -52 -30.5 -77 t-71.5 -25q-77 0 -90 51q-2 6 -3.5 24t-3.5 25q-13 59 -79 59q-57 0 -92 -33.5t-35 -84.5q0 -46 31 -91t130 -118q113 -83 152 -149.5t39 -143.5q0 -53 -22.5 -102t-67 -91t-120.5 -67t-173 -25q-77 0 -136.5 15t-83 28t-55.5 37q-31 23 -50 60.5t-19 72.5z" />
<glyph unicode="t" horiz-adv-x="753" d="M113 123q0 46 19.5 117.5t72.5 236.5q74 220 94 303q4 20 4 27q0 12 -16 12q-10 0 -57.5 -1t-59.5 -1q-33 0 -33 27q0 19 8 43q8 20 43 22q110 11 142 25q90 38 151 162q32 69 88 69q33 0 49.5 -14t16.5 -35q0 -24 -37 -143q-8 -32 -8 -37q0 -12 24 -12q42 0 97.5 2 t60.5 2q22 0 31.5 -11t9.5 -22q0 -27 -4 -39q-13 -39 -51 -39q-10 0 -74.5 1t-95.5 1q-20 0 -27 -20q-20 -63 -61.5 -197.5t-53.5 -173.5q-39 -127 -51 -173t-12 -73q0 -51 41 -51q31 0 75 31t68 82q5 12 15 41q2 10 5.5 16t12 11t23.5 5q19 0 33 -9t14 -27q0 -13 -17 -52 q-49 -103 -154.5 -179.5t-234.5 -76.5q-65 0 -108 37t-43 113z" />
<glyph unicode="u" horiz-adv-x="1280" d="M47 680q0 29 27 68q158 215 377 215q51 0 84.5 -29t33.5 -76q0 -56 -18.5 -126.5t-83.5 -233.5q-84 -214 -84 -277q0 -55 51 -55q25 0 62.5 17.5t74.5 54.5q107 107 181 247q72 135 110 254q21 65 21 115q0 92 94 92q52 0 86.5 -6t50.5 -16.5t21.5 -21.5t5.5 -25 q0 -8 -1 -16t-5 -23t-9 -32t-15.5 -51.5t-22 -73t-31.5 -105t-41 -138.5q-55 -189 -55 -262q0 -55 49 -55q37 0 66.5 30t58.5 87q1 2 14 41q8 32 35 32q19 0 32 -7.5t13 -20.5q0 -20 -21 -68q-54 -113 -144 -177.5t-181 -64.5q-154 0 -154 125q0 46 13.5 94t58.5 179 q4 12 4 16q0 6 -10 6q-9 0 -15 -12q-49 -99 -162 -229q-160 -179 -319 -179q-180 0 -180 160q0 61 110 352q39 106 59.5 183t20.5 100q0 43 -37 43q-24 0 -56 -19t-60 -61q-16 -24 -27 -57q-10 -27 -43 -27q-17 0 -28 9.5t-11 23.5z" />
<glyph unicode="v" horiz-adv-x="1120" d="M47 678q0 27 23 63q63 93 160 157.5t204 64.5q43 0 71 -10.5t41.5 -31t18 -41.5t4.5 -49q0 -70 -110 -348q-38 -100 -51 -148t-13 -91q0 -35 24.5 -59.5t67.5 -24.5q95 0 177 47t135.5 122t83.5 166t30 181q0 72 -22.5 121t-75.5 88q-39 25 -39 57q0 33 29.5 64.5 t81.5 31.5q22 0 49 -15.5t45 -41.5q61 -89 61 -225q0 -154 -55.5 -298t-149.5 -250.5t-225.5 -170.5t-275.5 -64q-97 0 -149 48t-52 124q0 62 20.5 137t75.5 212q34 87 56 166.5t22 101.5q0 49 -35 49q-68 0 -120 -84q-17 -27 -27 -55q-10 -25 -41 -25q-17 0 -28 9.5 t-11 21.5z" />
<glyph unicode="w" horiz-adv-x="1640" d="M47 676q0 31 27 72q66 96 162 155.5t194 59.5q42 0 71.5 -11t43 -29.5t19 -35.5t5.5 -35q0 -45 -18 -106t-80 -228q-84 -225 -84 -274q0 -82 59 -82q73 0 158 95t156 278q65 166 82 323q5 44 39 64t120 20q39 0 64 -13.5t25 -41.5q0 -55 -31 -168q-33 -123 -52.5 -252 t-19.5 -205q0 -58 21.5 -79t56.5 -21q73 0 142 51.5t117 130t77 170t29 172.5q0 67 -21.5 114.5t-73.5 84.5q-39 25 -39 57q0 33 29.5 64.5t81.5 31.5q22 0 49 -15.5t45 -41.5q62 -91 62 -217q0 -117 -37.5 -236t-102 -216.5t-143.5 -175t-168 -120.5t-170 -43 q-83 0 -132.5 44.5t-49.5 138.5q0 54 22 176q4 16 4 30q0 13 -10 13q-9 0 -14 -13q-88 -192 -207.5 -290.5t-245.5 -98.5q-182 0 -182 160q0 57 19 122t83 234q31 82 55.5 166t24.5 109q0 47 -37 47q-66 0 -120 -86q-7 -13 -27 -59q-8 -19 -45 -19q-10 0 -21.5 9t-11.5 20z " />
<glyph unicode="x" horiz-adv-x="1185" d="M-51 78q0 35 22 59.5t62 24.5q17 0 49 -21q20 -12 53 -12q26 1 46.5 13.5t54.5 43.5q55 51 94 97t119 151q10 13 10 25q0 11 -6 26q-52 152 -91 234q-23 49 -38.5 63.5t-36.5 14.5q-50 0 -90 -76q-12 -23 -23 -62q-8 -32 -47 -32q-37 0 -37 37q0 18 16 51 q54 108 132.5 178t177.5 70q89 0 137 -105q43 -93 82 -223q8 -23 16 -23q10 0 21 15q58 77 164 202q114 134 243 134q111 0 111 -82q0 -47 -24 -66.5t-60 -19.5q-32 0 -53 18q-12 12 -39 12q-50 0 -119 -69q-91 -93 -188 -211q-19 -23 -19 -35q0 -11 8 -31q55 -153 103 -248 q26 -50 45 -70t51 -20q24 0 42.5 12.5t39.5 45.5q21 36 31 84q9 45 51 45q16 0 26.5 -11t10.5 -24q0 -34 -31 -98q-50 -101 -123.5 -156t-161.5 -55q-130 0 -182 114q-19 41 -32.5 76t-31 84.5t-24.5 67.5q-5 16 -16 16q-13 0 -21 -14q-116 -156 -192 -234 q-53 -53 -105 -82.5t-115 -29.5q-48 0 -80 26.5t-32 69.5z" />
<glyph unicode="y" horiz-adv-x="1179" d="M-72 -471q0 41 32.5 71.5t68.5 30.5q58 0 75 -47q19 -46 68.5 -71t99.5 -25q85 0 138 33q103 65 183 218.5t204 489.5q4 12 4 17q0 3 -3.5 6.5t-6.5 3.5q-10 0 -15 -8q-94 -128 -214 -201.5t-251 -73.5q-97 0 -143.5 41t-46.5 107q0 13 1.5 26.5t2.5 25t5.5 28.5t7 28 t10 33t11.5 34t14.5 40.5t15.5 42.5t19 50.5t21 55.5q29 77 54.5 165t25.5 110q0 51 -39 51q-61 0 -116 -84q-7 -11 -27 -57q-9 -23 -47 -23q-11 0 -22 9t-11 20q0 33 27 72q66 97 162 156t196 59q137 0 137 -117q0 -45 -22 -120.5t-84 -231.5q-1 -3 -13.5 -35t-21 -56.5 t-20 -58.5t-17.5 -64t-6 -51q0 -39 20 -52t56 -13q67 0 131.5 31t116.5 82.5t92.5 112t68.5 126.5q16 38 28.5 91.5t12.5 80.5q0 64 -11 109t-48 88q-39 46 -39 65q0 32 29.5 60t81.5 28q57 0 94 -57q59 -94 59 -266q0 -163 -65 -441q-34 -144 -80.5 -268t-116.5 -240.5 t-155 -198.5t-200.5 -131.5t-248.5 -49.5q-146 0 -213 39q-32 19 -51 47t-19 57z" />
<glyph unicode="z" horiz-adv-x="997" d="M-51 43q0 9 4 17t8 12.5t12 11.5t9 8q105 100 206.5 194t233 214.5t217.5 199.5q12 12 12 25q0 16 -22 16q-41 0 -111 5.5t-104 5.5q-105 0 -150 -25q-44 -23 -61 -92q-6 -23 -31 -23q-16 0 -32.5 5.5t-16.5 17.5q0 6 6 24q16 41 38 135.5t28 110.5q8 23 31.5 34t49.5 11 q55 0 227.5 -13t289.5 -13q50 0 70 7.5t42 35.5q11 16 27 16q18 0 35.5 -11.5t17.5 -31.5q0 -8 -16 -35q-82 -97 -161 -180t-172.5 -166t-158.5 -137t-186 -152q-15 -12 -15 -22q0 -12 29 -15q41 -3 69.5 -10t83 -21t128.5 -28q71 -14 155 -14q54 0 77 21.5t34 99.5 q8 30 49 30q14 0 23.5 -8t9.5 -20q0 -29 -19 -119.5t-38 -130.5q-18 -35 -44 -54.5t-51 -24.5t-61 -5q-78 0 -320 57q-211 49 -282 49q-54 0 -86 -37q-18 -18 -35 -18q-22 0 -35.5 12t-13.5 31z" />
<glyph unicode="{" horiz-adv-x="749" d="M68 631q0 26 16 43t45 20q84 10 137 58.5t82 162.5q3 11 28.5 133.5t33.5 155.5q29 128 76.5 201.5t138 112t237.5 38.5q37 0 50.5 -11t13.5 -36q0 -23 -14.5 -39t-34.5 -16q-6 0 -24 1t-24 1q-80 0 -122.5 -56t-75.5 -194q-6 -25 -19 -84t-24 -106t-15 -62 q-39 -133 -92 -201t-155 -108q-15 -6 -15 -12q0 -7 13 -12q55 -27 86.5 -71t31.5 -120q0 -34 -14.5 -100t-39 -158t-32.5 -129q-16 -86 -16 -131q0 -125 115 -125q3 0 17 1t20 1q32 0 32 -35q0 -36 -24 -50.5t-70 -14.5q-166 0 -239.5 51t-73.5 162q0 56 24 166q8 35 34 123 t42 156t16 110q0 65 -31.5 94t-99.5 37q-34 3 -34 43z" />
<glyph unicode="|" horiz-adv-x="516" d="M-8 -295q0 7 6 31l412 1792q7 26 25.5 37.5t70.5 11.5q47 0 63.5 -8.5t16.5 -26.5q0 -25 -6 -43l-412 -1786q-7 -27 -25 -37t-73 -10q-43 0 -60.5 9t-17.5 30z" />
<glyph unicode="}" horiz-adv-x="749" d="M-139 -264q0 23 14.5 39t34.5 16q6 0 23.5 -1t23.5 -1q81 0 125 57t74 193q40 195 59 268q35 131 89 197.5t159 107.5q14 6 14 13t-12 12q-55 27 -87 70.5t-32 119.5q0 34 14 97t37.5 150.5t32.5 125.5q16 86 16 131q0 125 -114 125q-4 0 -17 -1t-20 -1q-16 0 -24.5 10 t-8.5 25q0 36 24 50.5t70 14.5q166 0 240 -51t74 -162q0 -50 -25 -165q-9 -37 -34 -120t-40.5 -148t-15.5 -107q0 -65 31.5 -94t99.5 -37q35 -3 35 -43q0 -26 -16.5 -43.5t-45.5 -20.5q-85 -10 -139 -59t-80 -162q-41 -206 -63 -301q-29 -128 -76.5 -201.5t-138.5 -112 t-238 -38.5q-36 0 -49.5 11t-13.5 36z" />
<glyph unicode="~" horiz-adv-x="1314" d="M168 471q0 11 12 23q161 200 305 200q49 0 95 -15.5t139 -70.5q105 -63 174 -63q76 0 174 125q13 16 29 16q9 0 20 -8l70 -60q6 -4 6 -16t-10 -22q-153 -197 -310 -197q-81 0 -206 70q-86 50 -122.5 66t-66.5 16q-44 0 -84.5 -29.5t-103.5 -99.5q-12 -15 -23 -15t-20 6 l-68 54q-10 7 -10 20z" />
<glyph unicode="&#xa1;" horiz-adv-x="653" d="M-47 -338q0 63 51 201q18 48 98 245.5t131 340.5q11 33 27 50t49 17q30 0 40.5 -13t10.5 -34q0 -25 -6 -61q-17 -146 -30 -306t-21 -259t-16 -142q-17 -88 -64.5 -121t-122.5 -33q-70 0 -108.5 30.5t-38.5 84.5zM201 793q0 81 46.5 134.5t127.5 53.5q66 0 105.5 -40 t39.5 -99q0 -88 -49.5 -137.5t-130.5 -49.5q-54 0 -96.5 37.5t-42.5 100.5z" />
<glyph unicode="&#xa2;" horiz-adv-x="1130" d="M152 317q0 244 147 424q66 81 170 134t223 59q8 0 16 6.5t9 15.5l35 154q9 39 55 39q47 0 47 -29q0 -10 -4 -26l-27 -125q-4 -16 -4 -25q0 -13 27 -16q50 -3 97 -20.5t81.5 -51.5t34.5 -76q0 -46 -25.5 -76t-77.5 -30q-41 0 -60.5 21t-21.5 53q-4 47 -14 67 q-14 29 -45 29q-18 0 -27 -33l-159 -688q-2 -8 -2 -17q0 -14 22 -14q2 0 9 1t8 1q63 9 118 47.5t90 94.5q19 27 29 53q11 28 43 28q41 0 41 -38q0 -29 -22 -60q-57 -84 -144.5 -146t-199.5 -79q-24 -3 -29 -27l-31 -129q-7 -41 -57 -41q-21 0 -33 9t-12 20q0 23 4 39l18 82 q4 16 4 26q0 16 -22 19q-138 14 -224.5 99.5t-86.5 225.5zM422 287q0 -134 57 -178q17 -13 27 -13q12 0 16 21l156 682q4 16 4 26q0 13 -14 13q-17 0 -35 -9q-86 -32 -154 -225q-57 -160 -57 -317z" />
<glyph unicode="&#xa3;" horiz-adv-x="1288" d="M16 61q0 37 47 58q70 34 119 49q133 42 191 207q22 60 33 133q0 27 -23 27h-139q-37 0 -37 47q0 28 16 47.5t45 19.5h131q23 0 27 23q2 15 4.5 95t5.5 112q20 193 163 307t368 114q172 0 247.5 -53t75.5 -133q0 -56 -36.5 -86.5t-86.5 -30.5q-55 0 -83 21.5t-31 77.5 q-5 66 -29 90q-25 28 -88 28q-35 0 -65 -12t-59 -39.5t-49.5 -79.5t-29.5 -125q-20 -179 -20 -288q0 -21 22 -21h230q34 0 34 -39q0 -75 -55 -75h-235q-10 0 -17.5 -6.5t-9.5 -14.5q-17 -47 -30 -75.5t-39.5 -65t-68 -69t-104.5 -68.5q-18 -11 -18 -25q0 -11 18 -14 q218 -26 222 -27q231 -33 323 -33t113 29q25 29 30 72q2 8 2 34q5 37 50 37q24 0 34.5 -12t10.5 -39q0 -28 -25.5 -94t-64.5 -119q-51 -69 -102.5 -100t-123.5 -31q-86 0 -196 22.5t-172 41t-166 53.5q-123 39 -172 39q-52 0 -99 -41q-21 -19 -45 -19q-20 0 -31.5 16 t-11.5 35z" />
<glyph unicode="&#xa4;" horiz-adv-x="954" d="M133 242q0 15 17 32l75 76q11 11 11 21q0 7 -7 18q-55 76 -55 186q0 104 55 179q9 14 9 20q0 10 -11 21l-77 73q-13 13 -13 25q0 24 28.5 51t49.5 27q16 0 27 -15l69 -79q10 -13 23 -13q9 0 18 6q81 48 166 48q105 0 170 -46q9 -6 17 -6t24 13l59 67q27 27 46 27 q22 0 44.5 -23.5t22.5 -46.5q0 -10 -16 -26l-80 -80q-8 -8 -8 -21q0 -11 6 -20q53 -79 53 -181q0 -107 -55 -182q-6 -9 -6 -20q0 -13 10 -23l78 -74q14 -11 14 -28q0 -23 -24.5 -45.5t-43.5 -22.5t-32 13l-80 81q-8 11 -23 11q-6 0 -20 -9q-72 -38 -162 -38q-108 0 -166 32 q-9 6 -16 6q-14 0 -23 -12l-65 -69q-21 -21 -37 -21q-27 0 -49.5 21.5t-22.5 46.5zM293 573q0 -104 64 -167.5t161 -63.5q90 0 155.5 63.5t65.5 169.5q0 104 -61 171t-160 67t-162 -69t-63 -171z" />
<glyph unicode="&#xa5;" horiz-adv-x="1497" d="M188 412q0 25 12 47t38 22h331q23 0 29 13q10 13 10 43q0 15 -6 30l-20 49q-10 19 -27 19h-270q-18 0 -27.5 9.5t-9.5 23.5q0 28 12 49.5t39 21.5h199q24 0 24 17q0 6 -6 24l-59 146q-54 130 -88 204q-19 44 -72 44q-5 0 -22.5 -1.5t-22.5 -1.5q-35 0 -35 43q0 68 55 68 q7 0 52.5 -3t111 -6t123.5 -3q42 0 165 6t130 6q26 0 34.5 -9t8.5 -34t-13 -45t-38 -20q-9 0 -29.5 1t-30.5 1q-81 0 -81 -62q0 -78 45 -180l73 -176q13 -33 19 -42t14 -9q19 0 59 47l160 182q78 90 107.5 133t29.5 64q0 24 -15 33.5t-54 9.5q-20 0 -39 -1t-23 -1 q-37 0 -37 38q0 27 14 48.5t46 21.5l97 -6q97 -6 177 -6t140 6t63 6q28 0 38.5 -8.5t10.5 -34.5t-13.5 -45.5t-33.5 -19.5q-3 0 -20 1t-23 1q-51 0 -102 -41q-77 -60 -211 -205l-144 -156q-16 -16 -16 -22q0 -13 20 -13h193q41 0 41 -34q0 -23 -12 -46.5t-39 -23.5h-293 q-16 0 -33 -17l-39 -47q-16 -20 -22 -41q-4 -16 -4 -34q0 -6 5.5 -10.5t12.5 -4.5h326q21 0 29 -8t8 -31t-13 -44t-43 -21h-332q-24 0 -30 -25l-11 -45q-20 -87 -20 -137q0 -31 18 -49q21 -21 72 -21q3 0 25.5 1t31.5 1q13 0 22 -9.5t9 -26.5q0 -30 -14 -50t-43 -20 q-5 0 -53.5 3t-117.5 6t-124 3q-56 0 -124 -3t-115.5 -6t-51.5 -3q-47 0 -47 43q0 24 15.5 43.5t41.5 19.5q6 0 23 -1t22 -1q73 0 101 41q29 37 47 119l12 55q8 32 8 39q0 23 -22 23h-320q-39 0 -39 35z" />
<glyph unicode="&#xa6;" horiz-adv-x="516" d="M-2 -268q0 6 6 30l152 662q7 26 25.5 37.5t70.5 11.5q47 0 63.5 -8.5t16.5 -26.5q0 -25 -6 -43l-152 -655q-7 -27 -25 -37t-73 -10q-43 0 -60.5 9t-17.5 30zM233 754q0 2 7 30l151 662q7 26 25.5 37.5t70.5 11.5q47 0 63.5 -8.5t16.5 -26.5q0 -25 -6 -43l-151 -655 q-6 -27 -25 -37t-74 -10q-43 0 -60.5 9t-17.5 30z" />
<glyph unicode="&#xa7;" horiz-adv-x="1005" d="M-41 -125q0 53 32 83t77 30q93 0 102 -88q8 -76 33 -101q23 -26 90 -26q78 0 126 40t48 121q0 110 -178 283q-107 105 -151 181t-44 153q0 223 277 309q9 3 15.5 9.5t6.5 11.5q0 4 -2 8t-5.5 8.5t-4.5 5.5q-53 75 -53 168q0 79 34.5 140t94.5 97t132.5 54t155.5 18 q145 0 216 -50.5t71 -125.5q0 -104 -100 -104q-44 0 -69.5 19.5t-28.5 45.5q-7 61 -35 97q-22 24 -82 24q-68 0 -114 -37t-46 -98q0 -57 34.5 -108t133.5 -142q215 -195 215 -348q0 -211 -272 -301q-23 -9 -23 -23q0 -19 6 -28q64 -88 64 -191q0 -108 -59.5 -186t-155 -115 t-213.5 -37q-155 0 -241.5 54t-86.5 149zM313 653q0 -45 34 -97.5t116 -143.5q62 -67 90 -93q16 -16 37 -16q23 0 39 12q86 52 86 146q0 106 -187 274q-13 11 -33.5 30.5t-33.5 31.5q-10 10 -25 10q-20 0 -37 -10q-37 -21 -61.5 -60.5t-24.5 -83.5z" />
<glyph unicode="&#xa8;" horiz-adv-x="593" d="M14 1241q0 54 32.5 89.5t88.5 35.5q45 0 76 -27.5t31 -76.5q0 -55 -32.5 -93.5t-86.5 -38.5q-46 0 -77.5 29.5t-31.5 81.5zM352 1241q0 54 32.5 89.5t88.5 35.5q45 0 76 -27.5t31 -76.5q0 -55 -32.5 -93.5t-86.5 -38.5q-46 0 -77.5 29.5t-31.5 81.5z" />
<glyph unicode="&#xa9;" horiz-adv-x="1648" d="M164 682q0 195 94 357t256.5 254.5t357.5 92.5q145 0 274 -53.5t222 -145.5t147 -221.5t54 -275.5q0 -150 -54.5 -284t-147 -230t-221 -151.5t-272.5 -55.5q-150 0 -282.5 55t-226 150t-147.5 227t-54 281zM254 682q0 -176 81.5 -320.5t224.5 -227.5t317 -83 q126 0 238 49t191.5 132.5t126 199t46.5 244.5q0 133 -46 250t-126 202t-193.5 134t-243.5 49q-173 0 -314.5 -84t-221.5 -228t-80 -317zM444 631q0 97 31 182.5t91.5 153t159 106.5t224.5 39q128 0 232 -31q30 -10 30 -37q0 -6 -1 -24.5t-2.5 -58.5t-2.5 -93q0 -24 -37 -24 q-31 0 -34 24q-11 86 -31 115q-38 51 -178 51q-73 0 -130 -37.5t-90 -97.5t-50 -127t-17 -135q0 -144 59 -223.5t158 -79.5q132 0 191 65q32 36 63 95q14 24 33 24q39 0 39 -24q0 -9 -19.5 -63.5t-34.5 -84.5q-13 -26 -55 -43q-103 -49 -244 -49q-190 0 -287.5 105 t-97.5 272z" />
<glyph unicode="&#xaa;" horiz-adv-x="706" d="M70 698q0 156 112 297q126 160 295 160q58 0 96 -10q20 -10 35 -10q12 0 19 10l12 24q9 23 51 23q41 0 41 -27q0 -15 -6 -30q-53 -149 -92 -285q-35 -118 -35 -158q0 -33 33 -33q28 0 59 39q23 29 29 54q6 18 26 18q13 0 22 -7t9 -18q0 -18 -22 -53q-28 -52 -86 -89.5 t-115 -37.5q-42 0 -68 21t-26 57q0 49 16 96q10 35 10 37q0 6 -8 6q-7 0 -12 -10q-7 -11 -21 -36t-22 -36q-53 -81 -109 -109t-120 -28q-57 0 -90 38.5t-33 96.5zM236 735q0 -59 38 -59q43 0 84 41q61 61 111 155q35 72 49 119q12 40 12 60q0 41 -55 41q-39 0 -70.5 -25.5 t-70.5 -77.5q-45 -61 -71.5 -133.5t-26.5 -120.5z" />
<glyph unicode="&#xab;" horiz-adv-x="1003" d="M45 500q0 20 10.5 33t34.5 28q53 33 107 68.5t90 60t99 68.5t103 71q42 29 62 29t32.5 -16.5t12.5 -38.5q0 -16 -37 -53q-35 -35 -72 -68.5t-86.5 -78t-87.5 -79.5q-12 -12 -12 -22q0 -11 6 -25q54 -94 131 -235q13 -26 13 -41q0 -16 -16.5 -31.5t-37.5 -15.5t-55 34 q-55 57 -281 271q-16 16 -16 41zM455 500q0 20 10.5 33t34.5 28q53 33 107 68.5t90 60t99 68.5t103 71q42 29 62 29t32.5 -16.5t12.5 -38.5q0 -16 -37 -53q-35 -35 -72 -68.5t-86.5 -78t-87.5 -79.5q-12 -12 -12 -22q0 -11 6 -25q54 -94 131 -235q12 -24 12 -41 q0 -16 -16 -31.5t-37 -15.5t-55 34q-55 57 -281 271q-16 16 -16 41z" />
<glyph unicode="&#xac;" horiz-adv-x="1314" d="M186 494q0 4 4 24l23 88q1 13 11 21t22 8h919q25 0 25 -23q0 -4 -4 -24l-123 -522q-6 -27 -33 -27h-115q-24 0 -24 20q0 4 1 10l2.5 15t2.5 14l86 373h-772q-25 0 -25 23z" />
<glyph unicode="&#xad;" horiz-adv-x="569" d="M61 467q0 58 29 121q15 37 51 37h355q47 0 47 -43q0 -16 -8 -54t-17 -59q-11 -26 -22.5 -35.5t-34.5 -9.5h-357q-43 0 -43 43z" />
<glyph unicode="&#xae;" horiz-adv-x="1648" d="M164 682q0 195 94 357t256.5 254.5t357.5 92.5q145 0 274 -53.5t222 -145.5t147 -221.5t54 -275.5q0 -150 -54.5 -284t-147 -230t-221 -151.5t-272.5 -55.5q-150 0 -282.5 55t-226 150t-147.5 227t-54 281zM254 682q0 -176 81.5 -320.5t224.5 -227.5t317 -83 q126 0 238 49t191.5 132.5t126 199t46.5 244.5q0 133 -46 250t-126 202t-193.5 134t-243.5 49q-173 0 -314.5 -84t-221.5 -228t-80 -317zM416 322q0 36 28 36q3 0 14.5 -1t14.5 -1q40 0 59 29q25 35 37 92l93 422q14 57 14 86q0 31 -15 42t-51 11q-4 0 -17 -1t-15 -1 q-25 0 -25 33q0 15 9.5 30t27.5 15q4 0 41 -1t85 -2t81 -1q15 0 88 2t100 2q139 0 205.5 -52t66.5 -134q0 -96 -63.5 -157t-167.5 -79q-16 -2 -16 -10q0 -4 10 -12q22 -13 43.5 -41.5t30.5 -50.5q14 -29 36 -84t35 -78q22 -37 40 -50.5t40 -13.5q2 0 11.5 2t17.5 2 q9 0 15.5 -8.5t6.5 -17.5q0 -17 -5.5 -27t-24.5 -14q-40 -8 -113 -8q-56 0 -92 15.5t-62 51.5q-24 32 -61 146q-33 104 -64 139q-20 22 -43 29q-8 2 -22 2q-22 0 -29 -31l-35 -154q-10 -57 -10 -71q0 -18 2.5 -27.5t16.5 -17t41 -7.5q5 0 15.5 1t14.5 1q31 0 31 -28 q0 -43 -33 -43q-2 0 -38.5 2t-86.5 4t-84 2q-33 0 -73.5 -2t-68.5 -4t-30 -2q-11 0 -18.5 9t-7.5 26zM813 772q0 -33 64 -33q76 0 130 46t54 135q0 60 -29.5 94.5t-81.5 34.5q-36 0 -57 -7q-23 -6 -29 -38l-45 -195q-6 -20 -6 -37z" />
<glyph unicode="&#xaf;" horiz-adv-x="595" d="M31 1149q0 58 17 86.5t40 28.5h438q37 0 37 -45q0 -107 -57 -107h-432q-43 0 -43 37z" />
<glyph unicode="&#xb0;" horiz-adv-x="579" d="M215 1141q0 106 72 173.5t172 67.5q102 0 171.5 -64t69.5 -175t-71.5 -177.5t-169.5 -66.5q-107 0 -175.5 63.5t-68.5 178.5zM317 1141q0 -74 39.5 -114t104.5 -40q58 0 98.5 40.5t40.5 113.5t-37.5 113t-103.5 40q-61 0 -101.5 -40.5t-40.5 -112.5z" />
<glyph unicode="&#xb1;" horiz-adv-x="1314" d="M80 25q0 6 4 14l20 96q9 27 37 27h918q24 0 24 -23l-1 -5q-1 -5 -1 -11l-24 -96q-6 -27 -31 -27h-922q-24 0 -24 25zM225 715l4 16l23 96q3 29 33 29h372l93 385q3 27 30 27h119q23 0 23 -21q0 -6 -4 -16l-87 -375h371q27 0 27 -22q0 -9 -4 -17l-23 -100q-6 -25 -31 -25 h-374l-90 -387q-6 -26 -31 -26h-117q-27 0 -27 20q0 4 1 8.5t3 10t3 8.5l84 366h-373q-25 0 -25 23z" />
<glyph unicode="&#xb2;" horiz-adv-x="768" d="M143 852q0 24 31 43q170 99 245 159q196 160 197 347q0 57 -31.5 88t-74.5 31q-59 0 -107 -31q-33 -21 -55 -70q-12 -28 -43 -28q-41 0 -41 34q0 23 21 54q32 52 105.5 93.5t189.5 41.5q123 0 186 -58t63 -151q0 -94 -52 -160.5t-159 -146.5q-72 -53 -174 -111 q-16 -10 -16 -16t16 -6q53 -2 144 -2q71 0 104.5 6.5t49.5 22.5t28 52q9 27 39 27q33 0 33 -27q0 -16 -6 -40q-34 -138 -37 -160q-8 -25 -54 -25q-1 0 -38.5 1.5t-100.5 3t-127 1.5q-75 0 -145.5 -1.5t-113.5 -3t-50 -1.5q-14 0 -20.5 10t-6.5 23z" />
<glyph unicode="&#xb3;" horiz-adv-x="768" d="M174 842q0 22 13 40.5t40 18.5q11 0 43 -16q26 -11 68 -11q121 0 182.5 47.5t61.5 165.5q0 119 -103 119q-38 0 -88 -12q-24 -6 -35 -6q-28 0 -28 37q0 19 14 30t39 13q67 5 117 24q59 28 81.5 62t22.5 82q0 46 -22.5 71t-61.5 25q-67 0 -110 -37q-18 -16 -39 -47 q-11 -21 -39 -21q-14 0 -24.5 9.5t-10.5 25.5q0 22 20 45q102 105 273 105q223 0 223 -158q0 -61 -59.5 -107.5t-159.5 -70.5q-19 -5 -19 -10q0 -7 19 -9q105 -7 158 -52.5t53 -112.5q0 -85 -50 -148t-131 -95.5t-165 -47.5t-170 -15q-53 0 -83 16.5t-30 39.5z" />
<glyph unicode="&#xb4;" horiz-adv-x="600" d="M109 1108q0 21 20 45q89 125 180 260q40 60 97 60q44 0 63.5 -22.5t19.5 -55.5q0 -42 -40 -82q-71 -71 -246 -213q-34 -27 -58 -27q-36 0 -36 35z" />
<glyph unicode="&#xb5;" horiz-adv-x="1333" d="M-90 -457q0 32 12 64q71 189 146.5 393.5t114 308t67.5 176.5q40 104 60 181.5t20 101.5q0 43 -37 43q-25 0 -57 -19.5t-60 -60.5q-14 -21 -26 -57q-10 -27 -44 -27q-17 0 -27.5 9.5t-10.5 23.5q0 30 26 68q158 215 377 215q52 0 85.5 -29t33.5 -76q0 -56 -19 -126 t-84 -234q-84 -214 -84 -277q0 -55 52 -55q25 0 63.5 17.5t75.5 54.5q100 100 178 247q75 140 111 254q16 51 22 115q5 44 24.5 68t67.5 24q52 0 86 -6t49 -16.5t20 -21t5 -25.5q0 -21 -11 -63t-54 -187q-11 -35 -17 -56.5t-17.5 -59.5t-21.5 -73q-55 -189 -55 -262 q0 -55 49 -55q37 0 66.5 30t58.5 87q1 2 14 41q8 32 35 32q19 0 32 -7.5t13 -20.5q0 -22 -20 -68q-54 -113 -144.5 -177.5t-181.5 -64.5q-153 0 -153 125q0 47 13.5 96.5t57.5 176.5q4 12 4 16q0 6 -10 6q-8 0 -14 -12q-69 -137 -148 -229q-84 -94 -136.5 -128t-102.5 -34 q-56 0 -88 37q-15 18 -21 18q-9 0 -16 -18q-26 -78 -51 -179q-56 -234 -78 -305q-22 -61 -131 -61q-119 0 -119 61z" />
<glyph unicode="&#xb6;" horiz-adv-x="1073" d="M41 -444q0 40 22 68t60 28q5 0 36 -7t50 -7q97 0 181.5 64.5t135.5 186.5q35 80 76 252q8 40 8 52q0 14 -7 20t-25 6q-4 0 -27 -1t-41 -1q-149 0 -259 113.5t-110 292.5q0 142 53.5 257t148.5 192t225 118.5t284 42.5q14 0 29 9t22 24q24 49 68 90q59 53 133 53 q63 0 63 -61q0 -31 -19 -49.5t-42 -20.5q-27 -3 -42 -5.5t-34 -11t-33 -24.5q-32 -34 -51 -113l-225 -979q-34 -149 -81 -261t-126 -197q-77 -85 -190 -138t-213 -53q-33 0 -51.5 16.5t-18.5 43.5z" />
<glyph unicode="&#xb7;" horiz-adv-x="497" d="M115 545q0 88 49.5 137t130.5 49q54 0 96.5 -37t42.5 -100q0 -81 -46.5 -134.5t-127.5 -53.5q-66 0 -105.5 40t-39.5 99z" />
<glyph unicode="&#xb8;" horiz-adv-x="583" d="M92 -481q0 21 16.5 34.5t47.5 14.5q66 2 111 28.5t48 81.5q0 68 -75 93q-29 11 -29 36q0 23 20 62q35 71 76 139h88q-51 -97 -51 -114q0 -19 21 -27q127 -40 127 -156q0 -58 -35.5 -106.5t-90 -77t-113.5 -44t-112 -15.5q-49 0 -49 51z" />
<glyph unicode="&#xb9;" horiz-adv-x="768" d="M256 852q0 43 37 43q3 0 19.5 -1t19.5 -1q44 0 63 33q24 39 39 112l66 281q18 88 18 104q0 31 -35 31q-13 0 -40 -2t-29 -2q-9 0 -15 8t-6 17q0 41 39 49q40 8 132.5 41t127.5 49q20 8 33 8q23 0 23 -25q0 -12 -17 -65q-18 -61 -45 -176l-74 -314q-12 -64 -12 -98 q0 -51 55 -51q3 0 19 1t22 1q25 0 25 -25q0 -51 -41 -51q-4 0 -37.5 2t-79.5 4t-80 2q-33 0 -79 -2t-79.5 -4t-37.5 -2q-14 0 -22.5 9.5t-8.5 23.5z" />
<glyph unicode="&#xba;" horiz-adv-x="727" d="M135 770q0 80 30.5 158t84.5 135q45 47 115 75.5t145 28.5q113 0 174 -56.5t61 -147.5q0 -79 -26 -155t-74 -132q-45 -52 -118 -84.5t-150 -32.5q-119 0 -180.5 56.5t-61.5 154.5zM301 715q0 -40 20.5 -67t55.5 -27q36 0 62 18t50 57q37 59 65 161t28 159q0 88 -72 88 q-65 0 -115 -76q-43 -67 -68.5 -153t-25.5 -160z" />
<glyph unicode="&#xbb;" horiz-adv-x="1003" d="M-4 209q0 16 37 53q46 46 130 120.5t116 104.5q12 12 12 23t-6 25q-54 94 -131 235q-13 26 -13 41q0 16 16.5 31.5t37.5 15.5q20 0 55 -35q55 -56 280 -270q17 -17 17 -41q0 -20 -10.5 -33t-34.5 -28q-69 -43 -126 -81t-148 -101t-126 -87q-40 -28 -61 -28 q-20 0 -32.5 16.5t-12.5 38.5zM406 209q0 17 36 53q46 46 130 120.5t116 104.5q12 12 12 23t-6 25q-54 94 -131 235q-12 24 -12 41q0 16 16 31.5t37 15.5q20 0 55 -35q50 -51 97 -96.5t106 -100.5t78 -73q16 -16 16 -41q0 -20 -10.5 -33t-34.5 -28q-69 -42 -127.5 -81.5 t-144.5 -99.5t-127 -88q-40 -28 -61 -28q-20 0 -32.5 16.5t-12.5 38.5z" />
<glyph unicode="&#xbc;" horiz-adv-x="1671" d="M164 537q0 43 37 43q3 0 19.5 -1t19.5 -1q45 0 63 32q23 39 39 113l66 281q18 88 18 104q0 31 -35 31q-13 0 -40 -2t-29 -2q-9 0 -15 7.5t-6 16.5q0 41 39 49q40 8 132.5 41t127.5 49q22 9 33 9q22 0 22 -25q0 -15 -16 -65q-17 -57 -45 -177l-74 -313q-12 -65 -12 -98 q0 -51 55 -51q3 0 19 1t22 1q25 0 25 -25q0 -51 -41 -51q-4 0 -37.5 2t-79.5 4t-80 2q-33 0 -79 -2t-79.5 -4t-37.5 -2q-14 0 -22.5 9.5t-8.5 23.5zM414 25q0 13 20 43l789 1177q14 21 27 29t40 8q41 0 41 -29q0 -9 -14 -32l-797 -1192q-23 -33 -61 -33q-45 0 -45 29z M823 219q0 42 31 70q76 72 241 230.5t263 250.5q30 33 80 33q59 0 59 -23q0 -13 -24 -114l-76 -328q-2 -8 -2 -16q0 -11 18 -11h78q27 0 27 -24q0 -31 -15 -66q-12 -28 -37 -28h-84q-17 0 -22 -25l-37 -158q-5 -23 -23 -32t-73 -9q-38 0 -58 5.5t-24 12t-4 17.5q0 3 4 23 l31 129q4 20 4 22q0 12 -21 12h-301q-35 0 -35 29zM989 317q0 -10 17 -10h176q19 0 24.5 4.5t7.5 16.5q30 128 58 237q4 20 4 21q0 6 -6 6q-5 0 -17 -12q-168 -168 -256 -250q-8 -5 -8 -13z" />
<glyph unicode="&#xbd;" horiz-adv-x="1671" d="M133 537q0 43 37 43q3 0 19.5 -1t19.5 -1q45 0 63 32q23 39 39 113l66 281q18 88 18 104q0 31 -35 31q-13 0 -40 -2t-29 -2q-9 0 -15 7.5t-6 16.5q0 41 39 49q40 8 132.5 41t127.5 49q22 9 33 9q23 0 23 -25q0 -12 -17 -65q-17 -57 -45 -177l-74 -313q-12 -65 -12 -98 q0 -51 55 -51q2 0 19 1t22 1q25 0 25 -25q0 -51 -41 -51q-4 0 -37.5 2t-79.5 4t-80 2q-33 0 -79 -2t-79.5 -4t-37.5 -2q-14 0 -22.5 9.5t-8.5 23.5zM383 25q0 13 20 43l789 1177q14 21 27.5 29t40.5 8q40 0 40 -29q0 -9 -14 -32l-797 -1192q-23 -33 -61 -33q-45 0 -45 29z M872 33q0 24 31 43q169 99 243 158q200 159 200 348q0 56 -32 87t-75 31q-59 0 -106 -30q-35 -22 -56 -70q-12 -29 -43 -29q-41 0 -41 35q0 22 21 53q33 52 106 94t189 42q123 0 186.5 -58t63.5 -151q0 -94 -52 -160.5t-159 -146.5q-72 -53 -174 -111q-17 -10 -17 -16 q0 -7 17 -7q53 -2 143 -2q70 0 104 7t50 23t28 52q9 27 39 27q33 0 33 -27q0 -17 -6 -41q-34 -139 -37 -159q-8 -25 -53 -25q-1 0 -38.5 1.5t-101 3t-127.5 1.5q-75 0 -145.5 -1.5t-113.5 -3t-50 -1.5q-14 0 -20.5 10t-6.5 23z" />
<glyph unicode="&#xbe;" horiz-adv-x="1671" d="M152 526q0 23 13 41.5t40 18.5q9 0 43 -17q23 -10 67 -10q121 0 182.5 47.5t61.5 165.5q0 119 -102 119q-38 0 -88 -12q-28 -7 -35 -7q-29 0 -29 37q0 19 14 30t39 13q63 5 117 25q60 28 82.5 61.5t22.5 81.5q0 47 -22.5 72t-61.5 25q-68 0 -111 -37q-18 -16 -39 -47 q-10 -21 -39 -21q-14 0 -24.5 9.5t-10.5 25.5q0 21 21 45q101 104 272 104q223 0 223 -157q0 -61 -59.5 -107.5t-159.5 -70.5q-18 -5 -18 -11t18 -8q105 -7 158 -53t53 -113q0 -69 -34 -123.5t-87 -88t-123.5 -55t-137 -30t-134.5 -8.5q-53 0 -82.5 16t-29.5 39zM479 25 q0 11 21 43l788 1177q14 21 27.5 29t40.5 8q41 0 41 -29q0 -7 -15 -32l-796 -1192q-23 -33 -62 -33q-45 0 -45 29zM858 219q0 42 31 70q76 72 241 230.5t263 250.5q30 33 80 33q59 0 59 -23q0 -9 -25 -114l-75 -328q-2 -8 -2 -16q0 -11 18 -11h78q26 0 26 -24q0 -34 -14 -66 q-12 -28 -37 -28h-84q-17 0 -22 -25l-37 -158q-5 -23 -23 -32t-73 -9q-38 0 -58 5.5t-24 12t-4 17.5q0 3 4 23l30 129q4 20 4 22q0 12 -20 12h-301q-35 0 -35 29zM1024 317q0 -10 16 -10h177q19 0 24.5 4.5t7.5 16.5q30 128 58 237q4 20 4 21q0 6 -6 6q-5 0 -17 -12 q-168 -168 -256 -250q-8 -5 -8 -13z" />
<glyph unicode="&#xbf;" horiz-adv-x="989" d="M-45 -174q0 71 23 129.5t70 105.5t99 81t127 73q147 76 188.5 113t41.5 92q0 9 -1 28t-1 27q0 23 15.5 36t39.5 13q37 0 51.5 -24t14.5 -78q0 -104 -47 -173.5t-146 -144.5q-178 -134 -178 -307q0 -57 34.5 -91t82.5 -34q123 0 145 131q2 8 3.5 22.5t2.5 31t2 22.5 q12 94 129 94q51 0 81 -29.5t30 -74.5q0 -77 -41 -135.5t-108 -91t-142 -48.5t-154 -16q-174 0 -268 69.5t-94 178.5zM440 793q0 81 46.5 134.5t127.5 53.5q66 0 106 -40t40 -99q0 -88 -49.5 -137.5t-130.5 -49.5q-54 0 -97 37.5t-43 100.5z" />
<glyph unicode="&#xc0;" horiz-adv-x="1501" d="M-92 39q0 24 12.5 43.5t36.5 19.5q3 0 17 -1t22 -1q42 0 78 41q51 51 119 158q69 109 201 315.5t219.5 346.5t136.5 225q34 61 45 92q14 37 51 55q32 15 81 29t83 14q39 0 45 -43q1 -5 2 -16.5t3.5 -35.5t6.5 -58q27 -200 141 -924q16 -108 43 -160q20 -39 84 -39 q6 0 17 1t16 1q16 0 26.5 -12t10.5 -33q0 -59 -55 -59q-4 0 -131.5 6t-178.5 6q-50 0 -173 -6t-124 -6q-38 0 -38 41q0 25 12.5 44t38.5 19q6 0 28 -1t25 -1q72 0 93.5 19.5t21.5 60.5q0 35 -11 119l-16 135q-4 38 -17 51t-44 13h-314q-25 0 -37.5 -10t-31.5 -39l-95 -148 q-1 -1 -16 -25t-19.5 -32.5t-14.5 -28.5t-13.5 -36t-3.5 -32q0 -24 22.5 -35.5t77.5 -11.5q9 0 25 1l16 1q37 0 37 -41q0 -63 -49 -63q-2 0 -125.5 6t-173.5 6q-53 0 -113 -6t-63 -6q-37 0 -37 41zM557 625q0 -15 12 -20t52 -5h178q63 0 63 29q0 21 -4 53l-39 322 q-3 20 -14 20q-15 0 -31 -27l-192 -323q-25 -38 -25 -49zM670 1700q0 34 35.5 65t70.5 31q43 0 74 -39q45 -56 207 -231q20 -24 20 -41q0 -19 -16 -32t-33 -13q-20 0 -45 14q-137 72 -274 170q-39 29 -39 76z" />
<glyph unicode="&#xc1;" horiz-adv-x="1501" d="M-92 39q0 24 12.5 43.5t36.5 19.5q3 0 17 -1t22 -1q42 0 78 41q51 51 119 158q69 109 201 315.5t219.5 346.5t136.5 225q34 61 45 92q14 37 51 55q32 15 81 29t83 14q39 0 45 -43q1 -5 2 -16.5t3.5 -35.5t6.5 -58q27 -200 141 -924q16 -108 43 -160q20 -39 84 -39 q6 0 17 1t16 1q16 0 26.5 -12t10.5 -33q0 -59 -55 -59q-4 0 -131.5 6t-178.5 6q-50 0 -173 -6t-124 -6q-38 0 -38 41q0 25 12.5 44t38.5 19q6 0 28 -1t25 -1q72 0 93.5 19.5t21.5 60.5q0 35 -11 119l-16 135q-4 38 -17 51t-44 13h-314q-25 0 -37.5 -10t-31.5 -39l-95 -148 q-1 -1 -16 -25t-19.5 -32.5t-14.5 -28.5t-13.5 -36t-3.5 -32q0 -24 22.5 -35.5t77.5 -11.5q9 0 25 1l16 1q37 0 37 -41q0 -63 -49 -63q-2 0 -125.5 6t-173.5 6q-53 0 -113 -6t-63 -6q-37 0 -37 41zM557 625q0 -15 12 -20t52 -5h178q63 0 63 29q0 21 -4 53l-39 322 q-3 20 -14 20q-15 0 -31 -27l-192 -323q-25 -38 -25 -49zM784 1483q0 19 29 43q24 21 113 95t135 116q35 35 82 35q35 0 62.5 -28t27.5 -65q0 -45 -57 -82q-80 -46 -306 -145q-27 -12 -47 -12q-16 2 -27.5 13t-11.5 30z" />
<glyph unicode="&#xc2;" horiz-adv-x="1501" d="M-92 39q0 24 12.5 43.5t36.5 19.5q3 0 17 -1t22 -1q42 0 78 41q51 51 119 158q69 109 201 315.5t219.5 346.5t136.5 225q34 61 45 92q14 37 51 55q32 15 81 29t83 14q39 0 45 -43q1 -5 2 -16.5t3.5 -35.5t6.5 -58q27 -200 141 -924q16 -108 43 -160q20 -39 84 -39 q6 0 17 1t16 1q16 0 26.5 -12t10.5 -33q0 -59 -55 -59q-4 0 -131.5 6t-178.5 6q-50 0 -173 -6t-124 -6q-38 0 -38 41q0 25 12.5 44t38.5 19q6 0 28 -1t25 -1q72 0 93.5 19.5t21.5 60.5q0 35 -11 119l-16 135q-4 38 -17 51t-44 13h-314q-25 0 -37.5 -10t-31.5 -39l-95 -148 q-1 -1 -16 -25t-19.5 -32.5t-14.5 -28.5t-13.5 -36t-3.5 -32q0 -24 22.5 -35.5t77.5 -11.5q9 0 25 1l16 1q37 0 37 -41q0 -63 -49 -63q-2 0 -125.5 6t-173.5 6q-53 0 -113 -6t-63 -6q-37 0 -37 41zM557 625q0 -15 12 -20t52 -5h178q63 0 63 29q0 21 -4 53l-39 322 q-3 20 -14 20q-15 0 -31 -27l-192 -323q-25 -38 -25 -49zM623 1468q0 16 14 27q231 213 289 274q13 13 20 18.5t21.5 11t33.5 5.5q18 0 30.5 -5t18.5 -10.5t13 -16.5q84 -124 199 -273q12 -14 12 -29q0 -16 -11.5 -27t-23.5 -11q-26 0 -47 16q-119 89 -186 149 q-15 15 -29 15q-7 0 -35 -17q-183 -118 -233 -147q-26 -16 -47 -16q-19 0 -29 11t-10 25z" />
<glyph unicode="&#xc3;" horiz-adv-x="1501" d="M-92 39q0 24 12.5 43.5t36.5 19.5q3 0 17 -1t22 -1q42 0 78 41q51 51 119 158q69 109 201 315.5t219.5 346.5t136.5 225q34 61 45 92q14 37 51 55q32 15 81 29t83 14q39 0 45 -43q1 -5 2 -16.5t3.5 -35.5t6.5 -58q27 -200 141 -924q16 -108 43 -160q20 -39 84 -39 q6 0 17 1t16 1q16 0 26.5 -12t10.5 -33q0 -59 -55 -59q-4 0 -131.5 6t-178.5 6q-50 0 -173 -6t-124 -6q-38 0 -38 41q0 25 12.5 44t38.5 19q6 0 28 -1t25 -1q72 0 93.5 19.5t21.5 60.5q0 35 -11 119l-16 135q-4 38 -17 51t-44 13h-314q-25 0 -37.5 -10t-31.5 -39l-95 -148 q-1 -1 -16 -25t-19.5 -32.5t-14.5 -28.5t-13.5 -36t-3.5 -32q0 -24 22.5 -35.5t77.5 -11.5q9 0 25 1l16 1q37 0 37 -41q0 -63 -49 -63q-2 0 -125.5 6t-173.5 6q-53 0 -113 -6t-63 -6q-37 0 -37 41zM557 625q0 -15 12 -20t52 -5h178q63 0 63 29q0 21 -4 53l-39 322 q-3 20 -14 20q-15 0 -31 -27l-192 -323q-25 -38 -25 -49zM623 1507q0 13 14 41q72 170 194 170q51 0 160 -57q78 -39 125 -39q49 0 82 78q14 31 49 31q41 0 41 -37q0 -21 -12 -45q-65 -174 -193 -174q-51 0 -147 47q-82 43 -133 43q-27 0 -47.5 -14.5t-46.5 -57.5 q-16 -25 -43 -25q-43 0 -43 39z" />
<glyph unicode="&#xc4;" horiz-adv-x="1501" d="M-92 39q0 24 12.5 43.5t36.5 19.5q3 0 17 -1t22 -1q42 0 78 41q51 51 119 158q69 109 201 315.5t219.5 346.5t136.5 225q34 61 45 92q14 37 51 55q32 15 81 29t83 14q39 0 45 -43q1 -5 2 -16.5t3.5 -35.5t6.5 -58q27 -200 141 -924q16 -108 43 -160q20 -39 84 -39 q6 0 17 1t16 1q16 0 26.5 -12t10.5 -33q0 -59 -55 -59q-4 0 -131.5 6t-178.5 6q-50 0 -173 -6t-124 -6q-38 0 -38 41q0 25 12.5 44t38.5 19q6 0 28 -1t25 -1q72 0 93.5 19.5t21.5 60.5q0 35 -11 119l-16 135q-4 38 -17 51t-44 13h-314q-25 0 -37.5 -10t-31.5 -39l-95 -148 q-1 -1 -16 -25t-19.5 -32.5t-14.5 -28.5t-13.5 -36t-3.5 -32q0 -24 22.5 -35.5t77.5 -11.5q9 0 25 1l16 1q37 0 37 -41q0 -63 -49 -63q-2 0 -125.5 6t-173.5 6q-53 0 -113 -6t-63 -6q-37 0 -37 41zM557 625q0 -15 12 -20t52 -5h178q63 0 63 29q0 21 -4 53l-39 322 q-3 20 -14 20q-15 0 -31 -27l-192 -323q-25 -38 -25 -49zM664 1573q0 51 34.5 86t85.5 35q47 0 77 -32t30 -83q0 -52 -33.5 -87.5t-81.5 -35.5q-50 0 -81 31t-31 86zM1026 1573q0 51 35 86t86 35q47 0 76.5 -32t29.5 -83q0 -52 -33 -87.5t-81 -35.5q-51 0 -82 31t-31 86z " />
<glyph unicode="&#xc5;" horiz-adv-x="1501" d="M-92 39q0 24 12.5 43.5t36.5 19.5q3 0 17 -1t22 -1q42 0 78 41q51 51 119 158q69 109 201 315.5t219.5 346.5t136.5 225q34 61 45 92q14 37 51 55q32 15 81 29t83 14q39 0 45 -43q1 -5 2 -16.5t3.5 -35.5t6.5 -58q27 -200 141 -924q16 -108 43 -160q20 -39 84 -39 q6 0 17 1t16 1q16 0 26.5 -12t10.5 -33q0 -59 -55 -59q-4 0 -131.5 6t-178.5 6q-50 0 -173 -6t-124 -6q-38 0 -38 41q0 25 12.5 44t38.5 19q6 0 28 -1t25 -1q72 0 93.5 19.5t21.5 60.5q0 35 -11 119l-16 135q-4 38 -17 51t-44 13h-314q-25 0 -37.5 -10t-31.5 -39l-95 -148 q-1 -1 -16 -25t-19.5 -32.5t-14.5 -28.5t-13.5 -36t-3.5 -32q0 -24 22.5 -35.5t77.5 -11.5q9 0 25 1l16 1q37 0 37 -41q0 -63 -49 -63q-2 0 -125.5 6t-173.5 6q-53 0 -113 -6t-63 -6q-37 0 -37 41zM557 625q0 -15 12 -20t52 -5h178q63 0 63 29q0 21 -4 53l-39 322 q-3 20 -14 20q-15 0 -31 -27l-192 -323q-25 -38 -25 -49zM788 1599q0 92 59.5 150.5t147.5 58.5q78 0 127 -47t49 -123q0 -89 -55.5 -151t-148.5 -62q-81 0 -130 49.5t-49 124.5zM874 1604q0 -43 26 -72t69 -29q55 0 86.5 34.5t31.5 96.5q0 48 -27 73.5t-71 25.5 q-49 0 -82 -35.5t-33 -93.5z" />
<glyph unicode="&#xc6;" horiz-adv-x="2109" d="M-92 41q0 23 12.5 42t40.5 19q5 0 18.5 -1t20.5 -1q65 0 109 39q77 65 178 172q555 588 792 869q23 27 23 45q0 16 -21 22q-27 6 -80 6q-5 0 -27 -1t-30 -1q-33 0 -33 43q0 26 15 45t45 19q7 0 108 -3t222.5 -6t177.5 -3q177 0 369.5 4t203.5 4q43 0 43 -39q0 -8 -3 -34 t-10 -89.5t-14 -140.5q-3 -39 -51 -39q-49 0 -49 39q0 62 -5.5 95t-23.5 56q-21 28 -54.5 34.5t-123.5 6.5q-31 0 -87 -3t-81 -3q-19 0 -30.5 -12t-18.5 -41l-80 -340q-6 -21 -6 -47q0 -20 17.5 -31.5t48.5 -11.5q94 0 141 18q29 11 51.5 43t46.5 103q11 32 56 32 q43 0 43 -37q0 -15 -16 -68t-42.5 -149t-44.5 -192q-5 -37 -49 -37q-47 0 -47 35q0 8 1 23t1 20q0 34 -5 55t-9.5 26.5t-14.5 12.5q-26 18 -145 18q-42 0 -59 -10t-23 -39l-74 -327q-12 -54 -12 -97q0 -41 41 -55t164 -14q188 0 252 37q74 42 147 182q18 31 49 31 q52 0 52 -39q0 -22 -33.5 -112.5t-59.5 -145.5q-34 -70 -88 -70q-90 0 -249 6t-298 6q-55 0 -165 -3t-200 -6t-97 -3q-39 0 -39 37q0 25 14.5 46t42.5 21q4 0 17 -1t18 -1q40 0 61 9t37 30q29 33 62 178l32 140q7 24 7 35q0 17 -9 22.5t-32 5.5h-359q-26 0 -44.5 -10.5 t-43.5 -38.5l-135 -156q-14 -16 -29.5 -34t-24.5 -28.5t-20 -23t-17 -19.5t-12.5 -15t-9.5 -13t-6.5 -10.5t-4.5 -9.5t-2 -8.5t-1 -8.5q0 -21 15 -33t61 -12q8 0 24.5 1t24.5 1q33 0 33 -36q0 -28 -13.5 -48t-44.5 -20q-2 0 -115 4t-163 4q-48 0 -128.5 -4t-84.5 -4 q-41 0 -41 43zM778 647q0 -20 43 -20h228q34 0 49 5.5t24 22.5q6 8 17 45l98 416q6 24 6 37q0 14 -12 14q-14 0 -35 -26l-391 -447q-27 -31 -27 -47z" />
<glyph unicode="&#xc7;" horiz-adv-x="1415" d="M115 541q0 80 13.5 160t43.5 163t75 157.5t112.5 140.5t151 113.5t195 75t240.5 27.5q228 0 391 -55q49 -16 49 -57q0 -3 -2.5 -35.5t-5 -94t-2.5 -135.5q0 -22 -12.5 -34.5t-34.5 -12.5q-35 0 -46 13t-11 37q-3 109 -45 172q-27 40 -95.5 67t-170.5 27q-104 0 -193 -44 t-150 -116.5t-104.5 -166.5t-63.5 -193.5t-20 -198.5q0 -224 101 -345.5t260 -121.5q71 0 152 27.5t130 72.5q61 59 119 168q16 29 51 29q16 0 30.5 -8t14.5 -19q0 -21 -25.5 -110t-52.5 -123q-33 -44 -106 -74q-125 -56 -301 -67q-28 -3 -39 -29q-25 -58 -25 -66 q0 -14 25 -22q127 -44 127 -164q0 -58 -37 -108t-92.5 -80t-117 -47t-114.5 -17q-47 0 -47 53q0 51 64 54q70 2 118 29t48 83q0 73 -78 96q-31 10 -31 37q0 13 23 66q4 9 15 29.5t17.5 35.5t6.5 23q0 20 -35 24q-139 14 -241 63.5t-161 126.5t-86.5 169.5t-27.5 204.5z" />
<glyph unicode="&#xc8;" horiz-adv-x="1236" d="M-61 37q0 25 12 44t37 19q4 0 20 -1t21 -1q66 0 90 43q30 59 59 183l170 729q19 87 19 129q0 39 -19.5 55t-68.5 16q-5 0 -21 -1t-18 -1q-33 0 -33 35q0 26 11.5 48t35.5 22q7 0 94 -2.5t194 -5t163 -2.5q177 0 320.5 4t154.5 4q43 0 43 -39q0 -8 -3 -34t-10 -89.5 t-14 -140.5q-3 -39 -51 -39q-49 0 -49 39q0 107 -29 151q-22 27 -56.5 34t-121.5 7q-91 0 -168 -6q-19 0 -30.5 -12t-18.5 -41l-80 -340q-6 -21 -6 -47q0 -43 65 -43q95 0 142 18q29 11 51.5 43t46.5 103q11 32 55 32q43 0 43 -37q0 -15 -16 -68t-42 -149t-44 -192 q-5 -37 -49 -37q-47 0 -47 35q0 8 1 23t1 20q0 34 -5 55t-9.5 26.5t-14.5 12.5q-26 18 -146 18q-42 0 -58.5 -10t-22.5 -39l-74 -327q-12 -54 -12 -97q0 -41 40.5 -55t163.5 -14q188 0 252 37q75 43 148 182q18 31 49 31q51 0 51 -39q0 -22 -33 -113t-59 -145 q-34 -70 -88 -70q-90 0 -290 6t-339 6q-55 0 -142 -3.5t-154.5 -7t-74.5 -3.5q-16 0 -26 10.5t-10 30.5zM473 1700q0 34 36 65t71 31q42 0 73 -39q45 -56 207 -231q21 -25 21 -41q0 -19 -16.5 -32t-33.5 -13q-20 0 -45 14q-137 72 -274 170q-39 29 -39 76z" />
<glyph unicode="&#xc9;" horiz-adv-x="1236" d="M-61 37q0 25 12 44t37 19q4 0 20 -1t21 -1q66 0 90 43q30 59 59 183l170 729q19 87 19 129q0 39 -19.5 55t-68.5 16q-5 0 -21 -1t-18 -1q-33 0 -33 35q0 26 11.5 48t35.5 22q7 0 94 -2.5t194 -5t163 -2.5q177 0 320.5 4t154.5 4q43 0 43 -39q0 -8 -3 -34t-10 -89.5 t-14 -140.5q-3 -39 -51 -39q-49 0 -49 39q0 107 -29 151q-22 27 -56.5 34t-121.5 7q-91 0 -168 -6q-19 0 -30.5 -12t-18.5 -41l-80 -340q-6 -21 -6 -47q0 -43 65 -43q95 0 142 18q29 11 51.5 43t46.5 103q11 32 55 32q43 0 43 -37q0 -15 -16 -68t-42 -149t-44 -192 q-5 -37 -49 -37q-47 0 -47 35q0 8 1 23t1 20q0 34 -5 55t-9.5 26.5t-14.5 12.5q-26 18 -146 18q-42 0 -58.5 -10t-22.5 -39l-74 -327q-12 -54 -12 -97q0 -41 40.5 -55t163.5 -14q188 0 252 37q75 43 148 182q18 31 49 31q51 0 51 -39q0 -22 -33 -113t-59 -145 q-34 -70 -88 -70q-90 0 -290 6t-339 6q-55 0 -142 -3.5t-154.5 -7t-74.5 -3.5q-16 0 -26 10.5t-10 30.5zM606 1483q0 19 29 43q24 21 113 95t135 116q35 35 82 35q35 0 62.5 -28t27.5 -65q0 -45 -58 -82q-83 -48 -305 -145q-27 -12 -47 -12q-16 2 -27.5 13t-11.5 30z" />
<glyph unicode="&#xca;" horiz-adv-x="1236" d="M-61 37q0 25 12 44t37 19q4 0 20 -1t21 -1q66 0 90 43q30 59 59 183l170 729q19 87 19 129q0 39 -19.5 55t-68.5 16q-5 0 -21 -1t-18 -1q-33 0 -33 35q0 26 11.5 48t35.5 22q7 0 94 -2.5t194 -5t163 -2.5q177 0 320.5 4t154.5 4q43 0 43 -39q0 -8 -3 -34t-10 -89.5 t-14 -140.5q-3 -39 -51 -39q-49 0 -49 39q0 107 -29 151q-22 27 -56.5 34t-121.5 7q-91 0 -168 -6q-19 0 -30.5 -12t-18.5 -41l-80 -340q-6 -21 -6 -47q0 -43 65 -43q95 0 142 18q29 11 51.5 43t46.5 103q11 32 55 32q43 0 43 -37q0 -15 -16 -68t-42 -149t-44 -192 q-5 -37 -49 -37q-47 0 -47 35q0 8 1 23t1 20q0 34 -5 55t-9.5 26.5t-14.5 12.5q-26 18 -146 18q-42 0 -58.5 -10t-22.5 -39l-74 -327q-12 -54 -12 -97q0 -41 40.5 -55t163.5 -14q188 0 252 37q75 43 148 182q18 31 49 31q51 0 51 -39q0 -22 -33 -113t-59 -145 q-34 -70 -88 -70q-90 0 -290 6t-339 6q-55 0 -142 -3.5t-154.5 -7t-74.5 -3.5q-16 0 -26 10.5t-10 30.5zM442 1468q0 16 15 27q222 205 288 274q13 13 20 18.5t22 11t34 5.5q18 0 30.5 -5t18.5 -10.5t13 -16.5q91 -135 198 -273q13 -16 13 -29q0 -16 -11.5 -27t-23.5 -11 q-26 0 -47 16q-125 93 -187 149q-15 15 -28 15q-7 0 -35 -17q-176 -114 -234 -147q-26 -16 -47 -16q-19 0 -29 11t-10 25z" />
<glyph unicode="&#xcb;" horiz-adv-x="1236" d="M-61 37q0 25 12 44t37 19q4 0 20 -1t21 -1q66 0 90 43q30 59 59 183l170 729q19 87 19 129q0 39 -19.5 55t-68.5 16q-5 0 -21 -1t-18 -1q-33 0 -33 35q0 26 11.5 48t35.5 22q7 0 94 -2.5t194 -5t163 -2.5q177 0 320.5 4t154.5 4q43 0 43 -39q0 -8 -3 -34t-10 -89.5 t-14 -140.5q-3 -39 -51 -39q-49 0 -49 39q0 107 -29 151q-22 27 -56.5 34t-121.5 7q-91 0 -168 -6q-19 0 -30.5 -12t-18.5 -41l-80 -340q-6 -21 -6 -47q0 -43 65 -43q95 0 142 18q29 11 51.5 43t46.5 103q11 32 55 32q43 0 43 -37q0 -15 -16 -68t-42 -149t-44 -192 q-5 -37 -49 -37q-47 0 -47 35q0 8 1 23t1 20q0 34 -5 55t-9.5 26.5t-14.5 12.5q-26 18 -146 18q-42 0 -58.5 -10t-22.5 -39l-74 -327q-12 -54 -12 -97q0 -41 40.5 -55t163.5 -14q188 0 252 37q75 43 148 182q18 31 49 31q51 0 51 -39q0 -22 -33 -113t-59 -145 q-34 -70 -88 -70q-90 0 -290 6t-339 6q-55 0 -142 -3.5t-154.5 -7t-74.5 -3.5q-16 0 -26 10.5t-10 30.5zM479 1573q0 51 35 86t86 35q47 0 77 -32t30 -83q0 -52 -33.5 -87.5t-81.5 -35.5q-50 0 -81.5 31t-31.5 86zM842 1573q0 51 35 86t86 35q47 0 76.5 -32t29.5 -83 q0 -52 -33.5 -87.5t-81.5 -35.5q-50 0 -81 31t-31 86z" />
<glyph unicode="&#xcc;" horiz-adv-x="729" d="M-61 37q0 25 12.5 44t34.5 19q5 0 20.5 -1t20.5 -1q36 0 53 7.5t33 27.5q29 36 65 191l164 706q25 108 25 156q0 67 -82 67q-5 0 -22.5 -1t-22.5 -1q-33 0 -33 35q0 30 13.5 50t39.5 20q6 0 50.5 -3t109 -6.5t117.5 -3.5q54 0 123 3.5t117.5 6.5t53.5 3q43 0 43 -41 q0 -25 -12.5 -44.5t-34.5 -19.5q-5 0 -20.5 1t-20.5 1q-37 0 -53.5 -7t-32.5 -27q-28 -35 -65 -193l-162 -698q-27 -117 -27 -162q0 -68 82 -68q5 0 22.5 1t22.5 1q33 0 33 -34q0 -30 -13.5 -50t-39.5 -20q-6 0 -50.5 3t-109 6t-117.5 3q-54 0 -123 -3t-117.5 -6t-53.5 -3 q-43 0 -43 41zM254 1700q0 34 35.5 65t70.5 31q43 0 74 -39q45 -56 207 -231q21 -25 21 -41q0 -19 -16.5 -32t-33.5 -13q-20 0 -45 14q-137 72 -274 170q-39 29 -39 76z" />
<glyph unicode="&#xcd;" horiz-adv-x="729" d="M-61 37q0 25 12.5 44t34.5 19q5 0 20.5 -1t20.5 -1q36 0 53 7.5t33 27.5q29 36 65 191l164 706q25 108 25 156q0 67 -82 67q-5 0 -22.5 -1t-22.5 -1q-33 0 -33 35q0 30 13.5 50t39.5 20q6 0 50.5 -3t109 -6.5t117.5 -3.5q54 0 123 3.5t117.5 6.5t53.5 3q43 0 43 -41 q0 -25 -12.5 -44.5t-34.5 -19.5q-5 0 -20.5 1t-20.5 1q-37 0 -53.5 -7t-32.5 -27q-28 -35 -65 -193l-162 -698q-27 -117 -27 -162q0 -68 82 -68q5 0 22.5 1t22.5 1q33 0 33 -34q0 -30 -13.5 -50t-39.5 -20q-6 0 -50.5 3t-109 6t-117.5 3q-54 0 -123 -3t-117.5 -6t-53.5 -3 q-43 0 -43 41zM436 1483q0 19 29 43q24 21 113 95t135 116q35 35 82 35q35 0 62.5 -28t27.5 -65q0 -45 -58 -82q-83 -48 -305 -145q-27 -12 -47 -12q-16 2 -27.5 13t-11.5 30z" />
<glyph unicode="&#xce;" horiz-adv-x="729" d="M-61 37q0 25 12.5 44t34.5 19q5 0 20.5 -1t20.5 -1q36 0 53 7.5t33 27.5q29 36 65 191l164 706q25 108 25 156q0 67 -82 67q-5 0 -22.5 -1t-22.5 -1q-33 0 -33 35q0 30 13.5 50t39.5 20q6 0 50.5 -3t109 -6.5t117.5 -3.5q54 0 123 3.5t117.5 6.5t53.5 3q43 0 43 -41 q0 -25 -12.5 -44.5t-34.5 -19.5q-5 0 -20.5 1t-20.5 1q-37 0 -53.5 -7t-32.5 -27q-28 -35 -65 -193l-162 -698q-27 -117 -27 -162q0 -68 82 -68q5 0 22.5 1t22.5 1q33 0 33 -34q0 -30 -13.5 -50t-39.5 -20q-6 0 -50.5 3t-109 6t-117.5 3q-54 0 -123 -3t-117.5 -6t-53.5 -3 q-43 0 -43 41zM238 1468q0 16 14 27q231 213 289 274q13 13 20 18.5t21.5 11t33.5 5.5q18 0 30.5 -5t18.5 -10.5t13 -16.5q84 -124 199 -273q12 -14 12 -29q0 -16 -11.5 -27t-23.5 -11q-26 0 -47 16q-119 89 -186 149q-15 15 -29 15q-7 0 -35 -17q-183 -118 -233 -147 q-26 -16 -48 -16q-19 0 -28.5 11t-9.5 25z" />
<glyph unicode="&#xcf;" horiz-adv-x="729" d="M-61 37q0 25 12.5 44t34.5 19q5 0 20.5 -1t20.5 -1q36 0 53 7.5t33 27.5q29 36 65 191l164 706q25 108 25 156q0 67 -82 67q-5 0 -22.5 -1t-22.5 -1q-33 0 -33 35q0 30 13.5 50t39.5 20q6 0 50.5 -3t109 -6.5t117.5 -3.5q54 0 123 3.5t117.5 6.5t53.5 3q43 0 43 -41 q0 -25 -12.5 -44.5t-34.5 -19.5q-5 0 -20.5 1t-20.5 1q-37 0 -53.5 -7t-32.5 -27q-28 -35 -65 -193l-162 -698q-27 -117 -27 -162q0 -68 82 -68q5 0 22.5 1t22.5 1q33 0 33 -34q0 -30 -13.5 -50t-39.5 -20q-6 0 -50.5 3t-109 6t-117.5 3q-54 0 -123 -3t-117.5 -6t-53.5 -3 q-43 0 -43 41zM276 1573q0 51 35 86t86 35q47 0 77 -32t30 -83q0 -52 -33.5 -87.5t-81.5 -35.5q-51 0 -82 31t-31 86zM639 1573q0 51 35 86t86 35q47 0 76.5 -32t29.5 -83q0 -52 -33 -87.5t-81 -35.5q-50 0 -81.5 31t-31.5 86z" />
<glyph unicode="&#xd0;" horiz-adv-x="1533" d="M-61 39q0 26 13 43.5t34 17.5q2 0 18 -1t21 -1q38 0 57.5 9t34.5 32q26 40 59 185l66 276q6 30 6 37q0 25 -25 25h-143q-29 0 -29 20q0 28 15 63q13 31 40 31h146q33 0 39 31l51 217q25 112 25 164q0 28 -16 43t-34.5 18.5t-46.5 3.5q-4 0 -17.5 -1t-16.5 -1 q-35 0 -35 41q0 27 13.5 45.5t39.5 18.5q5 0 47 -2t104 -4t117 -2q42 0 126.5 3t121.5 3q360 0 524 -97q106 -62 165 -170.5t59 -246.5q0 -215 -62 -377t-178.5 -263.5t-276.5 -151.5t-362 -50q-68 0 -250 3t-209 3q-56 0 -102 -2t-71.5 -4t-29.5 -2q-38 0 -38 43zM459 209 q0 -50 48.5 -75t176.5 -25q225 0 369.5 194.5t144.5 513.5q0 219 -76 313q-96 115 -286 115q-100 0 -129.5 -20t-49.5 -105l-67 -289q-6 -21 -6 -32q0 -23 22 -23h260q33 0 33 -28q0 -26 -12 -56q-7 -18 -17.5 -24t-31.5 -6h-258q-17 0 -24.5 -7.5t-12.5 -25.5l-70 -301 q-14 -62 -14 -119z" />
<glyph unicode="&#xd1;" horiz-adv-x="1568" d="M-86 35q0 26 14.5 46.5t46.5 20.5q4 0 17 -1t18 -1q64 0 99 41q32 46 63 174q137 552 174 717q23 104 23 146q0 34 -19 53q-25 22 -84 22q-5 0 -21 -1t-20 -1q-35 0 -35 33q0 29 13 49.5t41 20.5q7 0 101.5 -5.5t117.5 -5.5q26 0 95.5 5.5t80.5 5.5q8 0 14 -2.5t11.5 -9 t8.5 -10t8.5 -13.5t6.5 -12q89 -161 268 -457q76 -127 220 -346q15 -23 24 -23q6 0 11.5 5.5t7.5 11.5q7 31 21.5 93t23.5 109q7 35 29 143t36 181q21 123 21 168q0 29 -24.5 45t-61.5 16q-6 0 -31 -1t-29 -1q-20 0 -30.5 9.5t-10.5 25.5q0 29 15.5 49.5t44.5 20.5 q3 0 36.5 -3t92 -6.5t121.5 -3.5q41 0 89.5 3.5t82 6.5t38.5 3q50 0 50 -39q0 -25 -13.5 -45.5t-40.5 -20.5q-5 0 -24 1t-25 1q-62 0 -94 -32q-38 -38 -76 -197q-85 -350 -221 -1001q-5 -22 -26 -36t-50 -14q-47 0 -63 33q-46 98 -99 187q-76 132 -156 262t-190.5 305.5 t-156.5 249.5q-8 10 -19 10q-15 0 -22 -27q-18 -72 -40.5 -173.5t-31.5 -141.5q-43 -190 -78 -363q-18 -95 -18 -135q0 -32 10 -45q12 -35 96 -35q2 0 20 1t25 1q35 0 35 -30q0 -74 -59 -74q-7 0 -37.5 2.5t-80.5 5t-105 2.5q-56 0 -110.5 -2.5t-88.5 -5t-39 -2.5 q-41 0 -41 37zM680 1507q0 13 14 41q72 170 195 170q51 0 160 -57q78 -39 125 -39q48 0 81 78q14 31 50 31q41 0 41 -37q0 -19 -13 -45q-65 -174 -192 -174q-52 0 -148 47q-82 43 -133 43q-27 0 -47.5 -14.5t-46.5 -57.5q-16 -25 -43 -25q-43 0 -43 39z" />
<glyph unicode="&#xd2;" horiz-adv-x="1503" d="M113 539q0 148 44.5 298.5t125.5 254.5q109 143 253.5 214.5t356.5 71.5q269 0 418 -140.5t149 -399.5q0 -392 -192 -625q-198 -240 -555 -240q-279 0 -439.5 147t-160.5 419zM430 469q0 -180 68 -284.5t200 -104.5q206 0 312 205q67 133 100 296.5t33 321.5 q0 175 -61.5 271t-184.5 96q-114 0 -199.5 -63.5t-148.5 -196.5q-119 -251 -119 -541zM625 1700q0 34 35.5 65t70.5 31q43 0 74 -39q45 -56 207 -231q20 -24 20 -41q0 -19 -16 -32t-33 -13q-20 0 -45 14q-137 72 -274 170q-39 29 -39 76z" />
<glyph unicode="&#xd3;" horiz-adv-x="1503" d="M113 539q0 148 44.5 298.5t125.5 254.5q109 143 253.5 214.5t356.5 71.5q269 0 418 -140.5t149 -399.5q0 -392 -192 -625q-198 -240 -555 -240q-279 0 -439.5 147t-160.5 419zM430 469q0 -180 68 -284.5t200 -104.5q206 0 312 205q67 133 100 296.5t33 321.5 q0 175 -61.5 271t-184.5 96q-114 0 -199.5 -63.5t-148.5 -196.5q-119 -251 -119 -541zM729 1483q0 19 29 43q24 21 113 95t135 116q35 35 81 35q35 0 63 -28t28 -65q0 -45 -58 -82q-83 -48 -305 -145q-27 -12 -47 -12q-16 2 -27.5 13t-11.5 30z" />
<glyph unicode="&#xd4;" horiz-adv-x="1503" d="M113 539q0 148 44.5 298.5t125.5 254.5q109 143 253.5 214.5t356.5 71.5q269 0 418 -140.5t149 -399.5q0 -392 -192 -625q-198 -240 -555 -240q-279 0 -439.5 147t-160.5 419zM430 469q0 -180 68 -284.5t200 -104.5q206 0 312 205q67 133 100 296.5t33 321.5 q0 175 -61.5 271t-184.5 96q-114 0 -199.5 -63.5t-148.5 -196.5q-119 -251 -119 -541zM573 1468q0 16 15 27q231 213 289 274q13 13 20 18.5t21.5 11t33.5 5.5q18 0 30.5 -5t18.5 -10.5t13 -16.5q91 -135 198 -273q13 -16 13 -29q0 -16 -11.5 -27t-23.5 -11q-26 0 -47 16 q-125 93 -187 149q-15 15 -28 15q-7 0 -35 -17q-176 -114 -234 -147q-26 -16 -47 -16q-19 0 -29 11t-10 25z" />
<glyph unicode="&#xd5;" horiz-adv-x="1503" d="M113 539q0 148 44.5 298.5t125.5 254.5q109 143 253.5 214.5t356.5 71.5q269 0 418 -140.5t149 -399.5q0 -392 -192 -625q-198 -240 -555 -240q-279 0 -439.5 147t-160.5 419zM430 469q0 -180 68 -284.5t200 -104.5q206 0 312 205q67 133 100 296.5t33 321.5 q0 175 -61.5 271t-184.5 96q-114 0 -199.5 -63.5t-148.5 -196.5q-119 -251 -119 -541zM606 1507q0 11 15 41q72 170 194 170q51 0 160 -57q78 -39 125 -39q49 0 82 78q14 31 49 31q41 0 41 -37q0 -21 -12 -45q-65 -174 -193 -174q-51 0 -147 47q-82 43 -134 43 q-27 0 -47.5 -14.5t-46.5 -57.5q-16 -25 -43 -25q-43 0 -43 39z" />
<glyph unicode="&#xd6;" horiz-adv-x="1503" d="M113 539q0 148 44.5 298.5t125.5 254.5q109 143 253.5 214.5t356.5 71.5q269 0 418 -140.5t149 -399.5q0 -392 -192 -625q-198 -240 -555 -240q-279 0 -439.5 147t-160.5 419zM430 469q0 -180 68 -284.5t200 -104.5q206 0 312 205q67 133 100 296.5t33 321.5 q0 175 -61.5 271t-184.5 96q-114 0 -199.5 -63.5t-148.5 -196.5q-119 -251 -119 -541zM655 1573q0 51 35 86t86 35q47 0 77 -32t30 -83q0 -52 -33.5 -87.5t-81.5 -35.5q-50 0 -81.5 31t-31.5 86zM1018 1573q0 51 35 86t86 35q47 0 76.5 -32t29.5 -83q0 -52 -33.5 -87.5 t-81.5 -35.5q-50 0 -81 31t-31 86z" />
<glyph unicode="&#xd7;" horiz-adv-x="1314" d="M272 248q0 11 15 20l307 281l-264 287q-8 8 -8 18q0 6 12 18l94 82q11 11 18 11q8 0 19 -11l260 -282l303 284q11 11 21 11q8 0 16 -11l76 -79q8 -5 8 -15q0 -8 -12 -24l-306 -285l254 -287q9 -6 9 -18q0 -8 -11 -19l-92 -79q-10 -13 -18 -13q-11 0 -21 10l-252 285 l-307 -285q-8 -8 -14 -8q-16 0 -23 11l-73 77q-11 8 -11 21z" />
<glyph unicode="&#xd8;" horiz-adv-x="1503" d="M102 41q0 12 15 27l86 92q10 10 10 20q0 11 -6 17q-94 140 -94 342q0 148 44.5 298.5t125.5 254.5q109 143 253.5 214.5t356.5 71.5q208 0 342 -84q12 -6 18 -6q12 0 21 12l90 97q12 14 31 14q21 0 43 -20t22 -41q0 -12 -16 -31l-88 -94q-10 -10 -10 -21q0 -8 8 -16 q106 -133 106 -350q0 -392 -192 -625q-198 -240 -555 -240q-244 0 -394 111q-2 1 -5.5 2.5t-6.5 2.5t-6 1q-10 0 -20 -10l-80 -86q-14 -14 -35 -14q-18 0 -41 21.5t-23 39.5zM430 446q0 -22 14 -22q7 0 17 10l633 672q10 10 10 22q0 7 -4 15q-60 127 -203 127 q-114 0 -199.5 -63.5t-148.5 -196.5q-101 -214 -117 -465q-2 -35 -2 -99zM463 260q0 -8 6 -20q67 -160 229 -160q206 0 312 205q67 133 100 296.5t33 321.5q0 31 -2 47q0 23 -15 23q-8 0 -18 -10l-637 -680q-8 -11 -8 -23z" />
<glyph unicode="&#xd9;" horiz-adv-x="1548" d="M170 356q0 58 12 129t27 131.5t48.5 189t57.5 230.5q27 117 27 156q0 24 -10 37q-19 24 -68 24q-5 0 -20 -1t-19 -1q-35 0 -35 37q0 31 15 49.5t45 18.5q5 0 53 -3t117.5 -6.5t128.5 -3.5q56 0 113 3.5t93.5 6.5t41.5 3q53 0 53 -41q0 -27 -13.5 -45.5t-37.5 -18.5 q-3 0 -15 1t-16 1q-50 0 -82 -24q-21 -17 -36 -55.5t-40 -141.5q-4 -16 -21 -88.5t-25.5 -109t-25 -106.5t-25 -115t-19 -99t-15 -92.5t-4.5 -63.5q0 -131 73 -194.5t189 -63.5q215 0 316.5 106.5t165.5 383.5q65 271 98 440q20 103 20 160t-86 57q-4 0 -25.5 -1t-25.5 -1 q-35 0 -35 37q0 31 16.5 52.5t45.5 21.5q9 0 89 -6.5t136 -6.5q57 0 126 6.5t71 6.5q27 0 38 -9t11 -28q0 -68 -41 -68q-7 0 -26 1t-23 1q-56 -4 -80 -34q-41 -58 -72 -185q-88 -411 -119 -545q-29 -129 -78.5 -223t-127 -161.5t-189 -100.5t-258.5 -33q-263 0 -388.5 105.5 t-125.5 279.5zM698 1700q0 34 36 65t71 31q43 0 74 -39q52 -64 206 -231q21 -25 21 -41q0 -19 -16 -32t-33 -13q-20 0 -45 14q-141 75 -275 170q-39 29 -39 76z" />
<glyph unicode="&#xda;" horiz-adv-x="1548" d="M170 356q0 58 12 129t27 131.5t48.5 189t57.5 230.5q27 117 27 156q0 24 -10 37q-19 24 -68 24q-5 0 -20 -1t-19 -1q-35 0 -35 37q0 31 15 49.5t45 18.5q5 0 53 -3t117.5 -6.5t128.5 -3.5q56 0 113 3.5t93.5 6.5t41.5 3q53 0 53 -41q0 -27 -13.5 -45.5t-37.5 -18.5 q-3 0 -15 1t-16 1q-50 0 -82 -24q-21 -17 -36 -55.5t-40 -141.5q-4 -16 -21 -88.5t-25.5 -109t-25 -106.5t-25 -115t-19 -99t-15 -92.5t-4.5 -63.5q0 -131 73 -194.5t189 -63.5q215 0 316.5 106.5t165.5 383.5q65 271 98 440q20 103 20 160t-86 57q-4 0 -25.5 -1t-25.5 -1 q-35 0 -35 37q0 31 16.5 52.5t45.5 21.5q9 0 89 -6.5t136 -6.5q57 0 126 6.5t71 6.5q27 0 38 -9t11 -28q0 -68 -41 -68q-7 0 -26 1t-23 1q-56 -4 -80 -34q-41 -58 -72 -185q-88 -411 -119 -545q-29 -129 -78.5 -223t-127 -161.5t-189 -100.5t-258.5 -33q-263 0 -388.5 105.5 t-125.5 279.5zM823 1483q0 19 29 43q24 21 113 95t135 116q35 35 82 35q34 0 62 -28t28 -65q0 -45 -58 -82q-83 -48 -305 -145q-27 -12 -47 -12q-16 2 -27.5 13t-11.5 30z" />
<glyph unicode="&#xdb;" horiz-adv-x="1548" d="M170 356q0 58 12 129t27 131.5t48.5 189t57.5 230.5q27 117 27 156q0 24 -10 37q-19 24 -68 24q-5 0 -20 -1t-19 -1q-35 0 -35 37q0 31 15 49.5t45 18.5q5 0 53 -3t117.5 -6.5t128.5 -3.5q56 0 113 3.5t93.5 6.5t41.5 3q53 0 53 -41q0 -27 -13.5 -45.5t-37.5 -18.5 q-3 0 -15 1t-16 1q-50 0 -82 -24q-21 -17 -36 -55.5t-40 -141.5q-4 -16 -21 -88.5t-25.5 -109t-25 -106.5t-25 -115t-19 -99t-15 -92.5t-4.5 -63.5q0 -131 73 -194.5t189 -63.5q215 0 316.5 106.5t165.5 383.5q65 271 98 440q20 103 20 160t-86 57q-4 0 -25.5 -1t-25.5 -1 q-35 0 -35 37q0 31 16.5 52.5t45.5 21.5q9 0 89 -6.5t136 -6.5q57 0 126 6.5t71 6.5q27 0 38 -9t11 -28q0 -68 -41 -68q-7 0 -26 1t-23 1q-56 -4 -80 -34q-41 -58 -72 -185q-88 -411 -119 -545q-29 -129 -78.5 -223t-127 -161.5t-189 -100.5t-258.5 -33q-263 0 -388.5 105.5 t-125.5 279.5zM651 1468q0 16 15 27q222 205 288 274q13 13 20 18.5t22 11t34 5.5q18 0 30.5 -5t18.5 -10.5t13 -16.5q91 -135 198 -273q13 -16 13 -29q0 -16 -11.5 -27t-23.5 -11q-26 0 -47 16q-125 93 -187 149q-15 15 -28 15q-7 0 -35 -17q-176 -114 -234 -147 q-26 -16 -47 -16q-19 0 -29 11t-10 25z" />
<glyph unicode="&#xdc;" horiz-adv-x="1548" d="M170 356q0 58 12 129t27 131.5t48.5 189t57.5 230.5q27 117 27 156q0 24 -10 37q-19 24 -68 24q-5 0 -20 -1t-19 -1q-35 0 -35 37q0 31 15 49.5t45 18.5q5 0 53 -3t117.5 -6.5t128.5 -3.5q56 0 113 3.5t93.5 6.5t41.5 3q53 0 53 -41q0 -27 -13.5 -45.5t-37.5 -18.5 q-3 0 -15 1t-16 1q-50 0 -82 -24q-21 -17 -36 -55.5t-40 -141.5q-4 -16 -21 -88.5t-25.5 -109t-25 -106.5t-25 -115t-19 -99t-15 -92.5t-4.5 -63.5q0 -131 73 -194.5t189 -63.5q215 0 316.5 106.5t165.5 383.5q65 271 98 440q20 103 20 160t-86 57q-4 0 -25.5 -1t-25.5 -1 q-35 0 -35 37q0 31 16.5 52.5t45.5 21.5q9 0 89 -6.5t136 -6.5q57 0 126 6.5t71 6.5q27 0 38 -9t11 -28q0 -68 -41 -68q-7 0 -26 1t-23 1q-56 -4 -80 -34q-41 -58 -72 -185q-88 -411 -119 -545q-29 -129 -78.5 -223t-127 -161.5t-189 -100.5t-258.5 -33q-263 0 -388.5 105.5 t-125.5 279.5zM686 1573q0 51 35 86t86 35q47 0 76.5 -32t29.5 -83q0 -52 -33 -87.5t-81 -35.5q-51 0 -82 31t-31 86zM1049 1573q0 51 34.5 86t85.5 35q47 0 77 -32t30 -83q0 -52 -33.5 -87.5t-81.5 -35.5q-50 0 -81 31t-31 86z" />
<glyph unicode="&#xdd;" horiz-adv-x="1411" d="M190 1288q0 29 15.5 49.5t46.5 20.5q7 0 53 -3t112 -6t124 -3q42 0 182 6t147 6q31 0 31 -39q0 -31 -15 -49.5t-44 -18.5q-9 0 -19 1t-20 1q-113 0 -113 -75q0 -57 39 -166l68 -199q24 -74 43 -74q21 0 78 72l157 205q88 115 106 152q11 23 11 38q0 30 -18.5 38.5 t-69.5 8.5q-21 0 -38.5 -1t-18.5 -1q-31 0 -31 33q0 74 57 74l85 -6q85 -6 165 -6q59 0 130.5 6t74.5 6q30 0 42.5 -8t12.5 -33q0 -27 -12.5 -45.5t-30.5 -18.5q-4 0 -20 1t-23 1q-39 0 -78 -36q-45 -38 -182 -201l-332 -402q-4 -4 -11 -18.5t-11 -19.5q-11 -15 -15 -43 l-49 -211q-22 -93 -22 -154q0 -34 20 -51q22 -19 80 -19q4 0 18 1t17 1q19 0 27 -10t8 -33t-14.5 -42t-45.5 -19q-5 0 -55 3t-120.5 6t-125.5 3q-56 0 -128.5 -3t-124.5 -6t-56 -3q-37 0 -37 37q0 26 13 46.5t40 20.5q3 0 23 -1t26 -1q74 0 99 41q32 50 63 185l43 186 q8 28 8 49q0 19 -12 49l-155 396q0 1 -84 206q-15 41 -66 41q-5 0 -17.5 -1t-17.5 -1q-33 0 -33 37zM766 1483q0 19 29 43q23 20 112 94.5t135 116.5q35 35 82 35q34 0 62 -28t28 -65q0 -45 -57 -82q-83 -48 -305 -145q-27 -12 -47 -12q-16 2 -27.5 13t-11.5 30z" />
<glyph unicode="&#xde;" horiz-adv-x="1284" d="M-61 29q0 29 11.5 51t37.5 22q3 0 21 -1t24 -1q37 0 55.5 10.5t32.5 32.5q27 48 57 176l162 707q27 123 27 164q0 63 -84 63q-5 0 -21.5 -1t-21.5 -1q-13 0 -23 8t-10 25q0 72 53 72q6 0 55.5 -3t119 -6.5t122.5 -3.5q54 0 121 3.5t113 6.5t51 3q26 0 35.5 -9.5 t9.5 -29.5q0 -24 -12.5 -45t-36.5 -21q-5 0 -22.5 1t-22.5 1q-41 0 -63.5 -6t-35.5 -24q-20 -27 -35 -88q-4 -12 -4 -31q0 -25 31 -25q11 0 73.5 2t82.5 2q215 0 318.5 -80.5t103.5 -230.5q0 -120 -49 -211t-137.5 -147t-205 -83.5t-258.5 -27.5q-22 0 -61 2t-45 2 q-20 0 -30.5 -8t-16.5 -33q-15 -77 -15 -102q0 -38 26.5 -51t82.5 -13q3 0 23 1t26 1q37 0 37 -43q0 -27 -17.5 -44t-48.5 -17q-9 0 -130 5t-187 5q-55 0 -121 -2.5t-111 -5t-49 -2.5q-38 0 -38 31zM506 455q0 -19 10 -29q14 -14 53 -14q200 0 285.5 87t85.5 271 q0 93 -59 151t-158 58q-50 0 -74 -8q-30 -9 -41 -60l-96 -415q-6 -24 -6 -41z" />
<glyph unicode="&#xdf;" horiz-adv-x="1280" d="M-442 -506q0 42 25.5 69t62.5 27q30 0 43 -26q23 -44 47 -60t76 -16q36 0 72.5 19.5t64.5 52.5q42 50 91.5 199t119.5 477q8 40 46 225t64 307q4 24 4 35q0 16 -16 16q-24 0 -71.5 -1t-67.5 -1q-11 0 -19 6.5t-8 14.5q0 66 35 69q77 10 129 29q21 7 34.5 33t53.5 132 q18 47 29 75q58 154 120.5 236t145.5 140q67 47 159 70t177 23q89 0 163.5 -27t123.5 -86.5t49 -142.5q0 -127 -73 -230t-200 -203q-4 -3 -31 -23t-39.5 -31t-32 -31t-28 -40t-8.5 -40q0 -25 36 -81.5t91 -119.5q158 -181 158 -311t-112 -219t-281 -89q-72 0 -139 18.5 t-97 45.5q-43 34 -43 71q0 42 24 76.5t74 34.5q35 0 58 -33q3 -5 16 -24.5t17 -24.5t16 -19.5t21 -18.5t24.5 -11.5t34 -9.5t41.5 -2q38 0 78 33t40 86q0 54 -31.5 117t-111.5 153q-78 87 -107.5 144t-29.5 112q0 23 10 47.5t23 43.5t42.5 48t50.5 48t66 57.5t72 62.5 q64 56 116 162t52 184q0 86 -45.5 133t-116.5 47q-118 0 -194 -94q-84 -104 -142 -321q-12 -43 -47 -206.5t-77 -363.5t-60 -280q-35 -152 -74 -275t-73 -201.5t-72.5 -141t-67.5 -95.5t-63 -63q-135 -121 -314 -121q-100 0 -163 39q-17 11 -29 29.5t-12 35.5z" />
<glyph unicode="&#xe0;" horiz-adv-x="1220" d="M18 182q0 115 46 246t147 258q208 264 481 264q95 0 158 -18q4 -1 17 -6t24 -8t16 -3q19 0 33 17q2 3 21 41q11 20 26.5 27.5t50.5 7.5q29 0 47.5 -10.5t18.5 -30.5q0 -22 -10 -49q-108 -316 -152 -474q-27 -93 -42 -170.5t-15 -101.5q0 -51 53 -51q55 0 104 61 q38 47 50 99q5 16 12.5 23t25.5 7q41 0 41 -35q0 -22 -34 -88q-48 -88 -144.5 -151.5t-187.5 -63.5q-69 0 -103 33.5t-34 95.5q0 93 32 181q15 47 15 49q0 12 -15 12q-6 0 -10 -2.5t-4.5 -4t-5.5 -9.5q-60 -102 -70 -117q-90 -138 -180 -189t-197 -51q-97 0 -156 59.5 t-59 151.5zM293 244q0 -99 69 -99q66 0 134 68q98 98 188 270q54 105 82 195q18 55 18 106q0 33 -27.5 50.5t-68.5 17.5q-66 0 -119.5 -41.5t-115.5 -128.5q-71 -100 -115.5 -228.5t-44.5 -209.5zM524 1389q3 34 30 59t71 25q56 0 84 -60q104 -209 133 -262q12 -18 12 -41 q0 -14 -12.5 -26.5t-30.5 -12.5q-24 0 -51 29q-145 138 -207 213q-29 34 -29 76z" />
<glyph unicode="&#xe1;" horiz-adv-x="1220" d="M18 182q0 115 46 246t147 258q208 264 481 264q95 0 158 -18q4 -1 17 -6t24 -8t16 -3q19 0 33 17q2 3 21 41q11 20 26.5 27.5t50.5 7.5q29 0 47.5 -10.5t18.5 -30.5q0 -22 -10 -49q-108 -316 -152 -474q-27 -93 -42 -170.5t-15 -101.5q0 -51 53 -51q55 0 104 61 q38 47 50 99q5 16 12.5 23t25.5 7q41 0 41 -35q0 -22 -34 -88q-48 -88 -144.5 -151.5t-187.5 -63.5q-69 0 -103 33.5t-34 95.5q0 93 32 181q15 47 15 49q0 12 -15 12q-6 0 -10 -2.5t-4.5 -4t-5.5 -9.5q-60 -102 -70 -117q-90 -138 -180 -189t-197 -51q-97 0 -156 59.5 t-59 151.5zM293 244q0 -99 69 -99q66 0 134 68q98 98 188 270q54 105 82 195q18 55 18 106q0 33 -27.5 50.5t-68.5 17.5q-66 0 -119.5 -41.5t-115.5 -128.5q-71 -100 -115.5 -228.5t-44.5 -209.5zM690 1108q0 20 21 45q89 125 180 260q40 60 96 60q44 0 64 -22.5t20 -55.5 q0 -41 -41 -82q-71 -71 -246 -213q-34 -27 -57 -27q-37 0 -37 35z" />
<glyph unicode="&#xe2;" horiz-adv-x="1220" d="M18 182q0 115 46 246t147 258q208 264 481 264q95 0 158 -18q4 -1 17 -6t24 -8t16 -3q19 0 33 17q2 3 21 41q11 20 26.5 27.5t50.5 7.5q29 0 47.5 -10.5t18.5 -30.5q0 -22 -10 -49q-108 -316 -152 -474q-27 -93 -42 -170.5t-15 -101.5q0 -51 53 -51q55 0 104 61 q38 47 50 99q5 16 12.5 23t25.5 7q41 0 41 -35q0 -22 -34 -88q-48 -88 -144.5 -151.5t-187.5 -63.5q-69 0 -103 33.5t-34 95.5q0 93 32 181q15 47 15 49q0 12 -15 12q-6 0 -10 -2.5t-4.5 -4t-5.5 -9.5q-60 -102 -70 -117q-90 -138 -180 -189t-197 -51q-97 0 -156 59.5 t-59 151.5zM293 244q0 -99 69 -99q66 0 134 68q98 98 188 270q54 105 82 195q18 55 18 106q0 33 -27.5 50.5t-68.5 17.5q-66 0 -119.5 -41.5t-115.5 -128.5q-71 -100 -115.5 -228.5t-44.5 -209.5zM475 1106q0 16 17 37q17 20 111.5 128t144.5 169q31 39 73 39q43 0 58 -37 q65 -156 133 -303q8 -20 8 -27q0 -18 -13 -28.5t-32 -10.5q-23 0 -39 19q-43 48 -133 161q-13 15 -23 15q-9 0 -26 -17q-105 -91 -203 -161q-20 -17 -39 -17q-15 0 -26 10.5t-11 22.5z" />
<glyph unicode="&#xe3;" horiz-adv-x="1220" d="M18 182q0 115 46 246t147 258q208 264 481 264q95 0 158 -18q4 -1 17 -6t24 -8t16 -3q19 0 33 17q2 3 21 41q11 20 26.5 27.5t50.5 7.5q29 0 47.5 -10.5t18.5 -30.5q0 -22 -10 -49q-108 -316 -152 -474q-27 -93 -42 -170.5t-15 -101.5q0 -51 53 -51q55 0 104 61 q38 47 50 99q5 16 12.5 23t25.5 7q41 0 41 -35q0 -22 -34 -88q-48 -88 -144.5 -151.5t-187.5 -63.5q-69 0 -103 33.5t-34 95.5q0 93 32 181q15 47 15 49q0 12 -15 12q-6 0 -10 -2.5t-4.5 -4t-5.5 -9.5q-60 -102 -70 -117q-90 -138 -180 -189t-197 -51q-97 0 -156 59.5 t-59 151.5zM293 244q0 -99 69 -99q66 0 134 68q98 98 188 270q54 105 82 195q18 55 18 106q0 33 -27.5 50.5t-68.5 17.5q-66 0 -119.5 -41.5t-115.5 -128.5q-71 -100 -115.5 -228.5t-44.5 -209.5zM516 1157q0 3 12 39q75 172 187 172q36 0 139 -59q73 -41 111 -41 q42 0 75 78q13 30 50 30q16 0 26 -9.5t10 -27.5q0 -5 -10 -45q-62 -174 -182 -174q-41 0 -133 47q-84 47 -111 47t-47 -13.5t-43 -55.5q-14 -25 -43 -25q-41 0 -41 37z" />
<glyph unicode="&#xe4;" horiz-adv-x="1220" d="M18 182q0 115 46 246t147 258q208 264 481 264q95 0 158 -18q4 -1 17 -6t24 -8t16 -3q19 0 33 17q2 3 21 41q11 20 26.5 27.5t50.5 7.5q29 0 47.5 -10.5t18.5 -30.5q0 -22 -10 -49q-108 -316 -152 -474q-27 -93 -42 -170.5t-15 -101.5q0 -51 53 -51q55 0 104 61 q38 47 50 99q5 16 12.5 23t25.5 7q41 0 41 -35q0 -22 -34 -88q-48 -88 -144.5 -151.5t-187.5 -63.5q-69 0 -103 33.5t-34 95.5q0 93 32 181q15 47 15 49q0 12 -15 12q-6 0 -10 -2.5t-4.5 -4t-5.5 -9.5q-60 -102 -70 -117q-90 -138 -180 -189t-197 -51q-97 0 -156 59.5 t-59 151.5zM293 244q0 -99 69 -99q66 0 134 68q98 98 188 270q54 105 82 195q18 55 18 106q0 33 -27.5 50.5t-68.5 17.5q-66 0 -119.5 -41.5t-115.5 -128.5q-71 -100 -115.5 -228.5t-44.5 -209.5zM526 1241q0 54 32.5 89.5t88.5 35.5q45 0 76 -27.5t31 -76.5 q0 -55 -32.5 -93.5t-86.5 -38.5q-46 0 -77.5 29.5t-31.5 81.5zM864 1241q0 54 32.5 89.5t88.5 35.5q45 0 76 -27.5t31 -76.5q0 -55 -32.5 -93.5t-86.5 -38.5q-46 0 -77.5 29.5t-31.5 81.5z" />
<glyph unicode="&#xe5;" horiz-adv-x="1220" d="M18 182q0 115 46 246t147 258q208 264 481 264q95 0 158 -18q4 -1 17 -6t24 -8t16 -3q19 0 33 17q2 3 21 41q11 20 26.5 27.5t50.5 7.5q29 0 47.5 -10.5t18.5 -30.5q0 -22 -10 -49q-108 -316 -152 -474q-27 -93 -42 -170.5t-15 -101.5q0 -51 53 -51q55 0 104 61 q38 47 50 99q5 16 12.5 23t25.5 7q41 0 41 -35q0 -22 -34 -88q-48 -88 -144.5 -151.5t-187.5 -63.5q-69 0 -103 33.5t-34 95.5q0 93 32 181q15 47 15 49q0 12 -15 12q-6 0 -10 -2.5t-4.5 -4t-5.5 -9.5q-60 -102 -70 -117q-90 -138 -180 -189t-197 -51q-97 0 -156 59.5 t-59 151.5zM293 244q0 -99 69 -99q66 0 134 68q98 98 188 270q54 105 82 195q18 55 18 106q0 33 -27.5 50.5t-68.5 17.5q-66 0 -119.5 -41.5t-115.5 -128.5q-71 -100 -115.5 -228.5t-44.5 -209.5zM600 1223q0 92 59.5 150.5t147.5 58.5q78 0 127 -47t49 -123q0 -89 -56 -151 t-149 -62q-81 0 -129.5 49.5t-48.5 124.5zM686 1227q0 -43 25.5 -72t68.5 -29q55 0 87 34.5t32 96.5q0 48 -27 73.5t-71 25.5q-49 0 -82 -35.5t-33 -93.5z" />
<glyph unicode="&#xe6;" horiz-adv-x="1550" d="M18 190q0 247 185 484q113 145 231.5 209.5t284.5 64.5q67 0 123 -18q7 -2 20.5 -8t22.5 -8.5t18 -2.5q18 0 35 27q10 15 18 39q15 45 70 45q57 0 57 -29q0 -16 -10 -41q-1 -2 -8.5 -19t-9.5 -24q-4 -12 -4 -16q0 -8 10 -8q3 0 24 14q66 38 114.5 52t113.5 14 q46 0 88.5 -13.5t75 -49t32.5 -87.5q0 -132 -114 -211q-85 -59 -168.5 -87.5t-257.5 -65.5q-37 -8 -45 -45q-13 -63 -13 -134q0 -12 2.5 -28.5t12.5 -44t26.5 -49t49 -38t75.5 -16.5q67 0 127.5 28t95.5 75q10 13 27.5 44t22.5 44q4 13 16.5 22.5t26.5 9.5q20 0 33.5 -10 t13.5 -22q0 -24 -23 -62q-162 -254 -454 -254q-123 0 -195.5 50t-87.5 139q-12 77 -12 96q0 12 -11 12q-9 0 -16 -12q-31 -51 -57 -86q-82 -111 -164.5 -155t-181.5 -44q-110 0 -165 62t-55 157zM293 250q0 -55 15.5 -80t53.5 -25q48 0 88.5 28.5t84.5 80.5q49 56 133 203 q66 116 96 215q20 65 20 100q0 36 -24.5 55t-65.5 19q-69 0 -129.5 -46.5t-122.5 -135.5q-51 -74 -100 -200t-49 -214zM958 545q0 -15 15 -15q14 0 20 2q84 22 146 54.5t94 67.5t46.5 67t14.5 63q0 82 -69 82q-87 0 -158 -86q-59 -68 -98 -196q-1 -1 -6 -18.5t-5 -20.5z" />
<glyph unicode="&#xe7;" horiz-adv-x="907" d="M45 266q0 278 186 496q96 113 201 159t232 46q94 0 163.5 -44t69.5 -114q0 -45 -25 -72.5t-75 -27.5q-84 0 -88 65q-3 54 -23 80q-18 27 -65 27q-66 0 -132.5 -70.5t-123.5 -208.5q-34 -85 -53 -171.5t-19 -137.5q0 -93 42.5 -145t113.5 -52q171 0 256 133q12 17 22 52 q13 38 43 38q49 0 49 -40q0 -18 -22 -58q-59 -100 -154.5 -165.5t-214.5 -80.5q-9 0 -20 -8t-17 -20q-18 -40 -18 -53q0 -19 20 -27q127 -40 127 -156q0 -58 -35.5 -106.5t-89.5 -77t-113 -44t-112 -15.5q-49 0 -49 51q0 46 63 49q67 2 112 28.5t48 81.5q0 67 -76 93 q-28 11 -28 36q0 21 20 62q3 7 14 27t17 33.5t6 19.5q0 15 -4.5 21.5t-18.5 9.5q-111 24 -170 102t-59 184z" />
<glyph unicode="&#xe8;" horiz-adv-x="931" d="M45 270q0 325 250 557q73 69 171 104.5t183 35.5q244 0 244 -176q0 -70 -50.5 -129t-135.5 -101q-76 -39 -135.5 -56.5t-213.5 -49.5q-44 -9 -53 -54q-12 -59 -12 -116q0 -92 45 -141.5t104 -49.5q98 0 155.5 33t100.5 94q21 30 31 64t43 34q23 0 35 -11t12 -25 q0 -21 -24 -64q-63 -106 -175 -177t-264 -71q-142 0 -226.5 84t-84.5 215zM342 549q0 -19 20 -19q5 0 25 5q76 22 132.5 56.5t85 66t45.5 67.5t20.5 56t3.5 36q0 66 -70 66q-25 0 -63.5 -19.5t-77.5 -68.5q-29 -35 -61.5 -96.5t-53.5 -123.5q-6 -12 -6 -26zM367 1389 q3 34 29.5 59t70.5 25q56 0 84 -60q104 -209 133 -262q12 -18 12 -41q0 -14 -12.5 -26.5t-30.5 -12.5q-24 0 -51 29q-145 138 -207 213q-28 32 -28 76z" />
<glyph unicode="&#xe9;" horiz-adv-x="931" d="M45 270q0 325 250 557q73 69 171 104.5t183 35.5q244 0 244 -176q0 -70 -50.5 -129t-135.5 -101q-76 -39 -135.5 -56.5t-213.5 -49.5q-44 -9 -53 -54q-12 -59 -12 -116q0 -92 45 -141.5t104 -49.5q98 0 155.5 33t100.5 94q21 30 31 64t43 34q23 0 35 -11t12 -25 q0 -21 -24 -64q-63 -106 -175 -177t-264 -71q-142 0 -226.5 84t-84.5 215zM342 549q0 -19 20 -19q5 0 25 5q76 22 132.5 56.5t85 66t45.5 67.5t20.5 56t3.5 36q0 66 -70 66q-25 0 -63.5 -19.5t-77.5 -68.5q-29 -35 -61.5 -96.5t-53.5 -123.5q-6 -12 -6 -26zM524 1108 q0 20 21 45q89 125 180 260q40 60 96 60q44 0 64 -22.5t20 -55.5q0 -41 -41 -82q-71 -71 -246 -213q-34 -27 -57 -27q-37 0 -37 35z" />
<glyph unicode="&#xea;" horiz-adv-x="931" d="M45 270q0 325 250 557q73 69 171 104.5t183 35.5q244 0 244 -176q0 -70 -50.5 -129t-135.5 -101q-76 -39 -135.5 -56.5t-213.5 -49.5q-44 -9 -53 -54q-12 -59 -12 -116q0 -92 45 -141.5t104 -49.5q98 0 155.5 33t100.5 94q21 30 31 64t43 34q23 0 35 -11t12 -25 q0 -21 -24 -64q-63 -106 -175 -177t-264 -71q-142 0 -226.5 84t-84.5 215zM342 549q0 -19 20 -19q5 0 25 5q76 22 132.5 56.5t85 66t45.5 67.5t20.5 56t3.5 36q0 66 -70 66q-25 0 -63.5 -19.5t-77.5 -68.5q-29 -35 -61.5 -96.5t-53.5 -123.5q-6 -12 -6 -26zM369 1106 q0 17 16 37q17 20 111.5 128t144.5 169q31 39 74 39q42 0 57 -37q65 -156 133 -303q8 -20 8 -27q0 -18 -13 -28.5t-32 -10.5q-23 0 -39 19q-43 48 -133 161q-13 15 -22 15q-10 0 -27 -17q-105 -91 -203 -161q-20 -17 -38 -17q-15 0 -26 10.5t-11 22.5z" />
<glyph unicode="&#xeb;" horiz-adv-x="931" d="M45 270q0 325 250 557q73 69 171 104.5t183 35.5q244 0 244 -176q0 -70 -50.5 -129t-135.5 -101q-76 -39 -135.5 -56.5t-213.5 -49.5q-44 -9 -53 -54q-12 -59 -12 -116q0 -92 45 -141.5t104 -49.5q98 0 155.5 33t100.5 94q21 30 31 64t43 34q23 0 35 -11t12 -25 q0 -21 -24 -64q-63 -106 -175 -177t-264 -71q-142 0 -226.5 84t-84.5 215zM342 549q0 -19 20 -19q5 0 25 5q76 22 132.5 56.5t85 66t45.5 67.5t20.5 56t3.5 36q0 66 -70 66q-25 0 -63.5 -19.5t-77.5 -68.5q-29 -35 -61.5 -96.5t-53.5 -123.5q-6 -12 -6 -26zM389 1241 q0 54 32.5 89.5t88.5 35.5q45 0 75.5 -27.5t30.5 -76.5q0 -55 -32 -93.5t-86 -38.5q-46 0 -77.5 29.5t-31.5 81.5zM727 1241q0 54 32.5 89.5t88.5 35.5q45 0 75.5 -27.5t30.5 -76.5q0 -55 -32 -93.5t-86 -38.5q-46 0 -77.5 29.5t-31.5 81.5z" />
<glyph unicode="&#xec;" horiz-adv-x="724" d="M47 678q0 23 21 57q64 98 162.5 163t203.5 65q135 0 135 -123q0 -48 -21.5 -123.5t-94.5 -280.5q-5 -13 -21 -55.5t-23.5 -64.5t-18.5 -54.5t-16 -54.5t-5 -35q0 -26 10.5 -36.5t32.5 -10.5q57 0 102 61q27 37 43 90q12 35 39 35q47 0 47 -39q0 -19 -25 -63 q-25 -47 -63 -90q-69 -75 -149.5 -110.5t-147.5 -35.5q-149 0 -149 117q0 42 28.5 130.5t93.5 266.5q78 213 78 275q0 49 -37 49q-27 0 -60 -21t-56 -59q-15 -25 -29 -61q-8 -23 -45 -23q-14 0 -24.5 9.5t-10.5 21.5zM215 1389q3 34 29.5 59t70.5 25q56 0 84 -60 q104 -209 133 -262q13 -19 13 -41q0 -14 -12.5 -26.5t-30.5 -12.5q-24 0 -51 29q-145 138 -207 213q-29 34 -29 76z" />
<glyph unicode="&#xed;" horiz-adv-x="724" d="M47 678q0 23 21 57q64 98 162.5 163t203.5 65q135 0 135 -123q0 -48 -21.5 -123.5t-94.5 -280.5q-5 -13 -21 -55.5t-23.5 -64.5t-18.5 -54.5t-16 -54.5t-5 -35q0 -26 10.5 -36.5t32.5 -10.5q57 0 102 61q27 37 43 90q12 35 39 35q47 0 47 -39q0 -19 -25 -63 q-25 -47 -63 -90q-69 -75 -149.5 -110.5t-147.5 -35.5q-149 0 -149 117q0 42 28.5 130.5t93.5 266.5q78 213 78 275q0 49 -37 49q-27 0 -60 -21t-56 -59q-15 -25 -29 -61q-8 -23 -45 -23q-14 0 -24.5 9.5t-10.5 21.5zM340 1108q0 21 20 45q108 151 181 260q40 60 96 60 q44 0 64 -22.5t20 -55.5q0 -41 -41 -82q-71 -71 -246 -213q-34 -27 -57 -27q-37 0 -37 35z" />
<glyph unicode="&#xee;" horiz-adv-x="724" d="M47 678q0 23 21 57q64 98 162.5 163t203.5 65q135 0 135 -123q0 -48 -21.5 -123.5t-94.5 -280.5q-5 -13 -21 -55.5t-23.5 -64.5t-18.5 -54.5t-16 -54.5t-5 -35q0 -26 10.5 -36.5t32.5 -10.5q57 0 102 61q27 37 43 90q12 35 39 35q47 0 47 -39q0 -19 -25 -63 q-25 -47 -63 -90q-69 -75 -149.5 -110.5t-147.5 -35.5q-149 0 -149 117q0 42 28.5 130.5t93.5 266.5q78 213 78 275q0 49 -37 49q-27 0 -60 -21t-56 -59q-15 -25 -29 -61q-8 -23 -45 -23q-14 0 -24.5 9.5t-10.5 21.5zM158 1106q0 17 16 37q17 20 111.5 128t144.5 169 q31 39 74 39q42 0 57 -37q65 -156 133 -303q8 -20 8 -27q0 -18 -13 -28.5t-32 -10.5q-23 0 -39 19q-43 48 -133 161q-13 15 -22 15q-10 0 -27 -17q-105 -91 -203 -161q-20 -17 -38 -17q-15 0 -26 10.5t-11 22.5z" />
<glyph unicode="&#xef;" horiz-adv-x="724" d="M47 678q0 23 21 57q64 98 162.5 163t203.5 65q135 0 135 -123q0 -48 -21.5 -123.5t-94.5 -280.5q-5 -13 -21 -55.5t-23.5 -64.5t-18.5 -54.5t-16 -54.5t-5 -35q0 -26 10.5 -36.5t32.5 -10.5q57 0 102 61q27 37 43 90q12 35 39 35q47 0 47 -39q0 -19 -25 -63 q-25 -47 -63 -90q-69 -75 -149.5 -110.5t-147.5 -35.5q-149 0 -149 117q0 42 28.5 130.5t93.5 266.5q78 213 78 275q0 49 -37 49q-27 0 -60 -21t-56 -59q-15 -25 -29 -61q-8 -23 -45 -23q-14 0 -24.5 9.5t-10.5 21.5zM197 1241q0 54 32.5 89.5t87.5 35.5q45 0 76 -27.5 t31 -76.5q0 -55 -32.5 -93.5t-86.5 -38.5q-46 0 -77 29.5t-31 81.5zM535 1241q0 54 32.5 89.5t87.5 35.5q45 0 76 -27.5t31 -76.5q0 -55 -32.5 -93.5t-86.5 -38.5q-46 0 -77 29.5t-31 81.5z" />
<glyph unicode="&#xf0;" horiz-adv-x="1038" d="M49 315q0 258 172 461q70 79 171 125.5t210 46.5q90 0 135 -39q21 -18 29 -18q14 0 14 22q0 86 -6 121q-18 110 -53 199q-3 10 -16 10q-9 0 -17 -4l-211 -104q-26 -13 -45 -13q-16 0 -27.5 19.5t-11.5 40.5q0 24 27 37l215 106q16 8 16 21q0 2 -4 14q-28 62 -108 135 q-53 43 -93 70q-26 17 -26 37q0 55 55 55q31 0 103 -33q119 -54 235 -180q8 -8 18 -8q9 0 17 4l162 84q13 8 30 8t30 -20.5t13 -45.5q0 -18 -41 -41l-137 -67q-14 -7 -18 -19q0 -8 2 -12q65 -136 86.5 -260t21.5 -291q0 -147 -56 -332t-132 -282q-68 -87 -171.5 -139 t-221.5 -52q-169 0 -268 94t-99 250zM297 217q0 -67 30.5 -111.5t84.5 -44.5t93 29.5t77 95.5q56 96 98.5 261t42.5 260q0 143 -109 143q-49 0 -90 -26t-82 -95q-66 -109 -105.5 -247t-39.5 -265z" />
<glyph unicode="&#xf1;" horiz-adv-x="1253" d="M47 682q0 24 31 70q64 93 158.5 152t201.5 59q51 0 80 -27.5t29 -65.5q0 -39 -19 -93t-73 -177q-4 -12 -4 -16q0 -11 14 -11q7 0 14 11q24 41 36 60.5t40.5 58.5t62.5 77q157 176 351 176q35 0 63.5 -7.5t53 -35t24.5 -73.5q0 -24 -6 -55.5t-20.5 -79t-24 -76 t-33.5 -95.5t-31 -88q-50 -141 -65 -193.5t-17 -82.5q0 -45 41 -45q62 0 111 70q23 33 35 73q11 43 45 43q22 0 32.5 -11t10.5 -26q0 -17 -23 -63q-44 -77 -104 -129q-128 -109 -264 -109q-144 0 -144 107q0 28 15 80.5t52 163.5t54 165q64 207 64 244q0 39 -43 39 q-49 0 -97 -45q-71 -64 -120 -123t-95 -143q-27 -50 -61 -144.5t-49 -154.5q-7 -28 -11 -84q-2 -24 -5.5 -37.5t-14.5 -28.5t-34 -21.5t-60 -6.5q-76 0 -109 30t-33 74q0 22 17 82q2 6 59 168t86 266q31 108 31 160q0 47 -33 47q-45 0 -86 -47q-35 -41 -49 -86 q-10 -31 -45 -31q-19 0 -29 10t-10 25zM442 1157q0 5 2.5 13t6.5 16.5t4 9.5q75 172 186 172q36 0 139 -59q73 -41 111 -41q43 0 76 78q13 30 49 30q16 0 26.5 -9.5t10.5 -27.5q0 -1 -11 -45q-62 -174 -182 -174q-41 0 -133 47q-84 47 -111 47t-47 -13.5t-43 -55.5 q-14 -25 -43 -25q-41 0 -41 37z" />
<glyph unicode="&#xf2;" horiz-adv-x="1036" d="M49 315q0 132 50 256.5t134 223.5q69 78 180 125t222 47q157 0 248.5 -87t91.5 -233q0 -130 -44.5 -259t-121.5 -226q-68 -87 -171.5 -139t-221.5 -52q-169 0 -268 94t-99 250zM297 217q0 -67 30.5 -111.5t84.5 -44.5t93 29.5t77 95.5q57 98 105 274t48 269 q0 143 -108 143q-48 0 -89 -27.5t-83 -96.5q-68 -112 -113 -259.5t-45 -271.5zM420 1389q3 34 29.5 59t70.5 25q56 0 84 -60q104 -209 133 -262q13 -19 13 -41q0 -14 -12.5 -26.5t-30.5 -12.5q-25 0 -52 29q-140 134 -206 213q-29 34 -29 76z" />
<glyph unicode="&#xf3;" horiz-adv-x="1036" d="M49 315q0 132 50 256.5t134 223.5q69 78 180 125t222 47q157 0 248.5 -87t91.5 -233q0 -130 -44.5 -259t-121.5 -226q-68 -87 -171.5 -139t-221.5 -52q-169 0 -268 94t-99 250zM297 217q0 -67 30.5 -111.5t84.5 -44.5t93 29.5t77 95.5q57 98 105 274t48 269 q0 143 -108 143q-48 0 -89 -27.5t-83 -96.5q-68 -112 -113 -259.5t-45 -271.5zM541 1108q0 21 20 45q89 125 180 260q40 60 97 60q44 0 64 -22.5t20 -55.5q0 -41 -41 -82q-71 -71 -246 -213q-34 -27 -57 -27q-37 0 -37 35z" />
<glyph unicode="&#xf4;" horiz-adv-x="1036" d="M49 315q0 132 50 256.5t134 223.5q69 78 180 125t222 47q157 0 248.5 -87t91.5 -233q0 -130 -44.5 -259t-121.5 -226q-68 -87 -171.5 -139t-221.5 -52q-169 0 -268 94t-99 250zM297 217q0 -67 30.5 -111.5t84.5 -44.5t93 29.5t77 95.5q57 98 105 274t48 269 q0 143 -108 143q-48 0 -89 -27.5t-83 -96.5q-68 -112 -113 -259.5t-45 -271.5zM379 1106q0 17 16 37q17 20 111.5 128t144.5 169q31 39 74 39q42 0 57 -37q65 -156 133 -303q9 -23 9 -27q0 -18 -13 -28.5t-32 -10.5q-23 0 -39 19q-43 48 -133 161q-12 15 -23 15 q-10 0 -27 -17q-110 -95 -202 -161q-20 -17 -39 -17q-15 0 -26 10.5t-11 22.5z" />
<glyph unicode="&#xf5;" horiz-adv-x="1036" d="M49 315q0 132 50 256.5t134 223.5q69 78 180 125t222 47q157 0 248.5 -87t91.5 -233q0 -130 -44.5 -259t-121.5 -226q-68 -87 -171.5 -139t-221.5 -52q-169 0 -268 94t-99 250zM297 217q0 -67 30.5 -111.5t84.5 -44.5t93 29.5t77 95.5q57 98 105 274t48 269 q0 143 -108 143q-48 0 -89 -27.5t-83 -96.5q-68 -112 -113 -259.5t-45 -271.5zM397 1157q0 5 2.5 13t6.5 16.5t4 9.5q75 172 186 172q36 0 139 -59q73 -41 111 -41q43 0 76 78q13 30 49 30q16 0 26.5 -9.5t10.5 -27.5q0 -1 -11 -45q-62 -174 -182 -174q-41 0 -133 47 q-84 47 -111 47t-47 -13.5t-43 -55.5q-14 -25 -43 -25q-41 0 -41 37z" />
<glyph unicode="&#xf6;" horiz-adv-x="1036" d="M49 315q0 132 50 256.5t134 223.5q69 78 180 125t222 47q157 0 248.5 -87t91.5 -233q0 -130 -44.5 -259t-121.5 -226q-68 -87 -171.5 -139t-221.5 -52q-169 0 -268 94t-99 250zM297 217q0 -67 30.5 -111.5t84.5 -44.5t93 29.5t77 95.5q57 98 105 274t48 269 q0 143 -108 143q-48 0 -89 -27.5t-83 -96.5q-68 -112 -113 -259.5t-45 -271.5zM414 1241q0 54 32.5 89.5t88.5 35.5q45 0 75.5 -27.5t30.5 -76.5q0 -55 -32.5 -93.5t-86.5 -38.5q-46 0 -77 29.5t-31 81.5zM752 1241q0 54 32.5 89.5t87.5 35.5q45 0 76 -27.5t31 -76.5 q0 -55 -32.5 -93.5t-86.5 -38.5q-46 0 -77 29.5t-31 81.5z" />
<glyph unicode="&#xf7;" horiz-adv-x="1314" d="M195 489q0 5 4 37l20 80q10 29 33 29h919q25 0 25 -23q0 -2 -4 -34l-21 -82q-9 -25 -34 -25h-918q-24 0 -24 18zM487 211q0 67 41 112.5t105 45.5q50 0 82.5 -29t32.5 -78q0 -74 -43.5 -117t-102.5 -43q-55 0 -85 29.5t-30 79.5zM635 842q0 67 41.5 112t105.5 45 q50 0 81.5 -29t31.5 -79q0 -75 -42.5 -117.5t-102.5 -42.5q-53 0 -84 30.5t-31 80.5z" />
<glyph unicode="&#xf8;" horiz-adv-x="1036" d="M2 -2q0 14 14 31l70 75q10 10 10 21q0 2 -6 14q-41 77 -41 176q0 132 50 256.5t134 223.5q69 78 180 125t222 47q100 0 176 -39q12 -6 16 -6q10 0 21 14l57 63q13 15 33 15q21 -2 38 -18.5t17 -37.5q0 -11 -16 -30l-53 -58q-11 -11 -11 -20q0 -7 9 -16q53 -77 53 -187 q0 -130 -44.5 -259t-121.5 -226q-68 -87 -171.5 -139t-221.5 -52q-136 0 -230 62q-8 8 -16 8q-6 0 -18 -12l-60 -66q-16 -16 -37 -16q-17 0 -35 18t-18 33zM287 164q0 -20 10 -35q14 -30 41 -50t65 -20q123 0 193 125q40 72 80 193.5t59 226.5q4 20 4 33q0 12 -10 12 q-6 0 -20 -14l-410 -447q-12 -12 -12 -24zM301 377q0 -17 10 -17q9 0 19 13l391 424q10 10 10 20q0 8 -6 17q-28 40 -88 40q-55 0 -101 -27t-92 -99q-85 -136 -137 -338q-6 -24 -6 -33z" />
<glyph unicode="&#xf9;" horiz-adv-x="1280" d="M47 680q0 29 27 68q158 215 377 215q51 0 84.5 -29t33.5 -76q0 -56 -18.5 -126.5t-83.5 -233.5q-84 -214 -84 -277q0 -55 51 -55q25 0 62.5 17.5t74.5 54.5q107 107 181 247q72 135 110 254q21 65 21 115q0 92 94 92q52 0 86.5 -6t50.5 -16.5t21.5 -21.5t5.5 -25 q0 -8 -1 -16t-5 -23t-9 -32t-15.5 -51.5t-22 -73t-31.5 -105t-41 -138.5q-55 -189 -55 -262q0 -55 49 -55q37 0 66.5 30t58.5 87q1 2 14 41q8 32 35 32q19 0 32 -7.5t13 -20.5q0 -20 -21 -68q-54 -113 -144 -177.5t-181 -64.5q-154 0 -154 125q0 46 13.5 94t58.5 179 q4 12 4 16q0 6 -10 6q-9 0 -15 -12q-49 -99 -162 -229q-160 -179 -319 -179q-180 0 -180 160q0 61 110 352q39 106 59.5 183t20.5 100q0 43 -37 43q-24 0 -56 -19t-60 -61q-16 -24 -27 -57q-10 -27 -43 -27q-17 0 -28 9.5t-11 23.5zM475 1389q3 34 29.5 59t70.5 25 q56 0 84 -60q91 -182 134 -262q12 -18 12 -41q0 -14 -12.5 -26.5t-30.5 -12.5q-24 0 -51 29q-145 138 -207 213q-29 34 -29 76z" />
<glyph unicode="&#xfa;" horiz-adv-x="1280" d="M47 680q0 29 27 68q158 215 377 215q51 0 84.5 -29t33.5 -76q0 -56 -18.5 -126.5t-83.5 -233.5q-84 -214 -84 -277q0 -55 51 -55q25 0 62.5 17.5t74.5 54.5q107 107 181 247q72 135 110 254q21 65 21 115q0 92 94 92q52 0 86.5 -6t50.5 -16.5t21.5 -21.5t5.5 -25 q0 -8 -1 -16t-5 -23t-9 -32t-15.5 -51.5t-22 -73t-31.5 -105t-41 -138.5q-55 -189 -55 -262q0 -55 49 -55q37 0 66.5 30t58.5 87q1 2 14 41q8 32 35 32q19 0 32 -7.5t13 -20.5q0 -20 -21 -68q-54 -113 -144 -177.5t-181 -64.5q-154 0 -154 125q0 46 13.5 94t58.5 179 q4 12 4 16q0 6 -10 6q-9 0 -15 -12q-49 -99 -162 -229q-160 -179 -319 -179q-180 0 -180 160q0 61 110 352q39 106 59.5 183t20.5 100q0 43 -37 43q-24 0 -56 -19t-60 -61q-16 -24 -27 -57q-10 -27 -43 -27q-17 0 -28 9.5t-11 23.5zM621 1108q0 21 20 45q89 125 180 260 q40 60 97 60q44 0 63.5 -22.5t19.5 -55.5q0 -42 -40 -82q-71 -71 -246 -213q-34 -27 -58 -27q-36 0 -36 35z" />
<glyph unicode="&#xfb;" horiz-adv-x="1280" d="M47 680q0 29 27 68q158 215 377 215q51 0 84.5 -29t33.5 -76q0 -56 -18.5 -126.5t-83.5 -233.5q-84 -214 -84 -277q0 -55 51 -55q25 0 62.5 17.5t74.5 54.5q107 107 181 247q72 135 110 254q21 65 21 115q0 92 94 92q52 0 86.5 -6t50.5 -16.5t21.5 -21.5t5.5 -25 q0 -8 -1 -16t-5 -23t-9 -32t-15.5 -51.5t-22 -73t-31.5 -105t-41 -138.5q-55 -189 -55 -262q0 -55 49 -55q37 0 66.5 30t58.5 87q1 2 14 41q8 32 35 32q19 0 32 -7.5t13 -20.5q0 -20 -21 -68q-54 -113 -144 -177.5t-181 -64.5q-154 0 -154 125q0 46 13.5 94t58.5 179 q4 12 4 16q0 6 -10 6q-9 0 -15 -12q-49 -99 -162 -229q-160 -179 -319 -179q-180 0 -180 160q0 61 110 352q39 106 59.5 183t20.5 100q0 43 -37 43q-24 0 -56 -19t-60 -61q-16 -24 -27 -57q-10 -27 -43 -27q-17 0 -28 9.5t-11 23.5zM477 1106q0 16 17 37q17 20 111.5 128 t144.5 169q31 39 73 39q43 0 58 -37q65 -156 133 -303q8 -20 8 -27q0 -18 -13 -28.5t-32 -10.5q-23 0 -39 19q-43 48 -133 161q-13 15 -23 15q-9 0 -26 -17q-105 -91 -203 -161q-20 -17 -39 -17q-15 0 -26 10.5t-11 22.5z" />
<glyph unicode="&#xfc;" horiz-adv-x="1280" d="M47 680q0 29 27 68q158 215 377 215q51 0 84.5 -29t33.5 -76q0 -56 -18.5 -126.5t-83.5 -233.5q-84 -214 -84 -277q0 -55 51 -55q25 0 62.5 17.5t74.5 54.5q107 107 181 247q72 135 110 254q21 65 21 115q0 92 94 92q52 0 86.5 -6t50.5 -16.5t21.5 -21.5t5.5 -25 q0 -8 -1 -16t-5 -23t-9 -32t-15.5 -51.5t-22 -73t-31.5 -105t-41 -138.5q-55 -189 -55 -262q0 -55 49 -55q37 0 66.5 30t58.5 87q1 2 14 41q8 32 35 32q19 0 32 -7.5t13 -20.5q0 -20 -21 -68q-54 -113 -144 -177.5t-181 -64.5q-154 0 -154 125q0 46 13.5 94t58.5 179 q4 12 4 16q0 6 -10 6q-9 0 -15 -12q-49 -99 -162 -229q-160 -179 -319 -179q-180 0 -180 160q0 61 110 352q39 106 59.5 183t20.5 100q0 43 -37 43q-24 0 -56 -19t-60 -61q-16 -24 -27 -57q-10 -27 -43 -27q-17 0 -28 9.5t-11 23.5zM487 1241q0 54 32.5 89.5t88.5 35.5 q45 0 76 -27.5t31 -76.5q0 -55 -32.5 -93.5t-86.5 -38.5q-46 0 -77.5 29.5t-31.5 81.5zM825 1241q0 54 32.5 89.5t88.5 35.5q45 0 76 -27.5t31 -76.5q0 -55 -32.5 -93.5t-86.5 -38.5q-46 0 -77.5 29.5t-31.5 81.5z" />
<glyph unicode="&#xfd;" horiz-adv-x="1179" d="M-72 -471q0 41 32.5 71.5t68.5 30.5q58 0 75 -47q19 -46 68.5 -71t99.5 -25q85 0 138 33q103 65 183 218.5t204 489.5q4 12 4 17q0 3 -3.5 6.5t-6.5 3.5q-10 0 -15 -8q-94 -128 -214 -201.5t-251 -73.5q-97 0 -143.5 41t-46.5 107q0 13 1.5 26.5t2.5 25t5.5 28.5t7 28 t10 33t11.5 34t14.5 40.5t15.5 42.5t19 50.5t21 55.5q29 77 54.5 165t25.5 110q0 51 -39 51q-61 0 -116 -84q-7 -11 -27 -57q-9 -23 -47 -23q-11 0 -22 9t-11 20q0 33 27 72q66 97 162 156t196 59q137 0 137 -117q0 -45 -22 -120.5t-84 -231.5q-1 -3 -13.5 -35t-21 -56.5 t-20 -58.5t-17.5 -64t-6 -51q0 -39 20 -52t56 -13q67 0 131.5 31t116.5 82.5t92.5 112t68.5 126.5q16 38 28.5 91.5t12.5 80.5q0 64 -11 109t-48 88q-39 46 -39 65q0 32 29.5 60t81.5 28q57 0 94 -57q59 -94 59 -266q0 -163 -65 -441q-34 -144 -80.5 -268t-116.5 -240.5 t-155 -198.5t-200.5 -131.5t-248.5 -49.5q-146 0 -213 39q-32 19 -51 47t-19 57zM561 1108q0 20 21 45q89 125 180 260q40 60 96 60q44 0 64 -22.5t20 -55.5q0 -41 -41 -82q-71 -71 -246 -213q-34 -27 -57 -27q-37 0 -37 35z" />
<glyph unicode="&#xfe;" horiz-adv-x="1157" d="M-295 -553q0 25 12 42t35 17q2 0 18.5 -1t24.5 -1q44 0 76 41q33 44 68 164q89 308 471 1573q20 73 20 102q0 33 -20.5 55t-71.5 36q-23 7 -23 32q0 11 8 22.5t17 12.5q221 49 365 105q24 8 36 8q27 0 27 -23q0 -13 -8 -33q-273 -795 -350 -976q-4 -12 -4 -15 q0 -12 14 -12q7 0 14 10q46 81 84 129q182 228 389 228q90 0 141.5 -58.5t51.5 -142.5q0 -99 -33.5 -224t-116.5 -253q-95 -149 -224 -224t-267 -75q-75 0 -137 8q-30 6 -37 6q-15 0 -23 -29q-14 -47 -29.5 -97t-25 -80.5t-19.5 -63t-15.5 -51t-11 -38t-8 -30t-5 -21.5 t-3 -18t-0.5 -14q3 -30 23 -42t65 -12q2 0 25.5 1t30.5 1q35 0 35 -32q0 -30 -14 -48t-38 -18q-1 0 -107.5 4t-172.5 4q-54 0 -150.5 -4t-103.5 -4q-13 0 -23 12t-10 27zM338 166q0 -37 29 -57q34 -23 102 -23q110 0 203 143q63 98 107 229.5t44 205.5q0 114 -67 114 q-73 0 -140 -57q-99 -83 -180 -244q-25 -49 -38.5 -79t-28.5 -75.5t-23 -89.5q-8 -50 -8 -67z" />
<glyph unicode="&#xff;" horiz-adv-x="1179" d="M-72 -471q0 41 32.5 71.5t68.5 30.5q58 0 75 -47q19 -46 68.5 -71t99.5 -25q85 0 138 33q103 65 183 218.5t204 489.5q4 12 4 17q0 3 -3.5 6.5t-6.5 3.5q-10 0 -15 -8q-94 -128 -214 -201.5t-251 -73.5q-97 0 -143.5 41t-46.5 107q0 13 1.5 26.5t2.5 25t5.5 28.5t7 28 t10 33t11.5 34t14.5 40.5t15.5 42.5t19 50.5t21 55.5q29 77 54.5 165t25.5 110q0 51 -39 51q-61 0 -116 -84q-7 -11 -27 -57q-9 -23 -47 -23q-11 0 -22 9t-11 20q0 33 27 72q66 97 162 156t196 59q137 0 137 -117q0 -45 -22 -120.5t-84 -231.5q-1 -3 -13.5 -35t-21 -56.5 t-20 -58.5t-17.5 -64t-6 -51q0 -39 20 -52t56 -13q67 0 131.5 31t116.5 82.5t92.5 112t68.5 126.5q16 38 28.5 91.5t12.5 80.5q0 64 -11 109t-48 88q-39 46 -39 65q0 32 29.5 60t81.5 28q57 0 94 -57q59 -94 59 -266q0 -163 -65 -441q-34 -144 -80.5 -268t-116.5 -240.5 t-155 -198.5t-200.5 -131.5t-248.5 -49.5q-146 0 -213 39q-32 19 -51 47t-19 57zM422 1241q0 54 32.5 89.5t88.5 35.5q45 0 75.5 -27.5t30.5 -76.5q0 -55 -32.5 -93.5t-86.5 -38.5q-46 0 -77 29.5t-31 81.5zM760 1241q0 54 32.5 89.5t88.5 35.5q45 0 75.5 -27.5t30.5 -76.5 q0 -55 -32.5 -93.5t-86.5 -38.5q-46 0 -77 29.5t-31 81.5z" />
<glyph unicode="&#x152;" horiz-adv-x="2052" d="M113 530q0 186 65 348.5t187 278.5q224 211 571 211q203 0 317 -12q112 -10 265 -10q177 0 321.5 4t155.5 4q43 0 43 -39q0 -8 -3 -34t-10 -89.5t-14 -140.5q-3 -39 -51 -39q-49 0 -49 39q0 62 -5.5 95t-23.5 56q-21 28 -54.5 34.5t-123.5 6.5q-92 0 -168 -6 q-19 -2 -30.5 -13.5t-18.5 -39.5l-80 -340q-6 -21 -6 -47q0 -43 65 -43q95 0 142 18q29 11 51.5 43t46.5 103q11 32 55 32q43 0 43 -37q0 -15 -16 -68t-42 -149t-44 -192q-5 -37 -49 -37q-47 0 -47 35q0 8 1 23t1 20q0 34 -5 55t-9.5 26.5t-14.5 12.5q-26 18 -145 18 q-42 0 -59 -10t-23 -39l-74 -327q-12 -54 -12 -97q0 -41 40.5 -55t163.5 -14q188 0 252 37q75 43 148 182q18 31 49 31q51 0 51 -39q0 -22 -33 -113t-59 -145q-34 -70 -88 -70q-90 0 -269.5 6t-318.5 6q-68 0 -140 -5l-73 -5q-27 0 -165.5 -7t-178.5 -7q-128 0 -231 43.5 t-168 118.5t-99 172.5t-34 209.5zM432 487q0 -197 70.5 -300t206.5 -103q90 0 145 18q40 14 60.5 31.5t35.5 44.5q19 34 33 103l182 792q13 60 13 98q0 50 -48 70q-53 23 -174 23q-131 0 -235 -70.5t-172 -194.5q-117 -209 -117 -512z" />
<glyph unicode="&#x153;" horiz-adv-x="1544" d="M49 317q0 98 26.5 193t77.5 177t121 145t163 99t196 36q188 0 266 -121q11 -19 16 -19q10 0 25 15q41 41 125 82q84 43 219 43q52 0 100 -15t84.5 -53t36.5 -92q0 -133 -123 -209q-95 -60 -171.5 -86t-245.5 -59q-37 -8 -45 -45q-15 -73 -15 -129q0 -86 44.5 -135.5 t121.5 -49.5q151 0 238 125q19 24 32 64q12 36 43 36q21 0 34.5 -10.5t13.5 -25.5q0 -18 -23 -62q-58 -102 -168.5 -176t-241.5 -74q-99 0 -155 29.5t-94 85.5q-9 12 -15 12q-7 0 -20 -10q-65 -61 -157 -89t-152 -28q-162 0 -259.5 95t-97.5 251zM295 258q0 -35 2 -61 t10 -53t21 -44t35.5 -28t54.5 -11q59 0 113.5 58.5t90 142t62.5 176.5t39 162t12 98q0 102 -26.5 138t-94.5 36q-57 0 -117.5 -70t-103.5 -168t-70.5 -202t-27.5 -174zM954 547q0 -17 17 -17q16 0 22 2q82 21 143 59.5t91.5 80t44.5 77t14 62.5q0 72 -59 72q-87 0 -164 -105 q-62 -81 -102 -205q-7 -14 -7 -26z" />
<glyph unicode="&#x178;" horiz-adv-x="1411" d="M190 1288q0 29 15.5 49.5t46.5 20.5q7 0 53 -3t112 -6t124 -3q42 0 182 6t147 6q31 0 31 -39q0 -31 -15 -49.5t-44 -18.5q-9 0 -19 1t-20 1q-113 0 -113 -75q0 -57 39 -166l68 -199q24 -74 43 -74q21 0 78 72l157 205q88 115 106 152q11 23 11 38q0 30 -18.5 38.5 t-69.5 8.5q-21 0 -38.5 -1t-18.5 -1q-31 0 -31 33q0 74 57 74l85 -6q85 -6 165 -6q59 0 130.5 6t74.5 6q30 0 42.5 -8t12.5 -33q0 -27 -12.5 -45.5t-30.5 -18.5q-4 0 -20 1t-23 1q-39 0 -78 -36q-45 -38 -182 -201l-332 -402q-4 -4 -11 -18.5t-11 -19.5q-11 -15 -15 -43 l-49 -211q-22 -93 -22 -154q0 -34 20 -51q22 -19 80 -19q4 0 18 1t17 1q19 0 27 -10t8 -33t-14.5 -42t-45.5 -19q-5 0 -55 3t-120.5 6t-125.5 3q-56 0 -128.5 -3t-124.5 -6t-56 -3q-37 0 -37 37q0 26 13 46.5t40 20.5q3 0 23 -1t26 -1q74 0 99 41q32 50 63 185l43 186 q8 28 8 49q0 19 -12 49l-155 396q0 1 -84 206q-15 41 -66 41q-5 0 -17.5 -1t-17.5 -1q-33 0 -33 37zM625 1573q0 51 34.5 86t85.5 35q47 0 77 -32t30 -83q0 -52 -33.5 -87.5t-81.5 -35.5q-50 0 -81 31t-31 86zM987 1573q0 51 35 86t86 35q47 0 76.5 -32t29.5 -83 q0 -52 -33 -87.5t-81 -35.5q-50 0 -81.5 31t-31.5 86z" />
<glyph unicode="&#x2c6;" horiz-adv-x="593" d="M25 1106q0 17 16 37q17 20 111.5 128t144.5 169q31 39 74 39q42 0 57 -37q65 -156 133 -303q8 -20 8 -27q0 -18 -13 -28.5t-32 -10.5q-23 0 -39 19q-43 48 -133 161q-12 15 -22 15t-27 -17q-105 -91 -203 -161q-20 -17 -39 -17q-15 0 -25.5 10.5t-10.5 22.5z" />
<glyph unicode="&#x2dc;" horiz-adv-x="593" d="M-8 1157q0 3 12 39q75 172 186 172q37 0 140 -59q73 -41 110 -41q43 0 76 78q13 30 49 30q16 0 26.5 -9.5t10.5 -27.5q0 -5 -10 -45q-62 -174 -182 -174q-42 0 -134 47q-84 47 -110 47q-27 0 -47 -13.5t-43 -55.5q-14 -25 -43 -25q-41 0 -41 37z" />
<glyph unicode="&#x2000;" horiz-adv-x="904" />
<glyph unicode="&#x2001;" horiz-adv-x="1808" />
<glyph unicode="&#x2002;" horiz-adv-x="904" />
<glyph unicode="&#x2003;" horiz-adv-x="1808" />
<glyph unicode="&#x2004;" horiz-adv-x="602" />
<glyph unicode="&#x2005;" horiz-adv-x="452" />
<glyph unicode="&#x2006;" horiz-adv-x="301" />
<glyph unicode="&#x2007;" horiz-adv-x="301" />
<glyph unicode="&#x2008;" horiz-adv-x="226" />
<glyph unicode="&#x2009;" horiz-adv-x="361" />
<glyph unicode="&#x200a;" horiz-adv-x="100" />
<glyph unicode="&#x2010;" horiz-adv-x="569" d="M61 467q0 58 29 121q15 37 51 37h355q47 0 47 -43q0 -16 -8 -54t-17 -59q-11 -26 -22.5 -35.5t-34.5 -9.5h-357q-43 0 -43 43z" />
<glyph unicode="&#x2011;" horiz-adv-x="569" d="M61 467q0 58 29 121q15 37 51 37h355q47 0 47 -43q0 -16 -8 -54t-17 -59q-11 -26 -22.5 -35.5t-34.5 -9.5h-357q-43 0 -43 43z" />
<glyph unicode="&#x2012;" horiz-adv-x="569" d="M61 467q0 58 29 121q15 37 51 37h355q47 0 47 -43q0 -16 -8 -54t-17 -59q-11 -26 -22.5 -35.5t-34.5 -9.5h-357q-43 0 -43 43z" />
<glyph unicode="&#x2013;" horiz-adv-x="919" d="M61 467q0 54 29 117q15 37 51 37h707q47 0 47 -43q0 -16 -8 -52t-17 -57q-10 -26 -21.5 -33.5t-35.5 -7.5h-709q-23 0 -33 8.5t-10 30.5z" />
<glyph unicode="&#x2014;" horiz-adv-x="1329" d="M61 467q0 54 29 117q15 37 51 37h1116q48 0 48 -43q0 -16 -8 -52t-17 -57q-10 -26 -21.5 -33.5t-35.5 -7.5h-1119q-23 0 -33 8.5t-10 30.5z" />
<glyph unicode="&#x2018;" horiz-adv-x="458" d="M162 1014q0 134 91 242.5t236 164.5q45 15 62 15q18 0 32.5 -13t14.5 -32q0 -40 -39 -52q-76 -23 -132 -71.5t-56 -120.5q0 -47 51 -92q37 -34 37 -88q0 -55 -37.5 -92t-97.5 -37q-77 0 -119.5 48.5t-42.5 127.5z" />
<glyph unicode="&#x2019;" horiz-adv-x="458" d="M109 874q0 41 38 52q76 23 132.5 71.5t56.5 120.5q0 47 -51 92q-37 34 -37 88q0 55 37.5 92t97.5 37q77 0 119.5 -48.5t42.5 -127.5q0 -134 -91.5 -242.5t-236.5 -164.5q-45 -15 -61 -15q-18 0 -32.5 13t-14.5 32z" />
<glyph unicode="&#x201a;" horiz-adv-x="458" d="M-145 -276q0 39 39 51q76 23 132 71.5t56 120.5q0 47 -51 92q-37 34 -37 88q0 55 37.5 92t97.5 37q77 0 119.5 -48.5t42.5 -127.5q0 -134 -91.5 -242.5t-236.5 -164.5q-45 -15 -61 -15q-18 0 -32.5 13t-14.5 33z" />
<glyph unicode="&#x201c;" horiz-adv-x="837" d="M162 1014q0 134 91 242.5t236 164.5q45 15 62 15q18 0 32.5 -13t14.5 -32q0 -40 -39 -52q-76 -23 -132 -71.5t-56 -120.5q0 -47 51 -92q37 -34 37 -88q0 -55 -37.5 -92t-97.5 -37q-77 0 -119.5 48.5t-42.5 127.5zM541 1014q0 134 91 242.5t236 164.5q45 15 62 15 q18 0 32.5 -13t14.5 -32q0 -40 -39 -52q-76 -23 -132 -71.5t-56 -120.5q0 -47 51 -92q37 -34 37 -88q0 -55 -38 -92t-98 -37q-77 0 -119 48.5t-42 127.5z" />
<glyph unicode="&#x201d;" horiz-adv-x="837" d="M109 874q0 41 38 52q76 23 132.5 71.5t56.5 120.5q0 47 -51 92q-37 34 -37 88q0 55 37.5 92t97.5 37q77 0 119.5 -48.5t42.5 -127.5q0 -134 -91.5 -242.5t-236.5 -164.5q-45 -15 -61 -15q-18 0 -32.5 13t-14.5 32zM487 874q0 40 39 52q76 23 132.5 71.5t56.5 120.5 q0 47 -51 92q-37 34 -37 88q0 55 37.5 92t97.5 37q77 0 119.5 -48.5t42.5 -127.5q0 -134 -91.5 -242.5t-236.5 -164.5q-45 -15 -61 -15q-18 0 -33 13t-15 32z" />
<glyph unicode="&#x201e;" horiz-adv-x="837" d="M-145 -276q0 39 39 51q76 23 132 71.5t56 120.5q0 47 -51 92q-37 34 -37 88q0 55 37.5 92t97.5 37q77 0 119.5 -48.5t42.5 -127.5q0 -134 -91.5 -242.5t-236.5 -164.5q-45 -15 -61 -15q-18 0 -32.5 13t-14.5 33zM233 -276q0 39 39 51q76 23 132.5 71.5t56.5 120.5 q0 47 -51 92q-37 34 -37 88q0 55 37.5 92t97.5 37q77 0 119.5 -48.5t42.5 -127.5q0 -134 -91.5 -242.5t-236.5 -164.5q-45 -15 -61 -15q-18 0 -33 13.5t-15 32.5z" />
<glyph unicode="&#x2022;" horiz-adv-x="759" d="M115 520q0 148 91 237t230 89q97 0 171.5 -72.5t74.5 -183.5q0 -151 -85 -241.5t-226 -90.5q-115 0 -185.5 73t-70.5 189z" />
<glyph unicode="&#x2026;" horiz-adv-x="1685" d="M37 115q0 88 49.5 137t130.5 49q54 0 96.5 -37t42.5 -100q0 -81 -46.5 -135t-127.5 -54q-66 0 -105.5 40.5t-39.5 99.5zM590 115q0 88 49.5 137t130.5 49q54 0 96.5 -37t42.5 -100q0 -81 -46.5 -135t-127.5 -54q-66 0 -105.5 40.5t-39.5 99.5zM1143 115q0 88 49.5 137 t130.5 49q54 0 96.5 -37t42.5 -100q0 -81 -46.5 -135t-127.5 -54q-66 0 -105.5 40.5t-39.5 99.5z" />
<glyph unicode="&#x202f;" horiz-adv-x="361" />
<glyph unicode="&#x2039;" horiz-adv-x="593" d="M45 500q0 20 10.5 33t34.5 28q53 33 107 68.5t90 60t99 68.5t103 71q42 29 62 29t32.5 -16.5t12.5 -38.5q0 -16 -37 -53q-35 -35 -72 -68.5t-86.5 -78t-87.5 -79.5q-12 -12 -12 -22q0 -11 6 -25q54 -94 131 -235q13 -26 13 -41q0 -16 -16.5 -31.5t-37.5 -15.5t-55 34 q-55 57 -281 271q-16 16 -16 41z" />
<glyph unicode="&#x203a;" horiz-adv-x="593" d="M-4 209q0 16 37 53q46 46 130 120.5t116 104.5q12 12 12 23t-6 25q-54 94 -131 235q-13 26 -13 41q0 16 16.5 31.5t37.5 15.5q20 0 55 -35q55 -56 280 -270q17 -17 17 -41q0 -20 -10.5 -33t-34.5 -28q-69 -43 -126 -81t-148 -101t-126 -87q-40 -28 -61 -28 q-20 0 -32.5 16.5t-12.5 38.5z" />
<glyph unicode="&#x205f;" horiz-adv-x="452" />
<glyph unicode="&#x20ac;" horiz-adv-x="1394" d="M143 506q0 30 12 48.5t35 18.5h99q11 0 18.5 8.5t9.5 20.5q3 21 8.5 46t9 40.5t3.5 18.5q0 20 -19 20h-102q-15 0 -25 8.5t-10 26.5q0 27 12 48t35 21h121q11 0 20.5 7.5t12.5 17.5q158 444 647 444q348 0 348 -227q0 -50 -32.5 -80t-73.5 -30q-60 0 -90.5 26t-30.5 70 q0 81 -18 106q-30 45 -105 45q-116 0 -213.5 -84t-152.5 -227q-17 -40 -17 -49q0 -19 19 -19h421q15 0 25 -9.5t10 -28.5q0 -26 -11 -46t-32 -20h-442q-24 0 -31 -25q-18 -65 -18 -102q0 -27 20 -27h443q30 0 30 -34q0 -70 -45 -70h-428q-31 0 -31 -43q0 -38 7 -92 q16 -128 88.5 -189t169.5 -61q227 0 321 162q12 22 27 84q9 57 61 57q23 0 35 -13t12 -32q0 -39 -39 -115q-23 -46 -57.5 -87t-88.5 -80.5t-134 -63t-176 -23.5q-136 0 -236.5 38.5t-155.5 105t-80.5 144.5t-25.5 169q0 22 -4 30.5t-14 8.5h-107q-35 0 -35 37z" />
<glyph unicode="&#x2122;" horiz-adv-x="1779" d="M215 1186q0 5 8 32.5t18.5 63t14.5 51.5q1 10 9.5 17.5t17.5 7.5q1 0 23.5 -1.5t95.5 -3t196 -1.5q92 0 159.5 1t99 2t36.5 1q25 0 25 -23q0 -5 -5 -27t-13 -57.5t-13 -64.5q-3 -23 -35 -23q-31 0 -31 23q0 5 2 21t2 22q0 26 -8 37q-12 22 -84 22q-66 0 -78 -6t-20 -39 l-90 -369q-10 -41 -10 -75q0 -22 10 -30.5t39 -8.5q2 0 16.5 1t17.5 1q25 0 25 -29q0 -15 -7 -27t-20 -12q-1 0 -71.5 4t-112.5 4q-30 0 -69.5 -2t-66.5 -4t-28 -2q-22 0 -22 27q0 41 33 41q3 0 15 -1t15 -1q33 0 51 24q22 31 35 90l84 340q1 4 3 14.5t3.5 18.5t1.5 12 q0 16 -13 22.5t-52 6.5q-67 0 -96 -20q-25 -17 -47 -82q-8 -21 -35 -21q-29 0 -29 23zM815 717q0 43 33 43q1 0 12.5 -1t13.5 -1q32 0 52 20q18 18 39 88q14 46 40.5 133.5t43 143t18.5 65.5q8 32 8 45q0 17 -4 25q-7 14 -41 14q-4 0 -19 -1t-18 -1q-24 0 -24 29q0 15 9 27 t23 12q2 0 56.5 -3t72.5 -3q20 0 77.5 2t58.5 2q16 0 16 -27q6 -78 21 -149q35 -172 45 -236q4 -8 6 -8q6 0 16 14q21 34 51.5 82t50 79t33.5 54q67 110 86 146q14 26 22.5 35.5t18.5 9.5q2 0 27 -1t54.5 -2t43.5 -1q20 0 61.5 2t47.5 2q20 0 26 -7.5t6 -23.5 q0 -14 -7 -24.5t-17 -10.5q-3 0 -17.5 1t-17.5 1q-39 0 -53 -16q-14 -14 -23 -70q-18 -132 -43 -340q-4 -31 -4 -69q0 -22 7 -30.5t32 -8.5q8 0 23 1t22 1q25 0 25 -29q0 -18 -10.5 -28.5t-24.5 -10.5q-3 0 -71 3t-105 3q-28 0 -67.5 -1.5t-68 -3t-30.5 -1.5q-25 0 -25 29 q0 17 9 28t24 11q8 0 20.5 -1t14.5 -1q25 0 45 20q19 22 31 88q14 67 47 299q2 8 2 15q0 6 -4 6q-8 0 -15 -10q-38 -58 -72.5 -112.5t-79.5 -127t-73 -117.5q-26 -41 -61 -98q-16 -27 -45 -27q-32 0 -35 29q-2 13 -5 44t-5 46q-12 67 -24.5 138t-21 118t-20.5 105 q-2 14 -8 14q-8 0 -14 -17q-14 -50 -33 -117t-30.5 -109.5t-18.5 -76.5q-13 -48 -13 -82q0 -28 45 -28q6 0 19.5 1t19.5 1q25 0 25 -27q0 -41 -35 -41q-2 0 -24.5 1t-55.5 2t-61 1q-22 0 -52.5 -1t-53 -2t-25.5 -1q-11 0 -18 7.5t-7 17.5z" />
<glyph unicode="&#xe000;" horiz-adv-x="962" d="M0 0v963h963v-963h-963z" />
</font>
</defs>
</svg>
