<?xml version="1.0" standalone="no"?>
<!DOCTYPE svg PUBLIC "-//W3C//DTD SVG 1.1//EN" "http://www.w3.org/Graphics/SVG/1.1/DTD/svg11.dtd" >
<svg xmlns="http://www.w3.org/2000/svg">
<metadata></metadata>
<defs>
<font id="ashburymedium" horiz-adv-x="1161" >
<font-face units-per-em="2048" ascent="1536" descent="-512" />
<missing-glyph horiz-adv-x="471" />
<glyph unicode="&#xfb01;" horiz-adv-x="1292" d="M45 854q0 43 29 47q47 10 71.5 20t40.5 29q30 34 33 123q12 207 50.5 308t121.5 165q133 99 338 99q144 0 228.5 -64.5t84.5 -155.5q0 -67 -29 -94.5t-81 -27.5q-58 0 -85.5 29t-29.5 71q-3 50 -29 100q-12 22 -41 36.5t-61 14.5q-144 0 -205 -124q-65 -134 -65 -474 q0 -21 9.5 -27.5t39.5 -6.5q238 0 412 10q76 4 129 31q32 16 57 16q15 0 25 -10.5t10 -28.5q0 -39 -4 -117q-7 -130 -7 -286v-220q0 -163 21 -194q23 -37 82 -37q6 0 19 1t16 1q35 0 35 -45t-41 -45q-5 0 -39.5 2t-89 4t-107.5 2q-52 0 -104.5 -2t-85 -4t-37.5 -2 q-31 0 -31 47q0 19 8.5 31t22.5 12q5 0 19.5 -1t19.5 -1q57 0 73 39q19 43 19 192v205q0 189 -21 232q-30 54 -116 57q-119 2 -293 2q-25 0 -33 -8t-8 -33v-453q0 -164 22 -196q30 -37 97 -37q5 0 23 1t26 1q32 0 32 -43q0 -47 -30 -47q-6 0 -50 2t-107.5 4t-115.5 2 q-51 0 -102 -2t-83.5 -4t-39.5 -2q-37 0 -37 45t35 45q4 0 18 -1t21 -1q58 0 74 39q16 41 16 188v455q0 45 -37 45q-26 0 -62 -2t-42 -2q-29 0 -29 45z" />
<glyph unicode="&#xfb02;" horiz-adv-x="1292" d="M47 854q0 40 29 47q80 19 110 49q30 34 33 123q7 198 43.5 304.5t118.5 172.5q53 44 138.5 69.5t160.5 25.5q108 0 197 -31q30 -10 43 -10q19 0 32 8q9 4 29.5 16t38.5 19.5t33 7.5q22 0 29.5 -9.5t7.5 -31.5q0 -7 -2 -67.5t-3.5 -161t-1.5 -205.5v-861q0 -164 19 -196 q24 -37 84 -37q5 0 19.5 1t19.5 1q30 0 30 -43q0 -47 -36 -47q-6 0 -41 2t-90 4t-107 2t-106 -2t-88 -4t-39 -2q-31 0 -31 49q0 17 9 29t22 12q4 0 19 -1t21 -1q60 0 76 39q15 34 15 194v877q0 216 -45 279q-55 79 -166 79q-76 0 -131 -39.5t-76 -101.5q-45 -123 -45 -457 q0 -21 9.5 -27.5t39.5 -6.5q46 0 99.5 3t64.5 3q41 0 41 -58q0 -34 -11.5 -47.5t-35.5 -13.5l-53 2q-53 2 -113 2q-25 0 -33 -8t-8 -33v-453q0 -164 22 -196q30 -37 97 -37q5 0 23 1t26 1q32 0 32 -43q0 -47 -30 -47q-6 0 -50 2t-107.5 4t-115.5 2q-51 0 -102 -2t-83.5 -4 t-39.5 -2q-37 0 -37 45t35 45q4 0 18 -1t21 -1q58 0 74 39q16 41 16 188v455q0 45 -37 45q-26 0 -61 -2t-41 -2q-29 0 -29 45z" />
<glyph unicode="&#xfb03;" horiz-adv-x="1970" d="M45 854q0 41 31 47q49 12 71.5 21t38.5 28q27 31 33 121q10 193 42 282t112 158q53 45 126.5 68t145.5 23q106 0 175 -42.5t69 -123.5q0 -55 -27.5 -77t-66.5 -22q-33 0 -56.5 16t-27.5 46q-1 3 -3.5 21t-6 30t-7.5 20q-10 18 -35 30.5t-59 12.5q-53 0 -91.5 -34 t-57.5 -95q-35 -130 -35 -430q0 -19 9.5 -25.5t39.5 -6.5q39 0 110.5 -1t88.5 -1q174 0 202 32q30 32 33 123q6 140 27 231t55 144t92 96q130 99 336 99q143 0 228 -64.5t85 -155.5q0 -122 -108 -122q-103 0 -115 100q-9 63 -31 100q-12 22 -41.5 36.5t-62.5 14.5 q-144 0 -205 -124q-63 -137 -63 -474q0 -21 9 -27.5t38 -6.5q237 0 416 10q77 4 129 31q28 16 53 16q16 0 26.5 -10.5t10.5 -28.5l-6 -117q-5 -139 -5 -286v-220q0 -160 19 -194q23 -37 84 -37q6 0 19 1t16 1q32 0 32 -45t-36 -45q-6 0 -41 2t-89.5 4t-107.5 2t-105 -2 t-84 -4t-38 -2q-31 0 -31 47q0 19 8.5 31t22.5 12q5 0 19.5 -1t19.5 -1q57 0 73 39q19 43 19 192v205q0 189 -21 232q-30 54 -119 57q-119 2 -290 2q-25 0 -33 -8t-8 -33v-453q0 -168 22 -196q27 -37 99 -37q5 0 22 1t25 1q32 0 32 -43q0 -47 -30 -47q-5 0 -49 2t-108.5 4 t-117.5 2q-51 0 -102 -2t-83 -4t-38 -2q-37 0 -37 45t35 45q4 0 18 -1t19 -1q59 0 78 39q14 43 14 188v455q0 43 -39 43q-78 4 -207 4q-28 0 -100.5 -1t-91.5 -1q-25 0 -33 -8t-8 -33v-453q0 -164 22 -196q30 -37 97 -37q5 0 23 1t26 1q32 0 32 -43q0 -47 -30 -47 q-6 0 -50 2t-107.5 4t-115.5 2q-51 0 -102 -2t-83.5 -4t-39.5 -2q-37 0 -37 45t35 45q4 0 18 -1t21 -1q58 0 74 39q16 41 16 188v455q0 45 -37 45q-26 0 -62 -2t-42 -2q-29 0 -29 45z" />
<glyph unicode="&#xfb04;" horiz-adv-x="1972" d="M45 854q0 41 31 47q49 12 71.5 21t38.5 28q27 31 33 121q10 193 42 282t112 158q53 45 126.5 68t145.5 23q106 0 175 -42.5t69 -123.5q0 -55 -27.5 -77t-66.5 -22q-33 0 -56.5 16t-27.5 46q-1 3 -3.5 21t-6 30t-7.5 20q-10 18 -35 30.5t-59 12.5q-53 0 -91.5 -34 t-57.5 -95q-35 -130 -35 -430q0 -19 9.5 -25.5t39.5 -6.5q39 0 110.5 -1t88.5 -1q172 0 202 34q30 32 33 119q9 197 45 304t115 173q53 44 139.5 69.5t161.5 25.5q104 0 196 -31q30 -10 41 -10q20 0 33 8q7 3 29.5 16t39.5 20t32 7q41 0 41 -41q0 -7 -2 -67.5t-4.5 -161 t-2.5 -205.5v-861q0 -166 21 -196q21 -37 80 -37q6 0 21 1t18 1q32 0 32 -43q0 -47 -37 -47q-6 0 -41 2t-90 4t-108 2q-52 0 -106 -2t-88 -4t-40 -2q-28 0 -28 49q0 18 7.5 29.5t20.5 11.5q5 0 20 -1t21 -1q60 0 76 39q19 43 19 194v877q0 212 -48 279q-55 79 -165 79 q-74 0 -130.5 -39.5t-78.5 -101.5q-43 -127 -43 -457q0 -21 9 -27.5t38 -6.5q47 0 100.5 3t63.5 3q21 0 31 -13t10 -45q0 -34 -10.5 -47.5t-34.5 -13.5l-53 2q-53 2 -113 2q-25 0 -33 -8t-8 -33v-453q0 -168 22 -196q27 -37 99 -37q5 0 22 1t25 1q32 0 32 -43q0 -47 -30 -47 q-5 0 -49 2t-108.5 4t-117.5 2q-51 0 -102 -2t-83 -4t-38 -2q-37 0 -37 45t35 45q4 0 18 -1t19 -1q62 0 78 39q14 36 14 188v455q0 43 -39 43q-78 4 -207 4q-28 0 -100.5 -1t-91.5 -1q-25 0 -33 -8t-8 -33v-453q0 -164 22 -196q30 -37 97 -37q5 0 23 1t26 1q32 0 32 -43 q0 -47 -30 -47q-6 0 -50 2t-107.5 4t-115.5 2q-51 0 -102 -2t-83.5 -4t-39.5 -2q-37 0 -37 45t35 45q4 0 18 -1t21 -1q58 0 74 39q16 41 16 188v455q0 45 -37 45q-26 0 -62 -2t-42 -2q-29 0 -29 45z" />
<glyph horiz-adv-x="2048" />
<glyph horiz-adv-x="2048" />
<glyph unicode="&#xd;" horiz-adv-x="2048" />
<glyph unicode=" "  horiz-adv-x="471" />
<glyph unicode="&#x09;" horiz-adv-x="471" />
<glyph unicode="&#xa0;" horiz-adv-x="471" />
<glyph unicode="!" horiz-adv-x="651" d="M219 123q0 65 41.5 104t104.5 39q62 0 98.5 -37.5t36.5 -103.5q0 -63 -39 -106.5t-99 -43.5q-65 0 -104 39t-39 109zM225 1231q0 149 131 149q74 0 107 -35t33 -112q0 -44 -14 -153t-35 -277.5t-33 -313.5q-2 -17 -4 -25t-7 -19t-16 -15t-29 -4q-34 0 -43 12t-12 49 q-13 146 -33 316.5t-32.5 276.5t-12.5 151z" />
<glyph unicode="&#x22;" horiz-adv-x="602" d="M61 1333q0 94 93 94q53 0 73.5 -22t20.5 -70q0 -22 -6.5 -74.5t-21 -153t-23.5 -173.5q-1 -21 -8.5 -28t-28.5 -7t-30.5 7.5t-12.5 29.5q-10 81 -25 176t-23 149.5t-8 71.5zM354 1333q0 94 90 94q55 0 75 -22t20 -70q0 -21 -7 -75.5t-20.5 -151t-22.5 -174.5 q-3 -22 -10.5 -28.5t-29.5 -6.5q-21 0 -29.5 7t-11.5 30q-10 82 -24 176t-22 149t-8 72z" />
<glyph unicode="#" horiz-adv-x="1138" d="M104 383q0 54 25 119q10 26 39 26h149q23 0 29 21l41 174q4 12 4 25q0 18 -22 18h-160q-29 0 -29 18q0 49 25 119q10 29 39 29h174q22 0 28 20l68 289q8 35 59 35q39 0 39 -27q0 -6 -4 -22l-65 -258q-2 -6 -2 -17q0 -20 22 -20h170q23 0 29 20l69 289q8 35 54 35 q41 0 41 -27q0 -12 -4 -24l-62 -256q-2 -6 -2 -17q0 -20 23 -20h120q33 0 33 -23q0 -48 -22 -116q-10 -27 -33 -27h-150q-22 0 -28 -21l-41 -174q-4 -12 -4 -24q0 -19 22 -19h148q30 0 30 -20q0 -55 -20 -117q-12 -31 -33 -31h-172q-23 0 -29 -20l-81 -326 q-3 -15 -13.5 -21.5t-36.5 -6.5q-22 0 -31.5 5.5t-9.5 20.5q0 12 7 37l67 268q4 16 4 25q0 18 -22 18h-170q-23 0 -29 -20l-80 -328q-7 -26 -51 -26q-41 0 -41 26q0 9 6 33l68 281q2 8 2 16q0 18 -23 18h-133q-12 0 -21.5 7t-9.5 16zM438 547q0 -19 23 -19h172q23 0 29 21 l45 180q2 8 2 16q0 21 -23 21h-170q-23 0 -29 -21l-45 -172q-4 -12 -4 -26z" />
<glyph unicode="$" horiz-adv-x="1081" d="M100 229q0 43 25.5 70t73.5 27q37 0 60.5 -21.5t27.5 -62.5q8 -56 32 -95q21 -30 59.5 -49t84.5 -20q14 0 20 5.5t6 25.5v391q0 32 -22 43q-99 48 -164.5 98t-99 102t-46 99t-12.5 106q0 54 20 105.5t58.5 96.5t103 77.5t146.5 42.5q10 1 13 5.5t3 16.5v148q0 45 50 45 q24 0 34.5 -9.5t10.5 -33.5v-139q0 -14 5.5 -19.5t18.5 -5.5q160 -6 243 -61.5t83 -143.5q0 -49 -25.5 -73.5t-62.5 -24.5q-42 0 -68.5 22.5t-29.5 61.5q-2 19 -12.5 47.5t-24.5 44.5q-41 41 -107 41q-20 0 -20 -27v-368q0 -32 18 -41q111 -58 182 -108t108 -99.5t50.5 -94 t13.5 -104.5q0 -125 -93 -221t-255 -125q-13 -2 -18.5 -9t-5.5 -26v-129q0 -43 -45 -43q-50 0 -50 43v123q0 18 -3.5 24.5t-16.5 6.5q-177 0 -273 71t-96 164zM342 1004q0 -111 119 -185l18 -6q10 0 10 18v328q0 23 -18 23q-13 0 -32.5 -9.5t-42.5 -28.5t-38.5 -56 t-15.5 -84zM584 109q0 -23 16 -23q11 0 31 8q114 48 114 189q0 54 -33.5 102.5t-95.5 83.5q-9 6 -18 6q-14 0 -14 -18v-348z" />
<glyph unicode="%" horiz-adv-x="1642" d="M49 881q0 184 90.5 300.5t245.5 116.5q150 0 228.5 -103t78.5 -288q0 -191 -82.5 -304.5t-242.5 -113.5q-159 0 -238.5 105.5t-79.5 286.5zM215 891q0 -169 36 -251.5t122 -82.5q155 0 155 334q0 173 -36.5 257.5t-114.5 84.5q-77 0 -119.5 -87.5t-42.5 -254.5zM510 23 q0 16 10 36l516 1182q15 37 58 37q41 0 41 -29q0 -13 -7 -30l-520 -1190q-13 -33 -51 -33q-47 0 -47 27zM952 375q0 184 90 301t244 117q150 0 228.5 -103.5t78.5 -288.5q0 -190 -82.5 -303.5t-242.5 -113.5q-159 0 -237.5 105t-78.5 286zM1118 385q0 -170 35.5 -252 t122.5 -82q76 0 115 86t39 248q0 175 -36 259.5t-116 84.5q-77 0 -118.5 -87.5t-41.5 -256.5z" />
<glyph unicode="&#x26;" horiz-adv-x="1558" d="M76 381q0 276 358 387q21 7 21 20q0 5 -11 27q-69 134 -69 229q0 147 95.5 233.5t291.5 86.5q68 0 122.5 -16.5t86.5 -42t53.5 -58t29 -60.5t7.5 -54q0 -169 -166 -265q-56 -35 -145 -71q-15 -7 -15 -21q0 -3 3.5 -8.5t8.5 -14t7 -12.5q155 -249 280 -397q20 -20 27 -20 q6 0 20 14q63 78 86 145q19 56 19 103q0 34 -29 63q-45 45 -45 80q0 34 27.5 61t81.5 27q47 0 79.5 -37t32.5 -90q0 -101 -51 -211q-8 -17 -16 -32.5t-19 -33t-18 -28t-21.5 -30t-19 -26t-21.5 -28.5t-20 -25q-12 -17 -12 -28q0 -13 10 -23q104 -102 186 -102q36 0 60.5 18 t48.5 64q14 24 33 24q15 0 30 -9.5t15 -26.5q0 -12 -17 -46q-39 -74 -110 -124t-164 -50q-79 0 -134.5 21t-129.5 82q-18 18 -29 18t-19 -8q-62 -51 -161.5 -82t-210.5 -31q-132 0 -236.5 46t-167.5 140t-63 222zM311 416q0 -127 84.5 -223.5t227.5 -96.5q130 0 215 58 q14 7 14 18q0 9 -6 18q-49 58 -103 131.5t-78 109.5t-84 129t-63 97q-22 33 -41 33q-18 0 -61 -37q-105 -84 -105 -237zM610 1110q0 -87 62 -203q13 -26 37 -26q34 0 77 26q140 86 140 221q0 74 -43.5 112t-110.5 38q-68 0 -115 -41.5t-47 -126.5z" />
<glyph unicode="'" horiz-adv-x="311" d="M61 1333q0 94 93 94q53 0 73.5 -22t20.5 -70q0 -22 -6.5 -74.5t-21 -153t-23.5 -173.5q-3 -21 -10.5 -28t-26.5 -7q-22 0 -31 7t-12 30q-10 81 -25 176t-23 149.5t-8 71.5z" />
<glyph unicode="(" horiz-adv-x="647" d="M78 627q0 269 118.5 516t329.5 403q19 15 35 15q19 0 35 -16t16 -32t-14 -30q-324 -312 -324 -856q0 -262 85 -488.5t243 -363.5q10 -10 10 -29q0 -18 -15.5 -36.5t-33.5 -18.5q-22 0 -41 16q-202 146 -323 394t-121 526z" />
<glyph unicode=")" horiz-adv-x="647" d="M35 -262q0 17 14 31q324 315 324 856q0 263 -82.5 485t-243.5 367q-12 9 -12 28q0 18 16.5 37t34.5 19q19 0 39 -17q202 -146 323 -393.5t121 -525.5q0 -269 -118.5 -516.5t-329.5 -403.5q-17 -14 -35 -14q-19 0 -35 15.5t-16 31.5z" />
<glyph unicode="*" horiz-adv-x="714" d="M80 1194q0 32 20 59t60 27q7 0 13 -1.5t10.5 -3.5t10.5 -7t10 -8.5t11.5 -12t11.5 -14t13.5 -18t15.5 -19.5q23 -32 57 -59q11 -7 15 -7q8 0 8 13q0 19 -25 92q-4 10 -10 26.5t-9.5 25t-6 19.5t-2.5 21q0 29 22 45.5t55 16.5t55.5 -14.5t22.5 -47.5q0 -9 -2.5 -20 t-5 -17.5t-10.5 -26t-12 -28.5q-20 -49 -25 -80q-2 -8 -2 -16q0 -13 8 -13q6 0 19 13q23 25 88 106q31 35 61 35q33 0 55.5 -24t22.5 -60q0 -22 -14 -38.5t-37 -22.5q-16 -5 -68.5 -15t-91.5 -24q-12 -6 -12 -13q0 -5 16 -12q22 -9 76 -20q10 -2 27.5 -5t27.5 -5t23 -6 t22 -9q27 -14 27 -45q0 -36 -22 -62t-52 -26q-17 0 -32.5 10.5t-26.5 23t-35 44.5q-24 33 -62 63q-6 6 -12 6q-8 0 -8 -14q0 -24 27 -86q30 -70 30 -102t-22 -49t-56 -17q-77 0 -77 64q0 11 4.5 27t13.5 41.5t14 41.5q21 61 21 80q0 14 -8 14q-7 0 -13 -6q-17 -15 -31 -31.5 t-32.5 -39.5t-28.5 -35q-30 -41 -65 -41q-33 0 -54.5 24.5t-21.5 59.5q0 52 49 63q14 3 74.5 15t91.5 20q10 3 10 12q0 8 -12 13q-16 6 -36 10.5t-34 7.5t-38 7.5t-37 6.5q-34 6 -52 25.5t-18 42.5z" />
<glyph unicode="+" horiz-adv-x="1314" d="M170 506v92q0 29 25 29h385v411q0 27 28 27h99q28 0 28 -27v-411h383q29 0 29 -29v-92q0 -27 -29 -27h-383v-413q0 -27 -28 -27h-99q-26 0 -26 27v413h-387q-25 0 -25 27z" />
<glyph unicode="," horiz-adv-x="479" d="M39 -385q0 22 22 37q83 54 135 122t52 142q0 40 -23.5 69t-74.5 54q-56 26 -56 102q0 45 42 85t100 40q87 0 130.5 -67t43.5 -162q0 -233 -265 -440q-42 -29 -65 -29q-15 0 -28 16t-13 31z" />
<glyph unicode="-" horiz-adv-x="569" d="M55 512q0 51 10.5 70.5t32.5 19.5h379q23 0 30 -17t7 -71q0 -55 -7.5 -71.5t-33.5 -16.5h-375q-25 0 -34 17.5t-9 68.5z" />
<glyph unicode="." horiz-adv-x="479" d="M98 123q0 65 41 104t105 39q62 0 98.5 -37.5t36.5 -103.5q0 -63 -38.5 -106.5t-98.5 -43.5q-66 0 -105 39.5t-39 108.5z" />
<glyph unicode="/" horiz-adv-x="870" d="M12 -115q0 16 17 54l712 1503q13 26 28.5 36.5t47.5 10.5q26 0 39.5 -10t13.5 -25q0 -17 -12 -45l-725 -1520q-12 -24 -27.5 -32.5t-44.5 -8.5q-49 0 -49 37z" />
<glyph unicode="0" d="M68 616q0 197 64 351.5t186.5 243.5t285.5 89q235 0 361.5 -170.5t126.5 -470.5q0 -204 -55.5 -356t-173.5 -241t-288 -89q-169 0 -284.5 82.5t-169 224.5t-53.5 336zM319 633q0 -278 63.5 -420.5t203.5 -142.5q123 0 190.5 147t67.5 414q0 575 -254 575 q-124 0 -197.5 -149.5t-73.5 -423.5z" />
<glyph unicode="1" d="M274 1118q0 21 8 30t23 15q59 13 165.5 59.5t158.5 75.5q30 15 45 15q14 0 23.5 -9t9.5 -28q0 -24 -2 -57q-7 -121 -7 -310v-618q0 -133 27 -168q23 -33 94 -33q5 0 22 1t23 1q35 0 35 -47q0 -22 -10.5 -34.5t-26.5 -12.5q-5 0 -46 3t-101.5 6t-114.5 3q-51 0 -118.5 -3 t-116 -6t-54.5 -3q-35 0 -35 49q0 20 10 32.5t25 12.5q4 0 22 -1t23 -1q36 0 64 10t37 27q18 41 18 160v569q0 169 -18 197q-14 24 -56 24q-23 0 -56 -3t-36 -3q-15 0 -25 13t-10 34z" />
<glyph unicode="2" d="M49 43q0 30 37 53q183 123 304 229.5t190 207t97 193.5t28 202q0 115 -62.5 179t-153.5 64q-112 0 -178 -59q-50 -50 -71 -115q-14 -41 -56 -41q-26 0 -40.5 14t-14.5 36q0 35 16 67q15 35 47 71.5t80.5 73t122 59.5t156.5 23q206 0 308 -96.5t102 -275.5q0 -60 -11 -112 t-39.5 -116t-87 -135.5t-145.5 -148.5q-128 -109 -262 -195q-17 -12 -17 -18q0 -15 25 -15q94 -4 244 -4q72 0 113 2.5t74 9.5t48 23t23 37.5t12 58.5q3 35 45 35q43 0 43 -33q0 -5 -4 -51q-15 -128 -18 -233q-4 -37 -58 -37q-2 0 -55 2.5t-147 5t-193 2.5q-118 0 -223 -2 t-166 -4t-72 -2q-41 0 -41 45z" />
<glyph unicode="3" d="M135 35q0 31 16.5 51t47.5 20q29 0 69 -22q45 -18 101 -18q366 0 366 315q0 124 -62 198t-177 74q-89 0 -144 -20q-36 -12 -49 -12q-19 0 -29 17.5t-10 35.5q0 23 14 35.5t50 15.5q88 7 170 47q161 81 161 248q0 79 -47.5 123.5t-122.5 44.5q-103 0 -167 -64 q-41 -51 -52 -77q-13 -33 -57 -33q-19 0 -34 12.5t-15 34.5q0 26 24 65q45 72 146 123t235 51q174 0 255 -68.5t81 -180.5q0 -99 -69 -174.5t-195 -120.5q-20 -7 -20 -19t24 -12q169 -15 258.5 -97.5t89.5 -211.5q0 -141 -90 -247.5t-249.5 -163t-364.5 -56.5 q-75 0 -114.5 24.5t-39.5 61.5z" />
<glyph unicode="4" d="M76 381q0 48 22 76q121 155 324 420t299 389q20 26 40.5 36.5t55.5 10.5q43 0 60.5 -11t17.5 -36q0 -15 -1 -85t-1 -102v-561q0 -17 5.5 -23t27.5 -6h129q27 0 36 -13.5t9 -63.5q0 -60 -9.5 -76.5t-37.5 -16.5h-131q-17 0 -22 -6.5t-5 -31.5v-283q0 -32 -19.5 -41.5 t-89.5 -9.5q-77 0 -95.5 9.5t-18.5 41.5v278q0 25 -8 33t-31 8h-502q-55 0 -55 64zM262 500q0 -17 27 -17h340q29 0 36 7t7 28q0 132 2 309t2 183v11.5t-1 7.5t-3 5.5t-6 1.5q-6 0 -23 -20q-53 -71 -174 -229.5t-199 -264.5q-8 -12 -8 -22z" />
<glyph unicode="5" d="M131 33q0 32 18 57t50 25q16 0 41.5 -12.5t33.5 -14.5q60 -18 97 -18q181 0 274.5 87t93.5 242q0 123 -116.5 190t-319.5 81q-61 4 -61 59q0 10 82 504q3 14 5 21t8.5 12.5t18.5 5.5l72 -1q72 -1 125 -1q62 0 122 1t102.5 2t75.5 2t52 2t21 1q26 0 26 -18q0 -10 -9.5 -65 t-16.5 -81q-9 -29 -27 -29q-5 0 -63 0.5t-136.5 1t-132.5 0.5q-106 0 -153 -2q-17 -1 -23.5 -9t-11.5 -29q-25 -125 -25 -156q0 -11 7 -18t11.5 -8t14.5 -3q220 -19 350 -71t185 -136t55 -213q0 -135 -85.5 -247.5t-242.5 -179t-354 -66.5q-76 0 -120 21.5t-44 62.5z" />
<glyph unicode="6" d="M121 567q0 119 17.5 223.5t62 204.5t113 171.5t177.5 115t248 43.5q149 0 224 -59q15 -11 26.5 -33.5t11.5 -44.5q0 -36 -21.5 -58t-51.5 -22q-63 0 -82 47q-18 36 -59 57t-87 21q-278 0 -338 -449q-10 -62 -10 -90q0 -10 13 -10q5 0 16 16q41 67 121.5 104.5t165.5 37.5 q192 0 294.5 -106.5t102.5 -295.5q0 -114 -38.5 -204.5t-104.5 -147t-151 -86t-183 -29.5q-222 0 -344.5 153.5t-122.5 440.5zM367 432q0 -101 23 -182.5t76 -135t130 -53.5q231 0 231 347q0 158 -59 244.5t-156 86.5q-171 0 -227 -161q-18 -55 -18 -146z" />
<glyph unicode="7" d="M127 915q0 6 10.5 55.5t25.5 126.5t23 140q3 23 16 31t42 8q6 0 59 -2t148 -4t204 -2q51 0 210 2t169 2q39 0 39 -29q0 -12 -18 -53q-364 -719 -537 -1196q-20 -53 -76 -53q-31 0 -49 16.5t-18 42.5t18 74q137 342 490 970q6 9 6 25q0 13 -29 16q-126 7 -239 7 q-272 0 -314 -23q-31 -19 -48 -50.5t-40 -113.5q-4 -10 -6.5 -14.5t-11.5 -9t-25 -4.5q-49 0 -49 38z" />
<glyph unicode="8" d="M119 305q0 99 63 179.5t191 121.5q22 6 22 19q0 9 -12 16q-3 1 -4 2q-75 38 -123.5 95t-65 109.5t-16.5 106.5q0 148 111 247t325 99q187 0 284 -75t97 -211q0 -83 -60.5 -162t-160.5 -115q-16 -5 -16 -18q0 -10 16 -17q139 -62 204.5 -144t65.5 -210q0 -164 -132 -269.5 t-335 -105.5q-216 0 -335 89t-119 243zM311 322q0 -122 68.5 -189t195.5 -67q99 0 162.5 61t63.5 149q0 94 -60.5 159t-226.5 136q-14 7 -27 7q-11 0 -28 -11q-148 -97 -148 -245zM406 1018q0 -72 43.5 -133.5t160.5 -110.5q23 -10 35 -10q13 0 29 8q58 35 92.5 94.5 t34.5 122.5q0 107 -52.5 165t-146.5 58q-89 0 -142.5 -55t-53.5 -139z" />
<glyph unicode="9" d="M104 862q0 111 40 200t107.5 145t153.5 86t181 30q226 0 341 -152.5t115 -443.5q0 -100 -12.5 -189t-39.5 -176t-74 -156.5t-112 -123t-158 -82.5t-208 -29q-184 0 -256 62q-39 31 -39 78q0 35 23 57t59 22q53 0 78 -49q38 -75 158 -75q66 0 121 28.5t91.5 72.5t64 106 t42 120t23.5 123q10 62 10 96q0 11 -12 11q-6 0 -17 -17q-39 -67 -120.5 -105t-167.5 -38q-187 0 -289.5 105.5t-102.5 293.5zM342 895q0 -157 58 -243.5t155 -86.5q169 0 225 164q19 51 19 150q0 102 -20.5 179t-71.5 127t-129 50q-110 0 -173 -89t-63 -251z" />
<glyph unicode=":" horiz-adv-x="522" d="M141 123q0 65 41 104t105 39q62 0 97.5 -37.5t35.5 -103.5q0 -63 -38 -106.5t-99 -43.5q-65 0 -103.5 39t-38.5 109zM141 778q0 65 41 104.5t105 39.5q62 0 97.5 -38t35.5 -104q0 -63 -37.5 -106t-99.5 -43q-65 0 -103.5 38.5t-38.5 108.5z" />
<glyph unicode=";" horiz-adv-x="522" d="M76 -385q0 22 22 37q83 54 135 122t52 142q0 75 -99 123q-55 25 -55 102q0 45 42 85t99 40q87 0 130.5 -67t43.5 -162q0 -233 -264 -440q-42 -29 -65 -29q-15 0 -28 16t-13 31zM141 778q0 65 41 104.5t105 39.5q62 0 97.5 -38t35.5 -104q0 -63 -37.5 -106t-99.5 -43 q-65 0 -103.5 38.5t-38.5 108.5z" />
<glyph unicode="&#x3c;" horiz-adv-x="1314" d="M209 477v115q0 24 20 31l791 391q4 4 14 4q8 0 13.5 -6.5t5.5 -16.5v-114q0 -19 -21 -31l-655 -311l655 -308q21 -9 21 -28v-117q0 -25 -19 -25q-9 0 -14 5l-791 380q-20 10 -20 31z" />
<glyph unicode="=" horiz-adv-x="1314" d="M170 324v92q0 28 25 28h923q29 0 29 -28v-92q0 -29 -29 -29h-923q-25 0 -25 29zM170 688v90q0 27 25 27h923q29 0 29 -27v-90q0 -29 -29 -29h-923q-25 0 -25 29z" />
<glyph unicode="&#x3e;" horiz-adv-x="1314" d="M262 78v119q0 22 21 30l657 316l-657 303q-21 8 -21 31v122q0 23 19 23q8 0 14 -4l792 -381q19 -13 19 -31v-125q0 -17 -19 -30l-792 -394q-12 -4 -14 -4q-19 0 -19 25z" />
<glyph unicode="?" horiz-adv-x="956" d="M117 1116q0 48 23 93t69 83.5t124.5 62t178.5 23.5q183 0 279 -77t96 -209q0 -105 -52 -183.5t-194 -165.5q-50 -31 -72.5 -46t-53.5 -40.5t-43.5 -49.5t-12.5 -52q0 -19 8 -51t8 -47q0 -17 -16 -27t-41 -10q-34 0 -45 37q-23 67 -23 129q0 76 30.5 128t127.5 132 q76 64 103.5 124t27.5 132q0 91 -41.5 138.5t-114.5 47.5q-79 0 -118 -35.5t-39 -99.5q0 -9 1 -34.5t1 -33.5q0 -44 -30 -66t-79 -22q-47 0 -74.5 30.5t-27.5 88.5zM309 123q0 65 41 104t105 39q62 0 98.5 -37.5t36.5 -103.5q0 -63 -38.5 -106.5t-100.5 -43.5 q-65 0 -103.5 39t-38.5 109z" />
<glyph unicode="@" horiz-adv-x="1699" d="M125 416q0 178 62.5 333.5t170.5 266t259 174t323 63.5q292 0 456.5 -145t164.5 -424q0 -146 -63 -281t-169.5 -218t-224.5 -83q-57 0 -85 31.5t-28 77.5q0 35 21 117q10 40 10 43q0 10 -12 10q-11 0 -17 -12q-83 -148 -168.5 -208.5t-179.5 -60.5q-91 0 -141.5 59 t-50.5 140q0 96 26 181t105 194q157 217 397 217q35 0 75.5 -12.5t53.5 -12.5q17 0 25.5 9t15.5 28q12 35 53 35q62 0 62 -37q0 -20 -6 -41q-59 -211 -93 -364q-37 -163 -37 -232q3 -45 46 -45q60 0 120 65t98 170.5t38 213.5q0 245 -128.5 372t-361.5 127 q-143 0 -268.5 -57t-215 -155.5t-141 -236.5t-51.5 -294q0 -277 170 -444.5t443 -167.5q290 0 450 153q33 29 55 29q23 0 35.5 -14t12.5 -31q0 -20 -17 -39q-75 -86 -225 -139.5t-330 -53.5q-213 0 -380 86.5t-261 246t-94 366.5zM618 332q0 -47 19 -79t61 -32 q148 0 306 287q59 111 59 223q0 33 -29.5 49.5t-75.5 16.5q-69 0 -130.5 -40.5t-104.5 -103.5q-47 -68 -76 -162t-29 -159z" />
<glyph unicode="A" horiz-adv-x="1505" d="M10 41q0 51 33 51q5 0 18 -1t21 -1q47 0 76 41q47 68 88 162q69 164 203.5 477.5t171.5 403.5q14 33 20 98q2 28 33 51q27 17 70 35t65 18q30 0 37 -33q2 -7 43 -118q35 -95 371 -932q47 -120 79 -164q29 -39 86 -39q6 0 17 1t16 1q35 0 35 -45q0 -49 -33 -49 q-4 0 -112.5 5t-159.5 5q-50 0 -176 -5t-127 -5q-39 0 -39 45q0 49 35 49q1 0 17 -1t20 -1q68 0 96 14.5t28 45.5q0 36 -43 145l-59 149q-15 39 -28.5 51.5t-43.5 12.5h-360q-25 0 -35 -10t-22 -39l-72 -164q-28 -75 -36.5 -102t-8.5 -50q0 -30 29 -41.5t96 -11.5q9 0 25 1 l16 1q16 0 25.5 -13.5t9.5 -31.5q0 -26 -8 -37.5t-31 -11.5q-2 0 -110.5 5t-158.5 5q-51 0 -114.5 -5t-67.5 -5q-15 0 -25 12t-10 31zM514 631q0 -18 14 -23.5t56 -5.5h225q34 0 46.5 7t12.5 24q0 15 -12 43l-139 362q-8 21 -19 21q-7 0 -11.5 -5.5t-10.5 -21.5l-148 -356 q-14 -28 -14 -45z" />
<glyph unicode="B" horiz-adv-x="1290" d="M47 43q0 49 31 49q2 0 17 -1t20 -1q79 0 98 37q20 38 20 182v733q0 140 -18 181q-10 21 -31 31t-65 10q-7 0 -23 -1t-18 -1q-31 0 -31 49q0 20 10 33.5t29 13.5q7 0 46.5 -4t99 -7.5t114.5 -3.5q27 0 154 5.5t170 5.5q247 0 358 -80t111 -232q0 -113 -67.5 -186 t-211.5 -119q-16 -5 -16 -14t16 -12q168 -21 260 -111.5t92 -224.5q0 -99 -38 -172.5t-110 -117.5t-168 -65.5t-218 -21.5q-32 0 -155.5 5t-168.5 5q-55 0 -117 -2.5t-104 -5t-49 -2.5q-37 0 -37 45zM469 315q0 -113 16 -153q23 -62 203 -62q136 0 198 59t62 193 q0 80 -20.5 137t-52 89t-83 50.5t-99.5 23.5t-115 5q-53 0 -80 -4q-29 -3 -29 -43v-295zM469 799q0 -25 6 -33.5t21 -11.5q10 -2 43 -2q183 0 267.5 67t84.5 205q0 132 -75.5 185t-213.5 53q-69 0 -100 -5q-33 -4 -33 -49v-409z" />
<glyph unicode="C" horiz-adv-x="1421" d="M90 659q0 155 50 287t143 228t232.5 150t311.5 54q68 0 134 -7t98 -13t89 -19.5t64 -15.5q23 -5 38 -20.5t16 -38.5q2 -55 14 -148.5t12 -107.5q0 -43 -57 -43q-40 0 -47 28q-24 128 -76 189q-26 30 -55.5 49t-93 34t-154.5 15q-208 0 -331.5 -151.5t-123.5 -446.5 q0 -127 26 -233t79.5 -191.5t145 -133.5t214.5 -48q197 0 301 112q49 54 99 179q10 30 45 30q53 0 53 -37q0 -30 -20 -115.5t-40 -123.5q-22 -42 -71 -66q-79 -40 -164.5 -61t-214.5 -21q-140 0 -257.5 34.5t-201.5 96.5t-142.5 148t-87 188.5t-28.5 218.5z" />
<glyph unicode="D" horiz-adv-x="1523" d="M47 43q0 23 9.5 36t23.5 13q2 0 13.5 -1t17.5 -1q44 0 67 9.5t35 31.5q20 45 20 174v729q0 155 -18 187q-24 43 -94 43q-5 0 -22 -1t-21 -1q-31 0 -31 49q0 19 9 32t24 13q7 0 50.5 -2.5t107 -5t118.5 -2.5q42 0 122.5 3t117.5 3q347 0 520 -80q155 -71 236.5 -219 t81.5 -346q0 -184 -57.5 -322t-163.5 -221.5t-247 -124.5t-317 -41q-68 0 -167 5t-126 5q-55 0 -116.5 -2.5t-103 -5t-48.5 -2.5q-41 0 -41 45zM471 311q0 -132 31 -166q20 -23 63.5 -33t126.5 -10q106 0 192 33t151 100.5t100.5 177.5t35.5 255q0 139 -42 263.5t-113 192.5 q-78 72 -175.5 98.5t-246.5 26.5q-84 0 -105 -24q-18 -18 -18 -101v-813z" />
<glyph unicode="E" horiz-adv-x="1216" d="M47 45q0 21 8.5 34t22.5 13q4 0 22 -1t23 -1q69 0 92 41q18 34 18 174v754q0 135 -20 168q-23 37 -94 37q-5 0 -21 -1t-18 -1q-33 0 -33 45q0 25 10 37t25 12q7 0 77 -2.5t160 -5t146 -2.5q169 0 329 4t210 4q36 0 36 -47q1 -36 2.5 -96t3 -102.5t1.5 -47.5 q0 -37 -46 -37q-41 0 -45 35q-5 59 -15 93t-34 58q-26 27 -70.5 34t-140.5 7q-139 0 -190 -4q-20 -2 -28.5 -13.5t-8.5 -39.5v-393q0 -31 16.5 -40t59.5 -9q95 0 160 18q28 11 44.5 42t26.5 101q6 33 47 33q43 0 43 -35l-6 -81q-6 -81 -6 -134q0 -40 3 -108.5t3 -83.5 q0 -31 -41 -31q-43 0 -47 31q-9 108 -59 139q-34 19 -174 19q-41 0 -55.5 -10.5t-14.5 -39.5v-344q0 -85 16 -108q26 -34 75.5 -45t170.5 -11q165 0 221 37q63 42 109 181q8 28 37 28q55 0 55 -35q0 -20 -21 -113t-36 -141q-22 -63 -64 -63q-90 0 -271.5 5t-320.5 5 q-55 0 -139.5 -2.5t-149 -5t-71.5 -2.5q-33 0 -33 47z" />
<glyph unicode="F" horiz-adv-x="1177" d="M47 47q0 19 9 32t22 13q4 0 20 -1t21 -1q77 0 96 39q18 40 18 184v746q0 135 -20 168q-23 37 -94 37q-5 0 -21 -1t-18 -1q-33 0 -33 45q0 25 10 37t25 12q7 0 76 -3t158 -6.5t145 -3.5q169 0 342 5.5t223 5.5q14 0 23.5 -13.5t9.5 -33.5q1 -32 2.5 -95t2.5 -104.5 t1 -46.5q0 -17 -12.5 -27t-32.5 -10q-44 0 -47 33q-6 114 -47 157q-24 27 -68 33t-143 6q-156 0 -207 -4q-20 -2 -28.5 -13.5t-8.5 -39.5v-414q0 -32 16 -40.5t60 -8.5q110 0 174 19q30 11 47 42t27 101q3 33 43 33q18 0 31.5 -9t13.5 -28l-7 -80q-6 -80 -6 -133 q0 -40 3.5 -109t3.5 -84q0 -13 -10.5 -22.5t-32.5 -9.5q-39 0 -43 32q-9 108 -62 138q-30 18 -190 18q-41 0 -54.5 -10t-13.5 -39v-279q0 -150 33 -188q30 -35 127 -35q5 0 19 1t18 1q32 0 32 -45q0 -49 -34 -49q-5 0 -58 3t-127 6t-129 3q-54 0 -117 -3t-106.5 -6t-48.5 -3 q-33 0 -33 49z" />
<glyph unicode="G" horiz-adv-x="1538" d="M90 651q0 162 51 296t146 229.5t238 148.5t321 53q89 0 162.5 -7t102 -13t81.5 -21t57 -16q44 -13 47 -53q3 -59 17 -157.5t14 -111.5q0 -19 -14 -28.5t-35 -9.5q-44 0 -53 40q-21 110 -78 179q-40 47 -106.5 73.5t-188.5 26.5q-242 0 -370 -155t-128 -443 q0 -298 123.5 -450t358.5 -152q107 0 160.5 20t78.5 56q21 38 21 143q0 77 -5.5 110t-19.5 54q-25 41 -96 41q-8 0 -24 -1t-19 -1q-37 0 -37 53q0 23 11 35t26 12q5 0 54.5 -2.5t119 -5t123.5 -2.5q68 0 141 5l74 5q43 0 43 -47q0 -53 -35 -53q-5 0 -21 1t-26 1 q-42 0 -59 -35q-21 -40 -21 -166q0 -86 4 -125q2 -20 11.5 -44.5t9.5 -37.5q0 -36 -35 -43q-11 -2 -39.5 -6t-52.5 -8t-41 -8q-198 -58 -367 -58q-175 0 -314 51t-228 142.5t-136 214.5t-47 270z" />
<glyph unicode="H" horiz-adv-x="1597" d="M47 47q0 18 9 31.5t22 13.5q4 0 20 -1t21 -1q77 0 96 39q18 40 18 184v727q0 142 -18 185q-19 39 -94 39q-5 0 -22 -1t-21 -1q-31 0 -31 45q0 49 39 49q5 0 47.5 -3t104.5 -6.5t116 -3.5q55 0 118.5 3.5t105.5 6.5t47 3q39 0 39 -45q0 -49 -35 -49q-4 0 -17.5 1t-17.5 1 q-76 0 -98 -35q-25 -36 -25 -193v-223q0 -40 20 -48.5t99 -8.5h432q64 0 82 8.5t18 44.5v231q0 144 -20 185q-19 39 -92 39q-5 0 -21.5 -1t-21.5 -1q-15 0 -24 12.5t-9 32.5q0 49 41 49q5 0 47.5 -3t104.5 -6.5t116 -3.5t117 3.5t105.5 6.5t47.5 3q37 0 37 -45 q0 -49 -32 -49q-4 0 -17.5 1t-17.5 1q-79 0 -99 -35q-24 -34 -24 -193v-719q0 -158 24 -192q20 -35 99 -35q4 0 17.5 1t17.5 1q32 0 32 -45q0 -49 -32 -49q-5 0 -49.5 3t-109 6t-118.5 3t-117 -3t-106.5 -6t-48.5 -3q-35 0 -35 49q0 18 9 31.5t22 13.5q5 0 21.5 -1t21.5 -1 q75 0 94 39q20 45 20 184v287q0 36 -19.5 44.5t-86.5 8.5h-422q-82 0 -102.5 -10t-20.5 -43v-283q0 -156 25 -192q22 -35 98 -35q4 0 17.5 1t17.5 1q17 0 26 -13t9 -30q0 -51 -35 -51q-5 0 -49.5 3t-109 6t-118.5 3t-116.5 -3t-105.5 -6t-50 -3q-33 0 -33 49z" />
<glyph unicode="I" horiz-adv-x="708" d="M49 47q0 19 8.5 32t20.5 13q5 0 20.5 -1t20.5 -1q79 0 98 39q19 43 19 184v727q0 146 -19 185t-94 39q-5 0 -22.5 -1t-22.5 -1q-29 0 -29 45q0 49 37 49q7 0 50.5 -3t106.5 -6.5t117 -3.5q55 0 117 3.5t102.5 6.5t45.5 3q22 0 29.5 -11t7.5 -34q0 -49 -33 -49 q-4 0 -17.5 1t-17.5 1q-72 0 -94 -35q-27 -34 -27 -193v-721q0 -151 27 -190q20 -35 94 -35q4 0 17.5 1t17.5 1q33 0 33 -45q0 -49 -33 -49q-5 0 -48.5 3t-107.5 6t-119 3q-54 0 -117 -3t-106.5 -6t-48.5 -3q-33 0 -33 49z" />
<glyph unicode="J" horiz-adv-x="733" d="M-111 -158q0 36 22.5 62t61.5 26q33 0 72 -39q32 -32 70 -32q23 0 44.5 6t44 20.5t39 44.5t23.5 72q15 84 15 209v827q0 139 -23 183q-19 43 -102 43q-5 0 -26.5 -1t-25.5 -1q-28 0 -28 47t37 47q7 0 55 -3t116 -6.5t124 -3.5q75 0 166 7l92 6q41 0 41 -43q0 -51 -33 -51 q-4 0 -19 1t-18 1q-65 0 -88 -29q-29 -32 -29 -182q1 -82 3.5 -336t2.5 -424q0 -95 -20.5 -177.5t-56.5 -142.5t-81.5 -106.5t-97.5 -75t-103 -43t-99 -14.5q-92 0 -135.5 30.5t-43.5 77.5z" />
<glyph unicode="K" horiz-adv-x="1478" d="M47 47q0 19 9 32t22 13q4 0 20 -1t21 -1q77 0 96 39q18 40 18 184v727q0 142 -18 185q-19 39 -94 39q-5 0 -22 -1t-21 -1q-31 0 -31 45q0 49 39 49q5 0 47.5 -3t104.5 -6.5t116 -3.5q55 0 118 3.5t104.5 6.5t46.5 3q39 0 39 -45q0 -49 -33 -49q-5 0 -18.5 1t-18.5 1 q-74 0 -96 -35q-25 -36 -25 -193v-719q0 -156 25 -192q22 -35 98 -35q4 0 17.5 1t17.5 1q35 0 35 -45q0 -49 -35 -49q-5 0 -49.5 3t-109 6t-118.5 3t-117 -3t-106.5 -6t-48.5 -3q-33 0 -33 49zM514 692q0 37 29 47q73 20 108 60q156 156 250 270q92 110 92 158q0 35 -63 35 q-4 0 -20 -1t-19 -1q-37 0 -37 49q0 19 8.5 34t28.5 15q6 0 48.5 -4t101.5 -8.5t106 -4.5q49 0 124 8.5t81 8.5q39 0 39 -49t-37 -49q-5 0 -23 1t-24 1q-55 -4 -97 -33q-36 -25 -72 -59.5t-102 -110.5q-36 -42 -123 -137t-122 -136q-23 -23 -23 -43q0 -12 37 -59 q323 -425 493 -549q57 -41 97 -41q8 0 22 2t17 2q39 0 39 -47q0 -43 -33 -49q-46 -12 -135 -12q-161 0 -256 65q-114 77 -215 209q-122 155 -211 275q-61 80 -86 102q-23 23 -23 51z" />
<glyph unicode="L" horiz-adv-x="1191" d="M49 45q0 21 8.5 34t22.5 13q4 0 22 -1t23 -1q69 0 92 41q19 36 19 174v737q0 148 -17 183q-19 39 -94 39q-5 0 -22 -1t-21 -1q-14 0 -23.5 11t-9.5 34q0 49 39 49q7 0 50 -3t105.5 -6.5t116.5 -3.5q55 0 119 3.5t106.5 6.5t47.5 3q37 0 37 -45q0 -49 -33 -49 q-4 0 -20.5 1t-20.5 1q-75 0 -102 -35q-23 -29 -23 -195v-749q0 -89 18 -121q19 -31 72 -44.5t166 -13.5q165 0 217 37q67 49 117 185q14 34 43 34q53 0 53 -34q0 -29 -20 -118.5t-37 -148.5q-22 -63 -64 -63q-90 0 -273.5 5t-322.5 5q-55 0 -139.5 -2.5t-149 -5t-71.5 -2.5 q-31 0 -31 47z" />
<glyph unicode="M" horiz-adv-x="1859" d="M20 47q0 19 9 33t26 14q4 0 18.5 -1t18.5 -1q75 0 98 39q25 36 33 176q43 774 43 791q0 111 -26 137q-25 29 -80 29q-7 0 -28.5 -1t-27.5 -1q-30 0 -30 47q0 49 35 49q1 0 90 -7.5t151 -7.5q39 0 112 6.5t77 6.5q30 0 41 -33q52 -171 96 -293q71 -195 145 -393t76 -203 q6 -18 18 -18q11 0 19 22q145 345 260 625q28 70 86 252q4 12 8 19t16.5 14.5t32.5 7.5q4 0 70 -6.5t106 -6.5q68 0 147 7l79 8q39 0 39 -49q0 -20 -10 -34.5t-25 -14.5q-5 0 -23.5 1t-23.5 1q-61 0 -92 -31q-16 -14 -20.5 -44.5t-4.5 -96.5q0 -34 25 -771q6 -164 28 -192 q25 -35 99 -35q5 0 17 1t19 1q37 0 37 -49q0 -47 -45 -47q-5 0 -51 3.5t-112.5 7t-122.5 3.5t-119.5 -3.5t-105.5 -7t-46 -3.5q-39 0 -39 51q0 20 9.5 32.5t27.5 12.5q3 0 19 -1t20 -1q93 0 113 41q16 31 16 186q0 159 -20 773q0 16 -13 16q-10 0 -16 -18 q-197 -500 -344 -846q-13 -31 -39 -98.5t-41 -104.5q-16 -39 -53 -39q-23 0 -36 10t-20 35q-11 40 -35.5 111t-25.5 73q-73 206 -186 503t-136 358q-9 22 -18 22q-16 0 -16 -18q-3 -106 -15 -398.5t-12 -388.5q0 -155 23 -184q26 -33 96 -33q3 0 19 1t24 1q16 0 28.5 -12 t12.5 -35q0 -28 -10 -38.5t-33 -10.5q-4 0 -39.5 3t-92.5 6t-112 3q-47 0 -92 -3t-73.5 -6t-33.5 -3q-39 0 -39 49z" />
<glyph unicode="N" horiz-adv-x="1587" d="M39 1309q0 45 41 45q7 0 81 -4t101 -4q30 0 98 4t78 4q18 0 30 -10.5t26 -30.5q195 -250 346 -428q239 -284 364 -430q15 -19 25 -19q12 0 12 17q2 88 2 221q0 175 -8 360q-6 156 -23 189q-21 41 -102 41q-6 0 -27 -1t-24 -1q-39 0 -39 45q0 49 41 49q3 0 36 -3 t89.5 -6.5t116.5 -3.5q47 0 95.5 3.5t80.5 6.5t37 3q23 0 31.5 -10.5t8.5 -34.5q0 -49 -32 -49q-5 0 -24 1t-25 1q-68 0 -91 -33q-30 -37 -30 -197q0 -27 -1 -140.5t-1 -209.5q0 -142 1 -259.5t3 -187t4 -117.5t3 -72.5t1 -29.5q0 -45 -57 -45q-39 0 -58 29q-37 54 -143 186 q-219 265 -713 856q-13 13 -22 13q-15 0 -15 -23q0 -62 -1 -175t-1 -175q0 -176 6 -379q2 -142 33 -180q24 -35 105 -35q2 0 20 1t25 1q37 0 37 -49q0 -45 -37 -45q-7 0 -38 2.5t-82 5t-106 2.5q-56 0 -111 -2.5t-89 -5t-39 -2.5q-37 0 -37 49q0 19 10 32t25 13q4 0 18 -1 t19 -1q83 0 104 41q21 39 23 174q8 418 8 735q0 149 -29 185q-32 39 -108 39q-5 0 -21 -1t-20 -1q-12 0 -21.5 12t-9.5 35z" />
<glyph unicode="O" horiz-adv-x="1554" d="M90 655q0 207 87 371t249 258t371 94q311 0 489 -185t178 -495q0 -158 -44.5 -290t-129 -229t-215.5 -151.5t-297 -54.5q-205 0 -362 85.5t-241.5 240.5t-84.5 356zM354 674q0 -149 33.5 -265t93 -188.5t138 -109.5t172.5 -37q192 0 301.5 146t109.5 442 q0 300 -117.5 459t-306.5 159q-193 0 -308.5 -154t-115.5 -452z" />
<glyph unicode="P" horiz-adv-x="1245" d="M47 47q0 45 35 45q2 0 18 -1t21 -1q75 0 96 43q16 40 16 178v723q0 157 -20 191q-21 37 -96 37q-5 0 -20 -1t-17 -1q-33 0 -33 51q0 23 11 34t26 11q7 0 48.5 -3t103 -6.5t116.5 -3.5q27 0 147 5.5t163 5.5q250 0 371.5 -92t121.5 -263q0 -42 -6.5 -81.5t-23.5 -82.5 t-43 -79.5t-69 -69.5t-98 -56.5t-132.5 -37.5t-170.5 -14q-22 0 -60 2t-44 2q-20 0 -28.5 -10t-8.5 -37v-222q0 -156 27 -190q15 -20 38 -26.5t70 -6.5q3 0 23 1t28 1q33 0 33 -49q0 -45 -39 -45q-7 0 -118.5 6t-180.5 6q-55 0 -118.5 -3t-105.5 -6t-46 -3q-35 0 -35 49z M471 762q0 -55 21 -70q21 -14 71 -14q183 0 258.5 73.5t75.5 227.5q0 142 -76.5 210t-232.5 68q-59 0 -86 -8q-31 -9 -31 -57v-430z" />
<glyph unicode="Q" horiz-adv-x="1554" d="M90 655q0 207 87 371t249 258t371 94q311 0 489 -185t178 -495q0 -249 -108 -429.5t-312 -252.5q-24 -6 -24 -20q0 -13 18 -19q38 -19 144 -74t185 -92.5t153 -64.5q190 -72 385 -72q116 0 209 37q5 2 20.5 8.5t28 10.5t20.5 4q19 0 31 -14t12 -37q0 -29 -35 -50 q-86 -47 -194.5 -64.5t-267.5 -17.5q-127 0 -246.5 21.5t-210 54t-188 81t-165 91t-157 98t-150.5 87.5q-10 6 -92 30q-201 68 -315.5 237.5t-114.5 403.5zM354 674q0 -149 33.5 -265t93 -188.5t138 -109.5t172.5 -37q192 0 301.5 146t109.5 442q0 300 -117.5 459 t-306.5 159q-193 0 -308.5 -154t-115.5 -452z" />
<glyph unicode="R" horiz-adv-x="1417" d="M47 43q0 25 9.5 37t21.5 12q4 0 19 -1t20 -1q80 0 98 41t18 166v737q0 162 -20 193q-12 19 -33.5 27t-64.5 8q-5 0 -17 -1t-16 -1q-35 0 -35 51q0 24 10 34.5t23 10.5q7 0 47.5 -3t101 -6.5t115.5 -3.5q27 0 141 5.5t158 5.5q269 0 386.5 -84t117.5 -254 q0 -275 -322 -361q-16 -5 -16 -14q0 -4 16 -12q75 -39 148 -142q155 -228 231 -315q43 -51 74 -68.5t61 -17.5q4 0 20 2t25 2q14 0 24.5 -12t10.5 -35q0 -36 -28 -45q-30 -10 -113 -10q-107 0 -176 23.5t-131 82.5q-66 61 -166 242q-107 189 -135 221q-36 45 -90 55 q-38 6 -74 6q-20 0 -28.5 -9t-8.5 -36v-276q0 -142 31 -178q15 -18 34 -23.5t64 -5.5q4 0 20 1t19 1q41 0 41 -49q0 -45 -39 -45q-7 0 -60.5 3t-127 6t-129.5 3q-49 0 -145 -6t-97 -6q-33 0 -33 45zM469 797q0 -54 23 -70q9 -6 36 -11t45 -5q328 0 328 284q0 71 -22.5 122.5 t-64 81t-93.5 43t-117 13.5q-77 0 -102 -4q-33 -3 -33 -51v-403z" />
<glyph unicode="S" horiz-adv-x="1067" d="M72 344q0 22 13.5 35.5t41.5 13.5q47 0 53 -43q16 -104 68 -180q27 -40 97.5 -68t156.5 -28q132 0 205 60t73 159q0 130 -174 221l-196 104q-153 83 -219 171.5t-66 218.5q0 171 134 270.5t335 99.5q136 0 280 -39q75 -21 78 -65q2 -23 6.5 -77.5t8.5 -98.5t4 -49 q0 -43 -47 -43q-51 0 -58 41q-15 97 -59 155q-61 78 -207 78q-140 0 -207 -55t-67 -148q0 -120 168 -213l186 -102q67 -35 108.5 -61t83.5 -61t64.5 -71t36.5 -85.5t14 -110.5q0 -181 -134 -290.5t-361 -109.5q-105 0 -205.5 20t-147.5 48q-40 24 -43 65q-3 60 -13.5 143.5 t-10.5 94.5z" />
<glyph unicode="T" horiz-adv-x="1318" d="M49 1040q0 18 8.5 122t8.5 151q0 20 11 32.5t27 12.5q6 0 53.5 -3t175 -6t326.5 -3q215 0 344 2.5t171 5t47 2.5q19 0 31 -11.5t12 -33.5q0 -33 2 -95.5t4 -113t2 -53.5q0 -39 -47 -39q-43 0 -47 32q-16 124 -52 162q-25 28 -64 37.5t-120 9.5q-135 0 -151 -12 q-19 -14 -19 -82v-850q0 -141 25 -182q18 -35 96 -35q3 0 24 1t27 1q13 0 22 -11.5t9 -33.5q0 -49 -35 -49q-27 0 -123 6t-166 6q-73 0 -169 -6t-107 -6q-37 0 -37 49q0 22 8.5 33.5t20.5 11.5q5 0 25.5 -1t25.5 -1q35 0 63 11.5t37 31.5q19 44 19 172v852q0 62 -19 76 q-22 18 -143 18q-71 0 -107 -8.5t-65 -34.5q-42 -37 -62 -164q-3 -34 -49 -34q-18 0 -30.5 8t-12.5 22z" />
<glyph unicode="U" horiz-adv-x="1552" d="M27 1309q0 47 43 47q5 0 46.5 -3t104 -6.5t119.5 -3.5q56 0 114.5 3.5t96.5 6.5t43 3q37 0 37 -43q0 -51 -33 -51q-3 0 -16 1t-17 1q-67 0 -88 -27q-16 -20 -23.5 -60.5t-7.5 -134.5q0 -382 5 -577q3 -85 21.5 -150.5t49 -107.5t74 -68.5t93 -37.5t110.5 -11 q123 0 203 30t125.5 96.5t63 157t17.5 226.5q0 298 -4 442q-3 84 -8 122t-16 57q-24 39 -99 39q-4 0 -23.5 -1.5t-23.5 -1.5q-30 0 -30 50q0 49 36 49q8 0 95.5 -6.5t142.5 -6.5t124.5 6.5t70.5 6.5q26 0 35.5 -11t9.5 -34q0 -49 -37 -49q-5 0 -22 1t-21 1q-49 -2 -78 -35 q-33 -37 -33 -185q0 -38 1 -256.5t1 -281.5q0 -535 -551 -535q-307 0 -440 126t-133 384q0 45 2 225t2 341q0 142 -21 180q-19 37 -90 37q-5 0 -21 -1t-20 -1q-30 0 -30 47z" />
<glyph unicode="V" horiz-adv-x="1464" d="M10 1311q0 45 43 45q4 0 105.5 -4t152.5 -4q50 0 168 4t119 4q20 0 28.5 -10.5t8.5 -36.5q0 -49 -35 -49q-6 0 -24 1t-21 1q-61 0 -81.5 -15t-20.5 -41q0 -43 43 -151l245 -617q23 -57 32 -72.5t20 -15.5q8 0 16 14.5t29 67.5l249 621q46 116 46 157q0 27 -21.5 40.5 t-73.5 13.5q-10 0 -25 -1t-16 -1q-36 0 -36 47t40 47q2 0 93 -4t141 -4q48 0 113 4t69 4q37 0 37 -45q0 -49 -37 -49q-5 0 -17 1t-20 1q-43 0 -73 -41q-25 -33 -80 -162q-88 -205 -377 -887q-48 -119 -66 -158q-17 -39 -57 -39q-44 0 -57 35q-1 3 -17 47.5t-30 75.5 q-286 702 -379 926q-54 131 -84 168q-25 35 -70 35q-6 0 -23 -1t-22 -1q-35 0 -35 49z" />
<glyph unicode="W" horiz-adv-x="2043" d="M10 1309q0 47 41 47q4 0 99.5 -4t146.5 -4q59 0 178 3l119 3q22 0 29.5 -12t7.5 -37q0 -45 -35 -45q-6 0 -26 1t-23 1q-101 0 -101 -66q0 -75 31 -180l164 -576q9 -31 14.5 -41t12.5 -10q12 0 30 51l271 725q10 27 27.5 72.5t23.5 60.5q18 54 61 54q41 0 54 -43 q22 -70 45 -127l301 -758q11 -25 16 -32t12 -7q14 0 25 43l154 576q36 128 36 194q0 34 -25 49t-87 15q-4 0 -23 -1t-20 -1q-18 0 -27.5 13t-9.5 32q0 49 39 49q1 0 94 -3t143 -3q51 0 115 4t68 4q21 0 32 -10t11 -37q0 -22 -11 -34.5t-26 -12.5q-9 0 -22.5 1t-18.5 1 q-42 0 -62 -29q-4 -5 -7.5 -11.5t-7.5 -17t-7 -19.5t-8.5 -26t-9.5 -30.5t-11.5 -39t-13.5 -44.5q-159 -518 -273 -916q-24 -82 -38 -115q-17 -39 -50 -39q-42 0 -57 31q-21 47 -51 125q-13 34 -124.5 312t-186.5 470q-10 27 -14.5 33t-12.5 6q-12 0 -27 -39 q-195 -514 -301 -780q-24 -69 -45 -119q-17 -39 -51 -39q-41 0 -53 31q-4 7 -39 115q-7 22 -113.5 376.5t-167.5 547.5q-48 144 -69 182q-18 35 -72 35q-6 0 -19 -1t-18 -1q-37 0 -37 47z" />
<glyph unicode="X" horiz-adv-x="1519" d="M31 43q0 49 39 49q3 0 14.5 -1t15.5 -1q53 0 93 37q48 48 169 205l244 319q15 25 15 31q0 4 -2.5 9.5t-4.5 9t-8.5 11.5t-9.5 13l-219 303q-62 87 -162 205q-27 31 -78 31q-5 0 -15.5 -1t-15.5 -1q-34 0 -34 47q0 49 39 49q7 0 57 -3t119 -6t121 -3q40 0 147 6t113 6 q32 0 32 -47q0 -49 -36 -49q-8 0 -30.5 1t-31.5 1q-35 0 -47 -7.5t-12 -29.5q0 -16 25 -54t98 -139l110 -153q19 -26 27.5 -34.5t15.5 -8.5q11 0 45 43l109 149q61 82 85.5 125t24.5 68t-22 33t-66 8q-18 0 -32.5 -1t-18.5 -1q-35 0 -35 47t33 47q7 0 41 -3t87.5 -6.5 t107.5 -3.5q73 0 129 6.5t59 6.5q43 0 43 -45q0 -49 -35 -49q-2 0 -13 1t-18 1q-43 0 -75 -37q-55 -58 -160 -197l-203 -262q-16 -21 -16 -31q0 -17 18 -39l267 -364q7 -10 26.5 -36.5t26.5 -36t23.5 -31t27.5 -35t27.5 -32.5t33.5 -38q20 -21 37.5 -28t48.5 -7q4 0 16.5 1 t16.5 1q33 0 33 -49q0 -45 -37 -45q-4 0 -103 6t-171 6q-48 0 -170.5 -6t-126.5 -6q-35 0 -35 45q0 49 37 49q8 0 26.5 -1t28.5 -1q70 0 70 41q0 34 -119 195l-162 219q-27 39 -37 39q-11 0 -35 -33q-4 -5 -6 -8l-155 -217q-60 -84 -85.5 -126.5t-25.5 -66.5t20 -33.5 t64 -9.5q18 0 37 1t24 1q37 0 37 -49q0 -20 -10 -32.5t-27 -12.5l-82 6q-81 6 -155 6q-75 0 -148.5 -6t-74.5 -6q-39 0 -39 45z" />
<glyph unicode="Y" horiz-adv-x="1386" d="M14 1313q0 45 41 45q7 0 47.5 -3t101 -6t118.5 -3q42 0 170 6t135 6q35 0 35 -45q0 -51 -39 -51q-9 0 -26.5 1t-27.5 1q-86 0 -86 -54q0 -31 18.5 -69t71.5 -129l129 -217q25 -41 36.5 -53.5t21.5 -12.5q18 0 55 64l129 223q82 144 82 196q0 30 -23.5 41t-72.5 11 q-20 0 -37 -1t-21 -1q-34 0 -34 47q0 49 39 49l85 -6q84 -6 164 -6q73 0 132 6t63 6q41 0 41 -45q0 -49 -33 -49q-3 0 -13 1t-16 1q-40 0 -77 -37q-52 -55 -148 -211l-239 -400q-14 -18 -17 -38q-2 -10 -2 -43v-224q0 -152 29 -188q15 -19 34.5 -27t59.5 -8q4 0 18 1t17 1 q37 0 37 -47t-37 -47q-5 0 -47.5 3t-105 6t-117.5 3q-56 0 -123.5 -3t-114.5 -6t-51 -3q-17 0 -26 10.5t-9 38.5q0 23 10.5 34t24.5 11q2 0 18 -1t21 -1q85 0 102 41q21 44 21 184v199q0 36 -5 51q-2 14 -22 47l-244 394q-84 134 -143 219q-27 39 -82 39q-5 0 -17.5 -1 t-17.5 -1q-33 0 -33 51z" />
<glyph unicode="Z" horiz-adv-x="1296" d="M57 37q0 16 15 37q125 173 254 356.5t200.5 287.5t186 272t137.5 202q16 24 16 37q0 18 -37 18q-94 2 -243 2q-76 0 -104.5 -0.5t-74.5 -2.5t-69 -7.5t-39 -15.5q-31 -20 -51.5 -59t-44.5 -120q-7 -30 -45 -30q-24 0 -35.5 8t-11.5 29q0 7 7 42t18.5 99t19.5 127 q3 23 16 32t41 9q3 0 160.5 -4t306.5 -4q97 0 212.5 0.5t192 1t78.5 0.5q16 0 26.5 -9t10.5 -26q0 -18 -14 -39q-94 -141 -387.5 -567.5t-368.5 -536.5q-20 -30 -20 -43q0 -20 34 -20q21 0 137 -1t156 -1q103 0 191.5 13.5t122.5 37.5q42 32 65 66.5t39 105.5q10 41 43 41 q53 0 53 -33q0 -18 -11 -71t-28 -128.5t-24 -113.5q-7 -31 -47 -31q-1 0 -69 1t-189.5 2t-251.5 1q-21 0 -270 -1t-267 -1q-16 0 -26.5 11.5t-10.5 25.5z" />
<glyph unicode="[" horiz-adv-x="655" d="M199 -248q0 10 1 52t1 51v1452q0 61 -1 122t-1 64q0 45 37 45q27 0 95 -1t97 -1q24 0 70 1t69 1q35 0 35 -47q0 -45 -35 -45q-20 0 -50 1t-48 1q-41 0 -66 -2q-24 -4 -24 -45v-1567q0 -30 14 -35q18 -4 76 -4q18 0 48 1t50 1q35 0 35 -45q0 -47 -35 -47q-23 0 -63 1 t-64 1q-30 0 -110.5 -1t-100.5 -1q-30 0 -30 47z" />
<glyph unicode="\" horiz-adv-x="870" d="M37 1352q0 15 13.5 24.5t39.5 9.5q32 0 47.5 -10.5t26.5 -36.5l635 -1337q18 -40 18 -53q0 -37 -51 -37q-29 0 -45.5 8.5t-26.5 30.5l-645 1356q-12 28 -12 45z" />
<glyph unicode="]" horiz-adv-x="653" d="M51 -248q0 24 10.5 35.5t24.5 11.5q20 0 49 -1t47 -1q41 0 68 2q22 0 22 43v1565q0 33 -14 37q-16 4 -76 4q-18 0 -47 -1t-49 -1q-35 0 -35 45q0 47 35 47q24 0 63 -1t62 -1q30 0 110.5 1t100.5 1q31 0 31 -47q0 -10 -1 -51.5t-1 -50.5v-1450q0 -61 1 -122.5t1 -64.5 q0 -45 -35 -45q-27 0 -95.5 1t-97.5 1q-23 0 -69.5 -1t-69.5 -1q-19 0 -27 10t-8 35z" />
<glyph unicode="^" horiz-adv-x="1314" d="M229 539q0 5 7 16l350 694q12 21 32 21h97q22 0 28 -21l338 -694q4 -4 4 -14q0 -19 -22 -19h-115q-18 0 -30 21l-259 547l-262 -547q-6 -21 -28 -21h-115q-25 0 -25 17z" />
<glyph unicode="_" horiz-adv-x="1034" d="M-31 -233q0 30 31 30h1034q29 0 29 -30v-60q0 -29 -29 -29h-1034q-31 0 -31 29v60z" />
<glyph unicode="`" horiz-adv-x="600" d="M131 1389q0 32 24 54.5t64 22.5q50 0 82 -59q23 -43 154 -260q14 -21 14 -39q0 -13 -10.5 -24t-26.5 -11q-22 0 -51 27q-164 153 -217 215q-33 38 -33 74z" />
<glyph unicode="a" horiz-adv-x="1026" d="M82 209q0 60 24.5 105t65.5 69q97 59 358 109q53 9 69.5 23.5t16.5 57.5q0 115 -7.5 156t-30.5 70q-36 47 -121 47q-61 0 -106.5 -37.5t-45.5 -83.5q0 -19 5 -49t5 -45q0 -36 -26 -57t-68 -21q-43 0 -66.5 26.5t-23.5 67.5q0 40 22 82t54 70q65 61 169.5 111.5 t190.5 50.5q143 0 209 -78q47 -59 47 -201q0 -48 -3 -214.5t-3 -242.5q0 -75 19.5 -104t52.5 -29q36 0 49 31q8 27 43 27q17 0 29 -9t12 -26q0 -34 -33 -64q-78 -78 -180 -78q-130 0 -170 103q-6 16 -18 16q-15 0 -27 -16q-97 -105 -236 -105q-133 0 -204.5 73.5 t-71.5 164.5zM295 231q0 -56 38.5 -91.5t110.5 -35.5q39 0 81 18t61 38q32 35 32 129v94q0 17 -9.5 26t-22.5 9q-27 0 -51 -6q-105 -23 -170 -56q-70 -39 -70 -125z" />
<glyph unicode="b" horiz-adv-x="1198" d="M51 1485q0 26 23 35q137 49 258 120q25 15 35 15q41 0 41 -37q0 -8 -2 -68.5t-4.5 -159t-2.5 -198.5v-328q0 -35 25 -35q13 0 33 13q146 119 288 119q177 0 276 -123.5t99 -321.5q0 -148 -71 -270.5t-195.5 -192t-275.5 -69.5q-114 0 -191 28q-30 13 -53 13 q-17 0 -28 -9.5t-19 -38.5q-10 -32 -54 -32q-51 0 -51 43q0 7 4 52t7.5 128t3.5 184v801q0 179 -21 231q-13 30 -55 50q-16 8 -51 18q-19 8 -19 33zM399 330q0 -79 4.5 -112.5t18.5 -53.5q21 -33 80.5 -55.5t120.5 -22.5q127 0 205.5 83t78.5 253q0 182 -82 283.5 t-219 101.5q-62 0 -120.5 -34.5t-73.5 -76.5q-13 -38 -13 -133v-233z" />
<glyph unicode="c" horiz-adv-x="958" d="M76 432q0 233 142.5 381t365.5 148q188 0 260 -97q35 -52 35 -108t-34 -83.5t-83 -27.5q-66 0 -84 51q-4 10 -6 25t-3.5 34t-2.5 29q-9 82 -131 82q-105 0 -174.5 -87.5t-69.5 -252.5q0 -89 18.5 -160t49 -117t72.5 -76.5t86.5 -43t92.5 -12.5q138 0 195 106q9 15 20 53 q8 35 45 35q24 0 37 -11.5t13 -29.5q0 -24 -15 -65q-17 -43 -44.5 -80.5t-71.5 -74t-113 -58t-154 -21.5q-109 0 -196 37.5t-140.5 102t-81.5 146.5t-28 175z" />
<glyph unicode="d" horiz-adv-x="1234" d="M76 426q0 230 150.5 379t394.5 149q67 0 141 -18q20 -8 33 -8q10 0 14 7t4 26v196q0 180 -20 227q-17 33 -60 52q-18 8 -51 16q-14 7 -14 33q0 28 22 35q142 51 260 122q22 13 35 13q39 0 39 -37q0 -8 -2 -71t-4 -161.5t-2 -193.5v-844q0 -145 35 -186q20 -27 55 -27 q10 0 30 4t27 4q17 0 27 -13t10 -34q0 -35 -35 -43q-26 -6 -147 -43q-29 -8 -64 -22.5t-57.5 -23.5t-32.5 -9q-16 0 -26.5 10.5t-12.5 22.5q-2 11 -5 41t-5 41q-3 22 -22 22q-11 0 -31 -16q-147 -107 -285 -107q-175 0 -288 126.5t-113 330.5zM299 487q0 -170 79.5 -266 t213.5 -96q71 0 129.5 30t71.5 66q20 53 20 154v231q0 122 -25 160q-23 38 -80.5 62t-129.5 24q-119 0 -199 -95.5t-80 -269.5z" />
<glyph unicode="e" horiz-adv-x="1017" d="M80 432q0 244 137 386.5t342 142.5q101 0 176.5 -27.5t118 -75t63 -103.5t21.5 -120q0 -64 -55 -72q-82 -12 -553 -12q-21 0 -29 -15t-8 -51q0 -172 92 -269t227 -97q85 0 144 28t84 78q7 12 16 43q12 39 47 39q19 0 35 -11t16 -36q0 -35 -32 -94q-44 -81 -142 -138 t-245 -57q-136 0 -241.5 63.5t-159.5 167.5t-54 230zM309 655q0 -7 6.5 -13.5t18.5 -6.5q254 0 334 14q55 9 55 58q0 163 -186 163q-154 0 -218 -161q-10 -25 -10 -54z" />
<glyph unicode="f" horiz-adv-x="679" d="M45 854q0 43 29 47q82 14 112 49q30 34 33 123q8 200 41.5 308t110.5 173q110 91 272 91q108 0 181 -42.5t73 -123.5q0 -109 -102 -109q-41 0 -64.5 19t-28.5 51q-1 5 -3.5 22t-5.5 30t-7 21q-21 41 -88 41q-108 0 -147 -124q-35 -113 -35 -474q0 -21 9.5 -27.5 t39.5 -6.5q46 0 99.5 3t64.5 3q41 0 41 -58q0 -34 -11.5 -47.5t-35.5 -13.5l-53 2q-53 2 -113 2q-25 0 -33 -8t-8 -33v-453q0 -164 22 -196q30 -37 97 -37q5 0 23 1t26 1q32 0 32 -43q0 -47 -30 -47q-6 0 -50 2t-107.5 4t-115.5 2q-51 0 -102 -2t-83.5 -4t-39.5 -2 q-37 0 -37 45t35 45q4 0 18 -1t21 -1q58 0 74 39q16 41 16 188v455q0 45 -37 45q-26 0 -62.5 -2t-43.5 -2q-27 0 -27 45z" />
<glyph unicode="g" horiz-adv-x="1091" d="M51 -309q0 56 21 96t82 82q12 8 28.5 16t37.5 17.5t30 13.5q20 10 20 21q0 15 -16 18q-172 25 -172 174q0 74 59 133q5 4 68 51q22 15 22 25q0 16 -16 29q-92 83 -92 239q0 154 110.5 255.5t301.5 101.5q142 0 253 -62q17 -10 35 -10q19 0 54 35q64 71 135 71 q54 0 76 -25t22 -77q0 -42 -24.5 -66t-57.5 -24q-36 0 -63 24q-23 19 -45 19q-16 0 -28.5 -9.5t-12.5 -27.5t12 -39q37 -60 37 -156q0 -151 -111 -249.5t-303 -98.5q-48 0 -89 6t-64 12.5t-27 6.5q-34 0 -58 -21q-32 -32 -32 -71t32 -62q50 -33 207 -33q49 0 122 1.5 t106 1.5q344 0 344 -263q0 -178 -158 -298.5t-416 -120.5q-204 0 -317 74.5t-113 189.5zM231 -272q0 -91 82.5 -144t231.5 -53q148 0 236.5 64.5t88.5 158.5q0 92 -78 128t-249 36q-112 0 -170 -20q-58 -19 -100 -60t-42 -110zM336 625q0 -142 48 -205.5t142 -63.5 q86 0 134.5 61.5t48.5 178.5q0 138 -49 205t-134 67q-91 0 -140.5 -63.5t-49.5 -179.5z" />
<glyph unicode="h" horiz-adv-x="1226" d="M39 45q0 18 9 30.5t22 12.5q5 0 19.5 -1t19.5 -1q57 0 73 39q19 51 19 192v844q0 173 -21 223q-17 33 -57 52q-7 3 -25.5 8t-25.5 8q-15 6 -15 33t21 35q134 46 260 122q17 13 35 13q37 0 37 -35q0 -7 -2 -66.5t-3.5 -158.5t-1.5 -203v-354q0 -21 17 -21q12 0 24 8 q143 140 310 140q154 0 217 -93q32 -47 44.5 -112t12.5 -191v-204q0 -212 16 -244q11 -19 28 -27t50 -8q7 0 22 1t17 1q33 0 33 -45t-35 -45q-5 0 -38.5 2t-87 4t-105.5 2q-51 0 -103 -2t-86 -4t-41 -2q-30 0 -30 47q0 19 8.5 31t21.5 12q4 0 20 -1t21 -1q53 0 68 41 q20 59 20 287q0 157 -6.5 216.5t-27.5 94.5q-45 80 -158 80q-55 0 -110.5 -22t-90.5 -54q-21 -21 -27 -57.5t-6 -143.5v-209q0 -164 19 -196q21 -37 80 -37q5 0 20 1t21 1q32 0 32 -45t-38 -45q-6 0 -41.5 2t-91 4t-107.5 2q-51 0 -102.5 -2t-84 -4t-38.5 -2q-31 0 -31 47z " />
<glyph unicode="i" horiz-adv-x="616" d="M49 45q0 18 9.5 30.5t23.5 12.5q5 0 19.5 -1t19.5 -1q58 0 74 39q18 49 18 192v197q0 142 -23 184q-24 47 -108 70q-25 7 -25 39q0 27 25 35q146 54 256 121q26 16 51 16q14 0 23.5 -10.5t9.5 -28.5q0 -7 -2 -52t-2 -65q-4 -111 -4 -286v-220q0 -162 18 -194 q23 -37 84 -37q5 0 18 1t17 1q33 0 33 -45t-39 -45q-5 0 -40 2t-89.5 4t-106.5 2q-53 0 -105 -2t-84 -4t-38 -2q-33 0 -33 47zM160 1309q0 62 38 97.5t95 35.5t93 -34t36 -99q0 -59 -37 -94t-92 -35q-60 0 -96.5 34.5t-36.5 94.5z" />
<glyph unicode="j" horiz-adv-x="561" d="M-174 -504q0 34 22 58t60 24q48 0 74 -47q20 -35 71 -35q30 0 58.5 19.5t38.5 48.5q19 56 24.5 169t5.5 398v375q0 155 -18 190q-32 55 -111 72q-24 3 -24 39q0 28 24 35q151 57 254 121q22 16 49 16q15 0 25 -10t10 -29q0 -12 -1 -66t-1 -77q0 -22 -1 -107t-1 -141 q0 -100 4 -307t4 -246q0 -139 -11.5 -226t-43.5 -157q-45 -95 -138 -162t-194 -67q-94 0 -137 33.5t-43 78.5zM129 1309q0 62 38 97.5t93 35.5q58 0 93.5 -34t35.5 -99q0 -59 -36 -94t-93 -35q-59 0 -95 34t-36 95z" />
<glyph unicode="k" horiz-adv-x="1181" d="M37 45q0 17 8.5 30t20.5 13q4 0 20 -1t23 -1q59 0 75 39q15 41 15 192v838q0 179 -21 229q-18 34 -57 52q-7 3 -25.5 8t-25.5 8q-13 6 -13 33q0 28 21 35q132 46 258 122q22 13 37 13q37 0 37 -35q0 -7 -2 -66t-3.5 -158t-1.5 -204v-821v-52q0 -164 19 -196 q24 -37 80 -37q6 0 21 1t20 1q30 0 30 -43q0 -47 -36 -47q-6 0 -41 2t-90 4t-107 2q-53 0 -107 -2t-87.5 -4t-38.5 -2q-29 0 -29 47zM436 492q0 26 29 40q52 21 110 76q105 105 146 152q27 31 27 55q0 29 -46 29q-6 0 -22.5 -1t-22.5 -1q-17 0 -28 12.5t-11 32.5 q0 22 10.5 34.5t24.5 12.5q12 0 85 -5t132 -5q45 0 85.5 2.5t64.5 5t29 2.5q38 0 38 -51q0 -41 -36 -41q-3 0 -21 1t-24 1q-54 0 -164 -107q-38 -38 -103 -99.5t-84 -80.5q-8 -8 -8 -20q0 -6 6 -15q136 -189 287 -336q53 -53 87.5 -73.5t66.5 -20.5q10 0 25 3t22 3 q41 0 41 -45q0 -32 -35 -45q-36 -16 -133 -16q-98 0 -169.5 33t-133.5 100q-80 89 -209 270q-15 21 -31.5 39t-19.5 23q-15 25 -15 35z" />
<glyph unicode="l" horiz-adv-x="616" d="M43 47q0 17 8.5 29t20.5 12q4 0 20 -1t23 -1q56 0 75 39q17 38 17 194v840q0 175 -21 225q-17 33 -59 52q-7 3 -25.5 8t-25.5 8q-13 6 -13 33q0 28 21 35q147 51 258 120q25 15 37 15q39 0 39 -35q0 -7 -1.5 -69t-3 -164t-1.5 -207v-861q0 -169 16 -196q24 -37 82 -37 q6 0 21 1t20 1q29 0 29 -43q0 -47 -35 -47q-6 0 -41 2t-90 4t-107 2q-53 0 -107.5 -2t-88.5 -4t-39 -2q-29 0 -29 49z" />
<glyph unicode="m" horiz-adv-x="1822" d="M51 45q0 18 9 30.5t24 12.5q5 0 19 -1t20 -1q54 0 70 39q20 54 20 192v195q0 145 -20 184q-23 47 -111 72q-25 10 -25 39q0 27 25 35q136 53 240 123q21 14 45 14q29 0 32 -27q1 -14 2 -60t2 -67q0 -20 19 -20q4 0 22 12q154 148 314 148q187 0 235 -144q8 -22 19 -22 q10 0 22 8q158 158 328 158q152 0 215 -93q32 -47 44.5 -112t12.5 -191v-204q0 -206 21 -244q11 -19 27 -27t47 -8q7 0 21.5 1t16.5 1q33 0 33 -45q0 -47 -35 -47q-5 0 -38 2.5t-86 5t-105 2.5q-71 0 -147.5 -5t-77.5 -5q-31 0 -31 49q0 18 9.5 30.5t21.5 12.5q4 0 19.5 -1 t19.5 -1q50 0 65 41q19 53 19 285q0 160 -6 219.5t-27 93.5q-45 80 -156 80q-105 0 -188 -76q-20 -20 -26.5 -58t-6.5 -143v-163q0 -217 18 -244q9 -19 26 -27t50 -8q7 0 20 1t15 1q33 0 33 -45q0 -47 -35 -47q-5 0 -37 2.5t-84 5t-104 2.5q-71 0 -148 -5t-78 -5 q-32 0 -32 49q0 19 9 31t23 12q5 0 21 -1t20 -1q52 0 64 41q18 48 18 285q0 156 -6.5 217t-28.5 96q-45 80 -153 80q-109 0 -189 -76q-21 -20 -26.5 -56t-5.5 -145v-209q0 -166 20 -196q21 -37 72 -37q5 0 18.5 1t18.5 1q35 0 35 -45q0 -47 -41 -47q-5 0 -38.5 2.5t-86.5 5 t-105 2.5q-51 0 -102.5 -2.5t-84 -5t-38.5 -2.5q-31 0 -31 49z" />
<glyph unicode="n" horiz-adv-x="1239" d="M49 45q0 18 9 30.5t24 12.5q5 0 19.5 -1t19.5 -1q56 0 72 39q20 54 20 192v195q0 145 -20 184q-23 47 -111 72q-25 10 -25 39q0 27 25 35q132 51 240 121q24 16 45 16q29 0 32 -27q1 -14 2 -60t2 -67q0 -20 19 -20q7 0 22 10q150 150 320 150q154 0 217 -93 q32 -47 44.5 -112t12.5 -191v-204q0 -215 21 -244q21 -35 76 -35q7 0 20.5 1t15.5 1q35 0 35 -45q0 -47 -37 -47q-4 0 -37 2.5t-86.5 5t-105.5 2.5q-70 0 -147 -5t-78 -5q-37 0 -37 49q0 18 9.5 30.5t23.5 12.5q4 0 20 -1t21 -1q52 0 67 41q19 53 19 285q0 155 -6.5 216.5 t-26.5 96.5q-45 80 -158 80q-56 0 -111 -21.5t-90 -54.5q-21 -20 -26.5 -56t-5.5 -145v-209q0 -166 20 -196q19 -37 76 -37q5 0 19.5 1t19.5 1q35 0 35 -45q0 -47 -41 -47q-6 0 -40.5 2.5t-89 5t-106.5 2.5q-51 0 -102.5 -2.5t-84.5 -5t-40 -2.5q-31 0 -31 49z" />
<glyph unicode="o" horiz-adv-x="1155" d="M80 449q0 159 68.5 276.5t184 176.5t261.5 59q232 0 357.5 -131.5t125.5 -344.5q0 -108 -34 -201.5t-97.5 -163t-161.5 -109.5t-219 -40q-118 0 -212 37.5t-152.5 103.5t-89.5 151.5t-31 185.5zM311 481q0 -201 73 -311.5t198 -110.5q127 0 195.5 102t68.5 300 q0 201 -71.5 307t-194.5 106q-129 0 -199 -102.5t-70 -290.5z" />
<glyph unicode="p" horiz-adv-x="1230" d="M51 -543q0 18 8.5 30.5t22.5 12.5q4 0 19 -1t20 -1q55 0 74 39q18 49 18 195v782q0 120 -10 156q-12 51 -68 80q-15 8 -53 18q-25 10 -25 39q0 25 25 35q107 40 240 123q21 14 43 14q14 0 24 -7.5t10 -17.5q1 -16 2 -63t2 -62q3 -24 17 -24t24 10q70 65 154 104t160 39 q173 0 281 -126.5t108 -325.5q0 -232 -146.5 -381.5t-386.5 -149.5q-80 0 -155 21q-24 6 -29 6q-9 0 -10.5 -5.5t-1.5 -25.5v-239q0 -163 18 -193q23 -41 96 -41q5 0 27.5 1t26.5 1q35 0 35 -45t-41 -45q-7 0 -50.5 2t-106.5 4t-116 2q-49 0 -100.5 -2t-85 -4t-39.5 -2 q-31 0 -31 47zM416 328q0 -132 24 -168q23 -36 81 -59t122 -23q117 0 200 92.5t83 267.5q0 169 -76 267t-207 98q-75 0 -135 -33.5t-74 -75.5q-18 -45 -18 -143v-223z" />
<glyph unicode="q" horiz-adv-x="1198" d="M80 432q0 148 66.5 269.5t186 191.5t269.5 70q112 0 211 -29q35 -14 49 -14q18 0 28.5 9.5t20.5 39.5q14 35 54 35q25 0 38 -13t13 -33q0 -7 -4 -52t-7.5 -128t-3.5 -184v-862q0 -148 21 -195q16 -39 76 -39q6 0 21 1t18 1q32 0 32 -43q0 -47 -32 -47q-6 0 -41 2t-87 4 t-100 2q-53 0 -117 -2t-108.5 -4t-50.5 -2q-23 0 -32 10.5t-9 34.5q0 45 33 45q5 0 27.5 -1t27.5 -1q71 0 96 41q21 30 21 193v344q0 37 -23 37q-16 0 -35 -15q-141 -112 -282 -112q-177 0 -277 123.5t-100 322.5zM291 524q0 -181 82.5 -282t220.5 -101q61 0 119 32t73 73 q13 38 13 133v237q0 79 -4.5 112.5t-18.5 53.5q-21 33 -80 55.5t-121 22.5q-129 0 -206.5 -82t-77.5 -254z" />
<glyph unicode="r" horiz-adv-x="831" d="M49 43q0 21 10.5 33t22.5 12q4 0 19 -1t20 -1q53 0 69 39q23 56 23 162v225q0 145 -20 184q-22 46 -115 74q-7 2 -14 10.5t-7 22.5q0 29 21 37q124 49 246 125q21 14 41 14q31 0 34 -29q1 -10 2 -58t2 -67q0 -20 15 -20q13 0 18 8q51 70 113.5 111t126.5 41t99.5 -33.5 t35.5 -87.5q0 -63 -34 -97t-75 -34q-53 0 -81 28q-34 39 -78 39q-28 0 -61.5 -23t-43.5 -50q-24 -66 -24 -181v-229q0 -148 24 -178q24 -33 97 -33q5 0 22 1t21 1q38 0 38 -43q0 -47 -34 -47q-6 0 -50 2t-107.5 4t-115.5 2q-51 0 -101 -2t-81 -4t-37 -2q-21 0 -31 9.5 t-10 35.5z" />
<glyph unicode="s" horiz-adv-x="833" d="M76 256q0 20 13.5 32.5t39.5 12.5q38 0 45 -33q21 -91 64 -139q56 -66 172 -66q73 0 121.5 34t48.5 85q0 27 -6 45.5t-26 43t-64 51.5t-115 59q-145 67 -199.5 135t-54.5 168q0 122 93.5 199.5t264.5 77.5q120 0 203 -25q34 -10 37 -51q2 -32 6.5 -74.5t7 -70.5t2.5 -40 q0 -19 -13.5 -30t-33.5 -11q-42 0 -49 33q-12 92 -37 125q-39 55 -150 55q-78 0 -120.5 -33.5t-42.5 -78.5q0 -55 35 -91.5t149 -86.5q165 -73 228 -143.5t63 -170.5q0 -128 -97 -212.5t-284 -84.5q-66 0 -141.5 16t-108.5 38q-28 21 -33 55q-18 157 -18 176z" />
<glyph unicode="t" horiz-adv-x="708" d="M39 858q0 24 12 33.5t33 13.5q97 15 151.5 67t92.5 167q4 13 7.5 20.5t14 14t25.5 6.5q25 0 33 -13.5t8 -40.5q0 -8 -2 -73t-2 -97q0 -34 30 -34q45 0 112 3t75 3q17 0 27 -16t10 -42q0 -61 -37 -61q-10 0 -74.5 2t-105.5 2q-35 0 -35 -37q-2 -266 -2 -479 q0 -111 18 -152q28 -49 94 -49q57 0 107 45q19 13 26 13q19 0 30 -12.5t11 -32.5q0 -13 -20 -33q-91 -96 -262 -96q-121 0 -176 81q-39 58 -39 187q0 25 3.5 196t4.5 332q0 37 -37 37q-20 0 -55 -2t-45 -2q-33 0 -33 49z" />
<glyph unicode="u" horiz-adv-x="1236" d="M31 860q0 43 32 47q179 21 265 51q45 17 49 17q14 0 24.5 -10t10.5 -25q0 -3 -6 -56.5t-12.5 -145.5t-6.5 -189q0 -145 7 -210t26 -110q19 -44 64.5 -70t107.5 -26q144 0 192 62q16 21 21.5 59t5.5 133v201q0 90 -2.5 121.5t-13.5 54.5q-19 43 -111 51q-29 4 -29 45 q0 19 9 32.5t22 14.5q133 11 250 47q56 21 63 21q17 0 26 -10.5t9 -26.5q0 -2 -4 -42.5t-8 -117t-4 -164.5v-280q0 -132 33 -170q20 -23 55 -23q9 0 31 3t30 3q15 0 25 -13t10 -36q0 -30 -26 -39q-7 -2 -38 -10t-62.5 -16.5t-55.5 -16.5q-35 -12 -72.5 -27.5t-55.5 -22.5 t-26 -7q-31 0 -39 33q-2 8 -5.5 37.5t-6.5 44.5q-6 22 -20 22t-43 -24q-141 -97 -269 -97q-168 0 -237 103q-36 53 -50 125t-14 198q0 24 2 122t2 130q0 79 -14 111q-19 43 -109 51q-32 3 -32 45z" />
<glyph unicode="v" horiz-adv-x="1110" d="M10 891q0 21 10.5 32t26.5 11q5 0 41.5 -2.5t92.5 -5t108 -2.5q51 0 102.5 2.5t85 5t39.5 2.5q35 0 35 -45t-33 -45q-2 0 -20 1t-25 1q-42 0 -60 -13.5t-18 -44.5q0 -33 47 -151q67 -158 146 -328q9 -18 20 -18t19 16q46 98 143 326q51 127 51 162q0 27 -17.5 39 t-58.5 12q-5 0 -22 -1t-21 -1q-17 0 -24.5 15t-7.5 32q0 43 35 43q7 0 32 -2.5t68 -5t94 -2.5q47 0 83.5 2.5t56.5 5t26 2.5q37 0 37 -43q0 -47 -31 -47q-3 0 -16 1t-17 1q-37 0 -63 -33q-19 -24 -57 -102q-218 -473 -277 -605q-6 -14 -22 -51.5t-25 -56.5q-15 -27 -43 -27 q-29 0 -43 27q-14 28 -45 102q-96 216 -279 609q-49 101 -59 112q-20 25 -53 25q-2 0 -13 -1t-18 -1q-13 0 -22 13t-9 34z" />
<glyph unicode="w" horiz-adv-x="1505" d="M8 891q0 43 37 43q1 0 104 -5t142 -5q27 0 82 2.5t100 5t49 2.5q33 0 33 -45t-35 -45q-4 0 -18 1t-21 1q-61 0 -79.5 -12.5t-18.5 -40.5q0 -31 27 -125q55 -191 90 -293q16 -42 20 -43q5 0 9 6.5t14 32.5q43 100 116 282.5t86 218.5q20 52 58 52q31 0 47 -31l11 -27.5 t17 -43t17 -42.5q27 -66 180 -413q18 -39 25 -39t20 39q42 124 90 305q21 84 21 116t-20.5 45t-84.5 13q-4 0 -19 -1t-22 -1q-34 0 -34 45t34 45q3 0 77.5 -5t111.5 -5q36 0 111 5t79 5q33 0 33 -39q0 -25 -6 -37t-25 -12q-4 0 -17 1t-17 1q-29 0 -48 -19q-12 -10 -22.5 -35 t-34.5 -96q-137 -417 -190 -598q-15 -50 -33 -100q-10 -29 -45 -29q-33 0 -47 27q-22 49 -41 100q-78 195 -201 471q-13 33 -20 33q-9 0 -21 -27q-95 -225 -192 -471q-37 -92 -43 -104q-14 -29 -45 -29q-33 0 -43 23q-3 6 -29 84q-18 61 -203 622q-36 106 -49 125 q-17 23 -55 23q-4 0 -16 -1t-15 -1q-31 0 -31 45z" />
<glyph unicode="x" horiz-adv-x="1193" d="M20 39q0 25 11.5 37t25.5 12q3 0 15 -1t16 -1q37 0 74 29q43 37 102 104l180 205q15 15 15 27q0 11 -13 24l-184 232q-60 77 -98 110q-29 29 -60 29q-4 0 -14.5 -1t-13.5 -1q-16 0 -25.5 13.5t-9.5 31.5q0 20 10 32.5t27 12.5q6 0 42.5 -2t93 -4t108.5 -2q69 0 152.5 4 t84.5 4q37 0 37 -45t-35 -45q-4 0 -19 1t-20 1q-61 0 -61 -39q0 -24 78 -119l79 -100q10 -13 19 -13q12 0 22 13l76 90q74 92 74 131q0 22 -16 29.5t-50 7.5q-5 0 -22 -1t-21 -1q-13 0 -22.5 11.5t-9.5 33.5q0 45 34 45q1 0 60.5 -4t128.5 -4q51 0 91 1.5t60.5 3t26.5 1.5 q15 0 25 -12.5t10 -32.5q0 -43 -33 -43q-3 0 -15 1t-16 1q-28 0 -57 -29q-42 -42 -102 -110l-156 -175q-14 -19 -14 -28q0 -17 14 -31l211 -244q75 -85 104 -114q32 -29 62 -29q4 0 20 1t19 1q33 0 33 -49q0 -43 -37 -43q-6 0 -52 2t-111 4t-116 2q-69 0 -163 -4t-95 -4 q-33 0 -33 47q0 19 9 32t22 13q4 0 19 -1t20 -1q44 0 65 8.5t21 32.5q0 20 -80 115l-90 108q-17 17 -23 17q-10 0 -24 -17l-96 -106q-74 -80 -74 -117q0 -25 15.5 -33t60.5 -8q5 0 23 1t22 1q17 0 26 -14t9 -35t-10.5 -32t-26.5 -11q-1 0 -67.5 4t-135.5 4q-52 0 -95 -2 t-66.5 -4t-29.5 -2q-41 0 -41 43z" />
<glyph unicode="y" horiz-adv-x="1124" d="M10 891q0 43 37 43q5 0 42.5 -2.5t94.5 -5t109 -2.5q51 0 102 2.5t84 5t39 2.5q35 0 35 -45q0 -19 -9 -32t-24 -13q-2 0 -21 1t-26 1q-42 0 -59 -13.5t-17 -46.5q0 -43 47 -145q54 -124 158 -340q14 -27 23 -27q13 0 22 21q80 187 139 344q45 118 45 158q0 27 -17.5 38 t-59.5 11q-5 0 -22 -1t-21 -1q-31 0 -31 47q0 43 33 43q6 0 31 -2.5t69.5 -5t95.5 -2.5q47 0 83 2.5t55.5 5t25.5 2.5q41 0 41 -43q0 -47 -31 -47q-2 0 -18 1t-23 1q-33 0 -59 -33q-21 -28 -55 -102q-208 -503 -293 -699q-188 -434 -256 -518q-84 -106 -199 -106 q-66 0 -99.5 26t-33.5 68q0 37 20.5 64.5t61.5 27.5q17 0 40 -9t40 -9q37 0 63.5 18t57.5 57q48 62 143 269q31 72 31 98q0 36 -25 92q-44 95 -143.5 302.5t-151.5 318.5q-50 102 -57 110q-22 25 -49 25q-4 0 -17 -1t-20 -1q-13 0 -22 12t-9 35z" />
<glyph unicode="z" horiz-adv-x="995" d="M47 31q0 22 14 39q80 104 241.5 328.5t275.5 387.5q12 18 12 27q0 11 -27 14q-45 2 -131 2q-156 0 -196 -26q-51 -33 -72 -135q-4 -31 -41 -31q-43 0 -43 35q0 18 17.5 107t21.5 122q5 37 39 37q2 0 115.5 -5t258.5 -5q92 0 166.5 0.5t112.5 1t41 0.5q15 0 26 -7t11 -20 q0 -20 -15 -41q-172 -249 -512 -723q-10 -15 -10 -24q0 -16 27 -19q66 -4 192 -4q148 0 205 35q54 37 88 160q8 30 41 30q43 0 43 -32q0 -59 -45 -265q-2 -7 -11 -15.5t-20 -8.5q-4 0 -44.5 1t-133.5 2.5t-215 2.5q-19 0 -201.5 -1t-199.5 -1q-12 0 -21.5 9t-9.5 22z" />
<glyph unicode="{" horiz-adv-x="718" d="M43 618q0 42 47 48q82 10 125 60.5t43 164.5q0 5 -3 135t-3 166q0 182 80.5 266t269.5 84q38 0 54 -11.5t16 -37.5q0 -47 -37 -47q-6 0 -23.5 1t-23.5 1q-81 0 -114.5 -56t-33.5 -190q0 -39 1 -145.5t1 -116.5q0 -131 -38.5 -199t-129.5 -110q-12 -5 -12 -13q0 -6 14 -12 q38 -16 65.5 -36.5t51.5 -54.5t36.5 -86.5t12.5 -123.5q0 -10 -1 -115.5t-1 -144.5q0 -136 36.5 -194t123.5 -58q4 0 17 1t20 1q39 0 39 -47q0 -26 -17.5 -36.5t-56.5 -10.5q-101 0 -165 14.5t-107 52t-60.5 101t-17.5 164.5q0 53 3 175.5t3 135.5q0 114 -43 164.5 t-127 58.5q-45 5 -45 51z" />
<glyph unicode="|" horiz-adv-x="516" d="M182 -285v1815q0 25 14.5 36t57.5 11q50 0 65 -11.5t15 -39.5v-1815q0 -25 -15 -35t-63 -10q-47 0 -60.5 10.5t-13.5 38.5z" />
<glyph unicode="}" horiz-adv-x="716" d="M43 1499q0 24 17.5 34.5t56.5 10.5q101 0 163.5 -14t105.5 -51.5t60 -101t17 -165.5q0 -53 -3 -174.5t-3 -134.5q0 -114 43.5 -165.5t126.5 -59.5q24 -1 33.5 -13t9.5 -36q0 -41 -45 -47q-82 -10 -125 -61t-43 -165q0 -5 3 -136t3 -167q0 -182 -79 -266t-267 -84 q-38 0 -54 11.5t-16 37.5q0 47 37 47q6 0 23.5 -1t23.5 -1q81 0 114.5 56t33.5 190q0 39 -1.5 146.5t-1.5 117.5q0 130 39 198.5t131 110.5q13 5 13 13q0 6 -15 12q-38 16 -65.5 36.5t-52.5 54.5t-37.5 87t-12.5 123q0 10 1.5 115.5t1.5 144.5q0 136 -36.5 194t-123.5 58 q-3 0 -17 -1t-20 -1q-39 0 -39 47z" />
<glyph unicode="~" horiz-adv-x="1314" d="M152 475q0 8 10 21q139 192 282 192q48 0 96 -15.5t154 -70.5q107 -63 174 -63q43 0 83.5 25t88.5 95q17 17 27 17q9 0 20 -8l68 -50q8 -11 8 -22q0 -9 -6 -18q-134 -191 -289 -191q-89 0 -215 70q-91 51 -130.5 67.5t-69.5 16.5q-48 0 -89.5 -29.5t-93.5 -95.5 q-9 -15 -22 -15q-8 0 -19 7l-67 47q-10 7 -10 20z" />
<glyph unicode="&#xa1;" horiz-adv-x="651" d="M152 821q0 64 38 107t99 43q66 0 104.5 -38.5t38.5 -109.5q0 -65 -40.5 -103t-104.5 -38q-62 0 -98.5 37t-36.5 102zM156 -287q0 45 13.5 153.5t34.5 279t34 313.5q2 30 12.5 46.5t42.5 16.5q34 0 43.5 -13t11.5 -48q14 -190 47 -444t33 -302q0 -147 -133 -147 q-73 0 -106 34t-33 111z" />
<glyph unicode="&#xa2;" horiz-adv-x="1077" d="M143 451q0 199 103 331t307 166q11 2 14.5 6.5t3.5 16.5v153q0 39 50 39q24 0 34.5 -9t10.5 -30v-145q0 -25 26 -25q72 -1 136 -29t94 -69q34 -47 34 -102q0 -48 -27.5 -71.5t-66.5 -23.5q-42 0 -63 23t-21 55q0 9 1 26t1 23q0 68 -59 82q-36 6 -37 6q-12 0 -15 -6.5 t-3 -27.5v-727q0 -25 20 -25q11 0 27 4q59 13 104.5 50t65.5 87q4 11 10 60q2 15 13 25t30 10q22 0 34.5 -11.5t12.5 -25.5q0 -29 -14 -72q-11 -27 -31.5 -57t-53.5 -63.5t-84 -60t-110 -36.5q-13 -2 -18.5 -9t-5.5 -26v-127q0 -37 -45 -37q-50 0 -50 37v127q0 18 -3.5 24 t-16.5 7q-108 8 -189 49.5t-127.5 106t-69 140t-22.5 161.5zM365 520q0 -196 42 -293t130 -129q8 -4 20 -4q14 0 14 23v727q0 30 -18 30q-17 0 -33 -8q-74 -33 -114.5 -126t-40.5 -220z" />
<glyph unicode="&#xa3;" horiz-adv-x="1263" d="M41 63q0 20 8 32.5t31 23.5q58 30 110 47q80 27 132.5 113t58.5 235q0 27 -25 27h-151q-12 0 -18 2.5t-10.5 14.5t-4.5 36q0 32 8.5 41.5t24.5 9.5h153q12 0 18.5 6.5t6.5 16.5q0 16 -7 97.5t-7 113.5q0 195 120.5 308t339.5 113q170 0 250 -50.5t80 -131.5 q0 -56 -30.5 -83t-77.5 -27q-48 0 -75 21t-30 73q-5 60 -37 88q-31 31 -98 31q-41 0 -76 -13.5t-65 -42.5t-47 -82.5t-17 -126.5q0 -55 2 -111.5t4.5 -108t3.5 -70.5q0 -21 25 -21h242q11 0 16 -2t8.5 -13t3.5 -34q0 -34 -7 -44.5t-21 -10.5h-250q-21 0 -25 -21 q-11 -50 -20 -78.5t-28.5 -68.5t-54.5 -75.5t-87 -72.5q-17 -10 -17 -24q0 -12 21 -15q105 -12 223 -32q225 -35 318 -35q87 0 110 31q27 39 27 73q0 4 -1 17.5t-1 17.5q0 19 12 28t29 9q49 0 49 -47q0 -32 -17 -92.5t-51 -110.5q-43 -66 -92.5 -94.5t-118.5 -28.5 q-162 0 -516 113q-135 41 -172 41q-53 0 -94 -41q-19 -19 -43 -19q-20 0 -31.5 15t-11.5 32z" />
<glyph unicode="&#xa4;" horiz-adv-x="952" d="M98 242q0 13 17 30l73 76q11 11 11 21q0 9 -6 18q-58 85 -58 188q0 102 58 179q8 12 8 20q0 10 -11 21l-75 73q-13 13 -13 25q0 24 26 49t46 25q16 0 27 -15l69 -80q9 -12 23 -12q9 0 18 6q79 49 168 49q106 0 170 -45q9 -6 17 -6q14 0 24 13l60 65q27 27 45 27 q19 0 40 -21.5t21 -44.5q0 -12 -14 -26l-80 -78q-8 -8 -8 -21q0 -11 6 -20q53 -79 53 -183q0 -105 -55 -184q-6 -9 -6 -20q0 -13 10 -23l76 -72q14 -11 14 -28q0 -22 -21.5 -43t-39.5 -21q-20 0 -33 13l-80 79q-8 11 -23 11q-8 0 -20 -8q-71 -39 -162 -39q-110 0 -168 34 q-11 7 -16 7q-13 0 -23 -13l-65 -69q-21 -21 -37 -21q-26 0 -46 20t-20 44zM248 573q0 -107 66 -172t165 -65q90 0 158 65t68 174q0 104 -63.5 174t-162.5 70q-101 0 -166 -72t-65 -174z" />
<glyph unicode="&#xa5;" horiz-adv-x="1447" d="M45 1233q0 23 11.5 36t27.5 13q7 0 46 -3t98.5 -6t117.5 -3q42 0 169 6t134 6q33 0 33 -47q0 -51 -35 -51q-9 0 -31 1t-32 1q-68 0 -68 -47q0 -54 96 -205l123 -189q21 -33 29 -42t16 -9q19 0 49 47l127 195q95 146 95 205q0 45 -82 45q-20 0 -39 -1t-23 -1q-39 0 -39 49 q0 19 8.5 34t28.5 15l83 -6q83 -6 163 -6q81 0 146 6t67 6q37 0 37 -47q0 -51 -33 -51q-4 0 -19 1t-22 1q-51 0 -90 -39q-55 -52 -164 -213l-110 -164q-11 -15 -11 -22q0 -13 23 -13h211q19 0 28 -9t9 -36q0 -30 -9 -40.5t-28 -10.5h-293q-18 0 -29 -16l-30 -52 q-13 -22 -13 -41q0 -26 4 -36q7 -13 21 -13h340q37 0 37 -49q0 -28 -8.5 -37.5t-28.5 -9.5h-340q-25 0 -25 -25v-59q0 -140 29 -176q27 -35 96 -35q4 0 20 1t19 1q35 0 35 -47q0 -49 -39 -49q-5 0 -45 3t-100 6t-115 3q-56 0 -122 -3t-111.5 -6t-49.5 -3q-37 0 -37 51 q0 20 9 32.5t26 12.5q2 0 16 -1t19 -1q89 0 109 41q20 38 20 172v57q0 25 -25 25h-337q-39 0 -39 45q0 51 39 51h331q24 0 27 13q2 6 2 34q0 18 -14 39l-35 54q-12 18 -31 18h-280q-21 0 -30 10.5t-9 34.5q0 27 9 39t30 12h204q23 0 23 15q0 7 -6 16l-103 160 q-89 141 -147 219q-27 39 -86 39q-5 0 -22.5 -1t-22.5 -1q-33 0 -33 51z" />
<glyph unicode="&#xa6;" horiz-adv-x="516" d="M182 -180v608q0 25 14.5 36t57.5 11q50 0 65 -11.5t15 -39.5v-608q0 -25 -15 -35t-63 -10q-47 0 -60.5 10.5t-13.5 38.5zM182 762v608q0 25 14.5 36t57.5 11q50 0 65 -11.5t15 -39.5v-608q0 -25 -15 -35t-63 -10q-47 0 -60.5 10.5t-13.5 38.5z" />
<glyph unicode="&#xa7;" horiz-adv-x="958" d="M76 612q0 89 52.5 158.5t143.5 106.5q15 7 15 18q0 10 -8 18q-49 41 -73 95t-24 104q0 122 96 198t273 76q134 0 202 -49t68 -125q0 -98 -90 -98q-75 0 -88 66q-1 5 -4 26t-4.5 28.5t-6.5 20t-12 19.5q-25 29 -88 29q-72 0 -116.5 -38t-44.5 -91q0 -33 5 -53t25.5 -52 t67 -72.5t125.5 -99.5q126 -94 191 -159t87.5 -115.5t22.5 -114.5q0 -31 -10 -63.5t-31 -68.5t-61.5 -70t-94.5 -60q-14 -7 -14 -23q0 -14 10 -24q109 -117 109 -224q0 -54 -21 -104t-64 -94.5t-120 -71.5t-178 -27q-134 0 -214.5 57t-80.5 134q0 44 22.5 73t73.5 29 q83 0 90 -102q3 -54 37 -78q39 -24 92 -24q85 0 130.5 40t45.5 105q0 29 -8 55t-32.5 64.5t-78.5 90t-137 116.5q-159 122 -219.5 204.5t-60.5 169.5zM242 696q0 -65 42.5 -123.5t166.5 -166.5q113 -95 116 -97q20 -16 39 -16q21 0 39 12q74 47 74 135q0 28 -7 51t-30.5 60 t-78.5 88t-142 115q-76 57 -86 63q-17 10 -27 10q-20 0 -35 -10q-31 -16 -51 -48.5t-20 -72.5z" />
<glyph unicode="&#xa8;" horiz-adv-x="593" d="M29 1245q0 48 30.5 78.5t73.5 30.5q45 0 75 -29.5t30 -79.5q0 -48 -30.5 -77t-76.5 -29q-45 0 -73.5 28.5t-28.5 77.5zM354 1245q0 48 32.5 78.5t76.5 30.5t72 -29.5t28 -79.5q0 -48 -29 -77t-73 -29q-47 0 -77 28.5t-30 77.5z" />
<glyph unicode="&#xa9;" horiz-adv-x="1648" d="M125 682q0 195 94.5 357t257 254.5t357.5 92.5q194 0 353.5 -90.5t251 -250.5t91.5 -355q0 -201 -92 -366.5t-251 -260t-351 -94.5q-150 0 -282.5 55t-226.5 150t-148 227t-54 281zM209 682q0 -177 82.5 -323t227 -230t319.5 -84q170 0 310 84.5t219 229t79 317.5 q0 178 -79 324t-220 230.5t-316 84.5t-318 -84.5t-223.5 -229.5t-80.5 -319zM410 672q0 88 30.5 166.5t87 138.5t143.5 95.5t193 35.5q123 0 232 -31q14 -5 24 -17.5t10 -27.5q0 -34 8.5 -98.5t8.5 -71.5q0 -11 -10 -18.5t-27 -7.5q-28 0 -35 24q-23 85 -45 115 q-17 21 -30 30.5t-49 18t-95 8.5q-127 0 -204 -89.5t-77 -256.5q0 -172 81.5 -267t207.5 -95q117 0 176 71q25 28 50 105q6 22 36 22q35 0 35 -26q0 -18 -10.5 -71.5t-22.5 -78.5q-16 -31 -51 -47q-96 -49 -219 -49q-111 0 -199 35.5t-141 96t-80.5 134.5t-27.5 156z" />
<glyph unicode="&#xaa;" horiz-adv-x="663" d="M51 709q0 78 55 110q61 36 220 66q32 5 42.5 13.5t10.5 35.5q0 66 -5 90t-18 39q-22 27 -73 27q-34 0 -63.5 -23t-29.5 -49q0 -12 2.5 -29.5t2.5 -25.5q0 -23 -16.5 -36.5t-41.5 -13.5q-27 0 -42 17t-15 43q0 41 49 90q39 37 103 68.5t116 31.5q95 0 133 -47 q29 -37 29 -123q0 -29 -2 -127.5t-2 -144.5q0 -80 43 -80q22 0 31 21q7 14 26 14q11 0 18 -6.5t7 -16.5q0 -24 -19 -43q-44 -47 -114 -47q-83 0 -107 64q-3 10 -10 10q-9 0 -19 -10q-61 -64 -141 -64q-84 0 -127 44.5t-43 101.5zM184 721q0 -32 22.5 -53t63.5 -21 q23 0 48.5 12.5t37.5 26.5q21 24 23 66q2 25 2 55q0 11 -6.5 17.5t-14.5 6.5q-10 0 -34 -4q-62 -14 -97 -32q-45 -25 -45 -74z" />
<glyph unicode="&#xab;" horiz-adv-x="970" d="M47 506q0 18 6.5 28.5t24.5 22.5q177 130 344 266q32 27 51 27q15 0 29 -12.5t14 -30.5q0 -13 -22 -41q-71 -84 -215 -240q-11 -11 -11 -16q0 -10 13 -23q151 -167 208 -239q23 -29 23 -43q0 -15 -12.5 -30t-30.5 -15q-20 0 -59 35q-82 70 -336 268q-27 19 -27 43z M438 506q0 17 6 27.5t25 23.5q137 100 344 266q32 27 49 27q16 0 30.5 -12.5t14.5 -30.5q0 -13 -22 -41q-67 -79 -215 -240q-11 -8 -11 -16q0 -9 11 -23q132 -142 211 -239q22 -27 22 -43q0 -15 -13.5 -30t-31.5 -15q-17 0 -57 35q-59 51 -118 98t-123.5 96.5t-94.5 73.5 q-27 22 -27 43z" />
<glyph unicode="&#xac;" horiz-adv-x="1314" d="M147 506v94q0 29 27 29h922q26 0 26 -29v-526q0 -27 -26 -27h-99q-28 0 -28 27v405h-795q-27 0 -27 27z" />
<glyph unicode="&#xad;" horiz-adv-x="569" d="M55 512q0 51 10.5 70.5t32.5 19.5h379q23 0 30 -17t7 -71q0 -55 -7.5 -71.5t-33.5 -16.5h-375q-25 0 -34 17.5t-9 68.5z" />
<glyph unicode="&#xae;" horiz-adv-x="1648" d="M125 682q0 195 94.5 357t257 254.5t357.5 92.5q194 0 353.5 -90.5t251 -250.5t91.5 -355q0 -201 -92 -366.5t-251 -260t-351 -94.5q-150 0 -282.5 55t-226.5 150t-148 227t-54 281zM209 682q0 -177 82.5 -323t227 -230t319.5 -84q170 0 310 84.5t219 229t79 317.5 q0 178 -79 324t-220 230.5t-316 84.5t-318 -84.5t-223.5 -229.5t-80.5 -319zM459 315q0 33 24 33q2 0 15 -1t16 -1q39 0 55 29q19 29 19 106v414q0 88 -19 115q-14 22 -53 22q-3 0 -15.5 -1t-15.5 -1q-12 0 -19 10t-7 25q0 39 30 39q4 0 31 -1t65.5 -2t71.5 -1q15 0 70 2 t82 2q163 0 240 -56t77 -155q0 -152 -186 -207q-14 -5 -14 -12q0 -9 12 -15q51 -19 96 -96q64 -115 99 -164q41 -59 75 -59q2 0 14 2t17 2q9 0 17 -9t8 -22q0 -30 -23 -37q-24 -8 -59 -8q-71 0 -113 18t-82 56q-38 38 -80 141q-45 104 -67 140q-15 26 -45 30q-16 2 -39 2 t-23 -30v-154q0 -83 21 -104q18 -21 59 -21q4 0 15.5 1t15.5 1q10 0 17 -9.5t7 -25.5q0 -14 -7 -25.5t-21 -11.5q-2 0 -32 2t-73.5 4.5t-77.5 2.5q-33 0 -74 -2.5t-69.5 -4.5t-30.5 -2q-24 0 -24 39zM733 784q0 -32 17 -43q13 -10 43 -10q88 0 128 39t40 115 q0 78 -41.5 113.5t-112.5 35.5q-32 0 -53 -8q-21 -6 -21 -37v-205z" />
<glyph unicode="&#xaf;" horiz-adv-x="595" d="M37 1186q0 38 10 53.5t31 15.5h434q25 0 36 -13.5t11 -51.5q0 -40 -10.5 -57t-32.5 -17h-436q-22 0 -32 13t-11 57z" />
<glyph unicode="&#xb0;" horiz-adv-x="575" d="M47 1141q0 104 72 171.5t170 67.5q100 0 168.5 -63.5t68.5 -173.5q0 -109 -70.5 -175.5t-166.5 -66.5q-105 0 -173.5 63.5t-68.5 176.5zM145 1141q0 -75 40 -115.5t106 -40.5q59 0 100 41.5t41 114.5t-37.5 114t-105.5 41q-62 0 -103 -41t-41 -114z" />
<glyph unicode="&#xb1;" horiz-adv-x="1314" d="M170 27v92q0 26 25 26h923q29 0 29 -26v-92q0 -27 -29 -27h-923q-25 0 -25 27zM170 719v94q0 27 25 27h385v391q0 26 28 26h99q26 0 26 -26v-391h385q29 0 29 -27v-94q0 -27 -29 -27h-385v-393q0 -25 -26 -25h-99q-26 0 -26 25v393h-387q-25 0 -25 27z" />
<glyph unicode="&#xb2;" horiz-adv-x="741" d="M33 850q0 22 24 39q154 101 239.5 182.5t117.5 152.5t32 160q0 71 -36.5 106.5t-94.5 35.5q-72 0 -112 -37q-31 -28 -43 -68q-11 -26 -39 -26q-17 0 -28 10t-11 25q0 9 12 45q11 22 29.5 43.5t50 44t80.5 36t108 13.5q132 0 196.5 -59t64.5 -169q0 -73 -37.5 -141 t-145.5 -158q-79 -69 -161 -118q-13 -8 -13 -13q0 -10 17 -10q59 -2 153 -2q72 0 104.5 8t42.5 23t17 53q6 25 35 25q12 0 21.5 -6t9.5 -17q0 -13 -4 -41q-12 -120 -13 -145q0 -25 -39 -25q-1 0 -36.5 1.5t-96.5 3t-125 1.5q-74 0 -140.5 -1.5t-106 -3t-46.5 -1.5 q-26 0 -26 33z" />
<glyph unicode="&#xb3;" horiz-adv-x="741" d="M82 842q0 21 10.5 38t30.5 17q17 0 45 -14q35 -13 65 -13q116 0 170 44t54 139q0 75 -36 117t-108 42q-52 0 -92 -12q-24 -8 -31 -8q-13 0 -20.5 12.5t-7.5 28.5q0 32 43 35q56 5 110 28q55 28 76 63t21 83q0 46 -28 72t-75 26q-59 0 -104 -41q-19 -19 -33 -47 q-7 -20 -37 -20q-33 0 -33 30q0 20 17 45q31 44 94 74.5t149 30.5q113 0 166.5 -43t53.5 -111q0 -122 -176 -178q-15 -5 -15 -10q0 -8 19 -8q114 -9 170.5 -59t56.5 -130q0 -131 -123 -208t-326 -77q-50 0 -78 15t-28 39z" />
<glyph unicode="&#xb4;" horiz-adv-x="600" d="M131 1108q0 18 14 39q131 217 154 260q32 59 82 59q40 0 64 -21.5t24 -53.5q0 -38 -33 -76q-53 -62 -217 -215q-29 -27 -51 -27q-16 0 -26.5 11t-10.5 24z" />
<glyph unicode="&#xb5;" horiz-adv-x="1249" d="M45 860q0 43 33 47q179 21 266 51q7 2 17.5 6.5t18 7.5t11.5 3q13 0 24 -10.5t11 -24.5q0 -3 -7 -56.5t-13.5 -145.5t-6.5 -189q0 -142 7.5 -208t27.5 -112q19 -44 64.5 -70t105.5 -26q148 0 197 62q14 18 18 53.5t4 138.5v201q0 90 -2 121.5t-12 54.5q-21 44 -111 51 q-26 3 -26 45q0 44 30 47q140 12 250 47q56 21 62 21q17 0 26 -10.5t9 -26.5q0 -2 -4.5 -42.5t-8.5 -117t-4 -164.5v-280q0 -124 33 -170q20 -23 55 -23q8 0 31 3t31 3q32 0 32 -49q0 -30 -24 -39q-7 -2 -38 -10t-62.5 -16.5t-55.5 -16.5q-37 -13 -73.5 -28t-54 -22 t-25.5 -7q-33 0 -41 33q-5 23 -11 82q-3 22 -22 22q-15 0 -43 -24q-110 -92 -219 -92q-80 0 -123 38q-15 15 -21 15q-14 0 -14 -19q0 -76 6 -170q7 -92 18.5 -156t19 -92.5t7.5 -44.5q0 -73 -125 -73q-118 0 -118 92q0 288 1 534.5t1 288.5q0 25 2 127t2 133q0 77 -15 111 q-19 43 -108 51q-33 3 -33 45z" />
<glyph unicode="&#xb6;" horiz-adv-x="1064" d="M109 715q0 228 144 364.5t421 153.5q30 0 43 33q23 51 49 84q50 53 125 53q30 0 46.5 -17.5t16.5 -46.5q0 -24 -13 -40t-34 -17q-37 -4 -59.5 -12t-38.5 -31q-25 -39 -25 -113v-981q0 -150 -20.5 -262t-79.5 -196q-58 -86 -156.5 -138.5t-197.5 -52.5q-33 0 -54.5 20.5 t-21.5 47.5q0 76 68 76q4 0 28.5 -7.5t44.5 -7.5q96 0 167.5 70t94.5 194q17 86 17 295q0 29 -8.5 41.5t-32.5 12.5q-4 0 -27 -1t-41 -1q-85 0 -165 30t-145.5 86.5t-105.5 151t-40 211.5z" />
<glyph unicode="&#xb7;" horiz-adv-x="479" d="M98 563q0 65 41 104.5t105 39.5q62 0 98.5 -38t36.5 -102q0 -63 -38.5 -106t-98.5 -43q-65 0 -104.5 38.5t-39.5 106.5z" />
<glyph unicode="&#xb8;" horiz-adv-x="583" d="M102 -483q0 45 60 45q73 2 119.5 31.5t46.5 87.5q0 70 -90 94q-31 12 -31 37q0 22 18 61q35 81 72 145h78q-51 -102 -51 -124q0 -18 22 -27q135 -42 135 -156q0 -56 -32 -103.5t-82 -76.5t-106.5 -45t-108.5 -16q-50 0 -50 47z" />
<glyph unicode="&#xb9;" horiz-adv-x="741" d="M176 854q0 13 8 23t21 10q3 0 16.5 -1t16.5 -1q23 0 40.5 9t22.5 21q12 19 12 109v309q0 103 -10 119q-11 16 -35 16q-15 0 -41 -2t-28 -2q-10 0 -16.5 9.5t-6.5 23.5q0 28 27 35q39 9 109 35.5t98 42.5q17 10 34 10q25 0 25 -25q0 -7 -1 -28t-1 -31q-4 -63 -4 -174v-336 q0 -96 16 -115q19 -26 64 -26q3 0 15.5 1t16.5 1q27 0 27 -35q0 -15 -9 -25t-22 -10q-4 0 -31 2t-67 4t-74 2q-33 0 -78 -2t-77.5 -4t-36.5 -2q-31 0 -31 37z" />
<glyph unicode="&#xba;" horiz-adv-x="727" d="M66 854q0 144 88 227.5t221 83.5q136 0 212.5 -80t76.5 -208q0 -136 -83 -226t-225 -90q-139 0 -214.5 82.5t-75.5 210.5zM213 872q0 -123 39.5 -187t114.5 -64q149 0 149 239q0 246 -149 246q-154 0 -154 -234z" />
<glyph unicode="&#xbb;" horiz-adv-x="970" d="M66 203q0 15 22 43q75 86 217 237q8 11 8 19q0 10 -10 22q-18 20 -66 72t-80.5 88.5t-64.5 77.5q-22 32 -22 45q0 15 13.5 29t31.5 14q20 0 59 -33q133 -115 334 -268q27 -22 27 -43q0 -31 -31 -53q-165 -121 -344 -267q-35 -26 -51 -26q-14 0 -28.5 13.5t-14.5 29.5z M457 203q0 15 22 43q54 61 215 237q11 11 11 19q0 6 -13 22q-16 18 -51 56.5l-55 60.5t-49 55.5t-54 65.5q-22 32 -22 45q0 15 12.5 29t30.5 14q20 0 59 -33q159 -134 336 -268q27 -22 27 -43q0 -31 -31 -53q-139 -100 -344 -267q-31 -26 -51 -26q-14 0 -28.5 13.5 t-14.5 29.5z" />
<glyph unicode="&#xbc;" horiz-adv-x="1642" d="M176 541q0 13 8 22.5t21 9.5q3 0 16.5 -1t16.5 -1q48 0 63 31q12 24 12 107v309q0 105 -10 121q-9 14 -35 14q-15 0 -41 -2t-28 -2q-10 0 -16.5 10t-6.5 23q0 30 27 37q58 13 207 77q22 11 34 11q10 0 17.5 -7t7.5 -18q0 -8 -1 -29t-1 -32q-4 -63 -4 -172v-336 q0 -91 16 -115q19 -27 66 -27q3 0 15 1t15 1q27 0 27 -34q0 -15 -8 -25t-23 -10q-3 0 -30.5 2t-67.5 4t-74 2q-32 0 -77 -2t-78 -4t-37 -2q-31 0 -31 37zM504 25q0 4 10 34l516 1182q15 37 62 37q38 0 38 -29q0 -10 -8 -30l-518 -1190q-13 -33 -51 -33q-24 0 -36.5 8.5 t-12.5 20.5zM860 233q0 33 14 50q75 90 200 248.5t194 240.5q23 29 63 29q53 0 53 -31q0 -10 -1 -51t-1 -60v-342q0 -9 4 -12.5t17 -3.5h80q16 0 23 -10t7 -39q0 -37 -6.5 -47t-25.5 -10h-80q-10 0 -13.5 -5t-3.5 -20v-164q0 -21 -14.5 -30t-58.5 -9q-49 0 -63.5 8.5 t-14.5 30.5v162q0 25 -25 25h-315q-33 0 -33 40zM989 307q0 -10 19 -10h196q19 0 24 4t5 16q0 80 1 178.5t1 102.5q0 16 -8 16q-3 0 -5 -2t-5 -6t-5 -6q-14 -19 -217 -281q-6 -6 -6 -12z" />
<glyph unicode="&#xbd;" horiz-adv-x="1642" d="M170 541q0 13 8 22.5t21 9.5q3 0 16 -1t16 -1q49 0 64 31q12 24 12 107v309q0 105 -10 121q-9 14 -35 14q-15 0 -41 -2t-28 -2q-10 0 -16.5 10t-6.5 23q0 30 27 37q56 12 206 77q22 11 35 11q10 0 17.5 -7t7.5 -18q0 -8 -1 -29t-1 -32q-4 -63 -4 -172v-336q0 -91 16 -115 q19 -27 66 -27q3 0 15 1t15 1q27 0 27 -34q0 -15 -8 -25t-23 -10q-3 0 -30.5 2t-67.5 4t-74 2q-32 0 -77 -2t-78 -4t-37 -2q-31 0 -31 37zM481 25q0 1 11 34l516 1182q15 37 61 37q39 0 39 -29q0 -10 -8 -30l-518 -1190q-13 -33 -52 -33q-24 0 -36.5 8.5t-12.5 20.5zM905 31 q0 21 25 39q154 101 239.5 182.5t117.5 152.5t32 160q0 71 -36.5 106.5t-94.5 35.5q-73 0 -113 -37q-31 -28 -43 -68q-12 -27 -39 -27q-17 0 -28 10t-11 25q0 6 13 45q26 52 91 95t177 43q260 0 260 -228q0 -74 -37 -142t-145 -157q-81 -71 -162 -119q-12 -7 -12 -12 q0 -10 16 -10q59 -2 154 -2q72 0 104.5 8t42.5 23t17 53q6 24 34 24q31 0 31 -22q0 -13 -4 -41q-10 -99 -12 -145q0 -25 -39 -25q-1 0 -36.5 1.5t-96.5 3t-125 1.5q-74 0 -140.5 -1.5t-106 -3t-46.5 -1.5q-14 0 -20.5 10t-6.5 23z" />
<glyph unicode="&#xbe;" horiz-adv-x="1642" d="M119 528q0 22 10.5 39t30.5 17q15 0 45 -15q32 -12 65 -12q116 0 170 43t54 137q0 76 -36 119t-108 43q-50 0 -90 -12q-24 -8 -33 -8q-13 0 -20.5 11.5t-7.5 29.5q0 31 43 34q53 4 110 29q55 28 76 62.5t21 82.5q0 46 -28 71.5t-75 25.5q-62 0 -104 -39q-19 -19 -33 -47 q-3 -9 -14 -15t-23 -6q-14 0 -23.5 8.5t-9.5 22.5q0 23 17 43q75 106 243 106q113 0 166 -42.5t53 -110.5q0 -122 -176 -178q-14 -5 -14 -11q0 -7 18 -10q115 -7 171.5 -56.5t56.5 -129.5q0 -131 -123 -208t-326 -77q-50 0 -78 14.5t-28 38.5zM524 25q0 1 11 34l516 1182 q15 37 61 37q39 0 39 -29q0 -10 -8 -30l-518 -1190q-13 -33 -52 -33q-24 0 -36.5 8.5t-12.5 20.5zM860 233q0 33 14 50q75 90 200 248.5t194 240.5q23 29 63 29q53 0 53 -31q0 -10 -1 -51t-1 -60v-342q0 -9 4 -12.5t17 -3.5h80q16 0 23 -10t7 -39q0 -37 -6.5 -47t-25.5 -10 h-80q-10 0 -13.5 -5t-3.5 -20v-164q0 -21 -14.5 -30t-58.5 -9q-49 0 -63.5 8.5t-14.5 30.5v162q0 25 -25 25h-315q-33 0 -33 40zM989 307q0 -10 19 -10h196q19 0 24 4t5 16q0 80 1 178.5t1 102.5q0 16 -8 16q-3 0 -5 -2t-5 -6t-5 -6q-14 -19 -217 -281q-6 -6 -6 -12z" />
<glyph unicode="&#xbf;" horiz-adv-x="956" d="M98 -145q0 104 52 179.5t194 168.5q8 5 32.5 20.5t33.5 21.5t29 20.5t28.5 22.5t22 22.5t19 26t10.5 26.5t5 30q0 19 -7 51t-7 48q0 17 16 26.5t41 9.5q34 0 45 -36q23 -71 23 -132q0 -75 -31 -126t-127 -132q-77 -64 -104 -124.5t-27 -133.5q0 -90 42 -137t114 -47 q157 0 157 135q0 8 -1 34t-1 34q0 43 30.5 65.5t78.5 22.5q47 0 74.5 -30.5t27.5 -90.5q0 -47 -23 -92t-69 -84t-124.5 -62.5t-178.5 -23.5q-183 0 -279 77t-96 210zM395 821q0 64 39 107t101 43q66 0 103.5 -38.5t37.5 -109.5q0 -65 -41 -103t-105 -38q-62 0 -98.5 37 t-36.5 102z" />
<glyph unicode="&#xc0;" horiz-adv-x="1505" d="M10 41q0 51 33 51q5 0 18 -1t21 -1q47 0 76 41q47 68 88 162q69 164 203.5 477.5t171.5 403.5q14 33 20 98q2 28 33 51q27 17 70 35t65 18q30 0 37 -33q2 -7 43 -118q35 -95 371 -932q47 -120 79 -164q29 -39 86 -39q6 0 17 1t16 1q35 0 35 -45q0 -49 -33 -49 q-4 0 -112.5 5t-159.5 5q-50 0 -176 -5t-127 -5q-39 0 -39 45q0 49 35 49q1 0 17 -1t20 -1q68 0 96 14.5t28 45.5q0 36 -43 145l-59 149q-15 39 -28.5 51.5t-43.5 12.5h-360q-25 0 -35 -10t-22 -39l-72 -164q-28 -75 -36.5 -102t-8.5 -50q0 -30 29 -41.5t96 -11.5q9 0 25 1 l16 1q16 0 25.5 -13.5t9.5 -31.5q0 -26 -8 -37.5t-31 -11.5q-2 0 -110.5 5t-158.5 5q-51 0 -114.5 -5t-67.5 -5q-15 0 -25 12t-10 31zM483 1700q0 35 26.5 58.5t57.5 23.5q42 0 82 -43q44 -44 138 -128.5t100 -90.5q26 -26 26 -41q0 -18 -11 -28.5t-25 -10.5q-23 0 -50 16 q-209 107 -290 164q-54 35 -54 80zM514 631q0 -18 14 -23.5t56 -5.5h225q34 0 46.5 7t12.5 24q0 15 -12 43l-139 362q-8 21 -19 21q-7 0 -11.5 -5.5t-10.5 -21.5l-148 -356q-14 -28 -14 -45z" />
<glyph unicode="&#xc1;" horiz-adv-x="1505" d="M10 41q0 51 33 51q5 0 18 -1t21 -1q47 0 76 41q47 68 88 162q69 164 203.5 477.5t171.5 403.5q14 33 20 98q2 28 33 51q27 17 70 35t65 18q30 0 37 -33q2 -7 43 -118q35 -95 371 -932q47 -120 79 -164q29 -39 86 -39q6 0 17 1t16 1q35 0 35 -45q0 -49 -33 -49 q-4 0 -112.5 5t-159.5 5q-50 0 -176 -5t-127 -5q-39 0 -39 45q0 49 35 49q1 0 17 -1t20 -1q68 0 96 14.5t28 45.5q0 36 -43 145l-59 149q-15 39 -28.5 51.5t-43.5 12.5h-360q-25 0 -35 -10t-22 -39l-72 -164q-28 -75 -36.5 -102t-8.5 -50q0 -30 29 -41.5t96 -11.5q9 0 25 1 l16 1q16 0 25.5 -13.5t9.5 -31.5q0 -26 -8 -37.5t-31 -11.5q-2 0 -110.5 5t-158.5 5q-51 0 -114.5 -5t-67.5 -5q-15 0 -25 12t-10 31zM514 631q0 -18 14 -23.5t56 -5.5h225q34 0 46.5 7t12.5 24q0 15 -12 43l-139 362q-8 21 -19 21q-7 0 -11.5 -5.5t-10.5 -21.5l-148 -356 q-14 -28 -14 -45zM561 1479q0 16 25 41q8 7 101.5 90.5t137.5 128.5q40 43 80 43q33 0 59.5 -23.5t26.5 -58.5q0 -46 -53 -80q-74 -50 -293 -164q-29 -16 -47 -16q-15 0 -26 10.5t-11 28.5z" />
<glyph unicode="&#xc2;" horiz-adv-x="1505" d="M10 41q0 51 33 51q5 0 18 -1t21 -1q47 0 76 41q47 68 88 162q69 164 203.5 477.5t171.5 403.5q14 33 20 98q2 28 33 51q27 17 70 35t65 18q30 0 37 -33q2 -7 43 -118q35 -95 371 -932q47 -120 79 -164q29 -39 86 -39q6 0 17 1t16 1q35 0 35 -45q0 -49 -33 -49 q-4 0 -112.5 5t-159.5 5q-50 0 -176 -5t-127 -5q-39 0 -39 45q0 49 35 49q1 0 17 -1t20 -1q68 0 96 14.5t28 45.5q0 36 -43 145l-59 149q-15 39 -28.5 51.5t-43.5 12.5h-360q-25 0 -35 -10t-22 -39l-72 -164q-28 -75 -36.5 -102t-8.5 -50q0 -30 29 -41.5t96 -11.5q9 0 25 1 l16 1q16 0 25.5 -13.5t9.5 -31.5q0 -26 -8 -37.5t-31 -11.5q-2 0 -110.5 5t-158.5 5q-51 0 -114.5 -5t-67.5 -5q-15 0 -25 12t-10 31zM449 1460q0 15 12 27q136 147 241 270q10 11 16.5 16.5t18.5 10t29 4.5q21 0 32 -6.5t23 -22.5q128 -154 236 -270q14 -17 14 -27 q0 -13 -12 -24t-27 -11q-20 0 -43 17q-105 71 -201 151q-18 13 -30 13q-9 0 -29 -15q-164 -122 -205 -149q-27 -17 -41 -17q-13 0 -23.5 11t-10.5 22zM514 631q0 -18 14 -23.5t56 -5.5h225q34 0 46.5 7t12.5 24q0 15 -12 43l-139 362q-8 21 -19 21q-7 0 -11.5 -5.5 t-10.5 -21.5l-148 -356q-14 -28 -14 -45z" />
<glyph unicode="&#xc3;" horiz-adv-x="1505" d="M10 41q0 51 33 51q5 0 18 -1t21 -1q47 0 76 41q47 68 88 162q69 164 203.5 477.5t171.5 403.5q14 33 20 98q2 28 33 51q27 17 70 35t65 18q30 0 37 -33q2 -7 43 -118q35 -95 371 -932q47 -120 79 -164q29 -39 86 -39q6 0 17 1t16 1q35 0 35 -45q0 -49 -33 -49 q-4 0 -112.5 5t-159.5 5q-50 0 -176 -5t-127 -5q-39 0 -39 45q0 49 35 49q1 0 17 -1t20 -1q68 0 96 14.5t28 45.5q0 36 -43 145l-59 149q-15 39 -28.5 51.5t-43.5 12.5h-360q-25 0 -35 -10t-22 -39l-72 -164q-28 -75 -36.5 -102t-8.5 -50q0 -30 29 -41.5t96 -11.5q9 0 25 1 l16 1q16 0 25.5 -13.5t9.5 -31.5q0 -26 -8 -37.5t-31 -11.5q-2 0 -110.5 5t-158.5 5q-51 0 -114.5 -5t-67.5 -5q-15 0 -25 12t-10 31zM436 1497q0 17 13 49q36 92 77 127t92 35q54 0 164 -55q84 -41 129 -41q54 0 76 78q9 28 43 28q39 0 39 -35q0 -14 -6 -38 q-24 -88 -63 -130t-101 -42q-68 0 -156 45q-89 43 -137 43q-30 0 -50.5 -15t-39.5 -59q-12 -23 -37 -23q-20 0 -31.5 9.5t-11.5 23.5zM514 631q0 -18 14 -23.5t56 -5.5h225q34 0 46.5 7t12.5 24q0 15 -12 43l-139 362q-8 21 -19 21q-7 0 -11.5 -5.5t-10.5 -21.5l-148 -356 q-14 -28 -14 -45z" />
<glyph unicode="&#xc4;" horiz-adv-x="1505" d="M10 41q0 51 33 51q5 0 18 -1t21 -1q47 0 76 41q47 68 88 162q69 164 203.5 477.5t171.5 403.5q14 33 20 98q2 28 33 51q27 17 70 35t65 18q30 0 37 -33q2 -7 43 -118q35 -95 371 -932q47 -120 79 -164q29 -39 86 -39q6 0 17 1t16 1q35 0 35 -45q0 -49 -33 -49 q-4 0 -112.5 5t-159.5 5q-50 0 -176 -5t-127 -5q-39 0 -39 45q0 49 35 49q1 0 17 -1t20 -1q68 0 96 14.5t28 45.5q0 36 -43 145l-59 149q-15 39 -28.5 51.5t-43.5 12.5h-360q-25 0 -35 -10t-22 -39l-72 -164q-28 -75 -36.5 -102t-8.5 -50q0 -30 29 -41.5t96 -11.5q9 0 25 1 l16 1q16 0 25.5 -13.5t9.5 -31.5q0 -26 -8 -37.5t-31 -11.5q-2 0 -110.5 5t-158.5 5q-51 0 -114.5 -5t-67.5 -5q-15 0 -25 12t-10 31zM479 1561q0 48 31 78t74 30q45 0 74.5 -29t29.5 -79q0 -49 -30.5 -79t-75.5 -30q-44 0 -73.5 29.5t-29.5 79.5zM514 631q0 -18 14 -23.5 t56 -5.5h225q34 0 46.5 7t12.5 24q0 15 -12 43l-139 362q-8 21 -19 21q-7 0 -11.5 -5.5t-10.5 -21.5l-148 -356q-14 -28 -14 -45zM827 1561q0 48 31.5 78t75.5 30t73 -29t29 -79q0 -49 -29.5 -79t-74.5 -30q-47 0 -76 29.5t-29 79.5z" />
<glyph unicode="&#xc5;" horiz-adv-x="1505" d="M10 41q0 51 33 51q5 0 18 -1t21 -1q47 0 76 41q47 68 88 162q69 164 203.5 477.5t171.5 403.5q14 33 20 98q2 28 33 51q27 17 70 35t65 18q30 0 37 -33q2 -7 43 -118q35 -95 371 -932q47 -120 79 -164q29 -39 86 -39q6 0 17 1t16 1q35 0 35 -45q0 -49 -33 -49 q-4 0 -112.5 5t-159.5 5q-50 0 -176 -5t-127 -5q-39 0 -39 45q0 49 35 49q1 0 17 -1t20 -1q68 0 96 14.5t28 45.5q0 36 -43 145l-59 149q-15 39 -28.5 51.5t-43.5 12.5h-360q-25 0 -35 -10t-22 -39l-72 -164q-28 -75 -36.5 -102t-8.5 -50q0 -30 29 -41.5t96 -11.5q9 0 25 1 l16 1q16 0 25.5 -13.5t9.5 -31.5q0 -26 -8 -37.5t-31 -11.5q-2 0 -110.5 5t-158.5 5q-51 0 -114.5 -5t-67.5 -5q-15 0 -25 12t-10 31zM514 631q0 -18 14 -23.5t56 -5.5h225q34 0 46.5 7t12.5 24q0 15 -12 43l-139 362q-8 21 -19 21q-7 0 -11.5 -5.5t-10.5 -21.5l-148 -356 q-14 -28 -14 -45zM561 1608q0 82 56.5 137t136.5 55q88 0 139 -49.5t51 -134.5q0 -87 -54 -140t-138 -53q-88 0 -139.5 51t-51.5 134zM649 1610q0 -49 29.5 -80t73.5 -31q45 0 75.5 30.5t30.5 80.5q0 55 -29.5 85.5t-76.5 30.5q-43 0 -73 -31.5t-30 -84.5z" />
<glyph unicode="&#xc6;" horiz-adv-x="2064" d="M0 43q0 49 41 49q5 0 18 -1t21 -1q59 0 98 39q56 57 139 172q443 617 609 889q12 21 12 41q0 9 -8 16.5t-19 9.5q-43 7 -90 7q-5 0 -24 -1t-27 -1q-19 0 -28 13.5t-9 31.5q0 21 10.5 36t30.5 15q7 0 93 -3t192 -6t162 -3q169 0 375.5 4t256.5 4q33 0 33 -37 q6 -252 6 -262q0 -31 -43 -31q-39 0 -43 31q-7 113 -47 153q-26 27 -76 35t-145 8q-135 0 -184 -6q-20 -2 -28.5 -13.5t-8.5 -39.5v-393q0 -31 18 -39t64 -8q101 0 153 18q29 11 45.5 41.5t28.5 99.5q8 35 49 35q16 0 27.5 -9.5t11.5 -25.5l-6 -85q-6 -85 -6 -138 q0 -40 3 -102.5t3 -77.5q0 -35 -43 -35q-39 0 -43 29q-11 110 -55 137q-35 23 -181 23q-41 0 -55 -10.5t-14 -39.5v-344q0 -76 14 -104q22 -37 76 -48.5t180 -11.5q165 0 217 39q65 49 107 183q7 24 43 24q45 0 45 -35q0 -19 -21 -112.5t-36 -145.5q-18 -59 -68 -59 q-90 0 -239.5 4t-288.5 4q-55 0 -154 -2t-178 -4t-86 -2q-14 0 -23.5 10.5t-9.5 32.5q0 51 35 51q4 0 18 -1t19 -1q74 0 96 39q20 38 20 178v154q0 39 -9.5 51t-39.5 12h-370q-26 0 -42.5 -10.5t-35.5 -38.5l-111 -170q-51 -76 -70.5 -112.5t-19.5 -59.5q0 -22 16.5 -32.5 t65.5 -10.5q8 0 28.5 1t28.5 1q18 0 25.5 -11t7.5 -38q0 -45 -37 -45q-2 0 -115 4t-163 4q-48 0 -122.5 -4t-78.5 -4q-41 0 -41 45zM713 643q0 -12 12 -17t45 -5h238q34 0 47.5 5.5t19.5 22.5q6 15 6 45v473q0 21 -14 21q-11 0 -27 -27l-292 -446q-35 -50 -35 -72z" />
<glyph unicode="&#xc7;" horiz-adv-x="1421" d="M90 659q0 155 50 287t143 228t232.5 150t311.5 54q68 0 134 -7t98 -13t89 -19.5t64 -15.5q23 -5 38 -20.5t16 -38.5q2 -55 14 -148.5t12 -107.5q0 -43 -57 -43q-40 0 -47 28q-24 128 -76 189q-26 30 -55.5 49t-93 34t-154.5 15q-208 0 -331.5 -151.5t-123.5 -446.5 q0 -127 26 -233t79.5 -191.5t145 -133.5t214.5 -48q197 0 301 112q49 54 99 179q10 30 45 30q53 0 53 -37q0 -30 -20 -115.5t-40 -123.5q-22 -42 -71 -66q-164 -82 -385 -82q-32 0 -43 -26q-19 -49 -19 -58q0 -18 25 -26q139 -46 139 -162q0 -58 -33.5 -107.5t-85.5 -79.5 t-110 -46.5t-111 -16.5q-49 0 -49 49q0 47 59 47q74 2 123 32.5t49 88.5q0 73 -94 101q-33 11 -33 36q0 22 19 64q4 8 17 35t20 45q4 8 4 16q0 17 -25 21q-183 28 -311.5 124t-190 236t-61.5 313z" />
<glyph unicode="&#xc8;" horiz-adv-x="1216" d="M47 45q0 21 8.5 34t22.5 13q4 0 22 -1t23 -1q69 0 92 41q18 34 18 174v754q0 135 -20 168q-23 37 -94 37q-5 0 -21 -1t-18 -1q-33 0 -33 45q0 25 10 37t25 12q7 0 77 -2.5t160 -5t146 -2.5q169 0 329 4t210 4q36 0 36 -47q1 -36 2.5 -96t3 -102.5t1.5 -47.5 q0 -37 -46 -37q-41 0 -45 35q-5 59 -15 93t-34 58q-26 27 -70.5 34t-140.5 7q-139 0 -190 -4q-20 -2 -28.5 -13.5t-8.5 -39.5v-393q0 -31 16.5 -40t59.5 -9q95 0 160 18q28 11 44.5 42t26.5 101q6 33 47 33q43 0 43 -35l-6 -81q-6 -81 -6 -134q0 -40 3 -108.5t3 -83.5 q0 -31 -41 -31q-43 0 -47 31q-9 108 -59 139q-34 19 -174 19q-41 0 -55.5 -10.5t-14.5 -39.5v-344q0 -85 16 -108q26 -34 75.5 -45t170.5 -11q165 0 221 37q63 42 109 181q8 28 37 28q55 0 55 -35q0 -20 -21 -113t-36 -141q-22 -63 -64 -63q-90 0 -271.5 5t-320.5 5 q-55 0 -139.5 -2.5t-149 -5t-71.5 -2.5q-33 0 -33 47zM317 1700q0 35 26.5 58.5t57.5 23.5q42 0 82 -43q44 -44 138 -128.5t100 -90.5q27 -27 27 -41q0 -18 -11 -28.5t-26 -10.5q-22 0 -49 16q-213 109 -291 164q-54 35 -54 80z" />
<glyph unicode="&#xc9;" horiz-adv-x="1216" d="M47 45q0 21 8.5 34t22.5 13q4 0 22 -1t23 -1q69 0 92 41q18 34 18 174v754q0 135 -20 168q-23 37 -94 37q-5 0 -21 -1t-18 -1q-33 0 -33 45q0 25 10 37t25 12q7 0 77 -2.5t160 -5t146 -2.5q169 0 329 4t210 4q36 0 36 -47q1 -36 2.5 -96t3 -102.5t1.5 -47.5 q0 -37 -46 -37q-41 0 -45 35q-5 59 -15 93t-34 58q-26 27 -70.5 34t-140.5 7q-139 0 -190 -4q-20 -2 -28.5 -13.5t-8.5 -39.5v-393q0 -31 16.5 -40t59.5 -9q95 0 160 18q28 11 44.5 42t26.5 101q6 33 47 33q43 0 43 -35l-6 -81q-6 -81 -6 -134q0 -40 3 -108.5t3 -83.5 q0 -31 -41 -31q-43 0 -47 31q-9 108 -59 139q-34 19 -174 19q-41 0 -55.5 -10.5t-14.5 -39.5v-344q0 -85 16 -108q26 -34 75.5 -45t170.5 -11q165 0 221 37q63 42 109 181q8 28 37 28q55 0 55 -35q0 -20 -21 -113t-36 -141q-22 -63 -64 -63q-90 0 -271.5 5t-320.5 5 q-55 0 -139.5 -2.5t-149 -5t-71.5 -2.5q-33 0 -33 47zM457 1479q0 17 24 41q11 10 103.5 92t136.5 127q40 43 80 43q33 0 59.5 -23.5t26.5 -58.5q0 -46 -53 -80q-74 -50 -293 -164q-29 -16 -47 -16q-15 0 -26 10.5t-11 28.5z" />
<glyph unicode="&#xca;" horiz-adv-x="1216" d="M47 45q0 21 8.5 34t22.5 13q4 0 22 -1t23 -1q69 0 92 41q18 34 18 174v754q0 135 -20 168q-23 37 -94 37q-5 0 -21 -1t-18 -1q-33 0 -33 45q0 25 10 37t25 12q7 0 77 -2.5t160 -5t146 -2.5q169 0 329 4t210 4q36 0 36 -47q1 -36 2.5 -96t3 -102.5t1.5 -47.5 q0 -37 -46 -37q-41 0 -45 35q-5 59 -15 93t-34 58q-26 27 -70.5 34t-140.5 7q-139 0 -190 -4q-20 -2 -28.5 -13.5t-8.5 -39.5v-393q0 -31 16.5 -40t59.5 -9q95 0 160 18q28 11 44.5 42t26.5 101q6 33 47 33q43 0 43 -35l-6 -81q-6 -81 -6 -134q0 -40 3 -108.5t3 -83.5 q0 -31 -41 -31q-43 0 -47 31q-9 108 -59 139q-34 19 -174 19q-41 0 -55.5 -10.5t-14.5 -39.5v-344q0 -85 16 -108q26 -34 75.5 -45t170.5 -11q165 0 221 37q63 42 109 181q8 28 37 28q55 0 55 -35q0 -20 -21 -113t-36 -141q-22 -63 -64 -63q-90 0 -271.5 5t-320.5 5 q-55 0 -139.5 -2.5t-149 -5t-71.5 -2.5q-33 0 -33 47zM281 1460q0 15 12 27q149 162 242 270q10 11 16 16.5t18 10t29 4.5q21 0 32 -6.5t23 -22.5q128 -154 236 -270q14 -17 14 -27q0 -13 -12 -24t-27 -11q-20 0 -43 17q-100 67 -200 151q-18 13 -31 13q-9 0 -29 -15 q-164 -122 -205 -149q-27 -17 -41 -17q-13 0 -23.5 11t-10.5 22z" />
<glyph unicode="&#xcb;" horiz-adv-x="1216" d="M47 45q0 21 8.5 34t22.5 13q4 0 22 -1t23 -1q69 0 92 41q18 34 18 174v754q0 135 -20 168q-23 37 -94 37q-5 0 -21 -1t-18 -1q-33 0 -33 45q0 25 10 37t25 12q7 0 77 -2.5t160 -5t146 -2.5q169 0 329 4t210 4q36 0 36 -47q1 -36 2.5 -96t3 -102.5t1.5 -47.5 q0 -37 -46 -37q-41 0 -45 35q-5 59 -15 93t-34 58q-26 27 -70.5 34t-140.5 7q-139 0 -190 -4q-20 -2 -28.5 -13.5t-8.5 -39.5v-393q0 -31 16.5 -40t59.5 -9q95 0 160 18q28 11 44.5 42t26.5 101q6 33 47 33q43 0 43 -35l-6 -81q-6 -81 -6 -134q0 -40 3 -108.5t3 -83.5 q0 -31 -41 -31q-43 0 -47 31q-9 108 -59 139q-34 19 -174 19q-41 0 -55.5 -10.5t-14.5 -39.5v-344q0 -85 16 -108q26 -34 75.5 -45t170.5 -11q165 0 221 37q63 42 109 181q8 28 37 28q55 0 55 -35q0 -20 -21 -113t-36 -141q-22 -63 -64 -63q-90 0 -271.5 5t-320.5 5 q-55 0 -139.5 -2.5t-149 -5t-71.5 -2.5q-33 0 -33 47zM313 1561q0 48 31 78t74 30q45 0 74.5 -29t29.5 -79q0 -49 -30.5 -79t-75.5 -30q-44 0 -73.5 29.5t-29.5 79.5zM662 1561q0 48 31 78t75 30t73 -29t29 -79q0 -49 -29.5 -79t-74.5 -30q-46 0 -75 29.5t-29 79.5z" />
<glyph unicode="&#xcc;" horiz-adv-x="708" d="M49 47q0 19 8.5 32t20.5 13q5 0 20.5 -1t20.5 -1q79 0 98 39q19 43 19 184v727q0 146 -19 185t-94 39q-5 0 -22.5 -1t-22.5 -1q-29 0 -29 45q0 49 37 49q7 0 50.5 -3t106.5 -6.5t117 -3.5q55 0 117 3.5t102.5 6.5t45.5 3q22 0 29.5 -11t7.5 -34q0 -49 -33 -49 q-4 0 -17.5 1t-17.5 1q-72 0 -94 -35q-27 -34 -27 -193v-721q0 -151 27 -190q20 -35 94 -35q4 0 17.5 1t17.5 1q33 0 33 -45q0 -49 -33 -49q-5 0 -48.5 3t-107.5 6t-119 3q-54 0 -117 -3t-106.5 -6t-48.5 -3q-33 0 -33 49zM68 1700q0 35 26.5 58.5t57.5 23.5q41 0 81 -43 q44 -44 138 -128.5t100 -90.5q27 -27 27 -41q0 -18 -11 -28.5t-26 -10.5q-22 0 -49 16q-213 109 -291 164q-53 34 -53 80z" />
<glyph unicode="&#xcd;" horiz-adv-x="708" d="M49 47q0 19 8.5 32t20.5 13q5 0 20.5 -1t20.5 -1q79 0 98 39q19 43 19 184v727q0 146 -19 185t-94 39q-5 0 -22.5 -1t-22.5 -1q-29 0 -29 45q0 49 37 49q7 0 50.5 -3t106.5 -6.5t117 -3.5q55 0 117 3.5t102.5 6.5t45.5 3q22 0 29.5 -11t7.5 -34q0 -49 -33 -49 q-4 0 -17.5 1t-17.5 1q-72 0 -94 -35q-27 -34 -27 -193v-721q0 -151 27 -190q20 -35 94 -35q4 0 17.5 1t17.5 1q33 0 33 -45q0 -49 -33 -49q-5 0 -48.5 3t-107.5 6t-119 3q-54 0 -117 -3t-106.5 -6t-48.5 -3q-33 0 -33 49zM199 1479q0 17 24 41q11 10 103.5 92t136.5 127 q40 43 80 43q33 0 59.5 -23.5t26.5 -58.5q0 -45 -54 -80q-77 -53 -292 -164q-29 -16 -47 -16q-15 0 -26 10.5t-11 28.5z" />
<glyph unicode="&#xce;" horiz-adv-x="708" d="M37 1460q0 15 12 27q149 162 242 270q10 11 16 16.5t18 10t29 4.5q21 0 32.5 -6.5t23.5 -22.5q136 -164 235 -270q14 -17 14 -27q0 -14 -11.5 -24.5t-26.5 -10.5q-20 0 -43 17q-105 71 -201 151q-18 13 -31 13q-9 0 -29 -15q-172 -128 -204 -149q-27 -17 -41 -17 q-13 0 -24 11t-11 22zM49 47q0 19 8.5 32t20.5 13q5 0 20.5 -1t20.5 -1q79 0 98 39q19 43 19 184v727q0 146 -19 185t-94 39q-5 0 -22.5 -1t-22.5 -1q-29 0 -29 45q0 49 37 49q7 0 50.5 -3t106.5 -6.5t117 -3.5q55 0 117 3.5t102.5 6.5t45.5 3q22 0 29.5 -11t7.5 -34 q0 -49 -33 -49q-4 0 -17.5 1t-17.5 1q-72 0 -94 -35q-27 -34 -27 -193v-721q0 -151 27 -190q20 -35 94 -35q4 0 17.5 1t17.5 1q33 0 33 -45q0 -49 -33 -49q-5 0 -48.5 3t-107.5 6t-119 3q-54 0 -117 -3t-106.5 -6t-48.5 -3q-33 0 -33 49z" />
<glyph unicode="&#xcf;" horiz-adv-x="708" d="M49 47q0 19 8.5 32t20.5 13q5 0 20.5 -1t20.5 -1q79 0 98 39q19 43 19 184v727q0 146 -19 185t-94 39q-5 0 -22.5 -1t-22.5 -1q-29 0 -29 45q0 49 37 49q7 0 50.5 -3t106.5 -6.5t117 -3.5q55 0 117 3.5t102.5 6.5t45.5 3q22 0 29.5 -11t7.5 -34q0 -49 -33 -49 q-4 0 -17.5 1t-17.5 1q-72 0 -94 -35q-27 -34 -27 -193v-721q0 -151 27 -190q20 -35 94 -35q4 0 17.5 1t17.5 1q33 0 33 -45q0 -49 -33 -49q-5 0 -48.5 3t-107.5 6t-119 3q-54 0 -117 -3t-106.5 -6t-48.5 -3q-33 0 -33 49zM63 1561q0 48 31 78t74 30q45 0 74.5 -29t29.5 -79 q0 -49 -30.5 -79t-75.5 -30q-44 0 -73.5 29.5t-29.5 79.5zM412 1561q0 48 31 78t75 30t73.5 -29t29.5 -79q0 -49 -30 -79t-75 -30q-46 0 -75 29.5t-29 79.5z" />
<glyph unicode="&#xd0;" horiz-adv-x="1523" d="M20 721q0 51 43 51h140q30 0 30 31v231q0 155 -18 187q-24 43 -94 43q-5 0 -22 -1t-21 -1q-31 0 -31 49q0 19 9 32t24 13q7 0 50.5 -2.5t107 -5t118.5 -2.5q42 0 122.5 3t117.5 3q347 0 520 -80q155 -71 236.5 -219t81.5 -346q0 -184 -57.5 -322t-163.5 -221.5 t-247 -124.5t-317 -41q-68 0 -167 5t-126 5q-55 0 -116.5 -2.5t-103 -5t-48.5 -2.5q-41 0 -41 45q0 23 9.5 36t23.5 13q2 0 13.5 -1t17.5 -1q44 0 67 9.5t35 31.5q20 45 20 174v332q0 31 -30 31h-140q-24 0 -33.5 11.5t-9.5 41.5zM471 311q0 -132 31 -166q20 -23 63.5 -33 t126.5 -10q106 0 192 33t151 100.5t100.5 177.5t35.5 255q0 139 -42 263.5t-113 192.5q-78 72 -175.5 98.5t-246.5 26.5q-84 0 -105 -24q-18 -18 -18 -101v-321q0 -31 31 -31h299q23 0 32 -10.5t9 -38.5q0 -30 -9.5 -42.5t-35.5 -12.5h-295q-31 0 -31 -31v-326z" />
<glyph unicode="&#xd1;" horiz-adv-x="1587" d="M39 1309q0 45 41 45q7 0 81 -4t101 -4q30 0 98 4t78 4q18 0 30 -10.5t26 -30.5q195 -250 346 -428q239 -284 364 -430q15 -19 25 -19q12 0 12 17q2 88 2 221q0 175 -8 360q-6 156 -23 189q-21 41 -102 41q-6 0 -27 -1t-24 -1q-39 0 -39 45q0 49 41 49q3 0 36 -3 t89.5 -6.5t116.5 -3.5q47 0 95.5 3.5t80.5 6.5t37 3q23 0 31.5 -10.5t8.5 -34.5q0 -49 -32 -49q-5 0 -24 1t-25 1q-68 0 -91 -33q-30 -37 -30 -197q0 -27 -1 -140.5t-1 -209.5q0 -142 1 -259.5t3 -187t4 -117.5t3 -72.5t1 -29.5q0 -45 -57 -45q-39 0 -58 29q-37 54 -143 186 q-219 265 -713 856q-13 13 -22 13q-15 0 -15 -23q0 -62 -1 -175t-1 -175q0 -176 6 -379q2 -142 33 -180q24 -35 105 -35q2 0 20 1t25 1q37 0 37 -49q0 -45 -37 -45q-7 0 -38 2.5t-82 5t-106 2.5q-56 0 -111 -2.5t-89 -5t-39 -2.5q-37 0 -37 49q0 19 10 32t25 13q4 0 18 -1 t19 -1q83 0 104 41q21 39 23 174q8 418 8 735q0 149 -29 185q-32 39 -108 39q-5 0 -21 -1t-20 -1q-12 0 -21.5 12t-9.5 35zM516 1497q0 19 12 49q36 92 77.5 127t92.5 35q54 0 164 -55q84 -41 129 -41q54 0 76 78q9 28 43 28q39 0 39 -35q0 -14 -6 -38q-24 -88 -63 -130 t-101 -42q-68 0 -156 45q-89 43 -137 43q-30 0 -50.5 -15t-39.5 -59q-12 -23 -37 -23q-20 0 -31.5 9.5t-11.5 23.5z" />
<glyph unicode="&#xd2;" horiz-adv-x="1554" d="M90 655q0 207 87 371t249 258t371 94q311 0 489 -185t178 -495q0 -158 -44.5 -290t-129 -229t-215.5 -151.5t-297 -54.5q-205 0 -362 85.5t-241.5 240.5t-84.5 356zM354 674q0 -149 33.5 -265t93 -188.5t138 -109.5t172.5 -37q192 0 301.5 146t109.5 442 q0 300 -117.5 459t-306.5 159q-193 0 -308.5 -154t-115.5 -452zM545 1700q0 35 26.5 58.5t57.5 23.5q42 0 82 -43q33 -33 75 -72t91 -82.5t71 -64.5q27 -27 27 -41q0 -18 -11 -28.5t-26 -10.5q-22 0 -49 16q-213 109 -291 164q-53 34 -53 80z" />
<glyph unicode="&#xd3;" horiz-adv-x="1554" d="M90 655q0 207 87 371t249 258t371 94q311 0 489 -185t178 -495q0 -158 -44.5 -290t-129 -229t-215.5 -151.5t-297 -54.5q-205 0 -362 85.5t-241.5 240.5t-84.5 356zM354 674q0 -149 33.5 -265t93 -188.5t138 -109.5t172.5 -37q192 0 301.5 146t109.5 442 q0 300 -117.5 459t-306.5 159q-193 0 -308.5 -154t-115.5 -452zM610 1479q0 16 25 41q8 7 101.5 90.5t137.5 128.5q40 43 80 43q33 0 59.5 -23.5t26.5 -58.5q0 -46 -53 -80q-74 -50 -293 -164q-29 -16 -47 -16q-15 0 -26 10.5t-11 28.5z" />
<glyph unicode="&#xd4;" horiz-adv-x="1554" d="M90 655q0 207 87 371t249 258t371 94q311 0 489 -185t178 -495q0 -158 -44.5 -290t-129 -229t-215.5 -151.5t-297 -54.5q-205 0 -362 85.5t-241.5 240.5t-84.5 356zM354 674q0 -149 33.5 -265t93 -188.5t138 -109.5t172.5 -37q192 0 301.5 146t109.5 442 q0 300 -117.5 459t-306.5 159q-193 0 -308.5 -154t-115.5 -452zM459 1460q0 15 12 27q149 162 242 270q10 11 16 16.5t18 10t29 4.5q21 0 32 -6.5t23 -22.5q128 -154 236 -270q14 -17 14 -27q0 -13 -12 -24t-27 -11q-20 0 -43 17q-100 67 -200 151q-18 13 -31 13 q-9 0 -29 -15q-172 -128 -204 -149q-27 -17 -41 -17q-13 0 -24 11t-11 22z" />
<glyph unicode="&#xd5;" horiz-adv-x="1554" d="M90 655q0 207 87 371t249 258t371 94q311 0 489 -185t178 -495q0 -158 -44.5 -290t-129 -229t-215.5 -151.5t-297 -54.5q-205 0 -362 85.5t-241.5 240.5t-84.5 356zM354 674q0 -149 33.5 -265t93 -188.5t138 -109.5t172.5 -37q192 0 301.5 146t109.5 442 q0 300 -117.5 459t-306.5 159q-193 0 -308.5 -154t-115.5 -452zM457 1497q0 19 12 49q36 92 77.5 127t92.5 35q54 0 164 -55q84 -41 129 -41q54 0 76 78q9 28 43 28q39 0 39 -35q0 -10 -7 -38q-24 -88 -62.5 -130t-100.5 -42q-68 0 -156 45q-89 43 -137 43q-30 0 -50.5 -15 t-39.5 -59q-11 -23 -37 -23q-20 0 -31.5 9.5t-11.5 23.5z" />
<glyph unicode="&#xd6;" horiz-adv-x="1554" d="M90 655q0 207 87 371t249 258t371 94q311 0 489 -185t178 -495q0 -158 -44.5 -290t-129 -229t-215.5 -151.5t-297 -54.5q-205 0 -362 85.5t-241.5 240.5t-84.5 356zM354 674q0 -149 33.5 -265t93 -188.5t138 -109.5t172.5 -37q192 0 301.5 146t109.5 442 q0 300 -117.5 459t-306.5 159q-193 0 -308.5 -154t-115.5 -452zM500 1561q0 48 30.5 78t73.5 30q46 0 75.5 -29t29.5 -79q0 -48 -31 -78.5t-76 -30.5q-44 0 -73 29.5t-29 79.5zM848 1561q0 48 31 78t75 30t73.5 -29t29.5 -79q0 -49 -30 -79t-75 -30q-46 0 -75 29.5t-29 79.5 z" />
<glyph unicode="&#xd7;" horiz-adv-x="1314" d="M256 850q0 8 12 20l72 74q10 10 18 10t21 -10l287 -285l280 285q8 8 21 8q7 0 18 -8l64 -63q8 -12 8 -17q0 -12 -10 -22l-281 -285l283 -287q10 -10 10 -16t-8 -18l-74 -76q-8 -10 -21 -10q-10 0 -20 10l-281 284l-282 -286q-8 -8 -19 -8q-10 0 -20 10l-64 63 q-10 10 -10 21q0 8 10 18l285 283l-289 286q-10 10 -10 19z" />
<glyph unicode="&#xd8;" horiz-adv-x="1554" d="M90 655q0 207 87 371t249 258t371 94t372 -94q8 -4 15 -4q13 0 22 12l107 127q14 17 30 17q18 0 38.5 -16.5t21.5 -35.5q0 -12 -14 -32l-101 -123q-8 -8 -8 -19q0 -12 8 -20q176 -185 176 -492q0 -158 -44.5 -290t-129 -229t-215.5 -151.5t-297 -54.5q-238 0 -407 113 q-12 4 -19 4q-12 0 -22 -10l-107 -129q-14 -17 -33 -17q-15 0 -36 19.5t-21 34.5q0 16 12 28l109 131q8 8 8 21q0 10 -8 18q-164 191 -164 469zM354 674q0 -173 45 -303q6 -15 17 -15q12 0 20 11l623 745q6 9 6 21q0 11 -6 20q-112 127 -281 127q-193 0 -308.5 -154 t-115.5 -452zM473 240q0 -14 8 -19q117 -147 310 -147q192 0 301.5 146t109.5 442q0 206 -57 348q-7 14 -19 14q-11 0 -20 -12l-625 -750q-8 -11 -8 -22z" />
<glyph unicode="&#xd9;" horiz-adv-x="1552" d="M27 1309q0 47 43 47q5 0 46.5 -3t104 -6.5t119.5 -3.5q56 0 114.5 3.5t96.5 6.5t43 3q37 0 37 -43q0 -51 -33 -51q-3 0 -16 1t-17 1q-67 0 -88 -27q-16 -20 -23.5 -60.5t-7.5 -134.5q0 -382 5 -577q3 -85 21.5 -150.5t49 -107.5t74 -68.5t93 -37.5t110.5 -11 q123 0 203 30t125.5 96.5t63 157t17.5 226.5q0 298 -4 442q-3 84 -8 122t-16 57q-24 39 -99 39q-4 0 -23.5 -1.5t-23.5 -1.5q-30 0 -30 50q0 49 36 49q8 0 95.5 -6.5t142.5 -6.5t124.5 6.5t70.5 6.5q26 0 35.5 -11t9.5 -34q0 -49 -37 -49q-5 0 -22 1t-21 1q-49 -2 -78 -35 q-33 -37 -33 -185q0 -38 1 -256.5t1 -281.5q0 -535 -551 -535q-307 0 -440 126t-133 384q0 45 2 225t2 341q0 142 -21 180q-19 37 -90 37q-5 0 -21 -1t-20 -1q-30 0 -30 47zM532 1700q0 35 26.5 58.5t57.5 23.5q42 0 82 -43q44 -44 138 -128.5t100 -90.5q27 -27 27 -41 q0 -18 -11 -28.5t-26 -10.5q-22 0 -49 16q-213 109 -291 164q-54 35 -54 80z" />
<glyph unicode="&#xda;" horiz-adv-x="1552" d="M27 1309q0 47 43 47q5 0 46.5 -3t104 -6.5t119.5 -3.5q56 0 114.5 3.5t96.5 6.5t43 3q37 0 37 -43q0 -51 -33 -51q-3 0 -16 1t-17 1q-67 0 -88 -27q-16 -20 -23.5 -60.5t-7.5 -134.5q0 -382 5 -577q3 -85 21.5 -150.5t49 -107.5t74 -68.5t93 -37.5t110.5 -11 q123 0 203 30t125.5 96.5t63 157t17.5 226.5q0 298 -4 442q-3 84 -8 122t-16 57q-24 39 -99 39q-4 0 -23.5 -1.5t-23.5 -1.5q-30 0 -30 50q0 49 36 49q8 0 95.5 -6.5t142.5 -6.5t124.5 6.5t70.5 6.5q26 0 35.5 -11t9.5 -34q0 -49 -37 -49q-5 0 -22 1t-21 1q-49 -2 -78 -35 q-33 -37 -33 -185q0 -38 1 -256.5t1 -281.5q0 -535 -551 -535q-307 0 -440 126t-133 384q0 45 2 225t2 341q0 142 -21 180q-19 37 -90 37q-5 0 -21 -1t-20 -1q-30 0 -30 47zM641 1479q0 16 25 41q8 7 101.5 90.5t137.5 128.5q40 43 80 43q33 0 59.5 -23.5t26.5 -58.5 q0 -46 -53 -80q-74 -50 -293 -164q-29 -16 -47 -16q-15 0 -26 10.5t-11 28.5z" />
<glyph unicode="&#xdb;" horiz-adv-x="1552" d="M27 1309q0 47 43 47q5 0 46.5 -3t104 -6.5t119.5 -3.5q56 0 114.5 3.5t96.5 6.5t43 3q37 0 37 -43q0 -51 -33 -51q-3 0 -16 1t-17 1q-67 0 -88 -27q-16 -20 -23.5 -60.5t-7.5 -134.5q0 -382 5 -577q3 -85 21.5 -150.5t49 -107.5t74 -68.5t93 -37.5t110.5 -11 q123 0 203 30t125.5 96.5t63 157t17.5 226.5q0 298 -4 442q-3 84 -8 122t-16 57q-24 39 -99 39q-4 0 -23.5 -1.5t-23.5 -1.5q-30 0 -30 50q0 49 36 49q8 0 95.5 -6.5t142.5 -6.5t124.5 6.5t70.5 6.5q26 0 35.5 -11t9.5 -34q0 -49 -37 -49q-5 0 -22 1t-21 1q-49 -2 -78 -35 q-33 -37 -33 -185q0 -38 1 -256.5t1 -281.5q0 -535 -551 -535q-307 0 -440 126t-133 384q0 45 2 225t2 341q0 142 -21 180q-19 37 -90 37q-5 0 -21 -1t-20 -1q-30 0 -30 47zM494 1460q0 15 12 27q149 162 242 270q10 11 16 16.5t18 10t29 4.5q21 0 32 -6.5t23 -22.5 q128 -154 236 -270q14 -17 14 -27q0 -13 -12 -24t-27 -11q-20 0 -43 17q-100 67 -200 151q-18 13 -31 13q-9 0 -29 -15q-164 -122 -205 -149q-27 -17 -41 -17q-13 0 -23.5 11t-10.5 22z" />
<glyph unicode="&#xdc;" horiz-adv-x="1552" d="M27 1309q0 47 43 47q5 0 46.5 -3t104 -6.5t119.5 -3.5q56 0 114.5 3.5t96.5 6.5t43 3q37 0 37 -43q0 -51 -33 -51q-3 0 -16 1t-17 1q-67 0 -88 -27q-16 -20 -23.5 -60.5t-7.5 -134.5q0 -382 5 -577q3 -85 21.5 -150.5t49 -107.5t74 -68.5t93 -37.5t110.5 -11 q123 0 203 30t125.5 96.5t63 157t17.5 226.5q0 298 -4 442q-3 84 -8 122t-16 57q-24 39 -99 39q-4 0 -23.5 -1.5t-23.5 -1.5q-30 0 -30 50q0 49 36 49q8 0 95.5 -6.5t142.5 -6.5t124.5 6.5t70.5 6.5q26 0 35.5 -11t9.5 -34q0 -49 -37 -49q-5 0 -22 1t-21 1q-49 -2 -78 -35 q-33 -37 -33 -185q0 -38 1 -256.5t1 -281.5q0 -535 -551 -535q-307 0 -440 126t-133 384q0 45 2 225t2 341q0 142 -21 180q-19 37 -90 37q-5 0 -21 -1t-20 -1q-30 0 -30 47zM510 1561q0 48 30.5 78t73.5 30q46 0 75.5 -29t29.5 -79q0 -48 -31 -78.5t-76 -30.5 q-44 0 -73 29.5t-29 79.5zM858 1561q0 48 31.5 78t75.5 30t73 -29t29 -79q0 -49 -29.5 -79t-74.5 -30q-47 0 -76 29.5t-29 79.5z" />
<glyph unicode="&#xdd;" horiz-adv-x="1386" d="M14 1313q0 45 41 45q7 0 47.5 -3t101 -6t118.5 -3q42 0 170 6t135 6q35 0 35 -45q0 -51 -39 -51q-9 0 -26.5 1t-27.5 1q-86 0 -86 -54q0 -31 18.5 -69t71.5 -129l129 -217q25 -41 36.5 -53.5t21.5 -12.5q18 0 55 64l129 223q82 144 82 196q0 30 -23.5 41t-72.5 11 q-20 0 -37 -1t-21 -1q-34 0 -34 47q0 49 39 49l85 -6q84 -6 164 -6q73 0 132 6t63 6q41 0 41 -45q0 -49 -33 -49q-3 0 -13 1t-16 1q-40 0 -77 -37q-52 -55 -148 -211l-239 -400q-14 -18 -17 -38q-2 -10 -2 -43v-224q0 -152 29 -188q15 -19 34.5 -27t59.5 -8q4 0 18 1t17 1 q37 0 37 -47t-37 -47q-5 0 -47.5 3t-105 6t-117.5 3q-56 0 -123.5 -3t-114.5 -6t-51 -3q-17 0 -26 10.5t-9 38.5q0 23 10.5 34t24.5 11q2 0 18 -1t21 -1q85 0 102 41q21 44 21 184v199q0 36 -5 51q-2 14 -22 47l-244 394q-84 134 -143 219q-27 39 -82 39q-5 0 -17.5 -1 t-17.5 -1q-33 0 -33 51zM594 1479q0 17 24 41q11 10 103.5 92t136.5 127q40 43 80 43q33 0 59.5 -23.5t26.5 -58.5q0 -46 -53 -80q-74 -50 -293 -164q-29 -16 -47 -16q-15 0 -26 10.5t-11 28.5z" />
<glyph unicode="&#xde;" horiz-adv-x="1245" d="M47 45q0 47 35 47q2 0 17 -1t20 -1q79 0 98 43q16 37 16 176v729q0 144 -18 187q-19 39 -94 39q-5 0 -22 -1t-21 -1q-31 0 -31 45q0 49 39 49q5 0 47.5 -3t104.5 -6.5t116 -3.5q55 0 118.5 3.5t105.5 6.5t47 3q39 0 39 -45q0 -49 -35 -49q-4 0 -17.5 1t-17.5 1 q-74 0 -102 -39q-19 -22 -19 -111q0 -37 25 -37q16 0 79 2t85 2q250 0 371.5 -92t121.5 -262q0 -60 -13 -115t-50 -112.5t-95.5 -99.5t-157.5 -68.5t-227 -26.5q-22 0 -60 2t-44 2q-22 0 -29.5 -9t-7.5 -42q0 -96 23 -129q17 -23 37.5 -31t76.5 -8q4 0 21.5 1t21.5 1 q37 0 37 -49q0 -45 -41 -45q-5 0 -116.5 6t-180.5 6q-55 0 -118 -3t-104.5 -6t-45.5 -3q-35 0 -35 47zM471 489q0 -54 21 -69q21 -14 71 -14q183 0 258.5 73.5t75.5 227.5q0 143 -76 210.5t-233 67.5q-59 0 -86 -8q-31 -6 -31 -57v-431z" />
<glyph unicode="&#xdf;" horiz-adv-x="1216" d="M51 41q0 47 33 47q3 0 16 -1t21 -1q64 0 80 41q14 40 14 158v483q0 45 -39 45q-32 0 -58.5 -2t-29.5 -2q-31 0 -31 53q0 35 29 39q38 8 58.5 17.5t37.5 27.5q16 20 24.5 50.5t14.5 101.5q11 130 34.5 217t56 137.5t83.5 95.5q49 44 125 70.5t166 26.5q79 0 142 -21 t101 -53t63 -74t34.5 -81t9.5 -77q0 -82 -26 -150t-67.5 -118.5t-113.5 -114.5q-53 -46 -74.5 -74t-21.5 -51q0 -10 3 -19t11.5 -20.5t17.5 -21t29.5 -27.5t38 -32.5t51.5 -43.5t62 -53q118 -101 159.5 -167.5t41.5 -157.5q0 -143 -99.5 -229.5t-250.5 -86.5q-167 0 -230 52 q-24 19 -28 57q-13 127 -13 135q0 49 45 49q23 0 33.5 -10.5t13.5 -32.5q12 -72 41 -108q46 -58 138 -58q68 0 112.5 40t44.5 110q0 64 -38.5 120.5t-137.5 131.5q-129 98 -173 157t-44 121q0 22 6.5 44.5t13.5 38t26 40.5t28 36t35.5 40.5t34.5 38.5q151 166 151 373 q0 88 -49 147t-135 59q-72 0 -124 -37t-81 -102q-51 -116 -51 -477v-655q0 -141 10 -183q10 -40 10 -57q0 -23 -8.5 -33t-28.5 -10q-6 0 -42.5 2t-61.5 2q-65 0 -136 -3t-73 -3q-35 0 -35 43z" />
<glyph unicode="&#xe0;" horiz-adv-x="1026" d="M82 209q0 60 24.5 105t65.5 69q97 59 358 109q53 9 69.5 23.5t16.5 57.5q0 115 -7.5 156t-30.5 70q-36 47 -121 47q-61 0 -106.5 -37.5t-45.5 -83.5q0 -19 5 -49t5 -45q0 -36 -26 -57t-68 -21q-43 0 -66.5 26.5t-23.5 67.5q0 40 22 82t54 70q65 61 169.5 111.5 t190.5 50.5q143 0 209 -78q47 -59 47 -201q0 -48 -3 -214.5t-3 -242.5q0 -75 19.5 -104t52.5 -29q36 0 49 31q8 27 43 27q17 0 29 -9t12 -26q0 -34 -33 -64q-78 -78 -180 -78q-130 0 -170 103q-6 16 -18 16q-15 0 -27 -16q-97 -105 -236 -105q-133 0 -204.5 73.5 t-71.5 164.5zM287 1389q0 32 24 54.5t64 22.5q50 0 82 -59t153 -260q15 -23 15 -39q0 -13 -10.5 -24t-26.5 -11q-22 0 -51 27q-169 158 -218 215q-32 37 -32 74zM295 231q0 -56 38.5 -91.5t110.5 -35.5q39 0 81 18t61 38q32 35 32 129v94q0 17 -9.5 26t-22.5 9q-27 0 -51 -6 q-105 -23 -170 -56q-70 -39 -70 -125z" />
<glyph unicode="&#xe1;" horiz-adv-x="1026" d="M82 209q0 60 24.5 105t65.5 69q97 59 358 109q53 9 69.5 23.5t16.5 57.5q0 115 -7.5 156t-30.5 70q-36 47 -121 47q-61 0 -106.5 -37.5t-45.5 -83.5q0 -19 5 -49t5 -45q0 -36 -26 -57t-68 -21q-43 0 -66.5 26.5t-23.5 67.5q0 40 22 82t54 70q65 61 169.5 111.5 t190.5 50.5q143 0 209 -78q47 -59 47 -201q0 -48 -3 -214.5t-3 -242.5q0 -75 19.5 -104t52.5 -29q36 0 49 31q8 27 43 27q17 0 29 -9t12 -26q0 -34 -33 -64q-78 -78 -180 -78q-130 0 -170 103q-6 16 -18 16q-15 0 -27 -16q-97 -105 -236 -105q-133 0 -204.5 73.5 t-71.5 164.5zM295 231q0 -56 38.5 -91.5t110.5 -35.5q39 0 81 18t61 38q32 35 32 129v94q0 17 -9.5 26t-22.5 9q-27 0 -51 -6q-105 -23 -170 -56q-70 -39 -70 -125zM406 1108q0 18 14 39q121 201 153 260t82 59q40 0 64 -21.5t24 -53.5q0 -39 -32 -76q-53 -62 -217 -215 q-29 -27 -52 -27q-16 0 -26 11t-10 24z" />
<glyph unicode="&#xe2;" horiz-adv-x="1026" d="M82 209q0 60 24.5 105t65.5 69q97 59 358 109q53 9 69.5 23.5t16.5 57.5q0 115 -7.5 156t-30.5 70q-36 47 -121 47q-61 0 -106.5 -37.5t-45.5 -83.5q0 -19 5 -49t5 -45q0 -36 -26 -57t-68 -21q-43 0 -66.5 26.5t-23.5 67.5q0 40 22 82t54 70q65 61 169.5 111.5 t190.5 50.5q143 0 209 -78q47 -59 47 -201q0 -48 -3 -214.5t-3 -242.5q0 -75 19.5 -104t52.5 -29q36 0 49 31q8 27 43 27q17 0 29 -9t12 -26q0 -34 -33 -64q-78 -78 -180 -78q-130 0 -170 103q-6 16 -18 16q-15 0 -27 -16q-97 -105 -236 -105q-133 0 -204.5 73.5 t-71.5 164.5zM250 1108q0 18 8 29q118 172 197 303q21 35 61 35q35 0 53 -33q56 -93 191 -301q12 -17 12 -31q0 -15 -13 -26t-28 -11q-18 0 -37 19q-82 80 -159 168q-14 14 -25 14q-12 0 -25 -17q-94 -105 -168 -167q-24 -17 -32 -17q-12 0 -23.5 12t-11.5 23zM295 231 q0 -56 38.5 -91.5t110.5 -35.5q39 0 81 18t61 38q32 35 32 129v94q0 17 -9.5 26t-22.5 9q-27 0 -51 -6q-105 -23 -170 -56q-70 -39 -70 -125z" />
<glyph unicode="&#xe3;" horiz-adv-x="1026" d="M82 209q0 60 24.5 105t65.5 69q97 59 358 109q53 9 69.5 23.5t16.5 57.5q0 115 -7.5 156t-30.5 70q-36 47 -121 47q-61 0 -106.5 -37.5t-45.5 -83.5q0 -19 5 -49t5 -45q0 -36 -26 -57t-68 -21q-43 0 -66.5 26.5t-23.5 67.5q0 40 22 82t54 70q65 61 169.5 111.5 t190.5 50.5q143 0 209 -78q47 -59 47 -201q0 -48 -3 -214.5t-3 -242.5q0 -75 19.5 -104t52.5 -29q36 0 49 31q8 27 43 27q17 0 29 -9t12 -26q0 -34 -33 -64q-78 -78 -180 -78q-130 0 -170 103q-6 16 -18 16q-15 0 -27 -16q-97 -105 -236 -105q-133 0 -204.5 73.5 t-71.5 164.5zM217 1149q0 15 8 39q31 94 73 132t93 38q39 0 144 -55q74 -39 116 -39q49 0 70 73q10 31 41 31q15 0 26 -9.5t11 -25.5q0 -15 -6 -39q-22 -88 -60.5 -131t-97.5 -43q-45 0 -137 45q-81 45 -117 45q-30 0 -49 -14t-37 -57q-10 -23 -37 -23q-19 0 -30 9.5 t-11 23.5zM295 231q0 -56 38.5 -91.5t110.5 -35.5q39 0 81 18t61 38q32 35 32 129v94q0 17 -9.5 26t-22.5 9q-27 0 -51 -6q-105 -23 -170 -56q-70 -39 -70 -125z" />
<glyph unicode="&#xe4;" horiz-adv-x="1026" d="M82 209q0 60 24.5 105t65.5 69q97 59 358 109q53 9 69.5 23.5t16.5 57.5q0 115 -7.5 156t-30.5 70q-36 47 -121 47q-61 0 -106.5 -37.5t-45.5 -83.5q0 -19 5 -49t5 -45q0 -36 -26 -57t-68 -21q-43 0 -66.5 26.5t-23.5 67.5q0 40 22 82t54 70q65 61 169.5 111.5 t190.5 50.5q143 0 209 -78q47 -59 47 -201q0 -48 -3 -214.5t-3 -242.5q0 -75 19.5 -104t52.5 -29q36 0 49 31q8 27 43 27q17 0 29 -9t12 -26q0 -34 -33 -64q-78 -78 -180 -78q-130 0 -170 103q-6 16 -18 16q-15 0 -27 -16q-97 -105 -236 -105q-133 0 -204.5 73.5 t-71.5 164.5zM244 1245q0 48 30.5 78.5t73.5 30.5q45 0 75 -29.5t30 -79.5q0 -48 -30.5 -77t-76.5 -29q-45 0 -73.5 28.5t-28.5 77.5zM295 231q0 -56 38.5 -91.5t110.5 -35.5q39 0 81 18t61 38q32 35 32 129v94q0 17 -9.5 26t-22.5 9q-27 0 -51 -6q-105 -23 -170 -56 q-70 -39 -70 -125zM569 1245q0 48 32.5 78.5t76.5 30.5t72 -29.5t28 -79.5q0 -48 -29 -77t-73 -29q-47 0 -77 28.5t-30 77.5z" />
<glyph unicode="&#xe5;" horiz-adv-x="1026" d="M82 209q0 60 24.5 105t65.5 69q97 59 358 109q53 9 69.5 23.5t16.5 57.5q0 115 -7.5 156t-30.5 70q-36 47 -121 47q-61 0 -106.5 -37.5t-45.5 -83.5q0 -19 5 -49t5 -45q0 -36 -26 -57t-68 -21q-43 0 -66.5 26.5t-23.5 67.5q0 40 22 82t54 70q65 61 169.5 111.5 t190.5 50.5q143 0 209 -78q47 -59 47 -201q0 -48 -3 -214.5t-3 -242.5q0 -75 19.5 -104t52.5 -29q36 0 49 31q8 27 43 27q17 0 29 -9t12 -26q0 -34 -33 -64q-78 -78 -180 -78q-130 0 -170 103q-6 16 -18 16q-15 0 -27 -16q-97 -105 -236 -105q-133 0 -204.5 73.5 t-71.5 164.5zM295 231q0 -56 38.5 -91.5t110.5 -35.5q39 0 81 18t61 38q32 35 32 129v94q0 17 -9.5 26t-22.5 9q-27 0 -51 -6q-105 -23 -170 -56q-70 -39 -70 -125zM319 1237q0 84 56.5 139.5t138.5 55.5q89 0 141 -50.5t52 -136.5q0 -88 -54.5 -142t-140.5 -54 q-90 0 -141.5 51.5t-51.5 136.5zM408 1239q0 -49 30.5 -82t73.5 -33q47 0 78 31.5t31 83.5q0 56 -30.5 87.5t-78.5 31.5q-43 0 -73.5 -32.5t-30.5 -86.5z" />
<glyph unicode="&#xe6;" horiz-adv-x="1540" d="M82 209q0 59 25 104t65 70q97 59 358 109q53 9 69.5 23.5t16.5 57.5q0 115 -7 157t-29 69q-38 47 -121 47q-67 0 -110.5 -36.5t-43.5 -84.5q0 -19 5 -49t5 -45q0 -36 -27 -57t-69 -21q-43 0 -65.5 26t-22.5 68q0 40 21.5 81.5t52.5 70.5q73 66 168 114t192 48 q110 0 170 -54q17 -14 33 -45q11 -16 18 -16q9 0 23 14q119 101 276 101q101 0 176 -27.5t116 -75.5t60.5 -103t20.5 -120q0 -64 -53 -72q-82 -12 -547 -12q-21 0 -29 -15t-8 -51q0 -173 91 -269.5t225 -96.5q171 0 227 106q8 14 16 41q13 41 45 41q21 0 36.5 -11t15.5 -36 q0 -30 -31 -94q-44 -81 -142.5 -138t-244.5 -57q-224 0 -320 129q-17 21 -26 21q-12 0 -31 -19q-136 -131 -317 -131q-71 0 -127.5 22t-89 57.5t-49.5 76t-17 82.5zM295 242q0 -66 37.5 -102t111.5 -36q52 0 99 22.5t73 53.5q33 42 33 72q0 4 -3 24.5t-8 51t-7 49.5 q-5 41 -37 41q-25 0 -64 -8q-102 -16 -161 -52q-74 -41 -74 -116zM834 655q0 -7 6 -13.5t18 -6.5q252 0 332 14q55 9 55 58q0 163 -182 163q-76 0 -135 -43t-84 -125q-10 -25 -10 -47z" />
<glyph unicode="&#xe7;" horiz-adv-x="958" d="M76 432q0 233 142.5 381t365.5 148q188 0 260 -97q35 -52 35 -108t-34 -83.5t-83 -27.5q-66 0 -84 51q-4 10 -6 25t-3.5 34t-2.5 29q-9 82 -131 82q-105 0 -174.5 -87.5t-69.5 -252.5q0 -89 18.5 -160t49 -117t72.5 -76.5t86.5 -43t92.5 -12.5q138 0 195 106q9 15 20 53 q8 35 45 35q24 0 37 -11.5t13 -29.5q0 -24 -15 -65q-36 -89 -116.5 -155t-221.5 -77q-29 -4 -37 -28q-16 -46 -16 -51q0 -18 23 -27q135 -42 135 -156q0 -56 -32.5 -103.5t-82.5 -76.5t-106.5 -45t-108.5 -16q-49 0 -49 47q0 45 59 45q73 2 119.5 31.5t46.5 87.5 q0 70 -90 94q-31 12 -31 37q0 19 19 61q4 10 12.5 29.5t14.5 33.5t6 19q0 9 -6.5 16.5t-16.5 8.5q-115 20 -195.5 87.5t-117.5 160t-37 204.5z" />
<glyph unicode="&#xe8;" horiz-adv-x="1017" d="M80 432q0 244 137 386.5t342 142.5q101 0 176.5 -27.5t118 -75t63 -103.5t21.5 -120q0 -64 -55 -72q-82 -12 -553 -12q-21 0 -29 -15t-8 -51q0 -172 92 -269t227 -97q85 0 144 28t84 78q7 12 16 43q12 39 47 39q19 0 35 -11t16 -36q0 -35 -32 -94q-44 -81 -142 -138 t-245 -57q-136 0 -241.5 63.5t-159.5 167.5t-54 230zM309 655q0 -7 6.5 -13.5t18.5 -6.5q254 0 334 14q55 9 55 58q0 163 -186 163q-154 0 -218 -161q-10 -25 -10 -54zM319 1389q0 32 24.5 54.5t64.5 22.5q49 0 81 -59q23 -43 154 -260q14 -21 14 -39q0 -13 -10 -24t-26 -11 q-23 0 -52 27q-164 153 -217 215q-33 38 -33 74z" />
<glyph unicode="&#xe9;" horiz-adv-x="1017" d="M80 432q0 244 137 386.5t342 142.5q101 0 176.5 -27.5t118 -75t63 -103.5t21.5 -120q0 -64 -55 -72q-82 -12 -553 -12q-21 0 -29 -15t-8 -51q0 -172 92 -269t227 -97q85 0 144 28t84 78q7 12 16 43q12 39 47 39q19 0 35 -11t16 -36q0 -35 -32 -94q-44 -81 -142 -138 t-245 -57q-136 0 -241.5 63.5t-159.5 167.5t-54 230zM309 655q0 -7 6.5 -13.5t18.5 -6.5q254 0 334 14q55 9 55 58q0 163 -186 163q-154 0 -218 -161q-10 -25 -10 -54zM420 1108q0 18 14 39q131 217 154 260q32 59 82 59q40 0 64 -21.5t24 -53.5q0 -38 -33 -76 q-53 -62 -217 -215q-29 -27 -51 -27q-16 0 -26.5 11t-10.5 24z" />
<glyph unicode="&#xea;" horiz-adv-x="1017" d="M80 432q0 244 137 386.5t342 142.5q101 0 176.5 -27.5t118 -75t63 -103.5t21.5 -120q0 -64 -55 -72q-82 -12 -553 -12q-21 0 -29 -15t-8 -51q0 -172 92 -269t227 -97q85 0 144 28t84 78q7 12 16 43q12 39 47 39q19 0 35 -11t16 -36q0 -35 -32 -94q-44 -81 -142 -138 t-245 -57q-136 0 -241.5 63.5t-159.5 167.5t-54 230zM279 1108q0 18 8 29q109 159 196 303q21 35 62 35q35 0 53 -33q67 -112 190 -301q13 -18 13 -31q0 -15 -13 -26t-28 -11q-18 0 -37 19q-88 85 -160 168q-14 14 -24 14q-12 0 -25 -17q-94 -105 -168 -167q-24 -17 -33 -17 q-12 0 -23 12t-11 23zM309 655q0 -7 6.5 -13.5t18.5 -6.5q254 0 334 14q55 9 55 58q0 163 -186 163q-154 0 -218 -161q-10 -25 -10 -54z" />
<glyph unicode="&#xeb;" horiz-adv-x="1017" d="M80 432q0 244 137 386.5t342 142.5q101 0 176.5 -27.5t118 -75t63 -103.5t21.5 -120q0 -64 -55 -72q-82 -12 -553 -12q-21 0 -29 -15t-8 -51q0 -172 92 -269t227 -97q85 0 144 28t84 78q7 12 16 43q12 39 47 39q19 0 35 -11t16 -36q0 -35 -32 -94q-44 -81 -142 -138 t-245 -57q-136 0 -241.5 63.5t-159.5 167.5t-54 230zM266 1245q0 48 31 78.5t74 30.5q45 0 74.5 -29.5t29.5 -79.5q0 -48 -30 -77t-76 -29q-45 0 -74 28.5t-29 77.5zM309 655q0 -7 6.5 -13.5t18.5 -6.5q254 0 334 14q55 9 55 58q0 163 -186 163q-154 0 -218 -161 q-10 -25 -10 -54zM592 1245q0 48 32 78.5t76 30.5t72.5 -29.5t28.5 -79.5q0 -48 -29.5 -77t-73.5 -29q-47 0 -76.5 28.5t-29.5 77.5z" />
<glyph unicode="&#xec;" horiz-adv-x="616" d="M49 45q0 18 9.5 30.5t23.5 12.5q5 0 19.5 -1t19.5 -1q58 0 74 39q18 49 18 192v197q0 142 -23 184q-24 47 -108 70q-25 7 -25 39q0 27 25 35q146 54 256 121q26 16 51 16q14 0 23.5 -10.5t9.5 -28.5q0 -7 -2 -52t-2 -65q-4 -111 -4 -286v-220q0 -162 18 -194 q23 -37 84 -37q5 0 18 1t17 1q33 0 33 -45t-39 -45q-5 0 -40 2t-89.5 4t-106.5 2q-53 0 -105 -2t-84 -4t-38 -2q-33 0 -33 47zM92 1389q0 32 24 54.5t64 22.5q50 0 82 -59q23 -43 154 -260q14 -21 14 -39q0 -13 -10.5 -24t-26.5 -11q-22 0 -51 27q-164 153 -217 215 q-33 38 -33 74z" />
<glyph unicode="&#xed;" horiz-adv-x="616" d="M49 45q0 18 9.5 30.5t23.5 12.5q5 0 19.5 -1t19.5 -1q58 0 74 39q18 49 18 192v197q0 142 -23 184q-24 47 -108 70q-25 7 -25 39q0 27 25 35q146 54 256 121q26 16 51 16q14 0 23.5 -10.5t9.5 -28.5q0 -7 -2 -52t-2 -65q-4 -111 -4 -286v-220q0 -162 18 -194 q23 -37 84 -37q5 0 18 1t17 1q33 0 33 -45t-39 -45q-5 0 -40 2t-89.5 4t-106.5 2q-53 0 -105 -2t-84 -4t-38 -2q-33 0 -33 47zM172 1108q0 18 14 39q131 217 154 260q32 59 82 59q40 0 64 -21.5t24 -53.5q0 -38 -33 -76q-53 -62 -217 -215q-29 -27 -51 -27q-16 0 -26.5 11 t-10.5 24z" />
<glyph unicode="&#xee;" horiz-adv-x="616" d="M39 1108q0 18 8 29q118 172 197 303q21 35 61 35q35 0 53 -33q56 -93 191 -301q12 -17 12 -31q0 -15 -13 -26t-28 -11q-18 0 -37 19q-83 80 -159 168q-14 14 -25 14q-12 0 -25 -17q-94 -105 -168 -167q-24 -17 -32 -17q-12 0 -23.5 12t-11.5 23zM49 45q0 18 9.5 30.5 t23.5 12.5q5 0 19.5 -1t19.5 -1q58 0 74 39q18 49 18 192v197q0 142 -23 184q-24 47 -108 70q-25 7 -25 39q0 27 25 35q146 54 256 121q26 16 51 16q14 0 23.5 -10.5t9.5 -28.5q0 -7 -2 -52t-2 -65q-4 -111 -4 -286v-220q0 -162 18 -194q23 -37 84 -37q5 0 18 1t17 1 q33 0 33 -45t-39 -45q-5 0 -40 2t-89.5 4t-106.5 2q-53 0 -105 -2t-84 -4t-38 -2q-33 0 -33 47z" />
<glyph unicode="&#xef;" horiz-adv-x="616" d="M33 1245q0 48 30.5 78.5t73.5 30.5q45 0 75 -29.5t30 -79.5q0 -48 -30.5 -77t-76.5 -29q-45 0 -73.5 28.5t-28.5 77.5zM49 45q0 18 9.5 30.5t23.5 12.5q5 0 19.5 -1t19.5 -1q58 0 74 39q18 49 18 192v197q0 142 -23 184q-24 47 -108 70q-25 7 -25 39q0 27 25 35 q146 54 256 121q26 16 51 16q14 0 23.5 -10.5t9.5 -28.5q0 -7 -2 -52t-2 -65q-4 -111 -4 -286v-220q0 -162 18 -194q23 -37 84 -37q5 0 18 1t17 1q33 0 33 -45t-39 -45q-5 0 -40 2t-89.5 4t-106.5 2q-53 0 -105 -2t-84 -4t-38 -2q-33 0 -33 47zM358 1245q0 48 32.5 78.5 t76.5 30.5t72 -29.5t28 -79.5q0 -48 -29 -77t-73 -29q-47 0 -77 28.5t-30 77.5z" />
<glyph unicode="&#xf0;" horiz-adv-x="1155" d="M80 449q0 119 40.5 216t110 159.5t162 96t197.5 33.5q121 0 205 -61q14 -10 26 -10q13 0 13 18q0 12 -5 37q-20 96 -49.5 164.5t-77.5 134.5q-7 10 -18 10q-2 0 -14 -4l-193 -108q-15 -9 -24 -9q-16 0 -28.5 22.5t-12.5 41.5q0 13 18 22l182 105q13 8 13 18q0 11 -11 27 q-50 65 -151 143q-62 42 -103 60q-34 15 -34 39q0 21 12 37t35 16q34 0 106 -33q77 -34 157.5 -87.5t133.5 -109.5q8 -8 21 -8q6 0 14 4l147 86q22 13 29 13q16 0 28.5 -20t12.5 -40q0 -16 -27 -30l-127 -74q-14 -8 -14 -19q0 -4 4 -12q52 -77 85 -139t67 -154.5t50.5 -211 t16.5 -265.5q0 -169 -58 -300t-175 -208.5t-279 -77.5q-153 0 -264.5 65.5t-166 172.5t-54.5 240zM311 481q0 -201 73 -311.5t198 -110.5q128 0 198 103.5t70 300.5q0 201 -71 303t-199 102q-129 0 -199 -100t-70 -287z" />
<glyph unicode="&#xf1;" horiz-adv-x="1239" d="M49 45q0 18 9 30.5t24 12.5q5 0 19.5 -1t19.5 -1q56 0 72 39q20 54 20 192v195q0 145 -20 184q-23 47 -111 72q-25 10 -25 39q0 27 25 35q132 51 240 121q24 16 45 16q29 0 32 -27q1 -14 2 -60t2 -67q0 -20 19 -20q7 0 22 10q150 150 320 150q154 0 217 -93 q32 -47 44.5 -112t12.5 -191v-204q0 -215 21 -244q21 -35 76 -35q7 0 20.5 1t15.5 1q35 0 35 -45q0 -47 -37 -47q-4 0 -37 2.5t-86.5 5t-105.5 2.5q-70 0 -147 -5t-78 -5q-37 0 -37 49q0 18 9.5 30.5t23.5 12.5q4 0 20 -1t21 -1q52 0 67 41q19 53 19 285q0 155 -6.5 216.5 t-26.5 96.5q-45 80 -158 80q-56 0 -111 -21.5t-90 -54.5q-21 -20 -26.5 -56t-5.5 -145v-209q0 -166 20 -196q19 -37 76 -37q5 0 19.5 1t19.5 1q35 0 35 -45q0 -47 -41 -47q-6 0 -40.5 2.5t-89 5t-106.5 2.5q-51 0 -102.5 -2.5t-84.5 -5t-40 -2.5q-31 0 -31 49zM330 1149 q0 15 8 39q31 94 73 132t93 38q38 0 143 -55q74 -39 117 -39q49 0 70 73q10 31 40 31q15 0 26 -9.5t11 -25.5q0 -15 -6 -39q-22 -88 -60 -131t-97 -43q-46 0 -138 45q-81 45 -116 45q-30 0 -49 -14t-37 -57q-10 -23 -37 -23q-19 0 -30 9.5t-11 23.5z" />
<glyph unicode="&#xf2;" horiz-adv-x="1155" d="M80 449q0 159 68.5 276.5t184 176.5t261.5 59q232 0 357.5 -131.5t125.5 -344.5q0 -108 -34 -201.5t-97.5 -163t-161.5 -109.5t-219 -40q-118 0 -212 37.5t-152.5 103.5t-89.5 151.5t-31 185.5zM311 481q0 -201 73 -311.5t198 -110.5q127 0 195.5 102t68.5 300 q0 201 -71.5 307t-194.5 106q-129 0 -199 -102.5t-70 -290.5zM369 1389q0 32 24 54.5t64 22.5q50 0 82 -59t153 -260q15 -23 15 -39q0 -13 -10.5 -24t-26.5 -11q-23 0 -52 27q-164 153 -217 215q-32 37 -32 74z" />
<glyph unicode="&#xf3;" horiz-adv-x="1155" d="M80 449q0 159 68.5 276.5t184 176.5t261.5 59q232 0 357.5 -131.5t125.5 -344.5q0 -108 -34 -201.5t-97.5 -163t-161.5 -109.5t-219 -40q-118 0 -212 37.5t-152.5 103.5t-89.5 151.5t-31 185.5zM311 481q0 -201 73 -311.5t198 -110.5q127 0 195.5 102t68.5 300 q0 201 -71.5 307t-194.5 106q-129 0 -199 -102.5t-70 -290.5zM471 1108q0 18 14 39q131 217 154 260q32 59 82 59q40 0 64 -21.5t24 -53.5q0 -38 -33 -76q-53 -62 -217 -215q-29 -27 -51 -27q-16 0 -26.5 11t-10.5 24z" />
<glyph unicode="&#xf4;" horiz-adv-x="1155" d="M80 449q0 159 68.5 276.5t184 176.5t261.5 59q232 0 357.5 -131.5t125.5 -344.5q0 -108 -34 -201.5t-97.5 -163t-161.5 -109.5t-219 -40q-118 0 -212 37.5t-152.5 103.5t-89.5 151.5t-31 185.5zM311 481q0 -201 73 -311.5t198 -110.5q127 0 195.5 102t68.5 300 q0 201 -71.5 307t-194.5 106q-129 0 -199 -102.5t-70 -290.5zM322 1108q0 18 8 29q109 159 196 303q21 35 62 35q35 0 53 -33q67 -112 190 -301q13 -18 13 -31q0 -15 -13 -26t-28 -11q-18 0 -37 19q-88 85 -160 168q-14 14 -24 14q-12 0 -25 -17q-94 -105 -168 -167 q-24 -17 -33 -17q-12 0 -23 12t-11 23z" />
<glyph unicode="&#xf5;" horiz-adv-x="1155" d="M80 449q0 159 68.5 276.5t184 176.5t261.5 59q232 0 357.5 -131.5t125.5 -344.5q0 -108 -34 -201.5t-97.5 -163t-161.5 -109.5t-219 -40q-118 0 -212 37.5t-152.5 103.5t-89.5 151.5t-31 185.5zM287 1149q0 15 8 39q31 94 73 132t93 38q38 0 143 -55q74 -39 117 -39 q49 0 70 73q10 31 40 31q15 0 26 -9.5t11 -25.5q0 -15 -6 -39q-22 -88 -60 -131t-97 -43q-46 0 -138 45q-81 45 -116 45q-30 0 -49 -14t-37 -57q-10 -23 -37 -23q-19 0 -30 9.5t-11 23.5zM311 481q0 -201 73 -311.5t198 -110.5q127 0 195.5 102t68.5 300q0 201 -71.5 307 t-194.5 106q-129 0 -199 -102.5t-70 -290.5z" />
<glyph unicode="&#xf6;" horiz-adv-x="1155" d="M80 449q0 159 68.5 276.5t184 176.5t261.5 59q232 0 357.5 -131.5t125.5 -344.5q0 -108 -34 -201.5t-97.5 -163t-161.5 -109.5t-219 -40q-118 0 -212 37.5t-152.5 103.5t-89.5 151.5t-31 185.5zM309 1245q0 48 31 78.5t74 30.5q45 0 74.5 -29.5t29.5 -79.5q0 -48 -30 -77 t-76 -29q-45 0 -74 28.5t-29 77.5zM311 481q0 -201 73 -311.5t198 -110.5q127 0 195.5 102t68.5 300q0 201 -71.5 307t-194.5 106q-129 0 -199 -102.5t-70 -290.5zM635 1245q0 48 32 78.5t76 30.5t72.5 -29.5t28.5 -79.5q0 -48 -29.5 -77t-73.5 -29q-47 0 -76.5 28.5 t-29.5 77.5z" />
<glyph unicode="&#xf7;" horiz-adv-x="1314" d="M170 504v92q0 29 25 29h923q29 0 29 -29v-92q0 -27 -29 -27h-923q-25 0 -25 27zM543 242q0 49 32.5 82.5t83.5 33.5q47 0 80 -32.5t33 -85.5q0 -49 -32.5 -82t-86.5 -33q-47 0 -78.5 33.5t-31.5 83.5zM543 860q0 49 32.5 83t83.5 34q47 0 80 -33t33 -86q0 -50 -32 -82.5 t-87 -32.5q-47 0 -78.5 33t-31.5 84z" />
<glyph unicode="&#xf8;" horiz-adv-x="1155" d="M80 449q0 159 68.5 276.5t184 176.5t261.5 59q137 0 244 -52q6 -4 16 -4q13 0 23 13l75 92q13 16 33 16q18 0 34 -13.5t17 -33.5q0 -13 -14 -33l-66 -82q-8 -8 -8 -18q0 -13 8 -21q121 -130 121 -340q0 -108 -34 -201.5t-97.5 -163t-161.5 -109.5t-219 -40 q-146 0 -260 60q-12 4 -16 4q-14 0 -23 -12l-65 -80q-14 -17 -33 -17q-15 0 -33 15t-18 30q0 17 12 29l66 80q6 9 6 18q0 15 -8 23q-113 128 -113 328zM311 481q0 -107 21 -184q3 -16 16 -16q11 0 21 10l381 469q8 12 8 20q0 9 -8 21q-70 73 -170 73q-129 0 -199 -102.5 t-70 -290.5zM393 166q0 -13 6 -19q73 -88 183 -88q127 0 195.5 102t68.5 300q0 117 -23 196q-3 17 -14 17q-12 0 -21 -12l-387 -476q-8 -8 -8 -20z" />
<glyph unicode="&#xf9;" horiz-adv-x="1236" d="M31 860q0 43 32 47q179 21 265 51q45 17 49 17q14 0 24.5 -10t10.5 -25q0 -3 -6 -56.5t-12.5 -145.5t-6.5 -189q0 -145 7 -210t26 -110q19 -44 64.5 -70t107.5 -26q144 0 192 62q16 21 21.5 59t5.5 133v201q0 90 -2.5 121.5t-13.5 54.5q-19 43 -111 51q-29 4 -29 45 q0 19 9 32.5t22 14.5q133 11 250 47q56 21 63 21q17 0 26 -10.5t9 -26.5q0 -2 -4 -42.5t-8 -117t-4 -164.5v-280q0 -132 33 -170q20 -23 55 -23q9 0 31 3t30 3q15 0 25 -13t10 -36q0 -30 -26 -39q-7 -2 -38 -10t-62.5 -16.5t-55.5 -16.5q-35 -12 -72.5 -27.5t-55.5 -22.5 t-26 -7q-31 0 -39 33q-2 8 -5.5 37.5t-6.5 44.5q-6 22 -20 22t-43 -24q-141 -97 -269 -97q-168 0 -237 103q-36 53 -50 125t-14 198q0 24 2 122t2 130q0 79 -14 111q-19 43 -109 51q-32 3 -32 45zM381 1389q0 32 24 54.5t64 22.5q50 0 82 -59q23 -43 154 -260q14 -21 14 -39 q0 -13 -10.5 -24t-26.5 -11q-22 0 -51 27q-164 153 -217 215q-33 38 -33 74z" />
<glyph unicode="&#xfa;" horiz-adv-x="1236" d="M31 860q0 43 32 47q179 21 265 51q45 17 49 17q14 0 24.5 -10t10.5 -25q0 -3 -6 -56.5t-12.5 -145.5t-6.5 -189q0 -145 7 -210t26 -110q19 -44 64.5 -70t107.5 -26q144 0 192 62q16 21 21.5 59t5.5 133v201q0 90 -2.5 121.5t-13.5 54.5q-19 43 -111 51q-29 4 -29 45 q0 19 9 32.5t22 14.5q133 11 250 47q56 21 63 21q17 0 26 -10.5t9 -26.5q0 -2 -4 -42.5t-8 -117t-4 -164.5v-280q0 -132 33 -170q20 -23 55 -23q9 0 31 3t30 3q15 0 25 -13t10 -36q0 -30 -26 -39q-7 -2 -38 -10t-62.5 -16.5t-55.5 -16.5q-35 -12 -72.5 -27.5t-55.5 -22.5 t-26 -7q-31 0 -39 33q-2 8 -5.5 37.5t-6.5 44.5q-6 22 -20 22t-43 -24q-141 -97 -269 -97q-168 0 -237 103q-36 53 -50 125t-14 198q0 24 2 122t2 130q0 79 -14 111q-19 43 -109 51q-32 3 -32 45zM510 1108q0 18 14 39q131 217 154 260q32 59 82 59q40 0 64 -21.5t24 -53.5 q0 -38 -33 -76q-53 -62 -217 -215q-29 -27 -51 -27q-16 0 -26.5 11t-10.5 24z" />
<glyph unicode="&#xfb;" horiz-adv-x="1236" d="M31 860q0 43 32 47q179 21 265 51q45 17 49 17q14 0 24.5 -10t10.5 -25q0 -3 -6 -56.5t-12.5 -145.5t-6.5 -189q0 -145 7 -210t26 -110q19 -44 64.5 -70t107.5 -26q144 0 192 62q16 21 21.5 59t5.5 133v201q0 90 -2.5 121.5t-13.5 54.5q-19 43 -111 51q-29 4 -29 45 q0 19 9 32.5t22 14.5q133 11 250 47q56 21 63 21q17 0 26 -10.5t9 -26.5q0 -2 -4 -42.5t-8 -117t-4 -164.5v-280q0 -132 33 -170q20 -23 55 -23q9 0 31 3t30 3q15 0 25 -13t10 -36q0 -30 -26 -39q-7 -2 -38 -10t-62.5 -16.5t-55.5 -16.5q-35 -12 -72.5 -27.5t-55.5 -22.5 t-26 -7q-31 0 -39 33q-2 8 -5.5 37.5t-6.5 44.5q-6 22 -20 22t-43 -24q-141 -97 -269 -97q-168 0 -237 103q-36 53 -50 125t-14 198q0 24 2 122t2 130q0 79 -14 111q-19 43 -109 51q-32 3 -32 45zM362 1108q0 17 9 29q109 159 196 303q21 35 62 35q35 0 53 -33 q67 -112 190 -301q13 -18 13 -31q0 -15 -13 -26t-28 -11q-18 0 -37 19q-88 85 -160 168q-14 14 -24 14q-12 0 -25 -17q-94 -105 -168 -167q-24 -17 -33 -17q-12 0 -23.5 12t-11.5 23z" />
<glyph unicode="&#xfc;" horiz-adv-x="1236" d="M31 860q0 43 32 47q179 21 265 51q45 17 49 17q14 0 24.5 -10t10.5 -25q0 -3 -6 -56.5t-12.5 -145.5t-6.5 -189q0 -145 7 -210t26 -110q19 -44 64.5 -70t107.5 -26q144 0 192 62q16 21 21.5 59t5.5 133v201q0 90 -2.5 121.5t-13.5 54.5q-19 43 -111 51q-29 4 -29 45 q0 19 9 32.5t22 14.5q133 11 250 47q56 21 63 21q17 0 26 -10.5t9 -26.5q0 -2 -4 -42.5t-8 -117t-4 -164.5v-280q0 -132 33 -170q20 -23 55 -23q9 0 31 3t30 3q15 0 25 -13t10 -36q0 -30 -26 -39q-7 -2 -38 -10t-62.5 -16.5t-55.5 -16.5q-35 -12 -72.5 -27.5t-55.5 -22.5 t-26 -7q-31 0 -39 33q-2 8 -5.5 37.5t-6.5 44.5q-6 22 -20 22t-43 -24q-141 -97 -269 -97q-168 0 -237 103q-36 53 -50 125t-14 198q0 24 2 122t2 130q0 79 -14 111q-19 43 -109 51q-32 3 -32 45zM352 1245q0 48 31 78.5t74 30.5q45 0 74.5 -29.5t29.5 -79.5q0 -48 -30 -77 t-76 -29q-45 0 -74 28.5t-29 77.5zM678 1245q0 48 32 78.5t76 30.5t72.5 -29.5t28.5 -79.5q0 -48 -29.5 -77t-73.5 -29q-47 0 -76.5 28.5t-29.5 77.5z" />
<glyph unicode="&#xfd;" horiz-adv-x="1124" d="M10 891q0 43 37 43q5 0 42.5 -2.5t94.5 -5t109 -2.5q51 0 102 2.5t84 5t39 2.5q35 0 35 -45q0 -19 -9 -32t-24 -13q-2 0 -21 1t-26 1q-42 0 -59 -13.5t-17 -46.5q0 -43 47 -145q54 -124 158 -340q14 -27 23 -27q13 0 22 21q80 187 139 344q45 118 45 158q0 27 -17.5 38 t-59.5 11q-5 0 -22 -1t-21 -1q-31 0 -31 47q0 43 33 43q6 0 31 -2.5t69.5 -5t95.5 -2.5q47 0 83 2.5t55.5 5t25.5 2.5q41 0 41 -43q0 -47 -31 -47q-2 0 -18 1t-23 1q-33 0 -59 -33q-21 -28 -55 -102q-208 -503 -293 -699q-188 -434 -256 -518q-84 -106 -199 -106 q-66 0 -99.5 26t-33.5 68q0 37 20.5 64.5t61.5 27.5q17 0 40 -9t40 -9q37 0 63.5 18t57.5 57q48 62 143 269q31 72 31 98q0 36 -25 92q-44 95 -143.5 302.5t-151.5 318.5q-50 102 -57 110q-22 25 -49 25q-4 0 -17 -1t-20 -1q-13 0 -22 12t-9 35zM492 1108q0 18 14 39 q121 201 153 260t82 59q40 0 64 -21.5t24 -53.5q0 -39 -32 -76q-53 -62 -217 -215q-29 -27 -52 -27q-16 0 -26 11t-10 24z" />
<glyph unicode="&#xfe;" horiz-adv-x="1230" d="M35 -543q0 18 8.5 30.5t22.5 12.5q5 0 19 -1t19 -1q55 0 74 39q19 43 19 195v1415q0 169 -13 209q-13 52 -53 74q-8 4 -55 18q-23 5 -23 35q0 29 23 37q147 52 252 118q30 17 45 17q33 0 33 -35q0 -63 -3.5 -363t-3.5 -419q0 -25 15 -25q12 0 24 12q148 133 301 133 q176 0 285 -126.5t109 -325.5q0 -232 -146.5 -381.5t-386.5 -149.5q-72 0 -151 21q-24 6 -29 6q-19 0 -19 -35v-235q0 -161 19 -193q23 -41 96 -41q5 0 27 1t26 1q35 0 35 -45q0 -24 -9 -34.5t-32 -10.5q-7 0 -50.5 2t-105.5 4t-114 2q-50 0 -102 -2t-85.5 -4t-39.5 -2 q-31 0 -31 47zM399 328q0 -129 27 -168q23 -36 80.5 -59t122.5 -23q117 0 198.5 92.5t81.5 267.5q0 169 -75 267t-205 98q-75 0 -136 -33.5t-75 -75.5q-19 -48 -19 -143v-223z" />
<glyph unicode="&#xff;" horiz-adv-x="1124" d="M10 891q0 43 37 43q5 0 42.5 -2.5t94.5 -5t109 -2.5q51 0 102 2.5t84 5t39 2.5q35 0 35 -45q0 -19 -9 -32t-24 -13q-2 0 -21 1t-26 1q-42 0 -59 -13.5t-17 -46.5q0 -43 47 -145q54 -124 158 -340q14 -27 23 -27q13 0 22 21q80 187 139 344q45 118 45 158q0 27 -17.5 38 t-59.5 11q-5 0 -22 -1t-21 -1q-31 0 -31 47q0 43 33 43q6 0 31 -2.5t69.5 -5t95.5 -2.5q47 0 83 2.5t55.5 5t25.5 2.5q41 0 41 -43q0 -47 -31 -47q-2 0 -18 1t-23 1q-33 0 -59 -33q-21 -28 -55 -102q-208 -503 -293 -699q-188 -434 -256 -518q-84 -106 -199 -106 q-66 0 -99.5 26t-33.5 68q0 37 20.5 64.5t61.5 27.5q17 0 40 -9t40 -9q37 0 63.5 18t57.5 57q48 62 143 269q31 72 31 98q0 36 -25 92q-44 95 -143.5 302.5t-151.5 318.5q-50 102 -57 110q-22 25 -49 25q-4 0 -17 -1t-20 -1q-13 0 -22 12t-9 35zM313 1245q0 48 31 78.5 t74 30.5q45 0 74.5 -29.5t29.5 -79.5q0 -48 -30 -77t-76 -29q-45 0 -74 28.5t-29 77.5zM639 1245q0 48 32.5 78.5t76.5 30.5t72 -29.5t28 -79.5q0 -48 -29.5 -77t-73.5 -29q-47 0 -76.5 28.5t-29.5 77.5z" />
<glyph unicode="&#x152;" horiz-adv-x="2035" d="M90 655q0 156 47 287t134 225.5t217 147.5t290 53q140 0 258 -12q113 -10 254 -10q170 0 326 4t205 4q39 0 39 -47q0 -37 1.5 -95.5t3 -103t1.5 -47.5q0 -37 -45 -37q-41 0 -45 35q-5 61 -14.5 94.5t-32.5 56.5q-26 27 -71.5 34t-141.5 7q-38 0 -191 -6q-37 0 -37 -53 v-391q0 -31 16 -40t58 -9q112 0 164 18q28 10 45 41.5t26 101.5q3 33 45 33q44 0 44 -35l-6 -81q-7 -81 -7 -134q0 -40 3 -108.5t3 -83.5q0 -31 -43 -31q-39 0 -43 31q-9 108 -59 139q-34 19 -178 19q-41 0 -54.5 -10t-13.5 -40v-344q0 -84 17 -108q25 -33 75 -44.5 t170 -11.5q166 0 222 37q62 41 108 181q8 28 39 28q51 0 51 -35q0 -20 -21 -113t-36 -141q-22 -63 -64 -63q-90 0 -261 4t-310 4q-55 0 -95.5 -1.5t-61 -3t-27.5 -1.5q-27 0 -160.5 -7t-173.5 -7q-310 0 -490 181.5t-180 487.5zM354 672q0 -283 110.5 -438.5t313.5 -155.5 q118 0 183 22q37 13 55 30.5t26 43.5q11 25 11 102v803q0 59 -13 103q-14 48 -61 61q-80 27 -193 27q-432 0 -432 -598z" />
<glyph unicode="&#x153;" horiz-adv-x="1769" d="M80 446q0 119 40 217t109.5 162.5t161.5 100t197 35.5q222 0 338 -142q17 -20 28 -20q13 0 25 14q60 71 146.5 109.5t185.5 38.5q101 0 176.5 -27.5t118 -75t63 -103.5t21.5 -120q0 -64 -56 -72q-82 -12 -553 -12q-21 0 -29 -15t-8 -51q0 -173 93 -269.5t227 -96.5 q171 0 227 106q10 17 17 41q13 41 45 41q21 0 37 -11t16 -36q0 -26 -33 -94q-42 -82 -140.5 -138.5t-246.5 -56.5q-203 0 -321 138q-17 22 -31 22q-12 0 -29 -20q-127 -140 -346 -140q-116 0 -208 37.5t-150.5 102.5t-89.5 150.5t-31 184.5zM311 479q0 -203 69.5 -311.5 t194.5 -108.5q127 0 193 101t66 299q0 201 -70 308t-193 107q-127 0 -193.5 -103t-66.5 -292zM1061 655q0 -7 5.5 -13.5t16.5 -6.5q257 0 334 14q56 10 56 58q0 163 -185 163q-146 0 -217 -159q-10 -25 -10 -56z" />
<glyph unicode="&#x178;" horiz-adv-x="1386" d="M14 1313q0 45 41 45q7 0 47.5 -3t101 -6t118.5 -3q42 0 170 6t135 6q35 0 35 -45q0 -51 -39 -51q-9 0 -26.5 1t-27.5 1q-86 0 -86 -54q0 -31 18.5 -69t71.5 -129l129 -217q25 -41 36.5 -53.5t21.5 -12.5q18 0 55 64l129 223q82 144 82 196q0 30 -23.5 41t-72.5 11 q-20 0 -37 -1t-21 -1q-34 0 -34 47q0 49 39 49l85 -6q84 -6 164 -6q73 0 132 6t63 6q41 0 41 -45q0 -49 -33 -49q-3 0 -13 1t-16 1q-40 0 -77 -37q-52 -55 -148 -211l-239 -400q-14 -18 -17 -38q-2 -10 -2 -43v-224q0 -152 29 -188q15 -19 34.5 -27t59.5 -8q4 0 18 1t17 1 q37 0 37 -47t-37 -47q-5 0 -47.5 3t-105 6t-117.5 3q-56 0 -123.5 -3t-114.5 -6t-51 -3q-17 0 -26 10.5t-9 38.5q0 23 10.5 34t24.5 11q2 0 18 -1t21 -1q85 0 102 41q21 44 21 184v199q0 36 -5 51q-2 14 -22 47l-244 394q-84 134 -143 219q-27 39 -82 39q-5 0 -17.5 -1 t-17.5 -1q-33 0 -33 51zM449 1561q0 48 30.5 78t73.5 30q45 0 74.5 -29t29.5 -79q0 -49 -30.5 -79t-75.5 -30q-44 0 -73 29.5t-29 79.5zM797 1561q0 48 31 78t75 30t73.5 -29t29.5 -79q0 -49 -30 -79t-75 -30q-46 0 -75 29.5t-29 79.5z" />
<glyph unicode="&#x2c6;" horiz-adv-x="593" d="M37 1108q0 18 8 29q118 172 197 303q21 35 61 35q35 0 53 -33q56 -93 191 -301q12 -17 12 -31q0 -15 -13 -26t-28 -11q-18 0 -37 19q-83 80 -159 168q-14 14 -25 14q-12 0 -25 -17q-94 -105 -168 -167q-24 -17 -32 -17q-12 0 -23.5 12t-11.5 23z" />
<glyph unicode="&#x2dc;" horiz-adv-x="593" d="M10 1149q0 15 8 39q31 94 73 132t93 38q39 0 144 -55q74 -39 116 -39q49 0 70 73q10 31 41 31q15 0 26 -9.5t11 -25.5q0 -15 -6 -39q-22 -88 -60.5 -131t-97.5 -43q-45 0 -137 45q-81 45 -117 45q-30 0 -49 -14t-37 -57q-10 -23 -37 -23q-19 0 -30 9.5t-11 23.5z" />
<glyph unicode="&#x2000;" horiz-adv-x="900" />
<glyph unicode="&#x2001;" horiz-adv-x="1800" />
<glyph unicode="&#x2002;" horiz-adv-x="900" />
<glyph unicode="&#x2003;" horiz-adv-x="1800" />
<glyph unicode="&#x2004;" horiz-adv-x="600" />
<glyph unicode="&#x2005;" horiz-adv-x="450" />
<glyph unicode="&#x2006;" horiz-adv-x="300" />
<glyph unicode="&#x2007;" horiz-adv-x="300" />
<glyph unicode="&#x2008;" horiz-adv-x="225" />
<glyph unicode="&#x2009;" horiz-adv-x="360" />
<glyph unicode="&#x200a;" horiz-adv-x="100" />
<glyph unicode="&#x2010;" horiz-adv-x="569" d="M55 512q0 51 10.5 70.5t32.5 19.5h379q23 0 30 -17t7 -71q0 -55 -7.5 -71.5t-33.5 -16.5h-375q-25 0 -34 17.5t-9 68.5z" />
<glyph unicode="&#x2011;" horiz-adv-x="569" d="M55 512q0 51 10.5 70.5t32.5 19.5h379q23 0 30 -17t7 -71q0 -55 -7.5 -71.5t-33.5 -16.5h-375q-25 0 -34 17.5t-9 68.5z" />
<glyph unicode="&#x2012;" horiz-adv-x="569" d="M55 512q0 51 10.5 70.5t32.5 19.5h379q23 0 30 -17t7 -71q0 -55 -7.5 -71.5t-33.5 -16.5h-375q-25 0 -34 17.5t-9 68.5z" />
<glyph unicode="&#x2013;" horiz-adv-x="907" d="M55 512q0 51 10.5 68.5t32.5 17.5h717q23 0 30 -15t7 -69t-7.5 -69t-33.5 -15h-713q-25 0 -34 16t-9 66z" />
<glyph unicode="&#x2014;" horiz-adv-x="1318" d="M55 512q0 51 10.5 68.5t32.5 17.5h1129q23 0 30 -15t7 -69t-7.5 -69t-33.5 -15h-1125q-25 0 -34 16t-9 66z" />
<glyph unicode="&#x2018;" horiz-adv-x="438" d="M78 1030q0 103 53.5 201t163.5 172q48 29 67 29q15 0 27 -11.5t12 -29.5q0 -11 -4 -19t-8.5 -11.5l-13.5 -10.5q-72 -45 -107 -92.5t-35 -112.5q0 -54 66 -94q57 -35 57 -105q0 -42 -34.5 -76t-90.5 -34q-76 0 -114.5 53.5t-38.5 140.5z" />
<glyph unicode="&#x2019;" horiz-adv-x="438" d="M39 866q0 26 27 39q71 42 105 91.5t34 115.5q0 56 -64 94q-57 32 -57 103q0 44 34 78t93 34q75 0 113 -54.5t38 -141.5q0 -103 -53.5 -200.5t-163.5 -170.5q-45 -31 -65 -31q-15 0 -28 12t-13 31z" />
<glyph unicode="&#x201a;" horiz-adv-x="438" d="M39 -301q0 25 27 39q139 83 139 207q0 58 -64 94q-57 32 -57 102q0 45 34 79t93 34q74 0 112.5 -55t38.5 -140q0 -104 -53 -200.5t-164 -171.5q-45 -31 -65 -31q-15 0 -28 12t-13 31z" />
<glyph unicode="&#x201c;" horiz-adv-x="808" d="M78 1030q0 103 53.5 201t163.5 172q48 29 67 29q15 0 27 -11.5t12 -29.5q0 -24 -24 -41q-73 -45 -108.5 -92.5t-35.5 -112.5q0 -54 66 -94q57 -35 57 -105q0 -42 -34.5 -76t-90.5 -34q-76 0 -114.5 53.5t-38.5 140.5zM449 1030q0 106 52.5 205t164.5 168q52 29 67 29 t27 -11.5t12 -29.5q0 -24 -24 -41q-72 -45 -107 -93t-35 -112q0 -56 66 -94q57 -37 57 -105q0 -42 -34.5 -76t-92.5 -34q-76 0 -114.5 53.5t-38.5 140.5z" />
<glyph unicode="&#x201d;" horiz-adv-x="808" d="M39 866q0 26 27 39q71 42 105 91.5t34 115.5q0 56 -64 94q-57 32 -57 103q0 44 34 78t93 34q75 0 113 -54.5t38 -141.5q0 -103 -53.5 -200.5t-163.5 -170.5q-45 -31 -65 -31q-15 0 -28 12t-13 31zM410 866q0 26 26 39q71 42 105 91.5t34 115.5q0 56 -63 94 q-57 32 -57 103q0 44 34 78t93 34q76 0 113.5 -54.5t37.5 -141.5q0 -103 -53.5 -200.5t-163.5 -170.5q-45 -31 -65 -31q-15 0 -28 12t-13 31z" />
<glyph unicode="&#x201e;" horiz-adv-x="808" d="M39 -301q0 25 27 39q139 83 139 207q0 58 -64 94q-57 32 -57 102q0 45 34 79t93 34q74 0 112.5 -55t38.5 -140q0 -104 -53 -200.5t-164 -171.5q-45 -31 -65 -31q-15 0 -28 12t-13 31zM410 -301q0 26 26 39q139 83 139 207q0 59 -63 94q-57 32 -57 102q0 45 34 79t93 34 q75 0 113 -55t38 -140q0 -104 -53 -200.5t-164 -171.5q-45 -31 -65 -31q-15 0 -28 12t-13 31z" />
<glyph unicode="&#x2022;" horiz-adv-x="745" d="M100 555q0 122 77 198t194 76q121 0 196.5 -75.5t75.5 -198.5q0 -127 -75.5 -204t-196.5 -77q-120 0 -195.5 76.5t-75.5 204.5z" />
<glyph unicode="&#x2026;" horiz-adv-x="1605" d="M133 123q0 65 42 104t106 39q61 0 97 -38t36 -103q0 -63 -39 -106.5t-99 -43.5q-65 0 -104 39t-39 109zM662 123q0 65 40.5 104t104.5 39q62 0 98.5 -37.5t36.5 -103.5q0 -63 -38.5 -106.5t-98.5 -43.5q-65 0 -104 39t-39 109zM1190 123q0 65 41.5 104t105.5 39 q61 0 98.5 -38t37.5 -103q0 -63 -39.5 -106.5t-100.5 -43.5q-65 0 -104 39t-39 109z" />
<glyph unicode="&#x202f;" horiz-adv-x="360" />
<glyph unicode="&#x2039;" horiz-adv-x="581" d="M47 506q0 18 6.5 28.5t24.5 22.5q177 130 344 266q32 27 51 27q15 0 29 -12.5t14 -30.5q0 -13 -22 -41q-71 -84 -215 -240q-11 -11 -11 -16q0 -10 13 -23q137 -152 208 -239q23 -29 23 -43q0 -15 -12.5 -30t-30.5 -15q-20 0 -59 35q-82 70 -336 268q-27 19 -27 43z" />
<glyph unicode="&#x203a;" horiz-adv-x="581" d="M66 203q0 15 22 43q75 86 217 237q8 11 8 19q0 7 -10 22q-152 165 -211 238q-22 32 -22 45q0 15 13.5 29t31.5 14q20 0 59 -33q133 -115 334 -268q27 -22 27 -43q0 -31 -31 -53q-165 -121 -344 -267q-35 -26 -51 -26q-14 0 -28.5 13.5t-14.5 29.5z" />
<glyph unicode="&#x205f;" horiz-adv-x="450" />
<glyph unicode="&#x20ac;" horiz-adv-x="1423" d="M156 524q0 47 39 47h98q11 0 17.5 8.5t6.5 20.5q0 23 1.5 48t2.5 41.5t1 19.5q0 20 -25 20h-102q-39 0 -39 47q0 49 39 49h120q20 0 27 25q107 450 584 450q93 0 163.5 -17t111 -42t65.5 -59.5t33 -64.5t8 -62q0 -92 -101 -92q-93 0 -102 94q-9 74 -45 112 q-46 50 -146 50q-129 0 -212.5 -89.5t-114.5 -236.5q0 -3 -4 -22.5t-4 -26.5q0 -19 22 -19h444q35 0 35 -51q0 -27 -9.5 -36t-27.5 -9h-458q-22 0 -25 -24q-2 -27 -2 -107q0 -10 6.5 -18.5t18.5 -8.5h460q37 0 37 -49q0 -47 -37 -47h-448q-16 0 -20.5 -8.5t-4.5 -24.5 q0 -25 9 -61q18 -87 52 -148t79.5 -93t94 -46t107.5 -14q116 0 194 45.5t112 132.5q7 22 12 84q4 51 49 51q27 0 39 -14.5t12 -34.5q0 -54 -18 -104q-94 -267 -424 -267q-110 0 -200 26.5t-151 70t-105.5 106.5t-68.5 130t-36 145q-3 24 -25 24h-106q-39 0 -39 49z" />
<glyph unicode="&#x2122;" horiz-adv-x="1798" d="M72 1186q0 2 5 62.5t5 84.5q0 25 20 25q3 0 31.5 -1.5t97.5 -3t168 -1.5q92 0 160.5 1t101 2t37.5 1q21 0 21 -23q0 -15 1 -51.5t2 -66.5t1 -31q0 -23 -33 -23q-30 0 -33 21q-7 65 -22 82q-17 22 -82 22q-76 0 -84 -6q-12 -6 -12 -39v-369q0 -82 18 -100q13 -16 53 -16 q2 0 18 1t19 1q25 0 25 -35q0 -12 -6 -21.5t-17 -9.5q-1 0 -65.5 4t-106.5 4q-30 0 -70 -2t-67.5 -4t-28.5 -2q-26 0 -26 31q0 35 24 35q3 0 18.5 -1t18.5 -1q39 0 51 24q15 35 15 92v363q0 33 -6 39q-7 9 -20 10.5t-56 1.5q-58 0 -82 -24q-23 -21 -31 -78q-5 -21 -33 -21 q-12 0 -21 6.5t-9 16.5zM766 723q0 35 29 35q1 0 11.5 -1t12.5 -1q36 0 49 20q16 20 21 82q22 275 22 348q0 51 -14 68q-16 16 -43 16q-4 0 -19 -1t-18 -1q-22 0 -22 31q0 39 26 39q2 0 56.5 -3t72.5 -3q20 0 69 2t50 2q16 0 23 -27q1 -3 51 -145q26 -71 62 -163.5 t40 -102.5q5 -9 8 -9q5 0 13 15q60 136 102 241q55 141 57 146q9 26 16 35.5t17 9.5q2 0 26 -1t52.5 -2t42.5 -1q20 0 66 2t49 2q22 0 22 -33q0 -35 -22 -35q-3 0 -19.5 1t-19.5 1q-39 0 -49 -16q-9 -12 -9 -76q0 -9 1 -33.5t4 -107t6 -197.5q2 -56 16 -84q13 -20 49 -20 q2 0 17.5 1t17.5 1q23 0 23 -33t-25 -33q-2 0 -26.5 1.5t-60 3t-63.5 1.5t-69.5 -1.5t-72 -3t-32.5 -1.5q-28 0 -28 31q0 35 26 35q2 0 16.5 -1t16.5 -1q38 0 51 20q15 22 15 84q0 46 -9 322q0 10 -6 10q-7 0 -12 -10q-29 -68 -81.5 -184.5t-80.5 -182.5q-35 -78 -41 -94 q-9 -27 -37 -27q-26 0 -34 25q-10 35 -31 90q-127 336 -141 371q-5 14 -13 14q-1 0 -3.5 -1.5t-4.5 -5.5t-2 -9q-12 -274 -12 -318q0 -71 12 -86q14 -18 47 -18q1 0 13.5 1t19.5 1q22 0 22 -35q0 -31 -26 -31q-2 0 -23.5 1t-53.5 2t-60 1q-22 0 -52.5 -1t-53 -2t-25.5 -1 q-25 0 -25 31z" />
<glyph unicode="&#xe000;" horiz-adv-x="931" d="M0 0v932h932v-932h-932z" />
</font>
</defs>
</svg>
