<?xml version="1.0" standalone="no"?>
<!DOCTYPE svg PUBLIC "-//W3C//DTD SVG 1.1//EN" "http://www.w3.org/Graphics/SVG/1.1/DTD/svg11.dtd" >
<svg xmlns="http://www.w3.org/2000/svg">
<metadata></metadata>
<defs>
<font id="ashburymedium_italic" horiz-adv-x="1161" >
<font-face units-per-em="2048" ascent="1536" descent="-512" />
<missing-glyph horiz-adv-x="438" />
<glyph unicode="&#xfb01;" horiz-adv-x="1343" d="M-436 -506q0 37 23.5 62.5t58.5 25.5q30 0 43 -26q15 -35 43 -56q27 -18 78 -18q39 0 79 20.5t68 53.5q98 114 223 680q32 142 111 536q4 24 4 31q0 16 -14 16q-24 0 -74 -1t-70 -1q-11 0 -17.5 6.5t-6.5 14.5q0 55 32 61q101 15 134 27q25 9 43 50t71 200 q34 105 78 180.5t82 114t94 79.5q66 49 162 72t184 23q67 0 124 -16.5t79 -37.5q66 -57 66 -143q0 -58 -36 -89.5t-79 -31.5q-54 0 -84 27.5t-35 66.5q-1 4 -4 26.5t-6.5 37.5t-7.5 24q-23 50 -90 50q-47 0 -100.5 -29t-84.5 -72q-94 -128 -151 -321q-49 -168 -49 -207 q0 -15 18 -15q71 0 276 7q70 2 149.5 17t96.5 15q49 0 70.5 -17.5t21.5 -68.5q0 -41 -24 -125.5t-96 -308.5q-70 -217 -70 -280q0 -48 43 -48q68 0 123 80q32 44 41 82q11 33 37 33q43 0 43 -35q0 -20 -21 -57q-25 -48 -63 -90q-64 -76 -142.5 -111t-142.5 -35 q-133 0 -133 109q0 70 108 403q68 205 68 279q0 47 -59 51q-125 4 -349 4q-18 0 -22 -20q-96 -453 -111 -514q-46 -193 -92.5 -334.5t-90.5 -227.5t-79.5 -134t-77.5 -85q-127 -114 -301 -114q-96 0 -155 39q-37 26 -37 65z" />
<glyph unicode="&#xfb02;" horiz-adv-x="1320" d="M-436 -506q0 37 23.5 62.5t58.5 25.5q30 0 43 -26q15 -35 43 -56q27 -18 78 -18q39 0 79 20.5t68 53.5q98 114 223 680q22 100 111 536q4 24 4 31q0 16 -14 16q-24 0 -74 -1t-70 -1q-11 0 -17.5 6.5t-6.5 14.5q0 58 32 61q90 11 134 27q26 9 47 55t67 195q47 150 105 231 t141 139q69 50 164.5 76.5t187.5 26.5q29 0 62 -4t48 -6.5t55 -11.5t42 -9q24 -6 51 -6q15 0 35 10q71 27 84 27q11 0 20 -7.5t9 -19.5q0 -25 -8 -49q-63 -187 -177 -565q-31 -105 -81.5 -280t-71.5 -245q-82 -267 -82 -331q0 -46 43 -46q35 0 68.5 23t56.5 55q27 37 41 82 q3 14 12.5 23.5t22.5 9.5q43 0 43 -35q0 -20 -21 -57q-22 -43 -63 -88q-66 -75 -144.5 -111.5t-140.5 -36.5q-133 0 -133 109q0 18 5 45t17 71t22.5 80.5t31.5 107t34 116.5q5 19 77 257t128 451q35 143 35 230q0 60 -39.5 90.5t-109.5 30.5q-68 0 -133.5 -35t-100.5 -80 q-95 -129 -145 -307q-49 -168 -49 -207q0 -15 18 -15q42 0 107 2.5t73 2.5q14 0 22.5 -11t8.5 -24q0 -68 -55 -68q-25 0 -87 1t-92 1q-18 0 -22 -20q-96 -453 -111 -514q-46 -193 -92.5 -334.5t-90.5 -227.5t-79.5 -134t-77.5 -85q-127 -114 -301 -114q-96 0 -155 39 q-37 26 -37 65z" />
<glyph unicode="&#xfb03;" horiz-adv-x="2009" d="M-436 -506q0 37 23.5 62.5t58.5 25.5q30 0 43 -26q15 -35 43 -56q27 -18 78 -18q39 0 79 20.5t68 53.5q98 114 223 680q56 252 111 536q4 24 4 31q0 16 -14 16q-24 0 -74 -1t-70 -1q-11 0 -17.5 6.5t-6.5 14.5q0 55 32 61q93 14 129 27q24 8 39.5 42.5t54.5 150.5 q10 28 15 44q35 103 75 172t74 103.5t86 70.5q129 95 289 95q119 0 172 -50q37 -34 37 -84q0 -41 -28 -65.5t-60 -24.5q-57 0 -72 45q-2 5 -5.5 16t-7 20.5t-7.5 17.5q-13 24 -32.5 31.5t-57.5 7.5q-40 0 -83.5 -32t-76.5 -83q-28 -42 -49.5 -96t-54.5 -170 q-47 -161 -47 -207q0 -6 6.5 -10.5t15.5 -4.5h256q97 0 135 19q26 12 45 54t64 186q34 104 79 180.5t84 115.5t95 80q66 49 161.5 72t184.5 23q65 0 120 -17.5t83 -38.5q65 -49 65 -141q0 -58 -36.5 -89.5t-80.5 -31.5q-54 0 -82.5 27t-33.5 67q-13 77 -19 88q-23 50 -90 50 q-47 0 -101 -29t-85 -72q-93 -125 -150 -321q-49 -157 -49 -207q0 -15 19 -15q70 0 278 7q68 2 147 17t97 15q48 0 70 -17.5t22 -68.5q0 -40 -23.5 -122t-97.5 -312q-72 -223 -72 -280q0 -48 44 -48q69 0 124 80q32 44 41 82q11 33 37 33q41 0 41 -35q0 -22 -20 -57 q-21 -40 -64 -90q-67 -74 -144 -110t-140 -36q-134 0 -134 109q0 72 111 403q66 199 66 279q0 47 -58 51q-125 4 -348 4q-18 0 -22 -20q-96 -453 -111 -514q-37 -155 -76 -275t-70 -191.5t-69.5 -129.5t-63 -84.5t-61.5 -59.5q-131 -114 -303 -114q-94 0 -162 39 q-19 11 -32 29t-13 36q0 35 24 59.5t58 24.5q23 0 43 -27q19 -31 49 -51q29 -18 88 -18q40 0 80 21t68 55q32 37 57 83.5t71 189t95 364.5q10 43 110 536q5 25 5 31q0 14 -19 14q-61 2 -190 2q-148 0 -224 -2q-18 0 -22 -20q-91 -431 -111 -512q-46 -192 -92 -334t-90 -228 t-80 -134t-78 -85q-127 -114 -301 -114q-96 0 -155 39q-37 26 -37 65z" />
<glyph unicode="&#xfb04;" horiz-adv-x="1988" d="M-436 -506q0 37 23.5 62.5t58.5 25.5q30 0 43 -26q15 -35 43 -56q27 -18 78 -18q39 0 79 20.5t68 53.5q98 114 223 680q56 252 111 536q4 24 4 31q0 16 -14 16q-24 0 -74 -1t-70 -1q-11 0 -17.5 6.5t-6.5 14.5q0 55 32 61q93 14 129 27q24 8 39.5 42.5t54.5 150.5 q10 28 15 44q35 103 75 172t74 103.5t86 70.5q129 95 289 95q119 0 172 -50q37 -34 37 -84q0 -41 -28 -65.5t-60 -24.5q-57 0 -72 45q-2 5 -5.5 16t-7 20.5t-7.5 17.5q-13 24 -32.5 31.5t-57.5 7.5q-40 0 -83.5 -32t-76.5 -83q-28 -42 -49.5 -96t-54.5 -170 q-47 -161 -47 -207q0 -6 6.5 -10.5t15.5 -4.5h256q97 0 135 19q26 12 45 54t64 186q45 149 105 230.5t145 141.5q69 50 164 76.5t188 26.5q29 0 62 -4t48 -6.5t55 -11.5t42 -9q21 -6 49 -6q8 0 43 14q50 23 78 23q11 0 19.5 -7.5t8.5 -19.5q0 -25 -8 -49q-45 -124 -178 -565 q-30 -102 -81 -277.5t-73 -247.5q-82 -281 -82 -331q0 -46 44 -46q65 0 126 78q27 37 41 82q3 14 12.5 23.5t22.5 9.5q41 0 41 -35q0 -22 -20 -57q-21 -40 -62 -88q-65 -76 -143 -112t-143 -36q-134 0 -134 109q0 22 10 64.5t22.5 86t37 126t41.5 143.5q11 39 79 268.5 t126 439.5q37 151 37 230q0 60 -41 90.5t-111 30.5q-67 0 -133.5 -35t-99.5 -80q-91 -119 -146 -307q-47 -161 -47 -207q0 -15 19 -15q42 0 107 2.5t73 2.5q14 0 22.5 -11t8.5 -24q0 -27 -13 -47.5t-43 -20.5q-24 0 -86 1t-92 1q-18 0 -22 -20q-96 -453 -111 -514 q-37 -155 -76 -275t-70 -191.5t-69.5 -129.5t-63 -84.5t-61.5 -59.5q-131 -114 -303 -114q-94 0 -162 39q-19 11 -32 29t-13 36q0 35 24 59.5t58 24.5q23 0 43 -27q19 -31 49 -51q29 -18 88 -18q40 0 80 21t68 55q32 37 57 83.5t71 189t95 364.5q10 43 110 536q5 25 5 31 q0 14 -19 14q-61 2 -190 2q-148 0 -224 -2q-18 0 -22 -20q-91 -431 -111 -512q-46 -192 -92 -334t-90 -228t-80 -134t-78 -85q-127 -114 -301 -114q-96 0 -155 39q-37 26 -37 65z" />
<glyph horiz-adv-x="2048" />
<glyph horiz-adv-x="2048" />
<glyph unicode="&#xd;" horiz-adv-x="2048" />
<glyph unicode=" "  horiz-adv-x="438" />
<glyph unicode="&#x09;" horiz-adv-x="438" />
<glyph unicode="&#xa0;" horiz-adv-x="438" />
<glyph unicode="!" horiz-adv-x="651" d="M147 102q0 75 44 119.5t114 44.5q46 0 83.5 -33.5t37.5 -89.5q0 -72 -41.5 -119t-110.5 -47q-57 0 -92 35.5t-35 89.5zM293 469q0 25 6 55q31 198 59.5 446.5t36.5 291.5q16 80 54.5 108.5t99.5 28.5q59 0 92 -24.5t33 -71.5q0 -53 -39 -168q-7 -20 -92.5 -252.5 t-136.5 -393.5q-9 -32 -22.5 -47.5t-43.5 -15.5q-47 0 -47 43z" />
<glyph unicode="&#x22;" horiz-adv-x="602" d="M209 938q0 28 6 84q4 44 11 125.5t11.5 131.5t8.5 64q10 42 34.5 63t73.5 21q80 0 80 -73q0 -26 -16 -72q-9 -27 -27 -75.5t-47.5 -126.5t-54.5 -146q-7 -21 -16.5 -28t-30.5 -7q-19 0 -26 9t-7 30zM500 938q0 28 6 84q24 293 31 321q9 42 34 63t72 21q82 0 82 -73 q0 -26 -16 -72q-1 -2 -47.5 -125.5t-81.5 -222.5q-7 -21 -18 -28t-32 -7q-18 0 -24 9t-6 30z" />
<glyph unicode="#" horiz-adv-x="1138" d="M119 381q3 50 35 121q13 26 41 26h149q25 0 31 21l61 174q6 18 6 25q0 18 -20 18h-160q-16 0 -21 5t-5 15q0 34 34 117q10 29 41 29h174q25 0 31 20l100 289q6 20 18.5 27.5t37.5 7.5q41 0 41 -23q0 -10 -8 -30l-89 -250q-6 -18 -6 -23q0 -18 23 -18h170q22 0 31 20 l98 289q4 12 7.5 18t15.5 11.5t32 5.5q41 0 41 -27q0 -8 -8 -28l-86 -242q-6 -18 -6 -27q0 -20 20 -20h123q27 0 27 -23q0 -14 -10.5 -54t-20.5 -62q-10 -27 -35 -27h-149q-22 0 -31 -21l-61 -174q-7 -21 -7 -24q0 -19 21 -19h149q27 0 27 -22q0 -39 -31 -115 q-16 -31 -39 -31h-168q-21 0 -30 -20l-117 -326q-5 -16 -14.5 -22t-34.5 -6q-24 0 -33.5 5.5t-9.5 20.5q0 5 12 37l96 268q6 24 6 27q0 16 -20 16h-172q-22 0 -31 -20l-114 -328q-10 -26 -52 -26q-22 0 -29 6.5t-7 19.5t12 45l88 258q6 15 6 27q0 18 -20 18h-132 q-28 0 -28 21zM469 547q0 -19 20 -19h170q25 0 31 21l60 162q8 24 8 34q0 21 -23 21h-168q-21 0 -30 -21l-62 -172q-6 -18 -6 -26z" />
<glyph unicode="$" horiz-adv-x="1081" d="M51 233q0 50 31.5 80.5t79.5 30.5q76 0 84 -80q1 -10 2.5 -32t3.5 -37.5t6 -24.5q11 -32 47.5 -57.5t79.5 -26.5q27 0 33 31l86 379q4 16 4 26q0 21 -14 29q-240 138 -240 342q0 160 118.5 262.5t297.5 122.5q10 1 13.5 5t6.5 17l35 142q10 45 53 45q19 0 31 -8t12 -21 q0 -5 -8 -37l-25 -102q-4 -20 -4 -27q0 -14 25 -18q139 -13 204.5 -65.5t65.5 -133.5q0 -47 -28 -74.5t-68 -27.5q-93 0 -96 82q0 58 -23 90q-33 45 -86 45q-21 0 -26 -27l-84 -379q-2 -8 -2 -20q0 -17 12 -23q262 -152 262 -354q0 -86 -34.5 -156.5t-95 -117.5t-136.5 -76 t-164 -39q-26 -3 -33 -35l-28 -123q-6 -24 -18 -33.5t-36 -9.5q-41 0 -41 31q0 9 4 33l21 92q1 4 3.5 15t2.5 16q0 16 -20 16q-81 4 -143.5 26.5t-98.5 56.5t-54 72.5t-18 77.5zM465 995q0 -117 84 -180q12 -6 18 -6q9 0 13 18l77 326q5 20 5 23q0 14 -19 14q-68 0 -123 -56 t-55 -139zM508 96q0 -14 20 -14q22 0 37 6q152 49 152 209q0 106 -88 176q-9 6 -19 6q-12 0 -16 -18l-82 -344q-4 -12 -4 -21z" />
<glyph unicode="%" horiz-adv-x="1642" d="M106 780q0 115 39 223t111 183q109 112 260 112q123 0 193.5 -74t70.5 -206q0 -101 -35 -213t-100 -191q-47 -58 -115.5 -90t-146.5 -32q-133 0 -205 76t-72 212zM266 723q0 -166 119 -166q85 0 143 111q44 82 69.5 197t25.5 204q0 166 -109 166q-86 0 -143 -92 q-46 -79 -75.5 -198.5t-29.5 -221.5zM397 23q0 11 19 40l790 1178q13 20 26.5 28.5t37.5 8.5q39 0 39 -27q0 -7 -15 -32l-798 -1190q-20 -33 -58 -33q-41 0 -41 27zM934 276q0 115 38.5 223t110.5 183q110 113 260 113q123 0 193 -74.5t70 -206.5q0 -102 -35 -213t-101 -190 q-99 -123 -262 -123q-132 0 -203 76t-71 212zM1094 219q0 -166 118 -166q84 0 142 111q42 83 68 198t26 203q0 166 -109 166q-84 0 -141 -92q-46 -78 -75 -197t-29 -223z" />
<glyph unicode="&#x26;" horiz-adv-x="1579" d="M63 369q0 313 390 422q24 7 24 20q0 3 -8 27q-39 97 -39 190q2 153 111 244.5t315 91.5q86 0 150 -16.5t97 -44t48.5 -57t15.5 -62.5q0 -43 -24.5 -74t-71.5 -31q-53 0 -73.5 23t-26.5 78q-7 45 -37 67q-30 23 -88 23q-77 0 -128.5 -44.5t-51.5 -135.5q0 -79 69 -242 q47 -114 128 -254t173 -256q12 -16 23 -16q10 0 22 12q120 124 123 262q0 40 -18 63q-27 42 -27 80q0 34 24 62t77 28q49 0 75.5 -32.5t26.5 -87.5q-1 -111 -66 -229.5t-155 -211.5q-15 -18 -15 -26q0 -12 11 -23q54 -59 92.5 -77.5t77.5 -18.5t65.5 17t54.5 65q13 22 31 22 q14 0 27.5 -8t13.5 -22q0 -15 -18 -47q-43 -76 -120 -128.5t-165 -52.5q-81 0 -134 20.5t-120 82.5q-18 18 -31 18q-7 0 -20 -10q-67 -50 -166.5 -78.5t-214.5 -28.5q-202 0 -324.5 105.5t-122.5 290.5zM305 424q0 -134 76 -230t211 -96q139 0 223 52q21 13 21 22q0 6 -7 16 q-131 173 -301 492q-14 29 -34 29q-70 0 -129.5 -73.5t-59.5 -211.5z" />
<glyph unicode="'" horiz-adv-x="311" d="M209 938q0 28 6 84q24 293 31 321q10 42 34.5 63t73.5 21q80 0 80 -73q0 -26 -16 -72q-10 -32 -54.5 -148t-74.5 -200q-7 -21 -16.5 -28t-30.5 -7q-19 0 -26 9t-7 30z" />
<glyph unicode="(" horiz-adv-x="647" d="M72 442q0 337 182 629.5t489 476.5q25 15 39 15q18 0 31.5 -17.5t13.5 -32.5q0 -19 -22 -36q-259 -198 -404 -462.5t-145 -590.5q0 -190 42.5 -368.5t123.5 -293.5q12 -20 12 -28q0 -18 -15.5 -34.5t-35.5 -16.5q-23 0 -39 16q-121 116 -196.5 324t-75.5 419z" />
<glyph unicode=")" horiz-adv-x="647" d="M-139 -268q0 20 22 37q256 195 396.5 462.5t140.5 595.5q0 438 -154 656q-12 20 -12 28q0 16 16 34t35 18q22 0 39 -17q120 -117 190 -317t70 -418q0 -340 -178 -636t-481 -478q-23 -14 -39 -14q-18 0 -31.5 17.5t-13.5 31.5z" />
<glyph unicode="*" horiz-adv-x="714" d="M217 1004q0 29 16 49.5t46 21.5q27 2 86 2q27 0 81 4q13 0 13 11q0 6 -10 14q-34 19 -138 57q-59 19 -59 68q0 29 23.5 56.5t54.5 27.5q15 0 27.5 -5.5t23 -19.5t16 -22.5t16 -29.5t13.5 -26q8 -15 47 -67q8 -8 14 -8q11 0 11 14q0 49 -9 90q-14 77 -14 82q0 63 76 63 q27 0 53.5 -14.5t26.5 -44.5q0 -12 -5 -26.5t-11 -24.5t-16.5 -26t-14.5 -23q-27 -44 -37 -76q-4 -8 -4 -18q0 -8 6 -11q9 0 20 11q53 43 103 88q24 24 59 24q30 0 51 -24t21 -58q0 -30 -21 -46.5t-53 -18.5q-23 -2 -78 -2q-20 0 -73 -11q-15 -4 -15 -10q0 -7 15 -14 q48 -25 71 -33q10 -4 33 -11.5t37 -13.5t24 -14q21 -17 21 -39q0 -31 -23 -58.5t-55 -27.5q-21 0 -39 15t-26.5 29.5t-24.5 45.5q-17 35 -49 76q-6 8 -12 8q-11 0 -11 -18q0 -17 11 -86q14 -72 14 -88q0 -31 -20 -49.5t-54 -18.5q-32 0 -57 16t-25 46q0 17 8 35t23.5 43 t21.5 38q31 65 31 82q0 11 -6 11q-7 0 -14 -5q-20 -14 -105 -90q-31 -28 -61 -28t-52 23t-22 55z" />
<glyph unicode="+" horiz-adv-x="1314" d="M186 500q0 14 2 24l21 74q6 29 33 29h383l94 403q8 35 33 35h98q24 0 24 -21q0 -7 -6 -28l-88 -389h381q25 0 25 -21q0 -4 -4 -28l-19 -74q-6 -25 -35 -25h-383l-92 -411q-10 -29 -35 -29h-94q-24 0 -24 20q0 13 4 25l90 395h-381q-27 0 -27 21z" />
<glyph unicode="," horiz-adv-x="479" d="M-147 -344q0 12 8.5 23t19.5 16q240 107 240 248q0 57 -74 114q-41 30 -41 80q0 55 40.5 92t98.5 37q76 0 118 -54t42 -134q0 -142 -98.5 -260t-251.5 -193q-34 -18 -64 -18q-18 0 -28 16t-10 33z" />
<glyph unicode="-" horiz-adv-x="569" d="M63 465q0 49 25 104q13 33 47 33h354q41 0 41 -39q0 -40 -18 -96q-9 -24 -20 -32.5t-33 -8.5h-357q-39 0 -39 39z" />
<glyph unicode="." horiz-adv-x="479" d="M23 102q0 75 43.5 119.5t113.5 44.5q47 0 84 -33.5t37 -89.5q0 -73 -40.5 -119.5t-110.5 -46.5q-57 0 -92 35.5t-35 89.5z" />
<glyph unicode="/" horiz-adv-x="839" d="M-82 -106q0 16 29 61l927 1489q14 24 29 33.5t39 9.5q33 0 44 -12t11 -33q0 -20 -18 -51l-944 -1508q-21 -35 -66 -35q-29 0 -40 11.5t-11 34.5z" />
<glyph unicode="0" d="M76 451q0 174 57 346t170 303q83 97 191 150t229 53q203 0 313.5 -126t110.5 -341q0 -179 -57 -358.5t-168 -311.5q-163 -193 -406 -193q-206 0 -323 128.5t-117 349.5zM317 365q0 -135 47 -215t148 -80q148 0 236 172q73 139 115 329t42 353q0 284 -182 284 q-140 0 -242 -174q-79 -137 -121.5 -316t-42.5 -353z" />
<glyph unicode="1" d="M193 33q0 23 11 41t34 18q4 0 22 -1t23 -1q76 0 102 37q26 35 55 160l131 569q33 150 33 180q0 41 -55 41q-22 0 -57.5 -3t-38.5 -3q-31 0 -31 39q0 41 49 53q62 13 176 59t176 76q34 15 47 15q31 0 31 -35q0 -4 -2.5 -14.5t-7.5 -29t-8 -30.5q-36 -128 -74 -295 l-145 -618q-19 -87 -19 -137q0 -64 98 -64q5 0 24 1t26 1q32 0 32 -35q0 -59 -51 -59q-7 0 -50 3t-105.5 6t-116.5 3q-51 0 -115.5 -3t-110 -6t-51.5 -3q-32 0 -32 35z" />
<glyph unicode="2" d="M-10 37q0 20 11.5 32.5t35.5 26.5q87 53 137.5 85.5t139 95t144 111.5t124 121t107 139t66 150.5t27.5 168.5q0 92 -56 148t-140 56q-103 0 -172 -53q-60 -50 -86 -121q-18 -41 -62 -41q-23 0 -35 14t-12 36q0 29 25 71q21 37 53.5 72t82.5 71t121.5 58t153.5 22 q201 0 293 -85t92 -232q0 -88 -26 -167t-78.5 -149t-112 -127t-145.5 -124q-143 -110 -289 -195q-18 -10 -18 -20q0 -4 0.5 -6t5.5 -4.5t16 -2.5q92 -4 234 -4q91 0 136.5 3.5t82 18t52 39t28.5 70.5q6 20 15.5 27.5t33.5 7.5q14 0 21.5 -1t13.5 -7.5t6 -19.5t-15 -60 q-44 -169 -53 -229q-8 -37 -63 -37q-2 0 -58 2.5t-152 5t-196 2.5q-118 0 -221.5 -2t-162.5 -4t-70 -2q-21 0 -28 9.5t-7 29.5z" />
<glyph unicode="3" d="M86 27q0 32 21.5 55.5t52.5 23.5q20 0 75.5 -22.5t100.5 -22.5q190 0 299.5 93t109.5 276q0 99 -52.5 161t-149.5 62q-84 0 -142 -20q-48 -12 -53 -12q-18 0 -27.5 15t-9.5 36q0 51 74 57q97 8 178 43q193 89 193 266q0 67 -42 106.5t-112 39.5q-133 0 -213 -123 q-13 -23 -26 -34t-37 -11q-23 0 -35 12t-12 31q0 39 28 74q50 70 157 118.5t245 48.5q154 0 227.5 -65.5t73.5 -163.5q0 -226 -308 -317q-24 -5 -24 -17q0 -11 22 -14q149 -12 228.5 -83.5t79.5 -180.5q0 -106 -45.5 -193.5t-121.5 -145t-177.5 -97t-210 -57t-222.5 -17.5 q-145 0 -145 78z" />
<glyph unicode="4" d="M53 354q0 63 43 103q65 65 351.5 354t455.5 455q50 47 109 47q42 0 54.5 -8.5t12.5 -30.5q0 -13 -7.5 -46t-20.5 -82.5t-17 -66.5l-125 -544q-4 -20 -4 -29q0 -17 29 -17h125q20 0 28.5 -5.5t8.5 -22.5q0 -40 -23 -107q-11 -35 -55 -35h-129q-17 0 -24 -7t-13 -31 l-64 -283q-6 -31 -28.5 -41t-93.5 -10q-66 0 -85.5 9.5t-19.5 29.5q0 10 6 34l56 236q8 32 8 39q0 13 -7.5 17.5t-25.5 4.5h-502q-23 0 -33 8.5t-10 28.5zM279 500q0 -17 22 -17h332q29 0 37.5 7t13.5 28q21 85 49 201t44.5 182t23.5 90q4 12 4 27q0 8 -8 8q-10 0 -27 -20 q-74 -76 -226.5 -229t-252.5 -255q-12 -12 -12 -22z" />
<glyph unicode="5" d="M76 23q0 39 21 65.5t59 26.5q12 0 23.5 -4.5t26 -12t23.5 -10.5q45 -18 95 -18q195 0 304 85t109 246q0 108 -100.5 176t-288.5 93q-26 4 -40.5 14.5t-14.5 38.5q0 14 14 68q15 50 72 217.5t76 224.5q7 21 14.5 30t24.5 9l70 -1q71 -1 124 -1q62 0 121.5 1t101 2t74 2 t50.5 2t20 1q30 0 30 -25q0 -13 -16 -64.5t-29 -76.5q-14 -27 -49 -27q-5 0 -58.5 0.5t-128 1t-128.5 0.5q-103 0 -150 -2q-18 -1 -26.5 -9.5t-16.5 -28.5q-49 -133 -49 -162q0 -20 33 -25q141 -16 242 -50.5t161 -86t87.5 -113.5t27.5 -139q0 -104 -42.5 -191.5 t-114.5 -147.5t-168.5 -102t-204 -61.5t-222.5 -19.5q-157 0 -157 74z" />
<glyph unicode="6" d="M135 406q0 135 30 266t93.5 249.5t151.5 208t213.5 142.5t271.5 53q113 0 181.5 -32t68.5 -97q0 -35 -27 -60.5t-59 -25.5q-62 0 -80 45q-13 39 -49.5 58.5t-87.5 19.5q-64 0 -121.5 -26.5t-100.5 -68.5t-80 -101t-62.5 -117t-45.5 -123q-24 -75 -24 -90q0 -11 10 -11 q6 0 18 17q107 131 295 131q164 0 257 -91t93 -239q0 -150 -60 -271t-182 -195.5t-288 -74.5q-192 0 -304 116t-112 317zM365 315q0 -117 48.5 -185.5t143.5 -68.5q73 0 130 40.5t89 107.5t48 143.5t16 157.5q0 108 -51 166.5t-130 58.5q-78 0 -139 -36t-106 -134 q-49 -104 -49 -250z" />
<glyph unicode="7" d="M207 918q0 7 14.5 54t39 126t40.5 139q6 23 19.5 31t41.5 8q6 0 60 -2t149.5 -4t204.5 -2q51 0 210.5 2t166.5 2q37 0 37 -27q0 -14 -25 -53q-220 -348 -386 -632t-306 -566q-25 -53 -84 -53q-29 0 -46 16t-17 41q0 20 30 80q193 363 617 966q10 15 10 25q0 13 -29 16 q-84 7 -237 7q-269 0 -316 -23q-31 -18 -51 -49.5t-55 -114.5q-11 -26 -49 -26q-22 0 -30.5 9.5t-8.5 29.5z" />
<glyph unicode="8" d="M96 283q0 128 79.5 216.5t225.5 127.5q29 6 29 18q0 9 -16 19q-142 105 -142 258q0 93 37 166t102 118.5t149 68.5t183 23q166 0 263.5 -76.5t97.5 -193.5q0 -114 -71 -196t-195 -121q-19 -5 -19 -19q0 -8 15 -16q198 -119 198 -309q0 -181 -142 -287.5t-368 -106.5 q-199 0 -312.5 89t-113.5 221zM291 287q0 -97 66 -159t173 -62q110 0 179 63.5t69 169.5q0 76 -57.5 150t-181.5 135q-8 4 -27 4q-13 0 -33 -10q-91 -54 -139.5 -122.5t-48.5 -168.5zM518 995q0 -66 39.5 -128.5t128.5 -104.5q20 -10 33 -10q6 0 31 10q73 38 119 107.5 t46 154.5t-50.5 135.5t-133.5 50.5q-96 0 -154.5 -58.5t-58.5 -156.5z" />
<glyph unicode="9" d="M70 111q0 42 28 67t66 25q33 0 49.5 -15t28.5 -41q15 -37 55.5 -59t91.5 -22q64 0 121.5 27.5t98.5 68.5t79.5 103t62.5 116t50 123q28 81 28 98q0 8 -8 8q-5 0 -22 -20q-115 -127 -299 -127q-163 0 -253.5 90.5t-90.5 239.5q0 111 37 207.5t104.5 169t171 114 t229.5 41.5q193 0 300.5 -108t107.5 -308q0 -97 -14 -192t-44 -188t-74 -175t-107.5 -152.5t-140.5 -121t-177 -79t-213 -28.5q-120 0 -193 35.5t-73 102.5zM397 788q0 -109 48.5 -164t129.5 -55q76 0 137.5 35.5t112.5 134.5q56 112 56 260q0 238 -189 238 q-60 0 -110 -28.5t-83.5 -75t-57 -106t-34 -120.5t-10.5 -119z" />
<glyph unicode=":" horiz-adv-x="522" d="M63 102q0 75 44 119.5t114 44.5q47 0 84 -33.5t37 -89.5q0 -72 -41 -119t-111 -47q-57 0 -92 35.5t-35 89.5zM199 756q0 76 44 120t115 44q46 0 83.5 -33.5t37.5 -89.5q0 -71 -41.5 -117.5t-111.5 -46.5q-56 0 -91.5 35.5t-35.5 87.5z" />
<glyph unicode=";" horiz-adv-x="522" d="M-98 -344q0 25 28 37q41 18 78 39.5t76 53t62.5 71.5t23.5 84q0 32 -17.5 58t-56.5 56q-41 35 -41 82q0 55 40.5 92t99.5 37q76 0 118.5 -54.5t42.5 -133.5q0 -142 -99.5 -260t-252.5 -193q-35 -18 -65 -18q-17 0 -27 16.5t-10 32.5zM199 756q0 76 44 120t115 44 q46 0 83.5 -33.5t37.5 -89.5q0 -71 -41.5 -117.5t-111.5 -46.5q-56 0 -91.5 35.5t-35.5 87.5z" />
<glyph unicode="&#x3c;" horiz-adv-x="1413" d="M256 508q0 17 4 33l21 92q7 29 30 39l936 418q20 8 29 8q14 0 14 -17q0 -14 -2 -28l-26 -111q-6 -23 -29 -35l-784 -338l628 -321q17 -8 17 -29q0 -11 -4 -35l-25 -92q-6 -26 -25 -26q-7 0 -16 6l-752 407q-16 8 -16 29z" />
<glyph unicode="=" horiz-adv-x="1413" d="M150 344q0 5 4 25l16 80q6 30 39 30h989q23 0 23 -24q0 -13 -4 -29l-17 -80q-6 -27 -37 -27h-989q-24 0 -24 25zM240 735q0 1 4 21l18 84q6 30 35 30h989q27 0 27 -24q0 -11 -6 -29l-19 -78q-6 -28 -33 -28h-991q-24 0 -24 24z" />
<glyph unicode="&#x3e;" horiz-adv-x="1413" d="M186 84q0 12 4 22l27 119q2 19 27 33l786 338l-629 324q-16 8 -16 26q0 11 6 35l19 90q3 27 24 27q14 0 25 -8l745 -406q19 -11 19 -25t-4 -30l-25 -103q-6 -22 -29 -32l-938 -420q-16 -8 -26 -8q-15 0 -15 18z" />
<glyph unicode="?" horiz-adv-x="956" d="M272 102q0 76 43 120t113 44q48 0 84.5 -33t36.5 -90q0 -73 -40 -119.5t-110 -46.5q-58 0 -92.5 35.5t-34.5 89.5zM274 1092q0 90 61.5 156.5t157 98t209.5 31.5q162 0 254.5 -70.5t92.5 -177.5q0 -71 -21 -128.5t-66.5 -104t-100 -82.5t-136.5 -78q-133 -68 -181 -110 t-48 -101q0 -15 2 -38.5t2 -28.5q0 -23 -14 -36t-37 -13q-35 0 -47.5 25t-12.5 79q0 108 52 180t167 146q195 123 195 307q0 63 -39 102t-102 39q-150 0 -173 -135q-2 -11 -4 -39.5t-4 -38.5q-15 -78 -112 -78q-42 0 -68.5 26.5t-26.5 68.5z" />
<glyph unicode="@" horiz-adv-x="1699" d="M147 358q0 175 65.5 337.5t178.5 285t276 195.5t347 73q281 0 435.5 -134t154.5 -390q0 -103 -38.5 -214t-102.5 -202t-158 -150t-195 -59q-56 0 -81 28.5t-25 74.5q0 43 26 123q2 6 5 16t5 17t2 10q0 10 -12 10q-10 0 -16 -12q-167 -271 -365 -271q-87 0 -133.5 54.5 t-46.5 132.5q0 192 154 387q172 219 405 219q34 0 77 -11.5t56 -11.5q27 0 43 35q19 35 56 35q61 0 61 -35q0 -20 -10 -43q-64 -190 -113 -364q-53 -181 -53 -230q0 -47 43 -47q57 0 111.5 51.5t91.5 128t59.5 161.5t22.5 153q0 221 -120.5 337.5t-340.5 116.5 q-152 0 -288 -65.5t-231 -174.5t-150.5 -254t-55.5 -300q0 -255 159 -407t420 -152q289 0 459 153q37 29 57 29q23 0 34 -12t11 -29q0 -22 -18 -43q-80 -87 -233.5 -141t-333.5 -54q-309 0 -502 176.5t-193 466.5zM637 319q0 -49 16.5 -74.5t57.5 -25.5q83 0 166 83.5 t155 203.5q74 124 74 225q0 66 -98 66q-66 -1 -129 -40.5t-111 -99.5q-54 -67 -92.5 -169.5t-38.5 -168.5z" />
<glyph unicode="A" horiz-adv-x="1468" d="M-92 35q0 22 12 39.5t35 17.5q3 0 17 -1t22 -1q44 0 80 41q50 50 121 162q63 101 200 318.5t225 359t138 225.5q39 72 47 94q11 33 45 51q81 35 131 35q15 0 25.5 -10t11.5 -27q1 -5 2 -17.5t3.5 -37.5t6.5 -59q62 -411 144 -932q16 -108 45 -164q20 -39 81 -39q6 0 18 1 t17 1q14 0 23.5 -11t9.5 -30q0 -53 -51 -53q-4 0 -113 6t-160 6q-50 0 -166.5 -6t-117.5 -6q-37 0 -37 37q0 23 12 40t35 17q8 0 29 -1t24 -1q66 0 94.5 19t28.5 61q0 34 -12 123l-21 151q-4 38 -16 51t-43 13h-338q-25 0 -39.5 -11t-30.5 -38l-104 -164q-3 -5 -12.5 -20 t-12.5 -20t-10.5 -18t-10.5 -19t-8.5 -16.5t-7.5 -17.5t-5 -16t-4 -17t-1 -16q0 -23 22.5 -34t78.5 -11q9 0 25 1l16 1q34 0 34 -37q0 -25 -11.5 -41t-33.5 -16q-2 0 -118 6t-166 6q-51 0 -109.5 -6t-62.5 -6q-37 0 -37 37zM545 627q0 -15 12 -20t53 -5h207q64 0 64 31 q0 17 -4 49l-48 360q-3 21 -12 21q-11 0 -29 -27l-219 -360q-24 -36 -24 -49z" />
<glyph unicode="B" horiz-adv-x="1318" d="M-31 37q0 22 12 38.5t33 16.5q2 0 18 -1t21 -1q74 0 101 37q30 39 63 184l166 729q25 108 25 158q0 38 -22.5 52t-68.5 14q-7 0 -24 -1t-19 -1q-32 0 -32 34q0 24 13.5 43t41.5 19q7 0 48 -4t102 -7.5t116 -3.5q27 0 147.5 5.5t161.5 5.5q410 0 410 -264q0 -80 -26 -142 t-76 -103.5t-110 -68.5t-140 -47q-17 -6 -17 -12q0 -9 13 -12q141 -18 218 -93t77 -182q0 -94 -33.5 -169t-90 -123.5t-135.5 -80.5t-165 -45.5t-183 -13.5q-32 0 -168.5 6t-181.5 6q-55 0 -115.5 -3t-101 -6t-45.5 -3q-33 0 -33 39zM430 172q0 -39 49.5 -55.5t153.5 -16.5 q156 0 240.5 87t84.5 247q0 223 -319 223q-53 0 -82 -4q-29 -3 -39 -43l-69 -295q-19 -85 -19 -143zM557 778q0 -17 23 -24q8 -2 47 -2q86 0 156 16.5t127 52.5t88.5 100.5t31.5 153.5q0 93 -61 140t-170 47q-65 0 -99 -5q-33 -4 -43 -49l-92 -387q-8 -40 -8 -43z" />
<glyph unicode="C" horiz-adv-x="1413" d="M127 541q0 123 30.5 241t97 226.5t162.5 190.5t236 130.5t308 48.5q211 0 374 -55q49 -16 49 -57q0 -4 -2 -34.5t-4 -91t-4 -134.5q0 -43 -45 -43q-31 0 -41 11.5t-10 33.5q-3 117 -43 176q-29 41 -98.5 67.5t-178.5 26.5q-113 0 -209.5 -43t-163 -115t-113.5 -166.5 t-69 -196.5t-22 -206q0 -225 108 -350t285 -125q88 0 170 27.5t133 74.5q59 54 119 168q16 29 49 29q16 0 28.5 -7.5t12.5 -19.5q0 -19 -26.5 -105.5t-51.5 -121.5q-33 -45 -104 -74q-82 -36 -169 -54t-220 -18q-124 0 -223.5 30t-167 82t-112.5 124.5t-65 154.5t-20 175z " />
<glyph unicode="D" horiz-adv-x="1533" d="M-43 35q0 23 11.5 39t31.5 16q2 0 18 -1t21 -1q72 0 98 41q28 43 60 184l172 721q24 108 24 164q0 66 -104 66q-4 0 -18 -1t-17 -1q-33 0 -33 38q0 24 12 40t37 16q5 0 43.5 -2t97 -4t113.5 -2q42 0 125.5 3t120.5 3q345 0 512 -99q106 -62 165.5 -171.5t59.5 -247.5 q0 -215 -63 -376.5t-180.5 -262t-277.5 -150t-363 -49.5q-68 0 -230.5 3t-189.5 3q-56 0 -103.5 -2t-74.5 -4t-31 -2q-37 0 -37 39zM420 197q0 -32 18 -51.5t77 -31.5t167 -12q258 0 410.5 193t152.5 516q0 221 -86 317q-113 125 -354 125q-100 0 -130 -20t-50 -105 l-189 -811q-16 -71 -16 -120z" />
<glyph unicode="E" horiz-adv-x="1216" d="M-43 33q0 23 11 40t34 17q4 0 20 -1t21 -1q67 0 96 43q32 57 60 182l172 742q22 96 22 139q0 37 -23 53.5t-71 16.5q-5 0 -23 -1t-20 -1q-31 0 -31 32q0 25 11 43.5t34 18.5q7 0 81 -2.5t168.5 -5t150.5 -2.5q178 0 333.5 4t161.5 4q41 0 41 -39q0 -8 -3 -33.5t-9.5 -88 t-13.5 -132.5q-3 -37 -45 -37q-45 0 -45 35q0 61 -5.5 94.5t-23.5 56.5q-20 27 -59.5 34t-133.5 7q-27 0 -180 -6q-19 0 -30.5 -12t-18.5 -41l-84 -358q-6 -21 -6 -46q0 -36 67 -36q118 0 164 18q31 11 53 41.5t46 101.5q11 33 51 33q39 0 39 -33q0 -15 -15.5 -69 t-40 -149.5t-41.5 -190.5q-5 -33 -45 -33q-41 0 -41 31q0 8 1 23t1 22q0 49 -7 67t-23 29q-32 19 -172 19q-41 0 -58.5 -10.5t-23.5 -39.5l-78 -342q-12 -54 -12 -96t47.5 -56t185.5 -14q190 0 254 37q43 24 76 68t70 113q16 28 47 28q45 0 45 -35q0 -23 -34 -113t-61 -141 q-29 -63 -83 -63q-90 0 -288 5t-337 5q-55 0 -135.5 -3t-141 -6t-67.5 -3q-15 0 -25 10t-10 27z" />
<glyph unicode="F" horiz-adv-x="1185" d="M-43 33q0 24 11 40.5t32 16.5q5 0 20.5 -1t20.5 -1q37 0 56.5 8t37.5 29q27 34 64 188l172 742q22 96 22 139q0 37 -23 53.5t-71 16.5q-5 0 -23 -1t-20 -1q-31 0 -31 32q0 25 11 43.5t34 18.5q7 0 81 -2.5t168.5 -5t150.5 -2.5q178 0 348 4t178 4q22 0 32.5 -8.5 t10.5 -30.5q0 -8 -3 -35.5t-10 -90.5t-14 -134q-3 -37 -45 -37q-47 0 -47 35q0 62 -5.5 96.5t-22.5 58.5q-20 26 -67.5 34.5t-131.5 8.5q-46 0 -205 -6q-19 0 -30.5 -12t-18.5 -41l-88 -379q-6 -21 -6 -45q0 -37 67 -37q111 0 164 17q29 11 50.5 42t47.5 103q11 33 52 33 q39 0 39 -33q0 -15 -15.5 -70t-40 -152t-41.5 -192q-5 -33 -45 -33q-41 0 -41 31q0 7 1 22t1 23q0 84 -30 101q-30 18 -172 18q-42 0 -59 -10t-23 -39l-64 -281q-22 -99 -22 -147q0 -39 30.5 -57.5t79.5 -18.5q5 0 25.5 1t25.5 1q29 0 29 -35q0 -25 -12.5 -42t-34.5 -17 q-5 0 -53 3t-116 6t-122 3q-55 0 -118 -3t-105 -6t-47 -3q-21 0 -30 11t-9 26z" />
<glyph unicode="G" horiz-adv-x="1538" d="M127 543q0 176 61 329.5t170.5 265.5t270 176t350.5 64q107 0 187 -9t116 -19t82 -27q43 -13 43 -57q0 -9 -1.5 -36t-3.5 -85t-3 -139q0 -43 -56 -43q-46 0 -49 41q-7 125 -43 180q-62 96 -288 96q-119 0 -217.5 -43.5t-164.5 -115.5t-111.5 -168.5t-66 -200.5 t-20.5 -213q0 -214 107 -335.5t307 -121.5q102 0 155 19.5t82 56.5q28 44 47 139q19 101 19 127q0 40 -26.5 60t-72.5 20q-9 0 -30.5 -1t-24.5 -1q-33 0 -33 39q0 23 12 43t33 20q5 0 57 -2.5t123.5 -5t125.5 -2.5q50 0 98 3t77.5 6t35.5 3q22 0 31.5 -10t9.5 -33 q0 -25 -13 -42t-33 -17q-5 0 -19 1t-24 1q-42 0 -67 -35q-22 -34 -51 -168q-15 -66 -15 -127q0 -17 4.5 -38t4.5 -34q0 -18 -13.5 -32t-32.5 -17q-112 -18 -133 -24q-65 -18 -102.5 -27.5t-106.5 -19t-139 -9.5q-163 0 -289 43t-203.5 120t-117 179t-39.5 226z" />
<glyph unicode="H" horiz-adv-x="1579" d="M-43 33q0 24 11 40.5t32 16.5q5 0 20.5 -1t20.5 -1q37 0 56.5 8t37.5 29q27 34 64 188l170 725q24 104 24 160q0 66 -94 66q-5 0 -21.5 -1t-21.5 -1q-31 0 -31 32q0 27 12 44.5t37 17.5q6 0 47 -3t102 -6.5t114 -3.5q54 0 117 3.5t105.5 6.5t47.5 3q37 0 37 -37 q0 -22 -11 -39.5t-30 -17.5q-4 0 -20 1t-21 1q-67 0 -94 -37q-29 -37 -66 -193l-47 -205q-1 -4 -3 -14t-3.5 -18.5t-1.5 -12.5q0 -19 22 -23.5t99 -4.5h387q71 0 90 8q19 10 29 47l53 227q24 104 24 160q0 66 -92 66q-5 0 -21.5 -1t-21.5 -1q-15 0 -23 9t-8 23 q0 27 12.5 44.5t35.5 17.5q5 0 46.5 -3t102.5 -6.5t115 -3.5q55 0 117.5 3.5t104 6.5t46.5 3q39 0 39 -37q0 -22 -11.5 -39.5t-31.5 -17.5q-4 0 -19 1t-20 1q-38 0 -58.5 -8t-35.5 -29q-29 -37 -66 -193l-166 -717q-26 -110 -26 -163q0 -66 94 -66q5 0 21.5 1t21.5 1 q15 0 23 -10t8 -25q0 -25 -12.5 -42t-36.5 -17q-5 0 -46.5 3t-103 6t-115.5 3t-116.5 -3t-104.5 -6t-47 -3q-21 0 -30 11t-9 26q0 23 12 40t31 17q4 0 20 -1t21 -1q65 0 92 37q30 38 66 188l63 277q4 16 4 31q0 17 -17.5 24.5t-72.5 7.5h-391q-93 0 -117 -8q-20 -9 -26 -41 l-66 -287q-24 -114 -24 -163q0 -66 94 -66q5 0 21 1t20 1q31 0 31 -35q0 -25 -13 -42t-35 -17q-6 0 -47.5 3t-102.5 6t-114 3q-55 0 -118 -3t-105 -6t-47 -3q-21 0 -30 11t-9 26z" />
<glyph unicode="I" horiz-adv-x="718" d="M-43 33q0 24 11 40.5t32 16.5q5 0 20.5 -1t20.5 -1q37 0 56.5 8t37.5 29q27 34 64 188l170 725q24 104 24 160q0 66 -94 66q-5 0 -21.5 -1t-21.5 -1q-31 0 -31 32q0 27 12 44.5t37 17.5q6 0 47 -3t102 -6.5t114 -3.5q55 0 118 3.5t105 6.5t47 3q37 0 37 -37 q0 -22 -11 -39.5t-30 -17.5q-4 0 -19 1t-20 1q-69 0 -96 -37q-29 -37 -66 -193l-164 -717q-26 -110 -26 -163q0 -66 94 -66q5 0 21 1t20 1q31 0 31 -35q0 -25 -12.5 -42t-35.5 -17q-6 0 -47.5 3t-102.5 6t-114 3q-55 0 -118 -3t-105 -6t-47 -3q-21 0 -30 11t-9 26z" />
<glyph unicode="J" horiz-adv-x="733" d="M-268 -172q0 43 26 71.5t68 28.5q39 0 70 -39q24 -30 71 -30q121 0 178 143q58 145 242 1034q21 108 21 160q0 68 -101 68q-5 0 -26 -1t-25 -1q-31 0 -31 36q0 58 49 58q7 0 53.5 -3t113 -6.5t122.5 -3.5q54 0 113.5 3.5t99.5 6.5t47 3q39 0 39 -35q0 -23 -10 -41 t-31 -18q-5 0 -21 1t-18 1q-58 0 -90 -29q-16 -14 -29.5 -54.5t-33.5 -129.5q-33 -147 -80 -379t-80 -379q-25 -114 -74.5 -209.5t-109 -158.5t-128.5 -107.5t-133.5 -64t-123.5 -19.5q-168 0 -168 94z" />
<glyph unicode="K" horiz-adv-x="1501" d="M-43 33q0 24 11 40.5t32 16.5q5 0 20.5 -1t20.5 -1q37 0 56.5 8t37.5 29q27 34 64 188l170 725q24 104 24 160q0 66 -94 66q-5 0 -21.5 -1t-21.5 -1q-31 0 -31 32q0 27 12 44.5t37 17.5q6 0 47 -3t102 -6.5t114 -3.5q55 0 118 3.5t105 6.5t47 3q37 0 37 -37 q0 -22 -11 -39.5t-30 -17.5q-4 0 -19 1t-20 1q-69 0 -96 -37q-29 -37 -66 -193l-164 -717q-26 -110 -26 -163q0 -37 23 -51.5t67 -14.5q5 0 21 1t20 1q35 0 35 -35q0 -25 -12.5 -42t-35.5 -17q-6 0 -47.5 3t-102.5 6t-114 3q-55 0 -118 -3t-105 -6t-47 -3q-21 0 -30 11 t-9 26zM557 684q0 40 53 55q53 14 113 62q109 88 285 266q70 70 95 104t25 54q0 37 -55 37q-7 0 -23 -1t-20 -1q-13 0 -22 9t-9 27q0 23 13.5 42.5t36.5 19.5q6 0 49 -4t102 -8.5t105 -4.5q49 0 122.5 8.5t79.5 8.5q39 0 39 -39q0 -25 -12 -42t-37 -17q-5 0 -20 1t-21 1 q-47 -3 -100 -33q-4 -3 -23 -15t-27.5 -18t-29 -21t-37.5 -29t-42.5 -37t-53.5 -50q-173 -162 -293 -279q-31 -28 -31 -47t21 -57q206 -364 385 -543q41 -41 92 -41q8 0 25 1t20 1q35 0 35 -37q0 -43 -47 -55q-41 -10 -154 -10q-149 0 -223 63q-47 39 -82.5 86t-79.5 119 q-88 144 -162 279q-47 82 -69 102q-23 23 -23 43z" />
<glyph unicode="L" horiz-adv-x="1214" d="M-43 33q0 23 11 40t34 17q4 0 20 -1t21 -1q67 0 96 43q27 49 60 182l170 725q24 104 24 160q0 66 -94 66q-5 0 -21.5 -1t-21.5 -1q-31 0 -31 32q0 27 12 44.5t37 17.5q6 0 47 -3t102 -6.5t114 -3.5q54 0 119.5 3.5t110.5 6.5t50 3q37 0 37 -37q0 -22 -11 -39.5t-30 -17.5 q-5 0 -21.5 1t-21.5 1q-68 0 -102 -37q-29 -36 -66 -191l-176 -764q-12 -54 -12 -96q0 -41 47.5 -54t185.5 -13q181 0 252 38q43 24 76.5 70.5t71.5 118.5q17 29 47 29q45 0 45 -37q0 -22 -33 -117t-59 -150q-29 -63 -84 -63q-90 0 -289 5t-338 5q-55 0 -135.5 -3t-141 -6 t-67.5 -3q-15 0 -25 10t-10 27z" />
<glyph unicode="M" horiz-adv-x="1847" d="M-63 39q0 22 12.5 38.5t36.5 16.5q4 0 18.5 -1t18.5 -1q37 0 57.5 9t38.5 30q32 32 74 176q207 706 225 789q16 86 16 106q0 60 -84 60q-7 0 -30 -1t-29 -1q-14 0 -21.5 10.5t-7.5 25.5q0 62 49 62q1 0 93.5 -7.5t154.5 -7.5q39 0 105.5 6.5t70.5 6.5q31 0 35 -33 q13 -176 29 -293q56 -428 82 -602q4 -18 12 -18q11 0 25 22q70 115 197.5 321.5t191.5 309.5q60 101 143 252q7 12 12 19t19.5 14.5t34.5 7.5q3 0 73 -6.5t109 -6.5q68 0 138 7l69 8q39 0 39 -39q0 -23 -11 -41t-35 -18q-4 0 -21 1t-22 1q-57 0 -92 -27q-29 -23 -57 -145 q-3 -13 -12.5 -69t-44.5 -260t-76 -444q-19 -114 -19 -159q0 -66 97 -66q5 0 21 1t22 1q32 0 32 -39q0 -25 -14 -41t-43 -16q-5 0 -54 3.5t-119 7t-126 3.5t-116.5 -3.5t-99 -7t-42.5 -3.5q-35 0 -35 35q0 24 12 42.5t35 18.5q3 0 21 -1t22 -1q84 0 113 41q19 27 55 184 q5 23 135 752q1 8 4 17.5t3 11.5q0 10 -13 10q-6 0 -18 -18q-80 -128 -254 -411.5t-266 -432.5q-24 -36 -68.5 -109t-58.5 -96q-23 -39 -60 -39q-23 0 -33.5 10t-11.5 35q-3 50 -20 182q-33 271 -119 863q-3 22 -12 22q-16 0 -21 -18q-27 -104 -74 -279t-81 -304t-52 -204 q-22 -104 -22 -151q0 -36 24.5 -51t73.5 -15q3 0 21 1t26 1q33 0 33 -41q0 -25 -16.5 -40t-42.5 -15q-4 0 -40.5 3t-94.5 6t-113 3q-46 0 -89 -3t-69 -6t-31 -3q-38 0 -38 41z" />
<glyph unicode="N" horiz-adv-x="1574" d="M-63 33q0 24 13.5 41.5t41.5 17.5q4 0 17 -1t18 -1q72 0 100 41q32 46 63 174q147 589 179 735q22 99 22 140q0 32 -14 53q-26 31 -98 31q-5 0 -20 -1t-19 -1q-33 0 -33 32q0 25 11.5 42.5t37.5 17.5q7 0 89.5 -4t105.5 -4q26 0 86 4t71 4q18 0 28.5 -11t20.5 -30 q45 -84 130 -236t120 -217q103 -179 248 -418q15 -24 27 -24t16 16l23.5 94t29.5 125q43 192 80 381q21 123 21 168q0 32 -25.5 47t-64.5 15q-6 0 -30 -1t-28 -1q-37 0 -37 32q0 25 14 43.5t40 18.5q3 0 36 -3t90 -6.5t117 -3.5q46 0 93 3.5t77.5 6.5t36.5 3q45 0 45 -35 q0 -23 -12.5 -41t-36.5 -18q-6 0 -25.5 1t-25.5 1q-65 0 -94 -33q-34 -38 -72 -197q-78 -317 -225 -1016q-9 -45 -64 -45q-39 0 -53 29q-51 108 -102 197q-56 102 -123.5 220t-116 200.5t-129.5 219t-121 205.5q-8 13 -20 13q-15 0 -19 -23q-15 -58 -82 -350 q-35 -150 -84 -379q-18 -94 -18 -135q0 -32 10 -45q21 -35 100 -35q2 0 20.5 1t25.5 1q30 0 30 -31q0 -63 -51 -63q-7 0 -38.5 2.5t-82.5 5t-106 2.5q-56 0 -108.5 -2.5t-84.5 -5t-37 -2.5q-34 0 -34 35z" />
<glyph unicode="O" horiz-adv-x="1488" d="M125 539q0 146 44 294t122 252q108 145 250.5 219t345.5 74q261 0 404 -140t143 -400q0 -390 -193 -627q-195 -238 -539 -238q-269 0 -423 147t-154 419zM383 477q0 -183 80 -296t231 -113q231 0 346 217q134 257 134 610q-2 178 -74 282.5t-213 104.5q-250 0 -387 -274 q-117 -234 -117 -531z" />
<glyph unicode="P" horiz-adv-x="1245" d="M-43 29q0 61 47 61q3 0 18.5 -1t20.5 -1q66 0 96 45q25 36 60 178l170 725q24 111 24 162q0 66 -94 66q-5 0 -22 -1t-19 -1q-14 0 -23.5 8.5t-9.5 21.5q0 64 47 64q7 0 51.5 -3t108.5 -6.5t119 -3.5q27 0 148.5 5.5t164.5 5.5q216 0 317 -86t101 -226q0 -119 -50.5 -210 t-138.5 -145.5t-198 -81.5t-238 -27q-22 0 -68 2t-52 2q-20 0 -31 -10t-17 -37l-53 -222q-24 -111 -24 -155q0 -36 25 -52t81 -16q4 0 26 1t27 1q15 0 25 -10t10 -27q0 -57 -57 -57q-5 0 -118.5 5t-182.5 5q-55 0 -113.5 -3t-96 -6t-42.5 -3q-15 0 -27 8.5t-12 24.5z M535 719q0 -23 16 -33q16 -8 74 -8q182 0 288.5 84t106.5 262q0 103 -61.5 168t-184.5 65q-59 0 -92 -8q-30 -6 -41 -57l-100 -430q-1 -8 -3.5 -23t-2.5 -20z" />
<glyph unicode="Q" horiz-adv-x="1488" d="M125 539q0 146 44 294t122 252q108 145 250.5 219t345.5 74q261 0 404 -140t143 -400q0 -390 -193 -627q-111 -136 -274 -193q-19 -10 -19 -22q0 -14 15 -21q44 -22 133.5 -73t166 -89.5t150.5 -64.5q179 -63 385 -63q111 0 201 34q6 2 20.5 8.5t26.5 10.5t20 4 q18 0 29.5 -12.5t11.5 -32.5q0 -28 -32 -49q-168 -78 -447 -78q-119 0 -231 19t-194.5 46t-176 73.5t-152 82.5t-149 93t-141.5 87q-10 6 -43 17q-200 67 -308 198.5t-108 352.5zM383 477q0 -183 80 -296t231 -113q231 0 346 217q134 257 134 610q-2 178 -74 282.5 t-213 104.5q-250 0 -387 -274q-117 -234 -117 -531z" />
<glyph unicode="R" horiz-adv-x="1427" d="M-43 33q0 21 12 39t33 18q4 0 21 -1t22 -1q62 0 92 43q29 41 60 170l170 735q24 101 24 162q0 64 -94 64q-5 0 -20 -1t-19 -1q-33 0 -33 38q0 22 12 40t33 18q7 0 49.5 -3t104.5 -6.5t117 -3.5q26 0 127 5.5t149 5.5q224 0 332 -83t108 -212q0 -175 -106 -273t-289 -131 q-20 -3 -20 -14q0 -7 12 -14q71 -42 123 -156q113 -233 166 -315t121 -82q4 0 18 1t23 1q14 0 23 -10.5t9 -28.5q0 -36 -39 -49t-116 -13q-104 0 -165.5 24t-111.5 83q-43 47 -121 254q-65 177 -92 221q-14 26 -31.5 38.5t-48.5 18.5q-23 4 -69 4q-20 0 -30.5 -8.5 t-16.5 -34.5l-64 -274q-20 -94 -20 -149q0 -64 96 -64q4 0 18 1t17 1q35 0 35 -35q0 -59 -48 -59q-6 0 -52 3t-113.5 6t-126.5 3q-49 0 -149 -5t-101 -5q-12 0 -21.5 10t-9.5 25zM541 752q0 -17 20 -29q24 -12 78 -12q172 0 270.5 78t98.5 245q0 102 -61.5 162.5 t-166.5 60.5q-71 0 -98 -4q-33 -3 -43 -51l-92 -405q-6 -24 -6 -45z" />
<glyph unicode="S" horiz-adv-x="1060" d="M63 354q0 17 14 29t40 12q44 0 47 -37q14 -113 53 -182q24 -42 92.5 -75t155.5 -33q147 0 227 62.5t80 180.5q0 64 -41.5 120t-126.5 120l-147 108q-203 154 -203 338q0 98 38 172t106.5 119t157.5 67.5t198 22.5q125 0 266 -43q57 -16 57 -53q0 -5 -3 -42t-6 -93 t-3 -107q0 -32 -51 -32q-43 0 -43 43q-5 96 -37 155q-44 76 -209 76q-120 0 -192 -53t-72 -152q0 -54 28.5 -105t112.5 -114l137 -104q60 -45 96.5 -77.5t73 -78t53.5 -98.5t17 -117q0 -83 -29.5 -152t-79.5 -116.5t-118 -80.5t-144 -48t-157 -15q-105 0 -206 30.5 t-141 64.5q-25 18 -28 51q-13 204 -13 237z" />
<glyph unicode="T" horiz-adv-x="1335" d="M176 1044q0 9 7.5 33t29 94.5t43.5 149.5q11 37 39 37q3 0 46 -3t172.5 -6t344.5 -3q211 0 341 2.5t175.5 5t50.5 2.5q35 0 35 -37l-51 -272q-7 -35 -51 -35q-43 0 -43 32q0 3 3 36.5t3 47.5q0 52 -23 82q-23 25 -69.5 33t-126.5 8q-116 0 -139 -16q-23 -17 -37 -78 l-199 -862q-20 -94 -20 -127q0 -29 8 -45q21 -35 104 -35q3 0 22 1t25 1q14 0 22.5 -11.5t8.5 -27.5q0 -20 -11 -36.5t-34 -16.5l-117 6q-117 6 -192 6q-53 0 -118.5 -3t-110 -6t-48.5 -3q-17 0 -25 12.5t-8 28.5q0 20 11.5 35.5t29.5 15.5q5 0 21.5 -1t21.5 -1 q36 0 69.5 11t47.5 30q30 44 58 164l192 842q12 50 12 77q0 20 -18 27q-30 12 -137 12q-116 0 -179 -47q-59 -44 -96 -162q-11 -30 -49 -30q-41 0 -41 32z" />
<glyph unicode="U" horiz-adv-x="1552" d="M188 354q0 74 17 157t60 247t71 289q24 114 24 153q0 24 -8 37q-16 27 -78 27q-5 0 -19.5 -1t-18.5 -1q-31 0 -31 34q0 60 51 60q5 0 49 -3t108.5 -6.5t121.5 -3.5q56 0 111.5 3.5t90 6.5t39.5 3q43 0 43 -37q0 -25 -11 -41t-32 -16q-3 0 -19 1t-20 1q-54 0 -90 -27 q-21 -18 -36.5 -57t-39.5 -138q-2 -6 -30.5 -125.5t-39 -165t-30 -137.5t-27.5 -150t-8 -97q0 -137 76.5 -207t210.5 -70q99 0 173 21t126 58t92 103t66.5 141.5t52.5 186.5q53 219 96 442q19 98 19 158t-95 60q-4 0 -24.5 -1.5t-24.5 -1.5q-30 0 -30 35q0 28 14 46t39 18 q9 0 93.5 -6.5t137.5 -6.5q55 0 119.5 6.5t67.5 6.5q51 0 51 -33q0 -61 -39 -61q-7 0 -26 1t-23 1q-53 -3 -82 -35q-41 -48 -72 -185q-10 -44 -60 -270.5t-63 -281.5q-29 -129 -78 -223t-125.5 -162t-187.5 -102t-258 -34q-129 0 -225.5 28.5t-154 81t-86 121t-28.5 152.5z " />
<glyph unicode="V" horiz-adv-x="1404" d="M180 1290q0 28 12.5 47t38.5 19q4 0 104.5 -4t151.5 -4q50 0 162 4t113 4q39 0 39 -39q0 -23 -11.5 -40t-35.5 -17q-8 0 -29.5 1t-24.5 1q-58 0 -83 -17.5t-25 -73.5q0 -46 8 -114l84 -613q8 -54 12 -69t13 -15q8 0 19 14t42 66l369 611q80 134 80 163q0 28 -15 39 t-65 11q-9 0 -28 -1t-21 -1q-15 0 -23 10t-8 26q0 24 12.5 41t38.5 17q2 0 97 -4t145 -4q48 0 114 4t70 4q37 0 37 -37q0 -29 -13.5 -43t-33.5 -14q-4 0 -17 1t-20 1q-50 0 -84 -41q-40 -44 -115 -162q-95 -147 -559 -889q-71 -120 -94 -154q-25 -41 -68 -41q-25 0 -38 13.5 t-15 29.5q-2 13 -5.5 52t-6.5 63q-21 171 -144 926q-18 117 -41 168q-13 35 -61 35q-6 0 -23 -1t-22 -1q-14 0 -23.5 7.5t-9.5 20.5z" />
<glyph unicode="W" horiz-adv-x="2017" d="M188 1303q0 23 15.5 38t40.5 15q4 0 99 -4t146 -4q57 0 165 3l108 3q41 0 41 -37q0 -24 -12 -40.5t-35 -16.5q-8 0 -28 1t-23 1q-70 0 -94.5 -25.5t-24.5 -91.5q0 -94 2 -129l24 -580q1 -30 4 -38.5t11 -8.5q6 0 12.5 7t24.5 36l417 709q94 154 95 157q15 29 29 40.5 t36 11.5q38 0 47 -43q3 -19 11 -70t10 -66l112 -749q3 -24 6 -31.5t11 -7.5q13 0 35 43l288 575q80 160 80 199q0 34 -19.5 48t-76.5 14q-3 0 -23 -1t-26 -1q-14 0 -22.5 11t-8.5 25q0 24 12 41t35 17q1 0 103.5 -3t152.5 -3q51 0 109.5 4t62.5 4q39 0 39 -41 q0 -20 -12 -36.5t-33 -16.5q-10 0 -23 1t-18 1q-34 0 -63 -29q-22 -21 -93 -155q-12 -21 -18 -33q-239 -449 -483 -916q-46 -89 -64 -115q-24 -39 -59 -39q-40 0 -49 31q-11 51 -23 131q-8 51 -48 318t-69 450q-4 26 -8 33.5t-12 7.5q-11 0 -35 -41q-350 -576 -463 -772 q-32 -59 -74 -119q-24 -39 -59 -39q-41 0 -47 31q-7 29 -12 115q-3 58 -13.5 209.5t-27.5 376t-25 338.5q-10 141 -26 184q-13 33 -64 33q-6 0 -20 -1t-19 -1q-31 0 -31 41z" />
<glyph unicode="X" horiz-adv-x="1519" d="M-61 39q0 53 51 53q3 0 17 -1t18 -1q43 0 90 37q38 30 213 205l323 334q21 26 21 34q0 12 -15 39l-151 289q-14 28 -30.5 56.5t-28 47.5t-31 50.5t-31.5 50.5q-11 20 -26 25.5t-40 5.5q-5 0 -19 -1t-19 -1q-10 0 -18.5 10t-8.5 33q0 22 13 37.5t36 15.5q1 0 112.5 -6 t182.5 -6q38 0 135 6t103 6q32 0 32 -37q0 -59 -49 -59q-8 0 -29 1t-30 1q-66 0 -66 -43q0 -27 82 -187l78 -147q21 -43 33 -43q10 0 53 43l135 143q82 89 114 129.5t32 63.5q0 26 -16.5 33.5t-57.5 7.5q-11 0 -30 -1t-25 -1q-13 0 -22 12t-9 29q0 53 43 53l89 -6 q89 -7 161 -7q68 0 126 6.5t62 6.5q41 0 41 -39q0 -23 -10.5 -39t-30.5 -16q-4 0 -17 1t-18 1q-45 0 -88 -37q-19 -16 -49.5 -46t-77 -78t-71.5 -73l-258 -262q-25 -25 -25 -37q0 -13 12 -33l193 -364q61 -115 121 -209q22 -35 75 -35q4 0 17.5 1t17.5 1q33 0 33 -43 q0 -51 -51 -51q-3 0 -103 6t-172 6q-48 0 -158 -6t-114 -6q-35 0 -35 35q0 59 49 59q7 0 25 -1t29 -1q75 0 75 45q0 46 -78 191l-118 219q-19 39 -29 39q-4 0 -7 -1.5t-8 -5.5t-8.5 -7.5t-11.5 -12t-14 -14.5l-205 -217q-110 -120 -130 -148q-21 -30 -21 -47q0 -24 16 -32.5 t59 -8.5q15 0 38 1t28 1q12 0 21.5 -10t9.5 -29q0 -24 -12.5 -39.5t-37.5 -15.5l-89 6q-89 6 -162 6t-144 -7t-74 -7q-36 0 -36 43z" />
<glyph unicode="Y" horiz-adv-x="1388" d="M195 1296q0 26 14 44t41 18q7 0 46 -3t98.5 -6t117.5 -3q42 0 165 6t130 6q31 0 31 -37q0 -26 -13.5 -42.5t-38.5 -16.5q-9 0 -25 1t-26 1q-48 0 -76 -14t-28 -54q0 -48 49 -184l76 -211q15 -43 23.5 -57.5t17.5 -14.5q7 0 13.5 3.5t22.5 19.5t41 47l175 217 q131 165 131 205q0 29 -18 36t-68 7q-21 0 -38.5 -1t-19.5 -1q-14 0 -22 8t-8 22q0 66 51 66l81 -6q82 -6 162 -6q66 0 133 6t70 6q24 0 35.5 -8t11.5 -31q0 -24 -12.5 -39.5t-26.5 -15.5q-3 0 -19 1t-22 1q-38 0 -81 -37q-54 -44 -195 -211l-332 -400q-14 -13 -24 -38 q-7 -15 -13 -43l-53 -224q-22 -94 -22 -151q0 -31 18 -49q20 -23 88 -23q4 0 18 1t17 1q19 0 26 -8.5t7 -28.5q0 -23 -13.5 -40t-40.5 -17q-5 0 -49.5 3t-109 6t-119.5 3q-56 0 -122 -3t-111.5 -6t-49.5 -3q-33 0 -33 35q0 22 12.5 40.5t35.5 18.5q2 0 21 -1t24 -1 q79 0 104 41q34 53 64 184l45 199q8 28 8 49q0 19 -12 49l-154 394q-44 118 -92 219q-19 39 -70 39q-5 0 -17.5 -1t-17.5 -1q-32 0 -32 34z" />
<glyph unicode="Z" horiz-adv-x="1296" d="M2 33q0 19 21 43q448 503 962 1116q23 28 23 37q0 11 -7 14.5t-26 3.5q-94 2 -242 2q-95 0 -131.5 -0.5t-79.5 -6.5t-65 -19q-35 -20 -61 -58t-62 -118q-13 -33 -53 -33q-41 0 -41 35q0 10 10 38t33 94.5t45 137.5q7 23 21.5 32t43.5 9q3 0 154.5 -4t300.5 -4 q97 0 215 0.5t197 1t81 0.5q31 0 31 -31q0 -13 -20 -43q-96 -114 -444 -520t-498 -584q-2 -2 -8.5 -9.5t-10 -11.5t-7 -10.5t-3.5 -11.5q0 -20 31 -20q23 0 132.5 -1t149.5 -1q104 0 194 13.5t128 37.5q44 29 75 67.5t64 108.5q17 39 47 39q26 0 36.5 -8t10.5 -31 q0 -30 -108 -309q-14 -31 -54 -31q-1 0 -71 1t-193.5 2t-253.5 1q-21 0 -269.5 -1t-266.5 -1q-14 0 -22.5 9.5t-8.5 23.5z" />
<glyph unicode="[" horiz-adv-x="655" d="M16 -272q0 12 5 31.5t12.5 46.5t11.5 44l336 1461q15 61 28 124t13 64q10 43 45 43q27 0 95 -1t97 -1q23 0 64 1t65 1q20 0 28.5 -7t8.5 -26q0 -59 -47 -59q-20 0 -49 1t-47 1q-41 0 -70 -2q-20 0 -30 -43l-363 -1571q-6 -15 -6 -29t25 -14q18 -2 61 -2q18 0 45 1t47 1 q31 0 31 -35q0 -57 -47 -57q-23 0 -62 1t-63 1q-30 0 -106.5 -1t-96.5 -1q-31 0 -31 27z" />
<glyph unicode="\" horiz-adv-x="909" d="M242 1337q0 18 14 33.5t41 15.5q33 0 45.5 -10.5t22.5 -40.5l430 -1341q12 -32 12 -60q0 -20 -16 -32.5t-41 -12.5q-27 0 -41 12t-23 42l-432 1335q-12 42 -12 59z" />
<glyph unicode="]" horiz-adv-x="655" d="M-121 -266q0 59 49 59q20 0 49.5 -1t47.5 -1q40 0 67 2q25 0 33 43l358 1557q6 30 6 34q0 19 -12 21q-16 4 -69 4q-18 0 -45.5 -1t-47.5 -1q-13 0 -22.5 8.5t-9.5 26.5q0 57 47 57q24 0 64 -1t63 -1q30 0 106 1t96 1q31 0 31 -26q0 -10 -4.5 -30t-12 -48.5t-11.5 -44.5 l-336 -1461q-15 -61 -28 -124t-13 -64q-10 -43 -47 -43q-27 0 -94.5 1t-96.5 1q-23 0 -64 -1t-65 -1q-20 0 -29.5 7t-9.5 26z" />
<glyph unicode="^" horiz-adv-x="1314" d="M250 537q0 5 14 26l506 686q18 21 35 21h96q23 0 29 -21l174 -686q4 -12 4 -20q0 -21 -27 -21h-108q-21 0 -27 21l-129 547l-387 -547q-15 -21 -35 -21h-123q-22 0 -22 15z" />
<glyph unicode="_" horiz-adv-x="1034" d="M-137 -297q0 28 8 64q6 17 15 23.5t28 6.5h1022q29 0 29 -24q0 -29 -9 -70q-6 -25 -32 -25h-1033q-28 0 -28 25z" />
<glyph unicode="`" horiz-adv-x="600" d="M139 1393q2 31 27.5 54t66.5 23q51 0 78 -61q52 -104 138 -264q12 -18 12 -39q0 -13 -11.5 -24t-27.5 -11q-24 0 -51 29q-149 152 -201 219q-31 36 -31 74z" />
<glyph unicode="a" horiz-adv-x="1193" d="M37 178q0 254 190 496q216 270 480 270q82 0 145 -18q5 -1 17 -5.5t22.5 -8t15.5 -3.5q19 0 33 17q6 9 21 39q9 20 22.5 27t42.5 7q55 0 55 -34q0 -20 -10 -47q-14 -44 -50 -152t-58 -178t-43 -146q-58 -208 -58 -280q0 -58 53 -58q25 0 60 20.5t63 55.5q35 44 45 90 q6 31 37 31q37 0 37 -35q0 -16 -33 -80q-50 -88 -143 -150.5t-178 -62.5q-120 0 -123 117q0 82 39 195q2 9 6 20.5t6 18.5t2 10q0 10 -14 10q-15 0 -23 -14q-64 -109 -71 -119q-92 -135 -182.5 -187.5t-194.5 -52.5q-96 0 -153.5 57.5t-57.5 149.5zM260 231q0 -108 86 -108 q77 0 154 74q111 103 205 280q64 118 83 203q19 70 19 96q0 36 -33 54t-84 18q-130 0 -260 -174q-77 -100 -123.5 -227.5t-46.5 -215.5z" />
<glyph unicode="b" horiz-adv-x="1132" d="M129 193q0 82 37 221q39 139 131 445t123 415q29 102 29 133q0 61 -97 80q-20 6 -20 29q0 13 7.5 22.5t16.5 11.5q174 38 322 95q24 8 31 8q9 0 17.5 -6.5t8.5 -18.5q0 -9 -8 -29q-15 -44 -79.5 -241t-127.5 -385q-51 -163 -119 -330q-4 -12 -4 -16q0 -9 11 -9 q12 0 18 11q77 128 199 227q124 100 258 100q82 0 134 -51.5t52 -140.5q0 -229 -137 -465q-88 -147 -233.5 -236.5t-284.5 -89.5q-81 0 -139.5 19t-88.5 52.5t-43.5 70t-13.5 78.5zM324 188q0 -114 116 -114q183 0 316 278q48 97 67 186t19 146q0 111 -82 111 q-104 0 -209 -117q-49 -53 -95.5 -124.5t-74.5 -135.5q-57 -128 -57 -230z" />
<glyph unicode="c" horiz-adv-x="884" d="M61 256q0 272 181 494q92 113 194 160.5t228 47.5q91 0 154 -39.5t63 -107.5q0 -43 -24.5 -69.5t-68.5 -26.5q-39 0 -58 16.5t-21 42.5q-3 50 -23 76q-18 27 -74 27q-71 0 -144 -71.5t-130 -207.5q-34 -83 -52 -169t-18 -146q0 -91 43.5 -145t120.5 -54q89 0 156 38 t106 101q17 24 25 51q12 37 39 37q18 0 31.5 -9.5t13.5 -29.5q0 -21 -21 -55q-69 -111 -179 -178.5t-249 -67.5q-136 0 -214.5 80.5t-78.5 204.5z" />
<glyph unicode="d" horiz-adv-x="1216" d="M37 190q0 103 33.5 207.5t119.5 233.5q100 149 233 237t282 88q85 0 129 -16q30 -10 40 -10q20 0 31 43l82 289q27 92 27 145q0 30 -20.5 50t-71.5 30q-23 7 -23 29q0 28 25 34q189 41 325 95q24 8 29 8q27 0 27 -27q0 -10 -7 -27q-92 -244 -211 -643 q-118 -388 -155 -524q-53 -198 -53 -270q0 -29 10 -43.5t35 -14.5q43 0 87 35t72 90q10 22 15 43q8 29 37 29q16 0 27.5 -8.5t11.5 -22.5t-17 -53q-50 -103 -150.5 -173.5t-191.5 -70.5q-67 0 -93 31.5t-26 73.5q0 77 45 229q7 21 7 25q0 10 -13 10q-9 0 -20 -14 q-11 -16 -33.5 -51.5t-44.5 -65.5q-179 -240 -383 -240q-110 0 -163.5 63t-53.5 156zM260 233q0 -55 21.5 -82.5t70.5 -27.5q78 0 154 70q86 80 172.5 219t126.5 270q18 70 18 92q0 41 -18 57q-39 31 -119 31q-64 0 -131 -47t-123 -123q-71 -99 -121.5 -231.5t-50.5 -227.5z " />
<glyph unicode="e" horiz-adv-x="905" d="M61 256q0 165 67 311t183 254q74 69 166.5 104.5t175.5 35.5q107 0 164 -42t57 -124q0 -138 -172 -226q-75 -39 -146.5 -60.5t-223.5 -53.5q-41 -9 -51 -52q-15 -73 -15 -122q0 -93 46.5 -145t117.5 -52q169 0 258 129q23 33 33 63q11 35 39 35q22 0 32.5 -11t10.5 -24 q0 -22 -23 -63q-65 -105 -171.5 -173.5t-252.5 -68.5q-136 0 -215.5 80.5t-79.5 204.5zM315 543q0 -19 19 -19q8 0 24 4q96 27 166 66.5t103 80.5t47 73.5t14 58.5q0 74 -82 74q-29 0 -73.5 -22t-86.5 -71q-32 -37 -68 -98.5t-56 -120.5q-7 -14 -7 -26z" />
<glyph unicode="f" horiz-adv-x="690" d="M-436 -506q0 37 23.5 62.5t58.5 25.5q30 0 43 -26q15 -35 43 -56q27 -18 78 -18q39 0 79 20.5t68 53.5q98 114 223 680q51 231 111 536q4 24 4 31q0 16 -14 16q-24 0 -74 -1t-70 -1q-11 0 -17.5 6.5t-6.5 14.5q0 55 32 61q101 15 134 27q26 10 46 54.5t68 195.5 q33 105 74.5 179.5t79 113.5t92.5 79q66 50 156 73.5t170 23.5q133 0 186 -50q43 -34 43 -82q0 -49 -34.5 -78.5t-72.5 -29.5q-32 0 -48 9.5t-25 31.5q0 1 -8.5 27.5t-14.5 37.5q-28 48 -92 48q-43 0 -92 -29t-80 -72q-81 -110 -143 -321q-49 -168 -49 -207q0 -15 18 -15 q42 0 107 2.5t73 2.5q14 0 22.5 -11t8.5 -24q0 -68 -55 -68q-25 0 -87 1t-92 1q-18 0 -22 -20q-88 -415 -111 -514q-45 -192 -91 -333.5t-90.5 -227.5t-80.5 -134.5t-78 -85.5q-127 -114 -301 -114q-96 0 -155 39q-37 26 -37 65z" />
<glyph unicode="g" horiz-adv-x="993" d="M-94 -340q0 74 47.5 129.5t155.5 101.5q78 34 167 52q27 4 27 14t-18 14q-80 18 -120 55.5t-40 84.5q0 44 29.5 82.5t115.5 70.5q37 12 37 25q0 11 -18 16q-82 30 -125 98t-43 160q0 170 120 281.5t312 111.5q145 0 231 -53q19 -14 39 -14q23 0 47 24q69 66 131 66 q44 0 69.5 -22.5t25.5 -59.5q0 -47 -24.5 -71.5t-59.5 -24.5q-20 0 -66 24q-32 13 -41 13q-33 0 -33 -60q0 -10 3.5 -41.5t3.5 -36.5q0 -96 -29 -171t-109 -142q-80 -68 -227 -106q-84 -21 -127 -48q-70 -43 -70 -88q0 -62 125 -82q199 -37 306.5 -79t148.5 -95t41 -135 q0 -78 -33 -144t-98.5 -117.5t-172.5 -81t-245 -29.5q-223 0 -353 79t-130 199zM80 -328q0 -96 91.5 -150t221.5 -54q90 0 157.5 21.5t103.5 57.5t52.5 73.5t16.5 76.5q0 66 -64 115q-105 73 -260 73q-122 0 -227 -63q-92 -53 -92 -150zM319 532q0 -76 33.5 -127t98.5 -51 q58 0 103.5 34t70 89.5t37 115.5t12.5 122q0 75 -31.5 118.5t-97.5 43.5q-57 0 -102.5 -36.5t-71 -91.5t-39 -111.5t-13.5 -105.5z" />
<glyph unicode="h" horiz-adv-x="1212" d="M96 68q0 25 8 53q54 184 168.5 559.5t182.5 607.5q24 82 24 115q-2 33 -22.5 53t-71.5 31q-23 7 -23 31q0 11 7 21t16 11q182 40 322 95q24 8 34 8q9 0 17 -6t8 -17t-8 -31q-6 -18 -59 -175t-104 -307.5t-105 -305t-74 -203.5q-4 -12 -4 -14q0 -10 12 -10q7 0 14 10 q72 113 135 178q178 180 357 180q59 0 95 -28t36 -80q0 -91 -123 -416q-78 -203 -78 -276q0 -46 41 -46q34 0 72 24.5t65 72.5q24 40 31 63q9 35 39 35q21 0 30 -11.5t9 -23.5q0 -15 -17 -49q-20 -40 -61 -88q-63 -75 -141 -115.5t-156 -40.5q-64 0 -95.5 25t-31.5 82 q0 27 11 69.5t24 80t37.5 105.5t38.5 111q82 251 82 293q0 52 -52 52q-60 0 -143 -70q-84 -67 -184 -225q-92 -138 -137 -338q-8 -29 -13 -103q-5 -39 -25 -54t-73 -15q-54 0 -84.5 23.5t-30.5 58.5z" />
<glyph unicode="i" horiz-adv-x="708" d="M68 686q0 26 18 53q61 95 155.5 156t186.5 61q119 0 119 -114q0 -45 -23 -121.5t-98 -286.5q-84 -236 -84 -280q0 -48 43 -48q70 0 125 80q32 44 41 82q11 33 37 33q41 0 41 -35q0 -20 -21 -57q-22 -43 -63 -90q-67 -74 -144.5 -110t-140.5 -36q-133 0 -133 109 q0 64 125 403q78 210 78 283q0 30 -9 41.5t-30 11.5q-28 0 -63 -22.5t-60 -61.5q-10 -15 -27 -59q-8 -23 -41 -23q-12 0 -22 9.5t-10 21.5zM391 1296q0 71 40 112.5t104 41.5q41 0 73.5 -30.5t32.5 -82.5q0 -67 -36 -110t-99 -43q-52 0 -83.5 32t-31.5 80z" />
<glyph unicode="j" horiz-adv-x="645" d="M-383 -502q0 34 22 59t60 25q45 0 63 -37q12 -26 38 -42.5t55 -16.5q68 0 122 88q40 65 98 240t97.5 317.5t95.5 353.5q58 208 58 283q0 30 -9 41.5t-30 11.5q-29 0 -64.5 -22.5t-58.5 -61.5q-22 -36 -27 -59q-8 -23 -41 -23q-12 0 -22.5 9.5t-10.5 21.5q0 22 21 53 q61 95 154 156t184 61q61 0 90 -27.5t29 -86.5q0 -54 -16 -135.5t-70 -272.5q-124 -441 -191.5 -612t-163.5 -283q-49 -56 -130 -100.5t-165 -44.5q-96 0 -143 33q-19 11 -32 30.5t-13 40.5zM387 1292q0 72 39.5 112t105.5 40q42 0 75.5 -30t33.5 -83q0 -65 -37 -108 t-100 -43q-52 0 -84.5 32t-32.5 80z" />
<glyph unicode="k" horiz-adv-x="1187" d="M100 70q0 32 6 53q63 214 173.5 583t171.5 578q22 78 22 119q0 33 -20 53t-72 31q-21 6 -21 31q0 11 7 21t16 11q191 42 326 95q24 8 32 8q9 0 17 -6t8 -17q0 -15 -8 -35q-50 -134 -187 -571q-251 -796 -260 -891q-2 -23 -2 -72q0 -38 -22 -56.5t-78 -18.5 q-54 0 -81.5 23.5t-27.5 60.5zM465 526q0 21 33 60q178 215 362 323q94 54 176 54q58 0 94.5 -25.5t36.5 -65.5q0 -50 -27.5 -82t-66.5 -32q-33 0 -49 24q-20 33 -66 33q-35 0 -77 -20q-100 -45 -181 -121q-43 -37 -43 -70q0 -13 27 -74q55 -119 150 -288q58 -107 108 -107 q29 0 57.5 17t47.5 45q28 48 32 79q7 33 41 33q17 0 27 -10.5t10 -26.5q0 -47 -74 -149q-112 -148 -245 -148q-78 0 -125 68q-34 49 -67.5 120t-110.5 253q-25 50 -37 65q-3 4 -13 12.5t-15 16t-5 16.5z" />
<glyph unicode="l" horiz-adv-x="686" d="M109 82q0 21 7 56.5t25 101t31.5 112t44.5 150.5q149 481 236 782q20 71 20 119q0 33 -20 53t-72 31q-23 7 -23 31q0 11 7 21t16 11q186 41 324 95q24 8 32 8q9 0 17 -6t8 -17t-8 -31q-35 -100 -185 -591q-31 -104 -86.5 -279.5t-76.5 -245.5q-82 -263 -82 -329 q0 -48 43 -48q70 0 125 80q30 42 40 82q11 33 37 33q41 0 41 -35q0 -22 -20 -57q-26 -50 -62 -90q-64 -76 -142.5 -111t-143.5 -35q-133 0 -133 109z" />
<glyph unicode="m" horiz-adv-x="1740" d="M68 688q0 26 24 60q62 94 153.5 151t184.5 57q46 0 73 -24.5t27 -59.5q0 -42 -19 -98t-73 -184q-4 -12 -4 -15q0 -8 15 -8q9 0 14 11q5 8 21 36t23.5 40.5t22.5 36t31 44.5t35 43q148 172 309 172q127 0 127 -112q0 -65 -78 -246q-4 -8 -4 -17q0 -8 15 -8q7 0 14 11 q62 108 137 194q161 178 340 178q54 0 93.5 -25.5t39.5 -86.5q0 -26 -5 -54.5t-17.5 -69t-23.5 -72t-34.5 -95.5t-38.5 -107q-81 -230 -84 -286q0 -48 44 -48q72 0 131 84q22 31 34 72q12 39 39 39q20 0 30.5 -10.5t10.5 -24.5q0 -15 -20 -55q-36 -68 -90 -119 q-128 -119 -262 -119q-129 0 -129 99q0 17 4.5 40.5t18 68t23.5 76t35.5 108.5t40.5 122q68 205 68 256q0 45 -47 45q-59 0 -125 -57q-147 -126 -217 -280q-90 -206 -96 -297q-2 -22 -4 -53t-3 -38q-2 -37 -20.5 -57t-71.5 -20q-62 0 -91.5 24.5t-29.5 63.5q0 16 15 69 q15 52 52 168.5t52 165.5q51 165 51 250q0 61 -47 61q-53 0 -116 -57q-63 -60 -111.5 -124.5t-97.5 -155.5q-33 -62 -66.5 -156.5t-44.5 -153.5q-2 -9 -8 -73q-2 -40 -19.5 -61t-70.5 -21q-123 0 -123 88q0 23 14 65q23 79 77.5 236t78.5 239q29 101 29 158q0 49 -37 49 q-60 0 -105 -63q-27 -37 -39 -74q-7 -29 -41 -29q-16 0 -25 10t-9 23z" />
<glyph unicode="n" horiz-adv-x="1239" d="M68 688q0 25 26 64q61 91 152.5 147.5t183.5 56.5q48 0 74 -24.5t26 -61.5q0 -40 -18 -92.5t-74 -185.5q-4 -12 -4 -17q0 -8 15 -8q7 0 14 11q61 106 139 192q163 180 350 180q56 0 95.5 -25t39.5 -85q0 -33 -15.5 -92.5t-30.5 -103t-54 -153.5q-4 -11 -6 -17t-5.5 -16 t-6.5 -18q-81 -222 -84 -288q0 -46 41 -46q74 0 133 84q23 34 35 72q12 39 39 39q20 0 29 -10.5t9 -24.5q0 -19 -18 -55q-36 -68 -92 -121q-130 -117 -262 -117q-129 0 -129 103q0 21 12 65.5t26.5 88.5t42 124.5t44.5 132.5q67 210 67 256q0 45 -51 45q-54 0 -115 -49 q-144 -117 -241 -288q-28 -52 -59.5 -139t-47.5 -152q-5 -23 -10 -92q-2 -41 -20 -61.5t-70 -20.5q-63 0 -93 24.5t-30 63.5q0 20 14 69q17 58 72 216t84 255q29 101 29 158q0 49 -37 49q-59 0 -103 -59q-26 -32 -41 -78q-11 -29 -41 -29q-16 0 -25 9.5t-9 23.5z" />
<glyph unicode="o" horiz-adv-x="1017" d="M66 313q0 133 49.5 257.5t132.5 222.5q68 77 170.5 122.5t208.5 45.5q150 0 236.5 -87t86.5 -231q0 -129 -44 -256t-120 -225q-69 -87 -167 -139t-209 -52q-161 0 -252.5 93t-91.5 249zM268 227q0 -73 37 -123.5t103 -50.5q64 0 109 33t87 102q60 100 104 263.5t44 259.5 q0 163 -134 163q-112 0 -196 -135q-67 -108 -110.5 -248.5t-43.5 -263.5z" />
<glyph unicode="p" horiz-adv-x="1198" d="M-213 -555q0 22 11 36.5t32 14.5q2 0 18.5 -1t24.5 -1q44 0 76 41q28 37 65 164q92 320 238 793q63 206 63 276q0 53 -39 53q-68 0 -124 -96q-6 -11 -12 -26.5t-7 -16.5q-8 -27 -39 -27q-13 0 -25 9t-12 22q0 16 13 39q57 99 155 165t207 66q46 0 71 -24.5t25 -65.5 q0 -58 -86 -264q-4 -12 -4 -16q0 -8 13 -8q8 0 16 12q40 71 92 139q176 225 387 225q91 0 139 -56t48 -140q0 -97 -34 -221t-118 -252q-98 -148 -226.5 -222.5t-265.5 -74.5q-73 0 -135 8q-30 6 -37 6q-14 0 -22 -29q-18 -60 -46 -155q-46 -155 -58.5 -201t-12.5 -70 q0 -30 21.5 -41.5t66.5 -11.5q2 0 25.5 1t30.5 1q32 0 32 -31q0 -26 -11.5 -41.5t-31.5 -15.5q-1 0 -97.5 4t-162.5 4q-54 0 -140 -4t-93 -4q-12 0 -21.5 11t-9.5 26zM365 158q0 -36 30 -54q41 -24 119 -24q61 0 123 40.5t111 108.5q69 100 113 232.5t44 216.5 q0 60 -21 89.5t-57 29.5q-76 0 -151 -62q-113 -90 -201 -252q-77 -140 -100 -254q-10 -42 -10 -71z" />
<glyph unicode="q" horiz-adv-x="1142" d="M37 180q0 234 188 490q99 135 226.5 205.5t257.5 70.5q80 0 153 -22q32 -13 58 -13q17 0 32 15q6 6 27 43q6 10 11 15.5t18.5 10t33.5 4.5q30 0 44 -10t14 -24q0 -15 -13 -54q-159 -537 -346 -1216q-28 -98 -28 -139q0 -60 82 -60q7 0 26 1t23 1q28 0 28 -37 q0 -25 -11 -39t-30 -14q-4 0 -55.5 2t-121.5 4t-119 2q-51 0 -128 -4t-85 -4q-15 0 -24 10t-9 25q0 22 11 36.5t24 14.5q16 0 36 -1t23 -1q69 0 98 43q34 49 64 152q169 570 186 628q6 24 6 25q0 10 -12 10q-5 0 -14 -12q-24 -40 -78 -121q-86 -123 -183.5 -184.5 t-195.5 -61.5q-102 0 -159.5 56.5t-57.5 152.5zM260 236q0 -55 19.5 -83t70.5 -28q84 0 178 98q126 132 205 295q63 129 74 172q10 41 10 84q0 72 -127 72q-125 0 -235 -144q-80 -107 -137.5 -238.5t-57.5 -227.5z" />
<glyph unicode="r" horiz-adv-x="913" d="M51 686q0 23 21 53q65 100 156 158.5t192 58.5q38 0 65 -21t27 -63q0 -37 -11 -83t-22.5 -79t-44.5 -122q-6 -12 -6 -23q0 -8 8 -8q9 0 15 12q44 88 80.5 143.5t89.5 116.5q54 62 111.5 92.5t105.5 30.5q58 0 88 -23.5t30 -64.5q0 -43 -27 -85t-79 -42q-26 0 -47 21 q-20 20 -51 20q-39 0 -86 -39q-54 -43 -119 -137.5t-103 -171.5q-30 -59 -66.5 -166.5t-37.5 -157.5q0 -43 -8 -75q-4 -13 -9.5 -20.5t-27 -16t-57.5 -8.5q-46 0 -79.5 21t-33.5 65q0 34 6 49q23 77 70 208.5t65 190.5q45 139 45 246q0 32 -10 43.5t-31 11.5q-66 0 -123 -88 q-10 -16 -22 -53q-7 -25 -41 -25q-14 0 -23.5 8.5t-9.5 22.5z" />
<glyph unicode="s" horiz-adv-x="786" d="M6 174q0 44 25 72t69 28q43 0 64.5 -19t21.5 -44q0 -5 -2 -23t-2 -24q0 -43 33 -72q38 -35 127 -35q70 0 118 36.5t48 94.5q0 54 -38 104.5t-157 141.5q-145 107 -145 256q0 115 99.5 193t254.5 78q54 0 110 -15.5t83 -42.5q39 -39 39 -86t-27.5 -70.5t-64.5 -23.5 q-67 0 -78 45q-2 4 -3 12.5t-1.5 19t-1.5 15.5q-13 59 -89 59q-67 0 -105 -36.5t-38 -89.5q0 -31 8.5 -55.5t44 -65t103.5 -90.5q113 -85 152.5 -150t39.5 -137q0 -51 -22 -99.5t-65 -90t-115.5 -66.5t-163.5 -25q-70 0 -124 13.5t-79.5 28t-52.5 36.5q-29 22 -47.5 57.5 t-18.5 69.5z" />
<glyph unicode="t" horiz-adv-x="720" d="M125 109q0 76 96 368q58 171 92 303q4 20 4 27q0 12 -16 12q-10 0 -60.5 -1t-62.5 -1q-28 0 -28 25q0 24 8 37q7 18 43 20q98 10 133 25q73 31 137 161q15 33 32.5 48.5t47.5 15.5q25 0 38 -11.5t13 -27.5q0 -21 -39 -147q-8 -32 -8 -37q0 -13 25 -13q42 0 99 2.5t62 2.5 q20 0 28.5 -9t8.5 -20q0 -25 -4 -37q-12 -35 -53 -35q-10 0 -73.5 1t-94.5 1q-20 0 -27 -20q-54 -167 -114 -371q-66 -218 -66 -262q0 -53 49 -53q37 0 86 35.5t74 87.5q3 6 14 40q2 10 5 15.5t11 10.5t21 5q17 0 30 -8.5t13 -24.5q0 -14 -16 -51q-54 -103 -154 -176.5 t-215 -73.5q-61 0 -99.5 33t-39.5 103z" />
<glyph unicode="u" horiz-adv-x="1257" d="M76 686q0 25 28 66q68 96 156.5 150t188.5 54q46 0 75 -26t29 -68q0 -51 -21 -125t-88 -239q-94 -231 -94 -297q0 -62 58 -62q77 0 172 92t186 254q80 146 121 273q18 55 18 104q0 35 19 57.5t61 22.5q78 0 104.5 -16.5t26.5 -44.5q0 -6 -0.5 -11.5t-2.5 -15.5t-5 -20 t-8.5 -29.5t-11.5 -39.5l-16.5 -55t-21.5 -70t-27.5 -90.5t-33.5 -111.5q-59 -203 -59 -278q0 -56 49 -56q72 0 143 123q15 29 17 41q5 18 12 25.5t20 7.5q16 0 28.5 -8t12.5 -21q0 -23 -20 -61q-54 -109 -143.5 -173.5t-174.5 -64.5q-66 0 -100 27.5t-35 87.5q0 48 17 109 t65 200q4 12 4 17q0 6 -10 6q-8 0 -14 -12q-60 -123 -172 -248q-89 -98 -168 -142.5t-162 -44.5q-164 0 -164 148q0 40 23.5 115t91.5 247q47 118 68.5 196t21.5 101q0 43 -37 43q-27 0 -62 -21.5t-65 -64.5q-11 -17 -24 -55q-8 -29 -39 -29q-15 0 -26 10t-11 23z" />
<glyph unicode="v" horiz-adv-x="1114" d="M68 686q0 28 22 62q61 90 153 149t187 59q113 0 113 -114q0 -80 -105 -355q-33 -88 -45.5 -122.5t-24.5 -78t-12 -69.5q0 -40 31.5 -63t71.5 -23q82 0 157 35t129.5 92.5t95 128.5t61 145t20.5 140q0 68 -19 114.5t-65 85.5q-39 35 -39 62q0 32 27.5 61t74.5 29 q23 0 48 -19t40 -47q49 -83 49 -206q0 -150 -55 -292.5t-148 -249.5t-223 -172t-272 -65q-84 0 -136 42t-52 116q0 63 18.5 132.5t79.5 228.5q39 104 59.5 180.5t20.5 99.5q0 49 -37 49q-72 0 -125 -86q-15 -24 -27 -57q-9 -23 -39 -23q-16 0 -25 9t-9 22z" />
<glyph unicode="w" horiz-adv-x="1624" d="M70 684q0 31 26 68q65 94 155 149t179 55q64 0 90.5 -30.5t26.5 -69.5q0 -41 -19.5 -106t-83.5 -238q-88 -244 -88 -295q0 -82 62 -82q84 0 179.5 105.5t170.5 291.5q66 161 84 330q3 39 31.5 56.5t97.5 17.5q76 0 76 -49q0 -45 -35 -172q-32 -123 -50 -252.5t-18 -218.5 q0 -109 82 -109q74 0 148 54t127 135t86 177t33 179q0 64 -18 108t-64 84q-39 35 -39 62q0 31 29 60.5t73 29.5q25 0 49 -17.5t39 -45.5q49 -83 49 -203q0 -143 -58.5 -289t-147.5 -253.5t-197.5 -175t-206.5 -67.5q-81 0 -126.5 44.5t-45.5 138.5q0 64 22 188q5 20 5 31 q0 12 -11 12q-9 0 -14 -12q-87 -192 -211 -297t-248 -105q-166 0 -166 148q0 54 20 122.5t85 245.5q86 238 86 283q0 49 -41 49q-28 0 -62 -21t-63 -67q-7 -13 -27 -59q-8 -19 -41 -19q-9 0 -19.5 9t-10.5 20z" />
<glyph unicode="x" horiz-adv-x="1146" d="M-47 74q0 33 21 56.5t59 23.5q18 0 47 -19q18 -12 49 -12q44 0 104 57q98 88 228 262q10 13 10 25t-6 27q-49 148 -88 233q-24 50 -43.5 66t-40.5 16q-57 0 -96 -76q-8 -15 -23 -61q-9 -31 -43 -31q-14 0 -23.5 9t-9.5 26q0 12 19 51q115 231 278 231q81 0 129 -104 q43 -94 86 -236q7 -22 17 -22t20 14q91 123 172 215q113 133 234 133q108 0 108 -79q0 -43 -23.5 -63.5t-58.5 -20.5q-29 0 -47 18q-14 12 -39 12q-22 0 -54.5 -19t-61.5 -48q-85 -85 -199 -223q-19 -23 -19 -33q0 -6 9 -29q57 -169 106 -260q26 -49 48.5 -68.5t51.5 -19.5 q46 0 87 63q21 35 30 82q6 43 45 43q16 0 24.5 -10.5t8.5 -23.5q0 -12 -9 -41.5t-20 -51.5q-103 -202 -260 -202q-114 0 -166 110q-22 50 -94 250q-5 16 -18 16q-11 0 -19 -14q-100 -140 -200 -246q-111 -118 -220 -118q-46 0 -78 24.5t-32 67.5z" />
<glyph unicode="y" horiz-adv-x="1169" d="M-33 -483q0 37 28.5 64.5t61.5 27.5q48 0 68 -41q21 -43 58 -65.5t81 -22.5q71 0 137 35q110 57 200.5 217.5t207.5 492.5q4 12 4 17q0 8 -6 8q-9 0 -14 -8q-93 -129 -213 -199t-258 -70q-89 0 -135 39t-46 103q0 60 22 131t87 239q38 97 60 177.5t22 107.5q0 51 -41 51 q-25 0 -59 -21.5t-62 -64.5q-19 -32 -27 -59q-9 -21 -43 -21q-11 0 -20.5 8.5t-9.5 20.5q0 34 24 68q65 93 154.5 148.5t179.5 55.5q117 0 117 -104q0 -86 -105 -358q-84 -211 -84 -287q0 -41 20.5 -55.5t59.5 -14.5q69 0 139 31.5t126.5 83.5t102 114t75.5 128 q16 33 25 90.5t9 95.5q0 61 -9.5 102t-43.5 88q-2 3 -10.5 14t-11.5 16t-8 13t-7 14t-2 11q0 32 30 59t75 27q28 0 52 -19.5t38 -50.5q45 -93 45 -235q0 -168 -68 -447q-36 -145 -81.5 -268t-114 -240t-150 -198t-192 -130.5t-238.5 -49.5q-120 0 -184 36q-66 37 -66 95z " />
<glyph unicode="z" horiz-adv-x="970" d="M-41 41q0 9 4 17t8 12.5t12 11.5t9 8q103 99 211 199t248 227.5t223 204.5q12 12 12 24q0 15 -22 15q-41 0 -128.5 5t-121.5 5q-104 0 -144 -22q-22 -11 -39 -40t-24 -57q-5 -22 -29 -22q-41 0 -41 26q0 7 6 25q16 41 35 122t25 97q8 23 31.5 34t50.5 11q54 0 223 -14.5 t285 -14.5q50 0 70 7.5t42 35.5q11 17 33 17q15 0 28 -9.5t13 -27.5q0 -14 -18 -37q-65 -82 -146.5 -167t-183.5 -176.5t-176.5 -154.5t-194.5 -161q-14 -12 -14 -23t30 -14q41 -3 74.5 -9t100.5 -21t133 -28q71 -14 149 -14q53 0 76.5 24t34.5 103q5 31 43 31q13 0 22 -8.5 t9 -20.5q0 -29 -18 -109t-38 -120q-24 -51 -62.5 -67.5t-94.5 -16.5q-78 0 -304 57q-198 49 -280 49q-28 0 -46.5 -7.5t-37.5 -29.5q-18 -18 -35 -18q-18 0 -30.5 11.5t-12.5 29.5z" />
<glyph unicode="{" horiz-adv-x="718" d="M63 631q0 53 60 59q84 10 137.5 60.5t81.5 164.5q14 50 70 295q27 124 74.5 196t131.5 108t218 36q35 0 48 -10t13 -33q0 -22 -13.5 -36.5t-35.5 -14.5q-6 0 -23.5 1t-23.5 1q-81 0 -121.5 -52.5t-79.5 -191.5q-8 -29 -34 -136t-31 -124q-46 -137 -94.5 -203.5 t-145.5 -105.5q-14 -6 -14 -12q0 -7 12 -12q110 -52 110 -183q0 -38 -13.5 -105t-35.5 -158t-30 -128q-17 -91 -17 -127q0 -137 119 -137q3 0 16.5 1t20.5 1q33 0 33 -31q0 -33 -21.5 -46t-64.5 -13q-152 0 -222.5 50t-70.5 159q0 53 24 159q7 28 32.5 124t39.5 163t14 107 q0 65 -31.5 96t-97.5 39q-35 6 -35 39z" />
<glyph unicode="|" horiz-adv-x="516" d="M0 -297q0 7 6 31l397 1714q7 26 23.5 36.5t60.5 10.5q39 0 53.5 -7.5t14.5 -25.5q0 -19 -6 -43l-397 -1708q-6 -25 -22.5 -35t-61.5 -10q-38 0 -53 8.5t-15 28.5z" />
<glyph unicode="}" horiz-adv-x="718" d="M-139 -262q0 22 14.5 36.5t34.5 14.5q6 0 23.5 -1t23.5 -1q85 0 129 54.5t74 189.5q5 22 17.5 87.5t23 116t14.5 66.5q36 131 88 197.5t154 107.5q14 6 14 12q0 8 -12 13q-52 27 -81.5 68.5t-29.5 113.5q0 39 15 105t37.5 150.5t31.5 127.5q17 91 17 127q0 66 -30 101.5 t-89 35.5q-4 0 -18 -1t-21 -1q-33 0 -33 31q0 33 22.5 46t65.5 13q152 0 221.5 -50t69.5 -159q0 -54 -23 -159q-9 -37 -34 -123.5t-40.5 -153t-15.5 -104.5q0 -67 31.5 -99.5t95.5 -40.5q35 -3 35 -36q0 -25 -15 -41t-42 -19q-84 -10 -138.5 -60.5t-80.5 -162.5 q-1 -7 -14.5 -74t-27.5 -135.5t-20 -95.5q-27 -125 -74.5 -197t-131.5 -107.5t-218 -35.5q-36 0 -49.5 10t-13.5 33z" />
<glyph unicode="~" horiz-adv-x="1314" d="M168 471q0 9 12 25q163 192 305 192q45 0 91 -17t143 -73q60 -36 98 -51t74 -15q40 0 82.5 27.5t101.5 99.5q11 17 29 17q10 0 18 -8l58 -47q8 -5 8 -19q0 -12 -10 -22q-151 -193 -306 -193q-81 0 -208 74q-81 50 -119.5 66t-71.5 16q-47 0 -90 -30t-104 -99 q-12 -15 -25 -15q-11 0 -21 7l-55 47q-10 7 -10 18z" />
<glyph unicode="&#xa1;" horiz-adv-x="651" d="M-35 -354q0 62 39 168q13 38 95.5 261.5t133.5 383.5q7 23 13 34.5t19 21t32 9.5q28 0 37.5 -11.5t9.5 -33.5q0 -19 -6 -55q-31 -198 -58.5 -447t-35.5 -290q-16 -79 -56 -109.5t-100 -30.5q-59 0 -91 26t-32 73zM213 805q0 72 41 119t111 47q57 0 90.5 -35.5t33.5 -89.5 q0 -77 -42.5 -120.5t-112.5 -43.5q-46 0 -83.5 34t-37.5 89z" />
<glyph unicode="&#xa2;" horiz-adv-x="1091" d="M147 301q0 244 150 436q62 81 157.5 134.5t202.5 60.5q8 0 15 6.5t8 15.5l35 154q10 41 53 41t43 -29q0 -8 -4 -24l-27 -115q-6 -30 -6 -37q0 -14 27 -14q77 -3 143 -41.5t66 -100.5q0 -44 -25 -71t-70 -27q-71 0 -75 66q-4 42 -15 65q-18 27 -55 27q-21 0 -27 -29 l-161 -702q-2 -8 -2 -17q0 -14 22 -14q46 0 112.5 35.5t116.5 107.5q18 27 29 56q10 28 39 28q41 0 41 -39q0 -24 -22 -55q-57 -84 -144 -146t-199 -79q-23 -3 -28 -27l-31 -129q-4 -23 -16.5 -32t-36.5 -9q-19 0 -30 9t-11 20q0 19 4 35l20 86q5 20 5 26q0 16 -23 19 q-125 14 -203 96.5t-78 212.5zM371 285q0 -140 75 -185q12 -8 25 -8q11 0 14 21l158 690q4 16 4 24q0 15 -12 15q-18 0 -33 -6q-52 -21 -97.5 -83t-76.5 -151q-57 -160 -57 -317z" />
<glyph unicode="&#xa3;" horiz-adv-x="1263" d="M20 63q0 19 10 31.5t36 24.5q72 35 118 47q66 20 119 79.5t84 147.5q29 81 29 121q0 27 -23 27h-149q-33 0 -33 41q0 63 55 63h144q22 0 26 23q0 4 3 92t7 123q20 194 154 305.5t352 111.5q159 0 234.5 -52t75.5 -132q0 -54 -32 -81t-77 -27q-49 0 -74 20.5t-28 73.5 q-4 59 -33 88q-28 31 -96 31q-88 0 -151.5 -61.5t-80.5 -203.5q-22 -196 -22 -290q0 -21 22 -21h238q33 0 33 -37q0 -67 -50 -67h-241q-10 0 -17.5 -6.5t-9.5 -14.5q-29 -99 -72.5 -162t-152.5 -133q-19 -11 -19 -24q0 -12 19 -15q114 -14 217 -32q230 -35 319 -35t115 31 q28 36 33 73q1 4 2 18.5t2 18.5q5 35 45 35q23 0 33 -11.5t10 -37.5q0 -29 -24.5 -89.5t-65.5 -111.5q-51 -66 -103 -94.5t-122 -28.5q-157 0 -506 113q-129 41 -168 41q-52 0 -99 -41q-21 -19 -45 -19q-20 0 -30.5 14.5t-10.5 32.5z" />
<glyph unicode="&#xa4;" horiz-adv-x="952" d="M137 242q0 13 17 30l75 76q11 11 11 21q0 7 -7 18q-57 79 -57 188q0 103 57 179q9 14 9 20q0 10 -11 21l-77 73q-13 13 -13 25q0 23 26.5 48.5t45.5 25.5q16 0 27 -15l69 -80q9 -12 23 -12q9 0 18 6q83 49 168 49q106 0 170 -45q9 -6 17 -6q14 0 24 13l59 65q27 27 46 27 q20 0 41.5 -21.5t21.5 -44.5q0 -10 -16 -26l-80 -78q-8 -8 -8 -21q0 -11 6 -20q55 -82 55 -183q0 -107 -57 -184q-6 -9 -6 -20q0 -13 10 -23l78 -72q14 -11 14 -28q0 -22 -22.5 -43t-41.5 -21t-32 13l-78 79q-8 11 -23 11q-8 0 -20 -8q-74 -39 -164 -39q-107 0 -168 34 q-10 7 -16 7q-13 0 -23 -13l-65 -69q-21 -21 -37 -21q-26 0 -46 20t-20 44zM287 573q0 -106 66.5 -171.5t164.5 -65.5q91 0 158 65t67 174q0 104 -63 174t-162 70q-101 0 -166 -72t-65 -174z" />
<glyph unicode="&#xa5;" horiz-adv-x="1447" d="M188 418q0 24 12 43.5t38 19.5h333q23 0 29 13q10 13 10 43q0 15 -6 30l-22 54q-6 18 -27 18h-272q-35 0 -35 31q0 27 12 46t37 19h205q24 0 24 17q0 10 -4 22l-61 152q-68 167 -96 219q-19 39 -76 39q-5 0 -20.5 -1t-20.5 -1q-31 0 -31 41q0 59 51 59q7 0 46 -3t98.5 -6 t117.5 -3q42 0 152 6t117 6q22 0 30.5 -8t8.5 -31t-11 -41t-34 -18q-9 0 -33.5 1t-34.5 1q-82 0 -82 -58q0 -63 55 -194l78 -189q13 -33 19 -42t14 -9q19 0 59 47l172 195q82 95 114 140.5t32 70.5q0 23 -16.5 31t-57.5 8q-20 0 -38.5 -1t-22.5 -1q-33 0 -33 37q0 61 53 61 l89 -6q89 -6 169 -6q81 0 141 6t62 6q26 0 35.5 -8t9.5 -33q0 -23 -13.5 -40t-29.5 -17q-4 0 -20 1t-23 1q-52 0 -100 -39q-64 -50 -211 -213l-148 -164q-16 -16 -16 -22q0 -13 20 -13h201q39 0 39 -33q0 -21 -12 -42t-39 -21h-293q-17 0 -33 -16l-43 -52q-16 -20 -22 -41 q-5 -20 -5 -34q0 -6 5.5 -10.5t13.5 -4.5h332q20 0 27 -7.5t7 -29.5q0 -21 -11 -40t-38 -19h-340q-24 0 -30 -25l-13 -59q-20 -90 -20 -139q0 -33 14 -47q19 -25 80 -25q3 0 23.5 1t29.5 1q12 0 20.5 -9.5t8.5 -23.5q0 -63 -51 -63q-5 0 -48 3t-106.5 6t-118.5 3 q-56 0 -118.5 -3t-104 -6t-45.5 -3q-43 0 -43 39q0 22 14 39.5t37 17.5q5 0 21.5 -1t21.5 -1q77 0 105 41q29 37 51 137l14 60q1 6 2.5 14t2.5 13t1 7q0 23 -20 23h-328q-37 0 -37 33z" />
<glyph unicode="&#xa6;" horiz-adv-x="516" d="M8 -270q0 6 6 30l152 666q7 25 24 36t62 11q39 0 53 -7.5t14 -25.5q0 -19 -6 -43l-153 -659q-6 -25 -22.5 -35t-61.5 -10q-38 0 -53 8.5t-15 28.5zM244 752q0 6 6 30l153 666q7 26 23.5 36.5t60.5 10.5q39 0 53.5 -7.5t14.5 -25.5q0 -19 -6 -43l-154 -659 q-6 -25 -22.5 -35t-61.5 -10q-38 0 -52.5 8.5t-14.5 28.5z" />
<glyph unicode="&#xa7;" horiz-adv-x="985" d="M-29 -125q0 46 27.5 74t69.5 28q79 0 88 -86q7 -69 30 -94q33 -33 107 -33q85 0 138.5 48.5t53.5 132.5q0 117 -182 299q-107 107 -150.5 182.5t-43.5 153.5q0 204 258 290q26 9 26 23q0 7 -10 22q-51 74 -51 164q0 61 22.5 112t60 86t88.5 59t108 35t118 11 q136 0 208.5 -50.5t72.5 -125.5q0 -94 -90 -94q-40 0 -61 20t-25 46q-6 53 -35 90q-20 26 -94 26q-79 0 -131 -40t-52 -109q0 -61 36 -118t134 -146q122 -113 169.5 -194.5t47.5 -154.5q0 -206 -264 -290q-20 -8 -20 -23q0 -17 6 -26q61 -91 61 -189q0 -104 -58 -180.5 t-149 -113t-200 -36.5q-150 0 -232 55.5t-82 145.5zM291 657q0 -50 33.5 -104t115.5 -143q74 -79 97 -101q16 -16 36 -16q28 0 45 10q107 57 107 158q0 50 -41 115.5t-154 166.5q-15 13 -37 35.5t-34 34.5q-10 10 -25 10q-14 0 -37 -10q-48 -25 -77 -66.5t-29 -89.5z" />
<glyph unicode="&#xa8;" horiz-adv-x="593" d="M31 1239q0 48 30.5 81.5t79.5 33.5q41 0 70 -26.5t29 -70.5q0 -49 -30.5 -83.5t-80.5 -34.5q-42 0 -70 26.5t-28 73.5zM354 1239q0 49 30.5 82t80.5 33q41 0 69.5 -26.5t28.5 -70.5q0 -48 -31 -83t-77 -35q-43 0 -72 26t-29 74z" />
<glyph unicode="&#xa9;" horiz-adv-x="1648" d="M164 682q0 195 94 357t256.5 254.5t357.5 92.5q145 0 274 -53.5t222 -145.5t147 -221.5t54 -275.5q0 -150 -54.5 -284t-147 -230t-221 -151.5t-272.5 -55.5q-150 0 -282.5 55t-226 150t-147.5 227t-54 281zM248 682q0 -177 82 -323t226.5 -230t320.5 -84q169 0 309 84.5 t219.5 229t79.5 317.5q0 178 -79.5 324.5t-220.5 230.5t-315 84q-175 0 -318 -84.5t-223.5 -229.5t-80.5 -319zM444 631q0 96 33 182.5t94.5 153.5t158.5 106t216 39t223 -31q31 -10 31 -37q0 -6 -1 -24.5t-2.5 -58.5t-2.5 -93q0 -10 -10.5 -17t-24.5 -7q-30 0 -33 24 q-12 87 -30 115q-39 53 -162 53q-67 0 -122 -24t-91 -63t-60.5 -91.5t-35.5 -107.5t-11 -113q0 -144 64 -226.5t168 -82.5q134 0 194 67q29 33 64 99q14 24 33 24q34 0 34 -24q0 -9 -19.5 -63.5t-33.5 -84.5q-13 -26 -55 -43q-103 -49 -238 -49q-97 0 -171.5 29.5 t-119.5 81.5t-67.5 119t-22.5 147z" />
<glyph unicode="&#xaa;" horiz-adv-x="690" d="M74 694q0 153 110 295q126 164 293 164q55 0 88 -10q20 -10 33 -10q11 0 18 10q2 2 13 24q10 23 47 23q16 0 26.5 -6.5t10.5 -18.5q0 -13 -6 -28q-70 -207 -93 -287q-32 -111 -32 -168q0 -33 30 -33t68 47q20 25 27 49q6 19 26 19q27 0 27 -23q0 -15 -21 -49 q-28 -52 -83.5 -89.5t-108.5 -37.5q-39 0 -62.5 19.5t-23.5 50.5q0 53 18 104q8 28 8 37q0 6 -8 6q-7 0 -12 -10q-29 -52 -43 -72q-38 -56 -80.5 -88t-75 -40.5t-71.5 -8.5q-57 0 -90 37t-33 94zM215 725q0 -61 45 -61q51 0 94 43q61 56 121 163q32 57 49 119q13 43 13 60 q0 43 -68 43q-43 0 -78.5 -25.5t-73.5 -77.5q-46 -64 -74 -138.5t-28 -125.5z" />
<glyph unicode="&#xab;" horiz-adv-x="970" d="M47 502q0 19 9.5 30.5t33.5 24.5q121 75 402 266q42 27 55 27q18 0 28.5 -13.5t10.5 -33.5q0 -14 -33 -47q-49 -46 -139 -122t-131 -112q-13 -13 -13 -20q0 -13 9 -25q93 -141 149 -237q14 -23 14 -39q0 -14 -14 -27.5t-31 -13.5q-18 0 -53 35q-49 49 -98 96t-104 98 t-79 74q-16 14 -16 39zM440 502q0 19 9.5 30.5t33.5 24.5q197 122 402 266q42 27 55 27q18 0 28.5 -13.5t10.5 -33.5q0 -14 -33 -47q-49 -47 -140.5 -124t-129.5 -110q-12 -12 -12 -20q0 -12 8 -25q13 -22 67 -103.5t82 -133.5q15 -30 15 -39q0 -14 -14 -27.5t-31 -13.5 q-19 0 -54 35q-50 50 -97.5 95.5t-104.5 99t-78 73.5q-17 15 -17 39z" />
<glyph unicode="&#xac;" horiz-adv-x="1314" d="M176 502q0 10 4 30l17 66q6 29 32 29h922q25 0 25 -23q0 -2 -1 -5t-2 -8t-2 -9l-120 -514q-6 -29 -33 -29h-96q-25 0 -25 20q0 1 6 37l90 383h-792q-25 0 -25 23z" />
<glyph unicode="&#xad;" horiz-adv-x="569" d="M63 465q0 49 25 104q13 33 47 33h354q41 0 41 -39q0 -40 -18 -96q-9 -24 -20 -32.5t-33 -8.5h-357q-39 0 -39 39z" />
<glyph unicode="&#xae;" horiz-adv-x="1648" d="M164 682q0 195 94 357t256.5 254.5t357.5 92.5q145 0 274 -53.5t222 -145.5t147 -221.5t54 -275.5q0 -150 -54.5 -284t-147 -230t-221 -151.5t-272.5 -55.5q-150 0 -282.5 55t-226 150t-147.5 227t-54 281zM248 682q0 -177 82 -323t226.5 -230t320.5 -84q169 0 309 84.5 t219.5 229t79.5 317.5q0 178 -79.5 324.5t-220.5 230.5t-315 84q-175 0 -318 -84.5t-223.5 -229.5t-80.5 -319zM426 319q0 15 8 25t21 10q2 0 13.5 -1t14.5 -1q47 0 66 29q21 29 35 96l94 428q14 57 14 86q0 31 -15.5 42t-51.5 11q-3 0 -16 -1t-15 -1q-25 0 -25 31 q0 15 8.5 28t26.5 13q4 0 37.5 -1t78 -2t77.5 -1q15 0 81 2t93 2q138 0 203 -52t65 -134q0 -96 -63.5 -157t-167.5 -79q-17 -2 -17 -10q0 -4 10 -12q22 -13 42 -41t30 -51q12 -27 26.5 -63.5t25 -60t22.5 -42.5q39 -66 82 -66q3 0 13 2t18 2q9 0 14.5 -7.5t5.5 -16.5 q0 -29 -29 -37q-36 -8 -94 -8q-56 0 -90.5 15t-60.5 52q-26 34 -62 146q-35 109 -63 141q-23 26 -50 29q-14 2 -34 2q-22 0 -29 -31l-37 -160q-10 -63 -10 -74q0 -25 13.5 -37t56.5 -12q5 0 14.5 1t13.5 1q27 0 27 -26q0 -41 -29 -41q-2 0 -37 2t-83.5 4t-82.5 2 q-33 0 -70.5 -2t-63 -4t-27.5 -2q-27 0 -27 32zM799 770q0 -33 63 -33q89 0 149 43.5t60 137.5q0 62 -32 98.5t-95 36.5q-27 0 -63 -9q-23 -7 -29 -36l-47 -201q-6 -20 -6 -37z" />
<glyph unicode="&#xaf;" horiz-adv-x="595" d="M41 1153q0 51 16 76.5t41 25.5h416q41 0 41 -43q0 -96 -59 -96h-412q-43 0 -43 37z" />
<glyph unicode="&#xb0;" horiz-adv-x="575" d="M221 1141q0 104 71 171.5t169 67.5q100 0 169.5 -63.5t69.5 -173.5q0 -109 -71.5 -175.5t-167.5 -66.5q-105 0 -172.5 63.5t-67.5 176.5zM317 1141q0 -75 40 -115.5t106 -40.5q59 0 100 41.5t41 114.5t-37.5 114t-105.5 41q-62 0 -103 -41t-41 -114z" />
<glyph unicode="&#xb1;" horiz-adv-x="1314" d="M84 23q0 16 4 32l16 64q9 26 37 26h918q24 0 24 -20q0 -7 -4 -27l-18 -71q-6 -27 -33 -27h-922q-22 0 -22 23zM225 715q0 12 4 28l21 68q7 29 33 29h383l92 391q6 26 30 26h99q24 0 24 -18q0 -2 -6 -20l-86 -379h383q25 0 25 -21q0 -12 -4 -28l-19 -74q-6 -25 -33 -25 h-383l-90 -391q-6 -27 -32 -27h-97q-26 0 -26 21q0 3 6 27l86 370h-385q-12 0 -18.5 7t-6.5 16z" />
<glyph unicode="&#xb2;" horiz-adv-x="741" d="M137 850q0 23 29 41q59 34 100 59t93 60.5t87.5 66t73 70t59.5 77.5t36 83.5t14 93.5q0 62 -33.5 94.5t-87.5 32.5q-67 0 -111 -35q-37 -27 -53 -70q-11 -26 -41 -26q-15 0 -25 8.5t-10 21.5q0 23 19 52q33 53 101 94t175 41q119 0 179.5 -56.5t60.5 -152.5 q0 -91 -54.5 -165t-166.5 -159q-59 -44 -176 -112q-15 -9 -15 -17q0 -6 15 -6q55 -2 147 -2q72 0 106 7t49 23t27 54q6 25 35 25q31 0 31 -23q0 -5 -10 -45q-24 -100 -31 -143q-5 -23 -47 -23q-1 0 -37.5 1.5t-98 3t-124.5 1.5q-74 0 -140 -1.5t-105 -3t-46 -1.5 q-25 0 -25 31z" />
<glyph unicode="&#xb3;" horiz-adv-x="741" d="M176 840q0 22 13 39.5t40 17.5q13 0 41 -14q23 -13 68 -13q121 0 188.5 48t67.5 163q0 59 -28.5 94t-88.5 35q-50 0 -88 -12q-24 -6 -33 -6q-13 0 -19.5 10.5t-6.5 24.5q0 38 51 41q75 6 115 24q116 55 116 150q0 45 -23 70.5t-67 25.5q-69 0 -112 -37q-11 -9 -37 -47 q-10 -20 -37 -20q-14 0 -22.5 8.5t-8.5 21.5q0 20 21 45q96 103 256 103q109 0 155.5 -42t46.5 -110q0 -65 -56 -111t-150 -71q-17 -5 -17 -10q0 -8 21 -11q192 -19 192 -167q0 -81 -47.5 -143t-124 -95.5t-158.5 -49.5t-165 -16q-48 0 -75.5 15.5t-27.5 38.5z" />
<glyph unicode="&#xb4;" horiz-adv-x="600" d="M111 1106q0 17 20 41q18 24 56.5 74.5t71 95t60.5 88.5q36 57 91 57q39 0 58 -19.5t19 -51.5q0 -39 -41 -80q-89 -85 -245 -211q-32 -27 -56 -27q-16 0 -25 10t-9 23z" />
<glyph unicode="&#xb5;" horiz-adv-x="1310" d="M-70 -465q0 26 11 55q69 185 144 389.5t112 302.5t67 171q48 120 74.5 212t26.5 115q0 43 -37 43q-26 0 -60.5 -21.5t-62.5 -64.5q-16 -24 -27 -57q-8 -27 -39 -27q-17 0 -27 9.5t-10 23.5q0 27 27 66q70 96 158.5 150t187.5 54q46 0 75.5 -26t29.5 -68q0 -51 -21 -125 t-88 -239q-94 -239 -94 -295q0 -60 59 -60q86 0 174 88q97 100 181 254q83 150 122 273q23 71 23 102q0 82 76 82q78 0 103.5 -16t25.5 -45q0 -19 -14 -70t-58 -198q-32 -106 -53 -175q-60 -206 -60 -278q0 -56 50 -56q72 0 143 123q4 7 7 15t5.5 15.5l3.5 10.5q9 33 33 33 q16 0 28.5 -8t12.5 -21q0 -23 -20 -61q-53 -108 -144 -173t-174 -65q-135 0 -135 115q0 49 18 111t66 198q4 12 4 17q0 6 -10 6q-9 0 -15 -12q-32 -66 -77.5 -135.5t-83.5 -112.5q-86 -97 -144.5 -134.5t-122.5 -37.5q-57 0 -88 39q-13 18 -20 18q-10 0 -17 -18 q-21 -62 -53 -179q-25 -84 -49.5 -188t-28.5 -117q-22 -61 -118 -61q-97 0 -97 53z" />
<glyph unicode="&#xb6;" horiz-adv-x="1064" d="M51 -449q0 37 19.5 63t54.5 26q5 0 36 -7.5t50 -7.5q97 0 181 69.5t136 194.5q34 77 82 273q8 40 8 49q0 27 -32 27q-4 0 -27 -1t-41 -1q-147 0 -253.5 109.5t-106.5 283.5q0 184 91.5 320.5t247.5 207.5t357 76q14 0 29 9t22 24q28 51 68 88q58 49 129 49q59 0 59 -57 q0 -29 -17.5 -45.5t-41.5 -18.5q-77 -7 -111 -43q-32 -34 -51 -113l-225 -981q-35 -153 -80 -263.5t-123 -194.5q-78 -86 -186 -138.5t-207 -52.5q-32 0 -50 15t-18 40z" />
<glyph unicode="&#xb7;" horiz-adv-x="479" d="M121 545q0 75 44 119.5t114 44.5q47 0 83.5 -33.5t36.5 -89.5q0 -72 -41 -119t-110 -47q-57 0 -92 35.5t-35 89.5z" />
<glyph unicode="&#xb8;" horiz-adv-x="583" d="M96 -483q0 42 62 45q69 2 121 32t53 89q0 68 -84 92q-29 11 -29 37q0 16 23 61q37 75 73 135h80q-53 -96 -53 -114q0 -19 20 -27q123 -40 123 -152q0 -58 -33 -106t-84.5 -77.5t-110.5 -45.5t-114 -16q-47 0 -47 47z" />
<glyph unicode="&#xb9;" horiz-adv-x="741" d="M252 850q0 15 8.5 27t24.5 12q3 0 19.5 -1t19.5 -1q23 0 41 9t24 22q23 35 39 106l70 309q18 88 18 109q0 26 -33 26q-15 0 -41 -2t-28 -2q-9 0 -15 7t-6 16q0 37 35 45q40 8 114 35t113 45q20 10 37 10q21 0 21 -23q0 -14 -17 -67q-25 -88 -43 -168l-78 -336 q-12 -61 -12 -94q0 -47 60 -47q3 0 18 1t21 1q10 0 16 -7t6 -16q0 -47 -39 -47q-4 0 -33 2t-71 4t-76 2q-33 0 -76 -2t-73.5 -4t-34.5 -2q-29 0 -29 31z" />
<glyph unicode="&#xba;" horiz-adv-x="727" d="M152 770q0 80 30 158t82 135q45 47 110 74.5t136 27.5q105 0 164 -56t59 -146q0 -78 -26.5 -154.5t-75.5 -132.5q-44 -52 -112.5 -84.5t-141.5 -32.5q-108 0 -166.5 57t-58.5 154zM291 721q0 -45 23 -75t65 -30q75 0 127 80q37 60 62.5 156.5t25.5 155.5q0 100 -86 100 q-73 0 -127 -82q-42 -63 -66 -146t-24 -159z" />
<glyph unicode="&#xbb;" horiz-adv-x="970" d="M-2 207q0 16 35 47q38 37 75.5 70t98.5 84.5t92 78.5q12 12 12 23t-8 25q-140 222 -147 235q-15 25 -15 41q0 14 14.5 26.5t32.5 12.5q17 0 50 -33q93 -95 280 -268q17 -17 17 -39q0 -19 -9.5 -30.5t-33.5 -26.5q-153 -96 -400 -267q-40 -26 -55 -26q-17 0 -28 14t-11 33 zM391 207q0 12 35 47q38 37 75.5 70t98.5 84.5t92 78.5q13 13 13 23q0 9 -9 25q-140 222 -147 235q-14 23 -14 41q0 14 14.5 26.5t32.5 12.5q16 0 49 -33q93 -95 280 -268q17 -17 17 -39q0 -19 -9.5 -30.5t-33.5 -26.5q-153 -96 -400 -267q-40 -26 -55 -26q-17 0 -28 14 t-11 33z" />
<glyph unicode="&#xbc;" horiz-adv-x="1642" d="M164 535q0 15 9 26.5t26 11.5q3 0 18.5 -1t18.5 -1q48 0 67 31q20 30 37 107l72 309q18 74 18 108q0 27 -33 27q-15 0 -42 -2t-29 -2q-19 0 -19 22q0 38 33 46q44 9 120 35.5t107 43.5q22 11 39 11q21 0 21 -23q0 -6 -3 -17t-7.5 -26t-6.5 -24q-17 -53 -43 -168l-80 -336 q-12 -61 -12 -95q0 -47 60 -47q3 0 18 1t20 1q10 0 16.5 -6.5t6.5 -15.5q0 -47 -39 -47q-4 0 -33 2t-71 4t-76 2q-33 0 -76 -2t-73.5 -4t-34.5 -2q-13 0 -21 8.5t-8 22.5zM399 23q0 11 19 40l790 1178q13 20 26 28.5t36 8.5q39 0 39 -27q0 -10 -13 -32l-798 -1190 q-23 -33 -58 -33q-41 0 -41 27zM819 221q0 35 29 60q73 71 239.5 234.5t266.5 258.5q29 29 67 29q49 0 49 -23q0 -11 -26 -118l-76 -330q-4 -16 -4 -21q0 -10 18 -10h78q25 0 25 -20q0 -25 -12 -60q-9 -24 -33 -24h-84q-18 0 -23 -25l-39 -164q-3 -22 -19 -30.5t-61 -8.5 q-43 0 -57 8t-14 23q0 5 4 25l33 133q4 16 4 24q0 13 -21 13h-309q-35 0 -35 26zM977 307q0 -10 16 -10h189q19 0 24 4t8 18q12 53 64 256q6 18 6 23q0 6 -8 6q-4 0 -16 -12q-131 -131 -275 -270q-8 -8 -8 -15z" />
<glyph unicode="&#xbd;" horiz-adv-x="1642" d="M150 535q0 15 8.5 26.5t25.5 11.5q3 0 18.5 -1t18.5 -1q49 0 68 31q20 30 37 107l71 309q19 78 19 108q0 27 -33 27q-15 0 -42.5 -2t-29.5 -2q-18 0 -18 22q0 38 33 46q44 9 120 35.5t107 43.5q22 11 39 11q20 0 20 -23l-16 -67q-17 -53 -43 -168l-80 -336 q-12 -61 -12 -95q0 -47 59 -47q2 0 18 1t21 1q10 0 16.5 -6.5t6.5 -15.5q0 -47 -39 -47q-4 0 -33.5 2t-71.5 4t-76 2q-33 0 -76 -2t-73.5 -4t-34.5 -2q-28 0 -28 31zM377 23q0 13 18 40l791 1178q13 20 25.5 28.5t35.5 8.5q39 0 39 -27q0 -12 -12 -32l-799 -1190 q-23 -33 -57 -33q-41 0 -41 27zM862 31q0 23 29 41q59 34 100 59t93 60.5t87.5 66t73 70t59.5 77.5t36 83.5t14 93.5q0 62 -33.5 94.5t-87.5 32.5q-67 0 -111 -35q-37 -27 -53 -70q-11 -26 -41 -26q-15 0 -25 8.5t-10 21.5q0 22 19 51q33 53 101 94.5t175 41.5 q119 0 179.5 -56.5t60.5 -152.5q0 -91 -54.5 -165t-166.5 -159q-56 -41 -177 -112q-14 -8 -14 -17q0 -6 14 -6q55 -2 148 -2q72 0 106 7t49 23t27 54q6 24 35 24q31 0 31 -22q0 -5 -10 -45q-24 -100 -31 -143q-5 -23 -47 -23q-1 0 -37.5 1.5t-98 3t-124.5 1.5 q-74 0 -140 -1.5t-105 -3t-46 -1.5q-25 0 -25 31z" />
<glyph unicode="&#xbe;" horiz-adv-x="1642" d="M147 524q0 22 12.5 40t39.5 18q16 0 41 -15q24 -12 67 -12q123 0 189.5 47.5t66.5 163.5q0 129 -114 129q-55 0 -89 -12q-24 -6 -32 -6q-27 0 -27 34q0 38 51 41q62 5 115 25q117 51 117 149q0 45 -24 71t-66 26q-66 0 -109 -37q-19 -14 -41 -47q-10 -21 -37 -21 q-14 0 -23.5 9t-9.5 22q0 18 23 45q95 102 254 102q110 0 157.5 -42t47.5 -109q0 -64 -57 -110.5t-152 -71.5q-15 -5 -15 -11q0 -7 21 -10q100 -9 146 -53.5t46 -114.5q0 -66 -32 -119t-83 -86.5t-117.5 -56.5t-132 -32t-130.5 -9q-49 0 -76 15t-27 38zM451 23q0 13 18 40 l791 1178q13 20 25.5 28.5t35.5 8.5q39 0 39 -27q0 -12 -12 -32l-799 -1190q-23 -33 -57 -33q-41 0 -41 27zM844 221q0 35 28 60q73 71 239.5 234.5t266.5 258.5q29 29 68 29q49 0 49 -23q0 -7 -27 -118l-75 -330q-4 -16 -4 -21q0 -10 18 -10h78q24 0 24 -20q0 -25 -12 -60 q-9 -24 -33 -24h-84q-17 0 -22 -25l-39 -164q-3 -22 -19 -30.5t-61 -8.5q-72 0 -72 31q0 5 4 25l33 133q4 16 4 24q0 13 -20 13h-309q-35 0 -35 26zM1001 307q0 -10 17 -10h188q19 0 24.5 4.5t8.5 17.5q12 53 64 256q6 18 6 23q0 6 -9 6q-4 0 -16 -12q-159 -159 -274 -270 q-9 -9 -9 -15z" />
<glyph unicode="&#xbf;" horiz-adv-x="956" d="M-35 -182q0 71 21.5 129t66.5 104.5t99.5 83t134.5 76.5q101 51 148.5 84t64.5 61.5t18 71.5q0 11 -2 33t-2 28q0 23 13 36.5t36 13.5q34 0 47 -25.5t13 -79.5q0 -75 -26.5 -133t-71.5 -100t-122 -92q-194 -123 -194 -308q0 -63 39 -102t102 -39q149 0 172 135 q1 8 4 36.5t6 41.5q21 78 111 78q44 0 70 -26t26 -68q0 -90 -61.5 -157t-157 -98.5t-209.5 -31.5q-162 0 -254 70.5t-92 177.5zM461 805q0 71 41.5 118.5t111.5 47.5q56 0 91.5 -36t35.5 -89q0 -76 -44 -120t-115 -44q-46 0 -83.5 33.5t-37.5 89.5z" />
<glyph unicode="&#xc0;" horiz-adv-x="1468" d="M-92 35q0 22 12 39.5t35 17.5q3 0 17 -1t22 -1q44 0 80 41q50 50 121 162q63 101 200 318.5t225 359t138 225.5q39 72 47 94q11 33 45 51q81 35 131 35q15 0 25.5 -10t11.5 -27q1 -5 2 -17.5t3.5 -37.5t6.5 -59q62 -411 144 -932q16 -108 45 -164q20 -39 81 -39q6 0 18 1 t17 1q14 0 23.5 -11t9.5 -30q0 -53 -51 -53q-4 0 -113 6t-160 6q-50 0 -166.5 -6t-117.5 -6q-37 0 -37 37q0 23 12 40t35 17q8 0 29 -1t24 -1q66 0 94.5 19t28.5 61q0 34 -12 123l-21 151q-4 38 -16 51t-43 13h-338q-25 0 -39.5 -11t-30.5 -38l-104 -164q-3 -5 -12.5 -20 t-12.5 -20t-10.5 -18t-10.5 -19t-8.5 -16.5t-7.5 -17.5t-5 -16t-4 -17t-1 -16q0 -23 22.5 -34t78.5 -11q9 0 25 1l16 1q34 0 34 -37q0 -25 -11.5 -41t-33.5 -16q-2 0 -118 6t-166 6q-51 0 -109.5 -6t-62.5 -6q-37 0 -37 37zM545 627q0 -15 12 -20t53 -5h207q64 0 64 31 q0 17 -4 49l-48 360q-3 21 -12 21q-11 0 -29 -27l-219 -360q-24 -36 -24 -49zM670 1708q0 34 31.5 61t64.5 27q39 0 78 -45q21 -27 50 -60.5t48.5 -56t54.5 -60.5t47 -52q21 -24 21 -41q0 -16 -14 -28.5t-29 -12.5q-21 0 -45 16q-153 90 -264 176q-43 34 -43 76z" />
<glyph unicode="&#xc1;" horiz-adv-x="1468" d="M-92 35q0 22 12 39.5t35 17.5q3 0 17 -1t22 -1q44 0 80 41q50 50 121 162q63 101 200 318.5t225 359t138 225.5q39 72 47 94q11 33 45 51q81 35 131 35q15 0 25.5 -10t11.5 -27q1 -5 2 -17.5t3.5 -37.5t6.5 -59q62 -411 144 -932q16 -108 45 -164q20 -39 81 -39q6 0 18 1 t17 1q14 0 23.5 -11t9.5 -30q0 -53 -51 -53q-4 0 -113 6t-160 6q-50 0 -166.5 -6t-117.5 -6q-37 0 -37 37q0 23 12 40t35 17q8 0 29 -1t24 -1q66 0 94.5 19t28.5 61q0 34 -12 123l-21 151q-4 38 -16 51t-43 13h-338q-25 0 -39.5 -11t-30.5 -38l-104 -164q-3 -5 -12.5 -20 t-12.5 -20t-10.5 -18t-10.5 -19t-8.5 -16.5t-7.5 -17.5t-5 -16t-4 -17t-1 -16q0 -23 22.5 -34t78.5 -11q9 0 25 1l16 1q34 0 34 -37q0 -25 -11.5 -41t-33.5 -16q-2 0 -118 6t-166 6q-51 0 -109.5 -6t-62.5 -6q-37 0 -37 37zM545 627q0 -15 12 -20t53 -5h207q64 0 64 31 q0 17 -4 49l-48 360q-3 21 -12 21q-11 0 -29 -27l-219 -360q-24 -36 -24 -49zM774 1481q0 20 27 39q24 20 76 61.5t95.5 77.5t78.5 67q42 39 84 39q31 0 55 -25t24 -61q0 -42 -57 -77q-105 -63 -301 -150q-30 -12 -47 -12q-15 2 -25 12.5t-10 28.5z" />
<glyph unicode="&#xc2;" horiz-adv-x="1468" d="M-92 35q0 22 12 39.5t35 17.5q3 0 17 -1t22 -1q44 0 80 41q50 50 121 162q63 101 200 318.5t225 359t138 225.5q39 72 47 94q11 33 45 51q81 35 131 35q15 0 25.5 -10t11.5 -27q1 -5 2 -17.5t3.5 -37.5t6.5 -59q62 -411 144 -932q16 -108 45 -164q20 -39 81 -39q6 0 18 1 t17 1q14 0 23.5 -11t9.5 -30q0 -53 -51 -53q-4 0 -113 6t-160 6q-50 0 -166.5 -6t-117.5 -6q-37 0 -37 37q0 23 12 40t35 17q8 0 29 -1t24 -1q66 0 94.5 19t28.5 61q0 34 -12 123l-21 151q-4 38 -16 51t-43 13h-338q-25 0 -39.5 -11t-30.5 -38l-104 -164q-3 -5 -12.5 -20 t-12.5 -20t-10.5 -18t-10.5 -19t-8.5 -16.5t-7.5 -17.5t-5 -16t-4 -17t-1 -16q0 -23 22.5 -34t78.5 -11q9 0 25 1l16 1q34 0 34 -37q0 -25 -11.5 -41t-33.5 -16q-2 0 -118 6t-166 6q-51 0 -109.5 -6t-62.5 -6q-37 0 -37 37zM545 627q0 -15 12 -20t53 -5h207q64 0 64 31 q0 17 -4 49l-48 360q-3 21 -12 21q-11 0 -29 -27l-219 -360q-24 -36 -24 -49zM623 1462q0 16 14 27q198 185 281 268q11 11 18 16.5t19 10t28 4.5q21 0 32 -6.5t21 -22.5q49 -72 195 -270q10 -13 10 -25q0 -15 -10.5 -26t-22.5 -11q-20 0 -43 17q-79 61 -180 151 q-13 13 -27 13q-10 0 -30 -15q-25 -17 -77 -52t-87.5 -57.5t-65.5 -39.5t-41 -17q-16 0 -25 11.5t-9 23.5z" />
<glyph unicode="&#xc3;" horiz-adv-x="1468" d="M-92 35q0 22 12 39.5t35 17.5q3 0 17 -1t22 -1q44 0 80 41q50 50 121 162q63 101 200 318.5t225 359t138 225.5q39 72 47 94q11 33 45 51q81 35 131 35q15 0 25.5 -10t11.5 -27q1 -5 2 -17.5t3.5 -37.5t6.5 -59q62 -411 144 -932q16 -108 45 -164q20 -39 81 -39q6 0 18 1 t17 1q14 0 23.5 -11t9.5 -30q0 -53 -51 -53q-4 0 -113 6t-160 6q-50 0 -166.5 -6t-117.5 -6q-37 0 -37 37q0 23 12 40t35 17q8 0 29 -1t24 -1q66 0 94.5 19t28.5 61q0 34 -12 123l-21 151q-4 38 -16 51t-43 13h-338q-25 0 -39.5 -11t-30.5 -38l-104 -164q-3 -5 -12.5 -20 t-12.5 -20t-10.5 -18t-10.5 -19t-8.5 -16.5t-7.5 -17.5t-5 -16t-4 -17t-1 -16q0 -23 22.5 -34t78.5 -11q9 0 25 1l16 1q34 0 34 -37q0 -25 -11.5 -41t-33.5 -16q-2 0 -118 6t-166 6q-51 0 -109.5 -6t-62.5 -6q-37 0 -37 37zM545 627q0 -15 12 -20t53 -5h207q64 0 64 31 q0 17 -4 49l-48 360q-3 21 -12 21q-11 0 -29 -27l-219 -360q-24 -36 -24 -49zM618 1499q0 19 17 47q43 90 88 125t96 35q45 0 154 -57q78 -41 127 -41q50 0 84 82q12 28 43 28q35 0 35 -32q0 -19 -11 -41q-31 -87 -74.5 -128.5t-105.5 -41.5q-64 0 -149 47q-82 43 -131 43 q-28 0 -49 -16.5t-48 -61.5q-13 -23 -39 -23q-37 0 -37 35z" />
<glyph unicode="&#xc4;" horiz-adv-x="1468" d="M-92 35q0 22 12 39.5t35 17.5q3 0 17 -1t22 -1q44 0 80 41q50 50 121 162q63 101 200 318.5t225 359t138 225.5q39 72 47 94q11 33 45 51q81 35 131 35q15 0 25.5 -10t11.5 -27q1 -5 2 -17.5t3.5 -37.5t6.5 -59q62 -411 144 -932q16 -108 45 -164q20 -39 81 -39q6 0 18 1 t17 1q14 0 23.5 -11t9.5 -30q0 -53 -51 -53q-4 0 -113 6t-160 6q-50 0 -166.5 -6t-117.5 -6q-37 0 -37 37q0 23 12 40t35 17q8 0 29 -1t24 -1q66 0 94.5 19t28.5 61q0 34 -12 123l-21 151q-4 38 -16 51t-43 13h-338q-25 0 -39.5 -11t-30.5 -38l-104 -164q-3 -5 -12.5 -20 t-12.5 -20t-10.5 -18t-10.5 -19t-8.5 -16.5t-7.5 -17.5t-5 -16t-4 -17t-1 -16q0 -23 22.5 -34t78.5 -11q9 0 25 1l16 1q34 0 34 -37q0 -25 -11.5 -41t-33.5 -16q-2 0 -118 6t-166 6q-51 0 -109.5 -6t-62.5 -6q-37 0 -37 37zM545 627q0 -15 12 -20t53 -5h207q64 0 64 31 q0 17 -4 49l-48 360q-3 21 -12 21q-11 0 -29 -27l-219 -360q-24 -36 -24 -49zM662 1563q0 46 33 79t77 33q43 0 70.5 -28.5t27.5 -75.5t-31.5 -81t-74.5 -34q-44 0 -73 28.5t-29 78.5zM1010 1563q0 46 32 79t78 33q43 0 71 -28.5t28 -75.5t-32.5 -81t-76.5 -34t-72 28.5 t-28 78.5z" />
<glyph unicode="&#xc5;" horiz-adv-x="1468" d="M-92 35q0 22 12 39.5t35 17.5q3 0 17 -1t22 -1q44 0 80 41q50 50 121 162q63 101 200 318.5t225 359t138 225.5q39 72 47 94q11 33 45 51q81 35 131 35q15 0 25.5 -10t11.5 -27q1 -5 2 -17.5t3.5 -37.5t6.5 -59q62 -411 144 -932q16 -108 45 -164q20 -39 81 -39q6 0 18 1 t17 1q14 0 23.5 -11t9.5 -30q0 -53 -51 -53q-4 0 -113 6t-160 6q-50 0 -166.5 -6t-117.5 -6q-37 0 -37 37q0 23 12 40t35 17q8 0 29 -1t24 -1q66 0 94.5 19t28.5 61q0 34 -12 123l-21 151q-4 38 -16 51t-43 13h-338q-25 0 -39.5 -11t-30.5 -38l-104 -164q-3 -5 -12.5 -20 t-12.5 -20t-10.5 -18t-10.5 -19t-8.5 -16.5t-7.5 -17.5t-5 -16t-4 -17t-1 -16q0 -23 22.5 -34t78.5 -11q9 0 25 1l16 1q34 0 34 -37q0 -25 -11.5 -41t-33.5 -16q-2 0 -118 6t-166 6q-51 0 -109.5 -6t-62.5 -6q-37 0 -37 37zM545 627q0 -15 12 -20t53 -5h207q64 0 64 31 q0 17 -4 49l-48 360q-3 21 -12 21q-11 0 -29 -27l-219 -360q-24 -36 -24 -49zM776 1595q0 91 58 148t145 57q77 0 124.5 -45.5t47.5 -120.5q0 -88 -54 -148.5t-147 -60.5q-80 0 -127 48t-47 122zM858 1599q0 -45 25.5 -74.5t68.5 -29.5q55 0 87 35.5t32 99.5q0 51 -26.5 77 t-71.5 26q-49 0 -82 -37t-33 -97z" />
<glyph unicode="&#xc6;" horiz-adv-x="2070" d="M-88 37q0 21 12 38t37 17q5 0 19 -1t20 -1q62 0 106 39q73 61 177 172q34 37 127 136.5t134 144t120.5 130.5t126 137t107.5 118.5t108 121t88 101.5q22 26 22 45t-20 22q-40 7 -82 7q-4 0 -27 -1t-31 -1q-28 0 -28 38q0 24 12.5 41t38.5 17q7 0 94 -3t194 -6t163 -3 q175 0 371.5 4t219.5 4q39 0 39 -39q0 -11 -4 -42.5t-10.5 -91t-11.5 -120.5q-3 -37 -47 -37q-45 0 -45 35q0 61 -5.5 94.5t-23.5 56.5q-20 27 -57.5 34t-129.5 7q-31 0 -184 -6q-19 0 -30.5 -12t-18.5 -41l-84 -358q-6 -18 -6 -43q0 -39 67 -39q108 0 164 18q31 11 53 41.5 t46 101.5q11 33 53 33q37 0 37 -35q0 -13 -15.5 -66t-40 -148.5t-41.5 -192.5q-5 -33 -45 -33q-41 0 -41 33q0 7 1 22.5t1 24.5q0 33 -4.5 52.5t-9.5 26t-14 11.5q-34 21 -174 21q-41 0 -58.5 -10.5t-23.5 -39.5l-78 -344q-12 -50 -12 -94q0 -42 48 -56t183 -14 q190 0 254 37q75 41 148 181q16 28 47 28q45 0 45 -35q0 -22 -34 -111t-61 -143q-34 -63 -83 -63q-90 0 -259.5 5t-308.5 5q-55 0 -151 -2.5t-172.5 -5t-83.5 -2.5q-37 0 -37 35q0 23 13 41t36 18q4 0 19 -1t20 -1q69 0 100 39q26 30 60 178l36 154q7 24 7 35q0 17 -9 22.5 t-32 5.5h-369q-26 0 -44.5 -10.5t-43.5 -38.5l-147 -170q-82 -93 -104.5 -122.5t-22.5 -49.5q0 -21 14.5 -32t60.5 -11q8 0 27 1t27 1q30 0 30 -37q0 -23 -12 -40t-39 -17q-2 0 -110 4t-158 4q-48 0 -126.5 -4t-82.5 -4q-41 0 -41 39zM762 643q0 -22 45 -22h244q32 0 47 6 t26 22q6 8 17 45l106 449q6 18 6 33q0 12 -12 12q-11 0 -33 -27l-411 -465q-35 -39 -35 -53z" />
<glyph unicode="&#xc7;" horiz-adv-x="1413" d="M127 541q0 123 30.5 241t97 226.5t162.5 190.5t236 130.5t308 48.5q211 0 374 -55q49 -16 49 -57q0 -4 -2 -34.5t-4.5 -91t-3.5 -134.5q0 -43 -45 -43q-31 0 -41 11.5t-10 33.5q-3 117 -43 176q-29 41 -98.5 67.5t-178.5 26.5q-113 0 -209.5 -43t-163 -115t-113.5 -166.5 t-69 -196.5t-22 -206q0 -225 108 -350t285 -125q88 0 170 27.5t133 74.5q59 54 119 168q16 29 49 29q16 0 28.5 -7.5t12.5 -19.5q0 -19 -26.5 -105.5t-51.5 -121.5q-33 -45 -104 -74q-131 -56 -320 -67q-28 -3 -39 -29q-24 -55 -24 -66q0 -14 31 -26q64 -23 93 -58.5 t29 -99.5q0 -58 -35.5 -107t-89.5 -79t-114.5 -47t-114.5 -17q-25 0 -35 11.5t-10 37.5q0 47 62 47q75 2 126.5 32.5t51.5 88.5q0 74 -88 101q-29 7 -29 34q0 19 23 66q4 10 14 29.5t16 34t6 22.5q0 18 -30 22q-107 11 -192 46t-142 87t-95 121t-54.5 145.5t-16.5 164.5z " />
<glyph unicode="&#xc8;" horiz-adv-x="1216" d="M-43 33q0 23 11 40t34 17q4 0 20 -1t21 -1q67 0 96 43q32 57 60 182l172 742q22 96 22 139q0 37 -23 53.5t-71 16.5q-5 0 -23 -1t-20 -1q-31 0 -31 32q0 25 11 43.5t34 18.5q7 0 81 -2.5t168.5 -5t150.5 -2.5q178 0 333.5 4t161.5 4q41 0 41 -39q0 -8 -3 -33.5t-9.5 -88 t-13.5 -132.5q-3 -37 -45 -37q-45 0 -45 35q0 61 -5.5 94.5t-23.5 56.5q-20 27 -59.5 34t-133.5 7q-27 0 -180 -6q-19 0 -30.5 -12t-18.5 -41l-84 -358q-6 -21 -6 -46q0 -36 67 -36q118 0 164 18q31 11 53 41.5t46 101.5q11 33 51 33q39 0 39 -33q0 -15 -15.5 -69 t-40 -149.5t-41.5 -190.5q-5 -33 -45 -33q-41 0 -41 31q0 8 1 23t1 22q0 49 -7 67t-23 29q-32 19 -172 19q-41 0 -58.5 -10.5t-23.5 -39.5l-78 -342q-12 -54 -12 -96t47.5 -56t185.5 -14q190 0 254 37q43 24 76 68t70 113q16 28 47 28q45 0 45 -35q0 -23 -34 -113t-61 -141 q-29 -63 -83 -63q-90 0 -288 5t-337 5q-55 0 -135.5 -3t-141 -6t-67.5 -3q-15 0 -25 10t-10 27zM485 1708q0 34 32 61t65 27q38 0 77 -45q28 -35 59.5 -71.5t82 -92t59.5 -65.5q21 -24 21 -41q0 -16 -14 -28.5t-29 -12.5q-21 0 -45 16q-157 92 -265 176q-43 34 -43 76z" />
<glyph unicode="&#xc9;" horiz-adv-x="1216" d="M-43 33q0 23 11 40t34 17q4 0 20 -1t21 -1q67 0 96 43q32 57 60 182l172 742q22 96 22 139q0 37 -23 53.5t-71 16.5q-5 0 -23 -1t-20 -1q-31 0 -31 32q0 25 11 43.5t34 18.5q7 0 81 -2.5t168.5 -5t150.5 -2.5q178 0 333.5 4t161.5 4q41 0 41 -39q0 -8 -3 -33.5t-9.5 -88 t-13.5 -132.5q-3 -37 -45 -37q-45 0 -45 35q0 61 -5.5 94.5t-23.5 56.5q-20 27 -59.5 34t-133.5 7q-27 0 -180 -6q-19 0 -30.5 -12t-18.5 -41l-84 -358q-6 -21 -6 -46q0 -36 67 -36q118 0 164 18q31 11 53 41.5t46 101.5q11 33 51 33q39 0 39 -33q0 -15 -15.5 -69 t-40 -149.5t-41.5 -190.5q-5 -33 -45 -33q-41 0 -41 31q0 8 1 23t1 22q0 49 -7 67t-23 29q-32 19 -172 19q-41 0 -58.5 -10.5t-23.5 -39.5l-78 -342q-12 -54 -12 -96t47.5 -56t185.5 -14q190 0 254 37q43 24 76 68t70 113q16 28 47 28q45 0 45 -35q0 -23 -34 -113t-61 -141 q-29 -63 -83 -63q-90 0 -288 5t-337 5q-55 0 -135.5 -3t-141 -6t-67.5 -3q-15 0 -25 10t-10 27zM633 1481q0 20 26 39q24 20 76 61.5t95.5 77.5t78.5 67q42 39 84 39q32 0 56 -25t24 -61q0 -42 -57 -77q-105 -63 -301 -150q-30 -12 -47 -12q-15 2 -25 12.5t-10 28.5z" />
<glyph unicode="&#xca;" horiz-adv-x="1216" d="M-43 33q0 23 11 40t34 17q4 0 20 -1t21 -1q67 0 96 43q32 57 60 182l172 742q22 96 22 139q0 37 -23 53.5t-71 16.5q-5 0 -23 -1t-20 -1q-31 0 -31 32q0 25 11 43.5t34 18.5q7 0 81 -2.5t168.5 -5t150.5 -2.5q178 0 333.5 4t161.5 4q41 0 41 -39q0 -8 -3 -33.5t-9.5 -88 t-13.5 -132.5q-3 -37 -45 -37q-45 0 -45 35q0 61 -5.5 94.5t-23.5 56.5q-20 27 -59.5 34t-133.5 7q-27 0 -180 -6q-19 0 -30.5 -12t-18.5 -41l-84 -358q-6 -21 -6 -46q0 -36 67 -36q118 0 164 18q31 11 53 41.5t46 101.5q11 33 51 33q39 0 39 -33q0 -15 -15.5 -69 t-40 -149.5t-41.5 -190.5q-5 -33 -45 -33q-41 0 -41 31q0 8 1 23t1 22q0 49 -7 67t-23 29q-32 19 -172 19q-41 0 -58.5 -10.5t-23.5 -39.5l-78 -342q-12 -54 -12 -96t47.5 -56t185.5 -14q190 0 254 37q43 24 76 68t70 113q16 28 47 28q45 0 45 -35q0 -23 -34 -113t-61 -141 q-29 -63 -83 -63q-90 0 -288 5t-337 5q-55 0 -135.5 -3t-141 -6t-67.5 -3q-15 0 -25 10t-10 27zM463 1462q0 16 14 27q198 185 281 268q11 11 18 16.5t19 10t28 4.5q35 0 54 -29q60 -89 194 -270q10 -13 10 -25q0 -15 -10 -26t-22 -11q-20 0 -43 17q-86 66 -181 151 q-13 13 -26 13q-11 0 -31 -15q-27 -18 -77.5 -52t-86.5 -57t-65 -40q-30 -17 -41 -17q-16 0 -25.5 11.5t-9.5 23.5z" />
<glyph unicode="&#xcb;" horiz-adv-x="1216" d="M-43 33q0 23 11 40t34 17q4 0 20 -1t21 -1q67 0 96 43q32 57 60 182l172 742q22 96 22 139q0 37 -23 53.5t-71 16.5q-5 0 -23 -1t-20 -1q-31 0 -31 32q0 25 11 43.5t34 18.5q7 0 81 -2.5t168.5 -5t150.5 -2.5q178 0 333.5 4t161.5 4q41 0 41 -39q0 -8 -3 -33.5t-9.5 -88 t-13.5 -132.5q-3 -37 -45 -37q-45 0 -45 35q0 61 -5.5 94.5t-23.5 56.5q-20 27 -59.5 34t-133.5 7q-27 0 -180 -6q-19 0 -30.5 -12t-18.5 -41l-84 -358q-6 -21 -6 -46q0 -36 67 -36q118 0 164 18q31 11 53 41.5t46 101.5q11 33 51 33q39 0 39 -33q0 -15 -15.5 -69 t-40 -149.5t-41.5 -190.5q-5 -33 -45 -33q-41 0 -41 31q0 8 1 23t1 22q0 49 -7 67t-23 29q-32 19 -172 19q-41 0 -58.5 -10.5t-23.5 -39.5l-78 -342q-12 -54 -12 -96t47.5 -56t185.5 -14q190 0 254 37q43 24 76 68t70 113q16 28 47 28q45 0 45 -35q0 -23 -34 -113t-61 -141 q-29 -63 -83 -63q-90 0 -288 5t-337 5q-55 0 -135.5 -3t-141 -6t-67.5 -3q-15 0 -25 10t-10 27zM492 1563q0 46 33 79t77 33q43 0 70.5 -28.5t27.5 -75.5t-31.5 -81t-74.5 -34q-44 0 -73 28.5t-29 78.5zM840 1563q0 46 32 79t78 33q43 0 71 -28.5t28 -75.5t-32.5 -81 t-76.5 -34t-72 28.5t-28 78.5z" />
<glyph unicode="&#xcc;" horiz-adv-x="718" d="M-43 33q0 24 11 40.5t32 16.5q5 0 20.5 -1t20.5 -1q37 0 56.5 8t37.5 29q27 34 64 188l170 725q24 104 24 160q0 66 -94 66q-5 0 -21.5 -1t-21.5 -1q-31 0 -31 32q0 27 12 44.5t37 17.5q6 0 47 -3t102 -6.5t114 -3.5q55 0 118 3.5t105 6.5t47 3q37 0 37 -37 q0 -22 -11 -39.5t-30 -17.5q-4 0 -19 1t-20 1q-69 0 -96 -37q-29 -37 -66 -193l-164 -717q-26 -110 -26 -163q0 -66 94 -66q5 0 21 1t20 1q31 0 31 -35q0 -25 -12.5 -42t-35.5 -17q-6 0 -47.5 3t-102.5 6t-114 3q-55 0 -118 -3t-105 -6t-47 -3q-21 0 -30 11t-9 26zM268 1708 q0 34 32 61t65 27q38 0 77 -45q28 -35 59.5 -71.5t82 -92t59.5 -65.5q21 -24 21 -41q0 -16 -14 -28.5t-29 -12.5q-22 0 -46 16q-153 90 -264 176q-43 34 -43 76z" />
<glyph unicode="&#xcd;" horiz-adv-x="718" d="M-43 33q0 24 11 40.5t32 16.5q5 0 20.5 -1t20.5 -1q37 0 56.5 8t37.5 29q27 34 64 188l170 725q24 104 24 160q0 66 -94 66q-5 0 -21.5 -1t-21.5 -1q-31 0 -31 32q0 27 12 44.5t37 17.5q6 0 47 -3t102 -6.5t114 -3.5q55 0 118 3.5t105 6.5t47 3q37 0 37 -37 q0 -22 -11 -39.5t-30 -17.5q-4 0 -19 1t-20 1q-69 0 -96 -37q-29 -37 -66 -193l-164 -717q-26 -110 -26 -163q0 -66 94 -66q5 0 21 1t20 1q31 0 31 -35q0 -25 -12.5 -42t-35.5 -17q-6 0 -47.5 3t-102.5 6t-114 3q-55 0 -118 -3t-105 -6t-47 -3q-21 0 -30 11t-9 26zM430 1481 q0 20 27 39q24 20 76 61.5t95.5 77.5t78.5 67q42 39 84 39q31 0 55 -25t24 -61q0 -42 -57 -77q-105 -63 -301 -150q-30 -12 -47 -12q-15 2 -25 12.5t-10 28.5z" />
<glyph unicode="&#xce;" horiz-adv-x="718" d="M-43 33q0 24 11 40.5t32 16.5q5 0 20.5 -1t20.5 -1q37 0 56.5 8t37.5 29q27 34 64 188l170 725q24 104 24 160q0 66 -94 66q-5 0 -21.5 -1t-21.5 -1q-31 0 -31 32q0 27 12 44.5t37 17.5q6 0 47 -3t102 -6.5t114 -3.5q55 0 118 3.5t105 6.5t47 3q37 0 37 -37 q0 -22 -11 -39.5t-30 -17.5q-4 0 -19 1t-20 1q-69 0 -96 -37q-29 -37 -66 -193l-164 -717q-26 -110 -26 -163q0 -66 94 -66q5 0 21 1t20 1q31 0 31 -35q0 -25 -12.5 -42t-35.5 -17q-6 0 -47.5 3t-102.5 6t-114 3q-55 0 -118 -3t-105 -6t-47 -3q-21 0 -30 11t-9 26zM250 1462 q0 16 14 27q198 185 281 268q11 11 18 16.5t19 10t28 4.5q35 0 54 -29q60 -89 194 -270q10 -13 10 -25q0 -15 -10 -26t-22 -11q-20 0 -43 17q-86 66 -181 151q-13 13 -26 13q-11 0 -31 -15q-27 -18 -77.5 -52t-86.5 -57t-65 -40q-30 -17 -41 -17q-16 0 -25.5 11.5t-9.5 23.5 z" />
<glyph unicode="&#xcf;" horiz-adv-x="718" d="M-43 33q0 24 11 40.5t32 16.5q5 0 20.5 -1t20.5 -1q37 0 56.5 8t37.5 29q27 34 64 188l170 725q24 104 24 160q0 66 -94 66q-5 0 -21.5 -1t-21.5 -1q-31 0 -31 32q0 27 12 44.5t37 17.5q6 0 47 -3t102 -6.5t114 -3.5q55 0 118 3.5t105 6.5t47 3q37 0 37 -37 q0 -22 -11 -39.5t-30 -17.5q-4 0 -19 1t-20 1q-69 0 -96 -37q-29 -37 -66 -193l-164 -717q-26 -110 -26 -163q0 -66 94 -66q5 0 21 1t20 1q31 0 31 -35q0 -25 -12.5 -42t-35.5 -17q-6 0 -47.5 3t-102.5 6t-114 3q-55 0 -118 -3t-105 -6t-47 -3q-21 0 -30 11t-9 26zM291 1563 q0 46 33 79t77 33q43 0 71 -28.5t28 -75.5t-32 -81t-75 -34q-44 0 -73 28.5t-29 78.5zM639 1563q0 46 32.5 79t78.5 33q43 0 70.5 -28.5t27.5 -75.5t-32.5 -81t-76.5 -34t-72 28.5t-28 78.5z" />
<glyph unicode="&#xd0;" horiz-adv-x="1533" d="M-43 35q0 23 11.5 39t31.5 16q2 0 18 -1t21 -1q72 0 98 41q28 43 60 184l71 297q6 27 6 33q0 25 -24 25h-154q-30 0 -30 20q0 31 12 55q12 29 39 29h159q29 0 35 29l58 233q24 108 24 164q0 66 -104 66q-4 0 -18 -1t-17 -1q-33 0 -33 38q0 24 12 40t37 16q5 0 43.5 -2 t97 -4t113.5 -2q42 0 125.5 3t120.5 3q345 0 512 -99q106 -62 165.5 -171.5t59.5 -247.5q0 -215 -63 -376.5t-180.5 -262t-277.5 -150t-363 -49.5q-68 0 -230.5 3t-189.5 3q-56 0 -103.5 -2t-74.5 -4t-31 -2q-37 0 -37 39zM420 197q0 -32 18 -51.5t77 -31.5t167 -12 q258 0 410.5 193t152.5 516q0 221 -86 317q-113 125 -354 125q-100 0 -130 -20t-50 -105l-72 -305q-6 -18 -6 -30q0 -21 24 -21h289q33 0 33 -29q0 -26 -10 -51q-10 -24 -47 -24h-291q-29 0 -35 -31l-74 -320q-16 -71 -16 -120z" />
<glyph unicode="&#xd1;" horiz-adv-x="1574" d="M-63 33q0 24 13.5 41.5t41.5 17.5q4 0 17 -1t18 -1q72 0 100 41q32 46 63 174q147 589 179 735q22 99 22 140q0 32 -14 53q-26 31 -98 31q-5 0 -20 -1t-19 -1q-33 0 -33 32q0 25 11.5 42.5t37.5 17.5q7 0 89.5 -4t105.5 -4q26 0 86 4t71 4q18 0 28.5 -11t20.5 -30 q45 -84 130 -236t120 -217q103 -179 248 -418q15 -24 27 -24t16 16l23.5 94t29.5 125q43 192 80 381q21 123 21 168q0 32 -25.5 47t-64.5 15q-6 0 -30 -1t-28 -1q-37 0 -37 32q0 25 14 43.5t40 18.5q3 0 36 -3t90 -6.5t117 -3.5q46 0 93 3.5t77.5 6.5t36.5 3q45 0 45 -35 q0 -23 -12.5 -41t-36.5 -18q-6 0 -25.5 1t-25.5 1q-65 0 -94 -33q-34 -38 -72 -197q-78 -317 -225 -1016q-9 -45 -64 -45q-39 0 -53 29q-51 108 -102 197q-56 102 -123.5 220t-116 200.5t-129.5 219t-121 205.5q-8 13 -20 13q-15 0 -19 -23q-15 -58 -82 -350 q-35 -150 -84 -379q-18 -94 -18 -135q0 -32 10 -45q21 -35 100 -35q2 0 20.5 1t25.5 1q30 0 30 -31q0 -63 -51 -63q-7 0 -38.5 2.5t-82.5 5t-106 2.5q-56 0 -108.5 -2.5t-84.5 -5t-37 -2.5q-34 0 -34 35zM686 1499q0 20 16 47q42 90 88 125t97 35q44 0 153 -57 q78 -41 127 -41q50 0 84 82q12 28 43 28q35 0 35 -32q0 -21 -10 -41q-31 -87 -74.5 -128.5t-105.5 -41.5q-65 0 -150 47q-82 43 -131 43q-27 0 -48 -16t-48 -62q-13 -23 -39 -23q-37 0 -37 35z" />
<glyph unicode="&#xd2;" horiz-adv-x="1488" d="M125 539q0 146 44 294t122 252q108 145 250.5 219t345.5 74q261 0 404 -140t143 -400q0 -390 -193 -627q-195 -238 -539 -238q-269 0 -423 147t-154 419zM383 477q0 -183 80 -296t231 -113q231 0 346 217q134 257 134 610q-2 178 -74 282.5t-213 104.5q-250 0 -387 -274 q-117 -234 -117 -531zM633 1708q0 34 31.5 61t64.5 27q39 0 78 -45q28 -35 59.5 -71.5t82 -92t59.5 -65.5q20 -23 20 -41q0 -16 -14 -28.5t-29 -12.5q-21 0 -45 16q-153 90 -264 176q-43 34 -43 76z" />
<glyph unicode="&#xd3;" horiz-adv-x="1488" d="M125 539q0 146 44 294t122 252q108 145 250.5 219t345.5 74q261 0 404 -140t143 -400q0 -390 -193 -627q-195 -238 -539 -238q-269 0 -423 147t-154 419zM383 477q0 -183 80 -296t231 -113q231 0 346 217q134 257 134 610q-2 178 -74 282.5t-213 104.5q-250 0 -387 -274 q-117 -234 -117 -531zM733 1481q0 20 27 39q24 20 76 61.5t95.5 77.5t78.5 67q42 39 84 39q32 0 56 -25t24 -61q0 -42 -58 -77q-105 -63 -301 -150q-30 -12 -47 -12q-15 2 -25 12.5t-10 28.5z" />
<glyph unicode="&#xd4;" horiz-adv-x="1488" d="M125 539q0 146 44 294t122 252q108 145 250.5 219t345.5 74q261 0 404 -140t143 -400q0 -390 -193 -627q-195 -238 -539 -238q-269 0 -423 147t-154 419zM383 477q0 -183 80 -296t231 -113q231 0 346 217q134 257 134 610q-2 178 -74 282.5t-213 104.5q-250 0 -387 -274 q-117 -234 -117 -531zM592 1462q0 16 14 27q198 185 281 268q11 11 18 16.5t19 10t28 4.5q35 0 54 -29q60 -89 194 -270q10 -13 10 -25q0 -15 -10 -26t-22 -11q-20 0 -43 17q-86 66 -181 151q-13 13 -26 13q-11 0 -31 -15q-27 -18 -77.5 -52t-86.5 -57t-65 -40 q-30 -17 -41 -17q-16 0 -25.5 11.5t-9.5 23.5z" />
<glyph unicode="&#xd5;" horiz-adv-x="1488" d="M125 539q0 146 44 294t122 252q108 145 250.5 219t345.5 74q261 0 404 -140t143 -400q0 -390 -193 -627q-195 -238 -539 -238q-269 0 -423 147t-154 419zM383 477q0 -183 80 -296t231 -113q231 0 346 217q134 257 134 610q-2 178 -74 282.5t-213 104.5q-250 0 -387 -274 q-117 -234 -117 -531zM584 1499q0 20 16 47q43 90 88 125t96 35q45 0 154 -57q78 -41 127 -41q50 0 84 82q12 28 43 28q35 0 35 -32q0 -21 -10 -41q-31 -87 -74.5 -128.5t-106.5 -41.5q-64 0 -149 47q-82 43 -131 43q-28 0 -49 -16.5t-48 -61.5q-13 -23 -38 -23 q-37 0 -37 35z" />
<glyph unicode="&#xd6;" horiz-adv-x="1488" d="M125 539q0 146 44 294t122 252q108 145 250.5 219t345.5 74q261 0 404 -140t143 -400q0 -390 -193 -627q-195 -238 -539 -238q-269 0 -423 147t-154 419zM383 477q0 -183 80 -296t231 -113q231 0 346 217q134 257 134 610q-2 178 -74 282.5t-213 104.5q-250 0 -387 -274 q-117 -234 -117 -531zM664 1563q0 46 33 79t77 33q43 0 70.5 -28.5t27.5 -75.5t-31.5 -81t-74.5 -34q-44 0 -73 28.5t-29 78.5zM1012 1563q0 46 32 79t78 33q43 0 71 -28.5t28 -75.5t-32.5 -81t-76.5 -34t-72 28.5t-28 78.5z" />
<glyph unicode="&#xd7;" horiz-adv-x="1314" d="M270 246q0 7 13 20l319 283l-256 289q-10 13 -10 18q0 9 12 21l76 67q15 10 20 10q9 0 19 -10l256 -285l313 287q13 10 23 10q8 0 18 -10l60 -67q8 -12 8 -15q0 -11 -13 -24l-315 -287l250 -287q8 -8 8 -20q0 -9 -10 -19l-74 -67q-17 -13 -20 -13q-10 0 -21 11l-250 286 l-319 -288q-9 -9 -17 -9q-9 0 -20 11l-61 67q-9 9 -9 21z" />
<glyph unicode="&#xd8;" horiz-adv-x="1488" d="M119 29q0 9 12 24l90 94q10 10 10 21q0 8 -8 16q-98 140 -98 355q0 146 44 294t122 252q108 145 250.5 219t345.5 74q226 0 360 -104q8 -4 17 -4q12 0 20 8l98 106q12 15 31 15q18 0 37 -17.5t20 -35.5q0 -12 -16 -31l-104 -111q-11 -11 -11 -22q0 -1 7 -15 q88 -133 88 -329q0 -390 -193 -627q-195 -238 -539 -238q-227 0 -374 107q-9 6 -19 6q-8 0 -20 -12l-82 -88q-15 -15 -33 -15q-16 0 -35.5 20t-19.5 38zM383 477q0 -55 6 -104q3 -19 17 -19q7 0 18 11l694 737q8 8 8 20q0 13 -4 19q-70 141 -235 141q-250 0 -387 -274 q-117 -234 -117 -531zM438 223q0 -4 6 -16q82 -139 250 -139q231 0 346 217q134 257 134 610q0 36 -3 74q-3 20 -16 20q-6 0 -18 -12l-686 -733q-13 -10 -13 -21z" />
<glyph unicode="&#xd9;" horiz-adv-x="1552" d="M188 354q0 74 17 157t60 247t71 289q24 114 24 153q0 24 -8 37q-16 27 -78 27q-5 0 -19.5 -1t-18.5 -1q-31 0 -31 34q0 60 51 60q5 0 49 -3t108.5 -6.5t121.5 -3.5q56 0 111.5 3.5t90 6.5t39.5 3q43 0 43 -37q0 -25 -11 -41t-32 -16q-3 0 -19 1t-20 1q-54 0 -90 -27 q-21 -18 -36.5 -57t-39.5 -138q-2 -6 -30.5 -125.5t-39 -165t-30 -137.5t-27.5 -150t-8 -97q0 -137 76.5 -207t210.5 -70q99 0 173 21t126 58t92 103t66.5 141.5t52.5 186.5q53 219 96 442q19 98 19 158t-95 60q-4 0 -24.5 -1.5t-24.5 -1.5q-30 0 -30 35q0 28 14 46t39 18 q9 0 93.5 -6.5t137.5 -6.5q55 0 119.5 6.5t67.5 6.5q51 0 51 -33q0 -61 -39 -61q-7 0 -26 1t-23 1q-53 -3 -82 -35q-41 -48 -72 -185q-10 -44 -60 -270.5t-63 -281.5q-29 -129 -78 -223t-125.5 -162t-187.5 -102t-258 -34q-129 0 -225.5 28.5t-154 81t-86 121t-28.5 152.5z M692 1708q0 34 31.5 61t64.5 27q39 0 78 -45q28 -35 59.5 -71.5t82 -92t59.5 -65.5q20 -23 20 -41q0 -16 -14 -28.5t-29 -12.5q-21 0 -45 16q-153 90 -264 176q-43 34 -43 76z" />
<glyph unicode="&#xda;" horiz-adv-x="1552" d="M188 354q0 74 17 157t60 247t71 289q24 114 24 153q0 24 -8 37q-16 27 -78 27q-5 0 -19.5 -1t-18.5 -1q-31 0 -31 34q0 60 51 60q5 0 49 -3t108.5 -6.5t121.5 -3.5q56 0 111.5 3.5t90 6.5t39.5 3q43 0 43 -37q0 -25 -11 -41t-32 -16q-3 0 -19 1t-20 1q-54 0 -90 -27 q-21 -18 -36.5 -57t-39.5 -138q-2 -6 -30.5 -125.5t-39 -165t-30 -137.5t-27.5 -150t-8 -97q0 -137 76.5 -207t210.5 -70q99 0 173 21t126 58t92 103t66.5 141.5t52.5 186.5q53 219 96 442q19 98 19 158t-95 60q-4 0 -24.5 -1.5t-24.5 -1.5q-30 0 -30 35q0 28 14 46t39 18 q9 0 93.5 -6.5t137.5 -6.5q55 0 119.5 6.5t67.5 6.5q51 0 51 -33q0 -61 -39 -61q-7 0 -26 1t-23 1q-53 -3 -82 -35q-41 -48 -72 -185q-10 -44 -60 -270.5t-63 -281.5q-29 -129 -78 -223t-125.5 -162t-187.5 -102t-258 -34q-129 0 -225.5 28.5t-154 81t-86 121t-28.5 152.5z M829 1481q0 20 27 39q24 20 76 61.5t95.5 77.5t78.5 67q42 39 84 39q32 0 56 -25t24 -61q0 -42 -58 -77q-105 -63 -301 -150q-30 -12 -47 -12q-15 2 -25 12.5t-10 28.5z" />
<glyph unicode="&#xdb;" horiz-adv-x="1552" d="M188 354q0 74 17 157t60 247t71 289q24 114 24 153q0 24 -8 37q-16 27 -78 27q-5 0 -19.5 -1t-18.5 -1q-31 0 -31 34q0 60 51 60q5 0 49 -3t108.5 -6.5t121.5 -3.5q56 0 111.5 3.5t90 6.5t39.5 3q43 0 43 -37q0 -25 -11 -41t-32 -16q-3 0 -19 1t-20 1q-54 0 -90 -27 q-21 -18 -36.5 -57t-39.5 -138q-2 -6 -30.5 -125.5t-39 -165t-30 -137.5t-27.5 -150t-8 -97q0 -137 76.5 -207t210.5 -70q99 0 173 21t126 58t92 103t66.5 141.5t52.5 186.5q53 219 96 442q19 98 19 158t-95 60q-4 0 -24.5 -1.5t-24.5 -1.5q-30 0 -30 35q0 28 14 46t39 18 q9 0 93.5 -6.5t137.5 -6.5q55 0 119.5 6.5t67.5 6.5q51 0 51 -33q0 -61 -39 -61q-7 0 -26 1t-23 1q-53 -3 -82 -35q-41 -48 -72 -185q-10 -44 -60 -270.5t-63 -281.5q-29 -129 -78 -223t-125.5 -162t-187.5 -102t-258 -34q-129 0 -225.5 28.5t-154 81t-86 121t-28.5 152.5z M666 1462q0 16 14 27q198 185 281 268q11 11 18 16.5t19 10t28 4.5q21 0 32 -6.5t21 -22.5q49 -72 195 -270q10 -13 10 -25q0 -15 -10.5 -26t-22.5 -11q-20 0 -43 17q-79 61 -180 151q-13 13 -27 13q-10 0 -30 -15q-25 -17 -77 -52t-87.5 -57.5t-65.5 -39.5t-41 -17 q-16 0 -25 11.5t-9 23.5z" />
<glyph unicode="&#xdc;" horiz-adv-x="1552" d="M188 354q0 74 17 157t60 247t71 289q24 114 24 153q0 24 -8 37q-16 27 -78 27q-5 0 -19.5 -1t-18.5 -1q-31 0 -31 34q0 60 51 60q5 0 49 -3t108.5 -6.5t121.5 -3.5q56 0 111.5 3.5t90 6.5t39.5 3q43 0 43 -37q0 -25 -11 -41t-32 -16q-3 0 -19 1t-20 1q-54 0 -90 -27 q-21 -18 -36.5 -57t-39.5 -138q-2 -6 -30.5 -125.5t-39 -165t-30 -137.5t-27.5 -150t-8 -97q0 -137 76.5 -207t210.5 -70q99 0 173 21t126 58t92 103t66.5 141.5t52.5 186.5q53 219 96 442q19 98 19 158t-95 60q-4 0 -24.5 -1.5t-24.5 -1.5q-30 0 -30 35q0 28 14 46t39 18 q9 0 93.5 -6.5t137.5 -6.5q55 0 119.5 6.5t67.5 6.5q51 0 51 -33q0 -61 -39 -61q-7 0 -26 1t-23 1q-53 -3 -82 -35q-41 -48 -72 -185q-10 -44 -60 -270.5t-63 -281.5q-29 -129 -78 -223t-125.5 -162t-187.5 -102t-258 -34q-129 0 -225.5 28.5t-154 81t-86 121t-28.5 152.5z M709 1563q0 46 33 79t77 33q43 0 71 -28.5t28 -75.5t-32 -81t-75 -34q-44 0 -73 28.5t-29 78.5zM1057 1563q0 46 32 79t78 33q43 0 71 -28.5t28 -75.5t-32.5 -81t-76.5 -34t-72 28.5t-28 78.5z" />
<glyph unicode="&#xdd;" horiz-adv-x="1388" d="M195 1296q0 26 14 44t41 18q7 0 46 -3t98.5 -6t117.5 -3q42 0 165 6t130 6q31 0 31 -37q0 -26 -13.5 -42.5t-38.5 -16.5q-9 0 -25 1t-26 1q-48 0 -76 -14t-28 -54q0 -48 49 -184l76 -211q15 -43 23.5 -57.5t17.5 -14.5q7 0 13.5 3.5t22.5 19.5t41 47l175 217 q131 165 131 205q0 29 -18 36t-68 7q-21 0 -38.5 -1t-19.5 -1q-14 0 -22 8t-8 22q0 66 51 66l81 -6q82 -6 162 -6q66 0 133 6t70 6q24 0 35.5 -8t11.5 -31q0 -24 -12.5 -39.5t-26.5 -15.5q-3 0 -19 1t-22 1q-38 0 -81 -37q-54 -44 -195 -211l-332 -400q-14 -13 -24 -38 q-7 -15 -13 -43l-53 -224q-22 -94 -22 -151q0 -31 18 -49q20 -23 88 -23q4 0 18 1t17 1q19 0 26 -8.5t7 -28.5q0 -23 -13.5 -40t-40.5 -17q-5 0 -49.5 3t-109 6t-119.5 3q-56 0 -122 -3t-111.5 -6t-49.5 -3q-33 0 -33 35q0 22 12.5 40.5t35.5 18.5q2 0 21 -1t24 -1 q79 0 104 41q34 53 64 184l45 199q8 28 8 49q0 19 -12 49l-154 394q-44 118 -92 219q-19 39 -70 39q-5 0 -17.5 -1t-17.5 -1q-32 0 -32 34zM754 1481q0 20 26 39q24 20 76 61.5t95.5 77.5t78.5 67q42 39 84 39q32 0 56 -25t24 -61q0 -42 -57 -77q-105 -63 -301 -150 q-30 -12 -48 -12q-14 2 -24 12.5t-10 28.5z" />
<glyph unicode="&#xde;" horiz-adv-x="1245" d="M-43 29q0 25 10.5 44t34.5 19q2 0 20 -1t23 -1q65 0 94 43q29 41 60 178l168 725q26 116 26 164q0 64 -96 64q-4 0 -20 -1t-21 -1q-12 0 -21.5 8t-9.5 22q0 64 49 64q5 0 49.5 -3t109 -6.5t118.5 -3.5q55 0 116 3.5t101 6.5t45 3q41 0 41 -35q0 -22 -12 -40.5t-33 -18.5 q-4 0 -21 1t-22 1q-43 0 -66.5 -5.5t-37.5 -23.5q-17 -24 -37 -100q-4 -16 -4 -31q0 -25 26 -25q16 0 76 2t86 2q212 0 315 -81.5t103 -225.5q0 -120 -48.5 -211.5t-135.5 -146.5t-200 -82t-251 -27q-22 0 -66.5 2t-50.5 2q-20 0 -30.5 -9t-16.5 -34q-16 -72 -16 -114 q0 -37 28.5 -51.5t85.5 -14.5q4 0 22 1t23 1q35 0 35 -41q0 -24 -15 -38.5t-42 -14.5q-5 0 -115.5 5t-179.5 5q-55 0 -116 -2.5t-100.5 -5t-43.5 -2.5q-14 0 -25.5 7.5t-11.5 23.5zM473 453q0 -21 10 -31q6 -6 30.5 -10t41.5 -4q206 0 307 85t101 273q0 99 -65.5 160 t-184.5 61q-67 0 -92 -6q-32 -6 -43 -57l-101 -432q-4 -28 -4 -39z" />
<glyph unicode="&#xdf;" horiz-adv-x="1228" d="M-436 -510q0 39 23.5 65.5t58.5 26.5q30 0 43 -26q18 -37 43 -56q27 -18 80 -18q81 0 145 74q98 115 221 680q20 88 57.5 270.5t55.5 265.5q4 24 4 31q0 16 -14 16q-24 0 -73 -1t-69 -1q-11 0 -18.5 6.5t-7.5 14.5q0 58 32 61q94 11 136 27q26 8 43 47t71 203 q46 138 107.5 223t142.5 147q67 52 153 75.5t169 23.5q131 0 220 -64t89 -186q0 -67 -23 -130t-66 -119t-88.5 -100t-105.5 -92q-4 -3 -22 -17l-27 -21t-26 -22t-26 -26.5t-19.5 -26t-15.5 -29.5t-5 -30q0 -60 125 -202q83 -95 120.5 -167t37.5 -137q0 -130 -106.5 -217.5 t-266.5 -87.5q-71 0 -133 18.5t-92 45.5q-43 34 -43 71q0 38 23.5 69.5t66.5 31.5q35 0 55 -33q18 -30 29.5 -44.5t31.5 -32t47.5 -24.5t65.5 -7q49 0 93 39.5t44 95.5q0 55 -31.5 116.5t-113.5 151.5q-77 87 -106 142.5t-29 111.5q0 21 5 40t19 40t26.5 37t40 42t45 42 t56.5 50t62 54q65 57 119.5 164.5t54.5 187.5q0 86 -43.5 131t-118.5 45q-126 0 -209 -102q-86 -107 -143 -317q-24 -83 -97 -430.5t-90 -421.5q-45 -195 -91.5 -337.5t-91.5 -227.5t-80.5 -131.5t-78.5 -84.5q-127 -114 -299 -114q-96 0 -155 39q-15 11 -26 28.5t-11 32.5z " />
<glyph unicode="&#xe0;" horiz-adv-x="1193" d="M37 178q0 254 190 496q216 270 480 270q82 0 145 -18q5 -1 17 -5.5t22.5 -8t15.5 -3.5q19 0 33 17q6 9 21 39q9 20 22.5 27t42.5 7q55 0 55 -34q0 -20 -10 -47q-14 -44 -50 -152t-58 -178t-43 -146q-58 -208 -58 -280q0 -58 53 -58q25 0 60 20.5t63 55.5q35 44 45 90 q6 31 37 31q37 0 37 -35q0 -16 -33 -80q-50 -88 -143 -150.5t-178 -62.5q-120 0 -123 117q0 82 39 195q2 9 6 20.5t6 18.5t2 10q0 10 -14 10q-15 0 -23 -14q-64 -109 -71 -119q-92 -135 -182.5 -187.5t-194.5 -52.5q-96 0 -153.5 57.5t-57.5 149.5zM260 231q0 -108 86 -108 q77 0 154 74q111 103 205 280q64 118 83 203q19 70 19 96q0 36 -33 54t-84 18q-130 0 -260 -174q-77 -100 -123.5 -227.5t-46.5 -215.5zM543 1393q2 31 27.5 54t66.5 23q51 0 78 -61q65 -131 137 -264q12 -18 12 -39q0 -13 -11.5 -24t-27.5 -11q-24 0 -51 29 q-149 152 -201 219q-30 35 -30 74z" />
<glyph unicode="&#xe1;" horiz-adv-x="1193" d="M37 178q0 254 190 496q216 270 480 270q82 0 145 -18q5 -1 17 -5.5t22.5 -8t15.5 -3.5q19 0 33 17q6 9 21 39q9 20 22.5 27t42.5 7q55 0 55 -34q0 -20 -10 -47q-14 -44 -50 -152t-58 -178t-43 -146q-58 -208 -58 -280q0 -58 53 -58q25 0 60 20.5t63 55.5q35 44 45 90 q6 31 37 31q37 0 37 -35q0 -16 -33 -80q-50 -88 -143 -150.5t-178 -62.5q-120 0 -123 117q0 82 39 195q2 9 6 20.5t6 18.5t2 10q0 10 -14 10q-15 0 -23 -14q-64 -109 -71 -119q-92 -135 -182.5 -187.5t-194.5 -52.5q-96 0 -153.5 57.5t-57.5 149.5zM260 231q0 -108 86 -108 q77 0 154 74q111 103 205 280q64 118 83 203q19 70 19 96q0 36 -33 54t-84 18q-130 0 -260 -174q-77 -100 -123.5 -227.5t-46.5 -215.5zM700 1106q0 16 21 41q18 24 56.5 74.5t71 95t60.5 88.5q36 57 90 57q39 0 58.5 -20t19.5 -51q0 -39 -41 -80q-89 -85 -245 -211 q-32 -27 -56 -27q-16 0 -25.5 10t-9.5 23z" />
<glyph unicode="&#xe2;" horiz-adv-x="1193" d="M37 178q0 254 190 496q216 270 480 270q82 0 145 -18q5 -1 17 -5.5t22.5 -8t15.5 -3.5q19 0 33 17q6 9 21 39q9 20 22.5 27t42.5 7q55 0 55 -34q0 -20 -10 -47q-14 -44 -50 -152t-58 -178t-43 -146q-58 -208 -58 -280q0 -58 53 -58q25 0 60 20.5t63 55.5q35 44 45 90 q6 31 37 31q37 0 37 -35q0 -16 -33 -80q-50 -88 -143 -150.5t-178 -62.5q-120 0 -123 117q0 82 39 195q2 9 6 20.5t6 18.5t2 10q0 10 -14 10q-15 0 -23 -14q-64 -109 -71 -119q-92 -135 -182.5 -187.5t-194.5 -52.5q-96 0 -153.5 57.5t-57.5 149.5zM260 231q0 -108 86 -108 q77 0 154 74q111 103 205 280q64 118 83 203q19 70 19 96q0 36 -33 54t-84 18q-130 0 -260 -174q-77 -100 -123.5 -227.5t-46.5 -215.5zM504 1106q0 16 14 33q6 7 107 122.5t151 178.5q28 35 64 35t51 -33q63 -165 131 -307q6 -15 6 -25q0 -17 -11.5 -27t-29.5 -10 q-19 0 -35 19q-22 25 -42.5 52t-46.5 62t-40 54q-12 14 -20 14q-10 0 -27 -17q-83 -76 -201 -167q-20 -17 -36 -17q-13 0 -24 10.5t-11 22.5z" />
<glyph unicode="&#xe3;" horiz-adv-x="1193" d="M37 178q0 254 190 496q216 270 480 270q82 0 145 -18q5 -1 17 -5.5t22.5 -8t15.5 -3.5q19 0 33 17q6 9 21 39q9 20 22.5 27t42.5 7q55 0 55 -34q0 -20 -10 -47q-14 -44 -50 -152t-58 -178t-43 -146q-58 -208 -58 -280q0 -58 53 -58q25 0 60 20.5t63 55.5q35 44 45 90 q6 31 37 31q37 0 37 -35q0 -16 -33 -80q-50 -88 -143 -150.5t-178 -62.5q-120 0 -123 117q0 82 39 195q2 9 6 20.5t6 18.5t2 10q0 10 -14 10q-15 0 -23 -14q-64 -109 -71 -119q-92 -135 -182.5 -187.5t-194.5 -52.5q-96 0 -153.5 57.5t-57.5 149.5zM260 231q0 -108 86 -108 q77 0 154 74q111 103 205 280q64 118 83 203q19 70 19 96q0 36 -33 54t-84 18q-130 0 -260 -174q-77 -100 -123.5 -227.5t-46.5 -215.5zM518 1151q0 15 12 39q44 97 87.5 132.5t93.5 35.5q14 0 36 -9t39.5 -18.5t57.5 -32.5q68 -38 110 -38q47 0 76 79q13 29 43 29 q14 0 23.5 -9t9.5 -26q0 -7 -8 -39q-33 -88 -74.5 -130t-101.5 -42q-49 0 -129 47q-78 45 -107 45t-49.5 -14.5t-42.5 -58.5q-13 -23 -39 -23q-37 0 -37 33z" />
<glyph unicode="&#xe4;" horiz-adv-x="1193" d="M37 178q0 254 190 496q216 270 480 270q82 0 145 -18q5 -1 17 -5.5t22.5 -8t15.5 -3.5q19 0 33 17q6 9 21 39q9 20 22.5 27t42.5 7q55 0 55 -34q0 -20 -10 -47q-14 -44 -50 -152t-58 -178t-43 -146q-58 -208 -58 -280q0 -58 53 -58q25 0 60 20.5t63 55.5q35 44 45 90 q6 31 37 31q37 0 37 -35q0 -16 -33 -80q-50 -88 -143 -150.5t-178 -62.5q-120 0 -123 117q0 82 39 195q2 9 6 20.5t6 18.5t2 10q0 10 -14 10q-15 0 -23 -14q-64 -109 -71 -119q-92 -135 -182.5 -187.5t-194.5 -52.5q-96 0 -153.5 57.5t-57.5 149.5zM260 231q0 -108 86 -108 q77 0 154 74q111 103 205 280q64 118 83 203q19 70 19 96q0 36 -33 54t-84 18q-130 0 -260 -174q-77 -100 -123.5 -227.5t-46.5 -215.5zM557 1239q0 48 31 81.5t80 33.5q41 0 69.5 -26.5t28.5 -70.5q0 -49 -30.5 -83.5t-80.5 -34.5q-42 0 -70 26.5t-28 73.5zM881 1239 q0 49 30 82t80 33q41 0 70 -26.5t29 -70.5q0 -48 -31.5 -83t-77.5 -35q-43 0 -71.5 26t-28.5 74z" />
<glyph unicode="&#xe5;" horiz-adv-x="1193" d="M37 178q0 254 190 496q216 270 480 270q82 0 145 -18q5 -1 17 -5.5t22.5 -8t15.5 -3.5q19 0 33 17q6 9 21 39q9 20 22.5 27t42.5 7q55 0 55 -34q0 -20 -10 -47q-14 -44 -50 -152t-58 -178t-43 -146q-58 -208 -58 -280q0 -58 53 -58q25 0 60 20.5t63 55.5q35 44 45 90 q6 31 37 31q37 0 37 -35q0 -16 -33 -80q-50 -88 -143 -150.5t-178 -62.5q-120 0 -123 117q0 82 39 195q2 9 6 20.5t6 18.5t2 10q0 10 -14 10q-15 0 -23 -14q-64 -109 -71 -119q-92 -135 -182.5 -187.5t-194.5 -52.5q-96 0 -153.5 57.5t-57.5 149.5zM260 231q0 -108 86 -108 q77 0 154 74q111 103 205 280q64 118 83 203q19 70 19 96q0 36 -33 54t-84 18q-130 0 -260 -174q-77 -100 -123.5 -227.5t-46.5 -215.5zM612 1223q0 92 58.5 150.5t144.5 58.5q77 0 124.5 -47t47.5 -123q0 -89 -54.5 -151t-146.5 -62q-80 0 -127 49t-47 125zM694 1227 q0 -46 25.5 -75.5t68.5 -29.5q55 0 87 35.5t32 99.5q0 51 -26.5 77t-71.5 26q-49 0 -82 -36.5t-33 -96.5z" />
<glyph unicode="&#xe6;" horiz-adv-x="1527" d="M37 180q0 250 184 486q113 144 229 210t271 66q65 0 121 -18q7 -2 20.5 -8t22.5 -8.5t18 -2.5q17 0 35 25q17 34 18 37q13 45 60 45q51 0 51 -29q0 -18 -10 -41q-1 -2 -25 -57q-4 -8 -4 -17q0 -8 10 -8q7 0 21 14q67 46 123.5 65t124.5 19q46 0 86.5 -13t71 -47.5 t30.5 -86.5q0 -130 -123 -209q-82 -53 -172 -84t-252 -67q-37 -8 -45 -45q-12 -59 -12 -134q0 -25 7.5 -53.5t24.5 -60.5t53.5 -53t86.5 -21q77 0 138.5 31.5t98.5 83.5q31 40 46 80q11 32 38 32q20 0 31.5 -10t11.5 -22q0 -26 -22 -62q-157 -246 -436 -246q-121 0 -191 57 t-78 152q-4 51 -4 92q0 13 -10 13q-8 0 -16 -13q-28 -46 -66 -94q-86 -112 -173 -159.5t-187 -47.5q-101 0 -154 58t-53 151zM260 233q0 -110 82 -110q49 0 89 25.5t93 76.5q87 87 170 234q62 109 94 215q19 70 19 98q0 36 -31 56t-86 20q-131 0 -268 -182 q-61 -82 -111.5 -211.5t-50.5 -221.5zM936 539q0 -15 16 -15q15 0 23 2q175 48 255.5 116.5t80.5 141.5q0 43 -21.5 63.5t-58.5 20.5q-87 0 -172 -90q-64 -64 -113 -200q-10 -25 -10 -39z" />
<glyph unicode="&#xe7;" horiz-adv-x="884" d="M61 256q0 272 181 494q92 113 194 160.5t228 47.5q91 0 154 -39.5t63 -107.5q0 -43 -24.5 -69.5t-68.5 -26.5q-39 0 -58 16.5t-21 42.5q-3 50 -23 76q-18 27 -74 27q-71 0 -144 -71.5t-130 -207.5q-34 -83 -52 -169t-18 -146q0 -91 43.5 -145t120.5 -54q89 0 156 38 t106 101q17 24 25 51q12 37 39 37q18 0 31.5 -9.5t13.5 -29.5q0 -21 -21 -55q-129 -209 -356 -242q-23 -4 -35 -28q-20 -45 -20 -53q0 -20 20 -27q123 -39 123 -152q0 -58 -33 -106t-84.5 -77.5t-110.5 -45.5t-114 -16q-47 0 -47 47q0 42 61 45q69 2 121 32t53 89 q0 68 -84 92q-28 11 -28 37q0 21 22 61q35 68 35 78q0 24 -22 29q-106 20 -164 95t-58 181z" />
<glyph unicode="&#xe8;" horiz-adv-x="905" d="M61 256q0 165 67 311t183 254q74 69 166.5 104.5t175.5 35.5q107 0 164 -42t57 -124q0 -138 -172 -226q-75 -39 -146.5 -60.5t-223.5 -53.5q-41 -9 -51 -52q-15 -73 -15 -122q0 -93 46.5 -145t117.5 -52q169 0 258 129q23 33 33 63q11 35 39 35q22 0 32.5 -11t10.5 -24 q0 -22 -23 -63q-65 -105 -171.5 -173.5t-252.5 -68.5q-136 0 -215.5 80.5t-79.5 204.5zM315 543q0 -19 19 -19q8 0 24 4q96 27 166 66.5t103 80.5t47 73.5t14 58.5q0 74 -82 74q-29 0 -73.5 -22t-86.5 -71q-32 -37 -68 -98.5t-56 -120.5q-7 -14 -7 -26zM389 1393 q2 31 27.5 54t66.5 23q51 0 78 -61q65 -131 137 -264q13 -19 13 -39q0 -13 -11.5 -24t-27.5 -11q-24 0 -51 29q-149 152 -201 219q-31 36 -31 74z" />
<glyph unicode="&#xe9;" horiz-adv-x="905" d="M61 256q0 165 67 311t183 254q74 69 166.5 104.5t175.5 35.5q107 0 164 -42t57 -124q0 -138 -172 -226q-75 -39 -146.5 -60.5t-223.5 -53.5q-41 -9 -51 -52q-15 -73 -15 -122q0 -93 46.5 -145t117.5 -52q169 0 258 129q23 33 33 63q11 35 39 35q22 0 32.5 -11t10.5 -24 q0 -22 -23 -63q-65 -105 -171.5 -173.5t-252.5 -68.5q-136 0 -215.5 80.5t-79.5 204.5zM315 543q0 -19 19 -19q8 0 24 4q96 27 166 66.5t103 80.5t47 73.5t14 58.5q0 74 -82 74q-29 0 -73.5 -22t-86.5 -71q-32 -37 -68 -98.5t-56 -120.5q-7 -14 -7 -26zM539 1106q0 17 20 41 q19 26 57 75.5t71 94.5t61 88q36 57 90 57q39 0 58 -19.5t19 -51.5q0 -39 -41 -80q-89 -85 -245 -211q-32 -27 -56 -27q-16 0 -25 10t-9 23z" />
<glyph unicode="&#xea;" horiz-adv-x="905" d="M61 256q0 165 67 311t183 254q74 69 166.5 104.5t175.5 35.5q107 0 164 -42t57 -124q0 -138 -172 -226q-75 -39 -146.5 -60.5t-223.5 -53.5q-41 -9 -51 -52q-15 -73 -15 -122q0 -93 46.5 -145t117.5 -52q169 0 258 129q23 33 33 63q11 35 39 35q22 0 32.5 -11t10.5 -24 q0 -22 -23 -63q-65 -105 -171.5 -173.5t-252.5 -68.5q-136 0 -215.5 80.5t-79.5 204.5zM315 543q0 -19 19 -19q8 0 24 4q96 27 166 66.5t103 80.5t47 73.5t14 58.5q0 74 -82 74q-29 0 -73.5 -22t-86.5 -71q-32 -37 -68 -98.5t-56 -120.5q-7 -14 -7 -26zM387 1106q0 16 14 33 q6 7 107 122.5t151 178.5q28 35 64 35t51 -33q63 -165 131 -307q6 -15 6 -25q0 -17 -11.5 -27t-29.5 -10t-34 19q-22 25 -42.5 52t-46.5 62t-40 54q-12 14 -21 14q-10 0 -27 -17q-88 -81 -200 -167q-20 -17 -37 -17q-13 0 -24 10.5t-11 22.5z" />
<glyph unicode="&#xeb;" horiz-adv-x="905" d="M61 256q0 165 67 311t183 254q74 69 166.5 104.5t175.5 35.5q107 0 164 -42t57 -124q0 -138 -172 -226q-75 -39 -146.5 -60.5t-223.5 -53.5q-41 -9 -51 -52q-15 -73 -15 -122q0 -93 46.5 -145t117.5 -52q169 0 258 129q23 33 33 63q11 35 39 35q22 0 32.5 -11t10.5 -24 q0 -22 -23 -63q-65 -105 -171.5 -173.5t-252.5 -68.5q-136 0 -215.5 80.5t-79.5 204.5zM315 543q0 -19 19 -19q8 0 24 4q96 27 166 66.5t103 80.5t47 73.5t14 58.5q0 74 -82 74q-29 0 -73.5 -22t-86.5 -71q-32 -37 -68 -98.5t-56 -120.5q-7 -14 -7 -26zM422 1239 q0 48 30.5 81.5t79.5 33.5q41 0 70 -26.5t29 -70.5q0 -49 -30.5 -83.5t-80.5 -34.5q-42 0 -70 26.5t-28 73.5zM745 1239q0 49 30.5 82t80.5 33q41 0 69.5 -26.5t28.5 -70.5q0 -48 -31 -83t-77 -35q-43 0 -72 26t-29 74z" />
<glyph unicode="&#xec;" horiz-adv-x="708" d="M68 686q0 26 18 53q61 95 155.5 156t186.5 61q119 0 119 -114q0 -45 -23 -121.5t-98 -286.5q-84 -236 -84 -280q0 -48 43 -48q70 0 125 80q32 44 41 82q11 33 37 33q41 0 41 -35q0 -20 -21 -57q-22 -43 -63 -90q-67 -74 -144.5 -110t-140.5 -36q-133 0 -133 109 q0 64 125 403q78 210 78 283q0 30 -9 41.5t-30 11.5q-28 0 -63 -22.5t-60 -61.5q-10 -15 -27 -59q-8 -23 -41 -23q-12 0 -22 9.5t-10 21.5zM213 1393q2 31 27.5 54t66.5 23q51 0 78 -61q65 -131 137 -264q13 -19 13 -39q0 -13 -11.5 -24t-27.5 -11q-25 0 -52 29 q-144 147 -200 219q-31 36 -31 74z" />
<glyph unicode="&#xed;" horiz-adv-x="708" d="M68 686q0 26 18 53q61 95 155.5 156t186.5 61q119 0 119 -114q0 -45 -23 -121.5t-98 -286.5q-84 -236 -84 -280q0 -48 43 -48q70 0 125 80q32 44 41 82q11 33 37 33q41 0 41 -35q0 -20 -21 -57q-22 -43 -63 -90q-67 -74 -144.5 -110t-140.5 -36q-133 0 -133 109 q0 64 125 403q78 210 78 283q0 30 -9 41.5t-30 11.5q-28 0 -63 -22.5t-60 -61.5q-10 -15 -27 -59q-8 -23 -41 -23q-12 0 -22 9.5t-10 21.5zM334 1106q0 17 20 41q19 26 57 75.5t71 94.5t61 88q36 57 90 57q39 0 58.5 -20t19.5 -51q0 -39 -41 -80q-84 -80 -246 -211 q-32 -27 -55 -27q-16 0 -25.5 10t-9.5 23z" />
<glyph unicode="&#xee;" horiz-adv-x="708" d="M68 686q0 26 18 53q61 95 155.5 156t186.5 61q119 0 119 -114q0 -45 -23 -121.5t-98 -286.5q-84 -236 -84 -280q0 -48 43 -48q70 0 125 80q32 44 41 82q11 33 37 33q41 0 41 -35q0 -20 -21 -57q-22 -43 -63 -90q-67 -74 -144.5 -110t-140.5 -36q-133 0 -133 109 q0 64 125 403q78 210 78 283q0 30 -9 41.5t-30 11.5q-28 0 -63 -22.5t-60 -61.5q-10 -15 -27 -59q-8 -23 -41 -23q-12 0 -22 9.5t-10 21.5zM168 1106q0 16 14 33q6 7 107 122.5t151 178.5q28 35 64 35t51 -33q63 -165 131 -307q6 -15 6 -25q0 -17 -11.5 -27t-29.5 -10 q-19 0 -35 19q-22 25 -42.5 52t-46.5 62t-40 54q-12 14 -20 14q-10 0 -27 -17q-88 -81 -200 -167q-20 -17 -37 -17q-13 0 -24 10.5t-11 22.5z" />
<glyph unicode="&#xef;" horiz-adv-x="708" d="M68 686q0 26 18 53q61 95 155.5 156t186.5 61q119 0 119 -114q0 -45 -23 -121.5t-98 -286.5q-84 -236 -84 -280q0 -48 43 -48q70 0 125 80q32 44 41 82q11 33 37 33q41 0 41 -35q0 -20 -21 -57q-22 -43 -63 -90q-67 -74 -144.5 -110t-140.5 -36q-133 0 -133 109 q0 64 125 403q78 210 78 283q0 30 -9 41.5t-30 11.5q-28 0 -63 -22.5t-60 -61.5q-10 -15 -27 -59q-8 -23 -41 -23q-12 0 -22 9.5t-10 21.5zM209 1239q0 48 30.5 81.5t79.5 33.5q41 0 70 -26.5t29 -70.5q0 -49 -30.5 -83.5t-80.5 -34.5q-42 0 -70 26.5t-28 73.5zM532 1239 q0 49 30.5 82t80.5 33q41 0 69.5 -26.5t28.5 -70.5q0 -48 -31 -83t-77 -35q-43 0 -72 26t-29 74z" />
<glyph unicode="&#xf0;" horiz-adv-x="1019" d="M66 313q0 265 172 459q68 79 163.5 123.5t200.5 44.5q99 0 148 -49q19 -19 26 -19q14 0 17 23q2 12 2 49q0 165 -70 305q-7 11 -16 11q-2 0 -8 -2l-9 -3l-213 -106q-20 -10 -39 -10q-16 0 -25 16.5t-9 36.5q0 22 26 35l211 104q16 8 16 21q0 2 -4 14q-38 71 -118 137 q-60 44 -93 64q-26 14 -26 35q0 24 13.5 37.5t37.5 13.5q26 0 98 -33q123 -56 232 -178q8 -8 18 -8q9 0 17 4l161 82q13 8 29 8q17 0 28 -17.5t11 -40.5q0 -4 -2 -8.5t-4 -7t-7 -6.5t-7 -5.5t-9 -5.5t-8 -5l-137 -68q-16 -8 -19 -18q0 -9 2 -13q58 -125 81.5 -246t23.5 -274 q0 -157 -53.5 -349.5t-137.5 -301.5q-68 -88 -166 -139.5t-210 -51.5q-161 0 -252.5 93t-91.5 249zM268 227q0 -73 37 -123.5t103 -50.5q64 0 109 33t87 102q59 100 98 249.5t39 246.5q0 80 -33.5 124t-97.5 44q-114 0 -200 -133q-66 -103 -104 -234t-38 -258z" />
<glyph unicode="&#xf1;" horiz-adv-x="1239" d="M68 688q0 25 26 64q61 91 152.5 147.5t183.5 56.5q48 0 74 -24.5t26 -61.5q0 -40 -18 -92.5t-74 -185.5q-4 -12 -4 -17q0 -8 15 -8q7 0 14 11q61 106 139 192q163 180 350 180q56 0 95.5 -25t39.5 -85q0 -33 -15.5 -92.5t-30.5 -103t-54 -153.5q-4 -11 -6 -17t-5.5 -16 t-6.5 -18q-81 -222 -84 -288q0 -46 41 -46q74 0 133 84q23 34 35 72q12 39 39 39q20 0 29 -10.5t9 -24.5q0 -19 -18 -55q-36 -68 -92 -121q-130 -117 -262 -117q-129 0 -129 103q0 21 12 65.5t26.5 88.5t42 124.5t44.5 132.5q67 210 67 256q0 45 -51 45q-54 0 -115 -49 q-144 -117 -241 -288q-28 -52 -59.5 -139t-47.5 -152q-5 -23 -10 -92q-2 -41 -20 -61.5t-70 -20.5q-63 0 -93 24.5t-30 63.5q0 20 14 69q17 58 72 216t84 255q29 101 29 158q0 49 -37 49q-59 0 -103 -59q-26 -32 -41 -78q-11 -29 -41 -29q-16 0 -25 9.5t-9 23.5zM451 1151 q0 15 12 39q44 97 87 132.5t93 35.5q14 0 36 -9t39.5 -18.5t57.5 -32.5q68 -38 111 -38q47 0 76 79q13 29 43 29q14 0 23 -9t9 -26q0 -7 -8 -39q-33 -88 -74.5 -130t-101.5 -42q-49 0 -129 47q-78 45 -107 45t-49.5 -14.5t-42.5 -58.5q-13 -23 -39 -23q-36 0 -36 33z" />
<glyph unicode="&#xf2;" horiz-adv-x="1017" d="M66 313q0 133 49.5 257.5t132.5 222.5q68 77 170.5 122.5t208.5 45.5q150 0 236.5 -87t86.5 -231q0 -129 -44 -256t-120 -225q-69 -87 -167 -139t-209 -52q-161 0 -252.5 93t-91.5 249zM268 227q0 -73 37 -123.5t103 -50.5q64 0 109 33t87 102q60 100 104 263.5t44 259.5 q0 163 -134 163q-112 0 -196 -135q-67 -108 -110.5 -248.5t-43.5 -263.5zM424 1393q2 31 27.5 54t66.5 23q51 0 78 -61q65 -131 137 -264q12 -18 12 -39q0 -13 -11 -24t-27 -11q-25 0 -52 29q-144 147 -200 219q-31 36 -31 74z" />
<glyph unicode="&#xf3;" horiz-adv-x="1017" d="M66 313q0 133 49.5 257.5t132.5 222.5q68 77 170.5 122.5t208.5 45.5q150 0 236.5 -87t86.5 -231q0 -129 -44 -256t-120 -225q-69 -87 -167 -139t-209 -52q-161 0 -252.5 93t-91.5 249zM268 227q0 -73 37 -123.5t103 -50.5q64 0 109 33t87 102q60 100 104 263.5t44 259.5 q0 163 -134 163q-112 0 -196 -135q-67 -108 -110.5 -248.5t-43.5 -263.5zM535 1106q0 17 20 41q18 24 56.5 74.5t71 95t60.5 88.5q36 57 91 57q39 0 58 -19.5t19 -51.5q0 -39 -41 -80q-89 -85 -245 -211q-32 -27 -56 -27q-16 0 -25 10t-9 23z" />
<glyph unicode="&#xf4;" horiz-adv-x="1017" d="M66 313q0 133 49.5 257.5t132.5 222.5q68 77 170.5 122.5t208.5 45.5q150 0 236.5 -87t86.5 -231q0 -129 -44 -256t-120 -225q-69 -87 -167 -139t-209 -52q-161 0 -252.5 93t-91.5 249zM268 227q0 -73 37 -123.5t103 -50.5q64 0 109 33t87 102q60 100 104 263.5t44 259.5 q0 163 -134 163q-112 0 -196 -135q-67 -108 -110.5 -248.5t-43.5 -263.5zM389 1106q0 16 14 33q8 9 108.5 123.5t150.5 177.5q28 35 63 35q36 0 51 -33q63 -165 131 -307q6 -15 6 -25q0 -17 -11.5 -27t-29.5 -10t-34 19q-22 25 -42.5 52t-46.5 62t-40 54q-12 14 -21 14 t-26 -17q-83 -76 -201 -167q-20 -17 -37 -17q-13 0 -24 10.5t-11 22.5z" />
<glyph unicode="&#xf5;" horiz-adv-x="1017" d="M66 313q0 133 49.5 257.5t132.5 222.5q68 77 170.5 122.5t208.5 45.5q150 0 236.5 -87t86.5 -231q0 -129 -44 -256t-120 -225q-69 -87 -167 -139t-209 -52q-161 0 -252.5 93t-91.5 249zM268 227q0 -73 37 -123.5t103 -50.5q64 0 109 33t87 102q60 100 104 263.5t44 259.5 q0 163 -134 163q-112 0 -196 -135q-67 -108 -110.5 -248.5t-43.5 -263.5zM401 1151q0 13 13 39q44 97 87 132.5t93 35.5q14 0 36 -9t39.5 -18.5t57.5 -32.5q68 -38 111 -38q46 0 75 79q13 29 43 29q14 0 23.5 -9t9.5 -26q0 -7 -8 -39q-33 -88 -74.5 -130t-101.5 -42 q-49 0 -129 47q-78 45 -107 45t-49.5 -14.5t-42.5 -58.5q-13 -23 -39 -23q-37 0 -37 33z" />
<glyph unicode="&#xf6;" horiz-adv-x="1017" d="M66 313q0 133 49.5 257.5t132.5 222.5q68 77 170.5 122.5t208.5 45.5q150 0 236.5 -87t86.5 -231q0 -129 -44 -256t-120 -225q-69 -87 -167 -139t-209 -52q-161 0 -252.5 93t-91.5 249zM268 227q0 -73 37 -123.5t103 -50.5q64 0 109 33t87 102q60 100 104 263.5t44 259.5 q0 163 -134 163q-112 0 -196 -135q-67 -108 -110.5 -248.5t-43.5 -263.5zM424 1239q0 48 31 81.5t80 33.5q41 0 69.5 -26.5t28.5 -70.5q0 -49 -30.5 -83.5t-80.5 -34.5q-42 0 -70 26.5t-28 73.5zM748 1239q0 49 30 82t80 33q41 0 69.5 -26.5t28.5 -70.5q0 -48 -31 -83 t-77 -35q-43 0 -71.5 26t-28.5 74z" />
<glyph unicode="&#xf7;" horiz-adv-x="1314" d="M195 498q0 20 4 34l16 66q6 29 33 29h919q11 0 18 -6.5t7 -16.5q0 -11 -6 -35l-15 -65q-6 -25 -34 -25h-918q-24 0 -24 19zM502 217q0 60 37 100.5t92 40.5q43 0 71.5 -27t28.5 -71q0 -67 -39 -105t-90 -38q-47 0 -73.5 27t-26.5 73zM647 842q0 59 37 99t94 40 q44 0 71.5 -26.5t27.5 -71.5q0 -67 -38 -105.5t-91 -38.5q-47 0 -74 28.5t-27 74.5z" />
<glyph unicode="&#xf8;" horiz-adv-x="1017" d="M16 -2q0 13 15 31l67 75q11 11 11 21q0 4 -5 14q-38 78 -38 174q0 133 49.5 257.5t132.5 222.5q68 77 170.5 122.5t208.5 45.5q107 0 182 -46q9 -6 16 -6q10 0 21 11l63 69q13 15 33 15q18 -2 32.5 -16t14.5 -32q0 -16 -16 -32l-64 -68q-8 -8 -8 -22q0 -3 4 -15 q45 -76 45 -176q0 -129 -44 -256t-120 -225q-69 -87 -167 -139t-209 -52q-128 0 -217 64q-12 6 -19 6q-10 0 -20 -10l-56 -62q-16 -16 -35 -16q-15 0 -31 15.5t-16 29.5zM274 328q0 -17 11 -17q3 0 22 19l416 454q8 8 8 21q0 4 -4 16q-35 53 -109 53q-112 0 -196 -135 q-107 -172 -143 -385q-5 -25 -5 -26zM281 156q0 -11 6 -23q41 -80 121 -80q64 0 109 33t87 102q47 79 84.5 198t52.5 218q7 28 7 41q0 14 -11 14q-4 0 -22 -18l-424 -463q-10 -10 -10 -22z" />
<glyph unicode="&#xf9;" horiz-adv-x="1257" d="M76 686q0 25 28 66q68 96 156.5 150t188.5 54q46 0 75 -26t29 -68q0 -51 -21 -125t-88 -239q-94 -231 -94 -297q0 -62 58 -62q77 0 172 92t186 254q80 146 121 273q18 55 18 104q0 35 19 57.5t61 22.5q78 0 104.5 -16.5t26.5 -44.5q0 -6 -0.5 -11.5t-2.5 -15.5t-5 -20 t-8.5 -29.5t-11.5 -39.5l-16.5 -55t-21.5 -70t-27.5 -90.5t-33.5 -111.5q-59 -203 -59 -278q0 -56 49 -56q72 0 143 123q15 29 17 41q5 18 12 25.5t20 7.5q16 0 28.5 -8t12.5 -21q0 -23 -20 -61q-54 -109 -143.5 -173.5t-174.5 -64.5q-66 0 -100 27.5t-35 87.5q0 48 17 109 t65 200q4 12 4 17q0 6 -10 6q-8 0 -14 -12q-60 -123 -172 -248q-89 -98 -168 -142.5t-162 -44.5q-164 0 -164 148q0 40 23.5 115t91.5 247q47 118 68.5 196t21.5 101q0 43 -37 43q-27 0 -62 -21.5t-65 -64.5q-11 -17 -24 -55q-8 -29 -39 -29q-15 0 -26 10t-11 23zM492 1393 q2 31 27.5 54t66.5 23q51 0 78 -61q65 -131 137 -264q12 -18 12 -39q0 -13 -11.5 -24t-27.5 -11q-24 0 -51 29q-149 152 -201 219q-30 35 -30 74z" />
<glyph unicode="&#xfa;" horiz-adv-x="1257" d="M76 686q0 25 28 66q68 96 156.5 150t188.5 54q46 0 75 -26t29 -68q0 -51 -21 -125t-88 -239q-94 -231 -94 -297q0 -62 58 -62q77 0 172 92t186 254q80 146 121 273q18 55 18 104q0 35 19 57.5t61 22.5q78 0 104.5 -16.5t26.5 -44.5q0 -6 -0.5 -11.5t-2.5 -15.5t-5 -20 t-8.5 -29.5t-11.5 -39.5l-16.5 -55t-21.5 -70t-27.5 -90.5t-33.5 -111.5q-59 -203 -59 -278q0 -56 49 -56q72 0 143 123q15 29 17 41q5 18 12 25.5t20 7.5q16 0 28.5 -8t12.5 -21q0 -23 -20 -61q-54 -109 -143.5 -173.5t-174.5 -64.5q-66 0 -100 27.5t-35 87.5q0 48 17 109 t65 200q4 12 4 17q0 6 -10 6q-8 0 -14 -12q-60 -123 -172 -248q-89 -98 -168 -142.5t-162 -44.5q-164 0 -164 148q0 40 23.5 115t91.5 247q47 118 68.5 196t21.5 101q0 43 -37 43q-27 0 -62 -21.5t-65 -64.5q-11 -17 -24 -55q-8 -29 -39 -29q-15 0 -26 10t-11 23zM633 1106 q0 17 20 41q19 26 57 75.5t71 94.5t61 88q36 57 90 57q39 0 58.5 -20t19.5 -51q0 -39 -41 -80q-84 -80 -246 -211q-32 -27 -55 -27q-16 0 -25.5 10t-9.5 23z" />
<glyph unicode="&#xfb;" horiz-adv-x="1257" d="M76 686q0 25 28 66q68 96 156.5 150t188.5 54q46 0 75 -26t29 -68q0 -51 -21 -125t-88 -239q-94 -231 -94 -297q0 -62 58 -62q77 0 172 92t186 254q80 146 121 273q18 55 18 104q0 35 19 57.5t61 22.5q78 0 104.5 -16.5t26.5 -44.5q0 -6 -0.5 -11.5t-2.5 -15.5t-5 -20 t-8.5 -29.5t-11.5 -39.5l-16.5 -55t-21.5 -70t-27.5 -90.5t-33.5 -111.5q-59 -203 -59 -278q0 -56 49 -56q72 0 143 123q15 29 17 41q5 18 12 25.5t20 7.5q16 0 28.5 -8t12.5 -21q0 -23 -20 -61q-54 -109 -143.5 -173.5t-174.5 -64.5q-66 0 -100 27.5t-35 87.5q0 48 17 109 t65 200q4 12 4 17q0 6 -10 6q-8 0 -14 -12q-60 -123 -172 -248q-89 -98 -168 -142.5t-162 -44.5q-164 0 -164 148q0 40 23.5 115t91.5 247q47 118 68.5 196t21.5 101q0 43 -37 43q-27 0 -62 -21.5t-65 -64.5q-11 -17 -24 -55q-8 -29 -39 -29q-15 0 -26 10t-11 23zM487 1106 q0 14 15 33q6 7 107 122.5t151 178.5q28 35 63 35q36 0 51 -33q59 -154 132 -307q6 -15 6 -25q0 -17 -11.5 -27t-29.5 -10q-19 0 -35 19q-22 25 -42.5 52t-46.5 62t-40 54q-12 14 -21 14t-26 -17q-83 -76 -201 -167q-20 -17 -37 -17q-13 0 -24 10.5t-11 22.5z" />
<glyph unicode="&#xfc;" horiz-adv-x="1257" d="M76 686q0 25 28 66q68 96 156.5 150t188.5 54q46 0 75 -26t29 -68q0 -51 -21 -125t-88 -239q-94 -231 -94 -297q0 -62 58 -62q77 0 172 92t186 254q80 146 121 273q18 55 18 104q0 35 19 57.5t61 22.5q78 0 104.5 -16.5t26.5 -44.5q0 -6 -0.5 -11.5t-2.5 -15.5t-5 -20 t-8.5 -29.5t-11.5 -39.5l-16.5 -55t-21.5 -70t-27.5 -90.5t-33.5 -111.5q-59 -203 -59 -278q0 -56 49 -56q72 0 143 123q15 29 17 41q5 18 12 25.5t20 7.5q16 0 28.5 -8t12.5 -21q0 -23 -20 -61q-54 -109 -143.5 -173.5t-174.5 -64.5q-66 0 -100 27.5t-35 87.5q0 48 17 109 t65 200q4 12 4 17q0 6 -10 6q-8 0 -14 -12q-60 -123 -172 -248q-89 -98 -168 -142.5t-162 -44.5q-164 0 -164 148q0 40 23.5 115t91.5 247q47 118 68.5 196t21.5 101q0 43 -37 43q-27 0 -62 -21.5t-65 -64.5q-11 -17 -24 -55q-8 -29 -39 -29q-15 0 -26 10t-11 23zM512 1239 q0 48 31 81.5t80 33.5q41 0 69.5 -26.5t28.5 -70.5q0 -49 -30.5 -83.5t-80.5 -34.5q-42 0 -70 26.5t-28 73.5zM836 1239q0 49 30 82t80 33q41 0 69.5 -26.5t28.5 -70.5q0 -48 -31 -83t-77 -35q-43 0 -71.5 26t-28.5 74z" />
<glyph unicode="&#xfd;" horiz-adv-x="1169" d="M-33 -483q0 37 28.5 64.5t61.5 27.5q48 0 68 -41q21 -43 58 -65.5t81 -22.5q71 0 137 35q110 57 200.5 217.5t207.5 492.5q4 12 4 17q0 8 -6 8q-9 0 -14 -8q-93 -129 -213 -199t-258 -70q-89 0 -135 39t-46 103q0 60 22 131t87 239q38 97 60 177.5t22 107.5q0 51 -41 51 q-25 0 -59 -21.5t-62 -64.5q-19 -32 -27 -59q-9 -21 -43 -21q-11 0 -20.5 8.5t-9.5 20.5q0 34 24 68q65 93 154.5 148.5t179.5 55.5q117 0 117 -104q0 -86 -105 -358q-84 -211 -84 -287q0 -41 20.5 -55.5t59.5 -14.5q69 0 139 31.5t126.5 83.5t102 114t75.5 128 q16 33 25 90.5t9 95.5q0 61 -9.5 102t-43.5 88q-2 3 -10.5 14t-11.5 16t-8 13t-7 14t-2 11q0 32 30 59t75 27q28 0 52 -19.5t38 -50.5q45 -93 45 -235q0 -168 -68 -447q-36 -145 -81.5 -268t-114 -240t-150 -198t-192 -130.5t-238.5 -49.5q-120 0 -184 36q-66 37 -66 95z M588 1106q0 17 20 41q19 26 57 75.5t71 94.5t61 88q36 57 90 57q39 0 58.5 -20t19.5 -51q0 -39 -41 -80q-84 -80 -246 -211q-32 -27 -55 -27q-16 0 -25.5 10t-9.5 23z" />
<glyph unicode="&#xfe;" horiz-adv-x="1157" d="M-262 -555q0 22 11.5 36.5t33.5 14.5q2 0 17.5 -1t23.5 -1q47 0 76 41q28 37 65 164q61 212 140.5 479t181 601.5t153.5 508.5q23 79 23 115q0 33 -20 53t-72 31q-23 7 -23 31q0 11 7 21t16 11q179 39 321 95q24 8 33 8t18 -6t9 -17q0 -12 -9 -35q-6 -16 -82 -239.5 t-150.5 -438.5t-107.5 -299q-4 -12 -4 -14q0 -12 13 -12q6 0 14 12q41 71 84 125q181 225 387 225q90 0 138 -56t48 -140q0 -98 -33.5 -221.5t-117.5 -251.5q-98 -148 -226.5 -222.5t-265.5 -74.5q-73 0 -135 8q-30 6 -37 6q-14 0 -22 -29q-80 -264 -98.5 -330.5 t-18.5 -95.5q0 -30 21 -41.5t67 -11.5q2 0 25 1t30 1q33 0 33 -31q0 -57 -45 -57l-96 4q-96 4 -162 4q-54 0 -139 -4t-92 -4q-13 0 -23 11t-10 26zM315 158q0 -35 31 -54q41 -24 121 -24q59 0 121 40.5t110 108.5q70 98 114 230.5t44 218.5q0 119 -78 119q-75 0 -153 -62 q-104 -82 -199 -252q-77 -140 -100 -254q-11 -69 -11 -71z" />
<glyph unicode="&#xff;" horiz-adv-x="1169" d="M-33 -483q0 37 28.5 64.5t61.5 27.5q48 0 68 -41q21 -43 58 -65.5t81 -22.5q71 0 137 35q110 57 200.5 217.5t207.5 492.5q4 12 4 17q0 8 -6 8q-9 0 -14 -8q-93 -129 -213 -199t-258 -70q-89 0 -135 39t-46 103q0 60 22 131t87 239q38 97 60 177.5t22 107.5q0 51 -41 51 q-25 0 -59 -21.5t-62 -64.5q-19 -32 -27 -59q-9 -21 -43 -21q-11 0 -20.5 8.5t-9.5 20.5q0 34 24 68q65 93 154.5 148.5t179.5 55.5q117 0 117 -104q0 -86 -105 -358q-84 -211 -84 -287q0 -41 20.5 -55.5t59.5 -14.5q69 0 139 31.5t126.5 83.5t102 114t75.5 128 q16 33 25 90.5t9 95.5q0 61 -9.5 102t-43.5 88q-2 3 -10.5 14t-11.5 16t-8 13t-7 14t-2 11q0 32 30 59t75 27q28 0 52 -19.5t38 -50.5q45 -93 45 -235q0 -168 -68 -447q-36 -145 -81.5 -268t-114 -240t-150 -198t-192 -130.5t-238.5 -49.5q-120 0 -184 36q-66 37 -66 95z M444 1249q0 48 31 81.5t80 33.5q41 0 69.5 -26t28.5 -70q0 -49 -30.5 -84t-79.5 -35q-42 0 -70.5 26.5t-28.5 73.5zM768 1249q0 49 30.5 82t80.5 33q41 0 69.5 -26t28.5 -70q0 -48 -31.5 -83.5t-77.5 -35.5q-43 0 -71.5 26t-28.5 74z" />
<glyph unicode="&#x152;" horiz-adv-x="2035" d="M125 537q0 184 66.5 347.5t193.5 280.5q224 203 576 203q166 0 280 -12q113 -10 250 -10q178 0 332 4t162 4q38 0 38 -39q0 -8 -3 -33.5t-9.5 -88t-13.5 -132.5q-3 -37 -43 -37q-47 0 -47 35q0 61 -5.5 94.5t-23.5 56.5q-20 27 -58.5 34t-131.5 7q-106 0 -183 -6 q-19 -2 -30.5 -13.5t-18.5 -39.5l-82 -358q-6 -21 -6 -46q0 -36 66 -36q109 0 165 18q31 11 53 41.5t46 101.5q9 33 51 33q39 0 39 -33q0 -15 -15.5 -69t-40 -149.5t-40.5 -190.5q-5 -33 -45 -33q-41 0 -41 31q0 8 1 23t1 22q0 49 -8 68t-23 28q-31 19 -174 19 q-41 0 -58.5 -10.5t-23.5 -39.5l-78 -342q-12 -54 -12 -96t48.5 -56t186.5 -14q188 0 252 37q72 40 148 181q16 28 47 28q43 0 43 -35q0 -23 -33.5 -113.5t-60.5 -140.5q-29 -63 -84 -63q-90 0 -272.5 5t-321.5 5q-51 0 -95 -2t-69.5 -4t-32.5 -2q-27 0 -156 -7t-169 -7 q-130 0 -233.5 43.5t-169 119t-100 174.5t-34.5 214zM385 510q0 -203 83.5 -316.5t240.5 -113.5q107 0 168 20q69 22 98 72q11 16 35 104l182 797q12 55 12 98q0 52 -45 74q-60 25 -196 25q-272 0 -435 -244q-143 -210 -143 -516z" />
<glyph unicode="&#x153;" horiz-adv-x="1527" d="M72 315q0 122 41.5 238.5t113.5 207t178.5 145.5t227.5 55q199 0 264 -150q9 -18 14 -18q11 0 23 14q34 36 108 82q110 72 250 72q50 0 94.5 -14t77.5 -50.5t33 -89.5q0 -131 -129 -209q-91 -55 -174.5 -83.5t-243.5 -61.5q-37 -8 -45 -45q-16 -78 -16 -132 q0 -90 46 -141t130 -51q156 0 246 129q19 25 32 63q9 35 41 35q21 0 32 -10t11 -25q0 -19 -22 -61q-60 -103 -166.5 -173.5t-239.5 -70.5q-97 0 -154 34t-89 95q-8 13 -15 13t-18 -11q-62 -66 -152 -98.5t-163 -32.5q-154 0 -245 94.5t-91 249.5zM276 252q0 -34 3 -61 t12 -54t24.5 -44.5t41.5 -28.5t61 -11q67 0 126 55.5t97 135.5t65.5 172t39.5 163.5t12 110.5q0 101 -32 142.5t-108 41.5q-66 0 -130.5 -66t-110 -162t-73.5 -203.5t-28 -190.5zM938 541q0 -17 16 -17q17 0 23 2q169 43 251.5 124t82.5 151q0 80 -74 80q-93 0 -176 -103 q-30 -35 -63 -93.5t-54 -117.5q-6 -12 -6 -26z" />
<glyph unicode="&#x178;" horiz-adv-x="1388" d="M195 1296q0 26 14 44t41 18q7 0 46 -3t98.5 -6t117.5 -3q42 0 165 6t130 6q31 0 31 -37q0 -26 -13.5 -42.5t-38.5 -16.5q-9 0 -25 1t-26 1q-48 0 -76 -14t-28 -54q0 -48 49 -184l76 -211q15 -43 23.5 -57.5t17.5 -14.5q7 0 13.5 3.5t22.5 19.5t41 47l175 217 q131 165 131 205q0 29 -18 36t-68 7q-21 0 -38.5 -1t-19.5 -1q-14 0 -22 8t-8 22q0 66 51 66l81 -6q82 -6 162 -6q66 0 133 6t70 6q24 0 35.5 -8t11.5 -31q0 -24 -12.5 -39.5t-26.5 -15.5q-3 0 -19 1t-22 1q-38 0 -81 -37q-54 -44 -195 -211l-332 -400q-14 -13 -24 -38 q-7 -15 -13 -43l-53 -224q-22 -94 -22 -151q0 -31 18 -49q20 -23 88 -23q4 0 18 1t17 1q19 0 26 -8.5t7 -28.5q0 -23 -13.5 -40t-40.5 -17q-5 0 -49.5 3t-109 6t-119.5 3q-56 0 -122 -3t-111.5 -6t-49.5 -3q-33 0 -33 35q0 22 12.5 40.5t35.5 18.5q2 0 21 -1t24 -1 q79 0 104 41q34 53 64 184l45 199q8 28 8 49q0 19 -12 49l-154 394q-44 118 -92 219q-19 39 -70 39q-5 0 -17.5 -1t-17.5 -1q-32 0 -32 34zM627 1563q0 46 33 79t77 33q43 0 71 -28.5t28 -75.5t-32 -81t-75 -34q-44 0 -73 28.5t-29 78.5zM975 1563q0 46 32 79t78 33 q43 0 71 -28.5t28 -75.5t-32.5 -81t-76.5 -34t-72 28.5t-28 78.5z" />
<glyph unicode="&#x2c6;" horiz-adv-x="593" d="M35 1106q0 16 14 33q6 7 107 122.5t151 178.5q28 35 64 35t51 -33q63 -165 131 -307q6 -15 6 -25q0 -17 -11.5 -27t-29.5 -10q-19 0 -35 19q-22 25 -42.5 52t-46.5 62t-40 54q-12 14 -20 14q-10 0 -27 -17q-83 -76 -201 -167q-20 -17 -36 -17q-13 0 -24 10.5t-11 22.5z " />
<glyph unicode="&#x2dc;" horiz-adv-x="593" d="M2 1151q0 15 12 39q44 97 87.5 132.5t93.5 35.5q14 0 36 -9t39.5 -18.5t57.5 -32.5q68 -38 110 -38q47 0 76 79q13 29 43 29q14 0 23.5 -9t9.5 -26q0 -7 -8 -39q-33 -88 -74.5 -130t-101.5 -42q-50 0 -130 47q-78 45 -106 45q-29 0 -49.5 -14.5t-42.5 -58.5 q-13 -23 -39 -23q-37 0 -37 33z" />
<glyph unicode="&#x2000;" horiz-adv-x="900" />
<glyph unicode="&#x2001;" horiz-adv-x="1800" />
<glyph unicode="&#x2002;" horiz-adv-x="900" />
<glyph unicode="&#x2003;" horiz-adv-x="1800" />
<glyph unicode="&#x2004;" horiz-adv-x="600" />
<glyph unicode="&#x2005;" horiz-adv-x="450" />
<glyph unicode="&#x2006;" horiz-adv-x="300" />
<glyph unicode="&#x2007;" horiz-adv-x="300" />
<glyph unicode="&#x2008;" horiz-adv-x="225" />
<glyph unicode="&#x2009;" horiz-adv-x="360" />
<glyph unicode="&#x200a;" horiz-adv-x="100" />
<glyph unicode="&#x2010;" horiz-adv-x="569" d="M63 465q0 49 25 104q13 33 47 33h354q41 0 41 -39q0 -40 -18 -96q-9 -24 -20 -32.5t-33 -8.5h-357q-39 0 -39 39z" />
<glyph unicode="&#x2011;" horiz-adv-x="569" d="M63 465q0 49 25 104q13 33 47 33h354q41 0 41 -39q0 -40 -18 -96q-9 -24 -20 -32.5t-33 -8.5h-357q-39 0 -39 39z" />
<glyph unicode="&#x2012;" horiz-adv-x="569" d="M63 465q0 49 25 104q13 33 47 33h354q41 0 41 -39q0 -40 -18 -96q-9 -24 -20 -32.5t-33 -8.5h-357q-39 0 -39 39z" />
<glyph unicode="&#x2013;" horiz-adv-x="907" d="M61 465q0 39 23 98q16 35 47 35h703q43 0 43 -37q0 -15 -7.5 -45.5t-15.5 -48.5q-11 -23 -20 -30t-31 -7h-703q-21 0 -30 7.5t-9 27.5z" />
<glyph unicode="&#x2014;" horiz-adv-x="1318" d="M61 465q0 39 23 98q16 35 47 35h1114q43 0 43 -37q0 -15 -7 -46t-15 -48q-9 -22 -20 -29.5t-34 -7.5h-1112q-21 0 -30 7.5t-9 27.5z" />
<glyph unicode="&#x2018;" horiz-adv-x="448" d="M180 1032q0 123 83 225t216 158q42 17 60 17q17 0 29 -12t12 -29q0 -34 -35 -45q-76 -24 -130.5 -73.5t-54.5 -123.5q0 -47 56 -94q37 -29 37 -80q0 -49 -33.5 -82t-89.5 -33q-70 0 -110 48.5t-40 123.5z" />
<glyph unicode="&#x2019;" horiz-adv-x="448" d="M129 891q0 33 35 45q184 68 184 199q0 50 -53 92q-37 32 -37 80q0 51 33.5 83.5t89.5 32.5q69 0 108 -49t39 -123q0 -125 -82.5 -227t-216.5 -158q-36 -16 -57 -16q-17 0 -30 12t-13 29z" />
<glyph unicode="&#x201a;" horiz-adv-x="448" d="M-127 -281q0 33 35 45q184 68 184 199q0 45 -55 92q-35 27 -35 82q0 49 33.5 82t89.5 33q69 0 109 -49t40 -121q0 -126 -83.5 -228.5t-217.5 -158.5q-38 -17 -57 -17q-17 0 -30 12t-13 29z" />
<glyph unicode="&#x201c;" horiz-adv-x="808" d="M180 1032q0 123 83 225t216 158q42 17 60 17q17 0 29 -12t12 -29q0 -32 -35 -43q-73 -26 -129 -76t-56 -123q0 -47 56 -94q37 -29 37 -80q0 -49 -33.5 -82t-89.5 -33q-70 0 -110 48.5t-40 123.5zM541 1030q0 125 83 227t216 158q42 17 59 17t29 -12t12 -29q0 -34 -35 -45 q-184 -70 -184 -197q0 -47 55 -94q35 -27 35 -80q0 -49 -33 -82t-88 -33q-70 0 -109.5 48.5t-39.5 121.5z" />
<glyph unicode="&#x201d;" horiz-adv-x="808" d="M129 891q0 33 35 45q184 68 184 199q0 50 -53 92q-37 32 -37 80q0 51 33.5 83.5t89.5 32.5q69 0 108 -49t39 -123q0 -125 -82.5 -227t-216.5 -158q-36 -16 -57 -16q-17 0 -30 12t-13 29zM489 891q0 33 35 45q185 68 185 199q0 45 -56 92q-35 27 -35 80q0 51 33.5 83.5 t89.5 32.5q70 0 110 -49.5t40 -122.5q0 -125 -83.5 -227t-217.5 -158q-36 -16 -58 -16q-17 0 -30 12t-13 29z" />
<glyph unicode="&#x201e;" horiz-adv-x="808" d="M-127 -281q0 33 35 45q184 68 184 199q0 45 -55 92q-35 27 -35 82q0 49 33.5 82t89.5 33q69 0 109 -49t40 -121q0 -126 -83.5 -228.5t-217.5 -158.5q-38 -17 -57 -17q-17 0 -30 12t-13 29zM233 -281q0 33 35 45q185 68 185 199q0 42 -56 92q-35 27 -35 82q0 49 33.5 82 t89.5 33q70 0 110 -49.5t40 -122.5q0 -125 -83.5 -227t-217.5 -158q-38 -17 -58 -17q-17 0 -30 12t-13 29z" />
<glyph unicode="&#x2022;" horiz-adv-x="745" d="M125 520q0 140 85.5 224.5t215.5 84.5q92 0 162.5 -68t70.5 -173q0 -142 -80 -228t-212 -86q-108 0 -175 68.5t-67 177.5z" />
<glyph unicode="&#x2026;" horiz-adv-x="1605" d="M43 102q0 75 44.5 119.5t113.5 44.5q47 0 85 -33.5t38 -89.5q0 -72 -42 -119t-112 -47q-57 0 -92 35.5t-35 89.5zM573 102q0 75 44 119.5t114 44.5q46 0 83.5 -33.5t37.5 -89.5q0 -72 -41 -119t-111 -47q-57 0 -92 35.5t-35 89.5zM1102 102q0 75 44 119.5t114 44.5 q47 0 83.5 -33.5t36.5 -89.5q0 -72 -41.5 -119t-111.5 -47q-57 0 -91 35.5t-34 89.5z" />
<glyph unicode="&#x202f;" horiz-adv-x="360" />
<glyph unicode="&#x2039;" horiz-adv-x="577" d="M47 502q0 19 9.5 30.5t33.5 24.5q121 75 402 266q42 27 55 27q18 0 28.5 -13.5t10.5 -33.5q0 -14 -33 -47q-49 -46 -139 -122t-131 -112q-13 -13 -13 -20q0 -10 9 -25q11 -17 65 -100.5t84 -136.5q14 -23 14 -39q0 -14 -14 -27.5t-31 -13.5q-18 0 -53 35q-49 49 -98 96 t-104 98t-79 74q-16 14 -16 39z" />
<glyph unicode="&#x203a;" horiz-adv-x="577" d="M-2 207q0 16 35 47q30 28 63.5 58t58.5 51.5t70 60t74 63.5q12 12 12 23t-8 25q-136 217 -147 235q-15 25 -15 41q0 14 14.5 26.5t32.5 12.5q17 0 50 -33q93 -95 280 -268q17 -17 17 -39q0 -19 -9.5 -30.5t-33.5 -26.5q-69 -42 -129.5 -82.5t-146 -99.5t-124.5 -85 q-40 -26 -55 -26q-17 0 -28 14t-11 33z" />
<glyph unicode="&#x205f;" horiz-adv-x="450" />
<glyph unicode="&#x20ac;" horiz-adv-x="1394" d="M156 508q0 29 12 46t35 17h98q11 0 19 9t10 20q3 20 8.5 46.5t8.5 43t3 19.5q0 20 -18 20h-103q-34 0 -34 33q0 26 12 44.5t35 18.5h118q11 0 20.5 7.5t12.5 17.5q75 210 232.5 330t402.5 120q338 0 338 -225q0 -49 -30 -75.5t-68 -26.5q-105 0 -105 94q0 79 -18 104 q-31 46 -123 46q-127 0 -233.5 -89.5t-161.5 -234.5q-17 -40 -17 -49q0 -19 19 -19h448q35 0 35 -34q0 -25 -10 -43.5t-31 -18.5h-469q-24 0 -31 -24q-18 -65 -18 -107q0 -27 20 -27h467q31 0 31 -32q0 -64 -43 -64h-455q-30 0 -30 -43q0 -46 6 -92q16 -134 93.5 -197 t188.5 -63q234 0 328 166q12 22 27 84q9 55 57 55q43 0 43 -43q0 -39 -39 -115q-24 -47 -58 -87.5t-87.5 -80.5t-132.5 -63t-174 -23q-129 0 -225 37.5t-150 104t-79.5 146.5t-25.5 175q0 22 -4 30.5t-14 8.5h-107q-34 0 -34 33z" />
<glyph unicode="&#x2122;" horiz-adv-x="1779" d="M213 1190q0 5 8 31.5t18.5 60.5t14.5 51q1 10 9.5 17.5t17.5 7.5q1 0 21 -1.5t90.5 -3t193.5 -1.5q92 0 159.5 1t99 2t36.5 1q22 0 22 -23q0 -5 -5 -26t-13 -55.5t-13 -63.5q-3 -23 -32 -23q-31 0 -31 21q0 5 2 22t2 23q0 26 -8 37q-12 22 -84 22q-70 0 -82 -6 q-13 -5 -21 -39l-92 -377q-10 -41 -10 -75q0 -22 11 -30.5t40 -8.5q2 0 18 1t19 1q25 0 25 -29q0 -13 -7 -24t-20 -11q-1 0 -68.5 4t-109.5 4q-30 0 -68 -2t-63.5 -4t-26.5 -2q-22 0 -22 27q0 37 30 37q3 0 17.5 -1t17.5 -1q33 0 51 24q22 31 35 90l86 353q1 4 3 14 l3.5 17.5t1.5 11.5q0 15 -13 20.5t-58 5.5q-67 0 -96 -20t-50 -82q-3 -8 -4.5 -10.5t-8 -6.5t-17.5 -4q-29 0 -29 23zM811 717q0 39 31 39q1 0 12.5 -1t13.5 -1q32 0 52 20q16 16 38 88q14 48 41 136t44.5 146t19.5 68q8 32 8 45q0 17 -4 25q-8 14 -41 14q-4 0 -19 -1 t-18 -1q-24 0 -24 27q0 14 8 25.5t22 11.5q2 0 54.5 -3t70.5 -3q20 0 72 2t53 2q17 0 17 -27q4 -53 20 -147q6 -35 17 -93t17.5 -96t10.5 -61q1 -1 2 -6t2.5 -8t3.5 -3q6 0 17 15q31 51 78.5 125.5t68.5 109.5q83 136 88 146q14 26 22.5 35.5t18.5 9.5q2 0 26.5 -1t53.5 -2 t43 -1q20 0 58 2t44 2q29 0 29 -29q0 -13 -7 -23t-17 -10q-3 0 -17.5 1t-17.5 1q-42 0 -56 -16q-10 -10 -20 -72q-29 -195 -47 -346q-4 -31 -4 -69q0 -22 8 -30.5t33 -8.5q6 0 22.5 1t22.5 1q22 0 22 -27q0 -18 -9.5 -27.5t-22.5 -9.5q-2 0 -69 3t-104 3q-28 0 -64 -1.5 t-61.5 -3t-27.5 -1.5q-25 0 -25 27q0 16 8.5 26.5t22.5 10.5q7 0 20 -1t15 -1q29 0 49 20q19 22 31 88q8 41 49 324q2 8 2 14t-4 6q-8 0 -15 -10q-90 -139 -237 -377q-9 -14 -31 -46.5t-33 -51.5q-16 -27 -43 -27q-10 0 -18.5 7.5t-9.5 21.5q-2 13 -5 44t-5 46 q-59 340 -66 379q-2 14 -8 14q-1 0 -3.5 -1.5t-6 -5.5t-5.5 -9q-15 -55 -47.5 -169.5t-42.5 -156.5q-12 -55 -12 -82q0 -28 45 -28q6 0 20.5 1t20.5 1q23 0 23 -25q0 -39 -31 -39q-2 0 -25.5 1t-58 2t-62.5 1q-22 0 -51 -1t-49.5 -2t-23.5 -1q-10 0 -16.5 7.5t-6.5 17.5z " />
<glyph unicode="&#xe000;" horiz-adv-x="962" d="M0 0v963h963v-963h-963z" />
</font>
</defs>
</svg>
