<?xml version="1.0" encoding="utf-8"?>
<!-- Generator: Adobe Illustrator 16.0.0, SVG Export Plug-In . SVG Version: 6.00 Build 0)  -->
<!DOCTYPE svg PUBLIC "-//W3C//DTD SVG 1.1//EN" "http://www.w3.org/Graphics/SVG/1.1/DTD/svg11.dtd">
<svg version="1.1" id="Layer_1" xmlns="http://www.w3.org/2000/svg" xmlns:xlink="http://www.w3.org/1999/xlink" x="0px" y="0px"
	 width="1000px" height="990.1px" viewBox="0 0 1000 990.1" enable-background="new 0 0 1000 990.1" xml:space="preserve">
<g>
	<path fill="#191919" d="M510.674,533.807c-2.105,0-10.943,7.295-12.295,9.032c-3.705,4.76-3.613,7.868-9.262,11.55
		c-12.892,8.404-20.379,23.397-33.896,31.042c-5.011,2.833-5.673,6.823-9.293,10.971c-4.123,4.725-9.325,8.416-14.322,12.141
		c-11.641,8.678-23.159,22.835-36.806,28.004c-31.815,28.684-65.625,47.393-63.486,49.679
		c46.378,38.368,121.205,73.16,134.091,82.771c5.512,4.111,10.539,10.76,16.877,13.462c6.463,2.755,39.288,1.17,61.034-2.247
		c3.251-4.013,4.872-8.774,8.516-12.574c4.838-5.046,125.642-69.653,138.527-85.097c-8.756-6.142-17.923-11.35-26.39-17.75
		c-8.431-6.374-18.76-8.354-26.571-16.31c-7.099-7.228-15.568-12.444-22.882-19.588c-8.253-8.061-17.529-15.069-24.656-24.203
		c-2.515-3.222-5.009-6.512-8.014-9.304c-3.673-3.412-8.691-4.208-12.245-7.612c-6.979-6.685-13.318-14.34-20.242-21.209
		c-6.81-6.757-15.681-11.392-22.158-18.439C523.352,543.936,517.119,533.807,510.674,533.807z"/>
	<path fill="#191919" d="M823.651,744.544c1.04,4.989-24.597,15.672-28.67,17.71c-11.674,5.742-23.268,10.843-36.211,12.881
		c-6.206,0.978-25.437,5.673-29.162-1.182c-8.98-16.522-0.854-43.356-23.671-50.185c-22.142-6.626-45.408,5.766-67.966-0.455
		c11.72-5.903,22.965-12.756,33.56-20.5c13.475,5.899,28.965,8.759,43.438,10.856c26.371,3.822,55.582-3.737,78.893-15.942
		c11.218-5.873,7.329,1.433,1.839,7.188c-4.49,4.706-9.091,8.968-14.118,13.108c-3.505,2.887-32.683,23.003-30.852,27.64
		c1.2,2.636,34.328-1.257,37.575-1.381C791.188,744.172,822.981,741.477,823.651,744.544
		C824.302,747.663,823.092,741.983,823.651,744.544z"/>
	<path fill="#191919" d="M627.312,741.544c-2.882-2.9-5.062-9.925-1.18-11.626c1.966-0.856,3.909-1.761,5.829-2.715
		c2.562,0.965,5.503,2.781,8.25,3.2c12.517,2.2,25.365,0.072,37.769-1.837c11.758-1.811,23.908-2.713,34.562,3.607
		c10.611,6.204-11.434,19.659-15.923,22.132c-14.604,8.045-31.651,12.496-47.797,16.385c-3.531,0.85-16.836,5.437-17.977,0.147
		c-1.157-5.369-7.329-17.789-3.773-22.895c0,0.367,3.035,0.848,0.16-0.24c21.934,8.194,39.912,0.599,61.2-3.68
		c-0.071-5.461-26.647,2.409-29.864,2.767C650.208,747.716,633.806,748.334,627.312,741.544
		C625.632,739.854,630.831,745.224,627.312,741.544z"/>
	<path fill="#191919" d="M300.534,332.26c-2.931,0-6.74,7.62-7.948,9.658c-3.528,5.949-3.711,10.753-2.367,17.386
		c6.106-2.532,5.286,3.413,4.967,8.652c-0.139,2.22,1.689,2.122,2.081,4.005c0.69,3.295,0.492,6.749,0.352,10.083
		c-0.247,5.9,0.146,8.773,3.035,13.582c3.226,5.37,0.882,17.093,1.564,23.366c3.715,34.119,20.672,64.866,32.21,96.665
		c11.288,31.105,16.133,64.815,6.858,97.12c-3.902,13.591-10.285,27.141-18.474,38.701c-1.279,1.806-12.205,11.966-11.697,13.209
		c1.565,3.827,4.621,1.535,6.712-0.208c12.868-10.728,22.711-26.285,32.304-39.868c7.066-10.005,12.492-20.998,19.072-31.307
		c2.354-3.662,3.551-9.606,7.85-11.617c5.082-2.497,6.291-11.536,9.07-16.071c7.114-11.612,15.39-22.625,22.99-33.928
		c2.77-4.12,6.225-8.552,11.149-10.141c7.713-2.488,3.53-8.544,8.413-14.182c6.01-6.938,13.251-12.671,18.408-20.373
		c1.292-1.931,4.395-6.447,1.907-8.648c-2.373-2.133-4.831-4.19-6.888-6.646c-1.909-2.341-1.947-6.128-4.326-8.093
		c-14.207-2.825-28.056-19.363-37.469-29.799c-11.546-12.802-27.147-20.688-38.564-33.316c-2.081-2.302-3.916-4.807-5.757-7.3
		c-2.143-2.91-5.853-2.854-8.73-4.565c-7.04-4.239-13.48-9.434-19.277-15.25c-5.785-5.805-10.939-12.228-15.493-19.038
		C311.286,352.514,300.107,332.26,300.534,332.26z"/>
	<path fill="#191919" d="M729.373,295.784c-8.671,0.66-5.466,29.843-4.207,33.912c4.573,14.779,15.394,28.289,27.911,37.217
		c34.675,24.73,78.071,8.581,107.431-15.25c4.394-3.566,4.522-4.525-1.025-6.555c-4.243-1.553-8.762-2.542-12.686-4.861
		c-6.444-3.81-10.023,4.889-15.072,8.363c-8.645,5.948-17.096,3.186-26.812,4.291c-4.429,0.467-11.65,11.478-7.503,11.478
		c2.378,0,4.587-1.572,7.062-1.572c4.113,0,1.239,3.53-0.426,4.173c-6.051,2.338-14.25,1.569-20.4,0.361
		c-8.394-1.649-18.887-4.934-24.428-11.911c-2.547-3.206-3.812-7.357-5.473-11.053c-2.536-5.648-0.197-11.447-2.341-16.871
		c-6.444,9.104-2.658,13.246-3.598,22.858c-0.339,3.465-7.477-3.647-8.059-4.27C727.17,332.634,723.44,313.113,729.373,295.784z"/>
	<path fill="#191919" d="M845.041,191.684c-3.464,4.226-17.455-3.638-21.798-5.867c-3.65-1.875-1.822-4.362-1.068-7.688
		c2.754-12.14,2.312-25.086-4.611-35.828c-4.771-7.403-11.936-12.896-19.709-16.86c-4.354-2.221-12.536-7.087-17.48-5.696
		c-6.265,1.763,3.127,4.813,4.433,5.189c5.129,1.477,23.244,13.412,15.101,19.643c-2.395,1.832-6.3,2.168-7.774,5.096
		c-2.655,5.274,3.244,11.673,6.049,15.501c-11.842,0-19.842-16.71-25.03-25.109c-8.334-13.49-20.229-20.881-35.931-13.582
		c-16.537,7.688-25.547,24.397-38.298,36.54c-13.813,13.156-29.348,15.915-47.201,19.461c2.388-5.122,4.669-10.58,4.961-16.285
		c0.245-4.764-1.178-10.817,4.297-11.784c20.796-3.673,31.627-17.451,44.045-33.207c17.306-21.959,43.01-32.25,70.598-30.012
		c19.059,1.546,38.694,13.498,52.024,26.574C847.832,137.572,854.064,164.897,845.041,191.684z"/>
	<path fill="#191919" d="M657.021,165.983c-0.092,3.853-0.398,7.622-1.351,11.37C656.221,173.575,656.646,169.782,657.021,165.983
		C657.012,166.394,656.621,170.034,657.021,165.983z"/>
	<path fill="#191919" d="M801.74,318.288c7.845,7.118,20.523,11.678,30.76,7.131c-1.9-5.239-3.716-6.064-8.886-5.014
		C816.09,321.935,809.038,319.984,801.74,318.288z"/>
	<path fill="#191919" d="M733.812,148.534c-8.083,0-15.697,17.835-17.302,23.972c-2.627,10.052-1.239,20.68,2.701,30.194
		c9.146,22.088,31.149,39.91,55.319,41.685c4.966,0.365,22.753,0.842,24.469-5.368c2.067-7.48-8.188-14.558-14.187-14.846
		c-11.162-0.537-22.497-4.234-30.32-12.743c-8.109-8.819-9.548-21.183-13.425-32.045c-4.071,2.924-1.244,13.614-0.622,17.666
		c0.488,3.184,1.256,7.083,0.06,10.211c-1.997,5.236-8.679-6.08-9.46-7.435c-4.937-8.556-7.183-18.783-6.085-28.614
		c0.482-4.414,1.749-8.712,3.764-12.67C729.273,157.461,735.777,148.534,733.812,148.534z"/>
	<path fill="#191919" d="M750.361,683.184c-9.929-1.732-19.335,0.898-29.191-2.319c-13.863-4.524-28.694-10.706-38.71-21.735
		c-11.098-12.222-19.297-25.745-28.351-39.386c-4.52-6.81-6.813-14.927-11.738-21.47c-5.257-7.219-8.036,2.691-12.899,4.72
		c-1.14-3.416,3.438-9.323,3.913-12.867c0.852-6.346-2.093-11.583-5.372-16.748c-6.646-10.468-14.957-19.862-22.077-30.015
		c-2.491-3.552-14.62-22.981-20.063-15.548c-3.495,4.772-10.135,10.517-7.485,0.489c2.839-10.743,3.095-14.84-3.12-24.667
		c-6.801-10.753-14.773-20.898-22.541-30.964c-4.009-5.196-8.135-10.309-12.527-15.187c-2.347-2.605-8.922-11.843-12.757-11.843
		c-2.981,0-10.326,22.483-14.521,25.73c-0.414-5.5,4.943-13.272,6.268-18.869c1.695-7.169,2.857-14.543-0.991-21.253
		c-3.353-5.846-8.972-9.992-13.525-14.828c-5.394-5.636-10.069-11.907-14.824-18.076c-4.14-5.372-8.343-10.722-13.081-15.587
		c-3.069-3.151-11.08-12.177-15.846-12.177c-5.473,0-10.954,17.49-17.14,19.72c4.21-8.806,13.754-20.05,8.989-30.313
		c-4.4-9.478-15.004-16.962-21.449-25.181c-6.599-8.415-13.231-17.426-22.516-23.08c-10.371-6.314-11.832,19.49-17.654,16.094
		c3.783-8.244,9.36-19.463,7.873-28.751c-1.2-7.493-12.253-14.602-17.083-19.959c-6.571-7.372-12.518-14.758-23.26-13.708
		c-8.768,0.857-17.413,4.439-26.324,3.472c-9.977-1.084-14.706-9.725-18.777-17.87c-3.848-7.7-7.115-15.879-12.638-22.589
		c-5.646-6.858-8.046-3.73-13.678,1.871c-4.172,4.15-6.85,6.379-1.368,10.355c7.385,5.357,11.508,12.669,15.919,20.585
		c4.918,8.827,8.948,19.02,9.215,29.241c0.285,10.932-3.577,21.528-3.029,32.463c1.341,19.971,19.169,39.232,33.232,52.073
		c5.411,4.941,13.506,10.319,21.18,8.186c1.837-0.511,16.128-6.281,17.128-4.579c1.331,1.998-9.664,9.139-11.109,10.203
		c-6.286,4.627,8.762,15.467,11.807,17.811c8.267,6.363,17.628,11.512,24.612,19.406c8.061,9.223,16.624,18.354,26.547,25.609
		c9.419,6.887,16.131,0.568,25.58-2.511c8.691-2.832,5.036,2.329,0.288,5.164c-2.78,1.66-11.326,5.041-9.555,9.59
		c3.506,9.005,16.996,17.335,24.224,23.233c9.75,7.957,18.997,16.482,28.647,24.554c4.497,3.816,9.784,7.512,13.892,11.693
		c3.468,3.528,5.462,7.791,10.767,8.818c8.634,1.673,15.994-2.341,23.373-5.941c9.075-4.427,2.929,2.407-1.09,5.279
		c-3.062,2.188-14.694,5.833-11.932,10.59c5.852,9.792,15.65,16.569,24.236,23.756c6.659,5.575,13.167,16.024,21.854,18.32
		c7.342,1.941,15.67-7.272,22.159-4.267c-4.271,4.14-11.108,6.167-14.844,10.135c-2.94,3.124,14.079,17.343,16.543,19.567
		c6.834,6.169,13.608,12.708,20.846,18.403c3.21,2.526,6.867,5.142,10.774,6.445c4.041,1.304,8.368-2.308,12.26-0.47
		c-0.15,4.071-3.689,5.402-6.729,7.04c5.939,7.442,14.044,13.041,22.11,17.94c10.633,6.521,20.853,14.663,32.381,19.57
		c9.101,3.874,20.281,7.683,30.211,7.966C729.184,686.57,751.955,686.135,750.361,683.184
		C747.552,682.693,751.722,685.704,750.361,683.184z M346.372,307.554c-8.339,6.742-20.013,17.528-31,16.74
		c-3.041,0-5.271-1.752-1.155-4.158c6.226-3.639,12.323-5.626,18.12-10.122c7.304-5.664,15.253-11.476,21.772-18.036
		c3.423-3.444,8.718-18.704,14.133-18.704c4.028,0-5.007,17.204-5.937,18.476C357.878,297.81,352.24,302.924,346.372,307.554
		C340.051,312.664,356.221,299.784,346.372,307.554z"/>
	<path fill="#191919" d="M736.501,233.773c-4.994-3.937-7.932-10.05-13.074-13.896c-5.181-3.874-12.109,4.521-15.256,8.09
		c-10.239,11.616-13.737,35.336-31.97,35.336c-8.1,0-16.301-2.677-24.388-1.331c-10.88,1.811-19.146,10.396-25.816,18.536
		c-5.289,6.452-12.626,13.905-12.315,22.879c0.091,2.625,9.059,19.125,8.91,19.125c-6.831,0-8.755-13.38-15.891-13.38
		c-8.373,0-19.419,18.622-24.188,24.433c-7.292,8.886-17.482,17.446-19.47,29.329c-0.871,5.206,0.662,10.254,1.972,15.248
		c1.224,4.667,5.548,8.608,6.146,13.2c-0.418-1.286-1.687-0.174-0.81,0.225c-5.304-1.895-8.893-9.899-11.483-14.388
		c-3.312-5.738-3.7-10.958-10.294-5.84c-5.369,4.168-34.379,44.819-31.04,47.865c7.199,6.566,11.489,16.703,18.428,24.035
		c7.59,8.02,15.916,15.375,22.74,24.095c4.334,5.539,4.974,9.007,10.55,2.397c1.646-1.952,8.461-8.037,4.293-10.52
		c-6.833-4.069-16.308-4.048-19.934-12.75c3.101-1.303,7.415,3.47,10.97,3.47c8.826,0,12.015,5.13,21.478,0.86
		c17.09-7.711,28.271-26.045,42.373-37.82c4.035-3.371,31.756-24.508,19.922-30.199c-4.303-2.07-8.29-2.665-12.373-5.416
		c-0.776-0.523-12.296-10.506-9.159-10.506c2.07,0,6.81,4.833,8.617,6.021c4.57,3.004,9.546,5.249,15.022,5.898
		c7.699,0.811,17.21-3.258,21.87-9.46c2.073-2.723,11.828-12.877,12.101-16.42c0.715-7.728,13.277-16.105,17.509-22.401
		c12.736-18.952,1.421-36.374,3.23-56.709c0.77-8.641,10.052-20.573,15.709-26.751C722.012,245.797,738.085,235.078,736.501,233.773
		C732.961,230.983,739.222,236.014,736.501,233.773z M679.191,317.204c-9.519-6.439-16.522-14.048-22.779-23.469
		c-3.725-5.607-12.825-16.215-12.076-23.481c0.404-3.923,5.072,3.182,5.374,3.676c3.049,5.005,5.792,9.526,9.45,14.161
		c11.826,14.982,28.838,24.837,43.451,36.843C694.575,327.026,685.52,321.484,679.191,317.204z"/>
	<path fill="#191919" d="M526.057,229.257c10.327,5.086,20.889,10.742,26.837,21.067c-2.162,1.081-30.908-25.427-70.241-25.857
		c-59.001,4.43-96.547,40.787-95.424,43.483c4.316,9.696,15.963,16.048,19.852,26.244c2.215,5.809,6.603,7.328,11.511,11.307
		c6.713,5.441,11.438,13.089,16.916,19.694c7.104,8.566,21.653,17.737,24.221,29.031c1.675,7.486,14.669,10.417,19.493,15.884
		c9.836,11.146,18.975,25.491,30.918,34.455c1.526,1.146,20.062-26.708,22.432-29.959c4.271-5.862,8.64-13.057,14.635-17.337
		c1.68-1.273,3.826-1.62,5.571-2.774c2.572-1.703,2.127-5.678,3.472-8.226c6.062-11.486,18.368-21.168,26.863-30.838
		c4.952-5.638,8.845-12.354,14.481-17.362c1.804-1.605,4.268-2.067,6.365-3.125c3.555-1.792,3.961-6.442,5.674-9.669
		c3.725-7.022,8.857-13.267,14.458-18.836C628.565,261.988,588.318,209.563,526.057,229.257z"/>
	<path fill="#191919" d="M599.319,146.035c-14.236,0-26.808,4.19-39.788,9.817c-6.181,2.679-14.759,6.392-14.469,12.021
		c0.256,4.463-1.47,14.776,5.593,12.962c5.152-1.324,9.651-4.455,14.546-6.443c13.348-5.424,28.35-5.941,42.016-1.283
		c11.904,4.058,17.752-6.376,20.176-16.79C629.955,145.728,604.759,146.035,599.319,146.035z"/>
	<path fill="#191919" d="M521.875,869.163c-7.234,0-15.935-3.007-16.117,6.095c-0.192,9.669,1.814,20.3,5.547,29.215
		c1.055,2.52,2.678,6.416,5.584,7.317c6.378,1.979,2.48-13.287,2.651-16.382C519.83,890.121,530.816,869.163,521.875,869.163z"/>
	<path fill="#191919" d="M459.197,488.918c-5.929,0-16.093,15.326-19.501,19.221c-3.922,4.482-8.828,8.634-8.49,15.146
		c0.35,6.765,4.739,12.674,8.094,18.264c0.017,0.026-3.298-0.249-3.831-0.645c-2.619-1.947-6.752-13.3-10.908-11.29
		c-9.261,4.487-16.835,18.581-22.646,26.687c-6.787,9.467-15.976,20.758-10.68,32.792c2.144,4.871-1.628,3.866-3.818,1.309
		c-4.628-5.406-9.65-0.141-12.653,4.257c-14.567,21.329-26.474,43.875-43.812,63.267c-9.214,10.306-19.134,18.339-32.043,23.44
		c-6.239,2.465-12.571,4.258-19.328,3.977c-5.19-0.215-11.75-1.427-16.438,1.444c18.712,10.126,44.994,1.803,62.428-7.368
		c10.502-5.524,19.492-13.322,29.215-20.028c8.805-6.173,18.615-11.933,24.995-20.833c-1.705-0.09-12.209-3.032-10.551-6.197
		c-0.026,0.05,13.896,0.746,15.034,0.51c8.776-1.798,14.847-7.1,21.471-12.736c11.675-10.053,28.704-17.072,35.329-31.879
		c-3.137-1.449-12.872-1.259-14.163-5.221c-0.819-2.514,12.875-0.666,13.933-0.666c13.936,0,18.71-10.825,26.984-19.914
		c1.613-1.773,23.059-19.06,19.875-20.681c-6.425-3.273-15.897-0.678-21.409-6.563c-3.976-4.245,5.437-1.748,6.404-1.464
		c5.014,1.468,9.917,3.979,15.22,3.43c7.309-0.756,20.933-4.969,12.858-13.366c-5.344-5.557-11.624-10.137-17.582-14.995
		C478.134,504.699,466.062,488.917,459.197,488.918z"/>
	<path fill="#191919" d="M240.598,94.078c-31.833,0-58.502,22.181-66.705,52.535c-3.575,13.23-3.184,27.642,2.799,40.128
		c3.138,6.549,17.71-2.002,23.483-3.262c-5.268-11.539-7.247-25.789-2.17-37.748c2.583-6.084,7.054-11.132,12.747-14.483
		c3.649-2.111,14.145-6.631,18.604-4.064c1.504,0.866-9.446,6.199-10.111,6.865c-3.127,3.127-3.45,8.956-1.682,12.818
		c1.396,3.187,6.718,2.567,7.209,6.329c0.635,5.087,1.082,9.929,5.688,12.979c1.681-11.634-2.11-23.495,8.492-32.524
		c10.681-9.02,26.476-9.254,38.663-2.928c21.058,10.931,36.809,28.797,56.344,41.941c21.797,14.582,47.241,25.177,73.939,22.03
		c13.472-1.623,25.454-8.921,37.513-14.583c5.332-2.504,10.808-4.796,16.501-6.345c4.395-1.196,13.6-0.456,16.182-4.954
		c5.176-9.018-1.917-15.797-10.701-14.987c-9.96,0.919-20.251,4.593-29.563,8.182c-24.425,9.415-46.785,18.904-72.631,7.455
		C319.448,149.196,295.928,94.078,240.598,94.078z"/>
	<path fill="#191919" d="M477.511,178.428c-5.437,3.132-10.953,6.256-16.923,8.269c-6.193,2.087-10.393,0.646-16.451,0.646
		c-6.402,0.001-11.902,4.731-17.496,7.188c-5.434,2.354-12.748,1.613-17.461,5.527c0.986,3.731,15.613,5.838,18.531,6.418
		c8.149,1.62,19.854,3.839,27.692-0.011c4.03-1.984,1.408-15.709,6.168-13.217c2.388,1.127,6.882,5.497,9.29,1.764
		C474.027,190.028,478.156,184.722,477.511,178.428z"/>
	<path fill="#191919" d="M279.642,762.403c-3.205,4.777-3.716,18.667-11.93,17.71c-12.81-1.56-26.464-2.844-38.533-7.682
		c-15.56-6.236-28.872-16.193-42.697-25.408c5.794-1.266,14.118,1.944,20.042,2.482c8.74,0.794,18.258-1.242,26.817-2.883
		c7.194-1.335,15.421-1.093,22.647-0.177c2.714,0.344,16.558,3.75,18.053,0.577c0.383-0.844-24.226-15.441-25.969-16.938
		c-6.557-5.634-12.447-12.453-19.781-17.102c-5.683-3.664-7.84-10.6-12.97-14.82c1.612-2.15,21.964,8.357,24.488,9.438
		c15.056,6.451,32.241,8.818,48.529,8.148c17.584-0.724,35.96-9.099,52.113-15.506c11.387,9.481,24.159,17.451,37.24,24.35
		c-22.104,2.765-42.936-6.165-65.228-1.854c-7.858,1.521-16.642,3.517-20.692,11.236
		C287.045,742.985,285.309,753.71,279.642,762.403C276.321,767.354,281.571,759.443,279.642,762.403z"/>
	<path fill="#191919" d="M371.931,731.563c4.067,0,8.021-1.47,11.69-3.064c4.435,2.156,11.225,2.663,9.123,8.109
		c-3.154,8.172-12.386,9.911-20.253,10.848c-3.463,0.412-39.301-2.474-38.84,0.737c1.658,4.774,22.195,5.14,26.518,5.667
		c8.192,1,15.673-0.249,23.737-1.863c7.741-1.551,4.506,5.911,3.329,11.496c-0.853,4.046-0.979,9.99-6.244,9.99
		c-6.606,0-13.411-2.539-19.608-4.581c-14.184-4.674-28.77-8.607-42.034-15.628c-6.063-3.209-11.973-7.119-16.468-12.371
		c-7.967-8.979,5.145-11.591,11.594-12.581c10.536-1.617,21.287-1.981,31.889-0.794C354.95,728.49,363.244,731.578,371.931,731.563z
		"/>
	<path fill="#191919" d="M336.974,547.731c-2.873,0-8.334,4.767-11.546,5.686c-4.94,1.414-10.073,2.018-15.167,2.567
		c-5.879,0.634-11.68,1.591-17.519,2.519c-4.336,0.689-11.892-0.875-15.58,1.552c3.622,4.383,3.338,10.715,4.083,16.022
		c0.99,7.348-4.167,18.466-1.187,25.1c3.012,6.701,19.23,5.698,25.322,5.698c12.009,0,30.211-2.601,32.886-16.89
		C339.115,585.458,341.979,547.731,336.974,547.731z"/>
	<path fill="#191919" d="M332.515,608.126c-9.055,0-17.667,2.972-26.927,2.917c-6.715-0.04-22-4.93-27.797-0.979
		c-15.693,10.695-16.902,24.233-5.057,37.844c5.487,6.305,13.045,12.38,21.578,13.579c10.806,1.517,18.513-8.48,24.254-16.199
		C321.114,641.862,342.45,608.126,332.515,608.126z"/>
	<path fill="#191919" d="M285.412,355.62c-8.262,4.739-0.935,24.631-1.586,32.081c-0.588,6.722-0.527,24.919-6.584,29.209
		c-2.904,2.057-5.426-20.106-5.535-23.122c-0.195-5.408-9.336-5.057-7.419-13.181c0.937-3.975,4.499-6.542,8.602-6.542
		c3.293,0,5.112,3.667,8.196,3.667c-0.704-4.781-1.196-9.595-1.439-14.422c-2.545-0.621-5.796,6.29-7.291,8.093
		c-1.697,2.15-5.793,3.02-8.174,4.102c-5.674,2.579-15.908,6.99-18.49,13.014c-3.259,7.603-2.863,18.003-4.448,26.09
		c-2.491,12.715-5.506,25.323-7.829,38.072c-6.74,36.987,6.469,72.292,35.663,95.992c12.433,10.094,37.325,5.323,51.556,0.823
		c17.058-5.394,12.245-21.198,6.814-34.049c-7.173-16.971-13.32-34.442-20.042-51.616c-8.144-20.805-13.313-42.569-11.979-65.033
		c-12.515,2.089,3.04-13.043-2.934-19.062c-2.784-2.806-5.067-3.779-3.466-8.386c0.792-2.28,2.316-5.135,0.951-7.561
		C285.201,361.003,288.221,359.518,285.412,355.62z"/>
	<path fill="#191919" d="M257.138,634.547c-13.588,0-12.736,22.058-12.282,30.311c0.821,14.932,12.074,17.19,24.485,11.334
		c4.51-2.127,9.392-3.108,13.875-5.345c7.927-3.955,4.978-5.838-1.246-10.226c-5.532-3.9-10.701-7.818-14.435-13.511
		C265.733,644.362,261.114,634.547,257.138,634.547z"/>
	<path fill="#191919" d="M243.317,531.298c1.42,0.704,2.222,9.935,2.526,11.37c1.541,7.262,3.036,14.554,4.943,21.73
		c3.489,13.13,7.724,29.5,17.436,39.454c4.65,4.767,5.712-8.295,6.028-11.213c1.033-9.545,1.859-19.555-1.933-28.656
		c-3.604-8.316-11.117-12.808-16.774-19.425C252.953,541.528,247.533,531.923,243.317,531.298z"/>
	<path fill="#191919" d="M230.615,640.031c-11.926,0.001-18.775,15.09-21.466,24.728c-6.223,6.223,16.577,13.008,19.378,13.725
		c2.417,0.619,11.704,2.965,12.62-0.537c1.153-4.412-0.597-9.944-1.44-14.286C238.117,655.484,243.843,640.031,230.615,640.031z"/>
	<path fill="#191919" d="M196.894,614.371c-5.624,2.265-11.086,5.007-17.066,6.243c-2.938,0.662-6.488,0.744-8.966,2.674
		c-4.62,3.597,6.255,23.322,11.564,23.322c6.675,0,12.84-10.145,16.631-14.614c2.273-2.642,5.968-4.211,7.521-7.486
		C208.789,619.848,199.942,615.574,196.894,614.371z"/>
	<path fill="#191919" d="M176.349,565.807c-13.517,0-14.496,7.484-15.585,18.445c0.186,9.827-2.185,32.701,12.684,32.701
		c10.944,0,24.056-5.616,19.305-17.739C189.866,591.852,186.164,565.807,176.349,565.807z"/>
	<path fill="#191919" d="M181.176,488.765c-7.768,0-6.509,14.163-5.833,18.293c0.131,0.801,1.571,9.559-1.602,6.134
		c-1.751-3.857-2.365-7.671-4.999-11.126c-7.875-10.329-7.354,7.295-8.218,12.729c-2.007,13.903-3.113,26.883-0.481,40.774
		c1.535,8.698,12.748,7.639,18.781,3.859c5.663-3.547,8.505-22.156,9.335-28.13C188.564,528.383,188.244,488.761,181.176,488.765z"
		/>
	<path fill="#191919" d="M270.681,377.129c-6.784,0-6.784,10.515,0,10.515C277.464,387.644,277.464,377.129,270.681,377.129z"/>
	<path fill="#191919" d="M747.053,377.129c-6.784,0-6.784,10.515,0,10.515C753.836,387.644,753.836,377.129,747.053,377.129z"/>
	<path fill="#191919" d="M217.694,637.717c-1.544-10.43-12.071-5.458-17.124-1.831c-3.316,2.38-6.496,5.11-9.026,8.332
		c-0.27,0.344-4.311,8.058-3.262,7.909c1.165,4.644,8.256,11.387,13.274,11.118C206.12,663,218.345,642.135,217.694,637.717z"/>
	<path fill="#191919" d="M725.731,358.423c-3.484-0.943-5.457,22.285-5.401,23.625c0.248,5.903-0.146,8.771-3.037,13.581
		c-3.225,5.367-0.88,17.092-1.564,23.364c-3.726,34.125-20.671,64.856-32.21,96.662c-11.287,31.111-16.131,64.814-6.857,97.124
		c3.902,13.594,10.286,27.14,18.478,38.701c1.281,1.808,12.202,11.961,11.692,13.21c-1.563,3.828-4.619,1.537-6.711-0.208
		c-12.867-10.728-22.707-26.286-32.3-39.869c-7.066-10.006-12.498-20.998-19.079-31.308c-2.354-3.663-3.546-9.611-7.85-11.62
		c-5.08-2.492-6.293-11.54-9.07-16.072c-7.113-11.611-15.388-22.622-22.985-33.925c-2.771-4.121-6.226-8.553-11.15-10.14
		c-7.707-2.482-3.53-8.548-8.411-14.18c-6.012-6.937-13.253-12.67-18.408-20.373c-1.293-1.932-4.393-6.447-1.905-8.65
		c2.372-2.134,4.827-4.192,6.881-6.65c1.915-2.338,1.95-6.125,4.329-8.09c9.926-1.987,20.633-12.266,27.799-19.395
		c8.346-8.303,15.407-17.967,24.832-25.146c9.636-7.257,19.948-13.606,27.302-23.368c3.713-4.93,3.156-9.549,8.335-12.931
		c7.212-4.708,11.616-10.91,16.211-18.036c1.57-2.436,5.53-11.984,8.382-13.125c7.726-3.09,15.431-18.097,20.4-24.64
		C720.248,336.209,726.327,346.358,725.731,358.423C725.142,358.264,726.317,346.563,725.731,358.423z"/>
	<path fill="#191919" d="M680.976,547.731c2.873,0,8.334,4.767,11.546,5.686c4.94,1.414,10.073,2.018,15.167,2.567
		c5.879,0.634,11.681,1.591,17.519,2.519c4.335,0.689,11.893-0.875,15.579,1.552c-3.621,4.384-3.338,10.715-4.083,16.022
		c-0.989,7.348,4.167,18.466,1.187,25.1c-3.012,6.701-19.23,5.698-25.322,5.698c-12.009,0-30.211-2.601-32.886-16.89
		C678.834,585.458,675.971,547.731,680.976,547.731z"/>
	<path fill="#191919" d="M685.435,608.126c9.055,0,17.667,2.972,26.927,2.917c6.716-0.04,22.001-4.93,27.798-0.979
		c15.692,10.695,16.9,24.234,5.056,37.844c-5.487,6.305-13.045,12.38-21.577,13.579c-10.806,1.517-18.513-8.48-24.254-16.199
		C696.836,641.862,675.5,608.126,685.435,608.126z"/>
	<path fill="#191919" d="M732.538,355.62c8.261,4.739,0.937,24.631,1.586,32.081c0.587,6.721,0.527,24.919,6.584,29.209
		c2.904,2.057,5.427-20.105,5.534-23.122c0.194-5.408,9.336-5.057,7.42-13.181c-0.937-3.976-4.499-6.542-8.603-6.542
		c-3.293,0-5.111,3.667-8.195,3.667c0.703-4.781,1.195-9.595,1.439-14.422c1.491-0.364,9.686,9.722,13.156,11.195
		c5.892,2.5,15.809,6.636,19.594,11.87c4.321,5.977,3.553,17.02,4.844,23.99c2.098,11.327,4.716,22.547,7,33.836
		c4.4,21.735,5.683,41.785-2.759,62.771c-3.611,8.979-8.271,18.48-15.419,25.177c-6.508,6.096-9.237,13.503-17.554,18.157
		c-13.381,7.489-41.917,4.516-55.285-3.021c-12.665-7.141-4.612-24.333-0.38-34.172c7.465-17.355,13.89-35.477,20.541-53.18
		c7.358-19.581,11.729-40.141,10.482-61.133c12.739,2.127-4.123-14.513,4.102-19.95C733.998,373.975,727.809,362.183,732.538,355.62
		z"/>
	<path fill="#191919" d="M760.812,634.547c13.588,0,12.736,22.058,12.282,30.311c-0.821,14.932-12.073,17.19-24.485,11.334
		c-4.51-2.127-9.392-3.108-13.875-5.345c-7.927-3.955-4.978-5.838,1.246-10.226c5.532-3.9,10.701-7.818,14.435-13.511
		C752.216,644.362,756.835,634.547,760.812,634.547z"/>
	<path fill="#191919" d="M775.632,531.298c-0.042,0.021-0.482,8.65-0.607,9.414c-1.146,6.96-2.889,13.833-4.865,20.599
		c-4.126,14.122-9.14,30.008-18.705,41.506c-5.416,6.511-6.312-6.093-6.755-10.178c-1.033-9.545-1.858-19.555,1.933-28.656
		c3.604-8.316,11.116-12.809,16.774-19.425C765.996,541.528,771.416,531.923,775.632,531.298z"/>
	<path fill="#191919" d="M787.334,640.031c11.926,0.001,18.775,15.09,21.466,24.728c6.224,6.223-16.576,13.008-19.378,13.725
		c-2.417,0.619-11.704,2.965-12.62-0.537c-1.153-4.412,0.597-9.944,1.44-14.286C779.833,655.484,774.106,640.031,787.334,640.031z"
		/>
	<path fill="#191919" d="M821.056,614.371c5.623,2.265,11.086,5.007,17.065,6.243c2.938,0.663,6.487,0.744,8.966,2.674
		c4.62,3.598-6.255,23.322-11.564,23.322c-6.675,0-12.839-10.146-16.631-14.614c-2.273-2.642-5.968-4.211-7.521-7.486
		C809.161,619.848,818.007,615.574,821.056,614.371z"/>
	<path fill="#191919" d="M841.601,565.807c13.517,0,14.496,7.484,15.586,18.445c-0.187,9.826,2.185,32.701-12.684,32.701
		c-10.944,0-24.057-5.616-19.305-17.739C828.084,591.852,831.785,565.807,841.601,565.807z"/>
	<path fill="#191919" d="M836.772,488.765c7.769,0,6.51,14.162,5.833,18.293c-0.131,0.801-1.571,9.56,1.603,6.134
		c1.751-3.857,2.364-7.671,4.999-11.126c7.874-10.329,7.354,7.295,8.218,12.729c2.006,13.903,3.113,26.883,0.48,40.774
		c-1.534,8.699-12.748,7.638-18.779,3.859c-5.664-3.547-8.506-22.156-9.336-28.13C829.386,528.383,829.706,488.761,836.772,488.765z
		"/>
	<path fill="#191919" d="M768.581,354.954l0.04-0.67C768.611,354.543,768.602,354.764,768.581,354.954z"/>
	<path fill="#191919" d="M800.255,637.717c1.547-10.429,12.07-5.458,17.125-1.831c3.315,2.38,6.495,5.11,9.025,8.332
		c0.27,0.344,4.311,8.058,3.262,7.909c-1.164,4.644-8.255,11.387-13.273,11.118C811.824,663,799.611,642.139,800.255,637.717z"/>
	<path fill="#191919" d="M260.267,200.494c-7.322,10.646-18.511,16.945-31.23,18.485c-3.151,0.381-6.408,0.202-9.533,0.723
		c-4.806,0.802-9.592,14.62-11.231,18.653c-4.914,12.087-10.978,30.562,0.881,40.605c3.972,3.364,9.151,4.688,14.274,4.601
		c1.333-0.022,8.243-2.024,9.123-1.438c-3.51,10.253-16.949,11.145-25.547,7.457c-7.097-3.044-13.049-16.763-20.836-16.43
		c0.727,4.609,3.606,8.49,4.482,13.057c-0.367,4.929-1.04,9.842-2.141,14.662c-1.595,6.983-4.111,13.815-7.96,19.883
		c-6.351,10.012-16.188,16.955-27.64,19.895c-11.626,2.984-37.251,4.293-46.451-6.132c23.995,8.804,67.285-7.58,70.316-36.448
		c1.404-13.376-11.916-22.82-13-35.768c-0.506-6.042,0.334-13.31,3.555-18.585c1.626-2.664,12.538-10.592,11.317-13.815
		c-1.698-4.486-15.71,7.34-16.955,8.724c-6.027,6.703-10.599,15.436-12.457,24.276c-1.861,8.858-1.092,17.816,3.651,25.656
		c2.496,4.126,5.761,7.732,9.214,11.072c5.287,5.111,8.815,5.456,3.316,11.949c-6.604,7.798-15.316,13.009-24.708,16.764
		c-5.19,2.075-6.466-0.574-9.094-4.875c-9.435-15.437-12.815-36.193-9.463-53.865c7.204-37.972,36.591-66.124,73.397-75.922
		c12.877-3.429,25.268-4.538,38.369-2.839C236.941,191.231,263.553,194.301,260.267,200.494
		C244.63,223.23,264.297,192.897,260.267,200.494z"/>
	<path fill="#191919" d="M287.424,295.784c8.433,0.642,5.744,30.282,4.624,34.313c-4.044,14.56-14.53,27.244-26.709,35.896
		c-33.886,24.074-76.646,11.568-106.277-12.097c-1.694-1.353-9.307-5.386-4.935-7.486c4.213-1.948,8.766-2.979,13.057-4.725
		c9.044-3.863,7.729-1.391,15.245,4.909c8.073,6.767,15.688,6.11,25.609,6.11c3.571,0,7.808,0.21,10.214,3.291
		c0.837,1.071,4.193,8.383,1.136,8.383c-2.378,0-4.587-1.572-7.062-1.572c-4.114,0-1.239,3.53,0.425,4.173
		c6.051,2.338,14.25,1.569,20.401,0.361c8.394-1.649,18.887-4.934,24.428-11.911c2.546-3.206,3.812-7.357,5.473-11.053
		c2.537-5.648,0.198-11.447,2.341-16.871c6.445,9.104,2.658,13.246,3.598,22.858c0.337,3.445,7.771-3.437,8.411-4.089
		C290.46,332.979,292.403,313.046,287.424,295.784z"/>
	<path fill="#191919" d="M215.691,318.288c-7.845,7.118-20.523,11.678-30.76,7.131c1.9-5.239,3.716-6.064,8.886-5.014
		C201.341,321.935,208.393,319.984,215.691,318.288z"/>
	<path fill="#191919" d="M282.984,148.534c8.083,0,15.697,17.835,17.301,23.972c2.627,10.052,1.239,20.68-2.701,30.194
		c-9.147,22.088-31.15,39.91-55.319,41.685c-4.966,0.365-22.752,0.842-24.469-5.368c-2.067-7.48,8.188-14.558,14.187-14.846
		c11.163-0.537,22.498-4.234,30.321-12.743c8.108-8.819,9.547-21.183,13.424-32.045c4.071,2.924,1.244,13.614,0.622,17.666
		c-0.489,3.184-1.256,7.083-0.06,10.211c1.997,5.236,8.679-6.08,9.46-7.435c4.937-8.556,7.182-18.783,6.085-28.614
		c-0.483-4.414-1.75-8.712-3.763-12.67C287.523,157.461,281.019,148.534,282.984,148.534z"/>
	<path fill="#191919" d="M248.111,353.063l0.09,1.69C248.171,354.333,248.142,353.764,248.111,353.063z"/>
	<path fill="#191919" d="M248.241,355.494l-0.02-0.36C248.231,355.293,248.241,355.414,248.241,355.494z"/>
	<path fill="#191919" d="M253.721,338.313c0.802,1.274,4.694,5.82,4.085,7.11c-1.917,4.058-5.546,10.14-10.695,10.14
		c-0.167-9.285,0.196-18.618,1.176-27.853c0.907-8.542,2.042-28.142,12.254-31.558C255.277,307.477,247.383,326.207,253.721,338.313
		z"/>
	<path fill="#191919" d="M649.911,121.664l-5.149-1.81C645.062,119.914,647.281,120.423,649.911,121.664z"/>
	<path fill="#191919" d="M763.899,339.313c-0.803,1.274-4.694,5.82-4.085,7.11c1.917,4.058,5.546,10.14,10.695,10.14
		c0.166-9.285-0.196-18.618-1.177-27.853c-0.906-8.542-2.041-28.142-12.254-31.558C762.344,308.478,770.238,327.207,763.899,339.313
		z"/>
	<path fill="#191919" d="M701.012,103.693c-2.845,5.064-7.204,9.371-12.768,11.304c-6.085,2.113-11.196,0.157-11.076,8.177
		c0.164,10.903-6.186,21.211-17.337,23.14c5.074-10.669,0.869-25.487-9.92-30.65c0.86,0.303,1.72,0.606,2.58,0.91
		c-2.805-1.218-7.608-3.966-10.84-3.35c14.978,21.849,15.98,51.242-0.96,72.34c-23.546,22.493-57.969,12.701-83.55-0.56
		c5.984-3.562,12.14-7.442,19.14-8.58c6.981-1.203,13.542,2.712,20.119,4.29c11.681,2.802,24.173-1.951,30.583-12.167
		c12.865-20.503,2.298-50.779-19.411-60.31c-24.312-10.673-51.045,2.222-61.893,25.201c-6.646,14.079-7.616,29.813-4.969,45.008
		c2.783,15.967,12.332,25.52,19.71,39.239c-5.762,3.894-17.636,1.229-24.277,2.574c-4.455,0.903-13.327,7.054-17.601,5.402
		c-23.05-8.913-43.786-8.592-67.632-1.086c-0.131-5.952,7.245-11.119,8.556-17.084c2.5-11.372,5.795-5.056,14.624-5.056
		c3.643,0,6.638-2.098,9.774-3.655c6.243-3.099,9.392,0.755,15.496,0.755c4.809,0,7.477-5.14,11.91-5.14
		c2.065,0,9.067,2.405,10.657-0.303c0.802-1.365-6.427-3.259-7.229-3.497c-6.54-1.937-5.189,0.611-10.438,3.779
		c-5.029,3.018-9.749-0.8-14.93-0.8c-5.016,0-9.592,5.875-14.54,4.56c0.195-6.166,5.77-11.065,6.557-17.414
		c1.056-8.517,1.472-17.188,0.674-25.745c-1.494-16.025-7.651-30.363-21.715-39.164c-22.726-14.22-65.096-5.141-70.459,24.225
		c-1.265,6.928,0.133,13.454,2.75,19.875c3.203,7.859,5.255,9.829-4.23,9.098c-16.194-1.247-18.337-12.499-18.112-26.963
		c0.107-6.919,6.146-14.693,5.45-21.064c-0.797-7.3-14.432-0.691-16.922,1.462c-5.146,4.451-7.149,10.127-7.696,16.699
		c-0.111,1.341-0.182,13.881,1.378,13.708c-5.332,0.59-13.245-12.613-14.916-16.307c-1.584-3.501-2.814-8.211-1.489-11.971
		c0.493-1.743,7.054-7.038,7.03-7.18c-18.943-4.105-34.309-18.87-28.6-39.26c1.817,18.083,13.182,30.829,31.566,31.865
		c6.289,0.355,13.072,0.014,19.271-0.65c15.831-1.694,28.237-10.221,42.672-15.941c25.114-9.953,59.887-6.635,81.455,10.088
		c10.567,8.193,19.072,19.166,23.35,31.882c1.368,4.069,7.138,37.336,10.127,37.336c3.95,0-2.552-30.183-3.163-32.39
		c-1.591-5.737-3.53-11.417-6.094-16.799c-1.657-3.481-3.123-3.666-0.853-7.223c2.089-3.273,4.445-6.377,7.062-9.249
		c15.928-17.481,39.913-23.769,62.915-22.15c22.735,1.601,39.747,12.518,60.3,21.038c25.692,10.65,58.298,5.201,59.993-27.807
		C708.521,84.853,704.729,97.042,701.012,103.693C697.012,110.813,704.461,97.523,701.012,103.693z"/>
	<path fill="#191919" d="M755.733,200.494c7.322,10.646,18.512,16.945,31.23,18.485c3.15,0.381,6.408,0.202,9.533,0.723
		c4.806,0.802,9.592,14.62,11.231,18.653c4.914,12.087,10.977,30.562-0.882,40.605c-3.972,3.364-9.15,4.688-14.273,4.601
		c-1.334-0.022-8.243-2.024-9.123-1.438c3.51,10.253,16.948,11.145,25.547,7.457c7.098-3.044,13.049-16.763,20.836-16.43
		c-0.727,4.609-3.606,8.49-4.482,13.057c0.367,4.929,1.04,9.842,2.141,14.662c1.596,6.983,4.111,13.815,7.96,19.883
		c6.352,10.012,16.188,16.955,27.64,19.895c11.627,2.984,37.252,4.293,46.451-6.132c-23.995,8.804-67.285-7.58-70.316-36.448
		c-1.404-13.376,11.916-22.82,13-35.768c0.506-6.042-0.334-13.31-3.555-18.585c-1.627-2.664-12.537-10.592-11.316-13.815
		c1.698-4.486,15.71,7.34,16.954,8.724c6.027,6.703,10.599,15.436,12.457,24.276c1.861,8.858,1.092,17.816-3.65,25.656
		c-2.496,4.126-5.762,7.732-9.215,11.072c-5.286,5.111-8.815,5.456-3.316,11.949c6.604,7.798,15.316,13.009,24.708,16.764
		c5.189,2.075,6.466-0.574,9.095-4.875c9.435-15.437,12.815-36.193,9.462-53.865c-7.203-37.972-36.591-66.124-73.397-75.922
		c-12.877-3.429-25.268-4.538-38.369-2.839C779.059,191.231,752.447,194.301,755.733,200.494
		C771.37,223.23,751.702,192.897,755.733,200.494z"/>
	<path fill="#191919" d="M657.092,165.244C656.657,164.809,657.356,167.569,657.092,165.244
		C657.102,165.253,657.071,165.063,657.092,165.244z"/>
	<g>
		<path fill="#191919" d="M492.235,811.988c-0.107,0.062-0.175,0.107-0.206,0.138c-0.152,0.121-0.425,0.348-0.819,0.683
			c-0.395,0.334-0.812,0.683-1.252,1.048c-0.44,0.363-0.85,0.706-1.229,1.024c-0.38,0.319-0.646,0.539-0.797,0.659
			c-0.244,0.243-0.372,0.456-0.387,0.638c-0.016,0.183-0.039,0.501-0.068,0.956c0,0.062-0.223,0.198-0.238,0.41
			c-0.016,0.213-0.238,0.455-0.238,0.729s0,0.562,0,0.865c0,0.273,0,0.486,0,0.638c0,0.243,0,0.577,0,1.001
			c0,0.427,0.23,0.799,0.261,0.828l0.67,0.373h4.098c0.151,0,0.258-0.235,0.319-0.419c0.061-0.182,0.106-0.466,0.137-0.71
			c0.03-0.242,0.038-0.514,0.022-0.741c-0.015-0.228-0.022-0.39-0.022-0.45c0-0.184,0.007-0.64,0.022-1.353
			c0.016-0.713,0.038-1.484,0.069-2.304c0.029-0.819,0.204-1.589,0.234-2.302c0.03-0.714,0.189-1.164,0.189-1.346v-0.137v-0.091
			l-0.371-0.229C492.567,811.897,492.341,811.929,492.235,811.988z"/>
		<path fill="#191919" d="M492.03,827.152c-0.152,0-0.395-0.015-0.729-0.046c-0.334-0.029-0.699-0.052-1.093-0.068
			c-0.395-0.014-0.767-0.011-1.115-0.042c-0.35-0.029-0.585-0.019-0.706-0.019h-0.547c-0.091,0-0.212,0-0.364,0
			c-0.122,0-0.198,0.05-0.228,0.201c0,0.182-0.016,0.51-0.045,1.012c-0.031,0.5-0.061,1.025-0.091,1.587
			c-0.031,0.562-0.064,1.09-0.079,1.59c-0.016,0.501-0.033,0.84-0.033,1.021v0.273c0,0.304,0.033,0.677,0.079,1.116
			c0.045,0.44,0.141,0.858,0.278,1.252c0.137,0.396,0.352,0.736,0.641,1.024c0.288,0.289,0.676,0.433,1.162,0.433
			c0.212,0,0.479-0.068,0.798-0.205c0.318-0.136,0.622-0.303,0.911-0.501c0.288-0.196,0.547-0.417,0.775-0.659
			c0.228-0.243,0.356-0.471,0.387-0.684c0-0.243,0.015-0.667,0.045-1.275c0.03-0.606,0.053-1.245,0.069-1.912
			c0.015-0.668-0.092-1.305-0.061-1.913c0.03-0.606-0.083-1.031-0.083-1.274v-0.137v-0.092c0-0.06,0.061-0.174,0.015-0.342
			C491.97,827.327,492.06,827.214,492.03,827.152z"/>
		<path fill="#191919" d="M476.32,808.978c-0.061,0-0.175,0.275-0.341,0.322c-0.167,0.045-0.281,0.188-0.342,0.217
			c-1.457,1.064-2.342,2.352-2.889,3.764c-0.546,1.412-0.748,3.035-0.748,4.766c0,0.272,0,0.941,0,2.003c0,1.032,0,2.155,0,3.37
			c0,1.214,0,2.338,0,3.369c0,1.032,0,1.685,0,1.958c0,0.243-0.133,0.645-0.162,1.206c-0.03,0.563-0.112,1.154-0.127,1.777
			c-0.016,0.622-0.068,1.213-0.098,1.775c-0.03,0.562-0.061,0.949-0.061,1.161c-0.152,0.789-0.432,1.542-0.827,2.254
			c-0.395,0.714-0.96,1.252-1.688,1.617c-0.335,0.151-0.564,0.228-0.685,0.228c-0.122,0-0.274,0.152-0.457,0.455
			c0.151,0.152,0.348,0.236,0.591,0.251s0.456,0.022,0.637,0.022c1.123,0,1.98-0.229,2.573-0.684
			c0.592-0.455,1.024-1.047,1.298-1.775s0.646-1.541,0.707-2.437c0.061-0.896,0.297-1.782,0.297-2.663c0-0.213,0-0.654,0-1.32
			c0-0.668,0-1.441,0-2.324c0-0.88,0-1.821,0-2.822c0-1.031,0-1.987,0-2.869c0-0.881,0-1.654,0-2.322c0-0.667,0-1.107,0-1.32
			c0-0.151-0.191-0.433-0.161-0.843c0.03-0.409-0.034-0.856,0.011-1.343c0.045-0.485,0.046-0.948,0.108-1.389
			c0.061-0.439,0.08-0.767,0.111-0.979c0.061-0.485,0.191-0.94,0.419-1.367c0.228-0.424,0.479-0.826,0.768-1.206
			c0.288-0.379,0.566-0.973,0.84-1.367s0.497-0.484,0.679-1.484h-0.227H476.32z"/>
		<path fill="#191919" d="M726.052,794.233c-2.092-0.996-11.762,8.387-13.433,9.706c-6.926,5.466-20.093,8.729-5.146-0.616
			c10.428-6.519,18.021-11.255,15.947-24.303c-0.433-2.727-0.693-7.104-3.022-9.012c-2.452-2.01-10.693,5.798-13.486,6.988
			c-2.105,0.897-4.374,0.941-2.146-1.66c3.85-4.496,10.345-7.047,12.635-12.823c0.697-1.733,0.304-14.11-2.32-14.11
			c-2.947,0-6.961,3.782-9.207,5.352c-20.806,14.536-47.965,20.711-72.617,25.438c-29.965,5.747-61.083,7.194-91.49,9.035
			c-28.356,1.717-56.493,2.699-84.87,0.38c-53.584-4.38-116.367-9.607-159.505-45.325c-4.864,8.754-4.255,12.071,3.159,19.26
			c2.641,2.561,16.585,10.963,15.162,16.264c-0.174,0.648-16.202-8.8-17.558-10.073c-6.437-6.043-8.692-9.824-13.065-0.45
			c-4.361,9.35,5.725,17.243,12.143,22.58c3.1,2.533,14.77,13.417,18.372,13.191c-4.253,0.266-11.209-4.82-14.719-6.722
			c-3.162-1.713-21.672-14.61-22.393-12.88c-4.125,10.472-3.692,14.991,5.305,22.582c9.1,7.679,19.963,13.517,30.558,18.846
			c49.053,24.671,103.752,32.014,157.958,34.828c25.504,1.323,50.368,1.317,75.86-0.086c25.767-1.418,50.965-0.694,76.4-6.174
			c23.406-5.042,47.532-12.382,68.629-23.846c10.424-5.593,20.297-11.308,29.848-18.301
			C725.908,810.209,733.105,796.383,726.052,794.233z M511,834.894c0,0.152-0.545,0.41-0.879,0.773
			c-0.334,0.365-0.773,0.752-1.167,1.161c-0.396,0.411-0.805,0.798-1.154,1.162s-0.604,0.622-0.725,0.774
			c-0.243,0.242-0.524,0.568-0.828,0.979c-0.305,0.409-0.635,0.813-0.983,1.207c-0.351,0.395-0.694,0.521-1.027,0.81
			c-0.335,0.288-0.655,0.218-0.958,0.218h-0.091l-4.555-3.428c-0.062-0.061-0.156-0.066-0.339-0.234
			c-0.183-0.167-0.294-0.174-0.294-0.234v-0.091v-0.138c0-3.398,0.447-6.699,0.705-9.903c0.258-3.202,0.295-6.519,0.295-9.95
			c0-0.182,0-0.424,0-0.728s0.014-0.6,0-0.888c-0.016-0.289,0-0.539,0-0.752v-0.319l-4.238-4.335h-0.456
			c-0.152,1-0.252,2.798-0.267,4.012c-0.017,1.214-0.04,2.539-0.04,3.967c0,0.182,0,0.41,0,0.684c0,0.271-0.016,0.539,0,0.796
			c0.015,0.258,0,0.494,0,0.706c0,0.182,0,0.289,0,0.318l0.307,0.518h2.732c0.151,0-0.039-0.168-0.039,0.075
			c0,0.212,0,0.334,0,0.364v0.409l-1.688,3.87c-0.061,0.123-0.109,0.199-0.275,0.229c-0.167,0.03-0.308,0.061-0.49,0.091
			c-0.182,0.031-0.259,0.068-0.41,0.114c-0.152,0.045-0.137,0.129-0.137,0.251v6.102l2.355-1.505h0.273
			c0.426,0,0.638-0.053,0.638,0.342c0,0.273-0.091,0.393-0.273,0.604c-0.182,0.214-0.395,0.349-0.638,0.531
			c-0.242,0.182-0.493,0.325-0.751,0.492c-0.258,0.168-0.463,0.326-0.615,0.508l-9.562,7.506c-0.182,0.151-0.327,0.23-0.433,0.246
			c-0.107,0.015-0.266,0.021-0.478,0.021c-0.062,0-0.145-0.009-0.251-0.023c-0.106-0.016-0.175-0.022-0.205-0.022
			c-0.182-0.123-0.517-0.357-1.002-0.707c-0.486-0.349-0.995-0.721-1.525-1.115c-0.531-0.395-1.033-0.759-1.502-1.094
			c-0.471-0.333-0.797-0.576-0.979-0.728c-0.183-0.152-0.312-0.258-0.387-0.319c-0.076-0.061-0.114-0.182-0.114-0.365
			c0-0.029,0.007-0.067,0.022-0.112c0.015-0.047,0.023-0.083,0.023-0.114c0.577-0.456,1.055-0.926,1.435-1.412
			c0.379-0.484,0.66-1.077,0.842-1.775c0-0.243,0.015-0.675,0.045-1.297c0.03-0.623,0.053-1.283,0.068-1.982
			c0.015-0.697-0.013-1.366,0.018-2.004c0.03-0.637-0.005-1.076-0.005-1.32v-0.501c0-0.06,0-0.196,0-0.409
			c0-0.212,0.025,0.053-0.126,0.053h-4.645c0,0,0.007-0.451,0.022-0.71c0.015-0.258,0.038-0.525,0.068-0.615
			c0.03-0.274,0.098-0.669,0.205-1.095c0.105-0.426,0.205-0.865,0.296-1.274c0.091-0.41,0.174-0.778,0.25-1.083
			c0.075-0.303,0.128-0.477,0.159-0.506l0.228-0.231c0.029,0,0.189-0.015,0.478-0.048c0.288-0.029,0.637-0.067,1.047-0.112
			c0.41-0.047,0.735-0.07,0.979-0.07c0.091,0,0.146,0.008,0.496,0.022c0.349,0.017,0.542,0.023,0.542,0.023v-7.331
			c0-0.183,0.035-0.464-0.223-0.843c-0.258-0.379-0.472-0.758-0.806-1.139c-0.335-0.379-0.627-0.713-0.96-1.002
			c-0.334-0.288-0.542-0.432-0.663-0.432c-0.273,0-0.468,0.091-0.604,0.272c-0.137,0.183-0.307,0.395-0.519,0.638
			c-0.607,0.698-1.045,1.457-1.318,2.277c-0.273,0.818-0.553,1.669-0.659,2.549c-0.107,0.882-0.249,1.777-0.249,2.688
			c0,0.881,0,1.715,0,2.504c0,0.214,0,0.668,0,1.366s0,1.503,0,2.414c0,0.91,0,1.897,0,2.959c0,1.032,0,2.004,0,2.915
			c0,0.91,0,1.716,0,2.413c0,0.7,0,1.154,0,1.366c0,0.214,0.068,0.569,0.022,1.069c-0.046,0.503-0.045,1.024-0.091,1.571
			c-0.045,0.547-0.068,1.071-0.114,1.571c-0.046,0.501-0.073,0.843-0.103,1.024c-0.273,0.76-0.609,1.488-1.019,2.187
			c-0.41,0.698-0.901,1.305-1.477,1.821c-0.577,0.516-1.221,0.934-1.934,1.252c-0.714,0.318-1.495,0.479-2.344,0.479
			c-0.699,0-1.374-0.085-2.026-0.25c-0.653-0.168-1.298-0.357-1.935-0.57c-0.637-0.212-1.283-0.402-1.936-0.568
			c-0.653-0.167-1.328-0.251-2.026-0.251c-0.668,0-1.215,0.129-1.639,0.388c-0.425,0.258-0.767,0.599-1.024,1.024
			c-0.258,0.425-0.456,0.91-0.592,1.456c-0.137,0.547-0.221,1.069-0.251,1.646c-0.061,0.183-0.198,0.234-0.41,0.234
			c-0.213,0-0.35,0-0.41,0c-0.365,0-0.592-0.006-0.683-0.098s-0.137-0.3-0.137-0.664c0-0.758,0.053-1.561,0.159-2.426
			s0.296-1.718,0.569-2.568s0.63-1.643,1.07-2.389c0.439-0.742,0.994-1.356,1.662-1.841c0.516-0.396,1.093-0.677,1.73-0.844
			c0.637-0.167,1.275-0.311,1.913-0.432c0.637-0.121,1.259-0.258,1.867-0.41c0.607-0.151,1.139-0.401,1.594-0.751
			c0.456-0.348,0.827-0.834,1.116-1.457c0.288-0.621,0.433-1.479,0.433-2.572c0-0.851-0.159-1.655-0.478-2.414
			s-0.751-1.427-1.298-2.004c-0.547-0.576-1.192-1.031-1.936-1.365s-1.541-0.501-2.391-0.501c-0.395,0-0.759,0.084-1.093,0.25
			c-0.334,0.167-0.653,0.356-0.956,0.569c-0.304,0.213-0.608,0.402-0.911,0.569s-0.623,0.25-0.956,0.25
			c-0.243,0-0.387-0.068-0.433-0.205c-0.045-0.136-0.068-0.31-0.068-0.523c0-0.576,0.152-1.169,0.456-1.775
			c0.303-0.607,0.683-1.176,1.138-1.708c0.455-0.531,0.949-1.01,1.48-1.434c0.531-0.426,1.04-0.76,1.525-1.003
			c0.061-0.029,0.174-0.068,0.342-0.114c0.167-0.045,0.28-0.082,0.341-0.113c0.091,0,0.28-0.015,0.569-0.045
			c0.288-0.03,0.592-0.054,0.911-0.068s0.615-0.039,0.888-0.068s0.47-0.047,0.592-0.047l0.228-0.227
			c0.303-2.033,0.872-3.757,1.708-5.168c0.834-1.412,1.851-2.642,3.051-3.689c1.199-1.047,2.557-1.996,4.075-2.846
			c1.518-0.85,3.126-1.73,4.827-2.641c0.698-0.365,1.305-0.699,1.822-1.003c0.516-0.302,1.122-0.576,1.821-0.819
			c0.273,0.518,0.706,1.002,1.297,1.457c0.592,0.456,1.191,0.919,1.799,1.39s1.287,0.972,1.742,1.503
			c0.456,0.531,0.922,1.131,0.922,1.799v3.188l0.307-0.229c1.062-0.91,1.884-1.677,2.613-2.299s1.435-1.268,2.194-1.936
			c0.759-0.668,1.378-1.229,1.894-1.686c0.516-0.455,1.03-0.842,1.562-1.297s1.061-1.297,1.608-1.297h0.318
			c0.184,0,0.434,0.084,0.752,0.387s0.667,0.647,1.047,1.104c0.38,0.455,0.789,0.939,1.23,1.486
			c0.438,0.547,0.887,1.038,1.342,1.493c0.456,0.455,0.903,0.831,1.344,1.134c0.439,0.304,0.856,0.453,1.252,0.453
			c0.03,0,0.068-0.008,0.114-0.022c0.046-0.016,0.084-0.024,0.113-0.024c0.062,0,0.184-0.031,0.365-0.092
			c0.182-0.06,0.288-0.105,0.318-0.137l2.732-2.504c0.092-0.029,0.166-0.046,0.228-0.046c0.242,0,0.426,0.13,0.546,0.387
			c0.121,0.259,0.184,0.51,0.184,0.753c0,0.029-0.017,0.12-0.047,0.271l-3.415,3.644c-0.364,0.395-0.637,0.896-0.819,1.503
			c-0.183,0.607-0.289,1.169-0.319,1.685c-0.03,0.425-0.076,1.048-0.136,1.867c-0.062,0.819-0.115,1.661-0.159,2.527
			c-0.047,0.865-0.088,1.661-0.119,2.39c-0.029,0.729-0.049,1.201-0.049,1.412c0,0.062,0,0.304,0,0.729c0,0.395,0.015,0.857,0,1.389
			c-0.016,0.531,0,1.069,0,1.616c0,0.546,0,0.972,0,1.275c0,0.182,0,0.516,0,1.001c0,0.486-0.016,0.995,0,1.526
			c0.015,0.531,0,1.04,0,1.525c0,0.455,0,0.774,0,0.956c0,0.335,0.566,0.615,0.869,0.843s0.67,0.342,1.095,0.342
			c0.364,0,0.677-0.106,0.935-0.319c0.257-0.212,0.501-0.456,0.729-0.728c0.228-0.274,0.464-0.518,0.707-0.729
			c0.242-0.212,0.546-0.319,0.911-0.319c0.242,0,0.528,0.068,0.559,0.205c0.029,0.137,0.196,0.297,0.196,0.479V834.894z
			 M565.99,835.235c-0.41,0.501-0.874,1.017-1.39,1.549c-0.518,0.53-1.024,1.031-1.525,1.502s-0.857,0.812-1.071,1.025
			c-0.09,0.12-0.266,0.311-0.523,0.568s-0.539,0.532-0.842,0.819c-0.304,0.289-0.585,0.53-0.843,0.789
			c-0.258,0.257-0.432,0.489-0.522,0.489h-0.138c-0.881,0-1.625-0.331-2.23-1.06c-0.607-0.729-1.116-1.524-1.526-2.421
			c-0.41-0.895-0.736-1.703-0.979-2.431c-0.243-0.729-0.41-1.089-0.5-1.089h-0.092c-0.426,0-0.843,0.686-1.252,1.232
			c-0.41,0.547-0.805,1.134-1.184,1.756c-0.381,0.623-0.729,1.238-1.049,1.845c-0.318,0.607-0.599,1.296-0.842,1.721
			c-0.122,0.183-0.243,0.446-0.365,0.446c-0.091,0-0.242,0-0.454,0c-0.668,0-1.367-0.354-2.095-0.719
			c-0.729-0.365-1.427-0.738-2.095-0.952c-1.396-0.394-2.809-0.726-4.235-0.908c-1.428-0.182-2.869-0.294-4.326-0.294
			c-1.609,0-3.233,0.035-4.872,0.126c-1.639,0.092-3.232,0.345-4.781,0.769c-0.273,0.092-0.638,0.225-1.094,0.407
			c-0.455,0.183-0.918,0.362-1.388,0.545c-0.472,0.183-0.927,0.342-1.366,0.479c-0.44,0.136-0.798,0.203-1.07,0.203
			c-0.062,0-0.151-0.007-0.273-0.022c-0.121-0.015-0.213-0.022-0.273-0.022c-0.182-0.183-0.272-0.411-0.272-0.683
			c0-0.243,0.074-0.456,0.228-0.638c0.151-0.183,0.318-0.349,0.501-0.501c1.123-0.455,2.17-0.881,3.142-1.276
			c0.971-0.394,1.905-0.841,2.801-1.343c0.895-0.501,1.753-1.062,2.572-1.685c0.82-0.622,1.624-1.389,2.414-2.3
			c0.029-0.061,0.068-0.174,0.113-0.342c0.046-0.166,0.083-0.28,0.114-0.342c0.029-0.15,0.075-0.363,0.137-0.637
			c0.06-0.273,0.113-0.539,0.159-0.797c0.045-0.258,0.083-0.493,0.113-0.706c0.03-0.212,0.046-0.334,0.046-0.364
			c0-0.85-0.152-1.556-0.455-2.117c-0.304-0.562-0.706-1.018-1.207-1.366s-1.077-0.585-1.729-0.706
			c-0.654-0.121-1.344-0.166-2.072-0.137c-0.335-0.151-0.502-0.379-0.502-0.684c0-0.485,0.145-0.895,0.433-1.229
			s0.646-0.593,1.07-0.774c0.426-0.183,0.88-0.312,1.366-0.387c0.485-0.076,0.911-0.114,1.275-0.114
			c0.576,0,1.093,0.106,1.548,0.318c0.456,0.214,0.865,0.449,1.23,0.707c0.363,0.258,0.697,0.727,1,0.938
			c0.305,0.213,0.594,0.552,0.865,0.552h0.138c0.12-1,0.188-0.771,0.206-0.938c0.015-0.166,0.021-0.489,0.021-0.731
			c0-0.637-0.091-1.401-0.273-2.176c-0.182-0.774-0.471-1.524-0.865-2.191c-0.395-0.668-0.881-1.027-1.457-1.484
			c-0.576-0.453-1.26-0.479-2.049-0.479h-0.364c-0.062,0-0.168-0.203-0.319-0.174c-0.152,0.033-0.318-0.047-0.501-0.017
			c-0.182,0.031-0.349,0.103-0.5,0.118c-0.152,0.017-0.244,0.072-0.273,0.072h-0.136c-0.245,0-0.404-0.195-0.479-0.377
			c-0.076-0.182-0.114-0.4-0.114-0.553c0-0.029,0.008-0.117,0.023-0.209c0.015-0.092,0.023-0.163,0.023-0.194
			c0.547-0.698,1.199-1.22,1.957-1.555c0.759-0.333,1.578-0.505,2.46-0.505c0.939,0,1.775,0.385,2.503,0.81
			c0.729,0.426,1.459,0.583,2.187,1.583h0.456c0.394-1,0.902-2.164,1.525-3.045c0.622-0.881,1.101-1.955,1.434-2.955h-0.136
			c-0.396,0-0.773,0.142-1.139,0.231c-0.364,0.092-0.745,0.185-1.138,0.185c-0.821,0-1.595-0.136-2.323-0.455
			c-0.729-0.318-1.435-0.648-2.117-1.013s-1.389-0.7-2.117-1.019c-0.729-0.318-1.503-0.476-2.323-0.476
			c-0.485,0-0.949,0.087-1.388,0.253c-0.441,0.166-0.858,0.387-1.253,0.66s-0.774,0.57-1.139,0.889s-0.729,0.631-1.092,0.934
			c-0.032,0-0.054,0.008-0.068,0.022c-0.018,0.017-0.039,0.024-0.069,0.024c-0.243,0-0.402-0.115-0.478-0.343
			c-0.076-0.228-0.114-0.433-0.114-0.614c0-0.03,0.007-0.099,0.023-0.205c0.015-0.105,0.022-0.189,0.022-0.25
			c0.606-0.699,1.289-1.367,2.049-2.004c0.758-0.639,1.562-1.191,2.413-1.662c0.85-0.471,1.737-0.85,2.664-1.139
			c0.927-0.288,1.875-0.433,2.846-0.433c1.003,0,1.937,0.092,2.801,0.273c0.865,0.182,1.769,0.471,2.71,0.865
			c0.424,0.182,0.826,0.38,1.206,0.592s0.768,0.418,1.162,0.614c0.394,0.198,0.797,0.357,1.206,0.479
			c0.409,0.122,0.873,0.182,1.39,0.182c0.363,0,0.743-0.09,1.138-0.272c0.395-0.182,0.774-0.41,1.139-0.683
			c0.364-0.273,0.706-0.574,1.024-0.863s0.6-0.773,0.842-0.773h1.139c0.092,0-0.045,0.121-0.014,0.316
			c0.03,0.199-0.151,0.348-0.151,0.409v0.228c0,0.091-0.062,0.25-0.304,0.479c-0.243,0.228-0.403,0.478-0.677,0.75
			c-0.271,0.274-0.475,0.532-0.701,0.774c-0.228,0.244-0.363,0.41-0.454,0.501c-0.061,0.062-0.133,0.221-0.239,0.479
			c-0.106,0.259-0.168,0.403-0.197,0.433c-0.062,0.062-0.21,0.182-0.453,0.364s-0.394,0.289-0.454,0.319
			c-0.547,1.032-1.039,2.034-1.479,3.006c-0.441,0.971-0.781,2.019-1.023,3.142c-0.122,0.425-0.176,0.881-0.159,1.366
			c0.015,0.485-0.009,0.941-0.068,1.366c-0.183,1.274-0.373,2.641-0.569,4.098c-0.198,1.457-0.479,2.892-0.843,4.303
			c-0.365,1.412-0.865,2.755-1.503,4.03c-0.638,1.274-1.488,2.368-2.55,3.279c-0.335,0.272-0.745,0.554-1.23,0.841
			c-0.485,0.289-0.979,0.578-1.479,0.865c-0.501,0.289-0.964,0.578-1.389,0.865c-0.426,0.289-0.728,0.57-0.911,0.844
			c0.03,0,0.083,0.008,0.159,0.022c0.076,0.017,0.13,0.022,0.16,0.022c0.425,0,0.826-0.074,1.207-0.228
			c0.378-0.151,0.78-0.318,1.206-0.501c1.67-0.729,2.99-1.525,3.962-2.391c0.971-0.865,1.753-1.836,2.346-2.914
			c0.591-1.077,1.062-2.284,1.411-3.621c0.349-1.335,0.735-2.838,1.16-4.508c-0.029-0.029-0.044-0.091-0.044-0.182
			c0-0.12,0.015-0.212,0.044-0.273c0.214-1.274,0.38-2.595,0.502-3.961c0.121-1.367,0.311-2.718,0.569-4.054
			c0.258-1.335,0.638-2.626,1.138-3.87c0.501-1.244,1.207-2.368,2.118-3.37l2.277-2.276c0.182-0.151,0.409-0.228,0.683-0.228
			s0.462,0.099,0.568,0.296s0.16,0.417,0.16,0.66c0,0.061-0.017,0.198-0.046,0.409c-0.03,0.062-0.175,0.177-0.433,0.342
			c-0.259,0.168-0.418,0.281-0.479,0.342c-0.395,0.396-0.819,0.851-1.274,1.366c-0.455,0.517-0.874,1.07-1.253,1.662
			c-0.379,0.593-0.756,1.199-1.014,1.821s-0.445,1.253-0.445,1.89v0.091c0,0.031,0.088,0.076,0.15,0.138
			c0.059,0.061,0.134,0.09,0.164,0.09l0.105,0.047c0.03,0,0.083-0.015,0.145-0.047c1.366-0.697,2.689-1.51,3.965-2.436
			s2.536-1.859,3.781-2.801c0.213-0.151,0.366-0.265,0.457-0.342c0.091-0.074,0.242-0.113,0.455-0.113
			c0.273,0,0.503,0.091,0.595,0.273c0.091,0.182,0.183,0.396,0.183,0.638v0.455c0,0.151-0.578,0.425-1.004,0.819
			c-0.424,0.396-0.66,0.805-0.66,1.229c0,0.275,0.071,0.594,0.239,0.957c0.166,0.365,0.365,0.714,0.608,1.049
			c0.242,0.333,0.513,0.622,0.817,0.864c0.303,0.243,0.575,0.364,0.817,0.364c0.244,0,0.462-0.061,0.659-0.182
			c0.199-0.121,0.38-0.258,0.546-0.41c0.167-0.152,0.342-0.289,0.524-0.41c0.182-0.121,0.394-0.183,0.638-0.183
			c0.303,0,0.515,0.107,0.638,0.319c0.12,0.213,0.181,0.455,0.181,0.729c0,0.244-0.203,0.523-0.613,0.842
			c-0.411,0.319-0.919,0.661-1.526,1.025s-1.26,0.721-1.958,1.07c-0.699,0.349-1.352,0.682-1.957,1.001
			c-0.607,0.318-1.116,0.601-1.527,0.843c-0.409,0.243-0.613,0.426-0.613,0.547c0,0.182,0.106,0.432,0.318,0.751
			s0.462,0.661,0.751,1.024c0.288,0.364,0.569,0.714,0.844,1.047c0.272,0.335,0.47,0.608,0.591,0.82
			c0.029,0.091,0.106,0.25,0.228,0.479c0.122,0.228,0.243,0.463,0.365,0.705c0.12,0.243,0.234,0.471,0.341,0.684
			c0.105,0.213,0.174,0.349,0.206,0.41c0.029,0.061,0.091,0.212,0.182,0.455s0.196,0.508,0.318,0.797
			c0.12,0.289,0.243,0.576,0.364,0.865s0.212,0.493,0.273,0.613c0.151,0.396,0.356,0.957,0.615,1.687
			c0.257,0.729,0.568,1.456,0.933,2.185c0.364,0.729,0.774,1.25,1.229,1.795c0.456,0.547,0.971,0.703,1.549,0.703h0.228
			c0.091,0,0.219,0.088,0.387,0.027c0.167-0.062,0.266-0.048,0.296-0.078l1.821-1.793c0.092-0.029,0.151-0.031,0.183-0.031
			c0.303,0,0.508,0.115,0.615,0.326c0.105,0.213,0.159,0.444,0.159,0.687C566.604,834.358,566.399,834.734,565.99,835.235z"/>
		<path fill="#191919" d="M726.052,794.233C727.892,794.794,726.031,794.224,726.052,794.233L726.052,794.233z"/>
		<path fill="#191919" d="M548.344,821.552c0.183-0.092,0.44-0.243,0.773-0.456c0.334-0.212,0.684-0.425,1.048-0.638
			c0.364-0.211,0.698-0.409,1.002-0.591c0.304-0.183,0.501-0.304,0.593-0.365c0.242-0.151,0.271-0.28,0.302-0.388
			c0.03-0.105-0.062-0.279-0.062-0.523v-0.454c0-0.091-0.046-0.243-0.166-0.456c-0.122-0.211-0.196-0.439-0.334-0.683
			c-0.137-0.243-0.246-0.47-0.383-0.683s-0.222-0.365-0.283-0.456c-0.213-0.273-0.38-0.493-0.517-0.659
			c-0.136-0.167-0.338-0.252-0.609-0.252c-0.305,0-0.705,0.145-1.207,0.434c-0.501,0.288-0.78,0.6-0.841,0.934
			c-0.031,0.182-0.083,0.485-0.158,0.909c-0.076,0.427-0.145,0.882-0.206,1.366c-0.061,0.486-0.121,0.942-0.182,1.367
			s-0.107,0.729-0.137,0.91c-0.029,0.092-0.054,0.296-0.068,0.615c-0.015,0.318-0.022,0.523-0.022,0.614
			c0.303,0,0.554-0.053,0.751-0.159C547.835,821.833,548.07,821.703,548.344,821.552z"/>
		<path fill="#191919" d="M551.76,828.974c-0.184-0.516-0.335-0.941-0.456-1.274c-0.091-0.274-0.273-0.615-0.546-1.024
			c-0.273-0.41-0.578-0.805-0.911-1.185c-0.335-0.38-0.691-0.713-1.07-1.002c-0.38-0.287-0.722-0.432-1.024-0.432
			c-0.426,0-0.745,0.083-0.956,0.25c-0.213,0.167-0.38,0.388-0.501,0.659c-0.121,0.274-0.205,0.57-0.251,0.889
			c-0.045,0.318-0.113,0.631-0.204,0.934c-0.062,0.213-0.153,0.517-0.274,0.911c-0.12,0.395-0.242,0.782-0.363,1.161
			c-0.122,0.38-0.228,0.722-0.318,1.024c-0.092,0.304-0.153,0.486-0.184,0.546c-0.062,0.092-0.151,0.259-0.272,0.502
			c-0.122,0.242-0.25,0.5-0.387,0.773c-0.138,0.273-0.441,0.523-0.578,0.752c-0.137,0.228-0.463,0.387-0.463,0.478v0.684
			c1,0.03,1.176,0.076,1.738,0.136c0.562,0.062,1.184,0.168,1.7,0.319c0.091,0.03,0.33,0.106,0.634,0.227
			c0.304,0.122,0.659,0.245,1.023,0.365c0.364,0.121,0.707,0.235,1.011,0.341c0.305,0.107,0.508,0.176,0.6,0.206
			c0.271,0.029,0.44,0.045,0.502,0.045c0.212,0,0.411-0.007,0.594-0.022s0.35-0.099,0.501-0.25c0.121-0.092,0.273-0.229,0.457-0.41
			c0.182-0.183,0.406-0.356,0.573-0.524c0.167-0.167,0.667-0.388,0.667-0.659v-1.139c0-0.729-0.5-1.328-0.666-1.799
			C552.166,829.983,551.941,829.491,551.76,828.974z"/>
	</g>
</g>
</svg>
